G04 EAGLE Gerber RS-274X export*
G75*
%MOMM*%
%FSLAX34Y34*%
%LPD*%
%IN10_Solder Paste Bottom*%
%IPPOS*%
%AMOC8*
5,1,8,0,0,1.08239X$1,22.5*%
G01*
%ADD10C,1.300000*%
%ADD11C,0.075000*%
%ADD12C,0.100000*%


D10*
X211900Y88000D03*
X237300Y88000D03*
X262700Y62600D03*
X262700Y88000D03*
X288100Y62600D03*
X211900Y113400D03*
X237300Y62600D03*
X262700Y113400D03*
X211900Y62600D03*
X288100Y113400D03*
X288100Y88000D03*
X237300Y113400D03*
D11*
X194925Y43875D02*
X190875Y43875D01*
X190875Y46125D01*
X194925Y46125D01*
X194925Y43875D01*
X194925Y44587D02*
X190875Y44587D01*
X190875Y45299D02*
X194925Y45299D01*
X194925Y46011D02*
X190875Y46011D01*
X197075Y43875D02*
X201125Y43875D01*
X197075Y43875D02*
X197075Y46125D01*
X201125Y46125D01*
X201125Y43875D01*
X201125Y44587D02*
X197075Y44587D01*
X197075Y45299D02*
X201125Y45299D01*
X201125Y46011D02*
X197075Y46011D01*
X194925Y48875D02*
X190875Y48875D01*
X190875Y51125D01*
X194925Y51125D01*
X194925Y48875D01*
X194925Y49587D02*
X190875Y49587D01*
X190875Y50299D02*
X194925Y50299D01*
X194925Y51011D02*
X190875Y51011D01*
X197075Y48875D02*
X201125Y48875D01*
X197075Y48875D02*
X197075Y51125D01*
X201125Y51125D01*
X201125Y48875D01*
X201125Y49587D02*
X197075Y49587D01*
X197075Y50299D02*
X201125Y50299D01*
X201125Y51011D02*
X197075Y51011D01*
D12*
X195500Y53500D02*
X191000Y53500D01*
X191000Y56500D01*
X195500Y56500D01*
X195500Y53500D01*
X195500Y54450D02*
X191000Y54450D01*
X191000Y55400D02*
X195500Y55400D01*
X195500Y56350D02*
X191000Y56350D01*
X197800Y53500D02*
X201000Y53500D01*
X197800Y53500D02*
X197800Y56500D01*
X201000Y56500D01*
X201000Y53500D01*
X201000Y54450D02*
X197800Y54450D01*
X197800Y55400D02*
X201000Y55400D01*
X201000Y56350D02*
X197800Y56350D01*
D11*
X197075Y78125D02*
X201125Y78125D01*
X201125Y75875D01*
X197075Y75875D01*
X197075Y78125D01*
X197075Y76587D02*
X201125Y76587D01*
X201125Y77299D02*
X197075Y77299D01*
X197075Y78011D02*
X201125Y78011D01*
X194925Y78125D02*
X190875Y78125D01*
X194925Y78125D02*
X194925Y75875D01*
X190875Y75875D01*
X190875Y78125D01*
X190875Y76587D02*
X194925Y76587D01*
X194925Y77299D02*
X190875Y77299D01*
X190875Y78011D02*
X194925Y78011D01*
X197075Y73125D02*
X201125Y73125D01*
X201125Y70875D01*
X197075Y70875D01*
X197075Y73125D01*
X197075Y71587D02*
X201125Y71587D01*
X201125Y72299D02*
X197075Y72299D01*
X197075Y73011D02*
X201125Y73011D01*
X194925Y73125D02*
X190875Y73125D01*
X194925Y73125D02*
X194925Y70875D01*
X190875Y70875D01*
X190875Y73125D01*
X190875Y71587D02*
X194925Y71587D01*
X194925Y72299D02*
X190875Y72299D01*
X190875Y73011D02*
X194925Y73011D01*
D12*
X196500Y68500D02*
X201000Y68500D01*
X201000Y65500D01*
X196500Y65500D01*
X196500Y68500D01*
X196500Y66450D02*
X201000Y66450D01*
X201000Y67400D02*
X196500Y67400D01*
X196500Y68350D02*
X201000Y68350D01*
X194200Y68500D02*
X191000Y68500D01*
X194200Y68500D02*
X194200Y65500D01*
X191000Y65500D01*
X191000Y68500D01*
X191000Y66450D02*
X194200Y66450D01*
X194200Y67400D02*
X191000Y67400D01*
X191000Y68350D02*
X194200Y68350D01*
D11*
X197075Y104125D02*
X201125Y104125D01*
X201125Y101875D01*
X197075Y101875D01*
X197075Y104125D01*
X197075Y102587D02*
X201125Y102587D01*
X201125Y103299D02*
X197075Y103299D01*
X197075Y104011D02*
X201125Y104011D01*
X194925Y104125D02*
X190875Y104125D01*
X194925Y104125D02*
X194925Y101875D01*
X190875Y101875D01*
X190875Y104125D01*
X190875Y102587D02*
X194925Y102587D01*
X194925Y103299D02*
X190875Y103299D01*
X190875Y104011D02*
X194925Y104011D01*
X197075Y99125D02*
X201125Y99125D01*
X201125Y96875D01*
X197075Y96875D01*
X197075Y99125D01*
X197075Y97587D02*
X201125Y97587D01*
X201125Y98299D02*
X197075Y98299D01*
X197075Y99011D02*
X201125Y99011D01*
X194925Y99125D02*
X190875Y99125D01*
X194925Y99125D02*
X194925Y96875D01*
X190875Y96875D01*
X190875Y99125D01*
X190875Y97587D02*
X194925Y97587D01*
X194925Y98299D02*
X190875Y98299D01*
X190875Y99011D02*
X194925Y99011D01*
D12*
X196500Y94500D02*
X201000Y94500D01*
X201000Y91500D01*
X196500Y91500D01*
X196500Y94500D01*
X196500Y92450D02*
X201000Y92450D01*
X201000Y93400D02*
X196500Y93400D01*
X196500Y94350D02*
X201000Y94350D01*
X194200Y94500D02*
X191000Y94500D01*
X194200Y94500D02*
X194200Y91500D01*
X191000Y91500D01*
X191000Y94500D01*
X191000Y92450D02*
X194200Y92450D01*
X194200Y93400D02*
X191000Y93400D01*
X191000Y94350D02*
X194200Y94350D01*
D11*
X298875Y97875D02*
X302925Y97875D01*
X298875Y97875D02*
X298875Y100125D01*
X302925Y100125D01*
X302925Y97875D01*
X302925Y98587D02*
X298875Y98587D01*
X298875Y99299D02*
X302925Y99299D01*
X302925Y100011D02*
X298875Y100011D01*
X305075Y97875D02*
X309125Y97875D01*
X305075Y97875D02*
X305075Y100125D01*
X309125Y100125D01*
X309125Y97875D01*
X309125Y98587D02*
X305075Y98587D01*
X305075Y99299D02*
X309125Y99299D01*
X309125Y100011D02*
X305075Y100011D01*
X302925Y102875D02*
X298875Y102875D01*
X298875Y105125D01*
X302925Y105125D01*
X302925Y102875D01*
X302925Y103587D02*
X298875Y103587D01*
X298875Y104299D02*
X302925Y104299D01*
X302925Y105011D02*
X298875Y105011D01*
X305075Y102875D02*
X309125Y102875D01*
X305075Y102875D02*
X305075Y105125D01*
X309125Y105125D01*
X309125Y102875D01*
X309125Y103587D02*
X305075Y103587D01*
X305075Y104299D02*
X309125Y104299D01*
X309125Y105011D02*
X305075Y105011D01*
D12*
X303500Y107500D02*
X299000Y107500D01*
X299000Y110500D01*
X303500Y110500D01*
X303500Y107500D01*
X303500Y108450D02*
X299000Y108450D01*
X299000Y109400D02*
X303500Y109400D01*
X303500Y110350D02*
X299000Y110350D01*
X305800Y107500D02*
X309000Y107500D01*
X305800Y107500D02*
X305800Y110500D01*
X309000Y110500D01*
X309000Y107500D01*
X309000Y108450D02*
X305800Y108450D01*
X305800Y109400D02*
X309000Y109400D01*
X309000Y110350D02*
X305800Y110350D01*
D11*
X201125Y129125D02*
X197075Y129125D01*
X201125Y129125D02*
X201125Y126875D01*
X197075Y126875D01*
X197075Y129125D01*
X197075Y127587D02*
X201125Y127587D01*
X201125Y128299D02*
X197075Y128299D01*
X197075Y129011D02*
X201125Y129011D01*
X194925Y129125D02*
X190875Y129125D01*
X194925Y129125D02*
X194925Y126875D01*
X190875Y126875D01*
X190875Y129125D01*
X190875Y127587D02*
X194925Y127587D01*
X194925Y128299D02*
X190875Y128299D01*
X190875Y129011D02*
X194925Y129011D01*
X197075Y124125D02*
X201125Y124125D01*
X201125Y121875D01*
X197075Y121875D01*
X197075Y124125D01*
X197075Y122587D02*
X201125Y122587D01*
X201125Y123299D02*
X197075Y123299D01*
X197075Y124011D02*
X201125Y124011D01*
X194925Y124125D02*
X190875Y124125D01*
X194925Y124125D02*
X194925Y121875D01*
X190875Y121875D01*
X190875Y124125D01*
X190875Y122587D02*
X194925Y122587D01*
X194925Y123299D02*
X190875Y123299D01*
X190875Y124011D02*
X194925Y124011D01*
D12*
X196500Y119500D02*
X201000Y119500D01*
X201000Y116500D01*
X196500Y116500D01*
X196500Y119500D01*
X196500Y117450D02*
X201000Y117450D01*
X201000Y118400D02*
X196500Y118400D01*
X196500Y119350D02*
X201000Y119350D01*
X194200Y119500D02*
X191000Y119500D01*
X194200Y119500D02*
X194200Y116500D01*
X191000Y116500D01*
X191000Y119500D01*
X191000Y117450D02*
X194200Y117450D01*
X194200Y118400D02*
X191000Y118400D01*
X191000Y119350D02*
X194200Y119350D01*
M02*
