G04 EAGLE Gerber RS-274X export*
G75*
%MOMM*%
%FSLAX34Y34*%
%LPD*%
%IN11_Solder Mask Bottom*%
%IPPOS*%
%AMOC8*
5,1,8,0,0,1.08239X$1,22.5*%
G01*
%ADD10C,0.720000*%
%ADD11C,0.670000*%
%ADD12C,0.870000*%
%ADD13C,0.870000*%
%ADD14C,0.570000*%
%ADD15R,0.670000X0.470000*%
%ADD16C,1.370000*%
%ADD17C,0.620000*%
%ADD18C,0.144300*%
%ADD19C,0.169200*%

G36*
X110422Y154021D02*
X110422Y154021D01*
X110423Y154021D01*
X111242Y154223D01*
X111243Y154223D01*
X111991Y154615D01*
X111991Y154616D01*
X111992Y154616D01*
X112623Y155175D01*
X112623Y155176D01*
X112624Y155176D01*
X113103Y155871D01*
X113104Y155872D01*
X113403Y156661D01*
X113403Y156662D01*
X113505Y157499D01*
X113501Y157505D01*
X113501Y157504D01*
X113500Y157505D01*
X106500Y157505D01*
X106495Y157501D01*
X106496Y157500D01*
X106495Y157499D01*
X106597Y156662D01*
X106597Y156661D01*
X106896Y155872D01*
X106897Y155871D01*
X107376Y155176D01*
X107377Y155176D01*
X107377Y155175D01*
X108008Y154616D01*
X108009Y154616D01*
X108009Y154615D01*
X108757Y154223D01*
X108758Y154223D01*
X109577Y154021D01*
X109578Y154021D01*
X110422Y154021D01*
X110422Y154021D01*
G37*
G36*
X348422Y215771D02*
X348422Y215771D01*
X348423Y215771D01*
X349242Y215973D01*
X349243Y215973D01*
X349991Y216365D01*
X349991Y216366D01*
X349992Y216366D01*
X350623Y216925D01*
X350623Y216926D01*
X350624Y216926D01*
X351103Y217621D01*
X351104Y217622D01*
X351403Y218411D01*
X351403Y218412D01*
X351404Y218418D01*
X351405Y218423D01*
X351406Y218433D01*
X351406Y218438D01*
X351408Y218453D01*
X351409Y218458D01*
X351410Y218468D01*
X351411Y218473D01*
X351412Y218483D01*
X351412Y218488D01*
X351414Y218498D01*
X351414Y218503D01*
X351415Y218513D01*
X351416Y218513D01*
X351415Y218513D01*
X351416Y218518D01*
X351418Y218533D01*
X351418Y218537D01*
X351419Y218538D01*
X351420Y218547D01*
X351420Y218552D01*
X351422Y218562D01*
X351422Y218567D01*
X351423Y218577D01*
X351424Y218582D01*
X351426Y218597D01*
X351426Y218602D01*
X351428Y218612D01*
X351428Y218617D01*
X351429Y218627D01*
X351430Y218632D01*
X351431Y218642D01*
X351432Y218647D01*
X351434Y218662D01*
X351434Y218667D01*
X351435Y218677D01*
X351436Y218682D01*
X351437Y218692D01*
X351438Y218696D01*
X351438Y218697D01*
X351439Y218706D01*
X351440Y218711D01*
X351441Y218721D01*
X351441Y218726D01*
X351442Y218731D01*
X351443Y218741D01*
X351444Y218746D01*
X351445Y218756D01*
X351446Y218761D01*
X351447Y218771D01*
X351447Y218776D01*
X351449Y218786D01*
X351449Y218791D01*
X351451Y218806D01*
X351452Y218811D01*
X351453Y218821D01*
X351453Y218826D01*
X351454Y218826D01*
X351453Y218826D01*
X351455Y218836D01*
X351455Y218841D01*
X351457Y218851D01*
X351457Y218855D01*
X351457Y218856D01*
X351459Y218870D01*
X351460Y218875D01*
X351461Y218885D01*
X351461Y218890D01*
X351463Y218900D01*
X351463Y218905D01*
X351464Y218915D01*
X351465Y218920D01*
X351467Y218935D01*
X351467Y218940D01*
X351469Y218950D01*
X351469Y218955D01*
X351470Y218965D01*
X351471Y218970D01*
X351472Y218980D01*
X351473Y218985D01*
X351474Y218995D01*
X351475Y219000D01*
X351476Y219014D01*
X351476Y219015D01*
X351477Y219019D01*
X351477Y219020D01*
X351478Y219029D01*
X351479Y219034D01*
X351480Y219044D01*
X351481Y219049D01*
X351482Y219059D01*
X351482Y219064D01*
X351484Y219079D01*
X351485Y219084D01*
X351486Y219094D01*
X351487Y219099D01*
X351488Y219109D01*
X351488Y219114D01*
X351489Y219114D01*
X351488Y219114D01*
X351490Y219124D01*
X351490Y219129D01*
X351492Y219144D01*
X351493Y219149D01*
X351494Y219159D01*
X351495Y219164D01*
X351496Y219173D01*
X351496Y219174D01*
X351496Y219178D01*
X351496Y219179D01*
X351498Y219188D01*
X351498Y219193D01*
X351500Y219208D01*
X351501Y219213D01*
X351502Y219223D01*
X351502Y219228D01*
X351504Y219238D01*
X351504Y219243D01*
X351505Y219249D01*
X351501Y219255D01*
X351501Y219254D01*
X351500Y219255D01*
X344500Y219255D01*
X344495Y219251D01*
X344496Y219250D01*
X344495Y219249D01*
X344597Y218412D01*
X344597Y218411D01*
X344896Y217622D01*
X344897Y217621D01*
X345376Y216926D01*
X345377Y216926D01*
X345377Y216925D01*
X346008Y216366D01*
X346009Y216366D01*
X346009Y216365D01*
X346757Y215973D01*
X346758Y215973D01*
X347577Y215771D01*
X347578Y215771D01*
X348422Y215771D01*
X348422Y215771D01*
G37*
G36*
X314022Y153771D02*
X314022Y153771D01*
X314023Y153771D01*
X314842Y153973D01*
X314843Y153973D01*
X315591Y154365D01*
X315591Y154366D01*
X315592Y154366D01*
X316223Y154925D01*
X316223Y154926D01*
X316224Y154926D01*
X316703Y155621D01*
X316704Y155622D01*
X317003Y156411D01*
X317003Y156412D01*
X317004Y156418D01*
X317005Y156423D01*
X317006Y156433D01*
X317006Y156438D01*
X317008Y156453D01*
X317009Y156458D01*
X317010Y156468D01*
X317011Y156473D01*
X317012Y156483D01*
X317012Y156488D01*
X317014Y156498D01*
X317014Y156503D01*
X317015Y156513D01*
X317016Y156513D01*
X317015Y156513D01*
X317016Y156518D01*
X317018Y156533D01*
X317018Y156537D01*
X317019Y156538D01*
X317020Y156547D01*
X317020Y156552D01*
X317022Y156562D01*
X317022Y156567D01*
X317023Y156577D01*
X317024Y156582D01*
X317026Y156597D01*
X317026Y156602D01*
X317028Y156612D01*
X317028Y156617D01*
X317029Y156627D01*
X317030Y156632D01*
X317031Y156642D01*
X317032Y156647D01*
X317034Y156662D01*
X317034Y156667D01*
X317035Y156677D01*
X317036Y156682D01*
X317037Y156692D01*
X317038Y156696D01*
X317038Y156697D01*
X317039Y156706D01*
X317040Y156711D01*
X317041Y156721D01*
X317041Y156726D01*
X317042Y156731D01*
X317043Y156741D01*
X317044Y156746D01*
X317045Y156756D01*
X317046Y156761D01*
X317047Y156771D01*
X317047Y156776D01*
X317049Y156786D01*
X317049Y156791D01*
X317051Y156806D01*
X317052Y156811D01*
X317053Y156821D01*
X317053Y156826D01*
X317054Y156826D01*
X317053Y156826D01*
X317055Y156836D01*
X317055Y156841D01*
X317057Y156851D01*
X317057Y156855D01*
X317057Y156856D01*
X317059Y156870D01*
X317060Y156875D01*
X317061Y156885D01*
X317061Y156890D01*
X317063Y156900D01*
X317063Y156905D01*
X317064Y156915D01*
X317065Y156920D01*
X317067Y156935D01*
X317067Y156940D01*
X317069Y156950D01*
X317069Y156955D01*
X317070Y156965D01*
X317071Y156970D01*
X317072Y156980D01*
X317073Y156985D01*
X317074Y156995D01*
X317075Y157000D01*
X317076Y157014D01*
X317076Y157015D01*
X317077Y157019D01*
X317077Y157020D01*
X317078Y157029D01*
X317079Y157034D01*
X317080Y157044D01*
X317081Y157049D01*
X317082Y157059D01*
X317082Y157064D01*
X317084Y157079D01*
X317085Y157084D01*
X317086Y157094D01*
X317087Y157099D01*
X317088Y157109D01*
X317088Y157114D01*
X317089Y157114D01*
X317088Y157114D01*
X317090Y157124D01*
X317090Y157129D01*
X317092Y157144D01*
X317093Y157149D01*
X317094Y157159D01*
X317095Y157164D01*
X317096Y157173D01*
X317096Y157174D01*
X317096Y157178D01*
X317096Y157179D01*
X317098Y157188D01*
X317098Y157193D01*
X317100Y157208D01*
X317101Y157213D01*
X317102Y157223D01*
X317102Y157228D01*
X317104Y157238D01*
X317104Y157243D01*
X317105Y157249D01*
X317101Y157255D01*
X317101Y157254D01*
X317100Y157255D01*
X310100Y157255D01*
X310095Y157251D01*
X310096Y157250D01*
X310095Y157249D01*
X310197Y156412D01*
X310197Y156411D01*
X310496Y155622D01*
X310497Y155621D01*
X310976Y154926D01*
X310977Y154926D01*
X310977Y154925D01*
X311608Y154366D01*
X311609Y154366D01*
X311609Y154365D01*
X312357Y153973D01*
X312358Y153973D01*
X313177Y153771D01*
X313178Y153771D01*
X314022Y153771D01*
X314022Y153771D01*
G37*
G36*
X303022Y153771D02*
X303022Y153771D01*
X303023Y153771D01*
X303842Y153973D01*
X303843Y153973D01*
X304591Y154365D01*
X304591Y154366D01*
X304592Y154366D01*
X305223Y154925D01*
X305223Y154926D01*
X305224Y154926D01*
X305703Y155621D01*
X305704Y155622D01*
X306003Y156411D01*
X306003Y156412D01*
X306004Y156418D01*
X306005Y156423D01*
X306006Y156433D01*
X306006Y156438D01*
X306008Y156453D01*
X306009Y156458D01*
X306010Y156468D01*
X306011Y156473D01*
X306012Y156483D01*
X306012Y156488D01*
X306014Y156498D01*
X306014Y156503D01*
X306015Y156513D01*
X306016Y156513D01*
X306015Y156513D01*
X306016Y156518D01*
X306018Y156533D01*
X306018Y156537D01*
X306019Y156538D01*
X306020Y156547D01*
X306020Y156552D01*
X306022Y156562D01*
X306022Y156567D01*
X306023Y156577D01*
X306024Y156582D01*
X306026Y156597D01*
X306026Y156602D01*
X306028Y156612D01*
X306028Y156617D01*
X306029Y156627D01*
X306030Y156632D01*
X306031Y156642D01*
X306032Y156647D01*
X306034Y156662D01*
X306034Y156667D01*
X306035Y156677D01*
X306036Y156682D01*
X306037Y156692D01*
X306038Y156696D01*
X306038Y156697D01*
X306039Y156706D01*
X306040Y156711D01*
X306041Y156721D01*
X306041Y156726D01*
X306042Y156731D01*
X306043Y156741D01*
X306044Y156746D01*
X306045Y156756D01*
X306046Y156761D01*
X306047Y156771D01*
X306047Y156776D01*
X306049Y156786D01*
X306049Y156791D01*
X306051Y156806D01*
X306052Y156811D01*
X306053Y156821D01*
X306053Y156826D01*
X306054Y156826D01*
X306053Y156826D01*
X306055Y156836D01*
X306055Y156841D01*
X306057Y156851D01*
X306057Y156855D01*
X306057Y156856D01*
X306059Y156870D01*
X306060Y156875D01*
X306061Y156885D01*
X306061Y156890D01*
X306063Y156900D01*
X306063Y156905D01*
X306064Y156915D01*
X306065Y156920D01*
X306067Y156935D01*
X306067Y156940D01*
X306069Y156950D01*
X306069Y156955D01*
X306070Y156965D01*
X306071Y156970D01*
X306072Y156980D01*
X306073Y156985D01*
X306074Y156995D01*
X306075Y157000D01*
X306076Y157014D01*
X306076Y157015D01*
X306077Y157019D01*
X306077Y157020D01*
X306078Y157029D01*
X306079Y157034D01*
X306080Y157044D01*
X306081Y157049D01*
X306082Y157059D01*
X306082Y157064D01*
X306084Y157079D01*
X306085Y157084D01*
X306086Y157094D01*
X306087Y157099D01*
X306088Y157109D01*
X306088Y157114D01*
X306089Y157114D01*
X306088Y157114D01*
X306090Y157124D01*
X306090Y157129D01*
X306092Y157144D01*
X306093Y157149D01*
X306094Y157159D01*
X306095Y157164D01*
X306096Y157173D01*
X306096Y157174D01*
X306096Y157178D01*
X306096Y157179D01*
X306098Y157188D01*
X306098Y157193D01*
X306100Y157208D01*
X306101Y157213D01*
X306102Y157223D01*
X306102Y157228D01*
X306104Y157238D01*
X306104Y157243D01*
X306105Y157249D01*
X306101Y157255D01*
X306101Y157254D01*
X306100Y157255D01*
X299100Y157255D01*
X299095Y157251D01*
X299096Y157250D01*
X299095Y157249D01*
X299197Y156412D01*
X299197Y156411D01*
X299496Y155622D01*
X299497Y155621D01*
X299976Y154926D01*
X299977Y154926D01*
X299977Y154925D01*
X300608Y154366D01*
X300609Y154366D01*
X300609Y154365D01*
X301357Y153973D01*
X301358Y153973D01*
X302177Y153771D01*
X302178Y153771D01*
X303022Y153771D01*
X303022Y153771D01*
G37*
G36*
X110422Y137021D02*
X110422Y137021D01*
X110423Y137021D01*
X111242Y137223D01*
X111243Y137223D01*
X111991Y137615D01*
X111991Y137616D01*
X111992Y137616D01*
X112623Y138175D01*
X112623Y138176D01*
X112624Y138176D01*
X113103Y138871D01*
X113104Y138872D01*
X113403Y139661D01*
X113403Y139662D01*
X113404Y139668D01*
X113405Y139673D01*
X113406Y139683D01*
X113406Y139688D01*
X113408Y139703D01*
X113409Y139708D01*
X113410Y139718D01*
X113411Y139723D01*
X113412Y139733D01*
X113412Y139738D01*
X113414Y139748D01*
X113414Y139753D01*
X113415Y139763D01*
X113416Y139763D01*
X113415Y139763D01*
X113416Y139768D01*
X113418Y139783D01*
X113418Y139787D01*
X113419Y139788D01*
X113420Y139797D01*
X113420Y139802D01*
X113422Y139812D01*
X113422Y139817D01*
X113423Y139827D01*
X113424Y139832D01*
X113426Y139847D01*
X113426Y139852D01*
X113428Y139862D01*
X113428Y139867D01*
X113429Y139877D01*
X113430Y139882D01*
X113431Y139892D01*
X113432Y139897D01*
X113434Y139912D01*
X113434Y139917D01*
X113435Y139927D01*
X113436Y139932D01*
X113437Y139942D01*
X113438Y139946D01*
X113438Y139947D01*
X113439Y139956D01*
X113440Y139961D01*
X113441Y139971D01*
X113441Y139976D01*
X113442Y139981D01*
X113443Y139991D01*
X113444Y139996D01*
X113445Y140006D01*
X113446Y140011D01*
X113447Y140021D01*
X113447Y140026D01*
X113449Y140036D01*
X113449Y140041D01*
X113451Y140056D01*
X113452Y140061D01*
X113453Y140071D01*
X113453Y140076D01*
X113454Y140076D01*
X113453Y140076D01*
X113455Y140086D01*
X113455Y140091D01*
X113457Y140101D01*
X113457Y140105D01*
X113457Y140106D01*
X113459Y140120D01*
X113460Y140125D01*
X113461Y140135D01*
X113461Y140140D01*
X113463Y140150D01*
X113463Y140155D01*
X113464Y140165D01*
X113465Y140170D01*
X113467Y140185D01*
X113467Y140190D01*
X113469Y140200D01*
X113469Y140205D01*
X113470Y140215D01*
X113471Y140220D01*
X113472Y140230D01*
X113473Y140235D01*
X113474Y140245D01*
X113475Y140250D01*
X113476Y140264D01*
X113476Y140265D01*
X113477Y140269D01*
X113477Y140270D01*
X113478Y140279D01*
X113479Y140284D01*
X113480Y140294D01*
X113481Y140299D01*
X113482Y140309D01*
X113482Y140314D01*
X113484Y140329D01*
X113485Y140334D01*
X113486Y140344D01*
X113487Y140349D01*
X113488Y140359D01*
X113488Y140364D01*
X113489Y140364D01*
X113488Y140364D01*
X113490Y140374D01*
X113490Y140379D01*
X113492Y140394D01*
X113493Y140399D01*
X113494Y140409D01*
X113495Y140414D01*
X113496Y140423D01*
X113496Y140424D01*
X113496Y140428D01*
X113496Y140429D01*
X113498Y140438D01*
X113498Y140443D01*
X113500Y140458D01*
X113501Y140463D01*
X113502Y140473D01*
X113502Y140478D01*
X113504Y140488D01*
X113504Y140493D01*
X113505Y140499D01*
X113501Y140505D01*
X113501Y140504D01*
X113500Y140505D01*
X106500Y140505D01*
X106495Y140501D01*
X106496Y140500D01*
X106495Y140499D01*
X106597Y139662D01*
X106597Y139661D01*
X106896Y138872D01*
X106897Y138871D01*
X107376Y138176D01*
X107377Y138176D01*
X107377Y138175D01*
X108008Y137616D01*
X108009Y137616D01*
X108009Y137615D01*
X108757Y137223D01*
X108758Y137223D01*
X109577Y137021D01*
X109578Y137021D01*
X110422Y137021D01*
X110422Y137021D01*
G37*
G36*
X132422Y81021D02*
X132422Y81021D01*
X132423Y81021D01*
X133242Y81223D01*
X133243Y81223D01*
X133991Y81615D01*
X133991Y81616D01*
X133992Y81616D01*
X134623Y82175D01*
X134623Y82176D01*
X134624Y82176D01*
X135103Y82871D01*
X135104Y82872D01*
X135403Y83661D01*
X135403Y83662D01*
X135404Y83668D01*
X135405Y83673D01*
X135406Y83683D01*
X135406Y83688D01*
X135408Y83703D01*
X135409Y83708D01*
X135410Y83718D01*
X135411Y83723D01*
X135412Y83733D01*
X135412Y83738D01*
X135414Y83748D01*
X135414Y83753D01*
X135415Y83763D01*
X135416Y83763D01*
X135415Y83763D01*
X135416Y83768D01*
X135418Y83783D01*
X135418Y83787D01*
X135419Y83788D01*
X135420Y83797D01*
X135420Y83802D01*
X135422Y83812D01*
X135422Y83817D01*
X135423Y83827D01*
X135424Y83832D01*
X135426Y83847D01*
X135426Y83852D01*
X135428Y83862D01*
X135428Y83867D01*
X135429Y83877D01*
X135430Y83882D01*
X135431Y83892D01*
X135432Y83897D01*
X135434Y83912D01*
X135434Y83917D01*
X135435Y83927D01*
X135436Y83932D01*
X135437Y83942D01*
X135438Y83946D01*
X135438Y83947D01*
X135439Y83956D01*
X135440Y83961D01*
X135441Y83971D01*
X135441Y83976D01*
X135442Y83981D01*
X135443Y83991D01*
X135444Y83996D01*
X135445Y84006D01*
X135446Y84011D01*
X135447Y84021D01*
X135447Y84026D01*
X135449Y84036D01*
X135449Y84041D01*
X135451Y84056D01*
X135452Y84061D01*
X135453Y84071D01*
X135453Y84076D01*
X135454Y84076D01*
X135453Y84076D01*
X135455Y84086D01*
X135455Y84091D01*
X135457Y84101D01*
X135457Y84105D01*
X135457Y84106D01*
X135459Y84120D01*
X135460Y84125D01*
X135461Y84135D01*
X135461Y84140D01*
X135463Y84150D01*
X135463Y84155D01*
X135464Y84165D01*
X135465Y84170D01*
X135467Y84185D01*
X135467Y84190D01*
X135469Y84200D01*
X135469Y84205D01*
X135470Y84215D01*
X135471Y84220D01*
X135472Y84230D01*
X135473Y84235D01*
X135474Y84245D01*
X135475Y84250D01*
X135476Y84264D01*
X135476Y84265D01*
X135477Y84269D01*
X135477Y84270D01*
X135478Y84279D01*
X135479Y84284D01*
X135480Y84294D01*
X135481Y84299D01*
X135482Y84309D01*
X135482Y84314D01*
X135484Y84329D01*
X135485Y84334D01*
X135486Y84344D01*
X135487Y84349D01*
X135488Y84359D01*
X135488Y84364D01*
X135489Y84364D01*
X135488Y84364D01*
X135490Y84374D01*
X135490Y84379D01*
X135492Y84394D01*
X135493Y84399D01*
X135494Y84409D01*
X135495Y84414D01*
X135496Y84423D01*
X135496Y84424D01*
X135496Y84428D01*
X135496Y84429D01*
X135498Y84438D01*
X135498Y84443D01*
X135500Y84458D01*
X135501Y84463D01*
X135502Y84473D01*
X135502Y84478D01*
X135504Y84488D01*
X135504Y84493D01*
X135505Y84499D01*
X135501Y84505D01*
X135501Y84504D01*
X135500Y84505D01*
X128500Y84505D01*
X128495Y84501D01*
X128496Y84500D01*
X128495Y84499D01*
X128597Y83662D01*
X128597Y83661D01*
X128896Y82872D01*
X128897Y82871D01*
X129376Y82176D01*
X129377Y82176D01*
X129377Y82175D01*
X130008Y81616D01*
X130009Y81616D01*
X130009Y81615D01*
X130757Y81223D01*
X130758Y81223D01*
X131577Y81021D01*
X131578Y81021D01*
X132422Y81021D01*
X132422Y81021D01*
G37*
G36*
X122422Y81021D02*
X122422Y81021D01*
X122423Y81021D01*
X123242Y81223D01*
X123243Y81223D01*
X123991Y81615D01*
X123991Y81616D01*
X123992Y81616D01*
X124623Y82175D01*
X124623Y82176D01*
X124624Y82176D01*
X125103Y82871D01*
X125104Y82872D01*
X125403Y83661D01*
X125403Y83662D01*
X125404Y83668D01*
X125405Y83673D01*
X125406Y83683D01*
X125406Y83688D01*
X125408Y83703D01*
X125409Y83708D01*
X125410Y83718D01*
X125411Y83723D01*
X125412Y83733D01*
X125412Y83738D01*
X125414Y83748D01*
X125414Y83753D01*
X125415Y83763D01*
X125416Y83763D01*
X125415Y83763D01*
X125416Y83768D01*
X125418Y83783D01*
X125418Y83787D01*
X125419Y83788D01*
X125420Y83797D01*
X125420Y83802D01*
X125422Y83812D01*
X125422Y83817D01*
X125423Y83827D01*
X125424Y83832D01*
X125426Y83847D01*
X125426Y83852D01*
X125428Y83862D01*
X125428Y83867D01*
X125429Y83877D01*
X125430Y83882D01*
X125431Y83892D01*
X125432Y83897D01*
X125434Y83912D01*
X125434Y83917D01*
X125435Y83927D01*
X125436Y83932D01*
X125437Y83942D01*
X125438Y83946D01*
X125438Y83947D01*
X125439Y83956D01*
X125440Y83961D01*
X125441Y83971D01*
X125441Y83976D01*
X125442Y83981D01*
X125443Y83991D01*
X125444Y83996D01*
X125445Y84006D01*
X125446Y84011D01*
X125447Y84021D01*
X125447Y84026D01*
X125449Y84036D01*
X125449Y84041D01*
X125451Y84056D01*
X125452Y84061D01*
X125453Y84071D01*
X125453Y84076D01*
X125454Y84076D01*
X125453Y84076D01*
X125455Y84086D01*
X125455Y84091D01*
X125457Y84101D01*
X125457Y84105D01*
X125457Y84106D01*
X125459Y84120D01*
X125460Y84125D01*
X125461Y84135D01*
X125461Y84140D01*
X125463Y84150D01*
X125463Y84155D01*
X125464Y84165D01*
X125465Y84170D01*
X125467Y84185D01*
X125467Y84190D01*
X125469Y84200D01*
X125469Y84205D01*
X125470Y84215D01*
X125471Y84220D01*
X125472Y84230D01*
X125473Y84235D01*
X125474Y84245D01*
X125475Y84250D01*
X125476Y84264D01*
X125476Y84265D01*
X125477Y84269D01*
X125477Y84270D01*
X125478Y84279D01*
X125479Y84284D01*
X125480Y84294D01*
X125481Y84299D01*
X125482Y84309D01*
X125482Y84314D01*
X125484Y84329D01*
X125485Y84334D01*
X125486Y84344D01*
X125487Y84349D01*
X125488Y84359D01*
X125488Y84364D01*
X125489Y84364D01*
X125488Y84364D01*
X125490Y84374D01*
X125490Y84379D01*
X125492Y84394D01*
X125493Y84399D01*
X125494Y84409D01*
X125495Y84414D01*
X125496Y84423D01*
X125496Y84424D01*
X125496Y84428D01*
X125496Y84429D01*
X125498Y84438D01*
X125498Y84443D01*
X125500Y84458D01*
X125501Y84463D01*
X125502Y84473D01*
X125502Y84478D01*
X125504Y84488D01*
X125504Y84493D01*
X125505Y84499D01*
X125501Y84505D01*
X125501Y84504D01*
X125500Y84505D01*
X118500Y84505D01*
X118495Y84501D01*
X118496Y84500D01*
X118495Y84499D01*
X118597Y83662D01*
X118597Y83661D01*
X118896Y82872D01*
X118897Y82871D01*
X119376Y82176D01*
X119377Y82176D01*
X119377Y82175D01*
X120008Y81616D01*
X120009Y81616D01*
X120009Y81615D01*
X120757Y81223D01*
X120758Y81223D01*
X121577Y81021D01*
X121578Y81021D01*
X122422Y81021D01*
X122422Y81021D01*
G37*
G36*
X351505Y220749D02*
X351505Y220749D01*
X351504Y220750D01*
X351505Y220751D01*
X351403Y221588D01*
X351403Y221589D01*
X351104Y222378D01*
X351103Y222379D01*
X350624Y223074D01*
X350623Y223074D01*
X350623Y223075D01*
X349992Y223634D01*
X349991Y223634D01*
X349991Y223635D01*
X349243Y224027D01*
X349242Y224027D01*
X348423Y224229D01*
X348422Y224229D01*
X347578Y224229D01*
X347577Y224229D01*
X346758Y224027D01*
X346757Y224027D01*
X346009Y223635D01*
X346009Y223634D01*
X346008Y223634D01*
X345377Y223075D01*
X345377Y223074D01*
X345376Y223074D01*
X344897Y222379D01*
X344896Y222378D01*
X344597Y221589D01*
X344597Y221588D01*
X344495Y220751D01*
X344499Y220745D01*
X344499Y220746D01*
X344500Y220745D01*
X351500Y220745D01*
X351505Y220749D01*
G37*
G36*
X317105Y158749D02*
X317105Y158749D01*
X317104Y158750D01*
X317105Y158751D01*
X317003Y159588D01*
X317003Y159589D01*
X316704Y160378D01*
X316703Y160379D01*
X316224Y161074D01*
X316223Y161074D01*
X316223Y161075D01*
X315592Y161634D01*
X315591Y161634D01*
X315591Y161635D01*
X314843Y162027D01*
X314842Y162027D01*
X314023Y162229D01*
X314022Y162229D01*
X313178Y162229D01*
X313177Y162229D01*
X312358Y162027D01*
X312357Y162027D01*
X311609Y161635D01*
X311609Y161634D01*
X311608Y161634D01*
X310977Y161075D01*
X310977Y161074D01*
X310976Y161074D01*
X310497Y160379D01*
X310496Y160378D01*
X310197Y159589D01*
X310197Y159588D01*
X310095Y158751D01*
X310099Y158745D01*
X310099Y158746D01*
X310100Y158745D01*
X317100Y158745D01*
X317105Y158749D01*
G37*
G36*
X306105Y158749D02*
X306105Y158749D01*
X306104Y158750D01*
X306105Y158751D01*
X306003Y159588D01*
X306003Y159589D01*
X305704Y160378D01*
X305703Y160379D01*
X305224Y161074D01*
X305223Y161074D01*
X305223Y161075D01*
X304592Y161634D01*
X304591Y161634D01*
X304591Y161635D01*
X303843Y162027D01*
X303842Y162027D01*
X303023Y162229D01*
X303022Y162229D01*
X302178Y162229D01*
X302177Y162229D01*
X301358Y162027D01*
X301357Y162027D01*
X300609Y161635D01*
X300609Y161634D01*
X300608Y161634D01*
X299977Y161075D01*
X299977Y161074D01*
X299976Y161074D01*
X299497Y160379D01*
X299496Y160378D01*
X299197Y159589D01*
X299197Y159588D01*
X299095Y158751D01*
X299099Y158745D01*
X299099Y158746D01*
X299100Y158745D01*
X306100Y158745D01*
X306105Y158749D01*
G37*
G36*
X113505Y147499D02*
X113505Y147499D01*
X113504Y147500D01*
X113505Y147501D01*
X113403Y148338D01*
X113403Y148339D01*
X113104Y149128D01*
X113103Y149129D01*
X112624Y149824D01*
X112623Y149824D01*
X112623Y149825D01*
X111992Y150384D01*
X111991Y150384D01*
X111991Y150385D01*
X111243Y150777D01*
X111242Y150777D01*
X110423Y150979D01*
X110422Y150979D01*
X109578Y150979D01*
X109577Y150979D01*
X108758Y150777D01*
X108757Y150777D01*
X108009Y150385D01*
X108009Y150384D01*
X108008Y150384D01*
X107377Y149825D01*
X107377Y149824D01*
X107376Y149824D01*
X106897Y149129D01*
X106896Y149128D01*
X106597Y148339D01*
X106597Y148338D01*
X106495Y147501D01*
X106499Y147495D01*
X106499Y147496D01*
X106500Y147495D01*
X113500Y147495D01*
X113505Y147499D01*
G37*
G36*
X135505Y91499D02*
X135505Y91499D01*
X135504Y91500D01*
X135505Y91501D01*
X135403Y92338D01*
X135403Y92339D01*
X135104Y93128D01*
X135103Y93129D01*
X134624Y93824D01*
X134623Y93824D01*
X134623Y93825D01*
X133992Y94384D01*
X133991Y94384D01*
X133991Y94385D01*
X133243Y94777D01*
X133242Y94777D01*
X132423Y94979D01*
X132422Y94979D01*
X131578Y94979D01*
X131577Y94979D01*
X130758Y94777D01*
X130757Y94777D01*
X130009Y94385D01*
X130009Y94384D01*
X130008Y94384D01*
X129377Y93825D01*
X129377Y93824D01*
X129376Y93824D01*
X128897Y93129D01*
X128896Y93128D01*
X128597Y92339D01*
X128597Y92338D01*
X128495Y91501D01*
X128499Y91495D01*
X128499Y91496D01*
X128500Y91495D01*
X135500Y91495D01*
X135505Y91499D01*
G37*
G36*
X125505Y91499D02*
X125505Y91499D01*
X125504Y91500D01*
X125505Y91501D01*
X125403Y92338D01*
X125403Y92339D01*
X125104Y93128D01*
X125103Y93129D01*
X124624Y93824D01*
X124623Y93824D01*
X124623Y93825D01*
X123992Y94384D01*
X123991Y94384D01*
X123991Y94385D01*
X123243Y94777D01*
X123242Y94777D01*
X122423Y94979D01*
X122422Y94979D01*
X121578Y94979D01*
X121577Y94979D01*
X120758Y94777D01*
X120757Y94777D01*
X120009Y94385D01*
X120009Y94384D01*
X120008Y94384D01*
X119377Y93825D01*
X119377Y93824D01*
X119376Y93824D01*
X118897Y93129D01*
X118896Y93128D01*
X118597Y92339D01*
X118597Y92338D01*
X118495Y91501D01*
X118499Y91495D01*
X118499Y91496D01*
X118500Y91495D01*
X125500Y91495D01*
X125505Y91499D01*
G37*
G36*
X113505Y164499D02*
X113505Y164499D01*
X113504Y164500D01*
X113505Y164501D01*
X113403Y165338D01*
X113403Y165339D01*
X113104Y166128D01*
X113103Y166129D01*
X112624Y166824D01*
X112623Y166824D01*
X112623Y166825D01*
X111992Y167384D01*
X111991Y167384D01*
X111991Y167385D01*
X111243Y167777D01*
X111242Y167777D01*
X110423Y167979D01*
X110422Y167979D01*
X109578Y167979D01*
X109577Y167979D01*
X108758Y167777D01*
X108757Y167777D01*
X108009Y167385D01*
X108009Y167384D01*
X108008Y167384D01*
X107377Y166825D01*
X107377Y166824D01*
X107376Y166824D01*
X106897Y166129D01*
X106896Y166128D01*
X106597Y165339D01*
X106597Y165338D01*
X106596Y165335D01*
X106596Y165330D01*
X106595Y165320D01*
X106594Y165316D01*
X106594Y165315D01*
X106593Y165306D01*
X106592Y165301D01*
X106590Y165286D01*
X106590Y165281D01*
X106589Y165271D01*
X106588Y165266D01*
X106587Y165256D01*
X106586Y165251D01*
X106585Y165241D01*
X106584Y165236D01*
X106583Y165221D01*
X106582Y165216D01*
X106581Y165206D01*
X106580Y165201D01*
X106579Y165191D01*
X106578Y165186D01*
X106577Y165176D01*
X106577Y165171D01*
X106575Y165157D01*
X106575Y165156D01*
X106574Y165152D01*
X106574Y165151D01*
X106573Y165142D01*
X106572Y165137D01*
X106571Y165127D01*
X106571Y165122D01*
X106570Y165122D01*
X106571Y165122D01*
X106569Y165112D01*
X106569Y165107D01*
X106567Y165097D01*
X106567Y165092D01*
X106565Y165077D01*
X106564Y165072D01*
X106563Y165062D01*
X106563Y165057D01*
X106561Y165047D01*
X106561Y165042D01*
X106560Y165032D01*
X106559Y165027D01*
X106557Y165012D01*
X106557Y165007D01*
X106555Y164998D01*
X106555Y164997D01*
X106555Y164993D01*
X106555Y164992D01*
X106554Y164983D01*
X106553Y164978D01*
X106552Y164968D01*
X106551Y164963D01*
X106549Y164948D01*
X106549Y164943D01*
X106548Y164933D01*
X106547Y164928D01*
X106546Y164918D01*
X106545Y164913D01*
X106544Y164903D01*
X106543Y164898D01*
X106542Y164888D01*
X106542Y164883D01*
X106541Y164878D01*
X106540Y164868D01*
X106539Y164863D01*
X106538Y164853D01*
X106537Y164848D01*
X106536Y164839D01*
X106536Y164838D01*
X106536Y164834D01*
X106535Y164834D01*
X106536Y164833D01*
X106534Y164824D01*
X106534Y164819D01*
X106532Y164804D01*
X106531Y164799D01*
X106530Y164789D01*
X106529Y164784D01*
X106528Y164774D01*
X106528Y164769D01*
X106526Y164759D01*
X106526Y164754D01*
X106524Y164739D01*
X106523Y164734D01*
X106522Y164724D01*
X106522Y164719D01*
X106520Y164709D01*
X106520Y164704D01*
X106519Y164694D01*
X106518Y164689D01*
X106516Y164675D01*
X106516Y164674D01*
X106516Y164670D01*
X106514Y164660D01*
X106514Y164655D01*
X106513Y164645D01*
X106512Y164640D01*
X106511Y164630D01*
X106510Y164625D01*
X106509Y164615D01*
X106508Y164610D01*
X106507Y164595D01*
X106506Y164590D01*
X106505Y164580D01*
X106504Y164575D01*
X106503Y164565D01*
X106502Y164560D01*
X106501Y164550D01*
X106501Y164545D01*
X106500Y164545D01*
X106501Y164545D01*
X106499Y164530D01*
X106498Y164525D01*
X106497Y164516D01*
X106497Y164515D01*
X106496Y164511D01*
X106495Y164501D01*
X106499Y164495D01*
X106499Y164496D01*
X106500Y164495D01*
X113500Y164495D01*
X113505Y164499D01*
G37*
D10*
X286000Y164000D03*
D11*
X214000Y164000D03*
D12*
X291300Y173500D02*
X291300Y181500D01*
X208700Y181500D02*
X208700Y173500D01*
X294900Y231000D02*
X294900Y239000D01*
X205100Y239000D02*
X205100Y231000D01*
X291300Y181500D02*
X291300Y173500D01*
X208700Y173500D02*
X208700Y181500D01*
X294900Y231000D02*
X294900Y239000D01*
X205100Y239000D02*
X205100Y231000D01*
D13*
X291300Y177500D03*
X208700Y177000D03*
X205100Y235000D03*
X294900Y235000D03*
D14*
X98500Y150000D03*
X91500Y150000D03*
X98500Y138000D03*
X91500Y138000D03*
X98500Y162000D03*
X91500Y162000D03*
D15*
X110000Y161000D03*
X110000Y144000D03*
D16*
X211900Y88000D03*
X237300Y88000D03*
X262700Y62600D03*
X262700Y88000D03*
X288100Y62600D03*
X211900Y113400D03*
X237300Y62600D03*
X262700Y113400D03*
X211900Y62600D03*
X288100Y113400D03*
X288100Y88000D03*
X237300Y113400D03*
D17*
X85000Y90000D03*
X73000Y90000D03*
X97000Y90000D03*
D15*
X122000Y88000D03*
X132000Y88000D03*
D18*
X190871Y43871D02*
X194929Y43871D01*
X190871Y43871D02*
X190871Y46129D01*
X194929Y46129D01*
X194929Y43871D01*
X194929Y45242D02*
X190871Y45242D01*
X197071Y43871D02*
X201129Y43871D01*
X197071Y43871D02*
X197071Y46129D01*
X201129Y46129D01*
X201129Y43871D01*
X201129Y45242D02*
X197071Y45242D01*
X194929Y48871D02*
X190871Y48871D01*
X190871Y51129D01*
X194929Y51129D01*
X194929Y48871D01*
X194929Y50242D02*
X190871Y50242D01*
X197071Y48871D02*
X201129Y48871D01*
X197071Y48871D02*
X197071Y51129D01*
X201129Y51129D01*
X201129Y48871D01*
X201129Y50242D02*
X197071Y50242D01*
D19*
X195504Y53496D02*
X190996Y53496D01*
X190996Y56504D01*
X195504Y56504D01*
X195504Y53496D01*
X195504Y55103D02*
X190996Y55103D01*
X197796Y53496D02*
X201004Y53496D01*
X197796Y53496D02*
X197796Y56504D01*
X201004Y56504D01*
X201004Y53496D01*
X201004Y55103D02*
X197796Y55103D01*
D18*
X197071Y78129D02*
X201129Y78129D01*
X201129Y75871D01*
X197071Y75871D01*
X197071Y78129D01*
X197071Y77242D02*
X201129Y77242D01*
X194929Y78129D02*
X190871Y78129D01*
X194929Y78129D02*
X194929Y75871D01*
X190871Y75871D01*
X190871Y78129D01*
X190871Y77242D02*
X194929Y77242D01*
X197071Y73129D02*
X201129Y73129D01*
X201129Y70871D01*
X197071Y70871D01*
X197071Y73129D01*
X197071Y72242D02*
X201129Y72242D01*
X194929Y73129D02*
X190871Y73129D01*
X194929Y73129D02*
X194929Y70871D01*
X190871Y70871D01*
X190871Y73129D01*
X190871Y72242D02*
X194929Y72242D01*
D19*
X196496Y68504D02*
X201004Y68504D01*
X201004Y65496D01*
X196496Y65496D01*
X196496Y68504D01*
X196496Y67103D02*
X201004Y67103D01*
X194204Y68504D02*
X190996Y68504D01*
X194204Y68504D02*
X194204Y65496D01*
X190996Y65496D01*
X190996Y68504D01*
X190996Y67103D02*
X194204Y67103D01*
D18*
X197071Y104129D02*
X201129Y104129D01*
X201129Y101871D01*
X197071Y101871D01*
X197071Y104129D01*
X197071Y103242D02*
X201129Y103242D01*
X194929Y104129D02*
X190871Y104129D01*
X194929Y104129D02*
X194929Y101871D01*
X190871Y101871D01*
X190871Y104129D01*
X190871Y103242D02*
X194929Y103242D01*
X197071Y99129D02*
X201129Y99129D01*
X201129Y96871D01*
X197071Y96871D01*
X197071Y99129D01*
X197071Y98242D02*
X201129Y98242D01*
X194929Y99129D02*
X190871Y99129D01*
X194929Y99129D02*
X194929Y96871D01*
X190871Y96871D01*
X190871Y99129D01*
X190871Y98242D02*
X194929Y98242D01*
D19*
X196496Y94504D02*
X201004Y94504D01*
X201004Y91496D01*
X196496Y91496D01*
X196496Y94504D01*
X196496Y93103D02*
X201004Y93103D01*
X194204Y94504D02*
X190996Y94504D01*
X194204Y94504D02*
X194204Y91496D01*
X190996Y91496D01*
X190996Y94504D01*
X190996Y93103D02*
X194204Y93103D01*
D18*
X298871Y97871D02*
X302929Y97871D01*
X298871Y97871D02*
X298871Y100129D01*
X302929Y100129D01*
X302929Y97871D01*
X302929Y99242D02*
X298871Y99242D01*
X305071Y97871D02*
X309129Y97871D01*
X305071Y97871D02*
X305071Y100129D01*
X309129Y100129D01*
X309129Y97871D01*
X309129Y99242D02*
X305071Y99242D01*
X302929Y102871D02*
X298871Y102871D01*
X298871Y105129D01*
X302929Y105129D01*
X302929Y102871D01*
X302929Y104242D02*
X298871Y104242D01*
X305071Y102871D02*
X309129Y102871D01*
X305071Y102871D02*
X305071Y105129D01*
X309129Y105129D01*
X309129Y102871D01*
X309129Y104242D02*
X305071Y104242D01*
D19*
X303504Y107496D02*
X298996Y107496D01*
X298996Y110504D01*
X303504Y110504D01*
X303504Y107496D01*
X303504Y109103D02*
X298996Y109103D01*
X305796Y107496D02*
X309004Y107496D01*
X305796Y107496D02*
X305796Y110504D01*
X309004Y110504D01*
X309004Y107496D01*
X309004Y109103D02*
X305796Y109103D01*
D18*
X201129Y129129D02*
X197071Y129129D01*
X201129Y129129D02*
X201129Y126871D01*
X197071Y126871D01*
X197071Y129129D01*
X197071Y128242D02*
X201129Y128242D01*
X194929Y129129D02*
X190871Y129129D01*
X194929Y129129D02*
X194929Y126871D01*
X190871Y126871D01*
X190871Y129129D01*
X190871Y128242D02*
X194929Y128242D01*
X197071Y124129D02*
X201129Y124129D01*
X201129Y121871D01*
X197071Y121871D01*
X197071Y124129D01*
X197071Y123242D02*
X201129Y123242D01*
X194929Y124129D02*
X190871Y124129D01*
X194929Y124129D02*
X194929Y121871D01*
X190871Y121871D01*
X190871Y124129D01*
X190871Y123242D02*
X194929Y123242D01*
D19*
X196496Y119504D02*
X201004Y119504D01*
X201004Y116496D01*
X196496Y116496D01*
X196496Y119504D01*
X196496Y118103D02*
X201004Y118103D01*
X194204Y119504D02*
X190996Y119504D01*
X194204Y119504D02*
X194204Y116496D01*
X190996Y116496D01*
X190996Y119504D01*
X190996Y118103D02*
X194204Y118103D01*
M02*
