G04 EAGLE Gerber RS-274X export*
G75*
%MOMM*%
%FSLAX34Y34*%
%LPD*%
%IN12_Silk Bottom*%
%IPPOS*%
%AMOC8*
5,1,8,0,0,1.08239X$1,22.5*%
G01*
%ADD10C,0.127000*%
%ADD11C,0.228600*%
%ADD12C,0.150000*%


D10*
X294626Y34131D02*
X294628Y34055D01*
X294634Y33980D01*
X294643Y33904D01*
X294657Y33830D01*
X294674Y33756D01*
X294695Y33683D01*
X294719Y33611D01*
X294747Y33541D01*
X294779Y33472D01*
X294814Y33405D01*
X294852Y33340D01*
X294894Y33276D01*
X294939Y33215D01*
X294987Y33157D01*
X295038Y33100D01*
X295091Y33047D01*
X295148Y32996D01*
X295206Y32948D01*
X295267Y32903D01*
X295331Y32861D01*
X295396Y32823D01*
X295463Y32788D01*
X295532Y32756D01*
X295602Y32728D01*
X295674Y32704D01*
X295747Y32683D01*
X295821Y32666D01*
X295895Y32652D01*
X295971Y32643D01*
X296046Y32637D01*
X296122Y32635D01*
X296230Y32637D01*
X296339Y32642D01*
X296447Y32652D01*
X296554Y32665D01*
X296662Y32681D01*
X296768Y32702D01*
X296874Y32726D01*
X296979Y32753D01*
X297083Y32785D01*
X297185Y32819D01*
X297287Y32858D01*
X297387Y32899D01*
X297485Y32944D01*
X297582Y32993D01*
X297678Y33045D01*
X297771Y33100D01*
X297863Y33158D01*
X297952Y33219D01*
X298039Y33284D01*
X298125Y33351D01*
X298207Y33421D01*
X298287Y33494D01*
X298365Y33570D01*
X298179Y37869D02*
X298177Y37945D01*
X298171Y38020D01*
X298162Y38096D01*
X298148Y38170D01*
X298131Y38244D01*
X298110Y38317D01*
X298086Y38389D01*
X298058Y38459D01*
X298026Y38528D01*
X297991Y38595D01*
X297953Y38660D01*
X297911Y38724D01*
X297866Y38785D01*
X297818Y38843D01*
X297767Y38900D01*
X297714Y38953D01*
X297657Y39004D01*
X297599Y39052D01*
X297538Y39097D01*
X297474Y39139D01*
X297409Y39177D01*
X297342Y39212D01*
X297273Y39244D01*
X297203Y39272D01*
X297131Y39296D01*
X297058Y39317D01*
X296984Y39334D01*
X296910Y39348D01*
X296834Y39357D01*
X296759Y39363D01*
X296683Y39365D01*
X296583Y39363D01*
X296483Y39358D01*
X296383Y39349D01*
X296283Y39336D01*
X296184Y39320D01*
X296086Y39301D01*
X295989Y39278D01*
X295892Y39251D01*
X295796Y39221D01*
X295702Y39188D01*
X295609Y39151D01*
X295517Y39111D01*
X295426Y39068D01*
X295337Y39021D01*
X295250Y38971D01*
X295165Y38919D01*
X295082Y38863D01*
X295001Y38804D01*
X297430Y36560D02*
X297494Y36600D01*
X297556Y36643D01*
X297615Y36689D01*
X297672Y36737D01*
X297727Y36789D01*
X297779Y36843D01*
X297828Y36900D01*
X297875Y36959D01*
X297918Y37020D01*
X297959Y37083D01*
X297996Y37148D01*
X298030Y37215D01*
X298061Y37284D01*
X298088Y37354D01*
X298112Y37425D01*
X298132Y37497D01*
X298148Y37571D01*
X298161Y37645D01*
X298171Y37719D01*
X298176Y37794D01*
X298178Y37869D01*
X295374Y35440D02*
X295310Y35400D01*
X295248Y35357D01*
X295189Y35311D01*
X295132Y35263D01*
X295077Y35211D01*
X295025Y35157D01*
X294976Y35100D01*
X294929Y35041D01*
X294886Y34980D01*
X294845Y34917D01*
X294808Y34852D01*
X294774Y34785D01*
X294743Y34716D01*
X294716Y34646D01*
X294692Y34575D01*
X294672Y34503D01*
X294656Y34429D01*
X294643Y34355D01*
X294633Y34281D01*
X294628Y34206D01*
X294626Y34131D01*
X295374Y35439D02*
X297430Y36561D01*
X291006Y36374D02*
X289136Y36374D01*
X289136Y36373D02*
X289051Y36371D01*
X288966Y36365D01*
X288882Y36356D01*
X288797Y36342D01*
X288714Y36325D01*
X288632Y36304D01*
X288550Y36279D01*
X288470Y36250D01*
X288391Y36218D01*
X288314Y36183D01*
X288239Y36143D01*
X288165Y36101D01*
X288093Y36055D01*
X288024Y36006D01*
X287956Y35954D01*
X287892Y35899D01*
X287830Y35841D01*
X287770Y35780D01*
X287713Y35716D01*
X287660Y35650D01*
X287609Y35582D01*
X287562Y35511D01*
X287517Y35439D01*
X287477Y35364D01*
X287439Y35287D01*
X287405Y35209D01*
X287375Y35130D01*
X287348Y35049D01*
X287325Y34967D01*
X287306Y34884D01*
X287291Y34801D01*
X287279Y34716D01*
X287271Y34632D01*
X287267Y34547D01*
X287267Y34461D01*
X287271Y34376D01*
X287279Y34292D01*
X287291Y34207D01*
X287306Y34124D01*
X287325Y34041D01*
X287348Y33959D01*
X287375Y33878D01*
X287405Y33799D01*
X287439Y33721D01*
X287477Y33644D01*
X287517Y33570D01*
X287562Y33497D01*
X287609Y33426D01*
X287660Y33358D01*
X287713Y33292D01*
X287770Y33228D01*
X287830Y33167D01*
X287892Y33109D01*
X287956Y33054D01*
X288024Y33002D01*
X288093Y32953D01*
X288165Y32907D01*
X288239Y32865D01*
X288314Y32825D01*
X288391Y32790D01*
X288470Y32758D01*
X288550Y32729D01*
X288632Y32704D01*
X288714Y32683D01*
X288797Y32666D01*
X288882Y32652D01*
X288966Y32643D01*
X289051Y32637D01*
X289136Y32635D01*
X291006Y32635D01*
X291006Y39365D01*
X289136Y39365D01*
X289060Y39363D01*
X288985Y39357D01*
X288909Y39348D01*
X288835Y39334D01*
X288761Y39317D01*
X288688Y39296D01*
X288616Y39272D01*
X288546Y39244D01*
X288477Y39212D01*
X288410Y39177D01*
X288345Y39139D01*
X288281Y39097D01*
X288220Y39052D01*
X288162Y39004D01*
X288105Y38953D01*
X288052Y38900D01*
X288001Y38843D01*
X287953Y38785D01*
X287908Y38724D01*
X287866Y38660D01*
X287828Y38595D01*
X287793Y38528D01*
X287761Y38459D01*
X287733Y38389D01*
X287709Y38317D01*
X287688Y38244D01*
X287671Y38170D01*
X287657Y38096D01*
X287648Y38020D01*
X287642Y37945D01*
X287640Y37869D01*
X287642Y37793D01*
X287648Y37718D01*
X287657Y37642D01*
X287671Y37568D01*
X287688Y37494D01*
X287709Y37421D01*
X287733Y37349D01*
X287761Y37279D01*
X287793Y37210D01*
X287828Y37143D01*
X287866Y37078D01*
X287908Y37014D01*
X287953Y36953D01*
X288001Y36895D01*
X288052Y36838D01*
X288105Y36785D01*
X288162Y36734D01*
X288220Y36686D01*
X288281Y36641D01*
X288345Y36599D01*
X288410Y36561D01*
X288477Y36526D01*
X288546Y36494D01*
X288616Y36466D01*
X288688Y36442D01*
X288761Y36421D01*
X288835Y36404D01*
X288909Y36390D01*
X288985Y36381D01*
X289060Y36375D01*
X289136Y36373D01*
X283965Y34504D02*
X283965Y39365D01*
X283965Y34504D02*
X283963Y34419D01*
X283957Y34334D01*
X283948Y34250D01*
X283934Y34165D01*
X283917Y34082D01*
X283896Y34000D01*
X283871Y33918D01*
X283842Y33838D01*
X283810Y33759D01*
X283775Y33682D01*
X283735Y33607D01*
X283693Y33533D01*
X283647Y33461D01*
X283598Y33392D01*
X283546Y33324D01*
X283491Y33260D01*
X283433Y33198D01*
X283372Y33138D01*
X283308Y33081D01*
X283242Y33028D01*
X283174Y32977D01*
X283103Y32930D01*
X283031Y32885D01*
X282956Y32845D01*
X282879Y32807D01*
X282801Y32773D01*
X282722Y32743D01*
X282641Y32716D01*
X282559Y32693D01*
X282476Y32674D01*
X282393Y32659D01*
X282308Y32647D01*
X282224Y32639D01*
X282139Y32635D01*
X282053Y32635D01*
X281968Y32639D01*
X281884Y32647D01*
X281799Y32659D01*
X281716Y32674D01*
X281633Y32693D01*
X281551Y32716D01*
X281470Y32743D01*
X281391Y32773D01*
X281313Y32807D01*
X281236Y32845D01*
X281162Y32885D01*
X281089Y32930D01*
X281018Y32977D01*
X280950Y33028D01*
X280884Y33081D01*
X280820Y33138D01*
X280759Y33198D01*
X280701Y33260D01*
X280646Y33324D01*
X280594Y33392D01*
X280545Y33461D01*
X280499Y33533D01*
X280457Y33607D01*
X280417Y33682D01*
X280382Y33759D01*
X280350Y33838D01*
X280321Y33918D01*
X280296Y34000D01*
X280275Y34082D01*
X280258Y34165D01*
X280244Y34250D01*
X280235Y34334D01*
X280229Y34419D01*
X280227Y34504D01*
X280226Y34504D02*
X280226Y39365D01*
X276391Y37122D02*
X276391Y32635D01*
X276391Y37122D02*
X274522Y37122D01*
X274457Y37120D01*
X274392Y37114D01*
X274327Y37105D01*
X274263Y37092D01*
X274200Y37075D01*
X274138Y37054D01*
X274078Y37030D01*
X274018Y37003D01*
X273961Y36972D01*
X273905Y36937D01*
X273852Y36900D01*
X273801Y36860D01*
X273752Y36816D01*
X273706Y36770D01*
X273663Y36721D01*
X273622Y36670D01*
X273585Y36617D01*
X273550Y36561D01*
X273519Y36504D01*
X273492Y36444D01*
X273468Y36384D01*
X273447Y36322D01*
X273430Y36259D01*
X273417Y36195D01*
X273408Y36130D01*
X273402Y36065D01*
X273400Y36000D01*
X273400Y32635D01*
X263962Y32635D02*
X263886Y32637D01*
X263811Y32643D01*
X263735Y32652D01*
X263661Y32666D01*
X263587Y32683D01*
X263514Y32704D01*
X263442Y32728D01*
X263372Y32756D01*
X263303Y32788D01*
X263236Y32823D01*
X263171Y32861D01*
X263107Y32903D01*
X263046Y32948D01*
X262988Y32996D01*
X262931Y33047D01*
X262878Y33100D01*
X262827Y33157D01*
X262779Y33215D01*
X262734Y33276D01*
X262692Y33340D01*
X262654Y33405D01*
X262619Y33472D01*
X262587Y33541D01*
X262559Y33611D01*
X262535Y33683D01*
X262514Y33756D01*
X262497Y33830D01*
X262483Y33904D01*
X262474Y33980D01*
X262468Y34055D01*
X262466Y34131D01*
X263962Y32635D02*
X264070Y32637D01*
X264179Y32642D01*
X264287Y32652D01*
X264394Y32665D01*
X264502Y32681D01*
X264608Y32702D01*
X264714Y32726D01*
X264819Y32753D01*
X264923Y32785D01*
X265025Y32819D01*
X265127Y32858D01*
X265227Y32899D01*
X265325Y32944D01*
X265422Y32993D01*
X265518Y33045D01*
X265611Y33100D01*
X265703Y33158D01*
X265792Y33219D01*
X265879Y33284D01*
X265965Y33351D01*
X266047Y33421D01*
X266127Y33494D01*
X266205Y33570D01*
X266019Y37869D02*
X266017Y37945D01*
X266011Y38020D01*
X266002Y38096D01*
X265988Y38170D01*
X265971Y38244D01*
X265950Y38317D01*
X265926Y38389D01*
X265898Y38459D01*
X265866Y38528D01*
X265831Y38595D01*
X265793Y38660D01*
X265751Y38724D01*
X265706Y38785D01*
X265658Y38843D01*
X265607Y38900D01*
X265554Y38953D01*
X265497Y39004D01*
X265439Y39052D01*
X265378Y39097D01*
X265314Y39139D01*
X265249Y39177D01*
X265182Y39212D01*
X265113Y39244D01*
X265043Y39272D01*
X264971Y39296D01*
X264898Y39317D01*
X264824Y39334D01*
X264750Y39348D01*
X264674Y39357D01*
X264599Y39363D01*
X264523Y39365D01*
X264423Y39363D01*
X264323Y39358D01*
X264223Y39349D01*
X264123Y39336D01*
X264024Y39320D01*
X263926Y39301D01*
X263829Y39278D01*
X263732Y39251D01*
X263636Y39221D01*
X263542Y39188D01*
X263449Y39151D01*
X263357Y39111D01*
X263266Y39068D01*
X263177Y39021D01*
X263090Y38971D01*
X263005Y38919D01*
X262922Y38863D01*
X262841Y38804D01*
X265270Y36560D02*
X265334Y36600D01*
X265396Y36643D01*
X265455Y36689D01*
X265512Y36737D01*
X265567Y36789D01*
X265619Y36843D01*
X265668Y36900D01*
X265715Y36959D01*
X265758Y37020D01*
X265799Y37083D01*
X265836Y37148D01*
X265870Y37215D01*
X265901Y37284D01*
X265928Y37354D01*
X265952Y37425D01*
X265972Y37497D01*
X265988Y37571D01*
X266001Y37645D01*
X266011Y37719D01*
X266016Y37794D01*
X266018Y37869D01*
X263214Y35440D02*
X263150Y35400D01*
X263088Y35357D01*
X263029Y35311D01*
X262972Y35263D01*
X262917Y35211D01*
X262865Y35157D01*
X262816Y35100D01*
X262769Y35041D01*
X262726Y34980D01*
X262685Y34917D01*
X262648Y34852D01*
X262614Y34785D01*
X262583Y34716D01*
X262556Y34646D01*
X262532Y34575D01*
X262512Y34503D01*
X262496Y34429D01*
X262483Y34355D01*
X262473Y34281D01*
X262468Y34206D01*
X262466Y34131D01*
X263214Y35439D02*
X265270Y36561D01*
X258846Y36374D02*
X256977Y36374D01*
X256977Y36373D02*
X256892Y36371D01*
X256807Y36365D01*
X256723Y36356D01*
X256638Y36342D01*
X256555Y36325D01*
X256473Y36304D01*
X256391Y36279D01*
X256311Y36250D01*
X256232Y36218D01*
X256155Y36183D01*
X256080Y36143D01*
X256006Y36101D01*
X255934Y36055D01*
X255865Y36006D01*
X255797Y35954D01*
X255733Y35899D01*
X255671Y35841D01*
X255611Y35780D01*
X255554Y35716D01*
X255501Y35650D01*
X255450Y35582D01*
X255403Y35511D01*
X255358Y35439D01*
X255318Y35364D01*
X255280Y35287D01*
X255246Y35209D01*
X255216Y35130D01*
X255189Y35049D01*
X255166Y34967D01*
X255147Y34884D01*
X255132Y34801D01*
X255120Y34716D01*
X255112Y34632D01*
X255108Y34547D01*
X255108Y34461D01*
X255112Y34376D01*
X255120Y34292D01*
X255132Y34207D01*
X255147Y34124D01*
X255166Y34041D01*
X255189Y33959D01*
X255216Y33878D01*
X255246Y33799D01*
X255280Y33721D01*
X255318Y33644D01*
X255358Y33570D01*
X255403Y33497D01*
X255450Y33426D01*
X255501Y33358D01*
X255554Y33292D01*
X255611Y33228D01*
X255671Y33167D01*
X255733Y33109D01*
X255797Y33054D01*
X255865Y33002D01*
X255934Y32953D01*
X256006Y32907D01*
X256080Y32865D01*
X256155Y32825D01*
X256232Y32790D01*
X256311Y32758D01*
X256391Y32729D01*
X256473Y32704D01*
X256555Y32683D01*
X256638Y32666D01*
X256723Y32652D01*
X256807Y32643D01*
X256892Y32637D01*
X256977Y32635D01*
X258846Y32635D01*
X258846Y39365D01*
X256977Y39365D01*
X256901Y39363D01*
X256826Y39357D01*
X256750Y39348D01*
X256676Y39334D01*
X256602Y39317D01*
X256529Y39296D01*
X256457Y39272D01*
X256387Y39244D01*
X256318Y39212D01*
X256251Y39177D01*
X256186Y39139D01*
X256122Y39097D01*
X256061Y39052D01*
X256003Y39004D01*
X255946Y38953D01*
X255893Y38900D01*
X255842Y38843D01*
X255794Y38785D01*
X255749Y38724D01*
X255707Y38660D01*
X255669Y38595D01*
X255634Y38528D01*
X255602Y38459D01*
X255574Y38389D01*
X255550Y38317D01*
X255529Y38244D01*
X255512Y38170D01*
X255498Y38096D01*
X255489Y38020D01*
X255483Y37945D01*
X255481Y37869D01*
X255483Y37793D01*
X255489Y37718D01*
X255498Y37642D01*
X255512Y37568D01*
X255529Y37494D01*
X255550Y37421D01*
X255574Y37349D01*
X255602Y37279D01*
X255634Y37210D01*
X255669Y37143D01*
X255707Y37078D01*
X255749Y37014D01*
X255794Y36953D01*
X255842Y36895D01*
X255893Y36838D01*
X255946Y36785D01*
X256003Y36734D01*
X256061Y36686D01*
X256122Y36641D01*
X256186Y36599D01*
X256251Y36561D01*
X256318Y36526D01*
X256387Y36494D01*
X256457Y36466D01*
X256529Y36442D01*
X256602Y36421D01*
X256676Y36404D01*
X256750Y36390D01*
X256826Y36381D01*
X256901Y36375D01*
X256977Y36373D01*
X251805Y34504D02*
X251805Y39365D01*
X251805Y34504D02*
X251803Y34419D01*
X251797Y34334D01*
X251788Y34250D01*
X251774Y34165D01*
X251757Y34082D01*
X251736Y34000D01*
X251711Y33918D01*
X251682Y33838D01*
X251650Y33759D01*
X251615Y33682D01*
X251575Y33607D01*
X251533Y33533D01*
X251487Y33461D01*
X251438Y33392D01*
X251386Y33324D01*
X251331Y33260D01*
X251273Y33198D01*
X251212Y33138D01*
X251148Y33081D01*
X251082Y33028D01*
X251014Y32977D01*
X250943Y32930D01*
X250871Y32885D01*
X250796Y32845D01*
X250719Y32807D01*
X250641Y32773D01*
X250562Y32743D01*
X250481Y32716D01*
X250399Y32693D01*
X250316Y32674D01*
X250233Y32659D01*
X250148Y32647D01*
X250064Y32639D01*
X249979Y32635D01*
X249893Y32635D01*
X249808Y32639D01*
X249724Y32647D01*
X249639Y32659D01*
X249556Y32674D01*
X249473Y32693D01*
X249391Y32716D01*
X249310Y32743D01*
X249231Y32773D01*
X249153Y32807D01*
X249076Y32845D01*
X249002Y32885D01*
X248929Y32930D01*
X248858Y32977D01*
X248790Y33028D01*
X248724Y33081D01*
X248660Y33138D01*
X248599Y33198D01*
X248541Y33260D01*
X248486Y33324D01*
X248434Y33392D01*
X248385Y33461D01*
X248339Y33533D01*
X248297Y33607D01*
X248257Y33682D01*
X248222Y33759D01*
X248190Y33838D01*
X248161Y33918D01*
X248136Y34000D01*
X248115Y34082D01*
X248098Y34165D01*
X248084Y34250D01*
X248075Y34334D01*
X248069Y34419D01*
X248067Y34504D01*
X248066Y34504D02*
X248066Y39365D01*
X244176Y37122D02*
X244176Y30392D01*
X244176Y37122D02*
X242306Y37122D01*
X242241Y37120D01*
X242176Y37114D01*
X242111Y37105D01*
X242047Y37092D01*
X241984Y37075D01*
X241922Y37054D01*
X241862Y37030D01*
X241802Y37003D01*
X241745Y36972D01*
X241689Y36937D01*
X241636Y36900D01*
X241585Y36860D01*
X241536Y36816D01*
X241490Y36770D01*
X241447Y36721D01*
X241406Y36670D01*
X241369Y36617D01*
X241334Y36561D01*
X241303Y36504D01*
X241276Y36444D01*
X241252Y36384D01*
X241231Y36322D01*
X241214Y36259D01*
X241201Y36195D01*
X241192Y36130D01*
X241186Y36065D01*
X241184Y36000D01*
X241185Y36000D02*
X241185Y33757D01*
X241184Y33757D02*
X241186Y33692D01*
X241192Y33627D01*
X241201Y33562D01*
X241214Y33498D01*
X241231Y33435D01*
X241252Y33373D01*
X241276Y33313D01*
X241303Y33253D01*
X241334Y33196D01*
X241369Y33140D01*
X241406Y33087D01*
X241446Y33036D01*
X241490Y32987D01*
X241536Y32941D01*
X241585Y32897D01*
X241636Y32857D01*
X241689Y32820D01*
X241745Y32785D01*
X241802Y32754D01*
X241862Y32727D01*
X241922Y32703D01*
X241984Y32682D01*
X242047Y32665D01*
X242111Y32652D01*
X242176Y32643D01*
X242241Y32637D01*
X242306Y32635D01*
X244176Y32635D01*
X232581Y32635D02*
X231085Y32635D01*
X232581Y32635D02*
X232657Y32637D01*
X232732Y32643D01*
X232808Y32652D01*
X232882Y32666D01*
X232956Y32683D01*
X233029Y32704D01*
X233101Y32728D01*
X233171Y32756D01*
X233240Y32788D01*
X233307Y32823D01*
X233372Y32861D01*
X233436Y32903D01*
X233497Y32948D01*
X233555Y32996D01*
X233612Y33047D01*
X233665Y33100D01*
X233716Y33157D01*
X233764Y33215D01*
X233809Y33276D01*
X233851Y33340D01*
X233889Y33405D01*
X233924Y33472D01*
X233956Y33541D01*
X233984Y33611D01*
X234008Y33683D01*
X234029Y33756D01*
X234046Y33830D01*
X234060Y33904D01*
X234069Y33980D01*
X234075Y34055D01*
X234077Y34131D01*
X234076Y34131D02*
X234076Y37869D01*
X234077Y37869D02*
X234075Y37945D01*
X234069Y38020D01*
X234060Y38096D01*
X234046Y38170D01*
X234029Y38244D01*
X234008Y38317D01*
X233984Y38389D01*
X233956Y38459D01*
X233924Y38528D01*
X233889Y38595D01*
X233851Y38660D01*
X233809Y38724D01*
X233764Y38785D01*
X233716Y38843D01*
X233665Y38900D01*
X233612Y38953D01*
X233555Y39004D01*
X233497Y39052D01*
X233436Y39097D01*
X233372Y39139D01*
X233307Y39177D01*
X233240Y39212D01*
X233171Y39244D01*
X233101Y39272D01*
X233029Y39296D01*
X232956Y39317D01*
X232882Y39334D01*
X232808Y39348D01*
X232732Y39357D01*
X232657Y39363D01*
X232581Y39365D01*
X231085Y39365D01*
X226581Y32635D02*
X225085Y32635D01*
X226581Y32635D02*
X226657Y32637D01*
X226732Y32643D01*
X226808Y32652D01*
X226882Y32666D01*
X226956Y32683D01*
X227029Y32704D01*
X227101Y32728D01*
X227171Y32756D01*
X227240Y32788D01*
X227307Y32823D01*
X227372Y32861D01*
X227436Y32903D01*
X227497Y32948D01*
X227555Y32996D01*
X227612Y33047D01*
X227665Y33100D01*
X227716Y33157D01*
X227764Y33215D01*
X227809Y33276D01*
X227851Y33340D01*
X227889Y33405D01*
X227924Y33472D01*
X227956Y33541D01*
X227984Y33611D01*
X228008Y33683D01*
X228029Y33756D01*
X228046Y33830D01*
X228060Y33904D01*
X228069Y33980D01*
X228075Y34055D01*
X228077Y34131D01*
X228076Y34131D02*
X228076Y37869D01*
X228077Y37869D02*
X228075Y37945D01*
X228069Y38020D01*
X228060Y38096D01*
X228046Y38170D01*
X228029Y38244D01*
X228008Y38317D01*
X227984Y38389D01*
X227956Y38459D01*
X227924Y38528D01*
X227889Y38595D01*
X227851Y38660D01*
X227809Y38724D01*
X227764Y38785D01*
X227716Y38843D01*
X227665Y38900D01*
X227612Y38953D01*
X227555Y39004D01*
X227497Y39052D01*
X227436Y39097D01*
X227372Y39139D01*
X227307Y39177D01*
X227240Y39212D01*
X227171Y39244D01*
X227101Y39272D01*
X227029Y39296D01*
X226956Y39317D01*
X226882Y39334D01*
X226808Y39348D01*
X226732Y39357D01*
X226657Y39363D01*
X226581Y39365D01*
X225085Y39365D01*
X219989Y39366D02*
X219909Y39364D01*
X219829Y39358D01*
X219749Y39349D01*
X219670Y39336D01*
X219592Y39319D01*
X219515Y39298D01*
X219439Y39273D01*
X219363Y39245D01*
X219290Y39214D01*
X219218Y39179D01*
X219148Y39141D01*
X219079Y39099D01*
X219013Y39054D01*
X218949Y39006D01*
X218887Y38955D01*
X218828Y38901D01*
X218771Y38844D01*
X218717Y38785D01*
X218666Y38723D01*
X218618Y38659D01*
X218573Y38593D01*
X218531Y38525D01*
X218493Y38454D01*
X218458Y38382D01*
X218427Y38309D01*
X218399Y38233D01*
X218374Y38157D01*
X218353Y38080D01*
X218336Y38002D01*
X218323Y37923D01*
X218314Y37843D01*
X218308Y37763D01*
X218306Y37683D01*
X219989Y39365D02*
X220080Y39363D01*
X220170Y39357D01*
X220260Y39348D01*
X220350Y39335D01*
X220439Y39318D01*
X220527Y39297D01*
X220614Y39273D01*
X220701Y39245D01*
X220785Y39213D01*
X220869Y39178D01*
X220951Y39139D01*
X221031Y39097D01*
X221110Y39052D01*
X221186Y39003D01*
X221261Y38951D01*
X221333Y38897D01*
X221403Y38839D01*
X221470Y38778D01*
X221535Y38715D01*
X221597Y38649D01*
X221656Y38580D01*
X221712Y38509D01*
X221765Y38436D01*
X221815Y38360D01*
X221862Y38282D01*
X221906Y38203D01*
X221946Y38122D01*
X221983Y38039D01*
X222016Y37955D01*
X222046Y37869D01*
X218868Y36374D02*
X218810Y36432D01*
X218755Y36492D01*
X218703Y36554D01*
X218654Y36619D01*
X218607Y36685D01*
X218564Y36754D01*
X218524Y36825D01*
X218487Y36897D01*
X218453Y36971D01*
X218423Y37047D01*
X218396Y37123D01*
X218372Y37201D01*
X218353Y37280D01*
X218336Y37360D01*
X218323Y37440D01*
X218314Y37521D01*
X218309Y37602D01*
X218307Y37683D01*
X218867Y36374D02*
X222045Y32635D01*
X218306Y32635D01*
X209541Y32635D02*
X208045Y32635D01*
X209541Y32635D02*
X209617Y32637D01*
X209692Y32643D01*
X209768Y32652D01*
X209842Y32666D01*
X209916Y32683D01*
X209989Y32704D01*
X210061Y32728D01*
X210131Y32756D01*
X210200Y32788D01*
X210267Y32823D01*
X210332Y32861D01*
X210396Y32903D01*
X210457Y32948D01*
X210515Y32996D01*
X210572Y33047D01*
X210625Y33100D01*
X210676Y33157D01*
X210724Y33215D01*
X210769Y33276D01*
X210811Y33340D01*
X210849Y33405D01*
X210884Y33472D01*
X210916Y33541D01*
X210944Y33611D01*
X210968Y33683D01*
X210989Y33756D01*
X211006Y33830D01*
X211020Y33904D01*
X211029Y33980D01*
X211035Y34055D01*
X211037Y34131D01*
X211037Y37869D01*
X211035Y37945D01*
X211029Y38020D01*
X211020Y38096D01*
X211006Y38170D01*
X210989Y38244D01*
X210968Y38317D01*
X210944Y38389D01*
X210916Y38459D01*
X210884Y38528D01*
X210849Y38595D01*
X210811Y38660D01*
X210769Y38724D01*
X210724Y38785D01*
X210676Y38843D01*
X210625Y38900D01*
X210572Y38953D01*
X210515Y39004D01*
X210457Y39052D01*
X210396Y39097D01*
X210332Y39139D01*
X210267Y39177D01*
X210200Y39212D01*
X210131Y39244D01*
X210061Y39272D01*
X209989Y39296D01*
X209916Y39317D01*
X209842Y39334D01*
X209768Y39348D01*
X209692Y39357D01*
X209617Y39363D01*
X209541Y39365D01*
X208045Y39365D01*
X203541Y32635D02*
X202045Y32635D01*
X203541Y32635D02*
X203617Y32637D01*
X203692Y32643D01*
X203768Y32652D01*
X203842Y32666D01*
X203916Y32683D01*
X203989Y32704D01*
X204061Y32728D01*
X204131Y32756D01*
X204200Y32788D01*
X204267Y32823D01*
X204332Y32861D01*
X204396Y32903D01*
X204457Y32948D01*
X204515Y32996D01*
X204572Y33047D01*
X204625Y33100D01*
X204676Y33157D01*
X204724Y33215D01*
X204769Y33276D01*
X204811Y33340D01*
X204849Y33405D01*
X204884Y33472D01*
X204916Y33541D01*
X204944Y33611D01*
X204968Y33683D01*
X204989Y33756D01*
X205006Y33830D01*
X205020Y33904D01*
X205029Y33980D01*
X205035Y34055D01*
X205037Y34131D01*
X205037Y37869D01*
X205035Y37945D01*
X205029Y38020D01*
X205020Y38096D01*
X205006Y38170D01*
X204989Y38244D01*
X204968Y38317D01*
X204944Y38389D01*
X204916Y38459D01*
X204884Y38528D01*
X204849Y38595D01*
X204811Y38660D01*
X204769Y38724D01*
X204724Y38785D01*
X204676Y38843D01*
X204625Y38900D01*
X204572Y38953D01*
X204515Y39004D01*
X204457Y39052D01*
X204396Y39097D01*
X204332Y39139D01*
X204267Y39177D01*
X204200Y39212D01*
X204131Y39244D01*
X204061Y39272D01*
X203989Y39296D01*
X203916Y39317D01*
X203842Y39334D01*
X203768Y39348D01*
X203692Y39357D01*
X203617Y39363D01*
X203541Y39365D01*
X202045Y39365D01*
X199005Y37869D02*
X197136Y39365D01*
X197136Y32635D01*
X199005Y32635D02*
X195266Y32635D01*
X294626Y24374D02*
X295748Y24374D01*
X294626Y24374D02*
X294626Y20635D01*
X296869Y20635D01*
X296945Y20637D01*
X297020Y20643D01*
X297096Y20652D01*
X297170Y20666D01*
X297244Y20683D01*
X297317Y20704D01*
X297389Y20728D01*
X297459Y20756D01*
X297528Y20788D01*
X297595Y20823D01*
X297660Y20861D01*
X297724Y20903D01*
X297785Y20948D01*
X297843Y20996D01*
X297900Y21047D01*
X297953Y21100D01*
X298004Y21157D01*
X298052Y21215D01*
X298097Y21276D01*
X298139Y21340D01*
X298177Y21405D01*
X298212Y21472D01*
X298244Y21541D01*
X298272Y21611D01*
X298296Y21683D01*
X298317Y21756D01*
X298334Y21830D01*
X298348Y21904D01*
X298357Y21980D01*
X298363Y22055D01*
X298365Y22131D01*
X298365Y25869D01*
X298363Y25945D01*
X298357Y26020D01*
X298348Y26096D01*
X298334Y26170D01*
X298317Y26244D01*
X298296Y26317D01*
X298272Y26389D01*
X298244Y26459D01*
X298212Y26528D01*
X298177Y26595D01*
X298139Y26660D01*
X298097Y26724D01*
X298052Y26785D01*
X298004Y26843D01*
X297953Y26900D01*
X297900Y26953D01*
X297843Y27004D01*
X297785Y27052D01*
X297724Y27097D01*
X297660Y27139D01*
X297595Y27177D01*
X297528Y27212D01*
X297459Y27244D01*
X297389Y27272D01*
X297317Y27296D01*
X297244Y27317D01*
X297170Y27334D01*
X297096Y27348D01*
X297020Y27357D01*
X296945Y27363D01*
X296869Y27365D01*
X294626Y27365D01*
X290685Y27365D02*
X290685Y20635D01*
X286946Y20635D02*
X290685Y27365D01*
X286946Y27365D02*
X286946Y20635D01*
X283005Y20635D02*
X283005Y27365D01*
X281136Y27365D01*
X281052Y27363D01*
X280968Y27357D01*
X280885Y27348D01*
X280802Y27335D01*
X280720Y27318D01*
X280639Y27298D01*
X280558Y27274D01*
X280479Y27246D01*
X280401Y27215D01*
X280325Y27180D01*
X280250Y27142D01*
X280177Y27100D01*
X280106Y27056D01*
X280037Y27008D01*
X279971Y26957D01*
X279906Y26903D01*
X279844Y26847D01*
X279785Y26788D01*
X279729Y26726D01*
X279675Y26661D01*
X279624Y26595D01*
X279576Y26526D01*
X279532Y26455D01*
X279490Y26382D01*
X279452Y26307D01*
X279417Y26231D01*
X279386Y26153D01*
X279358Y26074D01*
X279334Y25993D01*
X279314Y25912D01*
X279297Y25830D01*
X279284Y25747D01*
X279275Y25664D01*
X279269Y25580D01*
X279267Y25496D01*
X279266Y25496D02*
X279266Y22504D01*
X279267Y22504D02*
X279269Y22420D01*
X279275Y22336D01*
X279284Y22253D01*
X279297Y22170D01*
X279314Y22088D01*
X279334Y22007D01*
X279358Y21926D01*
X279386Y21847D01*
X279417Y21769D01*
X279452Y21693D01*
X279490Y21618D01*
X279532Y21545D01*
X279576Y21474D01*
X279624Y21405D01*
X279675Y21339D01*
X279729Y21274D01*
X279785Y21212D01*
X279844Y21153D01*
X279906Y21097D01*
X279971Y21043D01*
X280037Y20992D01*
X280106Y20944D01*
X280177Y20900D01*
X280250Y20858D01*
X280325Y20820D01*
X280401Y20785D01*
X280479Y20754D01*
X280558Y20726D01*
X280639Y20702D01*
X280720Y20682D01*
X280802Y20665D01*
X280885Y20652D01*
X280968Y20643D01*
X281052Y20637D01*
X281136Y20635D01*
X283005Y20635D01*
X267645Y20635D02*
X267645Y27365D01*
X265776Y27365D01*
X265692Y27363D01*
X265608Y27357D01*
X265525Y27348D01*
X265442Y27335D01*
X265360Y27318D01*
X265279Y27298D01*
X265198Y27274D01*
X265119Y27246D01*
X265041Y27215D01*
X264965Y27180D01*
X264890Y27142D01*
X264817Y27100D01*
X264746Y27056D01*
X264677Y27008D01*
X264611Y26957D01*
X264546Y26903D01*
X264484Y26847D01*
X264425Y26788D01*
X264369Y26726D01*
X264315Y26661D01*
X264264Y26595D01*
X264216Y26526D01*
X264172Y26455D01*
X264130Y26382D01*
X264092Y26307D01*
X264057Y26231D01*
X264026Y26153D01*
X263998Y26074D01*
X263974Y25993D01*
X263954Y25912D01*
X263937Y25830D01*
X263924Y25747D01*
X263915Y25664D01*
X263909Y25580D01*
X263907Y25496D01*
X263906Y25496D02*
X263906Y22504D01*
X263907Y22504D02*
X263909Y22420D01*
X263915Y22336D01*
X263924Y22253D01*
X263937Y22170D01*
X263954Y22088D01*
X263974Y22007D01*
X263998Y21926D01*
X264026Y21847D01*
X264057Y21769D01*
X264092Y21693D01*
X264130Y21618D01*
X264172Y21545D01*
X264216Y21474D01*
X264264Y21405D01*
X264315Y21339D01*
X264369Y21274D01*
X264425Y21212D01*
X264484Y21153D01*
X264546Y21097D01*
X264611Y21043D01*
X264677Y20992D01*
X264746Y20944D01*
X264817Y20900D01*
X264890Y20858D01*
X264965Y20820D01*
X265041Y20785D01*
X265119Y20754D01*
X265198Y20726D01*
X265279Y20702D01*
X265360Y20682D01*
X265442Y20665D01*
X265525Y20652D01*
X265608Y20643D01*
X265692Y20637D01*
X265776Y20635D01*
X267645Y20635D01*
X260016Y18392D02*
X260016Y25122D01*
X258146Y25122D01*
X258081Y25120D01*
X258016Y25114D01*
X257951Y25105D01*
X257887Y25092D01*
X257824Y25075D01*
X257762Y25054D01*
X257702Y25030D01*
X257642Y25003D01*
X257585Y24972D01*
X257529Y24937D01*
X257476Y24900D01*
X257425Y24860D01*
X257376Y24816D01*
X257330Y24770D01*
X257287Y24721D01*
X257246Y24670D01*
X257209Y24617D01*
X257174Y24561D01*
X257143Y24504D01*
X257116Y24444D01*
X257092Y24384D01*
X257071Y24322D01*
X257054Y24259D01*
X257041Y24195D01*
X257032Y24130D01*
X257026Y24065D01*
X257024Y24000D01*
X257025Y24000D02*
X257025Y21757D01*
X257024Y21757D02*
X257026Y21692D01*
X257032Y21627D01*
X257041Y21562D01*
X257054Y21498D01*
X257071Y21435D01*
X257092Y21373D01*
X257116Y21313D01*
X257143Y21253D01*
X257174Y21196D01*
X257209Y21140D01*
X257246Y21087D01*
X257286Y21036D01*
X257330Y20987D01*
X257376Y20941D01*
X257425Y20897D01*
X257476Y20857D01*
X257529Y20820D01*
X257585Y20785D01*
X257642Y20754D01*
X257702Y20727D01*
X257762Y20703D01*
X257824Y20682D01*
X257887Y20665D01*
X257951Y20652D01*
X258016Y20643D01*
X258081Y20637D01*
X258146Y20635D01*
X260016Y20635D01*
X234285Y20635D02*
X234285Y27365D01*
X232416Y27365D01*
X232332Y27363D01*
X232248Y27357D01*
X232165Y27348D01*
X232082Y27335D01*
X232000Y27318D01*
X231919Y27298D01*
X231838Y27274D01*
X231759Y27246D01*
X231681Y27215D01*
X231605Y27180D01*
X231530Y27142D01*
X231457Y27100D01*
X231386Y27056D01*
X231317Y27008D01*
X231251Y26957D01*
X231186Y26903D01*
X231124Y26847D01*
X231065Y26788D01*
X231009Y26726D01*
X230955Y26661D01*
X230904Y26595D01*
X230856Y26526D01*
X230812Y26455D01*
X230770Y26382D01*
X230732Y26307D01*
X230697Y26231D01*
X230666Y26153D01*
X230638Y26074D01*
X230614Y25993D01*
X230594Y25912D01*
X230577Y25830D01*
X230564Y25747D01*
X230555Y25664D01*
X230549Y25580D01*
X230547Y25496D01*
X230546Y25496D02*
X230546Y22504D01*
X230547Y22504D02*
X230549Y22420D01*
X230555Y22336D01*
X230564Y22253D01*
X230577Y22170D01*
X230594Y22088D01*
X230614Y22007D01*
X230638Y21926D01*
X230666Y21847D01*
X230697Y21769D01*
X230732Y21693D01*
X230770Y21618D01*
X230812Y21545D01*
X230856Y21474D01*
X230904Y21405D01*
X230955Y21339D01*
X231009Y21274D01*
X231065Y21212D01*
X231124Y21153D01*
X231186Y21097D01*
X231251Y21043D01*
X231317Y20992D01*
X231386Y20944D01*
X231457Y20900D01*
X231530Y20858D01*
X231605Y20820D01*
X231681Y20785D01*
X231759Y20754D01*
X231838Y20726D01*
X231919Y20702D01*
X232000Y20682D01*
X232082Y20665D01*
X232165Y20652D01*
X232248Y20643D01*
X232332Y20637D01*
X232416Y20635D01*
X234285Y20635D01*
X226711Y20635D02*
X226711Y25122D01*
X224842Y25122D01*
X224777Y25120D01*
X224712Y25114D01*
X224647Y25105D01*
X224583Y25092D01*
X224520Y25075D01*
X224458Y25054D01*
X224398Y25030D01*
X224338Y25003D01*
X224281Y24972D01*
X224225Y24937D01*
X224172Y24900D01*
X224121Y24860D01*
X224072Y24816D01*
X224026Y24770D01*
X223983Y24721D01*
X223942Y24670D01*
X223905Y24617D01*
X223870Y24561D01*
X223839Y24504D01*
X223812Y24444D01*
X223788Y24384D01*
X223767Y24322D01*
X223750Y24259D01*
X223737Y24195D01*
X223728Y24130D01*
X223722Y24065D01*
X223720Y24000D01*
X223720Y20635D01*
X212819Y27365D02*
X210576Y20635D01*
X208333Y27365D01*
X204846Y24374D02*
X202977Y24374D01*
X202977Y24373D02*
X202892Y24371D01*
X202807Y24365D01*
X202723Y24356D01*
X202638Y24342D01*
X202555Y24325D01*
X202473Y24304D01*
X202391Y24279D01*
X202311Y24250D01*
X202232Y24218D01*
X202155Y24183D01*
X202080Y24143D01*
X202006Y24101D01*
X201934Y24055D01*
X201865Y24006D01*
X201797Y23954D01*
X201733Y23899D01*
X201671Y23841D01*
X201611Y23780D01*
X201554Y23716D01*
X201501Y23650D01*
X201450Y23582D01*
X201403Y23511D01*
X201358Y23439D01*
X201318Y23364D01*
X201280Y23287D01*
X201246Y23209D01*
X201216Y23130D01*
X201189Y23049D01*
X201166Y22967D01*
X201147Y22884D01*
X201132Y22801D01*
X201120Y22716D01*
X201112Y22632D01*
X201108Y22547D01*
X201108Y22461D01*
X201112Y22376D01*
X201120Y22292D01*
X201132Y22207D01*
X201147Y22124D01*
X201166Y22041D01*
X201189Y21959D01*
X201216Y21878D01*
X201246Y21799D01*
X201280Y21721D01*
X201318Y21644D01*
X201358Y21570D01*
X201403Y21497D01*
X201450Y21426D01*
X201501Y21358D01*
X201554Y21292D01*
X201611Y21228D01*
X201671Y21167D01*
X201733Y21109D01*
X201797Y21054D01*
X201865Y21002D01*
X201934Y20953D01*
X202006Y20907D01*
X202080Y20865D01*
X202155Y20825D01*
X202232Y20790D01*
X202311Y20758D01*
X202391Y20729D01*
X202473Y20704D01*
X202555Y20683D01*
X202638Y20666D01*
X202723Y20652D01*
X202807Y20643D01*
X202892Y20637D01*
X202977Y20635D01*
X204846Y20635D01*
X204846Y27365D01*
X202977Y27365D01*
X202901Y27363D01*
X202826Y27357D01*
X202750Y27348D01*
X202676Y27334D01*
X202602Y27317D01*
X202529Y27296D01*
X202457Y27272D01*
X202387Y27244D01*
X202318Y27212D01*
X202251Y27177D01*
X202186Y27139D01*
X202122Y27097D01*
X202061Y27052D01*
X202003Y27004D01*
X201946Y26953D01*
X201893Y26900D01*
X201842Y26843D01*
X201794Y26785D01*
X201749Y26724D01*
X201707Y26660D01*
X201669Y26595D01*
X201634Y26528D01*
X201602Y26459D01*
X201574Y26389D01*
X201550Y26317D01*
X201529Y26244D01*
X201512Y26170D01*
X201498Y26096D01*
X201489Y26020D01*
X201483Y25945D01*
X201481Y25869D01*
X201483Y25793D01*
X201489Y25718D01*
X201498Y25642D01*
X201512Y25568D01*
X201529Y25494D01*
X201550Y25421D01*
X201574Y25349D01*
X201602Y25279D01*
X201634Y25210D01*
X201669Y25143D01*
X201707Y25078D01*
X201749Y25014D01*
X201794Y24953D01*
X201842Y24895D01*
X201893Y24838D01*
X201946Y24785D01*
X202003Y24734D01*
X202061Y24686D01*
X202122Y24641D01*
X202186Y24599D01*
X202251Y24561D01*
X202318Y24526D01*
X202387Y24494D01*
X202457Y24466D01*
X202529Y24442D01*
X202602Y24421D01*
X202676Y24404D01*
X202750Y24390D01*
X202826Y24381D01*
X202901Y24375D01*
X202977Y24373D01*
X197805Y22504D02*
X197805Y27365D01*
X197805Y22504D02*
X197803Y22419D01*
X197797Y22334D01*
X197788Y22250D01*
X197774Y22165D01*
X197757Y22082D01*
X197736Y22000D01*
X197711Y21918D01*
X197682Y21838D01*
X197650Y21759D01*
X197615Y21682D01*
X197575Y21607D01*
X197533Y21533D01*
X197487Y21461D01*
X197438Y21392D01*
X197386Y21324D01*
X197331Y21260D01*
X197273Y21198D01*
X197212Y21138D01*
X197148Y21081D01*
X197082Y21028D01*
X197014Y20977D01*
X196943Y20930D01*
X196871Y20885D01*
X196796Y20845D01*
X196719Y20807D01*
X196641Y20773D01*
X196562Y20743D01*
X196481Y20716D01*
X196399Y20693D01*
X196316Y20674D01*
X196233Y20659D01*
X196148Y20647D01*
X196064Y20639D01*
X195979Y20635D01*
X195893Y20635D01*
X195808Y20639D01*
X195724Y20647D01*
X195639Y20659D01*
X195556Y20674D01*
X195473Y20693D01*
X195391Y20716D01*
X195310Y20743D01*
X195231Y20773D01*
X195153Y20807D01*
X195076Y20845D01*
X195002Y20885D01*
X194929Y20930D01*
X194858Y20977D01*
X194790Y21028D01*
X194724Y21081D01*
X194660Y21138D01*
X194599Y21198D01*
X194541Y21260D01*
X194486Y21324D01*
X194434Y21392D01*
X194385Y21461D01*
X194339Y21533D01*
X194297Y21607D01*
X194257Y21682D01*
X194222Y21759D01*
X194190Y21838D01*
X194161Y21918D01*
X194136Y22000D01*
X194115Y22082D01*
X194098Y22165D01*
X194084Y22250D01*
X194075Y22334D01*
X194069Y22419D01*
X194067Y22504D01*
X194067Y27365D01*
X188362Y20635D02*
X188286Y20637D01*
X188211Y20643D01*
X188135Y20652D01*
X188061Y20666D01*
X187987Y20683D01*
X187914Y20704D01*
X187842Y20728D01*
X187772Y20756D01*
X187703Y20788D01*
X187636Y20823D01*
X187571Y20861D01*
X187507Y20903D01*
X187446Y20948D01*
X187388Y20996D01*
X187331Y21047D01*
X187278Y21100D01*
X187227Y21157D01*
X187179Y21215D01*
X187134Y21276D01*
X187092Y21340D01*
X187054Y21405D01*
X187019Y21472D01*
X186987Y21541D01*
X186959Y21611D01*
X186935Y21683D01*
X186914Y21756D01*
X186897Y21830D01*
X186883Y21904D01*
X186874Y21980D01*
X186868Y22055D01*
X186866Y22131D01*
X188362Y20635D02*
X188470Y20637D01*
X188579Y20642D01*
X188687Y20652D01*
X188794Y20665D01*
X188902Y20681D01*
X189008Y20702D01*
X189114Y20726D01*
X189219Y20753D01*
X189323Y20785D01*
X189425Y20819D01*
X189527Y20858D01*
X189627Y20899D01*
X189725Y20944D01*
X189822Y20993D01*
X189918Y21045D01*
X190011Y21100D01*
X190103Y21158D01*
X190192Y21219D01*
X190279Y21284D01*
X190365Y21351D01*
X190447Y21421D01*
X190527Y21494D01*
X190605Y21570D01*
X190419Y25869D02*
X190417Y25945D01*
X190411Y26020D01*
X190402Y26096D01*
X190388Y26170D01*
X190371Y26244D01*
X190350Y26317D01*
X190326Y26389D01*
X190298Y26459D01*
X190266Y26528D01*
X190231Y26595D01*
X190193Y26660D01*
X190151Y26724D01*
X190106Y26785D01*
X190058Y26843D01*
X190007Y26900D01*
X189954Y26953D01*
X189897Y27004D01*
X189839Y27052D01*
X189778Y27097D01*
X189714Y27139D01*
X189649Y27177D01*
X189582Y27212D01*
X189513Y27244D01*
X189443Y27272D01*
X189371Y27296D01*
X189298Y27317D01*
X189224Y27334D01*
X189150Y27348D01*
X189074Y27357D01*
X188999Y27363D01*
X188923Y27365D01*
X188823Y27363D01*
X188723Y27358D01*
X188623Y27349D01*
X188523Y27336D01*
X188424Y27320D01*
X188326Y27301D01*
X188229Y27278D01*
X188132Y27251D01*
X188036Y27221D01*
X187942Y27188D01*
X187849Y27151D01*
X187757Y27111D01*
X187666Y27068D01*
X187577Y27021D01*
X187490Y26971D01*
X187405Y26919D01*
X187322Y26863D01*
X187241Y26804D01*
X189671Y24560D02*
X189735Y24600D01*
X189797Y24643D01*
X189856Y24689D01*
X189913Y24737D01*
X189968Y24789D01*
X190020Y24843D01*
X190069Y24900D01*
X190116Y24959D01*
X190159Y25020D01*
X190200Y25083D01*
X190237Y25148D01*
X190271Y25215D01*
X190302Y25284D01*
X190329Y25354D01*
X190353Y25425D01*
X190373Y25497D01*
X190389Y25571D01*
X190402Y25645D01*
X190412Y25719D01*
X190417Y25794D01*
X190419Y25869D01*
X187614Y23440D02*
X187550Y23400D01*
X187488Y23357D01*
X187429Y23311D01*
X187372Y23263D01*
X187317Y23211D01*
X187265Y23157D01*
X187216Y23100D01*
X187169Y23041D01*
X187126Y22980D01*
X187085Y22917D01*
X187048Y22852D01*
X187014Y22785D01*
X186983Y22716D01*
X186956Y22646D01*
X186932Y22575D01*
X186912Y22503D01*
X186896Y22429D01*
X186883Y22355D01*
X186873Y22281D01*
X186868Y22206D01*
X186866Y22131D01*
X187614Y23439D02*
X189671Y24561D01*
X298365Y15365D02*
X298365Y8635D01*
X298365Y15365D02*
X296496Y15365D01*
X296411Y15363D01*
X296326Y15357D01*
X296242Y15348D01*
X296157Y15334D01*
X296074Y15317D01*
X295992Y15296D01*
X295910Y15271D01*
X295830Y15242D01*
X295751Y15210D01*
X295674Y15175D01*
X295599Y15135D01*
X295525Y15093D01*
X295453Y15047D01*
X295384Y14998D01*
X295316Y14946D01*
X295252Y14891D01*
X295190Y14833D01*
X295130Y14772D01*
X295073Y14708D01*
X295020Y14642D01*
X294969Y14574D01*
X294922Y14503D01*
X294877Y14431D01*
X294837Y14356D01*
X294799Y14279D01*
X294765Y14201D01*
X294735Y14122D01*
X294708Y14041D01*
X294685Y13959D01*
X294666Y13876D01*
X294651Y13793D01*
X294639Y13708D01*
X294631Y13624D01*
X294627Y13539D01*
X294627Y13453D01*
X294631Y13368D01*
X294639Y13284D01*
X294651Y13199D01*
X294666Y13116D01*
X294685Y13033D01*
X294708Y12951D01*
X294735Y12870D01*
X294765Y12791D01*
X294799Y12713D01*
X294837Y12636D01*
X294877Y12562D01*
X294922Y12489D01*
X294969Y12418D01*
X295020Y12350D01*
X295073Y12284D01*
X295130Y12220D01*
X295190Y12159D01*
X295252Y12101D01*
X295316Y12046D01*
X295384Y11994D01*
X295453Y11945D01*
X295525Y11899D01*
X295599Y11857D01*
X295674Y11817D01*
X295751Y11782D01*
X295830Y11750D01*
X295910Y11721D01*
X295992Y11696D01*
X296074Y11675D01*
X296157Y11658D01*
X296242Y11644D01*
X296326Y11635D01*
X296411Y11629D01*
X296496Y11627D01*
X296496Y11626D02*
X298365Y11626D01*
X296122Y11626D02*
X294626Y8635D01*
X291608Y8635D02*
X287121Y15365D01*
X291608Y15365D02*
X287121Y8635D01*
X283900Y8635D02*
X283900Y13122D01*
X282031Y13122D01*
X281966Y13120D01*
X281901Y13114D01*
X281836Y13105D01*
X281772Y13092D01*
X281709Y13075D01*
X281647Y13054D01*
X281587Y13030D01*
X281527Y13003D01*
X281470Y12972D01*
X281414Y12937D01*
X281361Y12900D01*
X281310Y12860D01*
X281261Y12816D01*
X281215Y12770D01*
X281172Y12721D01*
X281131Y12670D01*
X281094Y12617D01*
X281059Y12561D01*
X281028Y12504D01*
X281001Y12444D01*
X280977Y12384D01*
X280956Y12322D01*
X280939Y12259D01*
X280926Y12195D01*
X280917Y12130D01*
X280911Y12065D01*
X280909Y12000D01*
X280909Y8635D01*
X265485Y8635D02*
X265485Y15365D01*
X263616Y15365D01*
X263531Y15363D01*
X263446Y15357D01*
X263362Y15348D01*
X263277Y15334D01*
X263194Y15317D01*
X263112Y15296D01*
X263030Y15271D01*
X262950Y15242D01*
X262871Y15210D01*
X262794Y15175D01*
X262719Y15135D01*
X262645Y15093D01*
X262573Y15047D01*
X262504Y14998D01*
X262436Y14946D01*
X262372Y14891D01*
X262310Y14833D01*
X262250Y14772D01*
X262193Y14708D01*
X262140Y14642D01*
X262089Y14574D01*
X262042Y14503D01*
X261997Y14431D01*
X261957Y14356D01*
X261919Y14279D01*
X261885Y14201D01*
X261855Y14122D01*
X261828Y14041D01*
X261805Y13959D01*
X261786Y13876D01*
X261771Y13793D01*
X261759Y13708D01*
X261751Y13624D01*
X261747Y13539D01*
X261747Y13453D01*
X261751Y13368D01*
X261759Y13284D01*
X261771Y13199D01*
X261786Y13116D01*
X261805Y13033D01*
X261828Y12951D01*
X261855Y12870D01*
X261885Y12791D01*
X261919Y12713D01*
X261957Y12636D01*
X261997Y12562D01*
X262042Y12489D01*
X262089Y12418D01*
X262140Y12350D01*
X262193Y12284D01*
X262250Y12220D01*
X262310Y12159D01*
X262372Y12101D01*
X262436Y12046D01*
X262504Y11994D01*
X262573Y11945D01*
X262645Y11899D01*
X262719Y11857D01*
X262794Y11817D01*
X262871Y11782D01*
X262950Y11750D01*
X263030Y11721D01*
X263112Y11696D01*
X263194Y11675D01*
X263277Y11658D01*
X263362Y11644D01*
X263446Y11635D01*
X263531Y11629D01*
X263616Y11627D01*
X263616Y11626D02*
X265485Y11626D01*
X263242Y11626D02*
X261746Y8635D01*
X258728Y8635D02*
X254242Y15365D01*
X258728Y15365D02*
X254242Y8635D01*
X250965Y6392D02*
X250965Y13122D01*
X249096Y13122D01*
X249031Y13120D01*
X248966Y13114D01*
X248901Y13105D01*
X248837Y13092D01*
X248774Y13075D01*
X248712Y13054D01*
X248652Y13030D01*
X248592Y13003D01*
X248535Y12972D01*
X248479Y12937D01*
X248426Y12900D01*
X248375Y12860D01*
X248326Y12816D01*
X248280Y12770D01*
X248237Y12721D01*
X248196Y12670D01*
X248159Y12617D01*
X248124Y12561D01*
X248093Y12504D01*
X248066Y12444D01*
X248042Y12384D01*
X248021Y12322D01*
X248004Y12259D01*
X247991Y12195D01*
X247982Y12130D01*
X247976Y12065D01*
X247974Y12000D01*
X247974Y9757D01*
X247976Y9692D01*
X247982Y9627D01*
X247991Y9562D01*
X248004Y9498D01*
X248021Y9435D01*
X248042Y9373D01*
X248066Y9313D01*
X248093Y9253D01*
X248124Y9196D01*
X248159Y9140D01*
X248196Y9087D01*
X248236Y9036D01*
X248280Y8987D01*
X248326Y8941D01*
X248375Y8897D01*
X248426Y8857D01*
X248479Y8820D01*
X248535Y8785D01*
X248592Y8754D01*
X248652Y8727D01*
X248712Y8703D01*
X248774Y8682D01*
X248837Y8665D01*
X248901Y8652D01*
X248966Y8643D01*
X249031Y8637D01*
X249096Y8635D01*
X250965Y8635D01*
X231765Y8635D02*
X231765Y15365D01*
X229896Y15365D02*
X233635Y15365D01*
X227288Y8635D02*
X222802Y15365D01*
X227288Y15365D02*
X222802Y8635D01*
X219581Y8635D02*
X219581Y13122D01*
X217711Y13122D01*
X217646Y13120D01*
X217581Y13114D01*
X217516Y13105D01*
X217452Y13092D01*
X217389Y13075D01*
X217327Y13054D01*
X217267Y13030D01*
X217207Y13003D01*
X217150Y12972D01*
X217094Y12937D01*
X217041Y12900D01*
X216990Y12860D01*
X216941Y12816D01*
X216895Y12770D01*
X216852Y12721D01*
X216811Y12670D01*
X216774Y12617D01*
X216739Y12561D01*
X216708Y12504D01*
X216681Y12444D01*
X216657Y12384D01*
X216636Y12322D01*
X216619Y12259D01*
X216606Y12195D01*
X216597Y12130D01*
X216591Y12065D01*
X216589Y12000D01*
X216590Y12000D02*
X216590Y8635D01*
X207765Y8635D02*
X207765Y15365D01*
X205896Y15365D02*
X209635Y15365D01*
X203289Y8635D02*
X198802Y15365D01*
X203289Y15365D02*
X198802Y8635D01*
X195525Y6392D02*
X195525Y13122D01*
X193656Y13122D01*
X193591Y13120D01*
X193526Y13114D01*
X193461Y13105D01*
X193397Y13092D01*
X193334Y13075D01*
X193272Y13054D01*
X193212Y13030D01*
X193152Y13003D01*
X193095Y12972D01*
X193039Y12937D01*
X192986Y12900D01*
X192935Y12860D01*
X192886Y12816D01*
X192840Y12770D01*
X192797Y12721D01*
X192756Y12670D01*
X192719Y12617D01*
X192684Y12561D01*
X192653Y12504D01*
X192626Y12444D01*
X192602Y12384D01*
X192581Y12322D01*
X192564Y12259D01*
X192551Y12195D01*
X192542Y12130D01*
X192536Y12065D01*
X192534Y12000D01*
X192534Y9757D01*
X192536Y9692D01*
X192542Y9627D01*
X192551Y9562D01*
X192564Y9498D01*
X192581Y9435D01*
X192602Y9373D01*
X192626Y9313D01*
X192653Y9253D01*
X192684Y9196D01*
X192719Y9140D01*
X192756Y9087D01*
X192796Y9036D01*
X192840Y8987D01*
X192886Y8941D01*
X192935Y8897D01*
X192986Y8857D01*
X193039Y8820D01*
X193095Y8785D01*
X193152Y8754D01*
X193212Y8727D01*
X193272Y8703D01*
X193334Y8682D01*
X193397Y8665D01*
X193461Y8652D01*
X193526Y8643D01*
X193591Y8637D01*
X193656Y8635D01*
X195525Y8635D01*
X322507Y138635D02*
X324002Y138635D01*
X324078Y138637D01*
X324153Y138643D01*
X324229Y138652D01*
X324303Y138666D01*
X324377Y138683D01*
X324450Y138704D01*
X324522Y138728D01*
X324592Y138756D01*
X324661Y138788D01*
X324728Y138823D01*
X324793Y138861D01*
X324857Y138903D01*
X324918Y138948D01*
X324976Y138996D01*
X325033Y139047D01*
X325086Y139100D01*
X325137Y139157D01*
X325185Y139215D01*
X325230Y139276D01*
X325272Y139340D01*
X325310Y139405D01*
X325345Y139472D01*
X325377Y139541D01*
X325405Y139611D01*
X325429Y139683D01*
X325450Y139756D01*
X325467Y139830D01*
X325481Y139904D01*
X325490Y139980D01*
X325496Y140055D01*
X325498Y140131D01*
X325498Y143869D01*
X325496Y143945D01*
X325490Y144020D01*
X325481Y144096D01*
X325467Y144170D01*
X325450Y144244D01*
X325429Y144317D01*
X325405Y144389D01*
X325377Y144459D01*
X325345Y144528D01*
X325310Y144595D01*
X325272Y144660D01*
X325230Y144724D01*
X325185Y144785D01*
X325137Y144843D01*
X325086Y144900D01*
X325033Y144953D01*
X324976Y145004D01*
X324918Y145052D01*
X324857Y145097D01*
X324793Y145139D01*
X324728Y145177D01*
X324661Y145212D01*
X324592Y145244D01*
X324522Y145272D01*
X324450Y145296D01*
X324377Y145317D01*
X324303Y145334D01*
X324229Y145348D01*
X324153Y145357D01*
X324078Y145363D01*
X324002Y145365D01*
X322507Y145365D01*
X318003Y138635D02*
X316507Y138635D01*
X318003Y138635D02*
X318079Y138637D01*
X318154Y138643D01*
X318230Y138652D01*
X318304Y138666D01*
X318378Y138683D01*
X318451Y138704D01*
X318523Y138728D01*
X318593Y138756D01*
X318662Y138788D01*
X318729Y138823D01*
X318794Y138861D01*
X318858Y138903D01*
X318919Y138948D01*
X318977Y138996D01*
X319034Y139047D01*
X319087Y139100D01*
X319138Y139157D01*
X319186Y139215D01*
X319231Y139276D01*
X319273Y139340D01*
X319311Y139405D01*
X319346Y139472D01*
X319378Y139541D01*
X319406Y139611D01*
X319430Y139683D01*
X319451Y139756D01*
X319468Y139830D01*
X319482Y139904D01*
X319491Y139980D01*
X319497Y140055D01*
X319499Y140131D01*
X319498Y140131D02*
X319498Y143869D01*
X319496Y143945D01*
X319490Y144020D01*
X319481Y144096D01*
X319467Y144170D01*
X319450Y144244D01*
X319429Y144317D01*
X319405Y144389D01*
X319377Y144459D01*
X319345Y144528D01*
X319310Y144595D01*
X319272Y144660D01*
X319230Y144724D01*
X319185Y144785D01*
X319137Y144843D01*
X319086Y144900D01*
X319033Y144953D01*
X318976Y145004D01*
X318918Y145052D01*
X318857Y145097D01*
X318793Y145139D01*
X318728Y145177D01*
X318661Y145212D01*
X318592Y145244D01*
X318522Y145272D01*
X318450Y145296D01*
X318377Y145317D01*
X318303Y145334D01*
X318229Y145348D01*
X318153Y145357D01*
X318078Y145363D01*
X318002Y145365D01*
X318003Y145365D02*
X316507Y145365D01*
X309438Y143122D02*
X309438Y136392D01*
X309438Y143122D02*
X307568Y143122D01*
X307503Y143120D01*
X307438Y143114D01*
X307373Y143105D01*
X307309Y143092D01*
X307246Y143075D01*
X307184Y143054D01*
X307124Y143030D01*
X307064Y143003D01*
X307007Y142972D01*
X306951Y142937D01*
X306898Y142900D01*
X306847Y142860D01*
X306798Y142816D01*
X306752Y142770D01*
X306709Y142721D01*
X306668Y142670D01*
X306631Y142617D01*
X306596Y142561D01*
X306565Y142504D01*
X306538Y142444D01*
X306514Y142384D01*
X306493Y142322D01*
X306476Y142259D01*
X306463Y142195D01*
X306454Y142130D01*
X306448Y142065D01*
X306446Y142000D01*
X306447Y142000D02*
X306447Y139757D01*
X306446Y139757D02*
X306448Y139692D01*
X306454Y139627D01*
X306463Y139562D01*
X306476Y139498D01*
X306493Y139435D01*
X306514Y139373D01*
X306538Y139313D01*
X306565Y139253D01*
X306596Y139196D01*
X306631Y139140D01*
X306668Y139087D01*
X306708Y139036D01*
X306752Y138987D01*
X306798Y138941D01*
X306847Y138897D01*
X306898Y138857D01*
X306951Y138820D01*
X307007Y138785D01*
X307064Y138754D01*
X307124Y138727D01*
X307184Y138703D01*
X307246Y138682D01*
X307309Y138665D01*
X307373Y138652D01*
X307438Y138643D01*
X307503Y138637D01*
X307568Y138635D01*
X309438Y138635D01*
X302000Y141252D02*
X300317Y141252D01*
X302000Y141253D02*
X302071Y141251D01*
X302142Y141245D01*
X302212Y141236D01*
X302281Y141222D01*
X302350Y141205D01*
X302418Y141184D01*
X302485Y141160D01*
X302550Y141132D01*
X302613Y141101D01*
X302675Y141066D01*
X302735Y141027D01*
X302792Y140986D01*
X302847Y140942D01*
X302900Y140894D01*
X302950Y140844D01*
X302998Y140791D01*
X303042Y140736D01*
X303083Y140679D01*
X303122Y140619D01*
X303157Y140557D01*
X303188Y140494D01*
X303216Y140429D01*
X303240Y140362D01*
X303261Y140294D01*
X303278Y140225D01*
X303292Y140156D01*
X303301Y140086D01*
X303307Y140015D01*
X303309Y139944D01*
X303307Y139873D01*
X303301Y139802D01*
X303292Y139732D01*
X303278Y139663D01*
X303261Y139594D01*
X303240Y139526D01*
X303216Y139459D01*
X303188Y139394D01*
X303157Y139331D01*
X303122Y139269D01*
X303083Y139209D01*
X303042Y139152D01*
X302998Y139097D01*
X302950Y139044D01*
X302900Y138994D01*
X302847Y138946D01*
X302792Y138902D01*
X302735Y138861D01*
X302675Y138822D01*
X302613Y138787D01*
X302550Y138756D01*
X302485Y138728D01*
X302418Y138704D01*
X302350Y138683D01*
X302281Y138666D01*
X302212Y138652D01*
X302142Y138643D01*
X302071Y138637D01*
X302000Y138635D01*
X300317Y138635D01*
X300317Y142000D01*
X300319Y142065D01*
X300325Y142130D01*
X300334Y142195D01*
X300347Y142259D01*
X300364Y142322D01*
X300385Y142384D01*
X300409Y142444D01*
X300436Y142504D01*
X300467Y142561D01*
X300502Y142617D01*
X300539Y142670D01*
X300580Y142721D01*
X300623Y142770D01*
X300669Y142816D01*
X300718Y142860D01*
X300769Y142900D01*
X300822Y142937D01*
X300878Y142972D01*
X300935Y143003D01*
X300995Y143030D01*
X301055Y143054D01*
X301117Y143075D01*
X301180Y143092D01*
X301244Y143105D01*
X301309Y143114D01*
X301374Y143120D01*
X301439Y143122D01*
X302935Y143122D01*
X293837Y145365D02*
X293837Y138635D01*
X295707Y138635D01*
X295772Y138637D01*
X295837Y138643D01*
X295902Y138652D01*
X295966Y138665D01*
X296029Y138682D01*
X296091Y138703D01*
X296151Y138727D01*
X296211Y138754D01*
X296268Y138785D01*
X296324Y138820D01*
X296377Y138857D01*
X296428Y138898D01*
X296477Y138941D01*
X296523Y138987D01*
X296567Y139036D01*
X296607Y139087D01*
X296644Y139140D01*
X296679Y139196D01*
X296710Y139253D01*
X296737Y139313D01*
X296761Y139373D01*
X296782Y139435D01*
X296799Y139498D01*
X296812Y139562D01*
X296821Y139627D01*
X296827Y139692D01*
X296829Y139757D01*
X296828Y139757D02*
X296828Y142000D01*
X296829Y142000D02*
X296827Y142065D01*
X296821Y142130D01*
X296812Y142195D01*
X296799Y142259D01*
X296782Y142322D01*
X296761Y142384D01*
X296737Y142444D01*
X296710Y142504D01*
X296679Y142561D01*
X296644Y142617D01*
X296607Y142670D01*
X296567Y142721D01*
X296523Y142770D01*
X296477Y142816D01*
X296428Y142860D01*
X296377Y142900D01*
X296324Y142937D01*
X296268Y142972D01*
X296211Y143003D01*
X296151Y143030D01*
X296091Y143054D01*
X296029Y143075D01*
X295966Y143092D01*
X295902Y143105D01*
X295837Y143114D01*
X295772Y143120D01*
X295707Y143122D01*
X293837Y143122D01*
X331312Y126635D02*
X332808Y126635D01*
X332873Y126637D01*
X332938Y126643D01*
X333003Y126652D01*
X333067Y126665D01*
X333130Y126682D01*
X333192Y126703D01*
X333252Y126727D01*
X333312Y126754D01*
X333369Y126785D01*
X333425Y126820D01*
X333478Y126857D01*
X333529Y126898D01*
X333578Y126941D01*
X333624Y126987D01*
X333668Y127036D01*
X333708Y127087D01*
X333745Y127140D01*
X333780Y127196D01*
X333811Y127253D01*
X333838Y127313D01*
X333862Y127373D01*
X333883Y127435D01*
X333900Y127498D01*
X333913Y127562D01*
X333922Y127627D01*
X333928Y127692D01*
X333930Y127757D01*
X333929Y127757D02*
X333929Y130000D01*
X333930Y130000D02*
X333928Y130065D01*
X333922Y130130D01*
X333913Y130195D01*
X333900Y130259D01*
X333883Y130322D01*
X333862Y130384D01*
X333838Y130444D01*
X333811Y130504D01*
X333780Y130561D01*
X333745Y130617D01*
X333708Y130670D01*
X333668Y130721D01*
X333624Y130770D01*
X333578Y130816D01*
X333529Y130860D01*
X333478Y130900D01*
X333425Y130937D01*
X333369Y130972D01*
X333312Y131003D01*
X333252Y131030D01*
X333192Y131054D01*
X333130Y131075D01*
X333067Y131092D01*
X333003Y131105D01*
X332938Y131114D01*
X332873Y131120D01*
X332808Y131122D01*
X331312Y131122D01*
X328422Y129626D02*
X328422Y128131D01*
X328422Y129626D02*
X328420Y129702D01*
X328414Y129777D01*
X328405Y129853D01*
X328391Y129927D01*
X328374Y130001D01*
X328353Y130074D01*
X328329Y130146D01*
X328301Y130216D01*
X328269Y130285D01*
X328234Y130352D01*
X328196Y130417D01*
X328154Y130481D01*
X328109Y130542D01*
X328061Y130600D01*
X328010Y130657D01*
X327957Y130710D01*
X327900Y130761D01*
X327842Y130809D01*
X327781Y130854D01*
X327717Y130896D01*
X327652Y130934D01*
X327585Y130969D01*
X327516Y131001D01*
X327446Y131029D01*
X327374Y131053D01*
X327301Y131074D01*
X327227Y131091D01*
X327153Y131105D01*
X327077Y131114D01*
X327002Y131120D01*
X326926Y131122D01*
X326850Y131120D01*
X326775Y131114D01*
X326699Y131105D01*
X326625Y131091D01*
X326551Y131074D01*
X326478Y131053D01*
X326406Y131029D01*
X326336Y131001D01*
X326267Y130969D01*
X326200Y130934D01*
X326135Y130896D01*
X326071Y130854D01*
X326010Y130809D01*
X325952Y130761D01*
X325895Y130710D01*
X325842Y130657D01*
X325791Y130600D01*
X325743Y130542D01*
X325698Y130481D01*
X325656Y130417D01*
X325618Y130352D01*
X325583Y130285D01*
X325551Y130216D01*
X325523Y130146D01*
X325499Y130074D01*
X325478Y130001D01*
X325461Y129927D01*
X325447Y129853D01*
X325438Y129777D01*
X325432Y129702D01*
X325430Y129626D01*
X325431Y129626D02*
X325431Y128131D01*
X325430Y128131D02*
X325432Y128055D01*
X325438Y127980D01*
X325447Y127904D01*
X325461Y127830D01*
X325478Y127756D01*
X325499Y127683D01*
X325523Y127611D01*
X325551Y127541D01*
X325583Y127472D01*
X325618Y127405D01*
X325656Y127340D01*
X325698Y127276D01*
X325743Y127215D01*
X325791Y127157D01*
X325842Y127100D01*
X325895Y127047D01*
X325952Y126996D01*
X326010Y126948D01*
X326071Y126903D01*
X326135Y126861D01*
X326200Y126823D01*
X326267Y126788D01*
X326336Y126756D01*
X326406Y126728D01*
X326478Y126704D01*
X326551Y126683D01*
X326625Y126666D01*
X326699Y126652D01*
X326775Y126643D01*
X326850Y126637D01*
X326926Y126635D01*
X327002Y126637D01*
X327077Y126643D01*
X327153Y126652D01*
X327227Y126666D01*
X327301Y126683D01*
X327374Y126704D01*
X327446Y126728D01*
X327516Y126756D01*
X327585Y126788D01*
X327652Y126823D01*
X327717Y126861D01*
X327781Y126903D01*
X327842Y126948D01*
X327900Y126996D01*
X327957Y127047D01*
X328010Y127100D01*
X328061Y127157D01*
X328109Y127215D01*
X328154Y127276D01*
X328196Y127340D01*
X328234Y127405D01*
X328269Y127472D01*
X328301Y127541D01*
X328329Y127611D01*
X328353Y127683D01*
X328374Y127756D01*
X328391Y127830D01*
X328405Y127904D01*
X328414Y127980D01*
X328420Y128055D01*
X328422Y128131D01*
X321942Y126635D02*
X321942Y131122D01*
X320072Y131122D01*
X320007Y131120D01*
X319942Y131114D01*
X319877Y131105D01*
X319813Y131092D01*
X319750Y131075D01*
X319688Y131054D01*
X319628Y131030D01*
X319568Y131003D01*
X319511Y130972D01*
X319455Y130937D01*
X319402Y130900D01*
X319351Y130860D01*
X319302Y130816D01*
X319256Y130770D01*
X319213Y130721D01*
X319172Y130670D01*
X319135Y130617D01*
X319100Y130561D01*
X319069Y130504D01*
X319042Y130444D01*
X319018Y130384D01*
X318997Y130322D01*
X318980Y130259D01*
X318967Y130195D01*
X318958Y130130D01*
X318952Y130065D01*
X318950Y130000D01*
X318951Y130000D02*
X318951Y126635D01*
X315222Y126635D02*
X315222Y131122D01*
X313352Y131122D01*
X313287Y131120D01*
X313222Y131114D01*
X313157Y131105D01*
X313093Y131092D01*
X313030Y131075D01*
X312968Y131054D01*
X312908Y131030D01*
X312848Y131003D01*
X312791Y130972D01*
X312735Y130937D01*
X312682Y130900D01*
X312631Y130860D01*
X312582Y130816D01*
X312536Y130770D01*
X312493Y130721D01*
X312452Y130670D01*
X312415Y130617D01*
X312380Y130561D01*
X312349Y130504D01*
X312322Y130444D01*
X312298Y130384D01*
X312277Y130322D01*
X312260Y130259D01*
X312247Y130195D01*
X312238Y130130D01*
X312232Y130065D01*
X312230Y130000D01*
X312231Y130000D02*
X312231Y126635D01*
X307620Y126635D02*
X305751Y126635D01*
X307620Y126635D02*
X307685Y126637D01*
X307750Y126643D01*
X307815Y126652D01*
X307879Y126665D01*
X307942Y126682D01*
X308004Y126703D01*
X308064Y126727D01*
X308124Y126754D01*
X308181Y126785D01*
X308237Y126820D01*
X308290Y126857D01*
X308341Y126898D01*
X308390Y126941D01*
X308436Y126987D01*
X308480Y127036D01*
X308520Y127087D01*
X308557Y127140D01*
X308592Y127196D01*
X308623Y127253D01*
X308650Y127313D01*
X308674Y127373D01*
X308695Y127435D01*
X308712Y127498D01*
X308725Y127562D01*
X308734Y127627D01*
X308740Y127692D01*
X308742Y127757D01*
X308742Y129626D01*
X308740Y129702D01*
X308734Y129777D01*
X308725Y129853D01*
X308711Y129927D01*
X308694Y130001D01*
X308673Y130074D01*
X308649Y130146D01*
X308621Y130216D01*
X308589Y130285D01*
X308554Y130352D01*
X308516Y130417D01*
X308474Y130481D01*
X308429Y130542D01*
X308381Y130600D01*
X308330Y130657D01*
X308277Y130710D01*
X308220Y130761D01*
X308162Y130809D01*
X308101Y130854D01*
X308037Y130896D01*
X307972Y130934D01*
X307905Y130969D01*
X307836Y131001D01*
X307766Y131029D01*
X307694Y131053D01*
X307621Y131074D01*
X307547Y131091D01*
X307473Y131105D01*
X307397Y131114D01*
X307322Y131120D01*
X307246Y131122D01*
X307170Y131120D01*
X307095Y131114D01*
X307019Y131105D01*
X306945Y131091D01*
X306871Y131074D01*
X306798Y131053D01*
X306726Y131029D01*
X306656Y131001D01*
X306587Y130969D01*
X306520Y130934D01*
X306455Y130896D01*
X306391Y130854D01*
X306330Y130809D01*
X306272Y130761D01*
X306215Y130710D01*
X306162Y130657D01*
X306111Y130600D01*
X306063Y130542D01*
X306018Y130481D01*
X305976Y130417D01*
X305938Y130352D01*
X305903Y130285D01*
X305871Y130216D01*
X305843Y130146D01*
X305819Y130074D01*
X305798Y130001D01*
X305781Y129927D01*
X305767Y129853D01*
X305758Y129777D01*
X305752Y129702D01*
X305750Y129626D01*
X305751Y129626D02*
X305751Y128878D01*
X308742Y128878D01*
X301368Y126635D02*
X299872Y126635D01*
X301368Y126635D02*
X301433Y126637D01*
X301498Y126643D01*
X301563Y126652D01*
X301627Y126665D01*
X301690Y126682D01*
X301752Y126703D01*
X301812Y126727D01*
X301872Y126754D01*
X301929Y126785D01*
X301985Y126820D01*
X302038Y126857D01*
X302089Y126898D01*
X302138Y126941D01*
X302184Y126987D01*
X302228Y127036D01*
X302268Y127087D01*
X302305Y127140D01*
X302340Y127196D01*
X302371Y127253D01*
X302398Y127313D01*
X302422Y127373D01*
X302443Y127435D01*
X302460Y127498D01*
X302473Y127562D01*
X302482Y127627D01*
X302488Y127692D01*
X302490Y127757D01*
X302489Y127757D02*
X302489Y130000D01*
X302490Y130000D02*
X302488Y130065D01*
X302482Y130130D01*
X302473Y130195D01*
X302460Y130259D01*
X302443Y130322D01*
X302422Y130384D01*
X302398Y130444D01*
X302371Y130504D01*
X302340Y130561D01*
X302305Y130617D01*
X302268Y130670D01*
X302228Y130721D01*
X302184Y130770D01*
X302138Y130816D01*
X302089Y130860D01*
X302038Y130900D01*
X301985Y130937D01*
X301929Y130972D01*
X301872Y131003D01*
X301812Y131030D01*
X301752Y131054D01*
X301690Y131075D01*
X301627Y131092D01*
X301563Y131105D01*
X301498Y131114D01*
X301433Y131120D01*
X301368Y131122D01*
X299872Y131122D01*
X297655Y131122D02*
X295411Y131122D01*
X296907Y133365D02*
X296907Y127757D01*
X296905Y127692D01*
X296899Y127627D01*
X296890Y127562D01*
X296877Y127498D01*
X296860Y127435D01*
X296839Y127373D01*
X296815Y127313D01*
X296788Y127253D01*
X296757Y127196D01*
X296722Y127140D01*
X296685Y127087D01*
X296644Y127036D01*
X296601Y126987D01*
X296555Y126941D01*
X296506Y126897D01*
X296455Y126857D01*
X296402Y126820D01*
X296346Y126785D01*
X296289Y126754D01*
X296229Y126727D01*
X296169Y126703D01*
X296107Y126682D01*
X296044Y126665D01*
X295980Y126652D01*
X295915Y126643D01*
X295850Y126637D01*
X295785Y126635D01*
X295411Y126635D01*
X292606Y126635D02*
X292606Y131122D01*
X292793Y132991D02*
X292793Y133365D01*
X292419Y133365D01*
X292419Y132991D01*
X292793Y132991D01*
X289542Y129626D02*
X289542Y128131D01*
X289542Y129626D02*
X289540Y129702D01*
X289534Y129777D01*
X289525Y129853D01*
X289511Y129927D01*
X289494Y130001D01*
X289473Y130074D01*
X289449Y130146D01*
X289421Y130216D01*
X289389Y130285D01*
X289354Y130352D01*
X289316Y130417D01*
X289274Y130481D01*
X289229Y130542D01*
X289181Y130600D01*
X289130Y130657D01*
X289077Y130710D01*
X289020Y130761D01*
X288962Y130809D01*
X288901Y130854D01*
X288837Y130896D01*
X288772Y130934D01*
X288705Y130969D01*
X288636Y131001D01*
X288566Y131029D01*
X288494Y131053D01*
X288421Y131074D01*
X288347Y131091D01*
X288273Y131105D01*
X288197Y131114D01*
X288122Y131120D01*
X288046Y131122D01*
X287970Y131120D01*
X287895Y131114D01*
X287819Y131105D01*
X287745Y131091D01*
X287671Y131074D01*
X287598Y131053D01*
X287526Y131029D01*
X287456Y131001D01*
X287387Y130969D01*
X287320Y130934D01*
X287255Y130896D01*
X287191Y130854D01*
X287130Y130809D01*
X287072Y130761D01*
X287015Y130710D01*
X286962Y130657D01*
X286911Y130600D01*
X286863Y130542D01*
X286818Y130481D01*
X286776Y130417D01*
X286738Y130352D01*
X286703Y130285D01*
X286671Y130216D01*
X286643Y130146D01*
X286619Y130074D01*
X286598Y130001D01*
X286581Y129927D01*
X286567Y129853D01*
X286558Y129777D01*
X286552Y129702D01*
X286550Y129626D01*
X286551Y129626D02*
X286551Y128131D01*
X286550Y128131D02*
X286552Y128055D01*
X286558Y127980D01*
X286567Y127904D01*
X286581Y127830D01*
X286598Y127756D01*
X286619Y127683D01*
X286643Y127611D01*
X286671Y127541D01*
X286703Y127472D01*
X286738Y127405D01*
X286776Y127340D01*
X286818Y127276D01*
X286863Y127215D01*
X286911Y127157D01*
X286962Y127100D01*
X287015Y127047D01*
X287072Y126996D01*
X287130Y126948D01*
X287191Y126903D01*
X287255Y126861D01*
X287320Y126823D01*
X287387Y126788D01*
X287456Y126756D01*
X287526Y126728D01*
X287598Y126704D01*
X287671Y126683D01*
X287745Y126666D01*
X287819Y126652D01*
X287895Y126643D01*
X287970Y126637D01*
X288046Y126635D01*
X288122Y126637D01*
X288197Y126643D01*
X288273Y126652D01*
X288347Y126666D01*
X288421Y126683D01*
X288494Y126704D01*
X288566Y126728D01*
X288636Y126756D01*
X288705Y126788D01*
X288772Y126823D01*
X288837Y126861D01*
X288901Y126903D01*
X288962Y126948D01*
X289020Y126996D01*
X289077Y127047D01*
X289130Y127100D01*
X289181Y127157D01*
X289229Y127215D01*
X289274Y127276D01*
X289316Y127340D01*
X289354Y127405D01*
X289389Y127472D01*
X289421Y127541D01*
X289449Y127611D01*
X289473Y127683D01*
X289494Y127756D01*
X289511Y127830D01*
X289525Y127904D01*
X289534Y127980D01*
X289540Y128055D01*
X289542Y128131D01*
X283062Y126635D02*
X283062Y131122D01*
X281192Y131122D01*
X281127Y131120D01*
X281062Y131114D01*
X280997Y131105D01*
X280933Y131092D01*
X280870Y131075D01*
X280808Y131054D01*
X280748Y131030D01*
X280688Y131003D01*
X280631Y130972D01*
X280575Y130937D01*
X280522Y130900D01*
X280471Y130860D01*
X280422Y130816D01*
X280376Y130770D01*
X280333Y130721D01*
X280292Y130670D01*
X280255Y130617D01*
X280220Y130561D01*
X280189Y130504D01*
X280162Y130444D01*
X280138Y130384D01*
X280117Y130322D01*
X280100Y130259D01*
X280087Y130195D01*
X280078Y130130D01*
X280072Y130065D01*
X280070Y130000D01*
X280071Y130000D02*
X280071Y126635D01*
X153403Y69365D02*
X153403Y62635D01*
X153403Y69365D02*
X151533Y69365D01*
X151448Y69363D01*
X151363Y69357D01*
X151279Y69348D01*
X151194Y69334D01*
X151111Y69317D01*
X151029Y69296D01*
X150947Y69271D01*
X150867Y69242D01*
X150788Y69210D01*
X150711Y69175D01*
X150636Y69135D01*
X150562Y69093D01*
X150490Y69047D01*
X150421Y68998D01*
X150353Y68946D01*
X150289Y68891D01*
X150227Y68833D01*
X150167Y68772D01*
X150110Y68708D01*
X150057Y68642D01*
X150006Y68574D01*
X149959Y68503D01*
X149914Y68431D01*
X149874Y68356D01*
X149836Y68279D01*
X149802Y68201D01*
X149772Y68122D01*
X149745Y68041D01*
X149722Y67959D01*
X149703Y67876D01*
X149688Y67793D01*
X149676Y67708D01*
X149668Y67624D01*
X149664Y67539D01*
X149664Y67453D01*
X149668Y67368D01*
X149676Y67284D01*
X149688Y67199D01*
X149703Y67116D01*
X149722Y67033D01*
X149745Y66951D01*
X149772Y66870D01*
X149802Y66791D01*
X149836Y66713D01*
X149874Y66636D01*
X149914Y66562D01*
X149959Y66489D01*
X150006Y66418D01*
X150057Y66350D01*
X150110Y66284D01*
X150167Y66220D01*
X150227Y66159D01*
X150289Y66101D01*
X150353Y66046D01*
X150421Y65994D01*
X150490Y65945D01*
X150562Y65899D01*
X150636Y65857D01*
X150711Y65817D01*
X150788Y65782D01*
X150867Y65750D01*
X150947Y65721D01*
X151029Y65696D01*
X151111Y65675D01*
X151194Y65658D01*
X151279Y65644D01*
X151363Y65635D01*
X151448Y65629D01*
X151533Y65627D01*
X151533Y65626D02*
X153403Y65626D01*
X146976Y62635D02*
X144733Y69365D01*
X142489Y62635D01*
X143050Y64318D02*
X146415Y64318D01*
X139162Y62635D02*
X139162Y69365D01*
X137293Y69365D01*
X137209Y69363D01*
X137125Y69357D01*
X137042Y69348D01*
X136959Y69335D01*
X136877Y69318D01*
X136796Y69298D01*
X136715Y69274D01*
X136636Y69246D01*
X136558Y69215D01*
X136482Y69180D01*
X136407Y69142D01*
X136334Y69100D01*
X136263Y69056D01*
X136194Y69008D01*
X136128Y68957D01*
X136063Y68903D01*
X136001Y68847D01*
X135942Y68788D01*
X135886Y68726D01*
X135832Y68661D01*
X135781Y68595D01*
X135733Y68526D01*
X135689Y68455D01*
X135647Y68382D01*
X135609Y68307D01*
X135574Y68231D01*
X135543Y68153D01*
X135515Y68074D01*
X135491Y67993D01*
X135471Y67912D01*
X135454Y67830D01*
X135441Y67747D01*
X135432Y67664D01*
X135426Y67580D01*
X135424Y67496D01*
X135423Y67496D02*
X135423Y64504D01*
X135424Y64504D02*
X135426Y64420D01*
X135432Y64336D01*
X135441Y64253D01*
X135454Y64170D01*
X135471Y64088D01*
X135491Y64007D01*
X135515Y63926D01*
X135543Y63847D01*
X135574Y63769D01*
X135609Y63693D01*
X135647Y63618D01*
X135689Y63545D01*
X135733Y63474D01*
X135781Y63405D01*
X135832Y63339D01*
X135886Y63274D01*
X135942Y63212D01*
X136001Y63153D01*
X136063Y63097D01*
X136128Y63043D01*
X136194Y62992D01*
X136263Y62944D01*
X136334Y62900D01*
X136407Y62858D01*
X136482Y62820D01*
X136558Y62785D01*
X136636Y62754D01*
X136715Y62726D01*
X136796Y62702D01*
X136877Y62682D01*
X136959Y62665D01*
X137042Y62652D01*
X137125Y62643D01*
X137209Y62637D01*
X137293Y62635D01*
X139162Y62635D01*
X127776Y65252D02*
X123289Y65252D01*
X115642Y64504D02*
X115642Y69365D01*
X115642Y64504D02*
X115640Y64419D01*
X115634Y64334D01*
X115625Y64250D01*
X115611Y64165D01*
X115594Y64082D01*
X115573Y64000D01*
X115548Y63918D01*
X115519Y63838D01*
X115487Y63759D01*
X115452Y63682D01*
X115412Y63607D01*
X115370Y63533D01*
X115324Y63461D01*
X115275Y63392D01*
X115223Y63324D01*
X115168Y63260D01*
X115110Y63198D01*
X115049Y63138D01*
X114985Y63081D01*
X114919Y63028D01*
X114851Y62977D01*
X114780Y62930D01*
X114707Y62885D01*
X114633Y62845D01*
X114556Y62807D01*
X114478Y62773D01*
X114399Y62743D01*
X114318Y62716D01*
X114236Y62693D01*
X114153Y62674D01*
X114070Y62659D01*
X113985Y62647D01*
X113901Y62639D01*
X113816Y62635D01*
X113730Y62635D01*
X113645Y62639D01*
X113561Y62647D01*
X113476Y62659D01*
X113393Y62674D01*
X113310Y62693D01*
X113228Y62716D01*
X113147Y62743D01*
X113068Y62773D01*
X112990Y62807D01*
X112913Y62845D01*
X112839Y62885D01*
X112766Y62930D01*
X112695Y62977D01*
X112627Y63028D01*
X112561Y63081D01*
X112497Y63138D01*
X112436Y63198D01*
X112378Y63260D01*
X112323Y63324D01*
X112271Y63392D01*
X112222Y63461D01*
X112176Y63533D01*
X112134Y63607D01*
X112094Y63682D01*
X112059Y63759D01*
X112027Y63838D01*
X111998Y63918D01*
X111973Y64000D01*
X111952Y64082D01*
X111935Y64165D01*
X111921Y64250D01*
X111912Y64334D01*
X111906Y64419D01*
X111904Y64504D01*
X111903Y64504D02*
X111903Y69365D01*
X106199Y62635D02*
X106123Y62637D01*
X106048Y62643D01*
X105972Y62652D01*
X105898Y62666D01*
X105824Y62683D01*
X105751Y62704D01*
X105679Y62728D01*
X105609Y62756D01*
X105540Y62788D01*
X105473Y62823D01*
X105408Y62861D01*
X105344Y62903D01*
X105283Y62948D01*
X105225Y62996D01*
X105168Y63047D01*
X105115Y63100D01*
X105064Y63157D01*
X105016Y63215D01*
X104971Y63276D01*
X104929Y63340D01*
X104891Y63405D01*
X104856Y63472D01*
X104824Y63541D01*
X104796Y63611D01*
X104772Y63683D01*
X104751Y63756D01*
X104734Y63830D01*
X104720Y63904D01*
X104711Y63980D01*
X104705Y64055D01*
X104703Y64131D01*
X106199Y62635D02*
X106307Y62637D01*
X106416Y62642D01*
X106524Y62652D01*
X106631Y62665D01*
X106739Y62681D01*
X106845Y62702D01*
X106951Y62726D01*
X107056Y62753D01*
X107160Y62785D01*
X107262Y62819D01*
X107364Y62858D01*
X107464Y62899D01*
X107562Y62944D01*
X107659Y62993D01*
X107755Y63045D01*
X107848Y63100D01*
X107940Y63158D01*
X108029Y63219D01*
X108116Y63284D01*
X108202Y63351D01*
X108284Y63421D01*
X108364Y63494D01*
X108442Y63570D01*
X108256Y67869D02*
X108254Y67945D01*
X108248Y68020D01*
X108239Y68096D01*
X108225Y68170D01*
X108208Y68244D01*
X108187Y68317D01*
X108163Y68389D01*
X108135Y68459D01*
X108103Y68528D01*
X108068Y68595D01*
X108030Y68660D01*
X107988Y68724D01*
X107943Y68785D01*
X107895Y68843D01*
X107844Y68900D01*
X107791Y68953D01*
X107734Y69004D01*
X107676Y69052D01*
X107615Y69097D01*
X107551Y69139D01*
X107486Y69177D01*
X107419Y69212D01*
X107350Y69244D01*
X107280Y69272D01*
X107208Y69296D01*
X107135Y69317D01*
X107061Y69334D01*
X106987Y69348D01*
X106911Y69357D01*
X106836Y69363D01*
X106760Y69365D01*
X106660Y69363D01*
X106560Y69358D01*
X106460Y69349D01*
X106360Y69336D01*
X106261Y69320D01*
X106163Y69301D01*
X106066Y69278D01*
X105969Y69251D01*
X105873Y69221D01*
X105779Y69188D01*
X105686Y69151D01*
X105594Y69111D01*
X105503Y69068D01*
X105414Y69021D01*
X105327Y68971D01*
X105242Y68919D01*
X105159Y68863D01*
X105078Y68804D01*
X107507Y66560D02*
X107571Y66600D01*
X107633Y66643D01*
X107692Y66689D01*
X107749Y66737D01*
X107804Y66789D01*
X107856Y66843D01*
X107905Y66900D01*
X107952Y66959D01*
X107995Y67020D01*
X108036Y67083D01*
X108073Y67148D01*
X108107Y67215D01*
X108138Y67284D01*
X108165Y67354D01*
X108189Y67425D01*
X108209Y67497D01*
X108225Y67571D01*
X108238Y67645D01*
X108248Y67719D01*
X108253Y67794D01*
X108255Y67869D01*
X105451Y65440D02*
X105387Y65400D01*
X105325Y65357D01*
X105266Y65311D01*
X105209Y65263D01*
X105154Y65211D01*
X105102Y65157D01*
X105053Y65100D01*
X105006Y65041D01*
X104963Y64980D01*
X104922Y64917D01*
X104885Y64852D01*
X104851Y64785D01*
X104820Y64716D01*
X104793Y64646D01*
X104769Y64575D01*
X104749Y64503D01*
X104733Y64429D01*
X104720Y64355D01*
X104710Y64281D01*
X104705Y64206D01*
X104703Y64131D01*
X105451Y65439D02*
X107507Y66561D01*
X101083Y66374D02*
X99214Y66374D01*
X99214Y66373D02*
X99129Y66371D01*
X99044Y66365D01*
X98960Y66356D01*
X98875Y66342D01*
X98792Y66325D01*
X98710Y66304D01*
X98628Y66279D01*
X98548Y66250D01*
X98469Y66218D01*
X98392Y66183D01*
X98317Y66143D01*
X98243Y66101D01*
X98171Y66055D01*
X98102Y66006D01*
X98034Y65954D01*
X97970Y65899D01*
X97908Y65841D01*
X97848Y65780D01*
X97791Y65716D01*
X97738Y65650D01*
X97687Y65582D01*
X97640Y65511D01*
X97595Y65439D01*
X97555Y65364D01*
X97517Y65287D01*
X97483Y65209D01*
X97453Y65130D01*
X97426Y65049D01*
X97403Y64967D01*
X97384Y64884D01*
X97369Y64801D01*
X97357Y64716D01*
X97349Y64632D01*
X97345Y64547D01*
X97345Y64461D01*
X97349Y64376D01*
X97357Y64292D01*
X97369Y64207D01*
X97384Y64124D01*
X97403Y64041D01*
X97426Y63959D01*
X97453Y63878D01*
X97483Y63799D01*
X97517Y63721D01*
X97555Y63644D01*
X97595Y63570D01*
X97640Y63497D01*
X97687Y63426D01*
X97738Y63358D01*
X97791Y63292D01*
X97848Y63228D01*
X97908Y63167D01*
X97970Y63109D01*
X98034Y63054D01*
X98102Y63002D01*
X98171Y62953D01*
X98243Y62907D01*
X98317Y62865D01*
X98392Y62825D01*
X98469Y62790D01*
X98548Y62758D01*
X98628Y62729D01*
X98710Y62704D01*
X98792Y62683D01*
X98875Y62666D01*
X98960Y62652D01*
X99044Y62643D01*
X99129Y62637D01*
X99214Y62635D01*
X101083Y62635D01*
X101083Y69365D01*
X99214Y69365D01*
X99138Y69363D01*
X99063Y69357D01*
X98987Y69348D01*
X98913Y69334D01*
X98839Y69317D01*
X98766Y69296D01*
X98694Y69272D01*
X98624Y69244D01*
X98555Y69212D01*
X98488Y69177D01*
X98423Y69139D01*
X98359Y69097D01*
X98298Y69052D01*
X98240Y69004D01*
X98183Y68953D01*
X98130Y68900D01*
X98079Y68843D01*
X98031Y68785D01*
X97986Y68724D01*
X97944Y68660D01*
X97906Y68595D01*
X97871Y68528D01*
X97839Y68459D01*
X97811Y68389D01*
X97787Y68317D01*
X97766Y68244D01*
X97749Y68170D01*
X97735Y68096D01*
X97726Y68020D01*
X97720Y67945D01*
X97718Y67869D01*
X97720Y67793D01*
X97726Y67718D01*
X97735Y67642D01*
X97749Y67568D01*
X97766Y67494D01*
X97787Y67421D01*
X97811Y67349D01*
X97839Y67279D01*
X97871Y67210D01*
X97906Y67143D01*
X97944Y67078D01*
X97986Y67014D01*
X98031Y66953D01*
X98079Y66895D01*
X98130Y66838D01*
X98183Y66785D01*
X98240Y66734D01*
X98298Y66686D01*
X98359Y66641D01*
X98423Y66599D01*
X98488Y66561D01*
X98555Y66526D01*
X98624Y66494D01*
X98694Y66466D01*
X98766Y66442D01*
X98839Y66421D01*
X98913Y66404D01*
X98987Y66390D01*
X99063Y66381D01*
X99138Y66375D01*
X99214Y66373D01*
X134623Y52131D02*
X134625Y52055D01*
X134631Y51980D01*
X134640Y51904D01*
X134654Y51830D01*
X134671Y51756D01*
X134692Y51683D01*
X134716Y51611D01*
X134744Y51541D01*
X134776Y51472D01*
X134811Y51405D01*
X134849Y51340D01*
X134891Y51276D01*
X134936Y51215D01*
X134984Y51157D01*
X135035Y51100D01*
X135088Y51047D01*
X135145Y50996D01*
X135203Y50948D01*
X135264Y50903D01*
X135328Y50861D01*
X135393Y50823D01*
X135460Y50788D01*
X135529Y50756D01*
X135599Y50728D01*
X135671Y50704D01*
X135744Y50683D01*
X135818Y50666D01*
X135892Y50652D01*
X135968Y50643D01*
X136043Y50637D01*
X136119Y50635D01*
X136227Y50637D01*
X136336Y50642D01*
X136444Y50652D01*
X136551Y50665D01*
X136659Y50681D01*
X136765Y50702D01*
X136871Y50726D01*
X136976Y50753D01*
X137080Y50785D01*
X137182Y50819D01*
X137284Y50858D01*
X137384Y50899D01*
X137482Y50944D01*
X137579Y50993D01*
X137675Y51045D01*
X137768Y51100D01*
X137860Y51158D01*
X137949Y51219D01*
X138036Y51284D01*
X138122Y51351D01*
X138204Y51421D01*
X138284Y51494D01*
X138362Y51570D01*
X138176Y55869D02*
X138174Y55945D01*
X138168Y56020D01*
X138159Y56096D01*
X138145Y56170D01*
X138128Y56244D01*
X138107Y56317D01*
X138083Y56389D01*
X138055Y56459D01*
X138023Y56528D01*
X137988Y56595D01*
X137950Y56660D01*
X137908Y56724D01*
X137863Y56785D01*
X137815Y56843D01*
X137764Y56900D01*
X137711Y56953D01*
X137654Y57004D01*
X137596Y57052D01*
X137535Y57097D01*
X137471Y57139D01*
X137406Y57177D01*
X137339Y57212D01*
X137270Y57244D01*
X137200Y57272D01*
X137128Y57296D01*
X137055Y57317D01*
X136981Y57334D01*
X136907Y57348D01*
X136831Y57357D01*
X136756Y57363D01*
X136680Y57365D01*
X136580Y57363D01*
X136480Y57358D01*
X136380Y57349D01*
X136280Y57336D01*
X136181Y57320D01*
X136083Y57301D01*
X135986Y57278D01*
X135889Y57251D01*
X135793Y57221D01*
X135699Y57188D01*
X135606Y57151D01*
X135514Y57111D01*
X135423Y57068D01*
X135334Y57021D01*
X135247Y56971D01*
X135162Y56919D01*
X135079Y56863D01*
X134998Y56804D01*
X137428Y54560D02*
X137492Y54600D01*
X137554Y54643D01*
X137613Y54689D01*
X137670Y54737D01*
X137725Y54789D01*
X137777Y54843D01*
X137826Y54900D01*
X137873Y54959D01*
X137916Y55020D01*
X137957Y55083D01*
X137994Y55148D01*
X138028Y55215D01*
X138059Y55284D01*
X138086Y55354D01*
X138110Y55425D01*
X138130Y55497D01*
X138146Y55571D01*
X138159Y55645D01*
X138169Y55719D01*
X138174Y55794D01*
X138176Y55869D01*
X135372Y53440D02*
X135308Y53400D01*
X135246Y53357D01*
X135187Y53311D01*
X135130Y53263D01*
X135075Y53211D01*
X135023Y53157D01*
X134974Y53100D01*
X134927Y53041D01*
X134884Y52980D01*
X134843Y52917D01*
X134806Y52852D01*
X134772Y52785D01*
X134741Y52716D01*
X134714Y52646D01*
X134690Y52575D01*
X134670Y52503D01*
X134654Y52429D01*
X134641Y52355D01*
X134631Y52281D01*
X134626Y52206D01*
X134624Y52131D01*
X135371Y53439D02*
X137428Y54561D01*
X131536Y55122D02*
X130415Y50635D01*
X129293Y53626D01*
X128171Y50635D01*
X127050Y55122D01*
X124013Y55122D02*
X124013Y50635D01*
X124200Y56991D02*
X124200Y57365D01*
X123826Y57365D01*
X123826Y56991D01*
X124200Y56991D01*
X121622Y55122D02*
X119378Y55122D01*
X120874Y57365D02*
X120874Y51757D01*
X120872Y51692D01*
X120866Y51627D01*
X120857Y51562D01*
X120844Y51498D01*
X120827Y51435D01*
X120806Y51373D01*
X120782Y51313D01*
X120755Y51253D01*
X120724Y51196D01*
X120689Y51140D01*
X120652Y51087D01*
X120611Y51036D01*
X120568Y50987D01*
X120522Y50941D01*
X120473Y50897D01*
X120422Y50857D01*
X120369Y50820D01*
X120313Y50785D01*
X120256Y50754D01*
X120196Y50727D01*
X120136Y50703D01*
X120074Y50682D01*
X120011Y50665D01*
X119947Y50652D01*
X119882Y50643D01*
X119817Y50637D01*
X119752Y50635D01*
X119378Y50635D01*
X115255Y50635D02*
X113759Y50635D01*
X115255Y50635D02*
X115320Y50637D01*
X115385Y50643D01*
X115450Y50652D01*
X115514Y50665D01*
X115577Y50682D01*
X115639Y50703D01*
X115699Y50727D01*
X115759Y50754D01*
X115816Y50785D01*
X115872Y50820D01*
X115925Y50857D01*
X115976Y50898D01*
X116025Y50941D01*
X116071Y50987D01*
X116115Y51036D01*
X116155Y51087D01*
X116192Y51140D01*
X116227Y51196D01*
X116258Y51253D01*
X116285Y51313D01*
X116309Y51373D01*
X116330Y51435D01*
X116347Y51498D01*
X116360Y51562D01*
X116369Y51627D01*
X116375Y51692D01*
X116377Y51757D01*
X116376Y51757D02*
X116376Y54000D01*
X116377Y54000D02*
X116375Y54065D01*
X116369Y54130D01*
X116360Y54195D01*
X116347Y54259D01*
X116330Y54322D01*
X116309Y54384D01*
X116285Y54444D01*
X116258Y54504D01*
X116227Y54561D01*
X116192Y54617D01*
X116155Y54670D01*
X116115Y54721D01*
X116071Y54770D01*
X116025Y54816D01*
X115976Y54860D01*
X115925Y54900D01*
X115872Y54937D01*
X115816Y54972D01*
X115759Y55003D01*
X115699Y55030D01*
X115639Y55054D01*
X115577Y55075D01*
X115514Y55092D01*
X115450Y55105D01*
X115385Y55114D01*
X115320Y55120D01*
X115255Y55122D01*
X113759Y55122D01*
X110629Y57365D02*
X110629Y50635D01*
X110629Y55122D02*
X108759Y55122D01*
X108694Y55120D01*
X108629Y55114D01*
X108564Y55105D01*
X108500Y55092D01*
X108437Y55075D01*
X108375Y55054D01*
X108315Y55030D01*
X108255Y55003D01*
X108198Y54972D01*
X108142Y54937D01*
X108089Y54900D01*
X108038Y54860D01*
X107989Y54816D01*
X107943Y54770D01*
X107900Y54721D01*
X107859Y54670D01*
X107822Y54617D01*
X107787Y54561D01*
X107756Y54504D01*
X107729Y54444D01*
X107705Y54384D01*
X107684Y54322D01*
X107667Y54259D01*
X107654Y54195D01*
X107645Y54130D01*
X107639Y54065D01*
X107637Y54000D01*
X107638Y54000D02*
X107638Y50635D01*
D11*
X477782Y120175D02*
X477782Y129357D01*
X477782Y120175D02*
X477780Y120057D01*
X477774Y119939D01*
X477764Y119821D01*
X477750Y119704D01*
X477733Y119588D01*
X477711Y119471D01*
X477686Y119356D01*
X477657Y119242D01*
X477623Y119129D01*
X477587Y119016D01*
X477546Y118906D01*
X477502Y118796D01*
X477454Y118688D01*
X477402Y118582D01*
X477347Y118478D01*
X477289Y118375D01*
X477227Y118274D01*
X477162Y118176D01*
X477094Y118080D01*
X477022Y117986D01*
X476947Y117895D01*
X476870Y117806D01*
X476789Y117720D01*
X476705Y117636D01*
X476619Y117555D01*
X476530Y117478D01*
X476439Y117403D01*
X476345Y117331D01*
X476249Y117263D01*
X476151Y117198D01*
X476050Y117136D01*
X475947Y117078D01*
X475843Y117023D01*
X475737Y116971D01*
X475629Y116923D01*
X475519Y116879D01*
X475409Y116838D01*
X475296Y116802D01*
X475183Y116768D01*
X475069Y116739D01*
X474954Y116714D01*
X474837Y116692D01*
X474721Y116675D01*
X474604Y116661D01*
X474486Y116651D01*
X474368Y116645D01*
X474250Y116643D01*
X474132Y116645D01*
X474014Y116651D01*
X473896Y116661D01*
X473779Y116675D01*
X473663Y116692D01*
X473546Y116714D01*
X473431Y116739D01*
X473317Y116768D01*
X473204Y116802D01*
X473091Y116838D01*
X472981Y116879D01*
X472871Y116923D01*
X472763Y116971D01*
X472657Y117023D01*
X472553Y117078D01*
X472450Y117136D01*
X472349Y117198D01*
X472251Y117263D01*
X472155Y117331D01*
X472061Y117403D01*
X471970Y117478D01*
X471881Y117555D01*
X471795Y117636D01*
X471711Y117720D01*
X471630Y117806D01*
X471553Y117895D01*
X471478Y117986D01*
X471406Y118080D01*
X471338Y118176D01*
X471273Y118274D01*
X471211Y118375D01*
X471153Y118478D01*
X471098Y118582D01*
X471046Y118688D01*
X470998Y118796D01*
X470954Y118906D01*
X470913Y119016D01*
X470877Y119129D01*
X470843Y119242D01*
X470814Y119356D01*
X470789Y119471D01*
X470767Y119588D01*
X470750Y119704D01*
X470736Y119821D01*
X470726Y119939D01*
X470720Y120057D01*
X470718Y120175D01*
X470718Y129357D01*
X460044Y116643D02*
X459938Y116645D01*
X459833Y116651D01*
X459728Y116661D01*
X459623Y116675D01*
X459519Y116692D01*
X459415Y116714D01*
X459313Y116739D01*
X459211Y116769D01*
X459111Y116802D01*
X459012Y116838D01*
X458914Y116879D01*
X458818Y116923D01*
X458724Y116970D01*
X458632Y117021D01*
X458541Y117076D01*
X458453Y117134D01*
X458366Y117195D01*
X458283Y117259D01*
X458201Y117327D01*
X458123Y117397D01*
X458046Y117470D01*
X457973Y117547D01*
X457903Y117625D01*
X457835Y117707D01*
X457771Y117790D01*
X457710Y117877D01*
X457652Y117965D01*
X457597Y118056D01*
X457546Y118148D01*
X457499Y118242D01*
X457455Y118338D01*
X457414Y118436D01*
X457378Y118535D01*
X457345Y118635D01*
X457315Y118737D01*
X457290Y118839D01*
X457268Y118943D01*
X457251Y119047D01*
X457237Y119152D01*
X457227Y119257D01*
X457221Y119362D01*
X457219Y119468D01*
X460044Y116643D02*
X460196Y116645D01*
X460348Y116651D01*
X460500Y116660D01*
X460651Y116674D01*
X460802Y116691D01*
X460953Y116713D01*
X461103Y116738D01*
X461252Y116766D01*
X461400Y116799D01*
X461548Y116836D01*
X461695Y116876D01*
X461840Y116920D01*
X461984Y116967D01*
X462128Y117018D01*
X462269Y117073D01*
X462410Y117132D01*
X462549Y117194D01*
X462686Y117259D01*
X462821Y117328D01*
X462955Y117401D01*
X463087Y117477D01*
X463216Y117556D01*
X463344Y117638D01*
X463470Y117724D01*
X463593Y117813D01*
X463714Y117905D01*
X463833Y118000D01*
X463949Y118098D01*
X464063Y118199D01*
X464174Y118302D01*
X464282Y118409D01*
X463928Y126532D02*
X463926Y126638D01*
X463920Y126743D01*
X463910Y126848D01*
X463896Y126953D01*
X463879Y127057D01*
X463857Y127161D01*
X463832Y127263D01*
X463802Y127365D01*
X463769Y127465D01*
X463733Y127564D01*
X463692Y127662D01*
X463648Y127758D01*
X463601Y127852D01*
X463550Y127945D01*
X463495Y128035D01*
X463437Y128123D01*
X463376Y128210D01*
X463312Y128293D01*
X463244Y128375D01*
X463174Y128453D01*
X463101Y128530D01*
X463024Y128603D01*
X462946Y128673D01*
X462864Y128741D01*
X462781Y128805D01*
X462694Y128866D01*
X462606Y128924D01*
X462516Y128979D01*
X462423Y129030D01*
X462329Y129077D01*
X462233Y129121D01*
X462135Y129162D01*
X462036Y129198D01*
X461936Y129231D01*
X461834Y129261D01*
X461732Y129286D01*
X461628Y129308D01*
X461524Y129325D01*
X461419Y129339D01*
X461314Y129349D01*
X461209Y129355D01*
X461103Y129357D01*
X461103Y129358D02*
X460961Y129356D01*
X460819Y129350D01*
X460677Y129341D01*
X460536Y129328D01*
X460395Y129310D01*
X460254Y129290D01*
X460114Y129265D01*
X459975Y129237D01*
X459837Y129204D01*
X459699Y129169D01*
X459563Y129129D01*
X459428Y129086D01*
X459293Y129039D01*
X459161Y128989D01*
X459029Y128935D01*
X458899Y128878D01*
X458771Y128817D01*
X458644Y128753D01*
X458519Y128685D01*
X458396Y128614D01*
X458275Y128540D01*
X458156Y128463D01*
X458039Y128382D01*
X457924Y128298D01*
X462516Y124059D02*
X462607Y124115D01*
X462695Y124174D01*
X462782Y124236D01*
X462866Y124302D01*
X462947Y124370D01*
X463026Y124442D01*
X463102Y124516D01*
X463175Y124593D01*
X463246Y124673D01*
X463313Y124755D01*
X463377Y124840D01*
X463439Y124927D01*
X463496Y125017D01*
X463551Y125108D01*
X463602Y125201D01*
X463650Y125297D01*
X463694Y125394D01*
X463734Y125492D01*
X463771Y125592D01*
X463804Y125693D01*
X463833Y125795D01*
X463858Y125899D01*
X463880Y126003D01*
X463897Y126108D01*
X463911Y126213D01*
X463921Y126319D01*
X463927Y126426D01*
X463929Y126532D01*
X458631Y121941D02*
X458540Y121885D01*
X458452Y121826D01*
X458365Y121764D01*
X458281Y121698D01*
X458200Y121630D01*
X458121Y121558D01*
X458045Y121484D01*
X457972Y121407D01*
X457901Y121327D01*
X457834Y121245D01*
X457770Y121160D01*
X457708Y121073D01*
X457651Y120983D01*
X457596Y120892D01*
X457545Y120799D01*
X457497Y120703D01*
X457453Y120606D01*
X457413Y120508D01*
X457376Y120408D01*
X457343Y120307D01*
X457314Y120205D01*
X457289Y120101D01*
X457267Y119997D01*
X457250Y119892D01*
X457236Y119787D01*
X457226Y119681D01*
X457220Y119574D01*
X457218Y119468D01*
X458631Y121941D02*
X462516Y124060D01*
X450491Y123706D02*
X446959Y123706D01*
X446959Y123707D02*
X446841Y123705D01*
X446723Y123699D01*
X446605Y123689D01*
X446488Y123675D01*
X446372Y123658D01*
X446255Y123636D01*
X446140Y123611D01*
X446026Y123582D01*
X445913Y123548D01*
X445800Y123512D01*
X445690Y123471D01*
X445580Y123427D01*
X445472Y123379D01*
X445366Y123327D01*
X445262Y123272D01*
X445159Y123214D01*
X445058Y123152D01*
X444960Y123087D01*
X444864Y123019D01*
X444770Y122947D01*
X444679Y122872D01*
X444590Y122795D01*
X444504Y122714D01*
X444420Y122630D01*
X444339Y122544D01*
X444262Y122455D01*
X444187Y122364D01*
X444115Y122270D01*
X444047Y122174D01*
X443982Y122076D01*
X443920Y121975D01*
X443862Y121872D01*
X443807Y121768D01*
X443755Y121662D01*
X443707Y121554D01*
X443663Y121444D01*
X443622Y121334D01*
X443586Y121221D01*
X443552Y121108D01*
X443523Y120994D01*
X443498Y120879D01*
X443476Y120762D01*
X443459Y120646D01*
X443445Y120529D01*
X443435Y120411D01*
X443429Y120293D01*
X443427Y120175D01*
X443429Y120057D01*
X443435Y119939D01*
X443445Y119821D01*
X443459Y119704D01*
X443476Y119588D01*
X443498Y119471D01*
X443523Y119356D01*
X443552Y119242D01*
X443586Y119129D01*
X443622Y119016D01*
X443663Y118906D01*
X443707Y118796D01*
X443755Y118688D01*
X443807Y118582D01*
X443862Y118478D01*
X443920Y118375D01*
X443982Y118274D01*
X444047Y118176D01*
X444115Y118080D01*
X444187Y117986D01*
X444262Y117895D01*
X444339Y117806D01*
X444420Y117720D01*
X444504Y117636D01*
X444590Y117555D01*
X444679Y117478D01*
X444770Y117403D01*
X444864Y117331D01*
X444960Y117263D01*
X445058Y117198D01*
X445159Y117136D01*
X445262Y117078D01*
X445366Y117023D01*
X445472Y116971D01*
X445580Y116923D01*
X445690Y116879D01*
X445800Y116838D01*
X445913Y116802D01*
X446026Y116768D01*
X446140Y116739D01*
X446255Y116714D01*
X446372Y116692D01*
X446488Y116675D01*
X446605Y116661D01*
X446723Y116651D01*
X446841Y116645D01*
X446959Y116643D01*
X450491Y116643D01*
X450491Y129357D01*
X446959Y129357D01*
X446853Y129355D01*
X446748Y129349D01*
X446643Y129339D01*
X446538Y129325D01*
X446434Y129308D01*
X446330Y129286D01*
X446228Y129261D01*
X446126Y129231D01*
X446026Y129198D01*
X445927Y129162D01*
X445829Y129121D01*
X445733Y129077D01*
X445639Y129030D01*
X445547Y128979D01*
X445456Y128924D01*
X445368Y128866D01*
X445281Y128805D01*
X445198Y128741D01*
X445116Y128673D01*
X445038Y128603D01*
X444961Y128530D01*
X444888Y128453D01*
X444818Y128375D01*
X444750Y128293D01*
X444686Y128210D01*
X444625Y128123D01*
X444567Y128035D01*
X444512Y127945D01*
X444461Y127852D01*
X444414Y127758D01*
X444370Y127662D01*
X444329Y127564D01*
X444293Y127465D01*
X444260Y127365D01*
X444230Y127263D01*
X444205Y127161D01*
X444183Y127057D01*
X444166Y126953D01*
X444152Y126848D01*
X444142Y126743D01*
X444136Y126638D01*
X444134Y126532D01*
X444136Y126426D01*
X444142Y126321D01*
X444152Y126216D01*
X444166Y126111D01*
X444183Y126007D01*
X444205Y125903D01*
X444230Y125801D01*
X444260Y125699D01*
X444293Y125599D01*
X444329Y125500D01*
X444370Y125402D01*
X444414Y125306D01*
X444461Y125212D01*
X444512Y125119D01*
X444567Y125029D01*
X444625Y124941D01*
X444686Y124854D01*
X444750Y124771D01*
X444818Y124689D01*
X444888Y124611D01*
X444961Y124534D01*
X445038Y124461D01*
X445116Y124391D01*
X445198Y124323D01*
X445281Y124259D01*
X445368Y124198D01*
X445456Y124140D01*
X445547Y124085D01*
X445639Y124034D01*
X445733Y123987D01*
X445829Y123943D01*
X445927Y123902D01*
X446026Y123866D01*
X446126Y123833D01*
X446228Y123803D01*
X446330Y123778D01*
X446434Y123756D01*
X446538Y123739D01*
X446643Y123725D01*
X446748Y123715D01*
X446853Y123709D01*
X446959Y123707D01*
X427763Y116643D02*
X424938Y116643D01*
X427763Y116643D02*
X427869Y116645D01*
X427974Y116651D01*
X428079Y116661D01*
X428184Y116675D01*
X428288Y116692D01*
X428392Y116714D01*
X428494Y116739D01*
X428596Y116769D01*
X428696Y116802D01*
X428795Y116838D01*
X428893Y116879D01*
X428989Y116923D01*
X429083Y116970D01*
X429176Y117021D01*
X429266Y117076D01*
X429354Y117134D01*
X429441Y117195D01*
X429524Y117259D01*
X429606Y117327D01*
X429684Y117397D01*
X429761Y117470D01*
X429834Y117547D01*
X429904Y117625D01*
X429972Y117707D01*
X430036Y117790D01*
X430097Y117877D01*
X430155Y117965D01*
X430210Y118055D01*
X430261Y118148D01*
X430308Y118242D01*
X430352Y118338D01*
X430393Y118436D01*
X430429Y118535D01*
X430462Y118635D01*
X430492Y118737D01*
X430517Y118839D01*
X430539Y118943D01*
X430556Y119047D01*
X430570Y119152D01*
X430580Y119257D01*
X430586Y119362D01*
X430588Y119468D01*
X430589Y119468D02*
X430589Y126532D01*
X430588Y126532D02*
X430586Y126638D01*
X430580Y126743D01*
X430570Y126848D01*
X430556Y126953D01*
X430539Y127057D01*
X430517Y127161D01*
X430492Y127263D01*
X430462Y127365D01*
X430429Y127465D01*
X430393Y127564D01*
X430352Y127662D01*
X430308Y127758D01*
X430261Y127852D01*
X430210Y127945D01*
X430155Y128035D01*
X430097Y128123D01*
X430036Y128210D01*
X429972Y128293D01*
X429904Y128375D01*
X429834Y128453D01*
X429761Y128530D01*
X429684Y128603D01*
X429606Y128673D01*
X429524Y128741D01*
X429441Y128805D01*
X429354Y128866D01*
X429266Y128924D01*
X429176Y128979D01*
X429083Y129030D01*
X428989Y129077D01*
X428893Y129121D01*
X428795Y129162D01*
X428696Y129198D01*
X428596Y129231D01*
X428494Y129261D01*
X428392Y129286D01*
X428288Y129308D01*
X428184Y129325D01*
X428079Y129339D01*
X427974Y129349D01*
X427869Y129355D01*
X427763Y129357D01*
X424938Y129357D01*
X418832Y129357D02*
X418832Y116643D01*
X418832Y123706D02*
X411768Y123706D01*
X411768Y129357D02*
X411768Y116643D01*
X394150Y116643D02*
X398388Y129357D01*
X389912Y129357D02*
X394150Y116643D01*
X384182Y126532D02*
X380650Y129357D01*
X380650Y116643D01*
X384182Y116643D02*
X377118Y116643D01*
X371553Y116643D02*
X371553Y117349D01*
X370847Y117349D01*
X370847Y116643D01*
X371553Y116643D01*
X365282Y123000D02*
X365279Y123250D01*
X365270Y123500D01*
X365255Y123750D01*
X365234Y123999D01*
X365207Y124248D01*
X365175Y124496D01*
X365136Y124743D01*
X365091Y124989D01*
X365041Y125234D01*
X364985Y125478D01*
X364923Y125720D01*
X364855Y125961D01*
X364781Y126200D01*
X364702Y126437D01*
X364617Y126672D01*
X364527Y126905D01*
X364431Y127136D01*
X364329Y127365D01*
X364223Y127591D01*
X364222Y127591D02*
X364187Y127687D01*
X364149Y127780D01*
X364107Y127873D01*
X364061Y127963D01*
X364012Y128052D01*
X363960Y128138D01*
X363904Y128223D01*
X363845Y128305D01*
X363783Y128385D01*
X363718Y128463D01*
X363650Y128538D01*
X363579Y128610D01*
X363505Y128680D01*
X363429Y128746D01*
X363350Y128810D01*
X363269Y128870D01*
X363185Y128928D01*
X363100Y128982D01*
X363012Y129032D01*
X362922Y129079D01*
X362831Y129123D01*
X362738Y129163D01*
X362643Y129200D01*
X362547Y129232D01*
X362450Y129261D01*
X362352Y129287D01*
X362253Y129308D01*
X362154Y129326D01*
X362053Y129339D01*
X361952Y129349D01*
X361851Y129355D01*
X361750Y129357D01*
X361649Y129355D01*
X361548Y129349D01*
X361447Y129339D01*
X361346Y129326D01*
X361247Y129308D01*
X361148Y129287D01*
X361050Y129261D01*
X360953Y129232D01*
X360857Y129200D01*
X360762Y129163D01*
X360669Y129123D01*
X360578Y129079D01*
X360488Y129032D01*
X360400Y128982D01*
X360315Y128928D01*
X360231Y128870D01*
X360150Y128810D01*
X360071Y128746D01*
X359995Y128680D01*
X359921Y128610D01*
X359850Y128538D01*
X359782Y128463D01*
X359717Y128385D01*
X359655Y128305D01*
X359596Y128223D01*
X359540Y128138D01*
X359488Y128052D01*
X359439Y127963D01*
X359393Y127873D01*
X359351Y127780D01*
X359313Y127687D01*
X359278Y127591D01*
X359172Y127365D01*
X359070Y127136D01*
X358974Y126905D01*
X358884Y126672D01*
X358799Y126437D01*
X358720Y126200D01*
X358646Y125961D01*
X358578Y125720D01*
X358516Y125478D01*
X358460Y125234D01*
X358410Y124989D01*
X358365Y124743D01*
X358326Y124496D01*
X358294Y124248D01*
X358267Y123999D01*
X358246Y123750D01*
X358231Y123500D01*
X358222Y123250D01*
X358219Y123000D01*
X365281Y123000D02*
X365278Y122750D01*
X365269Y122500D01*
X365254Y122250D01*
X365233Y122001D01*
X365206Y121752D01*
X365174Y121504D01*
X365135Y121257D01*
X365090Y121011D01*
X365040Y120766D01*
X364984Y120522D01*
X364922Y120280D01*
X364854Y120039D01*
X364780Y119800D01*
X364701Y119563D01*
X364616Y119328D01*
X364526Y119095D01*
X364430Y118864D01*
X364328Y118635D01*
X364222Y118409D01*
X364187Y118313D01*
X364149Y118220D01*
X364107Y118127D01*
X364061Y118037D01*
X364012Y117948D01*
X363960Y117862D01*
X363904Y117777D01*
X363845Y117695D01*
X363783Y117615D01*
X363718Y117537D01*
X363650Y117462D01*
X363579Y117390D01*
X363505Y117320D01*
X363429Y117254D01*
X363350Y117190D01*
X363269Y117130D01*
X363185Y117072D01*
X363100Y117018D01*
X363012Y116968D01*
X362922Y116921D01*
X362831Y116877D01*
X362738Y116837D01*
X362643Y116800D01*
X362547Y116768D01*
X362450Y116739D01*
X362352Y116713D01*
X362253Y116692D01*
X362154Y116674D01*
X362053Y116661D01*
X361952Y116651D01*
X361851Y116645D01*
X361750Y116643D01*
X359278Y118409D02*
X359172Y118635D01*
X359070Y118864D01*
X358974Y119095D01*
X358884Y119328D01*
X358799Y119563D01*
X358720Y119800D01*
X358646Y120039D01*
X358578Y120280D01*
X358516Y120522D01*
X358460Y120766D01*
X358410Y121011D01*
X358365Y121257D01*
X358326Y121504D01*
X358294Y121752D01*
X358267Y122001D01*
X358246Y122250D01*
X358231Y122500D01*
X358222Y122750D01*
X358219Y123000D01*
X359278Y118409D02*
X359313Y118313D01*
X359351Y118220D01*
X359393Y118127D01*
X359439Y118037D01*
X359488Y117948D01*
X359540Y117862D01*
X359596Y117777D01*
X359655Y117695D01*
X359717Y117615D01*
X359782Y117537D01*
X359850Y117462D01*
X359921Y117390D01*
X359995Y117320D01*
X360071Y117254D01*
X360150Y117190D01*
X360231Y117130D01*
X360315Y117072D01*
X360400Y117018D01*
X360488Y116968D01*
X360578Y116921D01*
X360669Y116877D01*
X360762Y116837D01*
X360857Y116800D01*
X360953Y116768D01*
X361050Y116739D01*
X361148Y116713D01*
X361247Y116692D01*
X361346Y116674D01*
X361447Y116661D01*
X361548Y116651D01*
X361649Y116645D01*
X361750Y116643D01*
X364575Y119468D02*
X358925Y126532D01*
D10*
X135593Y157635D02*
X132602Y157635D01*
X135593Y157635D02*
X135593Y164365D01*
X132602Y164365D01*
X133349Y161374D02*
X135593Y161374D01*
X129374Y164365D02*
X129374Y157635D01*
X125635Y157635D02*
X129374Y164365D01*
X125635Y164365D02*
X125635Y157635D01*
X151818Y147365D02*
X154061Y140635D01*
X149574Y140635D02*
X151818Y147365D01*
X153500Y142318D02*
X150135Y142318D01*
X146141Y140635D02*
X146141Y147365D01*
X143898Y143626D01*
X141655Y147365D01*
X141655Y140635D01*
X135844Y140635D02*
X135768Y140637D01*
X135693Y140643D01*
X135617Y140652D01*
X135543Y140666D01*
X135469Y140683D01*
X135396Y140704D01*
X135324Y140728D01*
X135254Y140756D01*
X135185Y140788D01*
X135118Y140823D01*
X135053Y140861D01*
X134989Y140903D01*
X134928Y140948D01*
X134870Y140996D01*
X134813Y141047D01*
X134760Y141100D01*
X134709Y141157D01*
X134661Y141215D01*
X134616Y141276D01*
X134574Y141340D01*
X134536Y141405D01*
X134501Y141472D01*
X134469Y141541D01*
X134441Y141611D01*
X134417Y141683D01*
X134396Y141756D01*
X134379Y141830D01*
X134365Y141904D01*
X134356Y141980D01*
X134350Y142055D01*
X134348Y142131D01*
X135844Y140635D02*
X135952Y140637D01*
X136061Y140642D01*
X136169Y140652D01*
X136276Y140665D01*
X136384Y140681D01*
X136490Y140702D01*
X136596Y140726D01*
X136701Y140753D01*
X136805Y140785D01*
X136907Y140819D01*
X137009Y140858D01*
X137109Y140899D01*
X137207Y140944D01*
X137304Y140993D01*
X137400Y141045D01*
X137493Y141100D01*
X137585Y141158D01*
X137674Y141219D01*
X137761Y141284D01*
X137847Y141351D01*
X137929Y141421D01*
X138009Y141494D01*
X138087Y141570D01*
X137901Y145869D02*
X137899Y145945D01*
X137893Y146020D01*
X137884Y146096D01*
X137870Y146170D01*
X137853Y146244D01*
X137832Y146317D01*
X137808Y146389D01*
X137780Y146459D01*
X137748Y146528D01*
X137713Y146595D01*
X137675Y146660D01*
X137633Y146724D01*
X137588Y146785D01*
X137540Y146843D01*
X137489Y146900D01*
X137436Y146953D01*
X137379Y147004D01*
X137321Y147052D01*
X137260Y147097D01*
X137196Y147139D01*
X137131Y147177D01*
X137064Y147212D01*
X136995Y147244D01*
X136925Y147272D01*
X136853Y147296D01*
X136780Y147317D01*
X136706Y147334D01*
X136632Y147348D01*
X136556Y147357D01*
X136481Y147363D01*
X136405Y147365D01*
X136305Y147363D01*
X136205Y147358D01*
X136105Y147349D01*
X136005Y147336D01*
X135906Y147320D01*
X135808Y147301D01*
X135711Y147278D01*
X135614Y147251D01*
X135518Y147221D01*
X135424Y147188D01*
X135331Y147151D01*
X135239Y147111D01*
X135148Y147068D01*
X135059Y147021D01*
X134972Y146971D01*
X134887Y146919D01*
X134804Y146863D01*
X134723Y146804D01*
X137152Y144560D02*
X137216Y144600D01*
X137278Y144643D01*
X137337Y144689D01*
X137394Y144737D01*
X137449Y144789D01*
X137501Y144843D01*
X137550Y144900D01*
X137597Y144959D01*
X137640Y145020D01*
X137681Y145083D01*
X137718Y145148D01*
X137752Y145215D01*
X137783Y145284D01*
X137810Y145354D01*
X137834Y145425D01*
X137854Y145497D01*
X137870Y145571D01*
X137883Y145645D01*
X137893Y145719D01*
X137898Y145794D01*
X137900Y145869D01*
X135096Y143440D02*
X135032Y143400D01*
X134970Y143357D01*
X134911Y143311D01*
X134854Y143263D01*
X134799Y143211D01*
X134747Y143157D01*
X134698Y143100D01*
X134651Y143041D01*
X134608Y142980D01*
X134567Y142917D01*
X134530Y142852D01*
X134496Y142785D01*
X134465Y142716D01*
X134438Y142646D01*
X134414Y142575D01*
X134394Y142503D01*
X134378Y142429D01*
X134365Y142355D01*
X134355Y142281D01*
X134350Y142206D01*
X134348Y142131D01*
X135096Y143439D02*
X137153Y144561D01*
X130866Y140635D02*
X127875Y140635D01*
X130866Y140635D02*
X130866Y147365D01*
X127875Y147365D01*
X128623Y144374D02*
X130866Y144374D01*
X124626Y147365D02*
X124626Y140635D01*
X121635Y140635D01*
X366650Y198131D02*
X366652Y198055D01*
X366658Y197980D01*
X366667Y197904D01*
X366681Y197830D01*
X366698Y197756D01*
X366719Y197683D01*
X366743Y197611D01*
X366771Y197541D01*
X366803Y197472D01*
X366838Y197405D01*
X366876Y197340D01*
X366918Y197276D01*
X366963Y197215D01*
X367011Y197157D01*
X367062Y197100D01*
X367115Y197047D01*
X367172Y196996D01*
X367230Y196948D01*
X367291Y196903D01*
X367355Y196861D01*
X367420Y196823D01*
X367487Y196788D01*
X367556Y196756D01*
X367626Y196728D01*
X367698Y196704D01*
X367771Y196683D01*
X367845Y196666D01*
X367919Y196652D01*
X367995Y196643D01*
X368070Y196637D01*
X368146Y196635D01*
X368254Y196637D01*
X368363Y196642D01*
X368471Y196652D01*
X368578Y196665D01*
X368686Y196681D01*
X368792Y196702D01*
X368898Y196726D01*
X369003Y196753D01*
X369107Y196785D01*
X369209Y196819D01*
X369311Y196858D01*
X369411Y196899D01*
X369509Y196944D01*
X369606Y196993D01*
X369702Y197045D01*
X369795Y197100D01*
X369887Y197158D01*
X369976Y197219D01*
X370063Y197284D01*
X370149Y197351D01*
X370231Y197421D01*
X370311Y197494D01*
X370389Y197570D01*
X370203Y201869D02*
X370201Y201945D01*
X370195Y202020D01*
X370186Y202096D01*
X370172Y202170D01*
X370155Y202244D01*
X370134Y202317D01*
X370110Y202389D01*
X370082Y202459D01*
X370050Y202528D01*
X370015Y202595D01*
X369977Y202660D01*
X369935Y202724D01*
X369890Y202785D01*
X369842Y202843D01*
X369791Y202900D01*
X369738Y202953D01*
X369681Y203004D01*
X369623Y203052D01*
X369562Y203097D01*
X369498Y203139D01*
X369433Y203177D01*
X369366Y203212D01*
X369297Y203244D01*
X369227Y203272D01*
X369155Y203296D01*
X369082Y203317D01*
X369008Y203334D01*
X368934Y203348D01*
X368858Y203357D01*
X368783Y203363D01*
X368707Y203365D01*
X368607Y203363D01*
X368507Y203358D01*
X368407Y203349D01*
X368307Y203336D01*
X368208Y203320D01*
X368110Y203301D01*
X368013Y203278D01*
X367916Y203251D01*
X367820Y203221D01*
X367726Y203188D01*
X367633Y203151D01*
X367541Y203111D01*
X367450Y203068D01*
X367361Y203021D01*
X367274Y202971D01*
X367189Y202919D01*
X367106Y202863D01*
X367025Y202804D01*
X369454Y200560D02*
X369518Y200600D01*
X369580Y200643D01*
X369639Y200689D01*
X369696Y200737D01*
X369751Y200789D01*
X369803Y200843D01*
X369852Y200900D01*
X369899Y200959D01*
X369942Y201020D01*
X369983Y201083D01*
X370020Y201148D01*
X370054Y201215D01*
X370085Y201284D01*
X370112Y201354D01*
X370136Y201425D01*
X370156Y201497D01*
X370172Y201571D01*
X370185Y201645D01*
X370195Y201719D01*
X370200Y201794D01*
X370202Y201869D01*
X367398Y199440D02*
X367334Y199400D01*
X367272Y199357D01*
X367213Y199311D01*
X367156Y199263D01*
X367101Y199211D01*
X367049Y199157D01*
X367000Y199100D01*
X366953Y199041D01*
X366910Y198980D01*
X366869Y198917D01*
X366832Y198852D01*
X366798Y198785D01*
X366767Y198716D01*
X366740Y198646D01*
X366716Y198575D01*
X366696Y198503D01*
X366680Y198429D01*
X366667Y198355D01*
X366657Y198281D01*
X366652Y198206D01*
X366650Y198131D01*
X367398Y199439D02*
X369455Y200561D01*
X363803Y196635D02*
X361560Y203365D01*
X359317Y196635D01*
X359877Y198318D02*
X363242Y198318D01*
X355968Y196635D02*
X355968Y203365D01*
X352977Y203365D01*
X352977Y200374D02*
X355968Y200374D01*
X349728Y196635D02*
X346737Y196635D01*
X349728Y196635D02*
X349728Y203365D01*
X346737Y203365D01*
X347485Y200374D02*
X349728Y200374D01*
X343749Y201496D02*
X343749Y198504D01*
X343749Y201496D02*
X343747Y201581D01*
X343741Y201666D01*
X343732Y201750D01*
X343718Y201835D01*
X343701Y201918D01*
X343680Y202000D01*
X343655Y202082D01*
X343626Y202162D01*
X343594Y202241D01*
X343559Y202318D01*
X343519Y202393D01*
X343477Y202467D01*
X343431Y202539D01*
X343382Y202608D01*
X343330Y202676D01*
X343275Y202740D01*
X343217Y202802D01*
X343156Y202862D01*
X343092Y202919D01*
X343026Y202972D01*
X342958Y203023D01*
X342887Y203070D01*
X342815Y203115D01*
X342740Y203155D01*
X342663Y203193D01*
X342585Y203227D01*
X342506Y203257D01*
X342425Y203284D01*
X342343Y203307D01*
X342260Y203326D01*
X342177Y203341D01*
X342092Y203353D01*
X342008Y203361D01*
X341923Y203365D01*
X341837Y203365D01*
X341752Y203361D01*
X341668Y203353D01*
X341583Y203341D01*
X341500Y203326D01*
X341417Y203307D01*
X341335Y203284D01*
X341254Y203257D01*
X341175Y203227D01*
X341097Y203193D01*
X341020Y203155D01*
X340946Y203115D01*
X340873Y203070D01*
X340802Y203023D01*
X340734Y202972D01*
X340668Y202919D01*
X340604Y202862D01*
X340543Y202802D01*
X340485Y202740D01*
X340430Y202676D01*
X340378Y202608D01*
X340329Y202539D01*
X340283Y202467D01*
X340241Y202393D01*
X340201Y202318D01*
X340166Y202241D01*
X340134Y202162D01*
X340105Y202082D01*
X340080Y202000D01*
X340059Y201918D01*
X340042Y201835D01*
X340028Y201750D01*
X340019Y201666D01*
X340013Y201581D01*
X340011Y201496D01*
X340011Y198504D01*
X340013Y198419D01*
X340019Y198334D01*
X340028Y198250D01*
X340042Y198165D01*
X340059Y198082D01*
X340080Y198000D01*
X340105Y197918D01*
X340134Y197838D01*
X340166Y197759D01*
X340201Y197682D01*
X340241Y197607D01*
X340283Y197533D01*
X340329Y197461D01*
X340378Y197392D01*
X340430Y197324D01*
X340485Y197260D01*
X340543Y197198D01*
X340604Y197138D01*
X340668Y197081D01*
X340734Y197028D01*
X340802Y196977D01*
X340873Y196930D01*
X340946Y196885D01*
X341020Y196845D01*
X341097Y196807D01*
X341175Y196773D01*
X341254Y196743D01*
X341335Y196716D01*
X341417Y196693D01*
X341500Y196674D01*
X341583Y196659D01*
X341668Y196647D01*
X341752Y196639D01*
X341837Y196635D01*
X341923Y196635D01*
X342008Y196639D01*
X342092Y196647D01*
X342177Y196659D01*
X342260Y196674D01*
X342343Y196693D01*
X342425Y196716D01*
X342506Y196743D01*
X342585Y196773D01*
X342663Y196807D01*
X342740Y196845D01*
X342815Y196885D01*
X342887Y196930D01*
X342958Y196977D01*
X343026Y197028D01*
X343092Y197081D01*
X343156Y197138D01*
X343217Y197198D01*
X343275Y197260D01*
X343330Y197324D01*
X343382Y197392D01*
X343431Y197461D01*
X343477Y197533D01*
X343519Y197607D01*
X343559Y197682D01*
X343594Y197759D01*
X343626Y197838D01*
X343655Y197918D01*
X343680Y198000D01*
X343701Y198082D01*
X343718Y198165D01*
X343732Y198250D01*
X343741Y198334D01*
X343747Y198419D01*
X343749Y198504D01*
X336309Y198504D02*
X336309Y203365D01*
X336309Y198504D02*
X336307Y198419D01*
X336301Y198334D01*
X336292Y198250D01*
X336278Y198165D01*
X336261Y198082D01*
X336240Y198000D01*
X336215Y197918D01*
X336186Y197838D01*
X336154Y197759D01*
X336119Y197682D01*
X336079Y197607D01*
X336037Y197533D01*
X335991Y197461D01*
X335942Y197392D01*
X335890Y197324D01*
X335835Y197260D01*
X335777Y197198D01*
X335716Y197138D01*
X335652Y197081D01*
X335586Y197028D01*
X335518Y196977D01*
X335447Y196930D01*
X335375Y196885D01*
X335300Y196845D01*
X335223Y196807D01*
X335145Y196773D01*
X335066Y196743D01*
X334985Y196716D01*
X334903Y196693D01*
X334820Y196674D01*
X334737Y196659D01*
X334652Y196647D01*
X334568Y196639D01*
X334483Y196635D01*
X334397Y196635D01*
X334312Y196639D01*
X334228Y196647D01*
X334143Y196659D01*
X334060Y196674D01*
X333977Y196693D01*
X333895Y196716D01*
X333814Y196743D01*
X333735Y196773D01*
X333657Y196807D01*
X333580Y196845D01*
X333506Y196885D01*
X333433Y196930D01*
X333362Y196977D01*
X333294Y197028D01*
X333228Y197081D01*
X333164Y197138D01*
X333103Y197198D01*
X333045Y197260D01*
X332990Y197324D01*
X332938Y197392D01*
X332889Y197461D01*
X332843Y197533D01*
X332801Y197607D01*
X332761Y197682D01*
X332726Y197759D01*
X332694Y197838D01*
X332665Y197918D01*
X332640Y198000D01*
X332619Y198082D01*
X332602Y198165D01*
X332588Y198250D01*
X332579Y198334D01*
X332573Y198419D01*
X332571Y198504D01*
X332571Y203365D01*
X327480Y203365D02*
X327480Y196635D01*
X329349Y203365D02*
X325611Y203365D01*
D12*
X115000Y157500D02*
X114998Y157360D01*
X114992Y157220D01*
X114982Y157080D01*
X114969Y156940D01*
X114951Y156801D01*
X114929Y156662D01*
X114904Y156525D01*
X114875Y156387D01*
X114842Y156251D01*
X114805Y156116D01*
X114764Y155982D01*
X114719Y155849D01*
X114671Y155717D01*
X114619Y155587D01*
X114564Y155458D01*
X114505Y155331D01*
X114442Y155205D01*
X114376Y155081D01*
X114307Y154960D01*
X114234Y154840D01*
X114157Y154722D01*
X114078Y154607D01*
X113995Y154493D01*
X113909Y154383D01*
X113820Y154274D01*
X113728Y154168D01*
X113633Y154065D01*
X113536Y153964D01*
X113435Y153867D01*
X113332Y153772D01*
X113226Y153680D01*
X113117Y153591D01*
X113007Y153505D01*
X112893Y153422D01*
X112778Y153343D01*
X112660Y153266D01*
X112540Y153193D01*
X112419Y153124D01*
X112295Y153058D01*
X112169Y152995D01*
X112042Y152936D01*
X111913Y152881D01*
X111783Y152829D01*
X111651Y152781D01*
X111518Y152736D01*
X111384Y152695D01*
X111249Y152658D01*
X111113Y152625D01*
X110975Y152596D01*
X110838Y152571D01*
X110699Y152549D01*
X110560Y152531D01*
X110420Y152518D01*
X110280Y152508D01*
X110140Y152502D01*
X110000Y152500D01*
X109860Y152502D01*
X109720Y152508D01*
X109580Y152518D01*
X109440Y152531D01*
X109301Y152549D01*
X109162Y152571D01*
X109025Y152596D01*
X108887Y152625D01*
X108751Y152658D01*
X108616Y152695D01*
X108482Y152736D01*
X108349Y152781D01*
X108217Y152829D01*
X108087Y152881D01*
X107958Y152936D01*
X107831Y152995D01*
X107705Y153058D01*
X107581Y153124D01*
X107460Y153193D01*
X107340Y153266D01*
X107222Y153343D01*
X107107Y153422D01*
X106993Y153505D01*
X106883Y153591D01*
X106774Y153680D01*
X106668Y153772D01*
X106565Y153867D01*
X106464Y153964D01*
X106367Y154065D01*
X106272Y154168D01*
X106180Y154274D01*
X106091Y154383D01*
X106005Y154493D01*
X105922Y154607D01*
X105843Y154722D01*
X105766Y154840D01*
X105693Y154960D01*
X105624Y155081D01*
X105558Y155205D01*
X105495Y155331D01*
X105436Y155458D01*
X105381Y155587D01*
X105329Y155717D01*
X105281Y155849D01*
X105236Y155982D01*
X105195Y156116D01*
X105158Y156251D01*
X105125Y156387D01*
X105096Y156525D01*
X105071Y156662D01*
X105049Y156801D01*
X105031Y156940D01*
X105018Y157080D01*
X105008Y157220D01*
X105002Y157360D01*
X105000Y157500D01*
X115000Y157500D02*
X115000Y164500D01*
X114998Y164640D01*
X114992Y164780D01*
X114982Y164920D01*
X114969Y165060D01*
X114951Y165199D01*
X114929Y165338D01*
X114904Y165475D01*
X114875Y165613D01*
X114842Y165749D01*
X114805Y165884D01*
X114764Y166018D01*
X114719Y166151D01*
X114671Y166283D01*
X114619Y166413D01*
X114564Y166542D01*
X114505Y166669D01*
X114442Y166795D01*
X114376Y166919D01*
X114307Y167040D01*
X114234Y167160D01*
X114157Y167278D01*
X114078Y167393D01*
X113995Y167507D01*
X113909Y167617D01*
X113820Y167726D01*
X113728Y167832D01*
X113633Y167935D01*
X113536Y168036D01*
X113435Y168133D01*
X113332Y168228D01*
X113226Y168320D01*
X113117Y168409D01*
X113007Y168495D01*
X112893Y168578D01*
X112778Y168657D01*
X112660Y168734D01*
X112540Y168807D01*
X112419Y168876D01*
X112295Y168942D01*
X112169Y169005D01*
X112042Y169064D01*
X111913Y169119D01*
X111783Y169171D01*
X111651Y169219D01*
X111518Y169264D01*
X111384Y169305D01*
X111249Y169342D01*
X111113Y169375D01*
X110975Y169404D01*
X110838Y169429D01*
X110699Y169451D01*
X110560Y169469D01*
X110420Y169482D01*
X110280Y169492D01*
X110140Y169498D01*
X110000Y169500D01*
X109860Y169498D01*
X109720Y169492D01*
X109580Y169482D01*
X109440Y169469D01*
X109301Y169451D01*
X109162Y169429D01*
X109025Y169404D01*
X108887Y169375D01*
X108751Y169342D01*
X108616Y169305D01*
X108482Y169264D01*
X108349Y169219D01*
X108217Y169171D01*
X108087Y169119D01*
X107958Y169064D01*
X107831Y169005D01*
X107705Y168942D01*
X107581Y168876D01*
X107460Y168807D01*
X107340Y168734D01*
X107222Y168657D01*
X107107Y168578D01*
X106993Y168495D01*
X106883Y168409D01*
X106774Y168320D01*
X106668Y168228D01*
X106565Y168133D01*
X106464Y168036D01*
X106367Y167935D01*
X106272Y167832D01*
X106180Y167726D01*
X106091Y167617D01*
X106005Y167507D01*
X105922Y167393D01*
X105843Y167278D01*
X105766Y167160D01*
X105693Y167040D01*
X105624Y166919D01*
X105558Y166795D01*
X105495Y166669D01*
X105436Y166542D01*
X105381Y166413D01*
X105329Y166283D01*
X105281Y166151D01*
X105236Y166018D01*
X105195Y165884D01*
X105158Y165749D01*
X105125Y165613D01*
X105096Y165475D01*
X105071Y165338D01*
X105049Y165199D01*
X105031Y165060D01*
X105018Y164920D01*
X105008Y164780D01*
X105002Y164640D01*
X105000Y164500D01*
X105000Y157500D01*
D10*
X118870Y132365D02*
X118870Y125635D01*
X118870Y132365D02*
X117000Y132365D01*
X116915Y132363D01*
X116830Y132357D01*
X116746Y132348D01*
X116661Y132334D01*
X116578Y132317D01*
X116496Y132296D01*
X116414Y132271D01*
X116334Y132242D01*
X116255Y132210D01*
X116178Y132175D01*
X116103Y132135D01*
X116029Y132093D01*
X115957Y132047D01*
X115888Y131998D01*
X115820Y131946D01*
X115756Y131891D01*
X115694Y131833D01*
X115634Y131772D01*
X115577Y131708D01*
X115524Y131642D01*
X115473Y131574D01*
X115426Y131503D01*
X115381Y131431D01*
X115341Y131356D01*
X115303Y131279D01*
X115269Y131201D01*
X115239Y131122D01*
X115212Y131041D01*
X115189Y130959D01*
X115170Y130876D01*
X115155Y130793D01*
X115143Y130708D01*
X115135Y130624D01*
X115131Y130539D01*
X115131Y130453D01*
X115135Y130368D01*
X115143Y130284D01*
X115155Y130199D01*
X115170Y130116D01*
X115189Y130033D01*
X115212Y129951D01*
X115239Y129870D01*
X115269Y129791D01*
X115303Y129713D01*
X115341Y129636D01*
X115381Y129562D01*
X115426Y129489D01*
X115473Y129418D01*
X115524Y129350D01*
X115577Y129284D01*
X115634Y129220D01*
X115694Y129159D01*
X115756Y129101D01*
X115820Y129046D01*
X115888Y128994D01*
X115957Y128945D01*
X116029Y128899D01*
X116103Y128857D01*
X116178Y128817D01*
X116255Y128782D01*
X116334Y128750D01*
X116414Y128721D01*
X116496Y128696D01*
X116578Y128675D01*
X116661Y128658D01*
X116746Y128644D01*
X116830Y128635D01*
X116915Y128629D01*
X117000Y128627D01*
X117000Y128626D02*
X118870Y128626D01*
X112069Y130869D02*
X110200Y132365D01*
X110200Y125635D01*
X112069Y125635D02*
X108330Y125635D01*
X104869Y129000D02*
X104867Y129148D01*
X104861Y129296D01*
X104851Y129443D01*
X104837Y129591D01*
X104820Y129738D01*
X104798Y129884D01*
X104773Y130030D01*
X104743Y130175D01*
X104710Y130319D01*
X104673Y130462D01*
X104632Y130604D01*
X104587Y130746D01*
X104539Y130885D01*
X104487Y131024D01*
X104431Y131161D01*
X104371Y131296D01*
X104308Y131430D01*
X104308Y131431D02*
X104283Y131498D01*
X104255Y131563D01*
X104223Y131627D01*
X104188Y131690D01*
X104150Y131750D01*
X104109Y131808D01*
X104065Y131865D01*
X104018Y131918D01*
X103968Y131970D01*
X103916Y132018D01*
X103861Y132064D01*
X103804Y132107D01*
X103745Y132147D01*
X103683Y132184D01*
X103620Y132218D01*
X103556Y132248D01*
X103490Y132275D01*
X103422Y132299D01*
X103353Y132319D01*
X103284Y132336D01*
X103214Y132348D01*
X103143Y132358D01*
X103071Y132363D01*
X103000Y132365D01*
X102929Y132363D01*
X102857Y132358D01*
X102786Y132348D01*
X102716Y132336D01*
X102647Y132319D01*
X102578Y132299D01*
X102510Y132275D01*
X102444Y132248D01*
X102380Y132218D01*
X102317Y132184D01*
X102255Y132147D01*
X102196Y132107D01*
X102139Y132064D01*
X102084Y132018D01*
X102032Y131970D01*
X101982Y131918D01*
X101935Y131865D01*
X101891Y131808D01*
X101850Y131750D01*
X101812Y131690D01*
X101777Y131627D01*
X101745Y131563D01*
X101717Y131498D01*
X101692Y131431D01*
X101691Y131430D02*
X101628Y131296D01*
X101568Y131161D01*
X101512Y131024D01*
X101460Y130885D01*
X101412Y130746D01*
X101367Y130605D01*
X101326Y130462D01*
X101289Y130319D01*
X101256Y130175D01*
X101226Y130030D01*
X101201Y129884D01*
X101179Y129738D01*
X101162Y129591D01*
X101148Y129443D01*
X101138Y129296D01*
X101132Y129148D01*
X101130Y129000D01*
X104869Y129000D02*
X104867Y128852D01*
X104861Y128704D01*
X104851Y128557D01*
X104837Y128409D01*
X104820Y128262D01*
X104798Y128116D01*
X104773Y127970D01*
X104743Y127825D01*
X104710Y127681D01*
X104673Y127538D01*
X104632Y127396D01*
X104587Y127255D01*
X104539Y127115D01*
X104487Y126976D01*
X104431Y126839D01*
X104371Y126704D01*
X104308Y126570D01*
X104308Y126569D02*
X104283Y126502D01*
X104255Y126437D01*
X104223Y126373D01*
X104188Y126310D01*
X104150Y126250D01*
X104109Y126192D01*
X104065Y126135D01*
X104018Y126082D01*
X103968Y126030D01*
X103916Y125982D01*
X103861Y125936D01*
X103804Y125893D01*
X103745Y125853D01*
X103683Y125816D01*
X103620Y125782D01*
X103556Y125752D01*
X103490Y125725D01*
X103422Y125701D01*
X103353Y125681D01*
X103284Y125664D01*
X103214Y125652D01*
X103143Y125642D01*
X103071Y125637D01*
X103000Y125635D01*
X101691Y126570D02*
X101628Y126704D01*
X101568Y126839D01*
X101512Y126976D01*
X101460Y127115D01*
X101412Y127254D01*
X101367Y127395D01*
X101326Y127538D01*
X101289Y127681D01*
X101256Y127825D01*
X101226Y127970D01*
X101201Y128116D01*
X101179Y128262D01*
X101162Y128409D01*
X101148Y128557D01*
X101138Y128704D01*
X101132Y128852D01*
X101130Y129000D01*
X101692Y126569D02*
X101717Y126502D01*
X101745Y126437D01*
X101777Y126373D01*
X101812Y126310D01*
X101850Y126250D01*
X101891Y126192D01*
X101935Y126135D01*
X101982Y126082D01*
X102032Y126030D01*
X102084Y125982D01*
X102139Y125936D01*
X102196Y125893D01*
X102255Y125853D01*
X102317Y125816D01*
X102380Y125782D01*
X102444Y125752D01*
X102510Y125725D01*
X102578Y125701D01*
X102647Y125681D01*
X102716Y125664D01*
X102786Y125652D01*
X102857Y125642D01*
X102929Y125637D01*
X103000Y125635D01*
X104495Y127131D02*
X101504Y130869D01*
D12*
X105000Y147500D02*
X105002Y147640D01*
X105008Y147780D01*
X105018Y147920D01*
X105031Y148060D01*
X105049Y148199D01*
X105071Y148338D01*
X105096Y148475D01*
X105125Y148613D01*
X105158Y148749D01*
X105195Y148884D01*
X105236Y149018D01*
X105281Y149151D01*
X105329Y149283D01*
X105381Y149413D01*
X105436Y149542D01*
X105495Y149669D01*
X105558Y149795D01*
X105624Y149919D01*
X105693Y150040D01*
X105766Y150160D01*
X105843Y150278D01*
X105922Y150393D01*
X106005Y150507D01*
X106091Y150617D01*
X106180Y150726D01*
X106272Y150832D01*
X106367Y150935D01*
X106464Y151036D01*
X106565Y151133D01*
X106668Y151228D01*
X106774Y151320D01*
X106883Y151409D01*
X106993Y151495D01*
X107107Y151578D01*
X107222Y151657D01*
X107340Y151734D01*
X107460Y151807D01*
X107581Y151876D01*
X107705Y151942D01*
X107831Y152005D01*
X107958Y152064D01*
X108087Y152119D01*
X108217Y152171D01*
X108349Y152219D01*
X108482Y152264D01*
X108616Y152305D01*
X108751Y152342D01*
X108887Y152375D01*
X109025Y152404D01*
X109162Y152429D01*
X109301Y152451D01*
X109440Y152469D01*
X109580Y152482D01*
X109720Y152492D01*
X109860Y152498D01*
X110000Y152500D01*
X110140Y152498D01*
X110280Y152492D01*
X110420Y152482D01*
X110560Y152469D01*
X110699Y152451D01*
X110838Y152429D01*
X110975Y152404D01*
X111113Y152375D01*
X111249Y152342D01*
X111384Y152305D01*
X111518Y152264D01*
X111651Y152219D01*
X111783Y152171D01*
X111913Y152119D01*
X112042Y152064D01*
X112169Y152005D01*
X112295Y151942D01*
X112419Y151876D01*
X112540Y151807D01*
X112660Y151734D01*
X112778Y151657D01*
X112893Y151578D01*
X113007Y151495D01*
X113117Y151409D01*
X113226Y151320D01*
X113332Y151228D01*
X113435Y151133D01*
X113536Y151036D01*
X113633Y150935D01*
X113728Y150832D01*
X113820Y150726D01*
X113909Y150617D01*
X113995Y150507D01*
X114078Y150393D01*
X114157Y150278D01*
X114234Y150160D01*
X114307Y150040D01*
X114376Y149919D01*
X114442Y149795D01*
X114505Y149669D01*
X114564Y149542D01*
X114619Y149413D01*
X114671Y149283D01*
X114719Y149151D01*
X114764Y149018D01*
X114805Y148884D01*
X114842Y148749D01*
X114875Y148613D01*
X114904Y148475D01*
X114929Y148338D01*
X114951Y148199D01*
X114969Y148060D01*
X114982Y147920D01*
X114992Y147780D01*
X114998Y147640D01*
X115000Y147500D01*
X105000Y147500D02*
X105000Y140500D01*
X105002Y140360D01*
X105008Y140220D01*
X105018Y140080D01*
X105031Y139940D01*
X105049Y139801D01*
X105071Y139662D01*
X105096Y139525D01*
X105125Y139387D01*
X105158Y139251D01*
X105195Y139116D01*
X105236Y138982D01*
X105281Y138849D01*
X105329Y138717D01*
X105381Y138587D01*
X105436Y138458D01*
X105495Y138331D01*
X105558Y138205D01*
X105624Y138081D01*
X105693Y137960D01*
X105766Y137840D01*
X105843Y137722D01*
X105922Y137607D01*
X106005Y137493D01*
X106091Y137383D01*
X106180Y137274D01*
X106272Y137168D01*
X106367Y137065D01*
X106464Y136964D01*
X106565Y136867D01*
X106668Y136772D01*
X106774Y136680D01*
X106883Y136591D01*
X106993Y136505D01*
X107107Y136422D01*
X107222Y136343D01*
X107340Y136266D01*
X107460Y136193D01*
X107581Y136124D01*
X107705Y136058D01*
X107831Y135995D01*
X107958Y135936D01*
X108087Y135881D01*
X108217Y135829D01*
X108349Y135781D01*
X108482Y135736D01*
X108616Y135695D01*
X108751Y135658D01*
X108887Y135625D01*
X109025Y135596D01*
X109162Y135571D01*
X109301Y135549D01*
X109440Y135531D01*
X109580Y135518D01*
X109720Y135508D01*
X109860Y135502D01*
X110000Y135500D01*
X110140Y135502D01*
X110280Y135508D01*
X110420Y135518D01*
X110560Y135531D01*
X110699Y135549D01*
X110838Y135571D01*
X110975Y135596D01*
X111113Y135625D01*
X111249Y135658D01*
X111384Y135695D01*
X111518Y135736D01*
X111651Y135781D01*
X111783Y135829D01*
X111913Y135881D01*
X112042Y135936D01*
X112169Y135995D01*
X112295Y136058D01*
X112419Y136124D01*
X112540Y136193D01*
X112660Y136266D01*
X112778Y136343D01*
X112893Y136422D01*
X113007Y136505D01*
X113117Y136591D01*
X113226Y136680D01*
X113332Y136772D01*
X113435Y136867D01*
X113536Y136964D01*
X113633Y137065D01*
X113728Y137168D01*
X113820Y137274D01*
X113909Y137383D01*
X113995Y137493D01*
X114078Y137607D01*
X114157Y137722D01*
X114234Y137840D01*
X114307Y137960D01*
X114376Y138081D01*
X114442Y138205D01*
X114505Y138331D01*
X114564Y138458D01*
X114619Y138587D01*
X114671Y138717D01*
X114719Y138849D01*
X114764Y138982D01*
X114805Y139116D01*
X114842Y139251D01*
X114875Y139387D01*
X114904Y139525D01*
X114929Y139662D01*
X114951Y139801D01*
X114969Y139940D01*
X114982Y140080D01*
X114992Y140220D01*
X114998Y140360D01*
X115000Y140500D01*
X115000Y147500D01*
D10*
X118870Y172635D02*
X118870Y179365D01*
X117000Y179365D01*
X116915Y179363D01*
X116830Y179357D01*
X116746Y179348D01*
X116661Y179334D01*
X116578Y179317D01*
X116496Y179296D01*
X116414Y179271D01*
X116334Y179242D01*
X116255Y179210D01*
X116178Y179175D01*
X116103Y179135D01*
X116029Y179093D01*
X115957Y179047D01*
X115888Y178998D01*
X115820Y178946D01*
X115756Y178891D01*
X115694Y178833D01*
X115634Y178772D01*
X115577Y178708D01*
X115524Y178642D01*
X115473Y178574D01*
X115426Y178503D01*
X115381Y178431D01*
X115341Y178356D01*
X115303Y178279D01*
X115269Y178201D01*
X115239Y178122D01*
X115212Y178041D01*
X115189Y177959D01*
X115170Y177876D01*
X115155Y177793D01*
X115143Y177708D01*
X115135Y177624D01*
X115131Y177539D01*
X115131Y177453D01*
X115135Y177368D01*
X115143Y177284D01*
X115155Y177199D01*
X115170Y177116D01*
X115189Y177033D01*
X115212Y176951D01*
X115239Y176870D01*
X115269Y176791D01*
X115303Y176713D01*
X115341Y176636D01*
X115381Y176562D01*
X115426Y176489D01*
X115473Y176418D01*
X115524Y176350D01*
X115577Y176284D01*
X115634Y176220D01*
X115694Y176159D01*
X115756Y176101D01*
X115820Y176046D01*
X115888Y175994D01*
X115957Y175945D01*
X116029Y175899D01*
X116103Y175857D01*
X116178Y175817D01*
X116255Y175782D01*
X116334Y175750D01*
X116414Y175721D01*
X116496Y175696D01*
X116578Y175675D01*
X116661Y175658D01*
X116746Y175644D01*
X116830Y175635D01*
X116915Y175629D01*
X117000Y175627D01*
X117000Y175626D02*
X118870Y175626D01*
X112069Y177869D02*
X110200Y179365D01*
X110200Y172635D01*
X112069Y172635D02*
X108330Y172635D01*
X103374Y175626D02*
X101130Y175626D01*
X103374Y175626D02*
X103450Y175628D01*
X103525Y175634D01*
X103601Y175643D01*
X103675Y175657D01*
X103749Y175674D01*
X103822Y175695D01*
X103894Y175719D01*
X103964Y175747D01*
X104033Y175779D01*
X104100Y175814D01*
X104165Y175852D01*
X104229Y175894D01*
X104290Y175939D01*
X104348Y175987D01*
X104405Y176038D01*
X104458Y176091D01*
X104509Y176148D01*
X104557Y176206D01*
X104602Y176267D01*
X104644Y176331D01*
X104682Y176396D01*
X104717Y176463D01*
X104749Y176532D01*
X104777Y176602D01*
X104801Y176674D01*
X104822Y176747D01*
X104839Y176821D01*
X104853Y176895D01*
X104862Y176971D01*
X104868Y177046D01*
X104870Y177122D01*
X104869Y177122D02*
X104869Y177496D01*
X104867Y177581D01*
X104861Y177666D01*
X104852Y177750D01*
X104838Y177835D01*
X104821Y177918D01*
X104800Y178000D01*
X104775Y178082D01*
X104746Y178162D01*
X104714Y178241D01*
X104679Y178318D01*
X104639Y178393D01*
X104597Y178467D01*
X104551Y178539D01*
X104502Y178608D01*
X104450Y178676D01*
X104395Y178740D01*
X104337Y178802D01*
X104276Y178862D01*
X104212Y178919D01*
X104146Y178972D01*
X104078Y179023D01*
X104007Y179070D01*
X103935Y179115D01*
X103860Y179155D01*
X103783Y179193D01*
X103705Y179227D01*
X103626Y179257D01*
X103545Y179284D01*
X103463Y179307D01*
X103380Y179326D01*
X103297Y179341D01*
X103212Y179353D01*
X103128Y179361D01*
X103043Y179365D01*
X102957Y179365D01*
X102872Y179361D01*
X102788Y179353D01*
X102703Y179341D01*
X102620Y179326D01*
X102537Y179307D01*
X102455Y179284D01*
X102374Y179257D01*
X102295Y179227D01*
X102217Y179193D01*
X102140Y179155D01*
X102066Y179115D01*
X101993Y179070D01*
X101922Y179023D01*
X101854Y178972D01*
X101788Y178919D01*
X101724Y178862D01*
X101663Y178802D01*
X101605Y178740D01*
X101550Y178676D01*
X101498Y178608D01*
X101449Y178539D01*
X101403Y178467D01*
X101361Y178393D01*
X101321Y178318D01*
X101286Y178241D01*
X101254Y178162D01*
X101225Y178082D01*
X101200Y178000D01*
X101179Y177918D01*
X101162Y177835D01*
X101148Y177750D01*
X101139Y177666D01*
X101133Y177581D01*
X101131Y177496D01*
X101130Y177496D02*
X101130Y175626D01*
X101132Y175519D01*
X101138Y175413D01*
X101147Y175306D01*
X101160Y175200D01*
X101178Y175095D01*
X101198Y174990D01*
X101223Y174886D01*
X101251Y174783D01*
X101283Y174681D01*
X101319Y174581D01*
X101358Y174481D01*
X101400Y174383D01*
X101446Y174287D01*
X101496Y174193D01*
X101549Y174100D01*
X101605Y174009D01*
X101664Y173920D01*
X101727Y173834D01*
X101792Y173749D01*
X101861Y173667D01*
X101932Y173588D01*
X102006Y173511D01*
X102083Y173437D01*
X102162Y173366D01*
X102244Y173297D01*
X102329Y173232D01*
X102415Y173169D01*
X102504Y173110D01*
X102595Y173054D01*
X102688Y173001D01*
X102782Y172951D01*
X102878Y172905D01*
X102976Y172863D01*
X103076Y172824D01*
X103176Y172788D01*
X103278Y172756D01*
X103381Y172728D01*
X103485Y172703D01*
X103590Y172683D01*
X103695Y172665D01*
X103801Y172652D01*
X103908Y172643D01*
X104014Y172637D01*
X104121Y172635D01*
D12*
X117000Y91500D02*
X117002Y91640D01*
X117008Y91780D01*
X117018Y91920D01*
X117031Y92060D01*
X117049Y92199D01*
X117071Y92338D01*
X117096Y92475D01*
X117125Y92613D01*
X117158Y92749D01*
X117195Y92884D01*
X117236Y93018D01*
X117281Y93151D01*
X117329Y93283D01*
X117381Y93413D01*
X117436Y93542D01*
X117495Y93669D01*
X117558Y93795D01*
X117624Y93919D01*
X117693Y94040D01*
X117766Y94160D01*
X117843Y94278D01*
X117922Y94393D01*
X118005Y94507D01*
X118091Y94617D01*
X118180Y94726D01*
X118272Y94832D01*
X118367Y94935D01*
X118464Y95036D01*
X118565Y95133D01*
X118668Y95228D01*
X118774Y95320D01*
X118883Y95409D01*
X118993Y95495D01*
X119107Y95578D01*
X119222Y95657D01*
X119340Y95734D01*
X119460Y95807D01*
X119581Y95876D01*
X119705Y95942D01*
X119831Y96005D01*
X119958Y96064D01*
X120087Y96119D01*
X120217Y96171D01*
X120349Y96219D01*
X120482Y96264D01*
X120616Y96305D01*
X120751Y96342D01*
X120887Y96375D01*
X121025Y96404D01*
X121162Y96429D01*
X121301Y96451D01*
X121440Y96469D01*
X121580Y96482D01*
X121720Y96492D01*
X121860Y96498D01*
X122000Y96500D01*
X122140Y96498D01*
X122280Y96492D01*
X122420Y96482D01*
X122560Y96469D01*
X122699Y96451D01*
X122838Y96429D01*
X122975Y96404D01*
X123113Y96375D01*
X123249Y96342D01*
X123384Y96305D01*
X123518Y96264D01*
X123651Y96219D01*
X123783Y96171D01*
X123913Y96119D01*
X124042Y96064D01*
X124169Y96005D01*
X124295Y95942D01*
X124419Y95876D01*
X124540Y95807D01*
X124660Y95734D01*
X124778Y95657D01*
X124893Y95578D01*
X125007Y95495D01*
X125117Y95409D01*
X125226Y95320D01*
X125332Y95228D01*
X125435Y95133D01*
X125536Y95036D01*
X125633Y94935D01*
X125728Y94832D01*
X125820Y94726D01*
X125909Y94617D01*
X125995Y94507D01*
X126078Y94393D01*
X126157Y94278D01*
X126234Y94160D01*
X126307Y94040D01*
X126376Y93919D01*
X126442Y93795D01*
X126505Y93669D01*
X126564Y93542D01*
X126619Y93413D01*
X126671Y93283D01*
X126719Y93151D01*
X126764Y93018D01*
X126805Y92884D01*
X126842Y92749D01*
X126875Y92613D01*
X126904Y92475D01*
X126929Y92338D01*
X126951Y92199D01*
X126969Y92060D01*
X126982Y91920D01*
X126992Y91780D01*
X126998Y91640D01*
X127000Y91500D01*
X117000Y91500D02*
X117000Y84500D01*
X117002Y84360D01*
X117008Y84220D01*
X117018Y84080D01*
X117031Y83940D01*
X117049Y83801D01*
X117071Y83662D01*
X117096Y83525D01*
X117125Y83387D01*
X117158Y83251D01*
X117195Y83116D01*
X117236Y82982D01*
X117281Y82849D01*
X117329Y82717D01*
X117381Y82587D01*
X117436Y82458D01*
X117495Y82331D01*
X117558Y82205D01*
X117624Y82081D01*
X117693Y81960D01*
X117766Y81840D01*
X117843Y81722D01*
X117922Y81607D01*
X118005Y81493D01*
X118091Y81383D01*
X118180Y81274D01*
X118272Y81168D01*
X118367Y81065D01*
X118464Y80964D01*
X118565Y80867D01*
X118668Y80772D01*
X118774Y80680D01*
X118883Y80591D01*
X118993Y80505D01*
X119107Y80422D01*
X119222Y80343D01*
X119340Y80266D01*
X119460Y80193D01*
X119581Y80124D01*
X119705Y80058D01*
X119831Y79995D01*
X119958Y79936D01*
X120087Y79881D01*
X120217Y79829D01*
X120349Y79781D01*
X120482Y79736D01*
X120616Y79695D01*
X120751Y79658D01*
X120887Y79625D01*
X121025Y79596D01*
X121162Y79571D01*
X121301Y79549D01*
X121440Y79531D01*
X121580Y79518D01*
X121720Y79508D01*
X121860Y79502D01*
X122000Y79500D01*
X122140Y79502D01*
X122280Y79508D01*
X122420Y79518D01*
X122560Y79531D01*
X122699Y79549D01*
X122838Y79571D01*
X122975Y79596D01*
X123113Y79625D01*
X123249Y79658D01*
X123384Y79695D01*
X123518Y79736D01*
X123651Y79781D01*
X123783Y79829D01*
X123913Y79881D01*
X124042Y79936D01*
X124169Y79995D01*
X124295Y80058D01*
X124419Y80124D01*
X124540Y80193D01*
X124660Y80266D01*
X124778Y80343D01*
X124893Y80422D01*
X125007Y80505D01*
X125117Y80591D01*
X125226Y80680D01*
X125332Y80772D01*
X125435Y80867D01*
X125536Y80964D01*
X125633Y81065D01*
X125728Y81168D01*
X125820Y81274D01*
X125909Y81383D01*
X125995Y81493D01*
X126078Y81607D01*
X126157Y81722D01*
X126234Y81840D01*
X126307Y81960D01*
X126376Y82081D01*
X126442Y82205D01*
X126505Y82331D01*
X126564Y82458D01*
X126619Y82587D01*
X126671Y82717D01*
X126719Y82849D01*
X126764Y82982D01*
X126805Y83116D01*
X126842Y83251D01*
X126875Y83387D01*
X126904Y83525D01*
X126929Y83662D01*
X126951Y83801D01*
X126969Y83940D01*
X126982Y84080D01*
X126992Y84220D01*
X126998Y84360D01*
X127000Y84500D01*
X127000Y91500D01*
D10*
X116270Y99635D02*
X116270Y106365D01*
X114400Y106365D01*
X114315Y106363D01*
X114230Y106357D01*
X114146Y106348D01*
X114061Y106334D01*
X113978Y106317D01*
X113896Y106296D01*
X113814Y106271D01*
X113734Y106242D01*
X113655Y106210D01*
X113578Y106175D01*
X113503Y106135D01*
X113429Y106093D01*
X113357Y106047D01*
X113288Y105998D01*
X113220Y105946D01*
X113156Y105891D01*
X113094Y105833D01*
X113034Y105772D01*
X112977Y105708D01*
X112924Y105642D01*
X112873Y105574D01*
X112826Y105503D01*
X112781Y105431D01*
X112741Y105356D01*
X112703Y105279D01*
X112669Y105201D01*
X112639Y105122D01*
X112612Y105041D01*
X112589Y104959D01*
X112570Y104876D01*
X112555Y104793D01*
X112543Y104708D01*
X112535Y104624D01*
X112531Y104539D01*
X112531Y104453D01*
X112535Y104368D01*
X112543Y104284D01*
X112555Y104199D01*
X112570Y104116D01*
X112589Y104033D01*
X112612Y103951D01*
X112639Y103870D01*
X112669Y103791D01*
X112703Y103713D01*
X112741Y103636D01*
X112781Y103562D01*
X112826Y103489D01*
X112873Y103418D01*
X112924Y103350D01*
X112977Y103284D01*
X113034Y103220D01*
X113094Y103159D01*
X113156Y103101D01*
X113220Y103046D01*
X113288Y102994D01*
X113357Y102945D01*
X113429Y102899D01*
X113503Y102857D01*
X113578Y102817D01*
X113655Y102782D01*
X113734Y102750D01*
X113814Y102721D01*
X113896Y102696D01*
X113978Y102675D01*
X114061Y102658D01*
X114146Y102644D01*
X114230Y102635D01*
X114315Y102629D01*
X114400Y102627D01*
X114400Y102626D02*
X116270Y102626D01*
X109469Y104869D02*
X107600Y106365D01*
X107600Y99635D01*
X109469Y99635D02*
X105730Y99635D01*
D12*
X297600Y159000D02*
X297602Y159140D01*
X297608Y159280D01*
X297618Y159420D01*
X297631Y159560D01*
X297649Y159699D01*
X297671Y159838D01*
X297696Y159975D01*
X297725Y160113D01*
X297758Y160249D01*
X297795Y160384D01*
X297836Y160518D01*
X297881Y160651D01*
X297929Y160783D01*
X297981Y160913D01*
X298036Y161042D01*
X298095Y161169D01*
X298158Y161295D01*
X298224Y161419D01*
X298293Y161540D01*
X298366Y161660D01*
X298443Y161778D01*
X298522Y161893D01*
X298605Y162007D01*
X298691Y162117D01*
X298780Y162226D01*
X298872Y162332D01*
X298967Y162435D01*
X299064Y162536D01*
X299165Y162633D01*
X299268Y162728D01*
X299374Y162820D01*
X299483Y162909D01*
X299593Y162995D01*
X299707Y163078D01*
X299822Y163157D01*
X299940Y163234D01*
X300060Y163307D01*
X300181Y163376D01*
X300305Y163442D01*
X300431Y163505D01*
X300558Y163564D01*
X300687Y163619D01*
X300817Y163671D01*
X300949Y163719D01*
X301082Y163764D01*
X301216Y163805D01*
X301351Y163842D01*
X301487Y163875D01*
X301625Y163904D01*
X301762Y163929D01*
X301901Y163951D01*
X302040Y163969D01*
X302180Y163982D01*
X302320Y163992D01*
X302460Y163998D01*
X302600Y164000D01*
X302740Y163998D01*
X302880Y163992D01*
X303020Y163982D01*
X303160Y163969D01*
X303299Y163951D01*
X303438Y163929D01*
X303575Y163904D01*
X303713Y163875D01*
X303849Y163842D01*
X303984Y163805D01*
X304118Y163764D01*
X304251Y163719D01*
X304383Y163671D01*
X304513Y163619D01*
X304642Y163564D01*
X304769Y163505D01*
X304895Y163442D01*
X305019Y163376D01*
X305140Y163307D01*
X305260Y163234D01*
X305378Y163157D01*
X305493Y163078D01*
X305607Y162995D01*
X305717Y162909D01*
X305826Y162820D01*
X305932Y162728D01*
X306035Y162633D01*
X306136Y162536D01*
X306233Y162435D01*
X306328Y162332D01*
X306420Y162226D01*
X306509Y162117D01*
X306595Y162007D01*
X306678Y161893D01*
X306757Y161778D01*
X306834Y161660D01*
X306907Y161540D01*
X306976Y161419D01*
X307042Y161295D01*
X307105Y161169D01*
X307164Y161042D01*
X307219Y160913D01*
X307271Y160783D01*
X307319Y160651D01*
X307364Y160518D01*
X307405Y160384D01*
X307442Y160249D01*
X307475Y160113D01*
X307504Y159975D01*
X307529Y159838D01*
X307551Y159699D01*
X307569Y159560D01*
X307582Y159420D01*
X307592Y159280D01*
X307598Y159140D01*
X307600Y159000D01*
X297600Y159000D02*
X297600Y157000D01*
X297602Y156860D01*
X297608Y156720D01*
X297618Y156580D01*
X297631Y156440D01*
X297649Y156301D01*
X297671Y156162D01*
X297696Y156025D01*
X297725Y155887D01*
X297758Y155751D01*
X297795Y155616D01*
X297836Y155482D01*
X297881Y155349D01*
X297929Y155217D01*
X297981Y155087D01*
X298036Y154958D01*
X298095Y154831D01*
X298158Y154705D01*
X298224Y154581D01*
X298293Y154460D01*
X298366Y154340D01*
X298443Y154222D01*
X298522Y154107D01*
X298605Y153993D01*
X298691Y153883D01*
X298780Y153774D01*
X298872Y153668D01*
X298967Y153565D01*
X299064Y153464D01*
X299165Y153367D01*
X299268Y153272D01*
X299374Y153180D01*
X299483Y153091D01*
X299593Y153005D01*
X299707Y152922D01*
X299822Y152843D01*
X299940Y152766D01*
X300060Y152693D01*
X300181Y152624D01*
X300305Y152558D01*
X300431Y152495D01*
X300558Y152436D01*
X300687Y152381D01*
X300817Y152329D01*
X300949Y152281D01*
X301082Y152236D01*
X301216Y152195D01*
X301351Y152158D01*
X301487Y152125D01*
X301625Y152096D01*
X301762Y152071D01*
X301901Y152049D01*
X302040Y152031D01*
X302180Y152018D01*
X302320Y152008D01*
X302460Y152002D01*
X302600Y152000D01*
X302740Y152002D01*
X302880Y152008D01*
X303020Y152018D01*
X303160Y152031D01*
X303299Y152049D01*
X303438Y152071D01*
X303575Y152096D01*
X303713Y152125D01*
X303849Y152158D01*
X303984Y152195D01*
X304118Y152236D01*
X304251Y152281D01*
X304383Y152329D01*
X304513Y152381D01*
X304642Y152436D01*
X304769Y152495D01*
X304895Y152558D01*
X305019Y152624D01*
X305140Y152693D01*
X305260Y152766D01*
X305378Y152843D01*
X305493Y152922D01*
X305607Y153005D01*
X305717Y153091D01*
X305826Y153180D01*
X305932Y153272D01*
X306035Y153367D01*
X306136Y153464D01*
X306233Y153565D01*
X306328Y153668D01*
X306420Y153774D01*
X306509Y153883D01*
X306595Y153993D01*
X306678Y154107D01*
X306757Y154222D01*
X306834Y154340D01*
X306907Y154460D01*
X306976Y154581D01*
X307042Y154705D01*
X307105Y154831D01*
X307164Y154958D01*
X307219Y155087D01*
X307271Y155217D01*
X307319Y155349D01*
X307364Y155482D01*
X307405Y155616D01*
X307442Y155751D01*
X307475Y155887D01*
X307504Y156025D01*
X307529Y156162D01*
X307551Y156301D01*
X307569Y156440D01*
X307582Y156580D01*
X307592Y156720D01*
X307598Y156860D01*
X307600Y157000D01*
X307600Y159000D01*
D10*
X310870Y166635D02*
X310870Y173365D01*
X309000Y173365D01*
X308915Y173363D01*
X308830Y173357D01*
X308746Y173348D01*
X308661Y173334D01*
X308578Y173317D01*
X308496Y173296D01*
X308414Y173271D01*
X308334Y173242D01*
X308255Y173210D01*
X308178Y173175D01*
X308103Y173135D01*
X308029Y173093D01*
X307957Y173047D01*
X307888Y172998D01*
X307820Y172946D01*
X307756Y172891D01*
X307694Y172833D01*
X307634Y172772D01*
X307577Y172708D01*
X307524Y172642D01*
X307473Y172574D01*
X307426Y172503D01*
X307381Y172431D01*
X307341Y172356D01*
X307303Y172279D01*
X307269Y172201D01*
X307239Y172122D01*
X307212Y172041D01*
X307189Y171959D01*
X307170Y171876D01*
X307155Y171793D01*
X307143Y171708D01*
X307135Y171624D01*
X307131Y171539D01*
X307131Y171453D01*
X307135Y171368D01*
X307143Y171284D01*
X307155Y171199D01*
X307170Y171116D01*
X307189Y171033D01*
X307212Y170951D01*
X307239Y170870D01*
X307269Y170791D01*
X307303Y170713D01*
X307341Y170636D01*
X307381Y170562D01*
X307426Y170489D01*
X307473Y170418D01*
X307524Y170350D01*
X307577Y170284D01*
X307634Y170220D01*
X307694Y170159D01*
X307756Y170101D01*
X307820Y170046D01*
X307888Y169994D01*
X307957Y169945D01*
X308029Y169899D01*
X308103Y169857D01*
X308178Y169817D01*
X308255Y169782D01*
X308334Y169750D01*
X308414Y169721D01*
X308496Y169696D01*
X308578Y169675D01*
X308661Y169658D01*
X308746Y169644D01*
X308830Y169635D01*
X308915Y169629D01*
X309000Y169627D01*
X309000Y169626D02*
X310870Y169626D01*
X304069Y166635D02*
X302200Y166635D01*
X302115Y166637D01*
X302030Y166643D01*
X301946Y166652D01*
X301861Y166666D01*
X301778Y166683D01*
X301696Y166704D01*
X301614Y166729D01*
X301534Y166758D01*
X301455Y166790D01*
X301378Y166825D01*
X301303Y166865D01*
X301229Y166907D01*
X301157Y166953D01*
X301088Y167002D01*
X301020Y167054D01*
X300956Y167109D01*
X300894Y167167D01*
X300834Y167228D01*
X300777Y167292D01*
X300724Y167358D01*
X300673Y167426D01*
X300626Y167497D01*
X300581Y167570D01*
X300541Y167644D01*
X300503Y167721D01*
X300469Y167799D01*
X300439Y167878D01*
X300412Y167959D01*
X300389Y168041D01*
X300370Y168124D01*
X300355Y168207D01*
X300343Y168292D01*
X300335Y168376D01*
X300331Y168461D01*
X300331Y168547D01*
X300335Y168632D01*
X300343Y168716D01*
X300355Y168801D01*
X300370Y168884D01*
X300389Y168967D01*
X300412Y169049D01*
X300439Y169130D01*
X300469Y169209D01*
X300503Y169287D01*
X300541Y169364D01*
X300581Y169439D01*
X300626Y169511D01*
X300673Y169582D01*
X300724Y169650D01*
X300777Y169716D01*
X300834Y169780D01*
X300894Y169841D01*
X300956Y169899D01*
X301020Y169954D01*
X301088Y170006D01*
X301157Y170055D01*
X301229Y170101D01*
X301303Y170143D01*
X301378Y170183D01*
X301455Y170218D01*
X301534Y170250D01*
X301614Y170279D01*
X301696Y170304D01*
X301778Y170325D01*
X301861Y170342D01*
X301946Y170356D01*
X302030Y170365D01*
X302115Y170371D01*
X302200Y170373D01*
X301826Y173365D02*
X304069Y173365D01*
X301826Y173365D02*
X301750Y173363D01*
X301675Y173357D01*
X301599Y173348D01*
X301525Y173334D01*
X301451Y173317D01*
X301378Y173296D01*
X301306Y173272D01*
X301236Y173244D01*
X301167Y173212D01*
X301100Y173177D01*
X301035Y173139D01*
X300971Y173097D01*
X300910Y173052D01*
X300852Y173004D01*
X300795Y172953D01*
X300742Y172900D01*
X300691Y172843D01*
X300643Y172785D01*
X300598Y172724D01*
X300556Y172660D01*
X300518Y172595D01*
X300483Y172528D01*
X300451Y172459D01*
X300423Y172389D01*
X300399Y172317D01*
X300378Y172244D01*
X300361Y172170D01*
X300347Y172096D01*
X300338Y172020D01*
X300332Y171945D01*
X300330Y171869D01*
X300332Y171793D01*
X300338Y171718D01*
X300347Y171642D01*
X300361Y171568D01*
X300378Y171494D01*
X300399Y171421D01*
X300423Y171349D01*
X300451Y171279D01*
X300483Y171210D01*
X300518Y171143D01*
X300556Y171078D01*
X300598Y171014D01*
X300643Y170953D01*
X300691Y170895D01*
X300742Y170838D01*
X300795Y170785D01*
X300852Y170734D01*
X300910Y170686D01*
X300971Y170641D01*
X301035Y170599D01*
X301100Y170561D01*
X301167Y170526D01*
X301236Y170494D01*
X301306Y170466D01*
X301378Y170442D01*
X301451Y170421D01*
X301525Y170404D01*
X301599Y170390D01*
X301675Y170381D01*
X301750Y170375D01*
X301826Y170373D01*
X301826Y170374D02*
X303321Y170374D01*
D12*
X308600Y159000D02*
X308602Y159140D01*
X308608Y159280D01*
X308618Y159420D01*
X308631Y159560D01*
X308649Y159699D01*
X308671Y159838D01*
X308696Y159975D01*
X308725Y160113D01*
X308758Y160249D01*
X308795Y160384D01*
X308836Y160518D01*
X308881Y160651D01*
X308929Y160783D01*
X308981Y160913D01*
X309036Y161042D01*
X309095Y161169D01*
X309158Y161295D01*
X309224Y161419D01*
X309293Y161540D01*
X309366Y161660D01*
X309443Y161778D01*
X309522Y161893D01*
X309605Y162007D01*
X309691Y162117D01*
X309780Y162226D01*
X309872Y162332D01*
X309967Y162435D01*
X310064Y162536D01*
X310165Y162633D01*
X310268Y162728D01*
X310374Y162820D01*
X310483Y162909D01*
X310593Y162995D01*
X310707Y163078D01*
X310822Y163157D01*
X310940Y163234D01*
X311060Y163307D01*
X311181Y163376D01*
X311305Y163442D01*
X311431Y163505D01*
X311558Y163564D01*
X311687Y163619D01*
X311817Y163671D01*
X311949Y163719D01*
X312082Y163764D01*
X312216Y163805D01*
X312351Y163842D01*
X312487Y163875D01*
X312625Y163904D01*
X312762Y163929D01*
X312901Y163951D01*
X313040Y163969D01*
X313180Y163982D01*
X313320Y163992D01*
X313460Y163998D01*
X313600Y164000D01*
X313740Y163998D01*
X313880Y163992D01*
X314020Y163982D01*
X314160Y163969D01*
X314299Y163951D01*
X314438Y163929D01*
X314575Y163904D01*
X314713Y163875D01*
X314849Y163842D01*
X314984Y163805D01*
X315118Y163764D01*
X315251Y163719D01*
X315383Y163671D01*
X315513Y163619D01*
X315642Y163564D01*
X315769Y163505D01*
X315895Y163442D01*
X316019Y163376D01*
X316140Y163307D01*
X316260Y163234D01*
X316378Y163157D01*
X316493Y163078D01*
X316607Y162995D01*
X316717Y162909D01*
X316826Y162820D01*
X316932Y162728D01*
X317035Y162633D01*
X317136Y162536D01*
X317233Y162435D01*
X317328Y162332D01*
X317420Y162226D01*
X317509Y162117D01*
X317595Y162007D01*
X317678Y161893D01*
X317757Y161778D01*
X317834Y161660D01*
X317907Y161540D01*
X317976Y161419D01*
X318042Y161295D01*
X318105Y161169D01*
X318164Y161042D01*
X318219Y160913D01*
X318271Y160783D01*
X318319Y160651D01*
X318364Y160518D01*
X318405Y160384D01*
X318442Y160249D01*
X318475Y160113D01*
X318504Y159975D01*
X318529Y159838D01*
X318551Y159699D01*
X318569Y159560D01*
X318582Y159420D01*
X318592Y159280D01*
X318598Y159140D01*
X318600Y159000D01*
X308600Y159000D02*
X308600Y157000D01*
X308602Y156860D01*
X308608Y156720D01*
X308618Y156580D01*
X308631Y156440D01*
X308649Y156301D01*
X308671Y156162D01*
X308696Y156025D01*
X308725Y155887D01*
X308758Y155751D01*
X308795Y155616D01*
X308836Y155482D01*
X308881Y155349D01*
X308929Y155217D01*
X308981Y155087D01*
X309036Y154958D01*
X309095Y154831D01*
X309158Y154705D01*
X309224Y154581D01*
X309293Y154460D01*
X309366Y154340D01*
X309443Y154222D01*
X309522Y154107D01*
X309605Y153993D01*
X309691Y153883D01*
X309780Y153774D01*
X309872Y153668D01*
X309967Y153565D01*
X310064Y153464D01*
X310165Y153367D01*
X310268Y153272D01*
X310374Y153180D01*
X310483Y153091D01*
X310593Y153005D01*
X310707Y152922D01*
X310822Y152843D01*
X310940Y152766D01*
X311060Y152693D01*
X311181Y152624D01*
X311305Y152558D01*
X311431Y152495D01*
X311558Y152436D01*
X311687Y152381D01*
X311817Y152329D01*
X311949Y152281D01*
X312082Y152236D01*
X312216Y152195D01*
X312351Y152158D01*
X312487Y152125D01*
X312625Y152096D01*
X312762Y152071D01*
X312901Y152049D01*
X313040Y152031D01*
X313180Y152018D01*
X313320Y152008D01*
X313460Y152002D01*
X313600Y152000D01*
X313740Y152002D01*
X313880Y152008D01*
X314020Y152018D01*
X314160Y152031D01*
X314299Y152049D01*
X314438Y152071D01*
X314575Y152096D01*
X314713Y152125D01*
X314849Y152158D01*
X314984Y152195D01*
X315118Y152236D01*
X315251Y152281D01*
X315383Y152329D01*
X315513Y152381D01*
X315642Y152436D01*
X315769Y152495D01*
X315895Y152558D01*
X316019Y152624D01*
X316140Y152693D01*
X316260Y152766D01*
X316378Y152843D01*
X316493Y152922D01*
X316607Y153005D01*
X316717Y153091D01*
X316826Y153180D01*
X316932Y153272D01*
X317035Y153367D01*
X317136Y153464D01*
X317233Y153565D01*
X317328Y153668D01*
X317420Y153774D01*
X317509Y153883D01*
X317595Y153993D01*
X317678Y154107D01*
X317757Y154222D01*
X317834Y154340D01*
X317907Y154460D01*
X317976Y154581D01*
X318042Y154705D01*
X318105Y154831D01*
X318164Y154958D01*
X318219Y155087D01*
X318271Y155217D01*
X318319Y155349D01*
X318364Y155482D01*
X318405Y155616D01*
X318442Y155751D01*
X318475Y155887D01*
X318504Y156025D01*
X318529Y156162D01*
X318551Y156301D01*
X318569Y156440D01*
X318582Y156580D01*
X318592Y156720D01*
X318598Y156860D01*
X318600Y157000D01*
X318600Y159000D01*
D10*
X325870Y166635D02*
X325870Y173365D01*
X324000Y173365D01*
X323915Y173363D01*
X323830Y173357D01*
X323746Y173348D01*
X323661Y173334D01*
X323578Y173317D01*
X323496Y173296D01*
X323414Y173271D01*
X323334Y173242D01*
X323255Y173210D01*
X323178Y173175D01*
X323103Y173135D01*
X323029Y173093D01*
X322957Y173047D01*
X322888Y172998D01*
X322820Y172946D01*
X322756Y172891D01*
X322694Y172833D01*
X322634Y172772D01*
X322577Y172708D01*
X322524Y172642D01*
X322473Y172574D01*
X322426Y172503D01*
X322381Y172431D01*
X322341Y172356D01*
X322303Y172279D01*
X322269Y172201D01*
X322239Y172122D01*
X322212Y172041D01*
X322189Y171959D01*
X322170Y171876D01*
X322155Y171793D01*
X322143Y171708D01*
X322135Y171624D01*
X322131Y171539D01*
X322131Y171453D01*
X322135Y171368D01*
X322143Y171284D01*
X322155Y171199D01*
X322170Y171116D01*
X322189Y171033D01*
X322212Y170951D01*
X322239Y170870D01*
X322269Y170791D01*
X322303Y170713D01*
X322341Y170636D01*
X322381Y170562D01*
X322426Y170489D01*
X322473Y170418D01*
X322524Y170350D01*
X322577Y170284D01*
X322634Y170220D01*
X322694Y170159D01*
X322756Y170101D01*
X322820Y170046D01*
X322888Y169994D01*
X322957Y169945D01*
X323029Y169899D01*
X323103Y169857D01*
X323178Y169817D01*
X323255Y169782D01*
X323334Y169750D01*
X323414Y169721D01*
X323496Y169696D01*
X323578Y169675D01*
X323661Y169658D01*
X323746Y169644D01*
X323830Y169635D01*
X323915Y169629D01*
X324000Y169627D01*
X324000Y169626D02*
X325870Y169626D01*
X319069Y168131D02*
X317574Y173365D01*
X319069Y168131D02*
X315330Y168131D01*
X316452Y169626D02*
X316452Y166635D01*
D12*
X137000Y91500D02*
X136998Y91640D01*
X136992Y91780D01*
X136982Y91920D01*
X136969Y92060D01*
X136951Y92199D01*
X136929Y92338D01*
X136904Y92475D01*
X136875Y92613D01*
X136842Y92749D01*
X136805Y92884D01*
X136764Y93018D01*
X136719Y93151D01*
X136671Y93283D01*
X136619Y93413D01*
X136564Y93542D01*
X136505Y93669D01*
X136442Y93795D01*
X136376Y93919D01*
X136307Y94040D01*
X136234Y94160D01*
X136157Y94278D01*
X136078Y94393D01*
X135995Y94507D01*
X135909Y94617D01*
X135820Y94726D01*
X135728Y94832D01*
X135633Y94935D01*
X135536Y95036D01*
X135435Y95133D01*
X135332Y95228D01*
X135226Y95320D01*
X135117Y95409D01*
X135007Y95495D01*
X134893Y95578D01*
X134778Y95657D01*
X134660Y95734D01*
X134540Y95807D01*
X134419Y95876D01*
X134295Y95942D01*
X134169Y96005D01*
X134042Y96064D01*
X133913Y96119D01*
X133783Y96171D01*
X133651Y96219D01*
X133518Y96264D01*
X133384Y96305D01*
X133249Y96342D01*
X133113Y96375D01*
X132975Y96404D01*
X132838Y96429D01*
X132699Y96451D01*
X132560Y96469D01*
X132420Y96482D01*
X132280Y96492D01*
X132140Y96498D01*
X132000Y96500D01*
X131860Y96498D01*
X131720Y96492D01*
X131580Y96482D01*
X131440Y96469D01*
X131301Y96451D01*
X131162Y96429D01*
X131025Y96404D01*
X130887Y96375D01*
X130751Y96342D01*
X130616Y96305D01*
X130482Y96264D01*
X130349Y96219D01*
X130217Y96171D01*
X130087Y96119D01*
X129958Y96064D01*
X129831Y96005D01*
X129705Y95942D01*
X129581Y95876D01*
X129460Y95807D01*
X129340Y95734D01*
X129222Y95657D01*
X129107Y95578D01*
X128993Y95495D01*
X128883Y95409D01*
X128774Y95320D01*
X128668Y95228D01*
X128565Y95133D01*
X128464Y95036D01*
X128367Y94935D01*
X128272Y94832D01*
X128180Y94726D01*
X128091Y94617D01*
X128005Y94507D01*
X127922Y94393D01*
X127843Y94278D01*
X127766Y94160D01*
X127693Y94040D01*
X127624Y93919D01*
X127558Y93795D01*
X127495Y93669D01*
X127436Y93542D01*
X127381Y93413D01*
X127329Y93283D01*
X127281Y93151D01*
X127236Y93018D01*
X127195Y92884D01*
X127158Y92749D01*
X127125Y92613D01*
X127096Y92475D01*
X127071Y92338D01*
X127049Y92199D01*
X127031Y92060D01*
X127018Y91920D01*
X127008Y91780D01*
X127002Y91640D01*
X127000Y91500D01*
X127000Y84500D01*
X127002Y84360D01*
X127008Y84220D01*
X127018Y84080D01*
X127031Y83940D01*
X127049Y83801D01*
X127071Y83662D01*
X127096Y83525D01*
X127125Y83387D01*
X127158Y83251D01*
X127195Y83116D01*
X127236Y82982D01*
X127281Y82849D01*
X127329Y82717D01*
X127381Y82587D01*
X127436Y82458D01*
X127495Y82331D01*
X127558Y82205D01*
X127624Y82081D01*
X127693Y81960D01*
X127766Y81840D01*
X127843Y81722D01*
X127922Y81607D01*
X128005Y81493D01*
X128091Y81383D01*
X128180Y81274D01*
X128272Y81168D01*
X128367Y81065D01*
X128464Y80964D01*
X128565Y80867D01*
X128668Y80772D01*
X128774Y80680D01*
X128883Y80591D01*
X128993Y80505D01*
X129107Y80422D01*
X129222Y80343D01*
X129340Y80266D01*
X129460Y80193D01*
X129581Y80124D01*
X129705Y80058D01*
X129831Y79995D01*
X129958Y79936D01*
X130087Y79881D01*
X130217Y79829D01*
X130349Y79781D01*
X130482Y79736D01*
X130616Y79695D01*
X130751Y79658D01*
X130887Y79625D01*
X131025Y79596D01*
X131162Y79571D01*
X131301Y79549D01*
X131440Y79531D01*
X131580Y79518D01*
X131720Y79508D01*
X131860Y79502D01*
X132000Y79500D01*
X132140Y79502D01*
X132280Y79508D01*
X132420Y79518D01*
X132560Y79531D01*
X132699Y79549D01*
X132838Y79571D01*
X132975Y79596D01*
X133113Y79625D01*
X133249Y79658D01*
X133384Y79695D01*
X133518Y79736D01*
X133651Y79781D01*
X133783Y79829D01*
X133913Y79881D01*
X134042Y79936D01*
X134169Y79995D01*
X134295Y80058D01*
X134419Y80124D01*
X134540Y80193D01*
X134660Y80266D01*
X134778Y80343D01*
X134893Y80422D01*
X135007Y80505D01*
X135117Y80591D01*
X135226Y80680D01*
X135332Y80772D01*
X135435Y80867D01*
X135536Y80964D01*
X135633Y81065D01*
X135728Y81168D01*
X135820Y81274D01*
X135909Y81383D01*
X135995Y81493D01*
X136078Y81607D01*
X136157Y81722D01*
X136234Y81840D01*
X136307Y81960D01*
X136376Y82081D01*
X136442Y82205D01*
X136505Y82331D01*
X136564Y82458D01*
X136619Y82587D01*
X136671Y82717D01*
X136719Y82849D01*
X136764Y82982D01*
X136805Y83116D01*
X136842Y83251D01*
X136875Y83387D01*
X136904Y83525D01*
X136929Y83662D01*
X136951Y83801D01*
X136969Y83940D01*
X136982Y84080D01*
X136992Y84220D01*
X136998Y84360D01*
X137000Y84500D01*
X137000Y91500D01*
D10*
X143270Y99635D02*
X143270Y106365D01*
X141400Y106365D01*
X141315Y106363D01*
X141230Y106357D01*
X141146Y106348D01*
X141061Y106334D01*
X140978Y106317D01*
X140896Y106296D01*
X140814Y106271D01*
X140734Y106242D01*
X140655Y106210D01*
X140578Y106175D01*
X140503Y106135D01*
X140429Y106093D01*
X140357Y106047D01*
X140288Y105998D01*
X140220Y105946D01*
X140156Y105891D01*
X140094Y105833D01*
X140034Y105772D01*
X139977Y105708D01*
X139924Y105642D01*
X139873Y105574D01*
X139826Y105503D01*
X139781Y105431D01*
X139741Y105356D01*
X139703Y105279D01*
X139669Y105201D01*
X139639Y105122D01*
X139612Y105041D01*
X139589Y104959D01*
X139570Y104876D01*
X139555Y104793D01*
X139543Y104708D01*
X139535Y104624D01*
X139531Y104539D01*
X139531Y104453D01*
X139535Y104368D01*
X139543Y104284D01*
X139555Y104199D01*
X139570Y104116D01*
X139589Y104033D01*
X139612Y103951D01*
X139639Y103870D01*
X139669Y103791D01*
X139703Y103713D01*
X139741Y103636D01*
X139781Y103562D01*
X139826Y103489D01*
X139873Y103418D01*
X139924Y103350D01*
X139977Y103284D01*
X140034Y103220D01*
X140094Y103159D01*
X140156Y103101D01*
X140220Y103046D01*
X140288Y102994D01*
X140357Y102945D01*
X140429Y102899D01*
X140503Y102857D01*
X140578Y102817D01*
X140655Y102782D01*
X140734Y102750D01*
X140814Y102721D01*
X140896Y102696D01*
X140978Y102675D01*
X141061Y102658D01*
X141146Y102644D01*
X141230Y102635D01*
X141315Y102629D01*
X141400Y102627D01*
X141400Y102626D02*
X143270Y102626D01*
X136469Y99635D02*
X134226Y99635D01*
X134150Y99637D01*
X134075Y99643D01*
X133999Y99652D01*
X133925Y99666D01*
X133851Y99683D01*
X133778Y99704D01*
X133706Y99728D01*
X133636Y99756D01*
X133567Y99788D01*
X133500Y99823D01*
X133435Y99861D01*
X133371Y99903D01*
X133310Y99948D01*
X133252Y99996D01*
X133195Y100047D01*
X133142Y100100D01*
X133091Y100157D01*
X133043Y100215D01*
X132998Y100276D01*
X132956Y100340D01*
X132918Y100405D01*
X132883Y100472D01*
X132851Y100541D01*
X132823Y100611D01*
X132799Y100683D01*
X132778Y100756D01*
X132761Y100830D01*
X132747Y100904D01*
X132738Y100980D01*
X132732Y101055D01*
X132730Y101131D01*
X132730Y101878D01*
X132732Y101954D01*
X132738Y102029D01*
X132747Y102105D01*
X132761Y102179D01*
X132778Y102253D01*
X132799Y102326D01*
X132823Y102398D01*
X132851Y102468D01*
X132883Y102537D01*
X132918Y102604D01*
X132956Y102669D01*
X132998Y102733D01*
X133043Y102794D01*
X133091Y102852D01*
X133142Y102909D01*
X133195Y102962D01*
X133252Y103013D01*
X133310Y103061D01*
X133371Y103106D01*
X133435Y103148D01*
X133500Y103186D01*
X133567Y103221D01*
X133636Y103253D01*
X133706Y103281D01*
X133778Y103305D01*
X133851Y103326D01*
X133925Y103343D01*
X133999Y103357D01*
X134075Y103366D01*
X134150Y103372D01*
X134226Y103374D01*
X136469Y103374D01*
X136469Y106365D01*
X132730Y106365D01*
D12*
X191000Y41600D02*
X201000Y41600D01*
X201000Y58800D02*
X191000Y58800D01*
D10*
X185365Y40811D02*
X180504Y40811D01*
X180419Y40813D01*
X180334Y40819D01*
X180250Y40828D01*
X180165Y40842D01*
X180082Y40859D01*
X180000Y40880D01*
X179918Y40905D01*
X179838Y40934D01*
X179759Y40966D01*
X179682Y41001D01*
X179607Y41041D01*
X179533Y41083D01*
X179461Y41129D01*
X179392Y41178D01*
X179324Y41230D01*
X179260Y41285D01*
X179198Y41343D01*
X179138Y41404D01*
X179081Y41468D01*
X179028Y41534D01*
X178977Y41602D01*
X178930Y41673D01*
X178885Y41746D01*
X178845Y41820D01*
X178807Y41897D01*
X178773Y41975D01*
X178743Y42054D01*
X178716Y42135D01*
X178693Y42217D01*
X178674Y42300D01*
X178659Y42383D01*
X178647Y42468D01*
X178639Y42552D01*
X178635Y42637D01*
X178635Y42723D01*
X178639Y42808D01*
X178647Y42892D01*
X178659Y42977D01*
X178674Y43060D01*
X178693Y43143D01*
X178716Y43225D01*
X178743Y43306D01*
X178773Y43385D01*
X178807Y43463D01*
X178845Y43540D01*
X178885Y43615D01*
X178930Y43687D01*
X178977Y43758D01*
X179028Y43826D01*
X179081Y43892D01*
X179138Y43956D01*
X179198Y44017D01*
X179260Y44075D01*
X179324Y44130D01*
X179392Y44182D01*
X179461Y44231D01*
X179533Y44277D01*
X179607Y44319D01*
X179682Y44359D01*
X179759Y44394D01*
X179838Y44426D01*
X179918Y44455D01*
X180000Y44480D01*
X180082Y44501D01*
X180165Y44518D01*
X180250Y44532D01*
X180334Y44541D01*
X180419Y44547D01*
X180504Y44549D01*
X185365Y44549D01*
X183869Y48251D02*
X185365Y50120D01*
X178635Y50120D01*
X178635Y48251D02*
X178635Y51989D01*
X181626Y56946D02*
X181626Y59189D01*
X181626Y56946D02*
X181628Y56870D01*
X181634Y56795D01*
X181643Y56719D01*
X181657Y56645D01*
X181674Y56571D01*
X181695Y56498D01*
X181719Y56426D01*
X181747Y56356D01*
X181779Y56287D01*
X181814Y56220D01*
X181852Y56155D01*
X181894Y56091D01*
X181939Y56030D01*
X181987Y55972D01*
X182038Y55915D01*
X182091Y55862D01*
X182148Y55811D01*
X182206Y55763D01*
X182267Y55718D01*
X182331Y55676D01*
X182396Y55638D01*
X182463Y55603D01*
X182532Y55571D01*
X182602Y55543D01*
X182674Y55519D01*
X182747Y55498D01*
X182821Y55481D01*
X182895Y55467D01*
X182971Y55458D01*
X183046Y55452D01*
X183122Y55450D01*
X183122Y55451D02*
X183496Y55451D01*
X183581Y55453D01*
X183666Y55459D01*
X183750Y55468D01*
X183835Y55482D01*
X183918Y55499D01*
X184000Y55520D01*
X184082Y55545D01*
X184162Y55574D01*
X184241Y55606D01*
X184318Y55641D01*
X184393Y55681D01*
X184467Y55723D01*
X184539Y55769D01*
X184608Y55818D01*
X184676Y55870D01*
X184740Y55925D01*
X184802Y55983D01*
X184862Y56044D01*
X184919Y56108D01*
X184972Y56174D01*
X185023Y56242D01*
X185070Y56313D01*
X185115Y56385D01*
X185155Y56460D01*
X185193Y56537D01*
X185227Y56615D01*
X185257Y56694D01*
X185284Y56775D01*
X185307Y56857D01*
X185326Y56940D01*
X185341Y57023D01*
X185353Y57108D01*
X185361Y57192D01*
X185365Y57277D01*
X185365Y57363D01*
X185361Y57448D01*
X185353Y57532D01*
X185341Y57617D01*
X185326Y57700D01*
X185307Y57783D01*
X185284Y57865D01*
X185257Y57946D01*
X185227Y58025D01*
X185193Y58103D01*
X185155Y58180D01*
X185115Y58254D01*
X185070Y58327D01*
X185023Y58398D01*
X184972Y58466D01*
X184919Y58532D01*
X184862Y58596D01*
X184802Y58657D01*
X184740Y58715D01*
X184676Y58770D01*
X184608Y58822D01*
X184539Y58871D01*
X184467Y58917D01*
X184393Y58959D01*
X184318Y58999D01*
X184241Y59034D01*
X184162Y59066D01*
X184082Y59095D01*
X184000Y59120D01*
X183918Y59141D01*
X183835Y59158D01*
X183750Y59172D01*
X183666Y59181D01*
X183581Y59187D01*
X183496Y59189D01*
X181626Y59189D01*
X181519Y59187D01*
X181413Y59181D01*
X181306Y59172D01*
X181200Y59159D01*
X181095Y59141D01*
X180990Y59121D01*
X180886Y59096D01*
X180783Y59068D01*
X180681Y59036D01*
X180581Y59000D01*
X180481Y58961D01*
X180383Y58919D01*
X180287Y58873D01*
X180193Y58823D01*
X180100Y58770D01*
X180009Y58714D01*
X179920Y58655D01*
X179834Y58592D01*
X179749Y58527D01*
X179667Y58458D01*
X179588Y58387D01*
X179511Y58313D01*
X179437Y58236D01*
X179366Y58157D01*
X179297Y58075D01*
X179232Y57990D01*
X179169Y57904D01*
X179110Y57815D01*
X179054Y57724D01*
X179001Y57631D01*
X178951Y57537D01*
X178905Y57441D01*
X178863Y57343D01*
X178824Y57243D01*
X178788Y57143D01*
X178756Y57041D01*
X178728Y56938D01*
X178703Y56834D01*
X178683Y56729D01*
X178665Y56624D01*
X178652Y56518D01*
X178643Y56411D01*
X178637Y56305D01*
X178635Y56198D01*
D12*
X191000Y80400D02*
X201000Y80400D01*
X201000Y63200D02*
X191000Y63200D01*
D10*
X185365Y62811D02*
X180504Y62811D01*
X180419Y62813D01*
X180334Y62819D01*
X180250Y62828D01*
X180165Y62842D01*
X180082Y62859D01*
X180000Y62880D01*
X179918Y62905D01*
X179838Y62934D01*
X179759Y62966D01*
X179682Y63001D01*
X179607Y63041D01*
X179533Y63083D01*
X179461Y63129D01*
X179392Y63178D01*
X179324Y63230D01*
X179260Y63285D01*
X179198Y63343D01*
X179138Y63404D01*
X179081Y63468D01*
X179028Y63534D01*
X178977Y63602D01*
X178930Y63673D01*
X178885Y63746D01*
X178845Y63820D01*
X178807Y63897D01*
X178773Y63975D01*
X178743Y64054D01*
X178716Y64135D01*
X178693Y64217D01*
X178674Y64300D01*
X178659Y64383D01*
X178647Y64468D01*
X178639Y64552D01*
X178635Y64637D01*
X178635Y64723D01*
X178639Y64808D01*
X178647Y64892D01*
X178659Y64977D01*
X178674Y65060D01*
X178693Y65143D01*
X178716Y65225D01*
X178743Y65306D01*
X178773Y65385D01*
X178807Y65463D01*
X178845Y65540D01*
X178885Y65615D01*
X178930Y65687D01*
X178977Y65758D01*
X179028Y65826D01*
X179081Y65892D01*
X179138Y65956D01*
X179198Y66017D01*
X179260Y66075D01*
X179324Y66130D01*
X179392Y66182D01*
X179461Y66231D01*
X179533Y66277D01*
X179607Y66319D01*
X179682Y66359D01*
X179759Y66394D01*
X179838Y66426D01*
X179918Y66455D01*
X180000Y66480D01*
X180082Y66501D01*
X180165Y66518D01*
X180250Y66532D01*
X180334Y66541D01*
X180419Y66547D01*
X180504Y66549D01*
X185365Y66549D01*
X185366Y72307D02*
X185364Y72387D01*
X185358Y72467D01*
X185349Y72547D01*
X185336Y72626D01*
X185319Y72704D01*
X185298Y72781D01*
X185273Y72857D01*
X185245Y72933D01*
X185214Y73006D01*
X185179Y73078D01*
X185141Y73149D01*
X185099Y73217D01*
X185054Y73283D01*
X185006Y73347D01*
X184955Y73409D01*
X184901Y73468D01*
X184844Y73525D01*
X184785Y73579D01*
X184723Y73630D01*
X184659Y73678D01*
X184593Y73723D01*
X184525Y73765D01*
X184454Y73803D01*
X184382Y73838D01*
X184309Y73869D01*
X184233Y73897D01*
X184157Y73922D01*
X184080Y73943D01*
X184002Y73960D01*
X183923Y73973D01*
X183843Y73982D01*
X183763Y73988D01*
X183683Y73990D01*
X185365Y72307D02*
X185363Y72216D01*
X185357Y72126D01*
X185348Y72036D01*
X185335Y71946D01*
X185318Y71857D01*
X185297Y71769D01*
X185273Y71682D01*
X185245Y71595D01*
X185213Y71511D01*
X185178Y71427D01*
X185139Y71345D01*
X185097Y71265D01*
X185052Y71186D01*
X185003Y71110D01*
X184951Y71035D01*
X184897Y70963D01*
X184839Y70893D01*
X184778Y70826D01*
X184715Y70761D01*
X184649Y70699D01*
X184580Y70640D01*
X184509Y70584D01*
X184436Y70531D01*
X184360Y70481D01*
X184282Y70434D01*
X184203Y70390D01*
X184122Y70350D01*
X184039Y70313D01*
X183955Y70280D01*
X183869Y70250D01*
X182374Y73428D02*
X182432Y73486D01*
X182492Y73541D01*
X182554Y73593D01*
X182619Y73642D01*
X182685Y73689D01*
X182754Y73732D01*
X182825Y73772D01*
X182897Y73809D01*
X182971Y73843D01*
X183047Y73873D01*
X183123Y73900D01*
X183201Y73924D01*
X183280Y73943D01*
X183360Y73960D01*
X183440Y73973D01*
X183521Y73982D01*
X183602Y73987D01*
X183683Y73989D01*
X182374Y73429D02*
X178635Y70251D01*
X178635Y73989D01*
X182000Y77451D02*
X182148Y77453D01*
X182296Y77459D01*
X182443Y77469D01*
X182591Y77483D01*
X182738Y77500D01*
X182884Y77522D01*
X183030Y77547D01*
X183175Y77577D01*
X183319Y77610D01*
X183462Y77647D01*
X183604Y77688D01*
X183746Y77733D01*
X183885Y77781D01*
X184024Y77833D01*
X184161Y77889D01*
X184296Y77949D01*
X184430Y78012D01*
X184431Y78012D02*
X184498Y78037D01*
X184563Y78065D01*
X184627Y78097D01*
X184690Y78132D01*
X184750Y78170D01*
X184808Y78211D01*
X184865Y78255D01*
X184918Y78302D01*
X184970Y78352D01*
X185018Y78404D01*
X185064Y78459D01*
X185107Y78516D01*
X185147Y78575D01*
X185184Y78637D01*
X185218Y78700D01*
X185248Y78764D01*
X185275Y78830D01*
X185299Y78898D01*
X185319Y78967D01*
X185336Y79036D01*
X185348Y79106D01*
X185358Y79177D01*
X185363Y79249D01*
X185365Y79320D01*
X185363Y79391D01*
X185358Y79463D01*
X185348Y79534D01*
X185336Y79604D01*
X185319Y79673D01*
X185299Y79742D01*
X185275Y79810D01*
X185248Y79876D01*
X185218Y79940D01*
X185184Y80003D01*
X185147Y80065D01*
X185107Y80124D01*
X185064Y80181D01*
X185018Y80236D01*
X184970Y80288D01*
X184918Y80338D01*
X184865Y80385D01*
X184808Y80429D01*
X184750Y80470D01*
X184689Y80508D01*
X184627Y80543D01*
X184563Y80575D01*
X184497Y80603D01*
X184430Y80628D01*
X184430Y80629D02*
X184296Y80692D01*
X184161Y80752D01*
X184024Y80808D01*
X183885Y80860D01*
X183746Y80908D01*
X183605Y80953D01*
X183462Y80994D01*
X183319Y81031D01*
X183175Y81064D01*
X183030Y81094D01*
X182884Y81119D01*
X182738Y81141D01*
X182591Y81158D01*
X182443Y81172D01*
X182296Y81182D01*
X182148Y81188D01*
X182000Y81190D01*
X182000Y77451D02*
X181852Y77453D01*
X181704Y77459D01*
X181557Y77469D01*
X181409Y77483D01*
X181262Y77500D01*
X181116Y77522D01*
X180970Y77547D01*
X180825Y77577D01*
X180681Y77610D01*
X180538Y77647D01*
X180396Y77688D01*
X180255Y77733D01*
X180115Y77781D01*
X179976Y77833D01*
X179839Y77889D01*
X179704Y77949D01*
X179570Y78012D01*
X179569Y78012D02*
X179502Y78037D01*
X179437Y78065D01*
X179373Y78097D01*
X179310Y78132D01*
X179250Y78170D01*
X179192Y78211D01*
X179135Y78255D01*
X179082Y78302D01*
X179030Y78352D01*
X178982Y78404D01*
X178936Y78459D01*
X178893Y78516D01*
X178853Y78575D01*
X178816Y78637D01*
X178782Y78700D01*
X178752Y78764D01*
X178725Y78830D01*
X178701Y78898D01*
X178681Y78967D01*
X178664Y79036D01*
X178652Y79106D01*
X178642Y79177D01*
X178637Y79249D01*
X178635Y79320D01*
X179570Y80628D02*
X179704Y80691D01*
X179839Y80751D01*
X179976Y80807D01*
X180115Y80859D01*
X180254Y80907D01*
X180395Y80952D01*
X180538Y80993D01*
X180681Y81030D01*
X180825Y81063D01*
X180970Y81093D01*
X181116Y81118D01*
X181262Y81140D01*
X181409Y81157D01*
X181557Y81171D01*
X181704Y81181D01*
X181852Y81187D01*
X182000Y81189D01*
X179569Y80628D02*
X179502Y80603D01*
X179437Y80575D01*
X179373Y80543D01*
X179310Y80508D01*
X179250Y80470D01*
X179192Y80429D01*
X179135Y80385D01*
X179082Y80338D01*
X179030Y80288D01*
X178982Y80236D01*
X178936Y80181D01*
X178893Y80124D01*
X178853Y80065D01*
X178816Y80003D01*
X178782Y79940D01*
X178752Y79876D01*
X178725Y79810D01*
X178701Y79742D01*
X178681Y79673D01*
X178664Y79604D01*
X178652Y79534D01*
X178642Y79463D01*
X178637Y79391D01*
X178635Y79320D01*
X180131Y77824D02*
X183869Y80816D01*
D12*
X191000Y106400D02*
X201000Y106400D01*
X201000Y89200D02*
X191000Y89200D01*
D10*
X185365Y88811D02*
X180504Y88811D01*
X180419Y88813D01*
X180334Y88819D01*
X180250Y88828D01*
X180165Y88842D01*
X180082Y88859D01*
X180000Y88880D01*
X179918Y88905D01*
X179838Y88934D01*
X179759Y88966D01*
X179682Y89001D01*
X179607Y89041D01*
X179533Y89083D01*
X179461Y89129D01*
X179392Y89178D01*
X179324Y89230D01*
X179260Y89285D01*
X179198Y89343D01*
X179138Y89404D01*
X179081Y89468D01*
X179028Y89534D01*
X178977Y89602D01*
X178930Y89673D01*
X178885Y89746D01*
X178845Y89820D01*
X178807Y89897D01*
X178773Y89975D01*
X178743Y90054D01*
X178716Y90135D01*
X178693Y90217D01*
X178674Y90300D01*
X178659Y90383D01*
X178647Y90468D01*
X178639Y90552D01*
X178635Y90637D01*
X178635Y90723D01*
X178639Y90808D01*
X178647Y90892D01*
X178659Y90977D01*
X178674Y91060D01*
X178693Y91143D01*
X178716Y91225D01*
X178743Y91306D01*
X178773Y91385D01*
X178807Y91463D01*
X178845Y91540D01*
X178885Y91615D01*
X178930Y91687D01*
X178977Y91758D01*
X179028Y91826D01*
X179081Y91892D01*
X179138Y91956D01*
X179198Y92017D01*
X179260Y92075D01*
X179324Y92130D01*
X179392Y92182D01*
X179461Y92231D01*
X179533Y92277D01*
X179607Y92319D01*
X179682Y92359D01*
X179759Y92394D01*
X179838Y92426D01*
X179918Y92455D01*
X180000Y92480D01*
X180082Y92501D01*
X180165Y92518D01*
X180250Y92532D01*
X180334Y92541D01*
X180419Y92547D01*
X180504Y92549D01*
X185365Y92549D01*
X185366Y98307D02*
X185364Y98387D01*
X185358Y98467D01*
X185349Y98547D01*
X185336Y98626D01*
X185319Y98704D01*
X185298Y98781D01*
X185273Y98857D01*
X185245Y98933D01*
X185214Y99006D01*
X185179Y99078D01*
X185141Y99149D01*
X185099Y99217D01*
X185054Y99283D01*
X185006Y99347D01*
X184955Y99409D01*
X184901Y99468D01*
X184844Y99525D01*
X184785Y99579D01*
X184723Y99630D01*
X184659Y99678D01*
X184593Y99723D01*
X184525Y99765D01*
X184454Y99803D01*
X184382Y99838D01*
X184309Y99869D01*
X184233Y99897D01*
X184157Y99922D01*
X184080Y99943D01*
X184002Y99960D01*
X183923Y99973D01*
X183843Y99982D01*
X183763Y99988D01*
X183683Y99990D01*
X185365Y98307D02*
X185363Y98216D01*
X185357Y98126D01*
X185348Y98036D01*
X185335Y97946D01*
X185318Y97857D01*
X185297Y97769D01*
X185273Y97682D01*
X185245Y97595D01*
X185213Y97511D01*
X185178Y97427D01*
X185139Y97345D01*
X185097Y97265D01*
X185052Y97186D01*
X185003Y97110D01*
X184951Y97035D01*
X184897Y96963D01*
X184839Y96893D01*
X184778Y96826D01*
X184715Y96761D01*
X184649Y96699D01*
X184580Y96640D01*
X184509Y96584D01*
X184436Y96531D01*
X184360Y96481D01*
X184282Y96434D01*
X184203Y96390D01*
X184122Y96350D01*
X184039Y96313D01*
X183955Y96280D01*
X183869Y96250D01*
X182374Y99428D02*
X182432Y99486D01*
X182492Y99541D01*
X182554Y99593D01*
X182619Y99642D01*
X182685Y99689D01*
X182754Y99732D01*
X182825Y99772D01*
X182897Y99809D01*
X182971Y99843D01*
X183047Y99873D01*
X183123Y99900D01*
X183201Y99924D01*
X183280Y99943D01*
X183360Y99960D01*
X183440Y99973D01*
X183521Y99982D01*
X183602Y99987D01*
X183683Y99989D01*
X182374Y99429D02*
X178635Y96251D01*
X178635Y99989D01*
X183869Y103451D02*
X185365Y105320D01*
X178635Y105320D01*
X178635Y103451D02*
X178635Y107189D01*
D12*
X299000Y95600D02*
X309000Y95600D01*
X309000Y112800D02*
X299000Y112800D01*
D10*
X315504Y94811D02*
X320365Y94811D01*
X315504Y94811D02*
X315419Y94813D01*
X315334Y94819D01*
X315250Y94828D01*
X315165Y94842D01*
X315082Y94859D01*
X315000Y94880D01*
X314918Y94905D01*
X314838Y94934D01*
X314759Y94966D01*
X314682Y95001D01*
X314607Y95041D01*
X314533Y95083D01*
X314461Y95129D01*
X314392Y95178D01*
X314324Y95230D01*
X314260Y95285D01*
X314198Y95343D01*
X314138Y95404D01*
X314081Y95468D01*
X314028Y95534D01*
X313977Y95602D01*
X313930Y95673D01*
X313885Y95746D01*
X313845Y95820D01*
X313807Y95897D01*
X313773Y95975D01*
X313743Y96054D01*
X313716Y96135D01*
X313693Y96217D01*
X313674Y96300D01*
X313659Y96383D01*
X313647Y96468D01*
X313639Y96552D01*
X313635Y96637D01*
X313635Y96723D01*
X313639Y96808D01*
X313647Y96892D01*
X313659Y96977D01*
X313674Y97060D01*
X313693Y97143D01*
X313716Y97225D01*
X313743Y97306D01*
X313773Y97385D01*
X313807Y97463D01*
X313845Y97540D01*
X313885Y97615D01*
X313930Y97687D01*
X313977Y97758D01*
X314028Y97826D01*
X314081Y97892D01*
X314138Y97956D01*
X314198Y98017D01*
X314260Y98075D01*
X314324Y98130D01*
X314392Y98182D01*
X314461Y98231D01*
X314533Y98277D01*
X314607Y98319D01*
X314682Y98359D01*
X314759Y98394D01*
X314838Y98426D01*
X314918Y98455D01*
X315000Y98480D01*
X315082Y98501D01*
X315165Y98518D01*
X315250Y98532D01*
X315334Y98541D01*
X315419Y98547D01*
X315504Y98549D01*
X320365Y98549D01*
X320366Y104307D02*
X320364Y104387D01*
X320358Y104467D01*
X320349Y104547D01*
X320336Y104626D01*
X320319Y104704D01*
X320298Y104781D01*
X320273Y104857D01*
X320245Y104933D01*
X320214Y105006D01*
X320179Y105078D01*
X320141Y105149D01*
X320099Y105217D01*
X320054Y105283D01*
X320006Y105347D01*
X319955Y105409D01*
X319901Y105468D01*
X319844Y105525D01*
X319785Y105579D01*
X319723Y105630D01*
X319659Y105678D01*
X319593Y105723D01*
X319525Y105765D01*
X319454Y105803D01*
X319382Y105838D01*
X319309Y105869D01*
X319233Y105897D01*
X319157Y105922D01*
X319080Y105943D01*
X319002Y105960D01*
X318923Y105973D01*
X318843Y105982D01*
X318763Y105988D01*
X318683Y105990D01*
X320365Y104307D02*
X320363Y104216D01*
X320357Y104126D01*
X320348Y104036D01*
X320335Y103946D01*
X320318Y103857D01*
X320297Y103769D01*
X320273Y103682D01*
X320245Y103595D01*
X320213Y103511D01*
X320178Y103427D01*
X320139Y103345D01*
X320097Y103265D01*
X320052Y103186D01*
X320003Y103110D01*
X319951Y103035D01*
X319897Y102963D01*
X319839Y102893D01*
X319778Y102826D01*
X319715Y102761D01*
X319649Y102699D01*
X319580Y102640D01*
X319509Y102584D01*
X319436Y102531D01*
X319360Y102481D01*
X319282Y102434D01*
X319203Y102390D01*
X319122Y102350D01*
X319039Y102313D01*
X318955Y102280D01*
X318869Y102250D01*
X317374Y105428D02*
X317432Y105486D01*
X317492Y105541D01*
X317554Y105593D01*
X317619Y105642D01*
X317685Y105689D01*
X317754Y105732D01*
X317825Y105772D01*
X317897Y105809D01*
X317971Y105843D01*
X318047Y105873D01*
X318123Y105900D01*
X318201Y105924D01*
X318280Y105943D01*
X318360Y105960D01*
X318440Y105973D01*
X318521Y105982D01*
X318602Y105987D01*
X318683Y105989D01*
X317374Y105429D02*
X313635Y102251D01*
X313635Y105989D01*
X320366Y111507D02*
X320364Y111587D01*
X320358Y111667D01*
X320349Y111747D01*
X320336Y111826D01*
X320319Y111904D01*
X320298Y111981D01*
X320273Y112057D01*
X320245Y112133D01*
X320214Y112206D01*
X320179Y112278D01*
X320141Y112349D01*
X320099Y112417D01*
X320054Y112483D01*
X320006Y112547D01*
X319955Y112609D01*
X319901Y112668D01*
X319844Y112725D01*
X319785Y112779D01*
X319723Y112830D01*
X319659Y112878D01*
X319593Y112923D01*
X319525Y112965D01*
X319454Y113003D01*
X319382Y113038D01*
X319309Y113069D01*
X319233Y113097D01*
X319157Y113122D01*
X319080Y113143D01*
X319002Y113160D01*
X318923Y113173D01*
X318843Y113182D01*
X318763Y113188D01*
X318683Y113190D01*
X320365Y111507D02*
X320363Y111416D01*
X320357Y111326D01*
X320348Y111236D01*
X320335Y111146D01*
X320318Y111057D01*
X320297Y110969D01*
X320273Y110882D01*
X320245Y110795D01*
X320213Y110711D01*
X320178Y110627D01*
X320139Y110545D01*
X320097Y110465D01*
X320052Y110386D01*
X320003Y110310D01*
X319951Y110235D01*
X319897Y110163D01*
X319839Y110093D01*
X319778Y110026D01*
X319715Y109961D01*
X319649Y109899D01*
X319580Y109840D01*
X319509Y109784D01*
X319436Y109731D01*
X319360Y109681D01*
X319282Y109634D01*
X319203Y109590D01*
X319122Y109550D01*
X319039Y109513D01*
X318955Y109480D01*
X318869Y109450D01*
X317374Y112628D02*
X317432Y112686D01*
X317492Y112741D01*
X317554Y112793D01*
X317619Y112842D01*
X317685Y112889D01*
X317754Y112932D01*
X317825Y112972D01*
X317897Y113009D01*
X317971Y113043D01*
X318047Y113073D01*
X318123Y113100D01*
X318201Y113124D01*
X318280Y113143D01*
X318360Y113160D01*
X318440Y113173D01*
X318521Y113182D01*
X318602Y113187D01*
X318683Y113189D01*
X317374Y112629D02*
X313635Y109451D01*
X313635Y113189D01*
D12*
X201000Y131400D02*
X191000Y131400D01*
X191000Y114200D02*
X201000Y114200D01*
D10*
X186365Y113811D02*
X181504Y113811D01*
X181419Y113813D01*
X181334Y113819D01*
X181250Y113828D01*
X181165Y113842D01*
X181082Y113859D01*
X181000Y113880D01*
X180918Y113905D01*
X180838Y113934D01*
X180759Y113966D01*
X180682Y114001D01*
X180607Y114041D01*
X180533Y114083D01*
X180461Y114129D01*
X180392Y114178D01*
X180324Y114230D01*
X180260Y114285D01*
X180198Y114343D01*
X180138Y114404D01*
X180081Y114468D01*
X180028Y114534D01*
X179977Y114602D01*
X179930Y114673D01*
X179885Y114746D01*
X179845Y114820D01*
X179807Y114897D01*
X179773Y114975D01*
X179743Y115054D01*
X179716Y115135D01*
X179693Y115217D01*
X179674Y115300D01*
X179659Y115383D01*
X179647Y115468D01*
X179639Y115552D01*
X179635Y115637D01*
X179635Y115723D01*
X179639Y115808D01*
X179647Y115892D01*
X179659Y115977D01*
X179674Y116060D01*
X179693Y116143D01*
X179716Y116225D01*
X179743Y116306D01*
X179773Y116385D01*
X179807Y116463D01*
X179845Y116540D01*
X179885Y116615D01*
X179930Y116687D01*
X179977Y116758D01*
X180028Y116826D01*
X180081Y116892D01*
X180138Y116956D01*
X180198Y117017D01*
X180260Y117075D01*
X180324Y117130D01*
X180392Y117182D01*
X180461Y117231D01*
X180533Y117277D01*
X180607Y117319D01*
X180682Y117359D01*
X180759Y117394D01*
X180838Y117426D01*
X180918Y117455D01*
X181000Y117480D01*
X181082Y117501D01*
X181165Y117518D01*
X181250Y117532D01*
X181334Y117541D01*
X181419Y117547D01*
X181504Y117549D01*
X186365Y117549D01*
X186366Y123307D02*
X186364Y123387D01*
X186358Y123467D01*
X186349Y123547D01*
X186336Y123626D01*
X186319Y123704D01*
X186298Y123781D01*
X186273Y123857D01*
X186245Y123933D01*
X186214Y124006D01*
X186179Y124078D01*
X186141Y124149D01*
X186099Y124217D01*
X186054Y124283D01*
X186006Y124347D01*
X185955Y124409D01*
X185901Y124468D01*
X185844Y124525D01*
X185785Y124579D01*
X185723Y124630D01*
X185659Y124678D01*
X185593Y124723D01*
X185525Y124765D01*
X185454Y124803D01*
X185382Y124838D01*
X185309Y124869D01*
X185233Y124897D01*
X185157Y124922D01*
X185080Y124943D01*
X185002Y124960D01*
X184923Y124973D01*
X184843Y124982D01*
X184763Y124988D01*
X184683Y124990D01*
X186365Y123307D02*
X186363Y123216D01*
X186357Y123126D01*
X186348Y123036D01*
X186335Y122946D01*
X186318Y122857D01*
X186297Y122769D01*
X186273Y122682D01*
X186245Y122595D01*
X186213Y122511D01*
X186178Y122427D01*
X186139Y122345D01*
X186097Y122265D01*
X186052Y122186D01*
X186003Y122110D01*
X185951Y122035D01*
X185897Y121963D01*
X185839Y121893D01*
X185778Y121826D01*
X185715Y121761D01*
X185649Y121699D01*
X185580Y121640D01*
X185509Y121584D01*
X185436Y121531D01*
X185360Y121481D01*
X185282Y121434D01*
X185203Y121390D01*
X185122Y121350D01*
X185039Y121313D01*
X184955Y121280D01*
X184869Y121250D01*
X183374Y124428D02*
X183432Y124486D01*
X183492Y124541D01*
X183554Y124593D01*
X183619Y124642D01*
X183685Y124689D01*
X183754Y124732D01*
X183825Y124772D01*
X183897Y124809D01*
X183971Y124843D01*
X184047Y124873D01*
X184123Y124900D01*
X184201Y124924D01*
X184280Y124943D01*
X184360Y124960D01*
X184440Y124973D01*
X184521Y124982D01*
X184602Y124987D01*
X184683Y124989D01*
X183374Y124429D02*
X179635Y121251D01*
X179635Y124989D01*
X179635Y128451D02*
X179635Y130320D01*
X179637Y130405D01*
X179643Y130490D01*
X179652Y130574D01*
X179666Y130659D01*
X179683Y130742D01*
X179704Y130824D01*
X179729Y130906D01*
X179758Y130986D01*
X179790Y131065D01*
X179825Y131142D01*
X179865Y131217D01*
X179907Y131291D01*
X179953Y131363D01*
X180002Y131432D01*
X180054Y131500D01*
X180109Y131564D01*
X180167Y131626D01*
X180228Y131686D01*
X180292Y131743D01*
X180358Y131796D01*
X180426Y131847D01*
X180497Y131894D01*
X180570Y131939D01*
X180644Y131979D01*
X180721Y132017D01*
X180799Y132051D01*
X180878Y132081D01*
X180959Y132108D01*
X181041Y132131D01*
X181124Y132150D01*
X181207Y132165D01*
X181292Y132177D01*
X181376Y132185D01*
X181461Y132189D01*
X181547Y132189D01*
X181632Y132185D01*
X181716Y132177D01*
X181801Y132165D01*
X181884Y132150D01*
X181967Y132131D01*
X182049Y132108D01*
X182130Y132081D01*
X182209Y132051D01*
X182287Y132017D01*
X182364Y131979D01*
X182439Y131939D01*
X182511Y131894D01*
X182582Y131847D01*
X182650Y131796D01*
X182716Y131743D01*
X182780Y131686D01*
X182841Y131626D01*
X182899Y131564D01*
X182954Y131500D01*
X183006Y131432D01*
X183055Y131363D01*
X183101Y131291D01*
X183143Y131217D01*
X183183Y131142D01*
X183218Y131065D01*
X183250Y130986D01*
X183279Y130906D01*
X183304Y130824D01*
X183325Y130742D01*
X183342Y130659D01*
X183356Y130574D01*
X183365Y130490D01*
X183371Y130405D01*
X183373Y130320D01*
X186365Y130694D02*
X186365Y128451D01*
X186365Y130694D02*
X186363Y130770D01*
X186357Y130845D01*
X186348Y130921D01*
X186334Y130995D01*
X186317Y131069D01*
X186296Y131142D01*
X186272Y131214D01*
X186244Y131284D01*
X186212Y131353D01*
X186177Y131420D01*
X186139Y131485D01*
X186097Y131549D01*
X186052Y131610D01*
X186004Y131668D01*
X185953Y131725D01*
X185900Y131778D01*
X185843Y131829D01*
X185785Y131877D01*
X185724Y131922D01*
X185660Y131964D01*
X185595Y132002D01*
X185528Y132037D01*
X185459Y132069D01*
X185389Y132097D01*
X185317Y132121D01*
X185244Y132142D01*
X185170Y132159D01*
X185096Y132173D01*
X185020Y132182D01*
X184945Y132188D01*
X184869Y132190D01*
X184793Y132188D01*
X184718Y132182D01*
X184642Y132173D01*
X184568Y132159D01*
X184494Y132142D01*
X184421Y132121D01*
X184349Y132097D01*
X184279Y132069D01*
X184210Y132037D01*
X184143Y132002D01*
X184078Y131964D01*
X184014Y131922D01*
X183953Y131877D01*
X183895Y131829D01*
X183838Y131778D01*
X183785Y131725D01*
X183734Y131668D01*
X183686Y131610D01*
X183641Y131549D01*
X183599Y131485D01*
X183561Y131420D01*
X183526Y131353D01*
X183494Y131284D01*
X183466Y131214D01*
X183442Y131142D01*
X183421Y131069D01*
X183404Y130995D01*
X183390Y130921D01*
X183381Y130845D01*
X183375Y130770D01*
X183373Y130694D01*
X183374Y130694D02*
X183374Y129198D01*
D12*
X343000Y221000D02*
X343002Y221140D01*
X343008Y221280D01*
X343018Y221420D01*
X343031Y221560D01*
X343049Y221699D01*
X343071Y221838D01*
X343096Y221975D01*
X343125Y222113D01*
X343158Y222249D01*
X343195Y222384D01*
X343236Y222518D01*
X343281Y222651D01*
X343329Y222783D01*
X343381Y222913D01*
X343436Y223042D01*
X343495Y223169D01*
X343558Y223295D01*
X343624Y223419D01*
X343693Y223540D01*
X343766Y223660D01*
X343843Y223778D01*
X343922Y223893D01*
X344005Y224007D01*
X344091Y224117D01*
X344180Y224226D01*
X344272Y224332D01*
X344367Y224435D01*
X344464Y224536D01*
X344565Y224633D01*
X344668Y224728D01*
X344774Y224820D01*
X344883Y224909D01*
X344993Y224995D01*
X345107Y225078D01*
X345222Y225157D01*
X345340Y225234D01*
X345460Y225307D01*
X345581Y225376D01*
X345705Y225442D01*
X345831Y225505D01*
X345958Y225564D01*
X346087Y225619D01*
X346217Y225671D01*
X346349Y225719D01*
X346482Y225764D01*
X346616Y225805D01*
X346751Y225842D01*
X346887Y225875D01*
X347025Y225904D01*
X347162Y225929D01*
X347301Y225951D01*
X347440Y225969D01*
X347580Y225982D01*
X347720Y225992D01*
X347860Y225998D01*
X348000Y226000D01*
X348140Y225998D01*
X348280Y225992D01*
X348420Y225982D01*
X348560Y225969D01*
X348699Y225951D01*
X348838Y225929D01*
X348975Y225904D01*
X349113Y225875D01*
X349249Y225842D01*
X349384Y225805D01*
X349518Y225764D01*
X349651Y225719D01*
X349783Y225671D01*
X349913Y225619D01*
X350042Y225564D01*
X350169Y225505D01*
X350295Y225442D01*
X350419Y225376D01*
X350540Y225307D01*
X350660Y225234D01*
X350778Y225157D01*
X350893Y225078D01*
X351007Y224995D01*
X351117Y224909D01*
X351226Y224820D01*
X351332Y224728D01*
X351435Y224633D01*
X351536Y224536D01*
X351633Y224435D01*
X351728Y224332D01*
X351820Y224226D01*
X351909Y224117D01*
X351995Y224007D01*
X352078Y223893D01*
X352157Y223778D01*
X352234Y223660D01*
X352307Y223540D01*
X352376Y223419D01*
X352442Y223295D01*
X352505Y223169D01*
X352564Y223042D01*
X352619Y222913D01*
X352671Y222783D01*
X352719Y222651D01*
X352764Y222518D01*
X352805Y222384D01*
X352842Y222249D01*
X352875Y222113D01*
X352904Y221975D01*
X352929Y221838D01*
X352951Y221699D01*
X352969Y221560D01*
X352982Y221420D01*
X352992Y221280D01*
X352998Y221140D01*
X353000Y221000D01*
X343000Y221000D02*
X343000Y219000D01*
X343002Y218860D01*
X343008Y218720D01*
X343018Y218580D01*
X343031Y218440D01*
X343049Y218301D01*
X343071Y218162D01*
X343096Y218025D01*
X343125Y217887D01*
X343158Y217751D01*
X343195Y217616D01*
X343236Y217482D01*
X343281Y217349D01*
X343329Y217217D01*
X343381Y217087D01*
X343436Y216958D01*
X343495Y216831D01*
X343558Y216705D01*
X343624Y216581D01*
X343693Y216460D01*
X343766Y216340D01*
X343843Y216222D01*
X343922Y216107D01*
X344005Y215993D01*
X344091Y215883D01*
X344180Y215774D01*
X344272Y215668D01*
X344367Y215565D01*
X344464Y215464D01*
X344565Y215367D01*
X344668Y215272D01*
X344774Y215180D01*
X344883Y215091D01*
X344993Y215005D01*
X345107Y214922D01*
X345222Y214843D01*
X345340Y214766D01*
X345460Y214693D01*
X345581Y214624D01*
X345705Y214558D01*
X345831Y214495D01*
X345958Y214436D01*
X346087Y214381D01*
X346217Y214329D01*
X346349Y214281D01*
X346482Y214236D01*
X346616Y214195D01*
X346751Y214158D01*
X346887Y214125D01*
X347025Y214096D01*
X347162Y214071D01*
X347301Y214049D01*
X347440Y214031D01*
X347580Y214018D01*
X347720Y214008D01*
X347860Y214002D01*
X348000Y214000D01*
X348140Y214002D01*
X348280Y214008D01*
X348420Y214018D01*
X348560Y214031D01*
X348699Y214049D01*
X348838Y214071D01*
X348975Y214096D01*
X349113Y214125D01*
X349249Y214158D01*
X349384Y214195D01*
X349518Y214236D01*
X349651Y214281D01*
X349783Y214329D01*
X349913Y214381D01*
X350042Y214436D01*
X350169Y214495D01*
X350295Y214558D01*
X350419Y214624D01*
X350540Y214693D01*
X350660Y214766D01*
X350778Y214843D01*
X350893Y214922D01*
X351007Y215005D01*
X351117Y215091D01*
X351226Y215180D01*
X351332Y215272D01*
X351435Y215367D01*
X351536Y215464D01*
X351633Y215565D01*
X351728Y215668D01*
X351820Y215774D01*
X351909Y215883D01*
X351995Y215993D01*
X352078Y216107D01*
X352157Y216222D01*
X352234Y216340D01*
X352307Y216460D01*
X352376Y216581D01*
X352442Y216705D01*
X352505Y216831D01*
X352564Y216958D01*
X352619Y217087D01*
X352671Y217217D01*
X352719Y217349D01*
X352764Y217482D01*
X352805Y217616D01*
X352842Y217751D01*
X352875Y217887D01*
X352904Y218025D01*
X352929Y218162D01*
X352951Y218301D01*
X352969Y218440D01*
X352982Y218580D01*
X352992Y218720D01*
X352998Y218860D01*
X353000Y219000D01*
X353000Y221000D01*
D10*
X340270Y217635D02*
X340270Y224365D01*
X338400Y224365D01*
X338315Y224363D01*
X338230Y224357D01*
X338146Y224348D01*
X338061Y224334D01*
X337978Y224317D01*
X337896Y224296D01*
X337814Y224271D01*
X337734Y224242D01*
X337655Y224210D01*
X337578Y224175D01*
X337503Y224135D01*
X337429Y224093D01*
X337357Y224047D01*
X337288Y223998D01*
X337220Y223946D01*
X337156Y223891D01*
X337094Y223833D01*
X337034Y223772D01*
X336977Y223708D01*
X336924Y223642D01*
X336873Y223574D01*
X336826Y223503D01*
X336781Y223431D01*
X336741Y223356D01*
X336703Y223279D01*
X336669Y223201D01*
X336639Y223122D01*
X336612Y223041D01*
X336589Y222959D01*
X336570Y222876D01*
X336555Y222793D01*
X336543Y222708D01*
X336535Y222624D01*
X336531Y222539D01*
X336531Y222453D01*
X336535Y222368D01*
X336543Y222284D01*
X336555Y222199D01*
X336570Y222116D01*
X336589Y222033D01*
X336612Y221951D01*
X336639Y221870D01*
X336669Y221791D01*
X336703Y221713D01*
X336741Y221636D01*
X336781Y221562D01*
X336826Y221489D01*
X336873Y221418D01*
X336924Y221350D01*
X336977Y221284D01*
X337034Y221220D01*
X337094Y221159D01*
X337156Y221101D01*
X337220Y221046D01*
X337288Y220994D01*
X337357Y220945D01*
X337429Y220899D01*
X337503Y220857D01*
X337578Y220817D01*
X337655Y220782D01*
X337734Y220750D01*
X337814Y220721D01*
X337896Y220696D01*
X337978Y220675D01*
X338061Y220658D01*
X338146Y220644D01*
X338230Y220635D01*
X338315Y220629D01*
X338400Y220627D01*
X338400Y220626D02*
X340270Y220626D01*
X331413Y224366D02*
X331333Y224364D01*
X331253Y224358D01*
X331173Y224349D01*
X331094Y224336D01*
X331016Y224319D01*
X330939Y224298D01*
X330863Y224273D01*
X330787Y224245D01*
X330714Y224214D01*
X330642Y224179D01*
X330572Y224141D01*
X330503Y224099D01*
X330437Y224054D01*
X330373Y224006D01*
X330311Y223955D01*
X330252Y223901D01*
X330195Y223844D01*
X330141Y223785D01*
X330090Y223723D01*
X330042Y223659D01*
X329997Y223593D01*
X329955Y223525D01*
X329917Y223454D01*
X329882Y223382D01*
X329851Y223309D01*
X329823Y223233D01*
X329798Y223157D01*
X329777Y223080D01*
X329760Y223002D01*
X329747Y222923D01*
X329738Y222843D01*
X329732Y222763D01*
X329730Y222683D01*
X331413Y224365D02*
X331504Y224363D01*
X331594Y224357D01*
X331684Y224348D01*
X331774Y224335D01*
X331863Y224318D01*
X331951Y224297D01*
X332038Y224273D01*
X332125Y224245D01*
X332209Y224213D01*
X332293Y224178D01*
X332375Y224139D01*
X332455Y224097D01*
X332534Y224052D01*
X332610Y224003D01*
X332685Y223951D01*
X332757Y223897D01*
X332827Y223839D01*
X332894Y223778D01*
X332959Y223715D01*
X333021Y223649D01*
X333080Y223580D01*
X333136Y223509D01*
X333189Y223436D01*
X333239Y223360D01*
X333286Y223282D01*
X333330Y223203D01*
X333370Y223122D01*
X333407Y223039D01*
X333440Y222955D01*
X333470Y222869D01*
X330291Y221374D02*
X330233Y221432D01*
X330178Y221492D01*
X330126Y221554D01*
X330077Y221619D01*
X330030Y221685D01*
X329987Y221754D01*
X329947Y221825D01*
X329910Y221897D01*
X329876Y221971D01*
X329846Y222047D01*
X329819Y222123D01*
X329795Y222201D01*
X329776Y222280D01*
X329759Y222360D01*
X329746Y222440D01*
X329737Y222521D01*
X329732Y222602D01*
X329730Y222683D01*
X330291Y221374D02*
X333469Y217635D01*
X329730Y217635D01*
M02*
