G04 EAGLE Gerber RS-274X export*
G75*
%MOMM*%
%FSLAX34Y34*%
%LPD*%
%IN16_Bottom Assembly Drawing*%
%IPPOS*%
%AMOC8*
5,1,8,0,0,1.08239X$1,22.5*%
G01*
%ADD10C,0.152400*%
%ADD11C,0.100000*%
%ADD12C,0.076200*%
%ADD13C,0.050800*%
%ADD14C,0.254000*%


D10*
X286238Y269793D02*
X281722Y269793D01*
X281722Y269794D02*
X281589Y269792D01*
X281457Y269786D01*
X281325Y269776D01*
X281193Y269763D01*
X281061Y269745D01*
X280931Y269724D01*
X280800Y269699D01*
X280671Y269670D01*
X280543Y269637D01*
X280415Y269601D01*
X280289Y269561D01*
X280164Y269517D01*
X280040Y269469D01*
X279918Y269418D01*
X279797Y269363D01*
X279678Y269305D01*
X279560Y269243D01*
X279445Y269178D01*
X279331Y269109D01*
X279220Y269038D01*
X279111Y268962D01*
X279004Y268884D01*
X278899Y268803D01*
X278797Y268718D01*
X278697Y268631D01*
X278600Y268541D01*
X278505Y268448D01*
X278414Y268352D01*
X278325Y268254D01*
X278239Y268153D01*
X278156Y268049D01*
X278076Y267943D01*
X278000Y267835D01*
X277926Y267725D01*
X277856Y267612D01*
X277789Y267498D01*
X277726Y267381D01*
X277666Y267263D01*
X277609Y267143D01*
X277556Y267021D01*
X277507Y266898D01*
X277461Y266774D01*
X277419Y266648D01*
X277381Y266521D01*
X277346Y266393D01*
X277315Y266264D01*
X277288Y266135D01*
X277265Y266004D01*
X277245Y265873D01*
X277230Y265741D01*
X277218Y265609D01*
X277210Y265477D01*
X277206Y265344D01*
X277206Y265212D01*
X277210Y265079D01*
X277218Y264947D01*
X277230Y264815D01*
X277245Y264683D01*
X277265Y264552D01*
X277288Y264421D01*
X277315Y264292D01*
X277346Y264163D01*
X277381Y264035D01*
X277419Y263908D01*
X277461Y263782D01*
X277507Y263658D01*
X277556Y263535D01*
X277609Y263413D01*
X277666Y263293D01*
X277726Y263175D01*
X277789Y263058D01*
X277856Y262944D01*
X277926Y262831D01*
X278000Y262721D01*
X278076Y262613D01*
X278156Y262507D01*
X278239Y262403D01*
X278325Y262302D01*
X278414Y262204D01*
X278505Y262108D01*
X278600Y262015D01*
X278697Y261925D01*
X278797Y261838D01*
X278899Y261753D01*
X279004Y261672D01*
X279111Y261594D01*
X279220Y261518D01*
X279331Y261447D01*
X279445Y261378D01*
X279560Y261313D01*
X279678Y261251D01*
X279797Y261193D01*
X279918Y261138D01*
X280040Y261087D01*
X280164Y261039D01*
X280289Y260995D01*
X280415Y260955D01*
X280543Y260919D01*
X280671Y260886D01*
X280800Y260857D01*
X280931Y260832D01*
X281061Y260811D01*
X281193Y260793D01*
X281325Y260780D01*
X281457Y260770D01*
X281589Y260764D01*
X281722Y260762D01*
X286238Y260762D01*
X286238Y277018D01*
X281722Y277018D01*
X281603Y277016D01*
X281483Y277010D01*
X281364Y277000D01*
X281246Y276986D01*
X281127Y276969D01*
X281010Y276947D01*
X280893Y276922D01*
X280778Y276892D01*
X280663Y276859D01*
X280549Y276822D01*
X280437Y276782D01*
X280326Y276737D01*
X280217Y276689D01*
X280109Y276638D01*
X280003Y276583D01*
X279899Y276524D01*
X279797Y276462D01*
X279697Y276397D01*
X279599Y276328D01*
X279503Y276256D01*
X279410Y276181D01*
X279320Y276104D01*
X279232Y276023D01*
X279147Y275939D01*
X279065Y275852D01*
X278985Y275763D01*
X278909Y275671D01*
X278835Y275577D01*
X278765Y275480D01*
X278698Y275382D01*
X278634Y275281D01*
X278574Y275177D01*
X278517Y275072D01*
X278464Y274965D01*
X278414Y274857D01*
X278368Y274747D01*
X278326Y274635D01*
X278287Y274522D01*
X278252Y274408D01*
X278221Y274293D01*
X278193Y274176D01*
X278170Y274059D01*
X278150Y273942D01*
X278134Y273823D01*
X278122Y273704D01*
X278114Y273585D01*
X278110Y273466D01*
X278110Y273346D01*
X278114Y273227D01*
X278122Y273108D01*
X278134Y272989D01*
X278150Y272870D01*
X278170Y272753D01*
X278193Y272636D01*
X278221Y272519D01*
X278252Y272404D01*
X278287Y272290D01*
X278326Y272177D01*
X278368Y272065D01*
X278414Y271955D01*
X278464Y271847D01*
X278517Y271740D01*
X278574Y271635D01*
X278634Y271531D01*
X278698Y271430D01*
X278765Y271332D01*
X278835Y271235D01*
X278909Y271141D01*
X278985Y271049D01*
X279065Y270960D01*
X279147Y270873D01*
X279232Y270789D01*
X279320Y270708D01*
X279410Y270631D01*
X279503Y270556D01*
X279599Y270484D01*
X279697Y270415D01*
X279797Y270350D01*
X279899Y270288D01*
X280003Y270229D01*
X280109Y270174D01*
X280217Y270123D01*
X280326Y270075D01*
X280437Y270030D01*
X280549Y269990D01*
X280663Y269953D01*
X280778Y269920D01*
X280893Y269890D01*
X281010Y269865D01*
X281127Y269843D01*
X281246Y269826D01*
X281364Y269812D01*
X281483Y269802D01*
X281603Y269796D01*
X281722Y269794D01*
X271478Y267987D02*
X271478Y264374D01*
X271477Y267987D02*
X271475Y268106D01*
X271469Y268226D01*
X271459Y268345D01*
X271445Y268463D01*
X271428Y268582D01*
X271406Y268699D01*
X271381Y268816D01*
X271351Y268931D01*
X271318Y269046D01*
X271281Y269160D01*
X271241Y269272D01*
X271196Y269383D01*
X271148Y269492D01*
X271097Y269600D01*
X271042Y269706D01*
X270983Y269810D01*
X270921Y269912D01*
X270856Y270012D01*
X270787Y270110D01*
X270715Y270206D01*
X270640Y270299D01*
X270563Y270389D01*
X270482Y270477D01*
X270398Y270562D01*
X270311Y270644D01*
X270222Y270724D01*
X270130Y270800D01*
X270036Y270874D01*
X269939Y270944D01*
X269841Y271011D01*
X269740Y271075D01*
X269636Y271135D01*
X269531Y271192D01*
X269424Y271245D01*
X269316Y271295D01*
X269206Y271341D01*
X269094Y271383D01*
X268981Y271422D01*
X268867Y271457D01*
X268752Y271488D01*
X268635Y271516D01*
X268518Y271539D01*
X268401Y271559D01*
X268282Y271575D01*
X268163Y271587D01*
X268044Y271595D01*
X267925Y271599D01*
X267805Y271599D01*
X267686Y271595D01*
X267567Y271587D01*
X267448Y271575D01*
X267329Y271559D01*
X267212Y271539D01*
X267095Y271516D01*
X266978Y271488D01*
X266863Y271457D01*
X266749Y271422D01*
X266636Y271383D01*
X266524Y271341D01*
X266414Y271295D01*
X266306Y271245D01*
X266199Y271192D01*
X266094Y271135D01*
X265990Y271075D01*
X265889Y271011D01*
X265791Y270944D01*
X265694Y270874D01*
X265600Y270800D01*
X265508Y270724D01*
X265419Y270644D01*
X265332Y270562D01*
X265248Y270477D01*
X265167Y270389D01*
X265090Y270299D01*
X265015Y270206D01*
X264943Y270110D01*
X264874Y270012D01*
X264809Y269912D01*
X264747Y269810D01*
X264688Y269706D01*
X264633Y269600D01*
X264582Y269492D01*
X264534Y269383D01*
X264489Y269272D01*
X264449Y269160D01*
X264412Y269046D01*
X264379Y268931D01*
X264349Y268816D01*
X264324Y268699D01*
X264302Y268582D01*
X264285Y268463D01*
X264271Y268345D01*
X264261Y268226D01*
X264255Y268106D01*
X264253Y267987D01*
X264253Y264374D01*
X264255Y264255D01*
X264261Y264135D01*
X264271Y264016D01*
X264285Y263898D01*
X264302Y263779D01*
X264324Y263662D01*
X264349Y263545D01*
X264379Y263430D01*
X264412Y263315D01*
X264449Y263201D01*
X264489Y263089D01*
X264534Y262978D01*
X264582Y262869D01*
X264633Y262761D01*
X264688Y262655D01*
X264747Y262551D01*
X264809Y262449D01*
X264874Y262349D01*
X264943Y262251D01*
X265015Y262155D01*
X265090Y262062D01*
X265167Y261972D01*
X265248Y261884D01*
X265332Y261799D01*
X265419Y261717D01*
X265508Y261637D01*
X265600Y261561D01*
X265694Y261487D01*
X265791Y261417D01*
X265889Y261350D01*
X265990Y261286D01*
X266094Y261226D01*
X266199Y261169D01*
X266306Y261116D01*
X266414Y261066D01*
X266524Y261020D01*
X266636Y260978D01*
X266749Y260939D01*
X266863Y260904D01*
X266978Y260873D01*
X267095Y260845D01*
X267212Y260822D01*
X267329Y260802D01*
X267448Y260786D01*
X267567Y260774D01*
X267686Y260766D01*
X267805Y260762D01*
X267925Y260762D01*
X268044Y260766D01*
X268163Y260774D01*
X268282Y260786D01*
X268401Y260802D01*
X268518Y260822D01*
X268635Y260845D01*
X268752Y260873D01*
X268867Y260904D01*
X268981Y260939D01*
X269094Y260978D01*
X269206Y261020D01*
X269316Y261066D01*
X269424Y261116D01*
X269531Y261169D01*
X269636Y261226D01*
X269740Y261286D01*
X269841Y261350D01*
X269939Y261417D01*
X270036Y261487D01*
X270130Y261561D01*
X270222Y261637D01*
X270311Y261717D01*
X270398Y261799D01*
X270482Y261884D01*
X270563Y261972D01*
X270640Y262062D01*
X270715Y262155D01*
X270787Y262251D01*
X270856Y262349D01*
X270921Y262449D01*
X270983Y262551D01*
X271042Y262655D01*
X271097Y262761D01*
X271148Y262869D01*
X271196Y262978D01*
X271241Y263089D01*
X271281Y263201D01*
X271318Y263315D01*
X271351Y263430D01*
X271381Y263545D01*
X271406Y263662D01*
X271428Y263779D01*
X271445Y263898D01*
X271459Y264016D01*
X271469Y264135D01*
X271475Y264255D01*
X271477Y264374D01*
X259228Y271599D02*
X253809Y271599D01*
X257422Y277018D02*
X257422Y263471D01*
X257421Y263471D02*
X257419Y263370D01*
X257413Y263269D01*
X257404Y263168D01*
X257391Y263067D01*
X257374Y262967D01*
X257353Y262868D01*
X257329Y262770D01*
X257301Y262673D01*
X257269Y262576D01*
X257234Y262481D01*
X257195Y262388D01*
X257153Y262296D01*
X257107Y262205D01*
X257058Y262116D01*
X257006Y262030D01*
X256950Y261945D01*
X256892Y261862D01*
X256830Y261782D01*
X256765Y261704D01*
X256698Y261628D01*
X256628Y261555D01*
X256555Y261485D01*
X256479Y261418D01*
X256401Y261353D01*
X256321Y261291D01*
X256238Y261233D01*
X256153Y261177D01*
X256067Y261125D01*
X255978Y261076D01*
X255887Y261030D01*
X255795Y260988D01*
X255702Y260949D01*
X255607Y260914D01*
X255510Y260882D01*
X255413Y260854D01*
X255315Y260830D01*
X255216Y260809D01*
X255116Y260792D01*
X255015Y260779D01*
X254914Y260770D01*
X254813Y260764D01*
X254712Y260762D01*
X253809Y260762D01*
X249328Y271599D02*
X243910Y271599D01*
X247522Y277018D02*
X247522Y263471D01*
X247520Y263370D01*
X247514Y263269D01*
X247505Y263168D01*
X247492Y263067D01*
X247475Y262967D01*
X247454Y262868D01*
X247430Y262770D01*
X247402Y262673D01*
X247370Y262576D01*
X247335Y262481D01*
X247296Y262388D01*
X247254Y262296D01*
X247208Y262205D01*
X247159Y262116D01*
X247107Y262030D01*
X247051Y261945D01*
X246993Y261862D01*
X246931Y261782D01*
X246866Y261704D01*
X246799Y261628D01*
X246729Y261555D01*
X246656Y261485D01*
X246580Y261418D01*
X246502Y261353D01*
X246422Y261291D01*
X246339Y261233D01*
X246254Y261177D01*
X246168Y261125D01*
X246079Y261076D01*
X245988Y261030D01*
X245896Y260988D01*
X245803Y260949D01*
X245708Y260914D01*
X245611Y260882D01*
X245514Y260854D01*
X245416Y260830D01*
X245317Y260809D01*
X245217Y260792D01*
X245116Y260779D01*
X245015Y260770D01*
X244914Y260764D01*
X244813Y260762D01*
X243910Y260762D01*
X238131Y264374D02*
X238131Y267987D01*
X238129Y268106D01*
X238123Y268226D01*
X238113Y268345D01*
X238099Y268463D01*
X238082Y268582D01*
X238060Y268699D01*
X238035Y268816D01*
X238005Y268931D01*
X237972Y269046D01*
X237935Y269160D01*
X237895Y269272D01*
X237850Y269383D01*
X237802Y269492D01*
X237751Y269600D01*
X237696Y269706D01*
X237637Y269810D01*
X237575Y269912D01*
X237510Y270012D01*
X237441Y270110D01*
X237369Y270206D01*
X237294Y270299D01*
X237217Y270389D01*
X237136Y270477D01*
X237052Y270562D01*
X236965Y270644D01*
X236876Y270724D01*
X236784Y270800D01*
X236690Y270874D01*
X236593Y270944D01*
X236495Y271011D01*
X236394Y271075D01*
X236290Y271135D01*
X236185Y271192D01*
X236078Y271245D01*
X235970Y271295D01*
X235860Y271341D01*
X235748Y271383D01*
X235635Y271422D01*
X235521Y271457D01*
X235406Y271488D01*
X235289Y271516D01*
X235172Y271539D01*
X235055Y271559D01*
X234936Y271575D01*
X234817Y271587D01*
X234698Y271595D01*
X234579Y271599D01*
X234459Y271599D01*
X234340Y271595D01*
X234221Y271587D01*
X234102Y271575D01*
X233983Y271559D01*
X233866Y271539D01*
X233749Y271516D01*
X233632Y271488D01*
X233517Y271457D01*
X233403Y271422D01*
X233290Y271383D01*
X233178Y271341D01*
X233068Y271295D01*
X232960Y271245D01*
X232853Y271192D01*
X232748Y271135D01*
X232644Y271075D01*
X232543Y271011D01*
X232445Y270944D01*
X232348Y270874D01*
X232254Y270800D01*
X232162Y270724D01*
X232073Y270644D01*
X231986Y270562D01*
X231902Y270477D01*
X231821Y270389D01*
X231744Y270299D01*
X231669Y270206D01*
X231597Y270110D01*
X231528Y270012D01*
X231463Y269912D01*
X231401Y269810D01*
X231342Y269706D01*
X231287Y269600D01*
X231236Y269492D01*
X231188Y269383D01*
X231143Y269272D01*
X231103Y269160D01*
X231066Y269046D01*
X231033Y268931D01*
X231003Y268816D01*
X230978Y268699D01*
X230956Y268582D01*
X230939Y268463D01*
X230925Y268345D01*
X230915Y268226D01*
X230909Y268106D01*
X230907Y267987D01*
X230906Y267987D02*
X230906Y264374D01*
X230907Y264374D02*
X230909Y264255D01*
X230915Y264135D01*
X230925Y264016D01*
X230939Y263898D01*
X230956Y263779D01*
X230978Y263662D01*
X231003Y263545D01*
X231033Y263430D01*
X231066Y263315D01*
X231103Y263201D01*
X231143Y263089D01*
X231188Y262978D01*
X231236Y262869D01*
X231287Y262761D01*
X231342Y262655D01*
X231401Y262551D01*
X231463Y262449D01*
X231528Y262349D01*
X231597Y262251D01*
X231669Y262155D01*
X231744Y262062D01*
X231821Y261972D01*
X231902Y261884D01*
X231986Y261799D01*
X232073Y261717D01*
X232162Y261637D01*
X232254Y261561D01*
X232348Y261487D01*
X232445Y261417D01*
X232543Y261350D01*
X232644Y261286D01*
X232748Y261226D01*
X232853Y261169D01*
X232960Y261116D01*
X233068Y261066D01*
X233178Y261020D01*
X233290Y260978D01*
X233403Y260939D01*
X233517Y260904D01*
X233632Y260873D01*
X233749Y260845D01*
X233866Y260822D01*
X233983Y260802D01*
X234102Y260786D01*
X234221Y260774D01*
X234340Y260766D01*
X234459Y260762D01*
X234579Y260762D01*
X234698Y260766D01*
X234817Y260774D01*
X234936Y260786D01*
X235055Y260802D01*
X235172Y260822D01*
X235289Y260845D01*
X235406Y260873D01*
X235521Y260904D01*
X235635Y260939D01*
X235748Y260978D01*
X235860Y261020D01*
X235970Y261066D01*
X236078Y261116D01*
X236185Y261169D01*
X236290Y261226D01*
X236394Y261286D01*
X236495Y261350D01*
X236593Y261417D01*
X236690Y261487D01*
X236784Y261561D01*
X236876Y261637D01*
X236965Y261717D01*
X237052Y261799D01*
X237136Y261884D01*
X237217Y261972D01*
X237294Y262062D01*
X237369Y262155D01*
X237441Y262251D01*
X237510Y262349D01*
X237575Y262449D01*
X237637Y262551D01*
X237696Y262655D01*
X237751Y262761D01*
X237802Y262869D01*
X237850Y262978D01*
X237895Y263089D01*
X237935Y263201D01*
X237972Y263315D01*
X238005Y263430D01*
X238035Y263545D01*
X238060Y263662D01*
X238082Y263779D01*
X238099Y263898D01*
X238113Y264016D01*
X238123Y264135D01*
X238129Y264255D01*
X238131Y264374D01*
X223785Y260762D02*
X223785Y271599D01*
X215657Y271599D01*
X215556Y271597D01*
X215455Y271591D01*
X215354Y271582D01*
X215253Y271569D01*
X215153Y271552D01*
X215054Y271531D01*
X214956Y271507D01*
X214859Y271479D01*
X214762Y271447D01*
X214667Y271412D01*
X214574Y271373D01*
X214482Y271331D01*
X214391Y271285D01*
X214303Y271236D01*
X214216Y271184D01*
X214131Y271128D01*
X214048Y271070D01*
X213968Y271008D01*
X213890Y270943D01*
X213814Y270876D01*
X213741Y270806D01*
X213671Y270733D01*
X213604Y270657D01*
X213539Y270579D01*
X213477Y270499D01*
X213419Y270416D01*
X213363Y270331D01*
X213311Y270245D01*
X213262Y270156D01*
X213216Y270065D01*
X213174Y269973D01*
X213135Y269880D01*
X213100Y269785D01*
X213068Y269688D01*
X213040Y269591D01*
X213016Y269493D01*
X212995Y269394D01*
X212978Y269294D01*
X212965Y269193D01*
X212956Y269092D01*
X212950Y268991D01*
X212948Y268890D01*
X212948Y260762D01*
X218366Y260762D02*
X218366Y271599D01*
D11*
X115000Y157500D02*
X114998Y157360D01*
X114992Y157220D01*
X114982Y157080D01*
X114969Y156940D01*
X114951Y156801D01*
X114929Y156662D01*
X114904Y156525D01*
X114875Y156387D01*
X114842Y156251D01*
X114805Y156116D01*
X114764Y155982D01*
X114719Y155849D01*
X114671Y155717D01*
X114619Y155587D01*
X114564Y155458D01*
X114505Y155331D01*
X114442Y155205D01*
X114376Y155081D01*
X114307Y154960D01*
X114234Y154840D01*
X114157Y154722D01*
X114078Y154607D01*
X113995Y154493D01*
X113909Y154383D01*
X113820Y154274D01*
X113728Y154168D01*
X113633Y154065D01*
X113536Y153964D01*
X113435Y153867D01*
X113332Y153772D01*
X113226Y153680D01*
X113117Y153591D01*
X113007Y153505D01*
X112893Y153422D01*
X112778Y153343D01*
X112660Y153266D01*
X112540Y153193D01*
X112419Y153124D01*
X112295Y153058D01*
X112169Y152995D01*
X112042Y152936D01*
X111913Y152881D01*
X111783Y152829D01*
X111651Y152781D01*
X111518Y152736D01*
X111384Y152695D01*
X111249Y152658D01*
X111113Y152625D01*
X110975Y152596D01*
X110838Y152571D01*
X110699Y152549D01*
X110560Y152531D01*
X110420Y152518D01*
X110280Y152508D01*
X110140Y152502D01*
X110000Y152500D01*
X109860Y152502D01*
X109720Y152508D01*
X109580Y152518D01*
X109440Y152531D01*
X109301Y152549D01*
X109162Y152571D01*
X109025Y152596D01*
X108887Y152625D01*
X108751Y152658D01*
X108616Y152695D01*
X108482Y152736D01*
X108349Y152781D01*
X108217Y152829D01*
X108087Y152881D01*
X107958Y152936D01*
X107831Y152995D01*
X107705Y153058D01*
X107581Y153124D01*
X107460Y153193D01*
X107340Y153266D01*
X107222Y153343D01*
X107107Y153422D01*
X106993Y153505D01*
X106883Y153591D01*
X106774Y153680D01*
X106668Y153772D01*
X106565Y153867D01*
X106464Y153964D01*
X106367Y154065D01*
X106272Y154168D01*
X106180Y154274D01*
X106091Y154383D01*
X106005Y154493D01*
X105922Y154607D01*
X105843Y154722D01*
X105766Y154840D01*
X105693Y154960D01*
X105624Y155081D01*
X105558Y155205D01*
X105495Y155331D01*
X105436Y155458D01*
X105381Y155587D01*
X105329Y155717D01*
X105281Y155849D01*
X105236Y155982D01*
X105195Y156116D01*
X105158Y156251D01*
X105125Y156387D01*
X105096Y156525D01*
X105071Y156662D01*
X105049Y156801D01*
X105031Y156940D01*
X105018Y157080D01*
X105008Y157220D01*
X105002Y157360D01*
X105000Y157500D01*
X105000Y164500D01*
X105002Y164640D01*
X105008Y164780D01*
X105018Y164920D01*
X105031Y165060D01*
X105049Y165199D01*
X105071Y165338D01*
X105096Y165475D01*
X105125Y165613D01*
X105158Y165749D01*
X105195Y165884D01*
X105236Y166018D01*
X105281Y166151D01*
X105329Y166283D01*
X105381Y166413D01*
X105436Y166542D01*
X105495Y166669D01*
X105558Y166795D01*
X105624Y166919D01*
X105693Y167040D01*
X105766Y167160D01*
X105843Y167278D01*
X105922Y167393D01*
X106005Y167507D01*
X106091Y167617D01*
X106180Y167726D01*
X106272Y167832D01*
X106367Y167935D01*
X106464Y168036D01*
X106565Y168133D01*
X106668Y168228D01*
X106774Y168320D01*
X106883Y168409D01*
X106993Y168495D01*
X107107Y168578D01*
X107222Y168657D01*
X107340Y168734D01*
X107460Y168807D01*
X107581Y168876D01*
X107705Y168942D01*
X107831Y169005D01*
X107958Y169064D01*
X108087Y169119D01*
X108217Y169171D01*
X108349Y169219D01*
X108482Y169264D01*
X108616Y169305D01*
X108751Y169342D01*
X108887Y169375D01*
X109025Y169404D01*
X109162Y169429D01*
X109301Y169451D01*
X109440Y169469D01*
X109580Y169482D01*
X109720Y169492D01*
X109860Y169498D01*
X110000Y169500D01*
X110140Y169498D01*
X110280Y169492D01*
X110420Y169482D01*
X110560Y169469D01*
X110699Y169451D01*
X110838Y169429D01*
X110975Y169404D01*
X111113Y169375D01*
X111249Y169342D01*
X111384Y169305D01*
X111518Y169264D01*
X111651Y169219D01*
X111783Y169171D01*
X111913Y169119D01*
X112042Y169064D01*
X112169Y169005D01*
X112295Y168942D01*
X112419Y168876D01*
X112540Y168807D01*
X112660Y168734D01*
X112778Y168657D01*
X112893Y168578D01*
X113007Y168495D01*
X113117Y168409D01*
X113226Y168320D01*
X113332Y168228D01*
X113435Y168133D01*
X113536Y168036D01*
X113633Y167935D01*
X113728Y167832D01*
X113820Y167726D01*
X113909Y167617D01*
X113995Y167507D01*
X114078Y167393D01*
X114157Y167278D01*
X114234Y167160D01*
X114307Y167040D01*
X114376Y166919D01*
X114442Y166795D01*
X114505Y166669D01*
X114564Y166542D01*
X114619Y166413D01*
X114671Y166283D01*
X114719Y166151D01*
X114764Y166018D01*
X114805Y165884D01*
X114842Y165749D01*
X114875Y165613D01*
X114904Y165475D01*
X114929Y165338D01*
X114951Y165199D01*
X114969Y165060D01*
X114982Y164920D01*
X114992Y164780D01*
X114998Y164640D01*
X115000Y164500D01*
X115000Y157500D01*
D12*
X112119Y155446D02*
X107881Y155446D01*
X112119Y155446D02*
X112119Y156623D01*
X112117Y156690D01*
X112111Y156757D01*
X112102Y156824D01*
X112088Y156890D01*
X112071Y156955D01*
X112051Y157019D01*
X112026Y157081D01*
X111998Y157142D01*
X111967Y157202D01*
X111932Y157259D01*
X111894Y157315D01*
X111853Y157368D01*
X111809Y157419D01*
X111762Y157467D01*
X111713Y157513D01*
X111661Y157555D01*
X111606Y157595D01*
X111550Y157631D01*
X111491Y157664D01*
X111431Y157694D01*
X111369Y157720D01*
X111306Y157742D01*
X111241Y157761D01*
X111176Y157777D01*
X111110Y157788D01*
X111043Y157796D01*
X110976Y157800D01*
X110908Y157800D01*
X110841Y157796D01*
X110774Y157788D01*
X110708Y157777D01*
X110643Y157761D01*
X110578Y157742D01*
X110515Y157720D01*
X110453Y157694D01*
X110393Y157664D01*
X110334Y157631D01*
X110278Y157595D01*
X110223Y157555D01*
X110171Y157513D01*
X110122Y157467D01*
X110075Y157419D01*
X110031Y157368D01*
X109990Y157315D01*
X109952Y157259D01*
X109917Y157202D01*
X109886Y157142D01*
X109858Y157081D01*
X109833Y157019D01*
X109813Y156955D01*
X109796Y156890D01*
X109782Y156824D01*
X109773Y156757D01*
X109767Y156690D01*
X109765Y156623D01*
X109765Y155446D01*
X111177Y159699D02*
X112119Y160877D01*
X107881Y160877D01*
X107881Y162054D02*
X107881Y159699D01*
X110000Y164200D02*
X110113Y164202D01*
X110226Y164207D01*
X110339Y164216D01*
X110451Y164229D01*
X110563Y164246D01*
X110675Y164266D01*
X110785Y164289D01*
X110895Y164317D01*
X111004Y164347D01*
X111112Y164382D01*
X111218Y164419D01*
X111324Y164461D01*
X111428Y164505D01*
X111530Y164553D01*
X111584Y164573D01*
X111635Y164597D01*
X111685Y164624D01*
X111734Y164654D01*
X111780Y164687D01*
X111824Y164723D01*
X111865Y164762D01*
X111904Y164804D01*
X111940Y164848D01*
X111973Y164894D01*
X112003Y164942D01*
X112030Y164993D01*
X112053Y165044D01*
X112073Y165098D01*
X112089Y165152D01*
X112102Y165207D01*
X112112Y165264D01*
X112117Y165320D01*
X112119Y165377D01*
X112117Y165434D01*
X112112Y165490D01*
X112102Y165547D01*
X112089Y165602D01*
X112073Y165656D01*
X112053Y165710D01*
X112030Y165761D01*
X112003Y165812D01*
X111973Y165860D01*
X111940Y165906D01*
X111904Y165950D01*
X111865Y165992D01*
X111824Y166031D01*
X111780Y166067D01*
X111734Y166100D01*
X111685Y166130D01*
X111635Y166157D01*
X111584Y166181D01*
X111530Y166201D01*
X111428Y166249D01*
X111324Y166293D01*
X111218Y166335D01*
X111112Y166372D01*
X111004Y166407D01*
X110895Y166437D01*
X110785Y166465D01*
X110675Y166488D01*
X110563Y166508D01*
X110451Y166525D01*
X110339Y166538D01*
X110226Y166547D01*
X110113Y166552D01*
X110000Y166554D01*
X110000Y164199D02*
X109887Y164201D01*
X109774Y164206D01*
X109661Y164215D01*
X109549Y164228D01*
X109437Y164245D01*
X109325Y164265D01*
X109215Y164288D01*
X109105Y164316D01*
X108996Y164346D01*
X108888Y164381D01*
X108781Y164418D01*
X108676Y164460D01*
X108572Y164504D01*
X108469Y164552D01*
X108469Y164553D02*
X108416Y164573D01*
X108365Y164597D01*
X108315Y164624D01*
X108266Y164654D01*
X108220Y164687D01*
X108176Y164723D01*
X108135Y164762D01*
X108096Y164804D01*
X108060Y164848D01*
X108027Y164894D01*
X107997Y164942D01*
X107970Y164993D01*
X107947Y165044D01*
X107927Y165098D01*
X107911Y165152D01*
X107898Y165207D01*
X107888Y165264D01*
X107883Y165320D01*
X107881Y165377D01*
X108470Y166200D02*
X108572Y166248D01*
X108676Y166292D01*
X108782Y166334D01*
X108888Y166371D01*
X108996Y166406D01*
X109105Y166436D01*
X109215Y166464D01*
X109325Y166487D01*
X109437Y166507D01*
X109549Y166524D01*
X109661Y166537D01*
X109774Y166546D01*
X109887Y166551D01*
X110000Y166553D01*
X108470Y166201D02*
X108416Y166181D01*
X108365Y166157D01*
X108315Y166130D01*
X108266Y166100D01*
X108220Y166067D01*
X108176Y166031D01*
X108135Y165992D01*
X108096Y165950D01*
X108060Y165906D01*
X108027Y165860D01*
X107997Y165812D01*
X107970Y165761D01*
X107947Y165710D01*
X107927Y165656D01*
X107911Y165602D01*
X107898Y165547D01*
X107888Y165490D01*
X107883Y165434D01*
X107881Y165377D01*
X108823Y164435D02*
X111177Y166318D01*
D11*
X115000Y147500D02*
X114998Y147640D01*
X114992Y147780D01*
X114982Y147920D01*
X114969Y148060D01*
X114951Y148199D01*
X114929Y148338D01*
X114904Y148475D01*
X114875Y148613D01*
X114842Y148749D01*
X114805Y148884D01*
X114764Y149018D01*
X114719Y149151D01*
X114671Y149283D01*
X114619Y149413D01*
X114564Y149542D01*
X114505Y149669D01*
X114442Y149795D01*
X114376Y149919D01*
X114307Y150040D01*
X114234Y150160D01*
X114157Y150278D01*
X114078Y150393D01*
X113995Y150507D01*
X113909Y150617D01*
X113820Y150726D01*
X113728Y150832D01*
X113633Y150935D01*
X113536Y151036D01*
X113435Y151133D01*
X113332Y151228D01*
X113226Y151320D01*
X113117Y151409D01*
X113007Y151495D01*
X112893Y151578D01*
X112778Y151657D01*
X112660Y151734D01*
X112540Y151807D01*
X112419Y151876D01*
X112295Y151942D01*
X112169Y152005D01*
X112042Y152064D01*
X111913Y152119D01*
X111783Y152171D01*
X111651Y152219D01*
X111518Y152264D01*
X111384Y152305D01*
X111249Y152342D01*
X111113Y152375D01*
X110975Y152404D01*
X110838Y152429D01*
X110699Y152451D01*
X110560Y152469D01*
X110420Y152482D01*
X110280Y152492D01*
X110140Y152498D01*
X110000Y152500D01*
X109860Y152498D01*
X109720Y152492D01*
X109580Y152482D01*
X109440Y152469D01*
X109301Y152451D01*
X109162Y152429D01*
X109025Y152404D01*
X108887Y152375D01*
X108751Y152342D01*
X108616Y152305D01*
X108482Y152264D01*
X108349Y152219D01*
X108217Y152171D01*
X108087Y152119D01*
X107958Y152064D01*
X107831Y152005D01*
X107705Y151942D01*
X107581Y151876D01*
X107460Y151807D01*
X107340Y151734D01*
X107222Y151657D01*
X107107Y151578D01*
X106993Y151495D01*
X106883Y151409D01*
X106774Y151320D01*
X106668Y151228D01*
X106565Y151133D01*
X106464Y151036D01*
X106367Y150935D01*
X106272Y150832D01*
X106180Y150726D01*
X106091Y150617D01*
X106005Y150507D01*
X105922Y150393D01*
X105843Y150278D01*
X105766Y150160D01*
X105693Y150040D01*
X105624Y149919D01*
X105558Y149795D01*
X105495Y149669D01*
X105436Y149542D01*
X105381Y149413D01*
X105329Y149283D01*
X105281Y149151D01*
X105236Y149018D01*
X105195Y148884D01*
X105158Y148749D01*
X105125Y148613D01*
X105096Y148475D01*
X105071Y148338D01*
X105049Y148199D01*
X105031Y148060D01*
X105018Y147920D01*
X105008Y147780D01*
X105002Y147640D01*
X105000Y147500D01*
X115000Y147500D02*
X115000Y140500D01*
X114998Y140360D01*
X114992Y140220D01*
X114982Y140080D01*
X114969Y139940D01*
X114951Y139801D01*
X114929Y139662D01*
X114904Y139525D01*
X114875Y139387D01*
X114842Y139251D01*
X114805Y139116D01*
X114764Y138982D01*
X114719Y138849D01*
X114671Y138717D01*
X114619Y138587D01*
X114564Y138458D01*
X114505Y138331D01*
X114442Y138205D01*
X114376Y138081D01*
X114307Y137960D01*
X114234Y137840D01*
X114157Y137722D01*
X114078Y137607D01*
X113995Y137493D01*
X113909Y137383D01*
X113820Y137274D01*
X113728Y137168D01*
X113633Y137065D01*
X113536Y136964D01*
X113435Y136867D01*
X113332Y136772D01*
X113226Y136680D01*
X113117Y136591D01*
X113007Y136505D01*
X112893Y136422D01*
X112778Y136343D01*
X112660Y136266D01*
X112540Y136193D01*
X112419Y136124D01*
X112295Y136058D01*
X112169Y135995D01*
X112042Y135936D01*
X111913Y135881D01*
X111783Y135829D01*
X111651Y135781D01*
X111518Y135736D01*
X111384Y135695D01*
X111249Y135658D01*
X111113Y135625D01*
X110975Y135596D01*
X110838Y135571D01*
X110699Y135549D01*
X110560Y135531D01*
X110420Y135518D01*
X110280Y135508D01*
X110140Y135502D01*
X110000Y135500D01*
X109860Y135502D01*
X109720Y135508D01*
X109580Y135518D01*
X109440Y135531D01*
X109301Y135549D01*
X109162Y135571D01*
X109025Y135596D01*
X108887Y135625D01*
X108751Y135658D01*
X108616Y135695D01*
X108482Y135736D01*
X108349Y135781D01*
X108217Y135829D01*
X108087Y135881D01*
X107958Y135936D01*
X107831Y135995D01*
X107705Y136058D01*
X107581Y136124D01*
X107460Y136193D01*
X107340Y136266D01*
X107222Y136343D01*
X107107Y136422D01*
X106993Y136505D01*
X106883Y136591D01*
X106774Y136680D01*
X106668Y136772D01*
X106565Y136867D01*
X106464Y136964D01*
X106367Y137065D01*
X106272Y137168D01*
X106180Y137274D01*
X106091Y137383D01*
X106005Y137493D01*
X105922Y137607D01*
X105843Y137722D01*
X105766Y137840D01*
X105693Y137960D01*
X105624Y138081D01*
X105558Y138205D01*
X105495Y138331D01*
X105436Y138458D01*
X105381Y138587D01*
X105329Y138717D01*
X105281Y138849D01*
X105236Y138982D01*
X105195Y139116D01*
X105158Y139251D01*
X105125Y139387D01*
X105096Y139525D01*
X105071Y139662D01*
X105049Y139801D01*
X105031Y139940D01*
X105018Y140080D01*
X105008Y140220D01*
X105002Y140360D01*
X105000Y140500D01*
X105000Y147500D01*
D12*
X107881Y138446D02*
X112119Y138446D01*
X112119Y139623D01*
X112117Y139690D01*
X112111Y139757D01*
X112102Y139824D01*
X112088Y139890D01*
X112071Y139955D01*
X112051Y140019D01*
X112026Y140081D01*
X111998Y140142D01*
X111967Y140202D01*
X111932Y140259D01*
X111894Y140315D01*
X111853Y140368D01*
X111809Y140419D01*
X111762Y140467D01*
X111713Y140513D01*
X111661Y140555D01*
X111606Y140595D01*
X111550Y140631D01*
X111491Y140664D01*
X111431Y140694D01*
X111369Y140720D01*
X111306Y140742D01*
X111241Y140761D01*
X111176Y140777D01*
X111110Y140788D01*
X111043Y140796D01*
X110976Y140800D01*
X110908Y140800D01*
X110841Y140796D01*
X110774Y140788D01*
X110708Y140777D01*
X110643Y140761D01*
X110578Y140742D01*
X110515Y140720D01*
X110453Y140694D01*
X110393Y140664D01*
X110334Y140631D01*
X110278Y140595D01*
X110223Y140555D01*
X110171Y140513D01*
X110122Y140467D01*
X110075Y140419D01*
X110031Y140368D01*
X109990Y140315D01*
X109952Y140259D01*
X109917Y140202D01*
X109886Y140142D01*
X109858Y140081D01*
X109833Y140019D01*
X109813Y139955D01*
X109796Y139890D01*
X109782Y139824D01*
X109773Y139757D01*
X109767Y139690D01*
X109765Y139623D01*
X109765Y138446D01*
X111177Y142699D02*
X112119Y143877D01*
X107881Y143877D01*
X107881Y145054D02*
X107881Y142699D01*
X109765Y148141D02*
X109765Y149554D01*
X109764Y148141D02*
X109766Y148082D01*
X109771Y148023D01*
X109781Y147964D01*
X109794Y147907D01*
X109810Y147850D01*
X109830Y147794D01*
X109854Y147740D01*
X109881Y147687D01*
X109911Y147636D01*
X109944Y147587D01*
X109980Y147541D01*
X110019Y147496D01*
X110061Y147454D01*
X110106Y147415D01*
X110152Y147379D01*
X110201Y147346D01*
X110252Y147316D01*
X110305Y147289D01*
X110359Y147265D01*
X110415Y147245D01*
X110472Y147229D01*
X110530Y147216D01*
X110588Y147206D01*
X110647Y147201D01*
X110706Y147199D01*
X110942Y147199D01*
X110942Y147200D02*
X111009Y147202D01*
X111076Y147208D01*
X111143Y147217D01*
X111209Y147231D01*
X111274Y147248D01*
X111338Y147268D01*
X111400Y147293D01*
X111461Y147321D01*
X111521Y147352D01*
X111578Y147387D01*
X111634Y147425D01*
X111687Y147466D01*
X111738Y147510D01*
X111786Y147557D01*
X111832Y147606D01*
X111874Y147658D01*
X111914Y147713D01*
X111950Y147769D01*
X111983Y147828D01*
X112013Y147888D01*
X112039Y147950D01*
X112061Y148013D01*
X112080Y148078D01*
X112096Y148143D01*
X112107Y148209D01*
X112115Y148276D01*
X112119Y148343D01*
X112119Y148411D01*
X112115Y148478D01*
X112107Y148545D01*
X112096Y148611D01*
X112080Y148676D01*
X112061Y148741D01*
X112039Y148804D01*
X112013Y148866D01*
X111983Y148926D01*
X111950Y148985D01*
X111914Y149041D01*
X111874Y149096D01*
X111832Y149148D01*
X111786Y149197D01*
X111738Y149244D01*
X111687Y149288D01*
X111634Y149329D01*
X111578Y149367D01*
X111521Y149402D01*
X111461Y149433D01*
X111400Y149461D01*
X111338Y149486D01*
X111274Y149506D01*
X111209Y149523D01*
X111143Y149537D01*
X111076Y149546D01*
X111009Y149552D01*
X110942Y149554D01*
X109765Y149554D01*
X109680Y149552D01*
X109596Y149546D01*
X109512Y149537D01*
X109429Y149524D01*
X109346Y149507D01*
X109264Y149486D01*
X109183Y149462D01*
X109103Y149434D01*
X109025Y149402D01*
X108948Y149367D01*
X108872Y149329D01*
X108799Y149287D01*
X108727Y149242D01*
X108658Y149194D01*
X108590Y149143D01*
X108525Y149089D01*
X108463Y149032D01*
X108403Y148972D01*
X108346Y148910D01*
X108292Y148845D01*
X108241Y148777D01*
X108193Y148708D01*
X108148Y148636D01*
X108106Y148563D01*
X108068Y148487D01*
X108033Y148410D01*
X108001Y148332D01*
X107973Y148252D01*
X107949Y148171D01*
X107928Y148089D01*
X107911Y148006D01*
X107898Y147923D01*
X107889Y147839D01*
X107883Y147755D01*
X107881Y147670D01*
D11*
X117000Y91500D02*
X117002Y91640D01*
X117008Y91780D01*
X117018Y91920D01*
X117031Y92060D01*
X117049Y92199D01*
X117071Y92338D01*
X117096Y92475D01*
X117125Y92613D01*
X117158Y92749D01*
X117195Y92884D01*
X117236Y93018D01*
X117281Y93151D01*
X117329Y93283D01*
X117381Y93413D01*
X117436Y93542D01*
X117495Y93669D01*
X117558Y93795D01*
X117624Y93919D01*
X117693Y94040D01*
X117766Y94160D01*
X117843Y94278D01*
X117922Y94393D01*
X118005Y94507D01*
X118091Y94617D01*
X118180Y94726D01*
X118272Y94832D01*
X118367Y94935D01*
X118464Y95036D01*
X118565Y95133D01*
X118668Y95228D01*
X118774Y95320D01*
X118883Y95409D01*
X118993Y95495D01*
X119107Y95578D01*
X119222Y95657D01*
X119340Y95734D01*
X119460Y95807D01*
X119581Y95876D01*
X119705Y95942D01*
X119831Y96005D01*
X119958Y96064D01*
X120087Y96119D01*
X120217Y96171D01*
X120349Y96219D01*
X120482Y96264D01*
X120616Y96305D01*
X120751Y96342D01*
X120887Y96375D01*
X121025Y96404D01*
X121162Y96429D01*
X121301Y96451D01*
X121440Y96469D01*
X121580Y96482D01*
X121720Y96492D01*
X121860Y96498D01*
X122000Y96500D01*
X122140Y96498D01*
X122280Y96492D01*
X122420Y96482D01*
X122560Y96469D01*
X122699Y96451D01*
X122838Y96429D01*
X122975Y96404D01*
X123113Y96375D01*
X123249Y96342D01*
X123384Y96305D01*
X123518Y96264D01*
X123651Y96219D01*
X123783Y96171D01*
X123913Y96119D01*
X124042Y96064D01*
X124169Y96005D01*
X124295Y95942D01*
X124419Y95876D01*
X124540Y95807D01*
X124660Y95734D01*
X124778Y95657D01*
X124893Y95578D01*
X125007Y95495D01*
X125117Y95409D01*
X125226Y95320D01*
X125332Y95228D01*
X125435Y95133D01*
X125536Y95036D01*
X125633Y94935D01*
X125728Y94832D01*
X125820Y94726D01*
X125909Y94617D01*
X125995Y94507D01*
X126078Y94393D01*
X126157Y94278D01*
X126234Y94160D01*
X126307Y94040D01*
X126376Y93919D01*
X126442Y93795D01*
X126505Y93669D01*
X126564Y93542D01*
X126619Y93413D01*
X126671Y93283D01*
X126719Y93151D01*
X126764Y93018D01*
X126805Y92884D01*
X126842Y92749D01*
X126875Y92613D01*
X126904Y92475D01*
X126929Y92338D01*
X126951Y92199D01*
X126969Y92060D01*
X126982Y91920D01*
X126992Y91780D01*
X126998Y91640D01*
X127000Y91500D01*
X127000Y84500D01*
X126998Y84360D01*
X126992Y84220D01*
X126982Y84080D01*
X126969Y83940D01*
X126951Y83801D01*
X126929Y83662D01*
X126904Y83525D01*
X126875Y83387D01*
X126842Y83251D01*
X126805Y83116D01*
X126764Y82982D01*
X126719Y82849D01*
X126671Y82717D01*
X126619Y82587D01*
X126564Y82458D01*
X126505Y82331D01*
X126442Y82205D01*
X126376Y82081D01*
X126307Y81960D01*
X126234Y81840D01*
X126157Y81722D01*
X126078Y81607D01*
X125995Y81493D01*
X125909Y81383D01*
X125820Y81274D01*
X125728Y81168D01*
X125633Y81065D01*
X125536Y80964D01*
X125435Y80867D01*
X125332Y80772D01*
X125226Y80680D01*
X125117Y80591D01*
X125007Y80505D01*
X124893Y80422D01*
X124778Y80343D01*
X124660Y80266D01*
X124540Y80193D01*
X124419Y80124D01*
X124295Y80058D01*
X124169Y79995D01*
X124042Y79936D01*
X123913Y79881D01*
X123783Y79829D01*
X123651Y79781D01*
X123518Y79736D01*
X123384Y79695D01*
X123249Y79658D01*
X123113Y79625D01*
X122975Y79596D01*
X122838Y79571D01*
X122699Y79549D01*
X122560Y79531D01*
X122420Y79518D01*
X122280Y79508D01*
X122140Y79502D01*
X122000Y79500D01*
X121860Y79502D01*
X121720Y79508D01*
X121580Y79518D01*
X121440Y79531D01*
X121301Y79549D01*
X121162Y79571D01*
X121025Y79596D01*
X120887Y79625D01*
X120751Y79658D01*
X120616Y79695D01*
X120482Y79736D01*
X120349Y79781D01*
X120217Y79829D01*
X120087Y79881D01*
X119958Y79936D01*
X119831Y79995D01*
X119705Y80058D01*
X119581Y80124D01*
X119460Y80193D01*
X119340Y80266D01*
X119222Y80343D01*
X119107Y80422D01*
X118993Y80505D01*
X118883Y80591D01*
X118774Y80680D01*
X118668Y80772D01*
X118565Y80867D01*
X118464Y80964D01*
X118367Y81065D01*
X118272Y81168D01*
X118180Y81274D01*
X118091Y81383D01*
X118005Y81493D01*
X117922Y81607D01*
X117843Y81722D01*
X117766Y81840D01*
X117693Y81960D01*
X117624Y82081D01*
X117558Y82205D01*
X117495Y82331D01*
X117436Y82458D01*
X117381Y82587D01*
X117329Y82717D01*
X117281Y82849D01*
X117236Y82982D01*
X117195Y83116D01*
X117158Y83251D01*
X117125Y83387D01*
X117096Y83525D01*
X117071Y83662D01*
X117049Y83801D01*
X117031Y83940D01*
X117018Y84080D01*
X117008Y84220D01*
X117002Y84360D01*
X117000Y84500D01*
X117000Y91500D01*
D12*
X119881Y84696D02*
X124119Y84696D01*
X124119Y85873D01*
X124117Y85940D01*
X124111Y86007D01*
X124102Y86074D01*
X124088Y86140D01*
X124071Y86205D01*
X124051Y86269D01*
X124026Y86331D01*
X123998Y86392D01*
X123967Y86452D01*
X123932Y86509D01*
X123894Y86565D01*
X123853Y86618D01*
X123809Y86669D01*
X123762Y86717D01*
X123713Y86763D01*
X123661Y86805D01*
X123606Y86845D01*
X123550Y86881D01*
X123491Y86914D01*
X123431Y86944D01*
X123369Y86970D01*
X123306Y86992D01*
X123241Y87011D01*
X123176Y87027D01*
X123110Y87038D01*
X123043Y87046D01*
X122976Y87050D01*
X122908Y87050D01*
X122841Y87046D01*
X122774Y87038D01*
X122708Y87027D01*
X122643Y87011D01*
X122578Y86992D01*
X122515Y86970D01*
X122453Y86944D01*
X122393Y86914D01*
X122334Y86881D01*
X122278Y86845D01*
X122223Y86805D01*
X122171Y86763D01*
X122122Y86717D01*
X122075Y86669D01*
X122031Y86618D01*
X121990Y86565D01*
X121952Y86509D01*
X121917Y86452D01*
X121886Y86392D01*
X121858Y86331D01*
X121833Y86269D01*
X121813Y86205D01*
X121796Y86140D01*
X121782Y86074D01*
X121773Y86007D01*
X121767Y85940D01*
X121765Y85873D01*
X121765Y84696D01*
X123177Y88949D02*
X124119Y90127D01*
X119881Y90127D01*
X119881Y91304D02*
X119881Y88949D01*
D11*
X307600Y157000D02*
X307600Y159000D01*
X307599Y159141D01*
X307594Y159282D01*
X307585Y159423D01*
X307572Y159563D01*
X307555Y159703D01*
X307534Y159842D01*
X307510Y159981D01*
X307481Y160119D01*
X307449Y160256D01*
X307412Y160392D01*
X307372Y160527D01*
X307328Y160661D01*
X307281Y160793D01*
X307229Y160924D01*
X307174Y161054D01*
X307116Y161182D01*
X307053Y161308D01*
X306987Y161433D01*
X306918Y161556D01*
X306845Y161676D01*
X306769Y161795D01*
X306690Y161911D01*
X306607Y162025D01*
X306521Y162137D01*
X306433Y162246D01*
X306341Y162353D01*
X306246Y162457D01*
X306148Y162558D01*
X306047Y162657D01*
X305944Y162752D01*
X305838Y162845D01*
X305729Y162935D01*
X305618Y163021D01*
X305504Y163105D01*
X305389Y163185D01*
X305271Y163262D01*
X305151Y163336D01*
X305028Y163406D01*
X304904Y163472D01*
X304778Y163536D01*
X304651Y163595D01*
X304521Y163651D01*
X304391Y163703D01*
X304258Y163752D01*
X304125Y163797D01*
X303990Y163838D01*
X303854Y163875D01*
X303717Y163909D01*
X303580Y163938D01*
X303441Y163964D01*
X303302Y163985D01*
X303162Y164003D01*
X303022Y164017D01*
X302882Y164027D01*
X302741Y164033D01*
X302600Y164035D01*
X302459Y164033D01*
X302318Y164027D01*
X302178Y164017D01*
X302038Y164003D01*
X301898Y163985D01*
X301759Y163964D01*
X301620Y163938D01*
X301483Y163909D01*
X301346Y163875D01*
X301210Y163838D01*
X301075Y163797D01*
X300942Y163752D01*
X300809Y163703D01*
X300679Y163651D01*
X300549Y163595D01*
X300422Y163536D01*
X300296Y163472D01*
X300172Y163406D01*
X300049Y163336D01*
X299929Y163262D01*
X299811Y163185D01*
X299696Y163105D01*
X299582Y163021D01*
X299471Y162935D01*
X299362Y162845D01*
X299256Y162752D01*
X299153Y162657D01*
X299052Y162558D01*
X298954Y162457D01*
X298859Y162353D01*
X298767Y162246D01*
X298679Y162137D01*
X298593Y162025D01*
X298510Y161911D01*
X298431Y161795D01*
X298355Y161676D01*
X298282Y161556D01*
X298213Y161433D01*
X298147Y161308D01*
X298084Y161182D01*
X298026Y161054D01*
X297971Y160924D01*
X297919Y160793D01*
X297872Y160661D01*
X297828Y160527D01*
X297788Y160392D01*
X297751Y160256D01*
X297719Y160119D01*
X297690Y159981D01*
X297666Y159842D01*
X297645Y159703D01*
X297628Y159563D01*
X297615Y159423D01*
X297606Y159282D01*
X297601Y159141D01*
X297600Y159000D01*
X297600Y157000D01*
X297601Y156860D01*
X297605Y156719D01*
X297613Y156580D01*
X297624Y156440D01*
X297640Y156301D01*
X297660Y156162D01*
X297684Y156024D01*
X297711Y155886D01*
X297742Y155750D01*
X297777Y155614D01*
X297816Y155479D01*
X297859Y155346D01*
X297905Y155213D01*
X297955Y155083D01*
X298009Y154953D01*
X298066Y154825D01*
X298127Y154699D01*
X298192Y154574D01*
X298260Y154452D01*
X298331Y154331D01*
X298406Y154212D01*
X298484Y154096D01*
X298565Y153982D01*
X298649Y153870D01*
X298736Y153760D01*
X298827Y153653D01*
X298920Y153549D01*
X299017Y153447D01*
X299116Y153348D01*
X299218Y153252D01*
X299322Y153158D01*
X299429Y153068D01*
X299539Y152980D01*
X299651Y152896D01*
X299765Y152815D01*
X299882Y152737D01*
X300001Y152663D01*
X300122Y152592D01*
X300244Y152524D01*
X300369Y152459D01*
X300495Y152399D01*
X300623Y152341D01*
X300753Y152288D01*
X300883Y152238D01*
X301016Y152192D01*
X301149Y152149D01*
X301284Y152110D01*
X301420Y152075D01*
X301556Y152044D01*
X301694Y152017D01*
X301832Y151993D01*
X301971Y151974D01*
X302110Y151958D01*
X302250Y151946D01*
X302390Y151938D01*
X302530Y151934D01*
X302670Y151934D01*
X302810Y151938D01*
X302950Y151946D01*
X303090Y151958D01*
X303229Y151974D01*
X303368Y151993D01*
X303506Y152017D01*
X303644Y152044D01*
X303780Y152075D01*
X303916Y152110D01*
X304051Y152149D01*
X304184Y152192D01*
X304317Y152238D01*
X304447Y152288D01*
X304577Y152341D01*
X304705Y152399D01*
X304831Y152459D01*
X304956Y152524D01*
X305078Y152592D01*
X305199Y152663D01*
X305318Y152737D01*
X305435Y152815D01*
X305549Y152896D01*
X305661Y152980D01*
X305771Y153068D01*
X305878Y153158D01*
X305982Y153252D01*
X306084Y153348D01*
X306183Y153447D01*
X306280Y153549D01*
X306373Y153653D01*
X306464Y153760D01*
X306551Y153870D01*
X306635Y153982D01*
X306716Y154096D01*
X306794Y154212D01*
X306869Y154331D01*
X306940Y154452D01*
X307008Y154574D01*
X307073Y154699D01*
X307134Y154825D01*
X307191Y154953D01*
X307245Y155083D01*
X307295Y155213D01*
X307341Y155346D01*
X307384Y155479D01*
X307423Y155614D01*
X307458Y155750D01*
X307489Y155886D01*
X307516Y156024D01*
X307540Y156162D01*
X307560Y156301D01*
X307576Y156440D01*
X307587Y156580D01*
X307595Y156719D01*
X307599Y156860D01*
X307600Y157000D01*
D12*
X305904Y155881D02*
X305904Y160119D01*
X304727Y160119D01*
X304660Y160117D01*
X304593Y160111D01*
X304526Y160102D01*
X304460Y160088D01*
X304395Y160071D01*
X304331Y160051D01*
X304269Y160026D01*
X304208Y159998D01*
X304148Y159967D01*
X304091Y159932D01*
X304035Y159894D01*
X303982Y159853D01*
X303931Y159809D01*
X303883Y159762D01*
X303837Y159713D01*
X303795Y159661D01*
X303755Y159606D01*
X303719Y159550D01*
X303686Y159491D01*
X303656Y159431D01*
X303630Y159369D01*
X303608Y159306D01*
X303589Y159241D01*
X303573Y159176D01*
X303562Y159110D01*
X303554Y159043D01*
X303550Y158976D01*
X303550Y158908D01*
X303554Y158841D01*
X303562Y158774D01*
X303573Y158708D01*
X303589Y158643D01*
X303608Y158578D01*
X303630Y158515D01*
X303656Y158453D01*
X303686Y158393D01*
X303719Y158334D01*
X303755Y158278D01*
X303795Y158223D01*
X303837Y158171D01*
X303883Y158122D01*
X303931Y158075D01*
X303982Y158031D01*
X304035Y157990D01*
X304091Y157952D01*
X304148Y157917D01*
X304208Y157886D01*
X304269Y157858D01*
X304331Y157833D01*
X304395Y157813D01*
X304460Y157796D01*
X304526Y157782D01*
X304593Y157773D01*
X304660Y157767D01*
X304727Y157765D01*
X305904Y157765D01*
X301651Y155881D02*
X300473Y155881D01*
X300406Y155883D01*
X300339Y155889D01*
X300272Y155898D01*
X300206Y155912D01*
X300141Y155929D01*
X300077Y155949D01*
X300015Y155974D01*
X299954Y156002D01*
X299894Y156033D01*
X299837Y156068D01*
X299781Y156106D01*
X299728Y156147D01*
X299677Y156191D01*
X299629Y156238D01*
X299583Y156287D01*
X299541Y156339D01*
X299501Y156394D01*
X299465Y156450D01*
X299432Y156509D01*
X299402Y156569D01*
X299376Y156631D01*
X299354Y156694D01*
X299335Y156759D01*
X299319Y156824D01*
X299308Y156890D01*
X299300Y156957D01*
X299296Y157024D01*
X299296Y157092D01*
X299300Y157159D01*
X299308Y157226D01*
X299319Y157292D01*
X299335Y157357D01*
X299354Y157422D01*
X299376Y157485D01*
X299402Y157547D01*
X299432Y157607D01*
X299465Y157666D01*
X299501Y157722D01*
X299541Y157777D01*
X299583Y157829D01*
X299629Y157878D01*
X299677Y157925D01*
X299728Y157969D01*
X299781Y158010D01*
X299837Y158048D01*
X299894Y158083D01*
X299954Y158114D01*
X300015Y158142D01*
X300077Y158167D01*
X300141Y158187D01*
X300206Y158204D01*
X300272Y158218D01*
X300339Y158227D01*
X300406Y158233D01*
X300473Y158235D01*
X300238Y160119D02*
X301651Y160119D01*
X300238Y160119D02*
X300178Y160117D01*
X300118Y160111D01*
X300058Y160102D01*
X299999Y160088D01*
X299941Y160071D01*
X299884Y160050D01*
X299829Y160026D01*
X299776Y159998D01*
X299724Y159966D01*
X299675Y159932D01*
X299627Y159894D01*
X299583Y159854D01*
X299541Y159810D01*
X299502Y159764D01*
X299465Y159716D01*
X299432Y159665D01*
X299403Y159613D01*
X299377Y159558D01*
X299354Y159502D01*
X299335Y159445D01*
X299320Y159387D01*
X299308Y159327D01*
X299300Y159267D01*
X299296Y159207D01*
X299296Y159147D01*
X299300Y159087D01*
X299308Y159027D01*
X299320Y158967D01*
X299335Y158909D01*
X299354Y158852D01*
X299377Y158796D01*
X299403Y158741D01*
X299432Y158689D01*
X299465Y158638D01*
X299502Y158590D01*
X299541Y158544D01*
X299583Y158500D01*
X299627Y158460D01*
X299675Y158422D01*
X299724Y158388D01*
X299776Y158356D01*
X299829Y158328D01*
X299884Y158304D01*
X299941Y158283D01*
X299999Y158266D01*
X300058Y158252D01*
X300118Y158243D01*
X300178Y158237D01*
X300238Y158235D01*
X301180Y158235D01*
D11*
X318600Y159000D02*
X318600Y157000D01*
X318600Y159000D02*
X318599Y159141D01*
X318594Y159282D01*
X318585Y159423D01*
X318572Y159563D01*
X318555Y159703D01*
X318534Y159842D01*
X318510Y159981D01*
X318481Y160119D01*
X318449Y160256D01*
X318412Y160392D01*
X318372Y160527D01*
X318328Y160661D01*
X318281Y160793D01*
X318229Y160924D01*
X318174Y161054D01*
X318116Y161182D01*
X318053Y161308D01*
X317987Y161433D01*
X317918Y161556D01*
X317845Y161676D01*
X317769Y161795D01*
X317690Y161911D01*
X317607Y162025D01*
X317521Y162137D01*
X317433Y162246D01*
X317341Y162353D01*
X317246Y162457D01*
X317148Y162558D01*
X317047Y162657D01*
X316944Y162752D01*
X316838Y162845D01*
X316729Y162935D01*
X316618Y163021D01*
X316504Y163105D01*
X316389Y163185D01*
X316271Y163262D01*
X316151Y163336D01*
X316028Y163406D01*
X315904Y163472D01*
X315778Y163536D01*
X315651Y163595D01*
X315521Y163651D01*
X315391Y163703D01*
X315258Y163752D01*
X315125Y163797D01*
X314990Y163838D01*
X314854Y163875D01*
X314717Y163909D01*
X314580Y163938D01*
X314441Y163964D01*
X314302Y163985D01*
X314162Y164003D01*
X314022Y164017D01*
X313882Y164027D01*
X313741Y164033D01*
X313600Y164035D01*
X313459Y164033D01*
X313318Y164027D01*
X313178Y164017D01*
X313038Y164003D01*
X312898Y163985D01*
X312759Y163964D01*
X312620Y163938D01*
X312483Y163909D01*
X312346Y163875D01*
X312210Y163838D01*
X312075Y163797D01*
X311942Y163752D01*
X311809Y163703D01*
X311679Y163651D01*
X311549Y163595D01*
X311422Y163536D01*
X311296Y163472D01*
X311172Y163406D01*
X311049Y163336D01*
X310929Y163262D01*
X310811Y163185D01*
X310696Y163105D01*
X310582Y163021D01*
X310471Y162935D01*
X310362Y162845D01*
X310256Y162752D01*
X310153Y162657D01*
X310052Y162558D01*
X309954Y162457D01*
X309859Y162353D01*
X309767Y162246D01*
X309679Y162137D01*
X309593Y162025D01*
X309510Y161911D01*
X309431Y161795D01*
X309355Y161676D01*
X309282Y161556D01*
X309213Y161433D01*
X309147Y161308D01*
X309084Y161182D01*
X309026Y161054D01*
X308971Y160924D01*
X308919Y160793D01*
X308872Y160661D01*
X308828Y160527D01*
X308788Y160392D01*
X308751Y160256D01*
X308719Y160119D01*
X308690Y159981D01*
X308666Y159842D01*
X308645Y159703D01*
X308628Y159563D01*
X308615Y159423D01*
X308606Y159282D01*
X308601Y159141D01*
X308600Y159000D01*
X308600Y157000D01*
X308601Y156860D01*
X308605Y156719D01*
X308613Y156580D01*
X308624Y156440D01*
X308640Y156301D01*
X308660Y156162D01*
X308684Y156024D01*
X308711Y155886D01*
X308742Y155750D01*
X308777Y155614D01*
X308816Y155479D01*
X308859Y155346D01*
X308905Y155213D01*
X308955Y155083D01*
X309009Y154953D01*
X309066Y154825D01*
X309127Y154699D01*
X309192Y154574D01*
X309260Y154452D01*
X309331Y154331D01*
X309406Y154212D01*
X309484Y154096D01*
X309565Y153982D01*
X309649Y153870D01*
X309736Y153760D01*
X309827Y153653D01*
X309920Y153549D01*
X310017Y153447D01*
X310116Y153348D01*
X310218Y153252D01*
X310322Y153158D01*
X310429Y153068D01*
X310539Y152980D01*
X310651Y152896D01*
X310765Y152815D01*
X310882Y152737D01*
X311001Y152663D01*
X311122Y152592D01*
X311244Y152524D01*
X311369Y152459D01*
X311495Y152399D01*
X311623Y152341D01*
X311753Y152288D01*
X311883Y152238D01*
X312016Y152192D01*
X312149Y152149D01*
X312284Y152110D01*
X312420Y152075D01*
X312556Y152044D01*
X312694Y152017D01*
X312832Y151993D01*
X312971Y151974D01*
X313110Y151958D01*
X313250Y151946D01*
X313390Y151938D01*
X313530Y151934D01*
X313670Y151934D01*
X313810Y151938D01*
X313950Y151946D01*
X314090Y151958D01*
X314229Y151974D01*
X314368Y151993D01*
X314506Y152017D01*
X314644Y152044D01*
X314780Y152075D01*
X314916Y152110D01*
X315051Y152149D01*
X315184Y152192D01*
X315317Y152238D01*
X315447Y152288D01*
X315577Y152341D01*
X315705Y152399D01*
X315831Y152459D01*
X315956Y152524D01*
X316078Y152592D01*
X316199Y152663D01*
X316318Y152737D01*
X316435Y152815D01*
X316549Y152896D01*
X316661Y152980D01*
X316771Y153068D01*
X316878Y153158D01*
X316982Y153252D01*
X317084Y153348D01*
X317183Y153447D01*
X317280Y153549D01*
X317373Y153653D01*
X317464Y153760D01*
X317551Y153870D01*
X317635Y153982D01*
X317716Y154096D01*
X317794Y154212D01*
X317869Y154331D01*
X317940Y154452D01*
X318008Y154574D01*
X318073Y154699D01*
X318134Y154825D01*
X318191Y154953D01*
X318245Y155083D01*
X318295Y155213D01*
X318341Y155346D01*
X318384Y155479D01*
X318423Y155614D01*
X318458Y155750D01*
X318489Y155886D01*
X318516Y156024D01*
X318540Y156162D01*
X318560Y156301D01*
X318576Y156440D01*
X318587Y156580D01*
X318595Y156719D01*
X318599Y156860D01*
X318600Y157000D01*
D12*
X316904Y155881D02*
X316904Y160119D01*
X315727Y160119D01*
X315660Y160117D01*
X315593Y160111D01*
X315526Y160102D01*
X315460Y160088D01*
X315395Y160071D01*
X315331Y160051D01*
X315269Y160026D01*
X315208Y159998D01*
X315148Y159967D01*
X315091Y159932D01*
X315035Y159894D01*
X314982Y159853D01*
X314931Y159809D01*
X314883Y159762D01*
X314837Y159713D01*
X314795Y159661D01*
X314755Y159606D01*
X314719Y159550D01*
X314686Y159491D01*
X314656Y159431D01*
X314630Y159369D01*
X314608Y159306D01*
X314589Y159241D01*
X314573Y159176D01*
X314562Y159110D01*
X314554Y159043D01*
X314550Y158976D01*
X314550Y158908D01*
X314554Y158841D01*
X314562Y158774D01*
X314573Y158708D01*
X314589Y158643D01*
X314608Y158578D01*
X314630Y158515D01*
X314656Y158453D01*
X314686Y158393D01*
X314719Y158334D01*
X314755Y158278D01*
X314795Y158223D01*
X314837Y158171D01*
X314883Y158122D01*
X314931Y158075D01*
X314982Y158031D01*
X315035Y157990D01*
X315091Y157952D01*
X315148Y157917D01*
X315208Y157886D01*
X315269Y157858D01*
X315331Y157833D01*
X315395Y157813D01*
X315460Y157796D01*
X315526Y157782D01*
X315593Y157773D01*
X315660Y157767D01*
X315727Y157765D01*
X316904Y157765D01*
X312651Y156823D02*
X311709Y160119D01*
X312651Y156823D02*
X310296Y156823D01*
X311003Y157765D02*
X311003Y155881D01*
D11*
X137000Y91500D02*
X136998Y91640D01*
X136992Y91780D01*
X136982Y91920D01*
X136969Y92060D01*
X136951Y92199D01*
X136929Y92338D01*
X136904Y92475D01*
X136875Y92613D01*
X136842Y92749D01*
X136805Y92884D01*
X136764Y93018D01*
X136719Y93151D01*
X136671Y93283D01*
X136619Y93413D01*
X136564Y93542D01*
X136505Y93669D01*
X136442Y93795D01*
X136376Y93919D01*
X136307Y94040D01*
X136234Y94160D01*
X136157Y94278D01*
X136078Y94393D01*
X135995Y94507D01*
X135909Y94617D01*
X135820Y94726D01*
X135728Y94832D01*
X135633Y94935D01*
X135536Y95036D01*
X135435Y95133D01*
X135332Y95228D01*
X135226Y95320D01*
X135117Y95409D01*
X135007Y95495D01*
X134893Y95578D01*
X134778Y95657D01*
X134660Y95734D01*
X134540Y95807D01*
X134419Y95876D01*
X134295Y95942D01*
X134169Y96005D01*
X134042Y96064D01*
X133913Y96119D01*
X133783Y96171D01*
X133651Y96219D01*
X133518Y96264D01*
X133384Y96305D01*
X133249Y96342D01*
X133113Y96375D01*
X132975Y96404D01*
X132838Y96429D01*
X132699Y96451D01*
X132560Y96469D01*
X132420Y96482D01*
X132280Y96492D01*
X132140Y96498D01*
X132000Y96500D01*
X131860Y96498D01*
X131720Y96492D01*
X131580Y96482D01*
X131440Y96469D01*
X131301Y96451D01*
X131162Y96429D01*
X131025Y96404D01*
X130887Y96375D01*
X130751Y96342D01*
X130616Y96305D01*
X130482Y96264D01*
X130349Y96219D01*
X130217Y96171D01*
X130087Y96119D01*
X129958Y96064D01*
X129831Y96005D01*
X129705Y95942D01*
X129581Y95876D01*
X129460Y95807D01*
X129340Y95734D01*
X129222Y95657D01*
X129107Y95578D01*
X128993Y95495D01*
X128883Y95409D01*
X128774Y95320D01*
X128668Y95228D01*
X128565Y95133D01*
X128464Y95036D01*
X128367Y94935D01*
X128272Y94832D01*
X128180Y94726D01*
X128091Y94617D01*
X128005Y94507D01*
X127922Y94393D01*
X127843Y94278D01*
X127766Y94160D01*
X127693Y94040D01*
X127624Y93919D01*
X127558Y93795D01*
X127495Y93669D01*
X127436Y93542D01*
X127381Y93413D01*
X127329Y93283D01*
X127281Y93151D01*
X127236Y93018D01*
X127195Y92884D01*
X127158Y92749D01*
X127125Y92613D01*
X127096Y92475D01*
X127071Y92338D01*
X127049Y92199D01*
X127031Y92060D01*
X127018Y91920D01*
X127008Y91780D01*
X127002Y91640D01*
X127000Y91500D01*
X137000Y91500D02*
X137000Y84500D01*
X136998Y84360D01*
X136992Y84220D01*
X136982Y84080D01*
X136969Y83940D01*
X136951Y83801D01*
X136929Y83662D01*
X136904Y83525D01*
X136875Y83387D01*
X136842Y83251D01*
X136805Y83116D01*
X136764Y82982D01*
X136719Y82849D01*
X136671Y82717D01*
X136619Y82587D01*
X136564Y82458D01*
X136505Y82331D01*
X136442Y82205D01*
X136376Y82081D01*
X136307Y81960D01*
X136234Y81840D01*
X136157Y81722D01*
X136078Y81607D01*
X135995Y81493D01*
X135909Y81383D01*
X135820Y81274D01*
X135728Y81168D01*
X135633Y81065D01*
X135536Y80964D01*
X135435Y80867D01*
X135332Y80772D01*
X135226Y80680D01*
X135117Y80591D01*
X135007Y80505D01*
X134893Y80422D01*
X134778Y80343D01*
X134660Y80266D01*
X134540Y80193D01*
X134419Y80124D01*
X134295Y80058D01*
X134169Y79995D01*
X134042Y79936D01*
X133913Y79881D01*
X133783Y79829D01*
X133651Y79781D01*
X133518Y79736D01*
X133384Y79695D01*
X133249Y79658D01*
X133113Y79625D01*
X132975Y79596D01*
X132838Y79571D01*
X132699Y79549D01*
X132560Y79531D01*
X132420Y79518D01*
X132280Y79508D01*
X132140Y79502D01*
X132000Y79500D01*
X131860Y79502D01*
X131720Y79508D01*
X131580Y79518D01*
X131440Y79531D01*
X131301Y79549D01*
X131162Y79571D01*
X131025Y79596D01*
X130887Y79625D01*
X130751Y79658D01*
X130616Y79695D01*
X130482Y79736D01*
X130349Y79781D01*
X130217Y79829D01*
X130087Y79881D01*
X129958Y79936D01*
X129831Y79995D01*
X129705Y80058D01*
X129581Y80124D01*
X129460Y80193D01*
X129340Y80266D01*
X129222Y80343D01*
X129107Y80422D01*
X128993Y80505D01*
X128883Y80591D01*
X128774Y80680D01*
X128668Y80772D01*
X128565Y80867D01*
X128464Y80964D01*
X128367Y81065D01*
X128272Y81168D01*
X128180Y81274D01*
X128091Y81383D01*
X128005Y81493D01*
X127922Y81607D01*
X127843Y81722D01*
X127766Y81840D01*
X127693Y81960D01*
X127624Y82081D01*
X127558Y82205D01*
X127495Y82331D01*
X127436Y82458D01*
X127381Y82587D01*
X127329Y82717D01*
X127281Y82849D01*
X127236Y82982D01*
X127195Y83116D01*
X127158Y83251D01*
X127125Y83387D01*
X127096Y83525D01*
X127071Y83662D01*
X127049Y83801D01*
X127031Y83940D01*
X127018Y84080D01*
X127008Y84220D01*
X127002Y84360D01*
X127000Y84500D01*
X127000Y91500D01*
D12*
X129881Y84696D02*
X134119Y84696D01*
X134119Y85873D01*
X134117Y85940D01*
X134111Y86007D01*
X134102Y86074D01*
X134088Y86140D01*
X134071Y86205D01*
X134051Y86269D01*
X134026Y86331D01*
X133998Y86392D01*
X133967Y86452D01*
X133932Y86509D01*
X133894Y86565D01*
X133853Y86618D01*
X133809Y86669D01*
X133762Y86717D01*
X133713Y86763D01*
X133661Y86805D01*
X133606Y86845D01*
X133550Y86881D01*
X133491Y86914D01*
X133431Y86944D01*
X133369Y86970D01*
X133306Y86992D01*
X133241Y87011D01*
X133176Y87027D01*
X133110Y87038D01*
X133043Y87046D01*
X132976Y87050D01*
X132908Y87050D01*
X132841Y87046D01*
X132774Y87038D01*
X132708Y87027D01*
X132643Y87011D01*
X132578Y86992D01*
X132515Y86970D01*
X132453Y86944D01*
X132393Y86914D01*
X132334Y86881D01*
X132278Y86845D01*
X132223Y86805D01*
X132171Y86763D01*
X132122Y86717D01*
X132075Y86669D01*
X132031Y86618D01*
X131990Y86565D01*
X131952Y86509D01*
X131917Y86452D01*
X131886Y86392D01*
X131858Y86331D01*
X131833Y86269D01*
X131813Y86205D01*
X131796Y86140D01*
X131782Y86074D01*
X131773Y86007D01*
X131767Y85940D01*
X131765Y85873D01*
X131765Y84696D01*
X129881Y88949D02*
X129881Y90362D01*
X129883Y90421D01*
X129888Y90480D01*
X129898Y90539D01*
X129911Y90596D01*
X129927Y90653D01*
X129947Y90709D01*
X129971Y90763D01*
X129998Y90816D01*
X130028Y90867D01*
X130061Y90916D01*
X130097Y90962D01*
X130136Y91007D01*
X130178Y91049D01*
X130223Y91088D01*
X130269Y91124D01*
X130318Y91157D01*
X130369Y91187D01*
X130422Y91214D01*
X130476Y91238D01*
X130532Y91258D01*
X130589Y91274D01*
X130646Y91287D01*
X130705Y91297D01*
X130764Y91302D01*
X130823Y91304D01*
X131294Y91304D01*
X131353Y91302D01*
X131412Y91297D01*
X131471Y91287D01*
X131528Y91274D01*
X131585Y91258D01*
X131641Y91238D01*
X131695Y91214D01*
X131748Y91187D01*
X131799Y91157D01*
X131848Y91124D01*
X131894Y91088D01*
X131939Y91049D01*
X131981Y91007D01*
X132020Y90962D01*
X132056Y90916D01*
X132089Y90867D01*
X132119Y90816D01*
X132146Y90763D01*
X132170Y90709D01*
X132190Y90653D01*
X132206Y90596D01*
X132219Y90539D01*
X132229Y90480D01*
X132234Y90421D01*
X132236Y90362D01*
X132235Y90362D02*
X132235Y88949D01*
X134119Y88949D01*
X134119Y91304D01*
D11*
X190750Y41800D02*
X201250Y41800D01*
X201250Y58300D01*
X190750Y58300D01*
X190750Y41800D01*
X192000Y44000D02*
X192002Y44063D01*
X192008Y44125D01*
X192018Y44187D01*
X192031Y44249D01*
X192049Y44309D01*
X192070Y44368D01*
X192095Y44426D01*
X192124Y44482D01*
X192156Y44536D01*
X192191Y44588D01*
X192229Y44637D01*
X192271Y44685D01*
X192315Y44729D01*
X192363Y44771D01*
X192412Y44809D01*
X192464Y44844D01*
X192518Y44876D01*
X192574Y44905D01*
X192632Y44930D01*
X192691Y44951D01*
X192751Y44969D01*
X192813Y44982D01*
X192875Y44992D01*
X192937Y44998D01*
X193000Y45000D01*
X193063Y44998D01*
X193125Y44992D01*
X193187Y44982D01*
X193249Y44969D01*
X193309Y44951D01*
X193368Y44930D01*
X193426Y44905D01*
X193482Y44876D01*
X193536Y44844D01*
X193588Y44809D01*
X193637Y44771D01*
X193685Y44729D01*
X193729Y44685D01*
X193771Y44637D01*
X193809Y44588D01*
X193844Y44536D01*
X193876Y44482D01*
X193905Y44426D01*
X193930Y44368D01*
X193951Y44309D01*
X193969Y44249D01*
X193982Y44187D01*
X193992Y44125D01*
X193998Y44063D01*
X194000Y44000D01*
X193998Y43937D01*
X193992Y43875D01*
X193982Y43813D01*
X193969Y43751D01*
X193951Y43691D01*
X193930Y43632D01*
X193905Y43574D01*
X193876Y43518D01*
X193844Y43464D01*
X193809Y43412D01*
X193771Y43363D01*
X193729Y43315D01*
X193685Y43271D01*
X193637Y43229D01*
X193588Y43191D01*
X193536Y43156D01*
X193482Y43124D01*
X193426Y43095D01*
X193368Y43070D01*
X193309Y43049D01*
X193249Y43031D01*
X193187Y43018D01*
X193125Y43008D01*
X193063Y43002D01*
X193000Y43000D01*
X192937Y43002D01*
X192875Y43008D01*
X192813Y43018D01*
X192751Y43031D01*
X192691Y43049D01*
X192632Y43070D01*
X192574Y43095D01*
X192518Y43124D01*
X192464Y43156D01*
X192412Y43191D01*
X192363Y43229D01*
X192315Y43271D01*
X192271Y43315D01*
X192229Y43363D01*
X192191Y43412D01*
X192156Y43464D01*
X192124Y43518D01*
X192095Y43574D01*
X192070Y43632D01*
X192049Y43691D01*
X192031Y43751D01*
X192018Y43813D01*
X192008Y43875D01*
X192002Y43937D01*
X192000Y44000D01*
D13*
X189746Y45970D02*
X188776Y46746D01*
X188776Y43254D01*
X189746Y43254D02*
X187806Y43254D01*
D12*
X195058Y44248D02*
X198119Y44248D01*
X195058Y44248D02*
X194991Y44250D01*
X194924Y44256D01*
X194857Y44265D01*
X194791Y44279D01*
X194726Y44296D01*
X194662Y44316D01*
X194600Y44341D01*
X194539Y44369D01*
X194479Y44400D01*
X194422Y44435D01*
X194366Y44473D01*
X194313Y44514D01*
X194262Y44558D01*
X194214Y44605D01*
X194168Y44654D01*
X194126Y44706D01*
X194086Y44761D01*
X194050Y44817D01*
X194017Y44876D01*
X193987Y44936D01*
X193961Y44998D01*
X193939Y45061D01*
X193920Y45126D01*
X193904Y45191D01*
X193893Y45257D01*
X193885Y45324D01*
X193881Y45391D01*
X193881Y45459D01*
X193885Y45526D01*
X193893Y45593D01*
X193904Y45659D01*
X193920Y45724D01*
X193939Y45789D01*
X193961Y45852D01*
X193987Y45914D01*
X194017Y45974D01*
X194050Y46033D01*
X194086Y46089D01*
X194126Y46144D01*
X194168Y46196D01*
X194214Y46245D01*
X194262Y46292D01*
X194313Y46336D01*
X194366Y46377D01*
X194422Y46415D01*
X194479Y46450D01*
X194539Y46481D01*
X194600Y46509D01*
X194662Y46534D01*
X194726Y46554D01*
X194791Y46571D01*
X194857Y46585D01*
X194924Y46594D01*
X194991Y46600D01*
X195058Y46602D01*
X198119Y46602D01*
X197177Y48898D02*
X198119Y50075D01*
X193881Y50075D01*
X193881Y48898D02*
X193881Y51252D01*
X195765Y54340D02*
X195765Y55752D01*
X195764Y54340D02*
X195766Y54281D01*
X195771Y54222D01*
X195781Y54163D01*
X195794Y54106D01*
X195810Y54049D01*
X195830Y53993D01*
X195854Y53939D01*
X195881Y53886D01*
X195911Y53835D01*
X195944Y53786D01*
X195980Y53740D01*
X196019Y53695D01*
X196061Y53653D01*
X196106Y53614D01*
X196152Y53578D01*
X196201Y53545D01*
X196252Y53515D01*
X196305Y53488D01*
X196359Y53464D01*
X196415Y53444D01*
X196472Y53428D01*
X196530Y53415D01*
X196588Y53405D01*
X196647Y53400D01*
X196706Y53398D01*
X196942Y53398D01*
X197009Y53400D01*
X197076Y53406D01*
X197143Y53415D01*
X197209Y53429D01*
X197274Y53446D01*
X197338Y53466D01*
X197400Y53491D01*
X197461Y53519D01*
X197521Y53550D01*
X197578Y53585D01*
X197634Y53623D01*
X197687Y53664D01*
X197738Y53708D01*
X197786Y53755D01*
X197832Y53804D01*
X197874Y53856D01*
X197914Y53911D01*
X197950Y53967D01*
X197983Y54026D01*
X198013Y54086D01*
X198039Y54148D01*
X198061Y54211D01*
X198080Y54276D01*
X198096Y54341D01*
X198107Y54407D01*
X198115Y54474D01*
X198119Y54541D01*
X198119Y54609D01*
X198115Y54676D01*
X198107Y54743D01*
X198096Y54809D01*
X198080Y54874D01*
X198061Y54939D01*
X198039Y55002D01*
X198013Y55064D01*
X197983Y55124D01*
X197950Y55183D01*
X197914Y55239D01*
X197874Y55294D01*
X197832Y55346D01*
X197786Y55395D01*
X197738Y55442D01*
X197687Y55486D01*
X197634Y55527D01*
X197578Y55565D01*
X197521Y55600D01*
X197461Y55631D01*
X197400Y55659D01*
X197338Y55684D01*
X197274Y55704D01*
X197209Y55721D01*
X197143Y55735D01*
X197076Y55744D01*
X197009Y55750D01*
X196942Y55752D01*
X195765Y55752D01*
X195765Y55753D02*
X195680Y55751D01*
X195596Y55745D01*
X195512Y55736D01*
X195429Y55723D01*
X195346Y55706D01*
X195264Y55685D01*
X195183Y55661D01*
X195103Y55633D01*
X195025Y55601D01*
X194948Y55566D01*
X194872Y55528D01*
X194799Y55486D01*
X194727Y55441D01*
X194658Y55393D01*
X194590Y55342D01*
X194525Y55288D01*
X194463Y55231D01*
X194403Y55171D01*
X194346Y55109D01*
X194292Y55044D01*
X194241Y54976D01*
X194193Y54907D01*
X194148Y54835D01*
X194106Y54762D01*
X194068Y54686D01*
X194033Y54609D01*
X194001Y54531D01*
X193973Y54451D01*
X193949Y54370D01*
X193928Y54288D01*
X193911Y54205D01*
X193898Y54122D01*
X193889Y54038D01*
X193883Y53954D01*
X193881Y53869D01*
D11*
X190750Y80200D02*
X201250Y80200D01*
X190750Y80200D02*
X190750Y63700D01*
X201250Y63700D01*
X201250Y80200D01*
X198000Y78000D02*
X198002Y78063D01*
X198008Y78125D01*
X198018Y78187D01*
X198031Y78249D01*
X198049Y78309D01*
X198070Y78368D01*
X198095Y78426D01*
X198124Y78482D01*
X198156Y78536D01*
X198191Y78588D01*
X198229Y78637D01*
X198271Y78685D01*
X198315Y78729D01*
X198363Y78771D01*
X198412Y78809D01*
X198464Y78844D01*
X198518Y78876D01*
X198574Y78905D01*
X198632Y78930D01*
X198691Y78951D01*
X198751Y78969D01*
X198813Y78982D01*
X198875Y78992D01*
X198937Y78998D01*
X199000Y79000D01*
X199063Y78998D01*
X199125Y78992D01*
X199187Y78982D01*
X199249Y78969D01*
X199309Y78951D01*
X199368Y78930D01*
X199426Y78905D01*
X199482Y78876D01*
X199536Y78844D01*
X199588Y78809D01*
X199637Y78771D01*
X199685Y78729D01*
X199729Y78685D01*
X199771Y78637D01*
X199809Y78588D01*
X199844Y78536D01*
X199876Y78482D01*
X199905Y78426D01*
X199930Y78368D01*
X199951Y78309D01*
X199969Y78249D01*
X199982Y78187D01*
X199992Y78125D01*
X199998Y78063D01*
X200000Y78000D01*
X199998Y77937D01*
X199992Y77875D01*
X199982Y77813D01*
X199969Y77751D01*
X199951Y77691D01*
X199930Y77632D01*
X199905Y77574D01*
X199876Y77518D01*
X199844Y77464D01*
X199809Y77412D01*
X199771Y77363D01*
X199729Y77315D01*
X199685Y77271D01*
X199637Y77229D01*
X199588Y77191D01*
X199536Y77156D01*
X199482Y77124D01*
X199426Y77095D01*
X199368Y77070D01*
X199309Y77049D01*
X199249Y77031D01*
X199187Y77018D01*
X199125Y77008D01*
X199063Y77002D01*
X199000Y77000D01*
X198937Y77002D01*
X198875Y77008D01*
X198813Y77018D01*
X198751Y77031D01*
X198691Y77049D01*
X198632Y77070D01*
X198574Y77095D01*
X198518Y77124D01*
X198464Y77156D01*
X198412Y77191D01*
X198363Y77229D01*
X198315Y77271D01*
X198271Y77315D01*
X198229Y77363D01*
X198191Y77412D01*
X198156Y77464D01*
X198124Y77518D01*
X198095Y77574D01*
X198070Y77632D01*
X198049Y77691D01*
X198031Y77751D01*
X198018Y77813D01*
X198008Y77875D01*
X198002Y77937D01*
X198000Y78000D01*
D13*
X203224Y78746D02*
X204194Y77970D01*
X203224Y78746D02*
X203224Y75254D01*
X204194Y75254D02*
X202254Y75254D01*
D12*
X198119Y66248D02*
X195058Y66248D01*
X194991Y66250D01*
X194924Y66256D01*
X194857Y66265D01*
X194791Y66279D01*
X194726Y66296D01*
X194662Y66316D01*
X194600Y66341D01*
X194539Y66369D01*
X194479Y66400D01*
X194422Y66435D01*
X194366Y66473D01*
X194313Y66514D01*
X194262Y66558D01*
X194214Y66605D01*
X194168Y66654D01*
X194126Y66706D01*
X194086Y66761D01*
X194050Y66817D01*
X194017Y66876D01*
X193987Y66936D01*
X193961Y66998D01*
X193939Y67061D01*
X193920Y67126D01*
X193904Y67191D01*
X193893Y67257D01*
X193885Y67324D01*
X193881Y67391D01*
X193881Y67459D01*
X193885Y67526D01*
X193893Y67593D01*
X193904Y67659D01*
X193920Y67724D01*
X193939Y67789D01*
X193961Y67852D01*
X193987Y67914D01*
X194017Y67974D01*
X194050Y68033D01*
X194086Y68089D01*
X194126Y68144D01*
X194168Y68196D01*
X194214Y68245D01*
X194262Y68292D01*
X194313Y68336D01*
X194366Y68377D01*
X194422Y68415D01*
X194479Y68450D01*
X194539Y68481D01*
X194600Y68509D01*
X194662Y68534D01*
X194726Y68554D01*
X194791Y68571D01*
X194857Y68585D01*
X194924Y68594D01*
X194991Y68600D01*
X195058Y68602D01*
X198119Y68602D01*
X198120Y72193D02*
X198118Y72257D01*
X198112Y72321D01*
X198103Y72384D01*
X198089Y72447D01*
X198072Y72508D01*
X198051Y72569D01*
X198027Y72628D01*
X197999Y72686D01*
X197967Y72741D01*
X197932Y72795D01*
X197894Y72847D01*
X197853Y72896D01*
X197810Y72943D01*
X197763Y72986D01*
X197714Y73027D01*
X197662Y73065D01*
X197608Y73100D01*
X197553Y73132D01*
X197495Y73160D01*
X197436Y73184D01*
X197375Y73205D01*
X197314Y73222D01*
X197251Y73236D01*
X197188Y73245D01*
X197124Y73251D01*
X197060Y73253D01*
X198119Y72193D02*
X198117Y72122D01*
X198112Y72051D01*
X198102Y71980D01*
X198089Y71910D01*
X198073Y71840D01*
X198052Y71772D01*
X198028Y71705D01*
X198001Y71639D01*
X197970Y71575D01*
X197936Y71512D01*
X197899Y71451D01*
X197859Y71392D01*
X197815Y71336D01*
X197769Y71282D01*
X197720Y71230D01*
X197668Y71181D01*
X197614Y71135D01*
X197557Y71091D01*
X197498Y71051D01*
X197438Y71014D01*
X197375Y70980D01*
X197310Y70949D01*
X197245Y70922D01*
X197177Y70898D01*
X196236Y72899D02*
X196283Y72945D01*
X196332Y72989D01*
X196384Y73029D01*
X196438Y73067D01*
X196494Y73101D01*
X196552Y73132D01*
X196612Y73160D01*
X196673Y73184D01*
X196735Y73205D01*
X196799Y73222D01*
X196864Y73235D01*
X196929Y73244D01*
X196994Y73250D01*
X197060Y73252D01*
X196235Y72899D02*
X193881Y70898D01*
X193881Y73252D01*
X196000Y75398D02*
X196113Y75400D01*
X196226Y75405D01*
X196339Y75414D01*
X196451Y75427D01*
X196563Y75444D01*
X196675Y75464D01*
X196785Y75487D01*
X196895Y75515D01*
X197004Y75545D01*
X197112Y75580D01*
X197218Y75617D01*
X197324Y75659D01*
X197428Y75703D01*
X197530Y75751D01*
X197584Y75771D01*
X197635Y75795D01*
X197685Y75822D01*
X197734Y75852D01*
X197780Y75885D01*
X197824Y75921D01*
X197865Y75960D01*
X197904Y76002D01*
X197940Y76046D01*
X197973Y76092D01*
X198003Y76140D01*
X198030Y76191D01*
X198053Y76242D01*
X198073Y76296D01*
X198089Y76350D01*
X198102Y76405D01*
X198112Y76462D01*
X198117Y76518D01*
X198119Y76575D01*
X198117Y76632D01*
X198112Y76688D01*
X198102Y76745D01*
X198089Y76800D01*
X198073Y76854D01*
X198053Y76908D01*
X198030Y76959D01*
X198003Y77010D01*
X197973Y77058D01*
X197940Y77104D01*
X197904Y77148D01*
X197865Y77190D01*
X197824Y77229D01*
X197780Y77265D01*
X197734Y77298D01*
X197685Y77328D01*
X197635Y77355D01*
X197584Y77379D01*
X197530Y77399D01*
X197428Y77447D01*
X197324Y77491D01*
X197218Y77533D01*
X197112Y77570D01*
X197004Y77605D01*
X196895Y77635D01*
X196785Y77663D01*
X196675Y77686D01*
X196563Y77706D01*
X196451Y77723D01*
X196339Y77736D01*
X196226Y77745D01*
X196113Y77750D01*
X196000Y77752D01*
X196000Y75397D02*
X195887Y75399D01*
X195774Y75404D01*
X195661Y75413D01*
X195549Y75426D01*
X195437Y75443D01*
X195325Y75463D01*
X195215Y75486D01*
X195105Y75514D01*
X194996Y75544D01*
X194888Y75579D01*
X194781Y75616D01*
X194676Y75658D01*
X194572Y75702D01*
X194469Y75750D01*
X194469Y75751D02*
X194416Y75771D01*
X194365Y75795D01*
X194315Y75822D01*
X194266Y75852D01*
X194220Y75885D01*
X194176Y75921D01*
X194135Y75960D01*
X194096Y76002D01*
X194060Y76046D01*
X194027Y76092D01*
X193997Y76140D01*
X193970Y76191D01*
X193947Y76242D01*
X193927Y76296D01*
X193911Y76350D01*
X193898Y76405D01*
X193888Y76462D01*
X193883Y76518D01*
X193881Y76575D01*
X194470Y77399D02*
X194572Y77447D01*
X194676Y77491D01*
X194782Y77533D01*
X194888Y77570D01*
X194996Y77605D01*
X195105Y77635D01*
X195215Y77663D01*
X195325Y77686D01*
X195437Y77706D01*
X195549Y77723D01*
X195661Y77736D01*
X195774Y77745D01*
X195887Y77750D01*
X196000Y77752D01*
X194470Y77399D02*
X194416Y77379D01*
X194365Y77355D01*
X194315Y77328D01*
X194266Y77298D01*
X194220Y77265D01*
X194176Y77229D01*
X194135Y77190D01*
X194096Y77148D01*
X194060Y77104D01*
X194027Y77058D01*
X193997Y77010D01*
X193970Y76959D01*
X193947Y76908D01*
X193927Y76854D01*
X193911Y76800D01*
X193898Y76745D01*
X193888Y76688D01*
X193883Y76632D01*
X193881Y76575D01*
X194823Y75633D02*
X197177Y77517D01*
D11*
X201250Y106200D02*
X190750Y106200D01*
X190750Y89700D01*
X201250Y89700D01*
X201250Y106200D01*
X198000Y104000D02*
X198002Y104063D01*
X198008Y104125D01*
X198018Y104187D01*
X198031Y104249D01*
X198049Y104309D01*
X198070Y104368D01*
X198095Y104426D01*
X198124Y104482D01*
X198156Y104536D01*
X198191Y104588D01*
X198229Y104637D01*
X198271Y104685D01*
X198315Y104729D01*
X198363Y104771D01*
X198412Y104809D01*
X198464Y104844D01*
X198518Y104876D01*
X198574Y104905D01*
X198632Y104930D01*
X198691Y104951D01*
X198751Y104969D01*
X198813Y104982D01*
X198875Y104992D01*
X198937Y104998D01*
X199000Y105000D01*
X199063Y104998D01*
X199125Y104992D01*
X199187Y104982D01*
X199249Y104969D01*
X199309Y104951D01*
X199368Y104930D01*
X199426Y104905D01*
X199482Y104876D01*
X199536Y104844D01*
X199588Y104809D01*
X199637Y104771D01*
X199685Y104729D01*
X199729Y104685D01*
X199771Y104637D01*
X199809Y104588D01*
X199844Y104536D01*
X199876Y104482D01*
X199905Y104426D01*
X199930Y104368D01*
X199951Y104309D01*
X199969Y104249D01*
X199982Y104187D01*
X199992Y104125D01*
X199998Y104063D01*
X200000Y104000D01*
X199998Y103937D01*
X199992Y103875D01*
X199982Y103813D01*
X199969Y103751D01*
X199951Y103691D01*
X199930Y103632D01*
X199905Y103574D01*
X199876Y103518D01*
X199844Y103464D01*
X199809Y103412D01*
X199771Y103363D01*
X199729Y103315D01*
X199685Y103271D01*
X199637Y103229D01*
X199588Y103191D01*
X199536Y103156D01*
X199482Y103124D01*
X199426Y103095D01*
X199368Y103070D01*
X199309Y103049D01*
X199249Y103031D01*
X199187Y103018D01*
X199125Y103008D01*
X199063Y103002D01*
X199000Y103000D01*
X198937Y103002D01*
X198875Y103008D01*
X198813Y103018D01*
X198751Y103031D01*
X198691Y103049D01*
X198632Y103070D01*
X198574Y103095D01*
X198518Y103124D01*
X198464Y103156D01*
X198412Y103191D01*
X198363Y103229D01*
X198315Y103271D01*
X198271Y103315D01*
X198229Y103363D01*
X198191Y103412D01*
X198156Y103464D01*
X198124Y103518D01*
X198095Y103574D01*
X198070Y103632D01*
X198049Y103691D01*
X198031Y103751D01*
X198018Y103813D01*
X198008Y103875D01*
X198002Y103937D01*
X198000Y104000D01*
D13*
X203224Y104746D02*
X204194Y103970D01*
X203224Y104746D02*
X203224Y101254D01*
X204194Y101254D02*
X202254Y101254D01*
D12*
X198119Y92248D02*
X195058Y92248D01*
X194991Y92250D01*
X194924Y92256D01*
X194857Y92265D01*
X194791Y92279D01*
X194726Y92296D01*
X194662Y92316D01*
X194600Y92341D01*
X194539Y92369D01*
X194479Y92400D01*
X194422Y92435D01*
X194366Y92473D01*
X194313Y92514D01*
X194262Y92558D01*
X194214Y92605D01*
X194168Y92654D01*
X194126Y92706D01*
X194086Y92761D01*
X194050Y92817D01*
X194017Y92876D01*
X193987Y92936D01*
X193961Y92998D01*
X193939Y93061D01*
X193920Y93126D01*
X193904Y93191D01*
X193893Y93257D01*
X193885Y93324D01*
X193881Y93391D01*
X193881Y93459D01*
X193885Y93526D01*
X193893Y93593D01*
X193904Y93659D01*
X193920Y93724D01*
X193939Y93789D01*
X193961Y93852D01*
X193987Y93914D01*
X194017Y93974D01*
X194050Y94033D01*
X194086Y94089D01*
X194126Y94144D01*
X194168Y94196D01*
X194214Y94245D01*
X194262Y94292D01*
X194313Y94336D01*
X194366Y94377D01*
X194422Y94415D01*
X194479Y94450D01*
X194539Y94481D01*
X194600Y94509D01*
X194662Y94534D01*
X194726Y94554D01*
X194791Y94571D01*
X194857Y94585D01*
X194924Y94594D01*
X194991Y94600D01*
X195058Y94602D01*
X198119Y94602D01*
X198120Y98193D02*
X198118Y98257D01*
X198112Y98321D01*
X198103Y98384D01*
X198089Y98447D01*
X198072Y98508D01*
X198051Y98569D01*
X198027Y98628D01*
X197999Y98686D01*
X197967Y98741D01*
X197932Y98795D01*
X197894Y98847D01*
X197853Y98896D01*
X197810Y98943D01*
X197763Y98986D01*
X197714Y99027D01*
X197662Y99065D01*
X197608Y99100D01*
X197553Y99132D01*
X197495Y99160D01*
X197436Y99184D01*
X197375Y99205D01*
X197314Y99222D01*
X197251Y99236D01*
X197188Y99245D01*
X197124Y99251D01*
X197060Y99253D01*
X198119Y98193D02*
X198117Y98122D01*
X198112Y98051D01*
X198102Y97980D01*
X198089Y97910D01*
X198073Y97840D01*
X198052Y97772D01*
X198028Y97705D01*
X198001Y97639D01*
X197970Y97575D01*
X197936Y97512D01*
X197899Y97451D01*
X197859Y97392D01*
X197815Y97336D01*
X197769Y97282D01*
X197720Y97230D01*
X197668Y97181D01*
X197614Y97135D01*
X197557Y97091D01*
X197498Y97051D01*
X197438Y97014D01*
X197375Y96980D01*
X197310Y96949D01*
X197245Y96922D01*
X197177Y96898D01*
X196236Y98899D02*
X196283Y98945D01*
X196332Y98989D01*
X196384Y99029D01*
X196438Y99067D01*
X196494Y99101D01*
X196552Y99132D01*
X196612Y99160D01*
X196673Y99184D01*
X196735Y99205D01*
X196799Y99222D01*
X196864Y99235D01*
X196929Y99244D01*
X196994Y99250D01*
X197060Y99252D01*
X196235Y98899D02*
X193881Y96898D01*
X193881Y99252D01*
X197177Y101398D02*
X198119Y102575D01*
X193881Y102575D01*
X193881Y101398D02*
X193881Y103752D01*
D11*
X298750Y95800D02*
X309250Y95800D01*
X309250Y112300D01*
X298750Y112300D01*
X298750Y95800D01*
X300000Y98000D02*
X300002Y98063D01*
X300008Y98125D01*
X300018Y98187D01*
X300031Y98249D01*
X300049Y98309D01*
X300070Y98368D01*
X300095Y98426D01*
X300124Y98482D01*
X300156Y98536D01*
X300191Y98588D01*
X300229Y98637D01*
X300271Y98685D01*
X300315Y98729D01*
X300363Y98771D01*
X300412Y98809D01*
X300464Y98844D01*
X300518Y98876D01*
X300574Y98905D01*
X300632Y98930D01*
X300691Y98951D01*
X300751Y98969D01*
X300813Y98982D01*
X300875Y98992D01*
X300937Y98998D01*
X301000Y99000D01*
X301063Y98998D01*
X301125Y98992D01*
X301187Y98982D01*
X301249Y98969D01*
X301309Y98951D01*
X301368Y98930D01*
X301426Y98905D01*
X301482Y98876D01*
X301536Y98844D01*
X301588Y98809D01*
X301637Y98771D01*
X301685Y98729D01*
X301729Y98685D01*
X301771Y98637D01*
X301809Y98588D01*
X301844Y98536D01*
X301876Y98482D01*
X301905Y98426D01*
X301930Y98368D01*
X301951Y98309D01*
X301969Y98249D01*
X301982Y98187D01*
X301992Y98125D01*
X301998Y98063D01*
X302000Y98000D01*
X301998Y97937D01*
X301992Y97875D01*
X301982Y97813D01*
X301969Y97751D01*
X301951Y97691D01*
X301930Y97632D01*
X301905Y97574D01*
X301876Y97518D01*
X301844Y97464D01*
X301809Y97412D01*
X301771Y97363D01*
X301729Y97315D01*
X301685Y97271D01*
X301637Y97229D01*
X301588Y97191D01*
X301536Y97156D01*
X301482Y97124D01*
X301426Y97095D01*
X301368Y97070D01*
X301309Y97049D01*
X301249Y97031D01*
X301187Y97018D01*
X301125Y97008D01*
X301063Y97002D01*
X301000Y97000D01*
X300937Y97002D01*
X300875Y97008D01*
X300813Y97018D01*
X300751Y97031D01*
X300691Y97049D01*
X300632Y97070D01*
X300574Y97095D01*
X300518Y97124D01*
X300464Y97156D01*
X300412Y97191D01*
X300363Y97229D01*
X300315Y97271D01*
X300271Y97315D01*
X300229Y97363D01*
X300191Y97412D01*
X300156Y97464D01*
X300124Y97518D01*
X300095Y97574D01*
X300070Y97632D01*
X300049Y97691D01*
X300031Y97751D01*
X300018Y97813D01*
X300008Y97875D01*
X300002Y97937D01*
X300000Y98000D01*
D13*
X297746Y99970D02*
X296776Y100746D01*
X296776Y97254D01*
X297746Y97254D02*
X295806Y97254D01*
D12*
X303058Y98248D02*
X306119Y98248D01*
X303058Y98248D02*
X302991Y98250D01*
X302924Y98256D01*
X302857Y98265D01*
X302791Y98279D01*
X302726Y98296D01*
X302662Y98316D01*
X302600Y98341D01*
X302539Y98369D01*
X302479Y98400D01*
X302422Y98435D01*
X302366Y98473D01*
X302313Y98514D01*
X302262Y98558D01*
X302214Y98605D01*
X302168Y98654D01*
X302126Y98706D01*
X302086Y98761D01*
X302050Y98817D01*
X302017Y98876D01*
X301987Y98936D01*
X301961Y98998D01*
X301939Y99061D01*
X301920Y99126D01*
X301904Y99191D01*
X301893Y99257D01*
X301885Y99324D01*
X301881Y99391D01*
X301881Y99459D01*
X301885Y99526D01*
X301893Y99593D01*
X301904Y99659D01*
X301920Y99724D01*
X301939Y99789D01*
X301961Y99852D01*
X301987Y99914D01*
X302017Y99974D01*
X302050Y100033D01*
X302086Y100089D01*
X302126Y100144D01*
X302168Y100196D01*
X302214Y100245D01*
X302262Y100292D01*
X302313Y100336D01*
X302366Y100377D01*
X302422Y100415D01*
X302479Y100450D01*
X302539Y100481D01*
X302600Y100509D01*
X302662Y100534D01*
X302726Y100554D01*
X302791Y100571D01*
X302857Y100585D01*
X302924Y100594D01*
X302991Y100600D01*
X303058Y100602D01*
X306119Y100602D01*
X306120Y104193D02*
X306118Y104257D01*
X306112Y104321D01*
X306103Y104384D01*
X306089Y104447D01*
X306072Y104508D01*
X306051Y104569D01*
X306027Y104628D01*
X305999Y104686D01*
X305967Y104741D01*
X305932Y104795D01*
X305894Y104847D01*
X305853Y104896D01*
X305810Y104943D01*
X305763Y104986D01*
X305714Y105027D01*
X305662Y105065D01*
X305608Y105100D01*
X305553Y105132D01*
X305495Y105160D01*
X305436Y105184D01*
X305375Y105205D01*
X305314Y105222D01*
X305251Y105236D01*
X305188Y105245D01*
X305124Y105251D01*
X305060Y105253D01*
X306119Y104193D02*
X306117Y104122D01*
X306112Y104051D01*
X306102Y103980D01*
X306089Y103910D01*
X306073Y103840D01*
X306052Y103772D01*
X306028Y103705D01*
X306001Y103639D01*
X305970Y103575D01*
X305936Y103512D01*
X305899Y103451D01*
X305859Y103392D01*
X305815Y103336D01*
X305769Y103282D01*
X305720Y103230D01*
X305668Y103181D01*
X305614Y103135D01*
X305557Y103091D01*
X305498Y103051D01*
X305438Y103014D01*
X305375Y102980D01*
X305310Y102949D01*
X305245Y102922D01*
X305177Y102898D01*
X304236Y104899D02*
X304283Y104945D01*
X304332Y104989D01*
X304384Y105029D01*
X304438Y105067D01*
X304494Y105101D01*
X304552Y105132D01*
X304612Y105160D01*
X304673Y105184D01*
X304735Y105205D01*
X304799Y105222D01*
X304864Y105235D01*
X304929Y105244D01*
X304994Y105250D01*
X305060Y105252D01*
X304235Y104899D02*
X301881Y102898D01*
X301881Y105252D01*
X306120Y108693D02*
X306118Y108757D01*
X306112Y108821D01*
X306103Y108884D01*
X306089Y108947D01*
X306072Y109008D01*
X306051Y109069D01*
X306027Y109128D01*
X305999Y109186D01*
X305967Y109241D01*
X305932Y109295D01*
X305894Y109347D01*
X305853Y109396D01*
X305810Y109443D01*
X305763Y109486D01*
X305714Y109527D01*
X305662Y109565D01*
X305608Y109600D01*
X305553Y109632D01*
X305495Y109660D01*
X305436Y109684D01*
X305375Y109705D01*
X305314Y109722D01*
X305251Y109736D01*
X305188Y109745D01*
X305124Y109751D01*
X305060Y109753D01*
X306119Y108693D02*
X306117Y108622D01*
X306112Y108551D01*
X306102Y108480D01*
X306089Y108410D01*
X306073Y108340D01*
X306052Y108272D01*
X306028Y108205D01*
X306001Y108139D01*
X305970Y108075D01*
X305936Y108012D01*
X305899Y107951D01*
X305859Y107892D01*
X305815Y107836D01*
X305769Y107782D01*
X305720Y107730D01*
X305668Y107681D01*
X305614Y107635D01*
X305557Y107591D01*
X305498Y107551D01*
X305438Y107514D01*
X305375Y107480D01*
X305310Y107449D01*
X305245Y107422D01*
X305177Y107398D01*
X304236Y109399D02*
X304283Y109445D01*
X304332Y109489D01*
X304384Y109529D01*
X304438Y109567D01*
X304494Y109601D01*
X304552Y109632D01*
X304612Y109660D01*
X304673Y109684D01*
X304735Y109705D01*
X304799Y109722D01*
X304864Y109735D01*
X304929Y109744D01*
X304994Y109750D01*
X305060Y109752D01*
X304235Y109399D02*
X301881Y107398D01*
X301881Y109752D01*
D11*
X201250Y131200D02*
X190750Y131200D01*
X190750Y114700D01*
X201250Y114700D01*
X201250Y131200D01*
X198000Y129000D02*
X198002Y129063D01*
X198008Y129125D01*
X198018Y129187D01*
X198031Y129249D01*
X198049Y129309D01*
X198070Y129368D01*
X198095Y129426D01*
X198124Y129482D01*
X198156Y129536D01*
X198191Y129588D01*
X198229Y129637D01*
X198271Y129685D01*
X198315Y129729D01*
X198363Y129771D01*
X198412Y129809D01*
X198464Y129844D01*
X198518Y129876D01*
X198574Y129905D01*
X198632Y129930D01*
X198691Y129951D01*
X198751Y129969D01*
X198813Y129982D01*
X198875Y129992D01*
X198937Y129998D01*
X199000Y130000D01*
X199063Y129998D01*
X199125Y129992D01*
X199187Y129982D01*
X199249Y129969D01*
X199309Y129951D01*
X199368Y129930D01*
X199426Y129905D01*
X199482Y129876D01*
X199536Y129844D01*
X199588Y129809D01*
X199637Y129771D01*
X199685Y129729D01*
X199729Y129685D01*
X199771Y129637D01*
X199809Y129588D01*
X199844Y129536D01*
X199876Y129482D01*
X199905Y129426D01*
X199930Y129368D01*
X199951Y129309D01*
X199969Y129249D01*
X199982Y129187D01*
X199992Y129125D01*
X199998Y129063D01*
X200000Y129000D01*
X199998Y128937D01*
X199992Y128875D01*
X199982Y128813D01*
X199969Y128751D01*
X199951Y128691D01*
X199930Y128632D01*
X199905Y128574D01*
X199876Y128518D01*
X199844Y128464D01*
X199809Y128412D01*
X199771Y128363D01*
X199729Y128315D01*
X199685Y128271D01*
X199637Y128229D01*
X199588Y128191D01*
X199536Y128156D01*
X199482Y128124D01*
X199426Y128095D01*
X199368Y128070D01*
X199309Y128049D01*
X199249Y128031D01*
X199187Y128018D01*
X199125Y128008D01*
X199063Y128002D01*
X199000Y128000D01*
X198937Y128002D01*
X198875Y128008D01*
X198813Y128018D01*
X198751Y128031D01*
X198691Y128049D01*
X198632Y128070D01*
X198574Y128095D01*
X198518Y128124D01*
X198464Y128156D01*
X198412Y128191D01*
X198363Y128229D01*
X198315Y128271D01*
X198271Y128315D01*
X198229Y128363D01*
X198191Y128412D01*
X198156Y128464D01*
X198124Y128518D01*
X198095Y128574D01*
X198070Y128632D01*
X198049Y128691D01*
X198031Y128751D01*
X198018Y128813D01*
X198008Y128875D01*
X198002Y128937D01*
X198000Y129000D01*
D13*
X203224Y129746D02*
X204194Y128970D01*
X203224Y129746D02*
X203224Y126254D01*
X204194Y126254D02*
X202254Y126254D01*
D12*
X198119Y117248D02*
X195058Y117248D01*
X194991Y117250D01*
X194924Y117256D01*
X194857Y117265D01*
X194791Y117279D01*
X194726Y117296D01*
X194662Y117316D01*
X194600Y117341D01*
X194539Y117369D01*
X194479Y117400D01*
X194422Y117435D01*
X194366Y117473D01*
X194313Y117514D01*
X194262Y117558D01*
X194214Y117605D01*
X194168Y117654D01*
X194126Y117706D01*
X194086Y117761D01*
X194050Y117817D01*
X194017Y117876D01*
X193987Y117936D01*
X193961Y117998D01*
X193939Y118061D01*
X193920Y118126D01*
X193904Y118191D01*
X193893Y118257D01*
X193885Y118324D01*
X193881Y118391D01*
X193881Y118459D01*
X193885Y118526D01*
X193893Y118593D01*
X193904Y118659D01*
X193920Y118724D01*
X193939Y118789D01*
X193961Y118852D01*
X193987Y118914D01*
X194017Y118974D01*
X194050Y119033D01*
X194086Y119089D01*
X194126Y119144D01*
X194168Y119196D01*
X194214Y119245D01*
X194262Y119292D01*
X194313Y119336D01*
X194366Y119377D01*
X194422Y119415D01*
X194479Y119450D01*
X194539Y119481D01*
X194600Y119509D01*
X194662Y119534D01*
X194726Y119554D01*
X194791Y119571D01*
X194857Y119585D01*
X194924Y119594D01*
X194991Y119600D01*
X195058Y119602D01*
X198119Y119602D01*
X198120Y123193D02*
X198118Y123257D01*
X198112Y123321D01*
X198103Y123384D01*
X198089Y123447D01*
X198072Y123508D01*
X198051Y123569D01*
X198027Y123628D01*
X197999Y123686D01*
X197967Y123741D01*
X197932Y123795D01*
X197894Y123847D01*
X197853Y123896D01*
X197810Y123943D01*
X197763Y123986D01*
X197714Y124027D01*
X197662Y124065D01*
X197608Y124100D01*
X197553Y124132D01*
X197495Y124160D01*
X197436Y124184D01*
X197375Y124205D01*
X197314Y124222D01*
X197251Y124236D01*
X197188Y124245D01*
X197124Y124251D01*
X197060Y124253D01*
X198119Y123193D02*
X198117Y123122D01*
X198112Y123051D01*
X198102Y122980D01*
X198089Y122910D01*
X198073Y122840D01*
X198052Y122772D01*
X198028Y122705D01*
X198001Y122639D01*
X197970Y122575D01*
X197936Y122512D01*
X197899Y122451D01*
X197859Y122392D01*
X197815Y122336D01*
X197769Y122282D01*
X197720Y122230D01*
X197668Y122181D01*
X197614Y122135D01*
X197557Y122091D01*
X197498Y122051D01*
X197438Y122014D01*
X197375Y121980D01*
X197310Y121949D01*
X197245Y121922D01*
X197177Y121898D01*
X196236Y123899D02*
X196283Y123945D01*
X196332Y123989D01*
X196384Y124029D01*
X196438Y124067D01*
X196494Y124101D01*
X196552Y124132D01*
X196612Y124160D01*
X196673Y124184D01*
X196735Y124205D01*
X196799Y124222D01*
X196864Y124235D01*
X196929Y124244D01*
X196994Y124250D01*
X197060Y124252D01*
X196235Y123899D02*
X193881Y121898D01*
X193881Y124252D01*
X193881Y126398D02*
X193881Y127575D01*
X193883Y127642D01*
X193889Y127709D01*
X193898Y127776D01*
X193912Y127842D01*
X193929Y127907D01*
X193949Y127971D01*
X193974Y128033D01*
X194002Y128094D01*
X194033Y128154D01*
X194068Y128211D01*
X194106Y128267D01*
X194147Y128320D01*
X194191Y128371D01*
X194238Y128419D01*
X194287Y128465D01*
X194339Y128507D01*
X194394Y128547D01*
X194450Y128583D01*
X194509Y128616D01*
X194569Y128646D01*
X194631Y128672D01*
X194694Y128694D01*
X194759Y128713D01*
X194824Y128729D01*
X194890Y128740D01*
X194957Y128748D01*
X195024Y128752D01*
X195092Y128752D01*
X195159Y128748D01*
X195226Y128740D01*
X195292Y128729D01*
X195357Y128713D01*
X195422Y128694D01*
X195485Y128672D01*
X195547Y128646D01*
X195607Y128616D01*
X195666Y128583D01*
X195722Y128547D01*
X195777Y128507D01*
X195829Y128465D01*
X195878Y128419D01*
X195925Y128371D01*
X195969Y128320D01*
X196010Y128267D01*
X196048Y128211D01*
X196083Y128154D01*
X196114Y128094D01*
X196142Y128033D01*
X196167Y127971D01*
X196187Y127907D01*
X196204Y127842D01*
X196218Y127776D01*
X196227Y127709D01*
X196233Y127642D01*
X196235Y127575D01*
X198119Y127810D02*
X198119Y126398D01*
X198119Y127810D02*
X198117Y127870D01*
X198111Y127930D01*
X198102Y127990D01*
X198088Y128049D01*
X198071Y128107D01*
X198050Y128164D01*
X198026Y128219D01*
X197998Y128272D01*
X197966Y128324D01*
X197932Y128373D01*
X197894Y128421D01*
X197854Y128465D01*
X197810Y128507D01*
X197764Y128546D01*
X197716Y128583D01*
X197665Y128616D01*
X197613Y128645D01*
X197558Y128671D01*
X197502Y128694D01*
X197445Y128713D01*
X197387Y128728D01*
X197327Y128740D01*
X197267Y128748D01*
X197207Y128752D01*
X197147Y128752D01*
X197087Y128748D01*
X197027Y128740D01*
X196967Y128728D01*
X196909Y128713D01*
X196852Y128694D01*
X196796Y128671D01*
X196741Y128645D01*
X196689Y128616D01*
X196638Y128583D01*
X196590Y128546D01*
X196544Y128507D01*
X196500Y128465D01*
X196460Y128421D01*
X196422Y128373D01*
X196388Y128324D01*
X196356Y128272D01*
X196328Y128219D01*
X196304Y128164D01*
X196283Y128107D01*
X196266Y128049D01*
X196252Y127990D01*
X196243Y127930D01*
X196237Y127870D01*
X196235Y127810D01*
X196235Y126869D01*
D11*
X353000Y219000D02*
X353000Y221000D01*
X352999Y221141D01*
X352994Y221282D01*
X352985Y221423D01*
X352972Y221563D01*
X352955Y221703D01*
X352934Y221842D01*
X352910Y221981D01*
X352881Y222119D01*
X352849Y222256D01*
X352812Y222392D01*
X352772Y222527D01*
X352728Y222661D01*
X352681Y222793D01*
X352629Y222924D01*
X352574Y223054D01*
X352516Y223182D01*
X352453Y223308D01*
X352387Y223433D01*
X352318Y223556D01*
X352245Y223676D01*
X352169Y223795D01*
X352090Y223911D01*
X352007Y224025D01*
X351921Y224137D01*
X351833Y224246D01*
X351741Y224353D01*
X351646Y224457D01*
X351548Y224558D01*
X351447Y224657D01*
X351344Y224752D01*
X351238Y224845D01*
X351129Y224935D01*
X351018Y225021D01*
X350904Y225105D01*
X350789Y225185D01*
X350671Y225262D01*
X350551Y225336D01*
X350428Y225406D01*
X350304Y225472D01*
X350178Y225536D01*
X350051Y225595D01*
X349921Y225651D01*
X349791Y225703D01*
X349658Y225752D01*
X349525Y225797D01*
X349390Y225838D01*
X349254Y225875D01*
X349117Y225909D01*
X348980Y225938D01*
X348841Y225964D01*
X348702Y225985D01*
X348562Y226003D01*
X348422Y226017D01*
X348282Y226027D01*
X348141Y226033D01*
X348000Y226035D01*
X347859Y226033D01*
X347718Y226027D01*
X347578Y226017D01*
X347438Y226003D01*
X347298Y225985D01*
X347159Y225964D01*
X347020Y225938D01*
X346883Y225909D01*
X346746Y225875D01*
X346610Y225838D01*
X346475Y225797D01*
X346342Y225752D01*
X346209Y225703D01*
X346079Y225651D01*
X345949Y225595D01*
X345822Y225536D01*
X345696Y225472D01*
X345572Y225406D01*
X345449Y225336D01*
X345329Y225262D01*
X345211Y225185D01*
X345096Y225105D01*
X344982Y225021D01*
X344871Y224935D01*
X344762Y224845D01*
X344656Y224752D01*
X344553Y224657D01*
X344452Y224558D01*
X344354Y224457D01*
X344259Y224353D01*
X344167Y224246D01*
X344079Y224137D01*
X343993Y224025D01*
X343910Y223911D01*
X343831Y223795D01*
X343755Y223676D01*
X343682Y223556D01*
X343613Y223433D01*
X343547Y223308D01*
X343484Y223182D01*
X343426Y223054D01*
X343371Y222924D01*
X343319Y222793D01*
X343272Y222661D01*
X343228Y222527D01*
X343188Y222392D01*
X343151Y222256D01*
X343119Y222119D01*
X343090Y221981D01*
X343066Y221842D01*
X343045Y221703D01*
X343028Y221563D01*
X343015Y221423D01*
X343006Y221282D01*
X343001Y221141D01*
X343000Y221000D01*
X343000Y219000D01*
X343001Y218860D01*
X343005Y218719D01*
X343013Y218580D01*
X343024Y218440D01*
X343040Y218301D01*
X343060Y218162D01*
X343084Y218024D01*
X343111Y217886D01*
X343142Y217750D01*
X343177Y217614D01*
X343216Y217479D01*
X343259Y217346D01*
X343305Y217213D01*
X343355Y217083D01*
X343409Y216953D01*
X343466Y216825D01*
X343527Y216699D01*
X343592Y216574D01*
X343660Y216452D01*
X343731Y216331D01*
X343806Y216212D01*
X343884Y216096D01*
X343965Y215982D01*
X344049Y215870D01*
X344136Y215760D01*
X344227Y215653D01*
X344320Y215549D01*
X344417Y215447D01*
X344516Y215348D01*
X344618Y215252D01*
X344722Y215158D01*
X344829Y215068D01*
X344939Y214980D01*
X345051Y214896D01*
X345165Y214815D01*
X345282Y214737D01*
X345401Y214663D01*
X345522Y214592D01*
X345644Y214524D01*
X345769Y214459D01*
X345895Y214399D01*
X346023Y214341D01*
X346153Y214288D01*
X346283Y214238D01*
X346416Y214192D01*
X346549Y214149D01*
X346684Y214110D01*
X346820Y214075D01*
X346956Y214044D01*
X347094Y214017D01*
X347232Y213993D01*
X347371Y213974D01*
X347510Y213958D01*
X347650Y213946D01*
X347790Y213938D01*
X347930Y213934D01*
X348070Y213934D01*
X348210Y213938D01*
X348350Y213946D01*
X348490Y213958D01*
X348629Y213974D01*
X348768Y213993D01*
X348906Y214017D01*
X349044Y214044D01*
X349180Y214075D01*
X349316Y214110D01*
X349451Y214149D01*
X349584Y214192D01*
X349717Y214238D01*
X349847Y214288D01*
X349977Y214341D01*
X350105Y214399D01*
X350231Y214459D01*
X350356Y214524D01*
X350478Y214592D01*
X350599Y214663D01*
X350718Y214737D01*
X350835Y214815D01*
X350949Y214896D01*
X351061Y214980D01*
X351171Y215068D01*
X351278Y215158D01*
X351382Y215252D01*
X351484Y215348D01*
X351583Y215447D01*
X351680Y215549D01*
X351773Y215653D01*
X351864Y215760D01*
X351951Y215870D01*
X352035Y215982D01*
X352116Y216096D01*
X352194Y216212D01*
X352269Y216331D01*
X352340Y216452D01*
X352408Y216574D01*
X352473Y216699D01*
X352534Y216825D01*
X352591Y216953D01*
X352645Y217083D01*
X352695Y217213D01*
X352741Y217346D01*
X352784Y217479D01*
X352823Y217614D01*
X352858Y217750D01*
X352889Y217886D01*
X352916Y218024D01*
X352940Y218162D01*
X352960Y218301D01*
X352976Y218440D01*
X352987Y218580D01*
X352995Y218719D01*
X352999Y218860D01*
X353000Y219000D01*
D12*
X351304Y217881D02*
X351304Y222119D01*
X350127Y222119D01*
X350060Y222117D01*
X349993Y222111D01*
X349926Y222102D01*
X349860Y222088D01*
X349795Y222071D01*
X349731Y222051D01*
X349669Y222026D01*
X349608Y221998D01*
X349548Y221967D01*
X349491Y221932D01*
X349435Y221894D01*
X349382Y221853D01*
X349331Y221809D01*
X349283Y221762D01*
X349237Y221713D01*
X349195Y221661D01*
X349155Y221606D01*
X349119Y221550D01*
X349086Y221491D01*
X349056Y221431D01*
X349030Y221369D01*
X349008Y221306D01*
X348989Y221241D01*
X348973Y221176D01*
X348962Y221110D01*
X348954Y221043D01*
X348950Y220976D01*
X348950Y220908D01*
X348954Y220841D01*
X348962Y220774D01*
X348973Y220708D01*
X348989Y220643D01*
X349008Y220578D01*
X349030Y220515D01*
X349056Y220453D01*
X349086Y220393D01*
X349119Y220334D01*
X349155Y220278D01*
X349195Y220223D01*
X349237Y220171D01*
X349283Y220122D01*
X349331Y220075D01*
X349382Y220031D01*
X349435Y219990D01*
X349491Y219952D01*
X349548Y219917D01*
X349608Y219886D01*
X349669Y219858D01*
X349731Y219833D01*
X349795Y219813D01*
X349860Y219796D01*
X349926Y219782D01*
X349993Y219773D01*
X350060Y219767D01*
X350127Y219765D01*
X351304Y219765D01*
X345756Y222120D02*
X345692Y222118D01*
X345628Y222112D01*
X345565Y222103D01*
X345502Y222089D01*
X345441Y222072D01*
X345380Y222051D01*
X345321Y222027D01*
X345263Y221999D01*
X345208Y221967D01*
X345154Y221932D01*
X345102Y221894D01*
X345053Y221853D01*
X345006Y221810D01*
X344963Y221763D01*
X344922Y221714D01*
X344884Y221662D01*
X344849Y221608D01*
X344817Y221553D01*
X344789Y221495D01*
X344765Y221436D01*
X344744Y221375D01*
X344727Y221314D01*
X344713Y221251D01*
X344704Y221188D01*
X344698Y221124D01*
X344696Y221060D01*
X345756Y222119D02*
X345827Y222117D01*
X345898Y222112D01*
X345969Y222102D01*
X346039Y222089D01*
X346109Y222073D01*
X346177Y222052D01*
X346244Y222028D01*
X346310Y222001D01*
X346374Y221970D01*
X346437Y221936D01*
X346498Y221899D01*
X346557Y221859D01*
X346613Y221815D01*
X346667Y221769D01*
X346719Y221720D01*
X346768Y221668D01*
X346814Y221614D01*
X346858Y221557D01*
X346898Y221498D01*
X346935Y221438D01*
X346969Y221375D01*
X347000Y221310D01*
X347027Y221245D01*
X347051Y221177D01*
X345049Y220236D02*
X345003Y220283D01*
X344959Y220332D01*
X344919Y220384D01*
X344881Y220438D01*
X344847Y220494D01*
X344816Y220552D01*
X344788Y220612D01*
X344764Y220673D01*
X344743Y220735D01*
X344726Y220799D01*
X344713Y220864D01*
X344704Y220929D01*
X344698Y220994D01*
X344696Y221060D01*
X345049Y220235D02*
X347051Y217881D01*
X344696Y217881D01*
D14*
X31Y123027D02*
X280Y119082D01*
X778Y115143D01*
X1525Y111215D01*
X2519Y107299D01*
X3760Y103402D01*
X5246Y99526D01*
X6977Y95675D01*
X8949Y91854D01*
X11162Y88066D01*
X13613Y84314D01*
X16300Y80603D01*
X19219Y76937D01*
X22369Y73318D01*
X25746Y69751D01*
X29346Y66239D01*
X33166Y62785D01*
X37202Y59394D01*
X41450Y56067D01*
X45906Y52810D01*
X50566Y49624D01*
X55424Y46514D01*
X60476Y43482D01*
X65718Y40531D01*
X71143Y37664D01*
X76746Y34885D01*
X82522Y32195D01*
X88465Y29598D01*
X94569Y27096D01*
X100828Y24691D01*
X107235Y22386D01*
X113785Y20184D01*
X120471Y18086D01*
X127286Y16095D01*
X134223Y14212D01*
X141275Y12440D01*
X148436Y10780D01*
X155698Y9234D01*
X163054Y7803D01*
X170497Y6489D01*
X178019Y5293D01*
X185613Y4217D01*
X193271Y3261D01*
X200986Y2426D01*
X208749Y1713D01*
X216553Y1124D01*
X224391Y658D01*
X232255Y315D01*
X240136Y97D01*
X248027Y4D01*
X255920Y35D01*
X263807Y191D01*
X271680Y471D01*
X279531Y875D01*
X287354Y1403D01*
X295138Y2054D01*
X302878Y2828D01*
X310566Y3724D01*
X318192Y4740D01*
X325751Y5876D01*
X333235Y7131D01*
X340635Y8504D01*
X347945Y9993D01*
X355158Y11596D01*
X362265Y13312D01*
X369261Y15140D01*
X376138Y17077D01*
X382889Y19122D01*
X389507Y21272D01*
X395987Y23526D01*
X402321Y25881D01*
X408503Y28335D01*
X414527Y30885D01*
X420387Y33529D01*
X426078Y36264D01*
X431592Y39087D01*
X436926Y41996D01*
X442074Y44988D01*
X447030Y48060D01*
X451789Y51208D01*
X456348Y54430D01*
X460701Y57722D01*
X464843Y61081D01*
X468772Y64504D01*
X472482Y67988D01*
X475971Y71528D01*
X479234Y75121D01*
X482269Y78764D01*
X485073Y82454D01*
X487642Y86185D01*
X489974Y89956D01*
X492067Y93761D01*
X493919Y97597D01*
X495527Y101461D01*
X496891Y105348D01*
X498009Y109255D01*
X498879Y113178D01*
X499502Y117112D01*
X499875Y121054D01*
X500000Y125000D01*
X499875Y128946D01*
X499502Y132888D01*
X498879Y136823D01*
X498009Y140745D01*
X496891Y144652D01*
X495527Y148539D01*
X493919Y152403D01*
X492067Y156239D01*
X489974Y160044D01*
X487642Y163815D01*
X485073Y167546D01*
X482269Y171236D01*
X479234Y174879D01*
X475971Y178472D01*
X472482Y182012D01*
X468772Y185496D01*
X464843Y188919D01*
X460701Y192278D01*
X456348Y195570D01*
X451789Y198792D01*
X447030Y201940D01*
X442074Y205012D01*
X436926Y208004D01*
X431592Y210913D01*
X426078Y213737D01*
X420387Y216472D01*
X414527Y219115D01*
X408503Y221665D01*
X402321Y224119D01*
X395987Y226474D01*
X389507Y228728D01*
X382889Y230878D01*
X376138Y232923D01*
X369261Y234860D01*
X362265Y236688D01*
X355158Y238404D01*
X347945Y240007D01*
X340635Y241496D01*
X333235Y242869D01*
X325751Y244124D01*
X318192Y245260D01*
X310566Y246276D01*
X302878Y247172D01*
X295138Y247946D01*
X287354Y248597D01*
X279531Y249125D01*
X271680Y249529D01*
X263807Y249809D01*
X255920Y249965D01*
X248027Y249996D01*
X240136Y249903D01*
X232255Y249685D01*
X224391Y249343D01*
X216553Y248876D01*
X208749Y248287D01*
X200986Y247574D01*
X193271Y246739D01*
X185613Y245783D01*
X178019Y244707D01*
X170497Y243511D01*
X163054Y242197D01*
X155698Y240766D01*
X148436Y239220D01*
X141275Y237560D01*
X134223Y235788D01*
X127286Y233905D01*
X120471Y231914D01*
X113785Y229816D01*
X107235Y227614D01*
X100828Y225309D01*
X94569Y222905D01*
X88465Y220402D01*
X82522Y217805D01*
X76746Y215115D01*
X71143Y212336D01*
X65718Y209469D01*
X60476Y206518D01*
X55424Y203486D01*
X50566Y200376D01*
X45906Y197190D01*
X41450Y193933D01*
X37202Y190607D01*
X33166Y187215D01*
X29346Y183761D01*
X25746Y180249D01*
X22369Y176682D01*
X19219Y173063D01*
X16300Y169397D01*
X13613Y165686D01*
X11162Y161934D01*
X8949Y158146D01*
X6977Y154325D01*
X5246Y150474D01*
X3760Y146598D01*
X2519Y142701D01*
X1525Y138785D01*
X778Y134857D01*
X280Y130918D01*
X31Y126973D01*
X31Y123027D01*
M02*
