M48
;GenerationSoftware,Autodesk,EAGLE,9.6.2*%
;CreationDate,2021-04-20T16:44:55Z*%
FMAT,2
ICI,OFF
METRIC,TZ,00.000
T2C0.100
T1C0.200
%
G90
M71
T1
X23500Y7300
X20400Y9500
X24100Y10700
X14600Y7900
X27400Y10800
X27800Y16600
X32100Y14800
X32100Y14100
X17400Y7400
X20500Y4500
X14600Y7300
X17500Y4500
X23500Y4500
T2
X33750Y16850
X33750Y16050
X36150Y16050
X36150Y16450
X35750Y16850
X35750Y17250
X35350Y18450
X35750Y18450
X36150Y18450
X36150Y18850
X36950Y18850
X36950Y19250
X36550Y19250
X36150Y19250
X35750Y18850
X36550Y18450
X34950Y17250
X34150Y18850
X34150Y19250
X34150Y18450
X34150Y18050
X34150Y17650
X34550Y17250
X36550Y18850
X34950Y17650
X35350Y17650
X34950Y16850
X36150Y16850
X36550Y16850
X36950Y16850
X36950Y16450
X36550Y16450
X34950Y18050
X35350Y17250
X34950Y16450
X34950Y18450
X36150Y17250
X35750Y17650
X36150Y18050
X36150Y17650
X36550Y17250
X36950Y17250
X34950Y18850
X34150Y16450
X34550Y18450
X35350Y18850
M30