M48
;GenerationSoftware,Autodesk,EAGLE,9.6.2*%
;CreationDate,2021-04-20T16:44:55Z*%
FMAT,2
ICI,OFF
METRIC,TZ,00.000
T5C0.200
T4C0.250
T3C0.500
T2C0.600
T1C0.650
%
G90
M71
T1
X28600Y16400
T2
X21400Y16400
T3
X29130Y17350
X20870Y17350
X29490Y23900
X20510Y23900
X29130Y18150
X20870Y18150
X29490Y23100
X20510Y23100
X29130Y17750
X20870Y17700
X20510Y23500
X29490Y23500
T4
X32200Y11200
X30700Y9100
X28800Y7600
X10000Y19600
X7800Y19600
X32200Y19700
X32000Y17800
X5100Y14000
X9500Y20400
X18600Y20200
X19900Y17600
X41000Y15700
X39400Y15100
X41000Y15100
X29500Y15500
X29900Y12300
X40800Y20800
X36900Y12100
X40000Y5200
X40000Y4600
X41800Y6900
X42600Y6900
X29400Y21400
X19850Y16600
X22300Y16600
X20600Y20200
X39900Y21100
X39200Y21900
X37500Y12100
X37500Y13700
X47700Y14800
X44700Y14000
X41300Y8800
X40500Y9500
X18400Y16500
X17400Y14300
X15700Y17900
X15700Y17200
X2200Y14600
X4100Y14600
X5200Y12100
X5800Y10100
X14000Y12100
X12400Y10400
X9400Y5500
X3300Y7300
X30500Y4500
X14200Y3200
X13400Y3200
X12500Y3200
X22800Y20605
X34840Y20770
X29500Y900
X33050Y20770
X28500Y900
X44600Y12500
X33400Y10800
X36800Y20800
X32200Y20800
X38600Y8600
X33800Y13300
X34600Y13300
X33800Y12600
X34600Y12600
X41100Y10200
X42500Y10200
X41800Y10200
X41100Y10800
X42200Y17400
X42200Y18100
X35600Y8500
X35600Y7700
X23000Y16600
X23600Y16600
X26500Y16600
X25900Y14400
X23800Y14800
X35800Y20800
X42200Y20700
X39450Y18550
X38400Y18550
X25100Y20900
X30600Y22100
X30300Y17600
X19100Y22200
X31200Y22700
X30800Y16900
X19100Y23500
X33940Y20800
X26500Y800
X33525Y11600
X3500Y17700
X41800Y16400
X27500Y800
X29120Y14485
X28415Y14470
X29762Y7662
X9260Y18900
X12600Y13810
X11300Y21800
X32900Y18970
X31471Y11929
X32900Y18300
X30962Y12438
X18300Y15445
X14700Y17230
X18290Y14775
X14700Y17900
X33900Y23200
X34800Y23200
X33100Y23200
X41800Y4200
X42500Y4900
X7600Y14000
X8700Y7100
X13100Y22700
X13200Y20300
X38300Y21800
X22790Y21275
X30271Y8171
X8540Y18900
X12000Y16100
X7600Y16000
X12496Y11396
X12970Y11870
X2800Y13800
X3470Y13800
X6200Y11030
X6200Y11700
X31500Y9790
X31500Y10510
X11100Y7900
X17100Y9000
X15700Y23000
X32100Y23200
X35787Y23140
X37600Y22500
X42400Y14800
X43000Y14800
X43600Y14800
X41800Y14800
X21900Y20100
X21900Y21800
X27800Y13600
X31200Y13500
X8500Y9000
X7300Y9000
X9700Y9000
T5
X24250Y16410
X26965Y18300
X26400Y18800
X28100Y18800
X27535Y18300
X25450Y16786
X9850Y15000
X9150Y15000
X9850Y13800
X9150Y13800
X9850Y16200
X9150Y16200
X24750Y15020
X25600Y15000
X26000Y18100
M30