G04 EAGLE Gerber RS-274X export*
G75*
%MOMM*%
%FSLAX34Y34*%
%LPD*%
%IN2_Solder Mask Top*%
%IPPOS*%
%AMOC8*
5,1,8,0,0,1.08239X$1,22.5*%
G01*
%ADD10R,0.870000X0.870000*%
%ADD11C,0.280000*%
%ADD12C,0.254200*%
%ADD13C,0.182000*%
%ADD14C,0.193800*%
%ADD15C,0.144300*%
%ADD16C,0.720000*%
%ADD17C,0.670000*%
%ADD18C,0.870000*%
%ADD19C,0.870000*%
%ADD20C,0.285200*%
%ADD21C,0.269700*%
%ADD22R,0.670000X1.920000*%
%ADD23C,0.221100*%
%ADD24R,1.570000X1.570000*%
%ADD25C,1.070000*%
%ADD26C,0.270000*%
%ADD27C,0.170100*%
%ADD28R,1.270000X3.270000*%
%ADD29C,0.570000*%
%ADD30C,0.169200*%
%ADD31R,0.670000X0.470000*%
%ADD32C,0.321000*%
%ADD33C,0.131200*%
%ADD34C,0.620000*%
%ADD35C,0.118800*%
%ADD36C,0.368300*%

G36*
X179422Y222021D02*
X179422Y222021D01*
X179423Y222021D01*
X180242Y222223D01*
X180243Y222223D01*
X180991Y222615D01*
X180991Y222616D01*
X180992Y222616D01*
X181623Y223175D01*
X181623Y223176D01*
X181624Y223176D01*
X182103Y223871D01*
X182104Y223872D01*
X182403Y224661D01*
X182403Y224662D01*
X182404Y224668D01*
X182405Y224673D01*
X182406Y224683D01*
X182406Y224688D01*
X182408Y224703D01*
X182409Y224708D01*
X182410Y224718D01*
X182411Y224723D01*
X182412Y224733D01*
X182412Y224738D01*
X182414Y224748D01*
X182414Y224753D01*
X182415Y224763D01*
X182416Y224763D01*
X182415Y224763D01*
X182416Y224768D01*
X182418Y224783D01*
X182418Y224787D01*
X182419Y224788D01*
X182420Y224797D01*
X182420Y224802D01*
X182422Y224812D01*
X182422Y224817D01*
X182423Y224827D01*
X182424Y224832D01*
X182426Y224847D01*
X182426Y224852D01*
X182428Y224862D01*
X182428Y224867D01*
X182429Y224877D01*
X182430Y224882D01*
X182431Y224892D01*
X182432Y224897D01*
X182434Y224912D01*
X182434Y224917D01*
X182435Y224927D01*
X182436Y224932D01*
X182437Y224942D01*
X182438Y224946D01*
X182438Y224947D01*
X182439Y224956D01*
X182440Y224961D01*
X182441Y224971D01*
X182441Y224976D01*
X182442Y224981D01*
X182443Y224991D01*
X182444Y224996D01*
X182445Y225006D01*
X182446Y225011D01*
X182447Y225021D01*
X182447Y225026D01*
X182449Y225036D01*
X182449Y225041D01*
X182451Y225056D01*
X182452Y225061D01*
X182453Y225071D01*
X182453Y225076D01*
X182454Y225076D01*
X182453Y225076D01*
X182455Y225086D01*
X182455Y225091D01*
X182457Y225101D01*
X182457Y225105D01*
X182457Y225106D01*
X182459Y225120D01*
X182460Y225125D01*
X182461Y225135D01*
X182461Y225140D01*
X182463Y225150D01*
X182463Y225155D01*
X182464Y225165D01*
X182465Y225170D01*
X182467Y225185D01*
X182467Y225190D01*
X182469Y225200D01*
X182469Y225205D01*
X182470Y225215D01*
X182471Y225220D01*
X182472Y225230D01*
X182473Y225235D01*
X182474Y225245D01*
X182475Y225250D01*
X182476Y225264D01*
X182476Y225265D01*
X182477Y225269D01*
X182477Y225270D01*
X182478Y225279D01*
X182479Y225284D01*
X182480Y225294D01*
X182481Y225299D01*
X182482Y225309D01*
X182482Y225314D01*
X182484Y225329D01*
X182485Y225334D01*
X182486Y225344D01*
X182487Y225349D01*
X182488Y225359D01*
X182488Y225364D01*
X182489Y225364D01*
X182488Y225364D01*
X182490Y225374D01*
X182490Y225379D01*
X182492Y225394D01*
X182493Y225399D01*
X182494Y225409D01*
X182495Y225414D01*
X182496Y225423D01*
X182496Y225424D01*
X182496Y225428D01*
X182496Y225429D01*
X182498Y225438D01*
X182498Y225443D01*
X182500Y225458D01*
X182501Y225463D01*
X182502Y225473D01*
X182502Y225478D01*
X182504Y225488D01*
X182504Y225493D01*
X182505Y225499D01*
X182501Y225505D01*
X182501Y225504D01*
X182500Y225505D01*
X175500Y225505D01*
X175495Y225501D01*
X175496Y225500D01*
X175495Y225499D01*
X175597Y224662D01*
X175597Y224661D01*
X175896Y223872D01*
X175897Y223871D01*
X176376Y223176D01*
X176377Y223176D01*
X176377Y223175D01*
X177008Y222616D01*
X177009Y222616D01*
X177009Y222615D01*
X177757Y222223D01*
X177758Y222223D01*
X178577Y222021D01*
X178578Y222021D01*
X179422Y222021D01*
X179422Y222021D01*
G37*
G36*
X422422Y187771D02*
X422422Y187771D01*
X422423Y187771D01*
X423242Y187973D01*
X423243Y187973D01*
X423991Y188365D01*
X423991Y188366D01*
X423992Y188366D01*
X424623Y188925D01*
X424623Y188926D01*
X424624Y188926D01*
X425103Y189621D01*
X425104Y189622D01*
X425403Y190411D01*
X425403Y190412D01*
X425404Y190418D01*
X425405Y190423D01*
X425406Y190433D01*
X425406Y190438D01*
X425408Y190453D01*
X425409Y190458D01*
X425410Y190468D01*
X425411Y190473D01*
X425412Y190483D01*
X425412Y190488D01*
X425414Y190498D01*
X425414Y190503D01*
X425415Y190513D01*
X425416Y190513D01*
X425415Y190513D01*
X425416Y190518D01*
X425418Y190533D01*
X425418Y190537D01*
X425419Y190538D01*
X425420Y190547D01*
X425420Y190552D01*
X425422Y190562D01*
X425422Y190567D01*
X425423Y190577D01*
X425424Y190582D01*
X425426Y190597D01*
X425426Y190602D01*
X425428Y190612D01*
X425428Y190617D01*
X425429Y190627D01*
X425430Y190632D01*
X425431Y190642D01*
X425432Y190647D01*
X425434Y190662D01*
X425434Y190667D01*
X425435Y190677D01*
X425436Y190682D01*
X425437Y190692D01*
X425438Y190696D01*
X425438Y190697D01*
X425439Y190706D01*
X425440Y190711D01*
X425441Y190721D01*
X425441Y190726D01*
X425442Y190731D01*
X425443Y190741D01*
X425444Y190746D01*
X425445Y190756D01*
X425446Y190761D01*
X425447Y190771D01*
X425447Y190776D01*
X425449Y190786D01*
X425449Y190791D01*
X425451Y190806D01*
X425452Y190811D01*
X425453Y190821D01*
X425453Y190826D01*
X425454Y190826D01*
X425453Y190826D01*
X425455Y190836D01*
X425455Y190841D01*
X425457Y190851D01*
X425457Y190855D01*
X425457Y190856D01*
X425459Y190870D01*
X425460Y190875D01*
X425461Y190885D01*
X425461Y190890D01*
X425463Y190900D01*
X425463Y190905D01*
X425464Y190915D01*
X425465Y190920D01*
X425467Y190935D01*
X425467Y190940D01*
X425469Y190950D01*
X425469Y190955D01*
X425470Y190965D01*
X425471Y190970D01*
X425472Y190980D01*
X425473Y190985D01*
X425474Y190995D01*
X425475Y191000D01*
X425476Y191014D01*
X425476Y191015D01*
X425477Y191019D01*
X425477Y191020D01*
X425478Y191029D01*
X425479Y191034D01*
X425480Y191044D01*
X425481Y191049D01*
X425482Y191059D01*
X425482Y191064D01*
X425484Y191079D01*
X425485Y191084D01*
X425486Y191094D01*
X425487Y191099D01*
X425488Y191109D01*
X425488Y191114D01*
X425489Y191114D01*
X425488Y191114D01*
X425490Y191124D01*
X425490Y191129D01*
X425492Y191144D01*
X425493Y191149D01*
X425494Y191159D01*
X425495Y191164D01*
X425496Y191173D01*
X425496Y191174D01*
X425496Y191178D01*
X425496Y191179D01*
X425498Y191188D01*
X425498Y191193D01*
X425500Y191208D01*
X425501Y191213D01*
X425502Y191223D01*
X425502Y191228D01*
X425504Y191238D01*
X425504Y191243D01*
X425505Y191249D01*
X425501Y191255D01*
X425501Y191254D01*
X425500Y191255D01*
X418500Y191255D01*
X418495Y191251D01*
X418496Y191250D01*
X418495Y191249D01*
X418597Y190412D01*
X418597Y190411D01*
X418896Y189622D01*
X418897Y189621D01*
X419376Y188926D01*
X419377Y188926D01*
X419377Y188925D01*
X420008Y188366D01*
X420009Y188366D01*
X420009Y188365D01*
X420757Y187973D01*
X420758Y187973D01*
X421577Y187771D01*
X421578Y187771D01*
X422422Y187771D01*
X422422Y187771D01*
G37*
G36*
X182505Y232499D02*
X182505Y232499D01*
X182504Y232500D01*
X182505Y232501D01*
X182403Y233338D01*
X182403Y233339D01*
X182104Y234128D01*
X182103Y234129D01*
X181624Y234824D01*
X181623Y234824D01*
X181623Y234825D01*
X180992Y235384D01*
X180991Y235384D01*
X180991Y235385D01*
X180243Y235777D01*
X180242Y235777D01*
X179423Y235979D01*
X179422Y235979D01*
X178578Y235979D01*
X178577Y235979D01*
X177758Y235777D01*
X177757Y235777D01*
X177009Y235385D01*
X177009Y235384D01*
X177008Y235384D01*
X176377Y234825D01*
X176377Y234824D01*
X176376Y234824D01*
X175897Y234129D01*
X175896Y234128D01*
X175597Y233339D01*
X175597Y233338D01*
X175495Y232501D01*
X175499Y232495D01*
X175499Y232496D01*
X175500Y232495D01*
X182500Y232495D01*
X182505Y232499D01*
G37*
G36*
X425505Y192749D02*
X425505Y192749D01*
X425504Y192750D01*
X425505Y192751D01*
X425403Y193588D01*
X425403Y193589D01*
X425104Y194378D01*
X425103Y194379D01*
X424624Y195074D01*
X424623Y195074D01*
X424623Y195075D01*
X423992Y195634D01*
X423991Y195634D01*
X423991Y195635D01*
X423243Y196027D01*
X423242Y196027D01*
X422423Y196229D01*
X422422Y196229D01*
X421578Y196229D01*
X421577Y196229D01*
X420758Y196027D01*
X420757Y196027D01*
X420009Y195635D01*
X420009Y195634D01*
X420008Y195634D01*
X419377Y195075D01*
X419377Y195074D01*
X419376Y195074D01*
X418897Y194379D01*
X418896Y194378D01*
X418597Y193589D01*
X418597Y193588D01*
X418495Y192751D01*
X418499Y192745D01*
X418499Y192746D01*
X418500Y192745D01*
X425500Y192745D01*
X425505Y192749D01*
G37*
D10*
X442000Y164000D03*
X427000Y164000D03*
D11*
X353500Y176500D03*
X349500Y176500D03*
X345500Y176500D03*
X341500Y176500D03*
X337500Y176500D03*
X337500Y172500D03*
X337500Y168500D03*
X337500Y164500D03*
X337500Y160500D03*
X341500Y160500D03*
X345500Y160500D03*
X349500Y160500D03*
X353500Y160500D03*
X353500Y164500D03*
X353500Y168500D03*
X353500Y172500D03*
X349500Y172500D03*
X349500Y168500D03*
X349500Y164500D03*
X345500Y164500D03*
X345500Y168500D03*
X345500Y172500D03*
X341500Y172500D03*
X341500Y168500D03*
X341500Y164500D03*
X353500Y180500D03*
X353500Y184500D03*
X353500Y188500D03*
X353500Y192500D03*
X349500Y192500D03*
X345500Y192500D03*
X341500Y192500D03*
X337500Y192500D03*
X337500Y188500D03*
X337500Y184500D03*
X337500Y180500D03*
X341500Y180500D03*
X341500Y184500D03*
X341500Y188500D03*
X345500Y188500D03*
X345500Y184500D03*
X345500Y180500D03*
X349500Y180500D03*
X349500Y184500D03*
X349500Y188500D03*
X357500Y176500D03*
X361500Y176500D03*
X365500Y176500D03*
X369500Y176500D03*
X369500Y172500D03*
X369500Y168500D03*
X369500Y164500D03*
X369500Y160500D03*
X365500Y160500D03*
X361500Y160500D03*
X357500Y160500D03*
X357500Y164500D03*
X357500Y168500D03*
X357500Y172500D03*
X361500Y172500D03*
X361500Y168500D03*
X361500Y164500D03*
X365500Y164500D03*
X365500Y168500D03*
X365500Y172500D03*
X369500Y180500D03*
X369500Y184500D03*
X369500Y188500D03*
X369500Y192500D03*
X365500Y192500D03*
X361500Y192500D03*
X357500Y192500D03*
X357500Y188500D03*
X357500Y184500D03*
X357500Y180500D03*
X361500Y180500D03*
X361500Y184500D03*
X361500Y188500D03*
X365500Y188500D03*
X365500Y184500D03*
X365500Y180500D03*
D12*
X411579Y182671D02*
X411579Y188329D01*
X411579Y182671D02*
X404421Y182671D01*
X404421Y188329D01*
X411579Y188329D01*
X411579Y185086D02*
X404421Y185086D01*
X404421Y187501D02*
X411579Y187501D01*
X411579Y194671D02*
X411579Y200329D01*
X411579Y194671D02*
X404421Y194671D01*
X404421Y200329D01*
X411579Y200329D01*
X411579Y197086D02*
X404421Y197086D01*
X404421Y199501D02*
X411579Y199501D01*
D13*
X355560Y222810D02*
X355560Y226190D01*
X360440Y226190D01*
X360440Y222810D01*
X355560Y222810D01*
X355560Y224539D02*
X360440Y224539D01*
X355560Y217190D02*
X355560Y213810D01*
X355560Y217190D02*
X360440Y217190D01*
X360440Y213810D01*
X355560Y213810D01*
X355560Y215539D02*
X360440Y215539D01*
X381560Y202190D02*
X381560Y198810D01*
X381560Y202190D02*
X386440Y202190D01*
X386440Y198810D01*
X381560Y198810D01*
X381560Y200539D02*
X386440Y200539D01*
X381560Y193190D02*
X381560Y189810D01*
X381560Y193190D02*
X386440Y193190D01*
X386440Y189810D01*
X381560Y189810D01*
X381560Y191539D02*
X386440Y191539D01*
X396940Y193190D02*
X396940Y189810D01*
X392060Y189810D01*
X392060Y193190D01*
X396940Y193190D01*
X396940Y191539D02*
X392060Y191539D01*
X396940Y198810D02*
X396940Y202190D01*
X396940Y198810D02*
X392060Y198810D01*
X392060Y202190D01*
X396940Y202190D01*
X396940Y200539D02*
X392060Y200539D01*
D14*
X337119Y223119D02*
X337119Y226881D01*
X341881Y226881D01*
X341881Y223119D01*
X337119Y223119D01*
X337119Y224960D02*
X341881Y224960D01*
X341881Y226801D02*
X337119Y226801D01*
X337119Y216881D02*
X337119Y213119D01*
X337119Y216881D02*
X341881Y216881D01*
X341881Y213119D01*
X337119Y213119D01*
X337119Y214960D02*
X341881Y214960D01*
X341881Y216801D02*
X337119Y216801D01*
X350881Y216881D02*
X350881Y213119D01*
X346119Y213119D01*
X346119Y216881D01*
X350881Y216881D01*
X350881Y214960D02*
X346119Y214960D01*
X346119Y216801D02*
X350881Y216801D01*
X350881Y223119D02*
X350881Y226881D01*
X350881Y223119D02*
X346119Y223119D01*
X346119Y226881D01*
X350881Y226881D01*
X350881Y224960D02*
X346119Y224960D01*
X346119Y226801D02*
X350881Y226801D01*
X332881Y216881D02*
X332881Y213119D01*
X328119Y213119D01*
X328119Y216881D01*
X332881Y216881D01*
X332881Y214960D02*
X328119Y214960D01*
X328119Y216801D02*
X332881Y216801D01*
X332881Y223119D02*
X332881Y226881D01*
X332881Y223119D02*
X328119Y223119D01*
X328119Y226881D01*
X332881Y226881D01*
X332881Y224960D02*
X328119Y224960D01*
X328119Y226801D02*
X332881Y226801D01*
D13*
X381310Y208560D02*
X384690Y208560D01*
X381310Y208560D02*
X381310Y213440D01*
X384690Y213440D01*
X384690Y208560D01*
X384690Y210289D02*
X381310Y210289D01*
X381310Y212018D02*
X384690Y212018D01*
X390310Y208560D02*
X393690Y208560D01*
X390310Y208560D02*
X390310Y213440D01*
X393690Y213440D01*
X393690Y208560D01*
X393690Y210289D02*
X390310Y210289D01*
X390310Y212018D02*
X393690Y212018D01*
D12*
X397921Y172329D02*
X397921Y166671D01*
X397921Y172329D02*
X405079Y172329D01*
X405079Y166671D01*
X397921Y166671D01*
X397921Y169086D02*
X405079Y169086D01*
X405079Y171501D02*
X397921Y171501D01*
X397921Y160329D02*
X397921Y154671D01*
X397921Y160329D02*
X405079Y160329D01*
X405079Y154671D01*
X397921Y154671D01*
X397921Y157086D02*
X405079Y157086D01*
X405079Y159501D02*
X397921Y159501D01*
X381921Y166671D02*
X381921Y172329D01*
X389079Y172329D01*
X389079Y166671D01*
X381921Y166671D01*
X381921Y169086D02*
X389079Y169086D01*
X389079Y171501D02*
X381921Y171501D01*
X381921Y160329D02*
X381921Y154671D01*
X381921Y160329D02*
X389079Y160329D01*
X389079Y154671D01*
X381921Y154671D01*
X381921Y157086D02*
X389079Y157086D01*
X389079Y159501D02*
X381921Y159501D01*
D13*
X384940Y136190D02*
X384940Y132810D01*
X380060Y132810D01*
X380060Y136190D01*
X384940Y136190D01*
X384940Y134539D02*
X380060Y134539D01*
X384940Y141810D02*
X384940Y145190D01*
X384940Y141810D02*
X380060Y141810D01*
X380060Y145190D01*
X384940Y145190D01*
X384940Y143539D02*
X380060Y143539D01*
D12*
X359829Y125921D02*
X354171Y125921D01*
X354171Y133079D01*
X359829Y133079D01*
X359829Y125921D01*
X359829Y128336D02*
X354171Y128336D01*
X354171Y130751D02*
X359829Y130751D01*
X366171Y125921D02*
X371829Y125921D01*
X366171Y125921D02*
X366171Y133079D01*
X371829Y133079D01*
X371829Y125921D01*
X371829Y128336D02*
X366171Y128336D01*
X366171Y130751D02*
X371829Y130751D01*
X359829Y140921D02*
X354171Y140921D01*
X354171Y148079D01*
X359829Y148079D01*
X359829Y140921D01*
X359829Y143336D02*
X354171Y143336D01*
X354171Y145751D02*
X359829Y145751D01*
X366171Y140921D02*
X371829Y140921D01*
X366171Y140921D02*
X366171Y148079D01*
X371829Y148079D01*
X371829Y140921D01*
X371829Y143336D02*
X366171Y143336D01*
X366171Y145751D02*
X371829Y145751D01*
D13*
X370440Y213810D02*
X370440Y217190D01*
X370440Y213810D02*
X365560Y213810D01*
X365560Y217190D01*
X370440Y217190D01*
X370440Y215539D02*
X365560Y215539D01*
X370440Y222810D02*
X370440Y226190D01*
X370440Y222810D02*
X365560Y222810D01*
X365560Y226190D01*
X370440Y226190D01*
X370440Y224539D02*
X365560Y224539D01*
X323440Y217190D02*
X323440Y213810D01*
X318560Y213810D01*
X318560Y217190D01*
X323440Y217190D01*
X323440Y215539D02*
X318560Y215539D01*
X323440Y222810D02*
X323440Y226190D01*
X323440Y222810D02*
X318560Y222810D01*
X318560Y226190D01*
X323440Y226190D01*
X323440Y224539D02*
X318560Y224539D01*
D12*
X338171Y148079D02*
X343829Y148079D01*
X343829Y140921D01*
X338171Y140921D01*
X338171Y148079D01*
X338171Y143336D02*
X343829Y143336D01*
X343829Y145751D02*
X338171Y145751D01*
X331829Y148079D02*
X326171Y148079D01*
X331829Y148079D02*
X331829Y140921D01*
X326171Y140921D01*
X326171Y148079D01*
X326171Y143336D02*
X331829Y143336D01*
X331829Y145751D02*
X326171Y145751D01*
D14*
X315881Y155381D02*
X312119Y155381D01*
X315881Y155381D02*
X315881Y150619D01*
X312119Y150619D01*
X312119Y155381D01*
X312119Y152460D02*
X315881Y152460D01*
X315881Y154301D02*
X312119Y154301D01*
X305881Y155381D02*
X302119Y155381D01*
X305881Y155381D02*
X305881Y150619D01*
X302119Y150619D01*
X302119Y155381D01*
X302119Y152460D02*
X305881Y152460D01*
X305881Y154301D02*
X302119Y154301D01*
D15*
X278629Y160529D02*
X276371Y160529D01*
X278629Y160529D02*
X278629Y154271D01*
X276371Y154271D01*
X276371Y160529D01*
X276371Y155642D02*
X278629Y155642D01*
X278629Y157013D02*
X276371Y157013D01*
X276371Y158384D02*
X278629Y158384D01*
X278629Y159755D02*
X276371Y159755D01*
X273629Y160529D02*
X271371Y160529D01*
X273629Y160529D02*
X273629Y154271D01*
X271371Y154271D01*
X271371Y160529D01*
X271371Y155642D02*
X273629Y155642D01*
X273629Y157013D02*
X271371Y157013D01*
X271371Y158384D02*
X273629Y158384D01*
X273629Y159755D02*
X271371Y159755D01*
X268629Y160529D02*
X266371Y160529D01*
X268629Y160529D02*
X268629Y154271D01*
X266371Y154271D01*
X266371Y160529D01*
X266371Y155642D02*
X268629Y155642D01*
X268629Y157013D02*
X266371Y157013D01*
X266371Y158384D02*
X268629Y158384D01*
X268629Y159755D02*
X266371Y159755D01*
X263629Y160529D02*
X261371Y160529D01*
X263629Y160529D02*
X263629Y154271D01*
X261371Y154271D01*
X261371Y160529D01*
X261371Y155642D02*
X263629Y155642D01*
X263629Y157013D02*
X261371Y157013D01*
X261371Y158384D02*
X263629Y158384D01*
X263629Y159755D02*
X261371Y159755D01*
X258629Y160529D02*
X256371Y160529D01*
X258629Y160529D02*
X258629Y154271D01*
X256371Y154271D01*
X256371Y160529D01*
X256371Y155642D02*
X258629Y155642D01*
X258629Y157013D02*
X256371Y157013D01*
X256371Y158384D02*
X258629Y158384D01*
X258629Y159755D02*
X256371Y159755D01*
X253629Y160529D02*
X251371Y160529D01*
X253629Y160529D02*
X253629Y154271D01*
X251371Y154271D01*
X251371Y160529D01*
X251371Y155642D02*
X253629Y155642D01*
X253629Y157013D02*
X251371Y157013D01*
X251371Y158384D02*
X253629Y158384D01*
X253629Y159755D02*
X251371Y159755D01*
X248629Y160529D02*
X246371Y160529D01*
X248629Y160529D02*
X248629Y154271D01*
X246371Y154271D01*
X246371Y160529D01*
X246371Y155642D02*
X248629Y155642D01*
X248629Y157013D02*
X246371Y157013D01*
X246371Y158384D02*
X248629Y158384D01*
X248629Y159755D02*
X246371Y159755D01*
X243629Y160529D02*
X241371Y160529D01*
X243629Y160529D02*
X243629Y154271D01*
X241371Y154271D01*
X241371Y160529D01*
X241371Y155642D02*
X243629Y155642D01*
X243629Y157013D02*
X241371Y157013D01*
X241371Y158384D02*
X243629Y158384D01*
X243629Y159755D02*
X241371Y159755D01*
X238629Y160529D02*
X236371Y160529D01*
X238629Y160529D02*
X238629Y154271D01*
X236371Y154271D01*
X236371Y160529D01*
X236371Y155642D02*
X238629Y155642D01*
X238629Y157013D02*
X236371Y157013D01*
X236371Y158384D02*
X238629Y158384D01*
X238629Y159755D02*
X236371Y159755D01*
X233629Y160529D02*
X231371Y160529D01*
X233629Y160529D02*
X233629Y154271D01*
X231371Y154271D01*
X231371Y160529D01*
X231371Y155642D02*
X233629Y155642D01*
X233629Y157013D02*
X231371Y157013D01*
X231371Y158384D02*
X233629Y158384D01*
X233629Y159755D02*
X231371Y159755D01*
X228629Y160529D02*
X226371Y160529D01*
X228629Y160529D02*
X228629Y154271D01*
X226371Y154271D01*
X226371Y160529D01*
X226371Y155642D02*
X228629Y155642D01*
X228629Y157013D02*
X226371Y157013D01*
X226371Y158384D02*
X228629Y158384D01*
X228629Y159755D02*
X226371Y159755D01*
X223629Y160529D02*
X221371Y160529D01*
X223629Y160529D02*
X223629Y154271D01*
X221371Y154271D01*
X221371Y160529D01*
X221371Y155642D02*
X223629Y155642D01*
X223629Y157013D02*
X221371Y157013D01*
X221371Y158384D02*
X223629Y158384D01*
X223629Y159755D02*
X221371Y159755D01*
X248871Y177529D02*
X251129Y177529D01*
X251129Y171271D01*
X248871Y171271D01*
X248871Y177529D01*
X248871Y172642D02*
X251129Y172642D01*
X251129Y174013D02*
X248871Y174013D01*
X248871Y175384D02*
X251129Y175384D01*
X251129Y176755D02*
X248871Y176755D01*
X226129Y177529D02*
X223871Y177529D01*
X226129Y177529D02*
X226129Y171271D01*
X223871Y171271D01*
X223871Y177529D01*
X223871Y172642D02*
X226129Y172642D01*
X226129Y174013D02*
X223871Y174013D01*
X223871Y175384D02*
X226129Y175384D01*
X226129Y176755D02*
X223871Y176755D01*
X228871Y177529D02*
X231129Y177529D01*
X231129Y171271D01*
X228871Y171271D01*
X228871Y177529D01*
X228871Y172642D02*
X231129Y172642D01*
X231129Y174013D02*
X228871Y174013D01*
X228871Y175384D02*
X231129Y175384D01*
X231129Y176755D02*
X228871Y176755D01*
X233871Y177529D02*
X236129Y177529D01*
X236129Y171271D01*
X233871Y171271D01*
X233871Y177529D01*
X233871Y172642D02*
X236129Y172642D01*
X236129Y174013D02*
X233871Y174013D01*
X233871Y175384D02*
X236129Y175384D01*
X236129Y176755D02*
X233871Y176755D01*
X238871Y177529D02*
X241129Y177529D01*
X241129Y171271D01*
X238871Y171271D01*
X238871Y177529D01*
X238871Y172642D02*
X241129Y172642D01*
X241129Y174013D02*
X238871Y174013D01*
X238871Y175384D02*
X241129Y175384D01*
X241129Y176755D02*
X238871Y176755D01*
X243871Y177529D02*
X246129Y177529D01*
X246129Y171271D01*
X243871Y171271D01*
X243871Y177529D01*
X243871Y172642D02*
X246129Y172642D01*
X246129Y174013D02*
X243871Y174013D01*
X243871Y175384D02*
X246129Y175384D01*
X246129Y176755D02*
X243871Y176755D01*
X253871Y177529D02*
X256129Y177529D01*
X256129Y171271D01*
X253871Y171271D01*
X253871Y177529D01*
X253871Y172642D02*
X256129Y172642D01*
X256129Y174013D02*
X253871Y174013D01*
X253871Y175384D02*
X256129Y175384D01*
X256129Y176755D02*
X253871Y176755D01*
X258871Y177529D02*
X261129Y177529D01*
X261129Y171271D01*
X258871Y171271D01*
X258871Y177529D01*
X258871Y172642D02*
X261129Y172642D01*
X261129Y174013D02*
X258871Y174013D01*
X258871Y175384D02*
X261129Y175384D01*
X261129Y176755D02*
X258871Y176755D01*
X263871Y177529D02*
X266129Y177529D01*
X266129Y171271D01*
X263871Y171271D01*
X263871Y177529D01*
X263871Y172642D02*
X266129Y172642D01*
X266129Y174013D02*
X263871Y174013D01*
X263871Y175384D02*
X266129Y175384D01*
X266129Y176755D02*
X263871Y176755D01*
X268871Y177529D02*
X271129Y177529D01*
X271129Y171271D01*
X268871Y171271D01*
X268871Y177529D01*
X268871Y172642D02*
X271129Y172642D01*
X271129Y174013D02*
X268871Y174013D01*
X268871Y175384D02*
X271129Y175384D01*
X271129Y176755D02*
X268871Y176755D01*
X273871Y177529D02*
X276129Y177529D01*
X276129Y171271D01*
X273871Y171271D01*
X273871Y177529D01*
X273871Y172642D02*
X276129Y172642D01*
X276129Y174013D02*
X273871Y174013D01*
X273871Y175384D02*
X276129Y175384D01*
X276129Y176755D02*
X273871Y176755D01*
X278871Y177529D02*
X281129Y177529D01*
X281129Y171271D01*
X278871Y171271D01*
X278871Y177529D01*
X278871Y172642D02*
X281129Y172642D01*
X281129Y174013D02*
X278871Y174013D01*
X278871Y175384D02*
X281129Y175384D01*
X281129Y176755D02*
X278871Y176755D01*
D16*
X286000Y164000D03*
D17*
X214000Y164000D03*
D18*
X291300Y173500D02*
X291300Y181500D01*
X208700Y181500D02*
X208700Y173500D01*
X294900Y231000D02*
X294900Y239000D01*
X205100Y239000D02*
X205100Y231000D01*
X291300Y181500D02*
X291300Y173500D01*
X208700Y173500D02*
X208700Y181500D01*
X294900Y231000D02*
X294900Y239000D01*
X205100Y239000D02*
X205100Y231000D01*
D19*
X291300Y177500D03*
X208700Y177000D03*
X205100Y235000D03*
X294900Y235000D03*
D20*
X452076Y128174D02*
X485424Y128174D01*
X485424Y121826D01*
X452076Y121826D01*
X452076Y128174D01*
X452076Y124535D02*
X485424Y124535D01*
X485424Y127244D02*
X452076Y127244D01*
X452076Y113174D02*
X485424Y113174D01*
X485424Y106826D01*
X452076Y106826D01*
X452076Y113174D01*
X452076Y109535D02*
X485424Y109535D01*
X485424Y112244D02*
X452076Y112244D01*
X452076Y143174D02*
X485424Y143174D01*
X485424Y136826D01*
X452076Y136826D01*
X452076Y143174D01*
X452076Y139535D02*
X485424Y139535D01*
X485424Y142244D02*
X452076Y142244D01*
X440924Y113174D02*
X416576Y113174D01*
X440924Y113174D02*
X440924Y106826D01*
X416576Y106826D01*
X416576Y113174D01*
X416576Y109535D02*
X440924Y109535D01*
X440924Y112244D02*
X416576Y112244D01*
X416576Y128174D02*
X440924Y128174D01*
X440924Y121826D01*
X416576Y121826D01*
X416576Y128174D01*
X416576Y124535D02*
X440924Y124535D01*
X440924Y127244D02*
X416576Y127244D01*
X416576Y143174D02*
X440924Y143174D01*
X440924Y136826D01*
X416576Y136826D01*
X416576Y143174D01*
X416576Y139535D02*
X440924Y139535D01*
X440924Y142244D02*
X416576Y142244D01*
D21*
X410502Y138498D02*
X392498Y138498D01*
X392498Y144502D01*
X410502Y144502D01*
X410502Y138498D01*
X410502Y141060D02*
X392498Y141060D01*
X392498Y143622D02*
X410502Y143622D01*
X410502Y118498D02*
X392498Y118498D01*
X392498Y124502D01*
X410502Y124502D01*
X410502Y118498D01*
X410502Y121060D02*
X392498Y121060D01*
X392498Y123622D02*
X410502Y123622D01*
D22*
X155000Y59750D03*
D23*
X167245Y68245D02*
X167245Y51255D01*
X162755Y51255D01*
X162755Y68245D01*
X167245Y68245D01*
X167245Y53355D02*
X162755Y53355D01*
X162755Y55455D02*
X167245Y55455D01*
X167245Y57555D02*
X162755Y57555D01*
X162755Y59655D02*
X167245Y59655D01*
X167245Y61755D02*
X162755Y61755D01*
X162755Y63855D02*
X167245Y63855D01*
X167245Y65955D02*
X162755Y65955D01*
X162755Y68055D02*
X167245Y68055D01*
X177245Y68245D02*
X177245Y51255D01*
X172755Y51255D01*
X172755Y68245D01*
X177245Y68245D01*
X177245Y53355D02*
X172755Y53355D01*
X172755Y55455D02*
X177245Y55455D01*
X177245Y57555D02*
X172755Y57555D01*
X172755Y59655D02*
X177245Y59655D01*
X177245Y61755D02*
X172755Y61755D01*
X172755Y63855D02*
X177245Y63855D01*
X177245Y65955D02*
X172755Y65955D01*
X172755Y68055D02*
X177245Y68055D01*
X187245Y68245D02*
X187245Y51255D01*
X182755Y51255D01*
X182755Y68245D01*
X187245Y68245D01*
X187245Y53355D02*
X182755Y53355D01*
X182755Y55455D02*
X187245Y55455D01*
X187245Y57555D02*
X182755Y57555D01*
X182755Y59655D02*
X187245Y59655D01*
X187245Y61755D02*
X182755Y61755D01*
X182755Y63855D02*
X187245Y63855D01*
X187245Y65955D02*
X182755Y65955D01*
X182755Y68055D02*
X187245Y68055D01*
X197245Y68245D02*
X197245Y51255D01*
X192755Y51255D01*
X192755Y68245D01*
X197245Y68245D01*
X197245Y53355D02*
X192755Y53355D01*
X192755Y55455D02*
X197245Y55455D01*
X197245Y57555D02*
X192755Y57555D01*
X192755Y59655D02*
X197245Y59655D01*
X197245Y61755D02*
X192755Y61755D01*
X192755Y63855D02*
X197245Y63855D01*
X197245Y65955D02*
X192755Y65955D01*
X192755Y68055D02*
X197245Y68055D01*
X207245Y68245D02*
X207245Y51255D01*
X202755Y51255D01*
X202755Y68245D01*
X207245Y68245D01*
X207245Y53355D02*
X202755Y53355D01*
X202755Y55455D02*
X207245Y55455D01*
X207245Y57555D02*
X202755Y57555D01*
X202755Y59655D02*
X207245Y59655D01*
X207245Y61755D02*
X202755Y61755D01*
X202755Y63855D02*
X207245Y63855D01*
X207245Y65955D02*
X202755Y65955D01*
X202755Y68055D02*
X207245Y68055D01*
X217245Y68245D02*
X217245Y51255D01*
X212755Y51255D01*
X212755Y68245D01*
X217245Y68245D01*
X217245Y53355D02*
X212755Y53355D01*
X212755Y55455D02*
X217245Y55455D01*
X217245Y57555D02*
X212755Y57555D01*
X212755Y59655D02*
X217245Y59655D01*
X217245Y61755D02*
X212755Y61755D01*
X212755Y63855D02*
X217245Y63855D01*
X217245Y65955D02*
X212755Y65955D01*
X212755Y68055D02*
X217245Y68055D01*
X227245Y68245D02*
X227245Y51255D01*
X222755Y51255D01*
X222755Y68245D01*
X227245Y68245D01*
X227245Y53355D02*
X222755Y53355D01*
X222755Y55455D02*
X227245Y55455D01*
X227245Y57555D02*
X222755Y57555D01*
X222755Y59655D02*
X227245Y59655D01*
X227245Y61755D02*
X222755Y61755D01*
X222755Y63855D02*
X227245Y63855D01*
X227245Y65955D02*
X222755Y65955D01*
X222755Y68055D02*
X227245Y68055D01*
X237245Y68245D02*
X237245Y51255D01*
X232755Y51255D01*
X232755Y68245D01*
X237245Y68245D01*
X237245Y53355D02*
X232755Y53355D01*
X232755Y55455D02*
X237245Y55455D01*
X237245Y57555D02*
X232755Y57555D01*
X232755Y59655D02*
X237245Y59655D01*
X237245Y61755D02*
X232755Y61755D01*
X232755Y63855D02*
X237245Y63855D01*
X237245Y65955D02*
X232755Y65955D01*
X232755Y68055D02*
X237245Y68055D01*
X247245Y68245D02*
X247245Y51255D01*
X242755Y51255D01*
X242755Y68245D01*
X247245Y68245D01*
X247245Y53355D02*
X242755Y53355D01*
X242755Y55455D02*
X247245Y55455D01*
X247245Y57555D02*
X242755Y57555D01*
X242755Y59655D02*
X247245Y59655D01*
X247245Y61755D02*
X242755Y61755D01*
X242755Y63855D02*
X247245Y63855D01*
X247245Y65955D02*
X242755Y65955D01*
X242755Y68055D02*
X247245Y68055D01*
X257245Y68245D02*
X257245Y51255D01*
X252755Y51255D01*
X252755Y68245D01*
X257245Y68245D01*
X257245Y53355D02*
X252755Y53355D01*
X252755Y55455D02*
X257245Y55455D01*
X257245Y57555D02*
X252755Y57555D01*
X252755Y59655D02*
X257245Y59655D01*
X257245Y61755D02*
X252755Y61755D01*
X252755Y63855D02*
X257245Y63855D01*
X257245Y65955D02*
X252755Y65955D01*
X252755Y68055D02*
X257245Y68055D01*
X267245Y68245D02*
X267245Y51255D01*
X262755Y51255D01*
X262755Y68245D01*
X267245Y68245D01*
X267245Y53355D02*
X262755Y53355D01*
X262755Y55455D02*
X267245Y55455D01*
X267245Y57555D02*
X262755Y57555D01*
X262755Y59655D02*
X267245Y59655D01*
X267245Y61755D02*
X262755Y61755D01*
X262755Y63855D02*
X267245Y63855D01*
X267245Y65955D02*
X262755Y65955D01*
X262755Y68055D02*
X267245Y68055D01*
X277245Y68245D02*
X277245Y51255D01*
X272755Y51255D01*
X272755Y68245D01*
X277245Y68245D01*
X277245Y53355D02*
X272755Y53355D01*
X272755Y55455D02*
X277245Y55455D01*
X277245Y57555D02*
X272755Y57555D01*
X272755Y59655D02*
X277245Y59655D01*
X277245Y61755D02*
X272755Y61755D01*
X272755Y63855D02*
X277245Y63855D01*
X277245Y65955D02*
X272755Y65955D01*
X272755Y68055D02*
X277245Y68055D01*
X287245Y68245D02*
X287245Y51255D01*
X282755Y51255D01*
X282755Y68245D01*
X287245Y68245D01*
X287245Y53355D02*
X282755Y53355D01*
X282755Y55455D02*
X287245Y55455D01*
X287245Y57555D02*
X282755Y57555D01*
X282755Y59655D02*
X287245Y59655D01*
X287245Y61755D02*
X282755Y61755D01*
X282755Y63855D02*
X287245Y63855D01*
X287245Y65955D02*
X282755Y65955D01*
X282755Y68055D02*
X287245Y68055D01*
X297245Y68245D02*
X297245Y51255D01*
X292755Y51255D01*
X292755Y68245D01*
X297245Y68245D01*
X297245Y53355D02*
X292755Y53355D01*
X292755Y55455D02*
X297245Y55455D01*
X297245Y57555D02*
X292755Y57555D01*
X292755Y59655D02*
X297245Y59655D01*
X297245Y61755D02*
X292755Y61755D01*
X292755Y63855D02*
X297245Y63855D01*
X297245Y65955D02*
X292755Y65955D01*
X292755Y68055D02*
X297245Y68055D01*
X307245Y68245D02*
X307245Y51255D01*
X302755Y51255D01*
X302755Y68245D01*
X307245Y68245D01*
X307245Y53355D02*
X302755Y53355D01*
X302755Y55455D02*
X307245Y55455D01*
X307245Y57555D02*
X302755Y57555D01*
X302755Y59655D02*
X307245Y59655D01*
X307245Y61755D02*
X302755Y61755D01*
X302755Y63855D02*
X307245Y63855D01*
X307245Y65955D02*
X302755Y65955D01*
X302755Y68055D02*
X307245Y68055D01*
X317245Y68245D02*
X317245Y51255D01*
X312755Y51255D01*
X312755Y68245D01*
X317245Y68245D01*
X317245Y53355D02*
X312755Y53355D01*
X312755Y55455D02*
X317245Y55455D01*
X317245Y57555D02*
X312755Y57555D01*
X312755Y59655D02*
X317245Y59655D01*
X317245Y61755D02*
X312755Y61755D01*
X312755Y63855D02*
X317245Y63855D01*
X317245Y65955D02*
X312755Y65955D01*
X312755Y68055D02*
X317245Y68055D01*
X327245Y68245D02*
X327245Y51255D01*
X322755Y51255D01*
X322755Y68245D01*
X327245Y68245D01*
X327245Y53355D02*
X322755Y53355D01*
X322755Y55455D02*
X327245Y55455D01*
X327245Y57555D02*
X322755Y57555D01*
X322755Y59655D02*
X327245Y59655D01*
X327245Y61755D02*
X322755Y61755D01*
X322755Y63855D02*
X327245Y63855D01*
X327245Y65955D02*
X322755Y65955D01*
X322755Y68055D02*
X327245Y68055D01*
X337245Y68245D02*
X337245Y51255D01*
X332755Y51255D01*
X332755Y68245D01*
X337245Y68245D01*
X337245Y53355D02*
X332755Y53355D01*
X332755Y55455D02*
X337245Y55455D01*
X337245Y57555D02*
X332755Y57555D01*
X332755Y59655D02*
X337245Y59655D01*
X337245Y61755D02*
X332755Y61755D01*
X332755Y63855D02*
X337245Y63855D01*
X337245Y65955D02*
X332755Y65955D01*
X332755Y68055D02*
X337245Y68055D01*
X347245Y68245D02*
X347245Y51255D01*
X342755Y51255D01*
X342755Y68245D01*
X347245Y68245D01*
X347245Y53355D02*
X342755Y53355D01*
X342755Y55455D02*
X347245Y55455D01*
X347245Y57555D02*
X342755Y57555D01*
X342755Y59655D02*
X347245Y59655D01*
X347245Y61755D02*
X342755Y61755D01*
X342755Y63855D02*
X347245Y63855D01*
X347245Y65955D02*
X342755Y65955D01*
X342755Y68055D02*
X347245Y68055D01*
X157245Y29495D02*
X157245Y14505D01*
X152755Y14505D01*
X152755Y29495D01*
X157245Y29495D01*
X157245Y16605D02*
X152755Y16605D01*
X152755Y18705D02*
X157245Y18705D01*
X157245Y20805D02*
X152755Y20805D01*
X152755Y22905D02*
X157245Y22905D01*
X157245Y25005D02*
X152755Y25005D01*
X152755Y27105D02*
X157245Y27105D01*
X157245Y29205D02*
X152755Y29205D01*
X167245Y29495D02*
X167245Y14505D01*
X162755Y14505D01*
X162755Y29495D01*
X167245Y29495D01*
X167245Y16605D02*
X162755Y16605D01*
X162755Y18705D02*
X167245Y18705D01*
X167245Y20805D02*
X162755Y20805D01*
X162755Y22905D02*
X167245Y22905D01*
X167245Y25005D02*
X162755Y25005D01*
X162755Y27105D02*
X167245Y27105D01*
X167245Y29205D02*
X162755Y29205D01*
X177245Y29495D02*
X177245Y14505D01*
X172755Y14505D01*
X172755Y29495D01*
X177245Y29495D01*
X177245Y16605D02*
X172755Y16605D01*
X172755Y18705D02*
X177245Y18705D01*
X177245Y20805D02*
X172755Y20805D01*
X172755Y22905D02*
X177245Y22905D01*
X177245Y25005D02*
X172755Y25005D01*
X172755Y27105D02*
X177245Y27105D01*
X177245Y29205D02*
X172755Y29205D01*
X187245Y29495D02*
X187245Y14505D01*
X182755Y14505D01*
X182755Y29495D01*
X187245Y29495D01*
X187245Y16605D02*
X182755Y16605D01*
X182755Y18705D02*
X187245Y18705D01*
X187245Y20805D02*
X182755Y20805D01*
X182755Y22905D02*
X187245Y22905D01*
X187245Y25005D02*
X182755Y25005D01*
X182755Y27105D02*
X187245Y27105D01*
X187245Y29205D02*
X182755Y29205D01*
X197245Y29495D02*
X197245Y14505D01*
X192755Y14505D01*
X192755Y29495D01*
X197245Y29495D01*
X197245Y16605D02*
X192755Y16605D01*
X192755Y18705D02*
X197245Y18705D01*
X197245Y20805D02*
X192755Y20805D01*
X192755Y22905D02*
X197245Y22905D01*
X197245Y25005D02*
X192755Y25005D01*
X192755Y27105D02*
X197245Y27105D01*
X197245Y29205D02*
X192755Y29205D01*
X207245Y29495D02*
X207245Y14505D01*
X202755Y14505D01*
X202755Y29495D01*
X207245Y29495D01*
X207245Y16605D02*
X202755Y16605D01*
X202755Y18705D02*
X207245Y18705D01*
X207245Y20805D02*
X202755Y20805D01*
X202755Y22905D02*
X207245Y22905D01*
X207245Y25005D02*
X202755Y25005D01*
X202755Y27105D02*
X207245Y27105D01*
X207245Y29205D02*
X202755Y29205D01*
X217245Y29495D02*
X217245Y14505D01*
X212755Y14505D01*
X212755Y29495D01*
X217245Y29495D01*
X217245Y16605D02*
X212755Y16605D01*
X212755Y18705D02*
X217245Y18705D01*
X217245Y20805D02*
X212755Y20805D01*
X212755Y22905D02*
X217245Y22905D01*
X217245Y25005D02*
X212755Y25005D01*
X212755Y27105D02*
X217245Y27105D01*
X217245Y29205D02*
X212755Y29205D01*
X227245Y29495D02*
X227245Y14505D01*
X222755Y14505D01*
X222755Y29495D01*
X227245Y29495D01*
X227245Y16605D02*
X222755Y16605D01*
X222755Y18705D02*
X227245Y18705D01*
X227245Y20805D02*
X222755Y20805D01*
X222755Y22905D02*
X227245Y22905D01*
X227245Y25005D02*
X222755Y25005D01*
X222755Y27105D02*
X227245Y27105D01*
X227245Y29205D02*
X222755Y29205D01*
X237245Y29495D02*
X237245Y14505D01*
X232755Y14505D01*
X232755Y29495D01*
X237245Y29495D01*
X237245Y16605D02*
X232755Y16605D01*
X232755Y18705D02*
X237245Y18705D01*
X237245Y20805D02*
X232755Y20805D01*
X232755Y22905D02*
X237245Y22905D01*
X237245Y25005D02*
X232755Y25005D01*
X232755Y27105D02*
X237245Y27105D01*
X237245Y29205D02*
X232755Y29205D01*
X247245Y29495D02*
X247245Y14505D01*
X242755Y14505D01*
X242755Y29495D01*
X247245Y29495D01*
X247245Y16605D02*
X242755Y16605D01*
X242755Y18705D02*
X247245Y18705D01*
X247245Y20805D02*
X242755Y20805D01*
X242755Y22905D02*
X247245Y22905D01*
X247245Y25005D02*
X242755Y25005D01*
X242755Y27105D02*
X247245Y27105D01*
X247245Y29205D02*
X242755Y29205D01*
X257245Y29495D02*
X257245Y14505D01*
X252755Y14505D01*
X252755Y29495D01*
X257245Y29495D01*
X257245Y16605D02*
X252755Y16605D01*
X252755Y18705D02*
X257245Y18705D01*
X257245Y20805D02*
X252755Y20805D01*
X252755Y22905D02*
X257245Y22905D01*
X257245Y25005D02*
X252755Y25005D01*
X252755Y27105D02*
X257245Y27105D01*
X257245Y29205D02*
X252755Y29205D01*
X267245Y29495D02*
X267245Y14505D01*
X262755Y14505D01*
X262755Y29495D01*
X267245Y29495D01*
X267245Y16605D02*
X262755Y16605D01*
X262755Y18705D02*
X267245Y18705D01*
X267245Y20805D02*
X262755Y20805D01*
X262755Y22905D02*
X267245Y22905D01*
X267245Y25005D02*
X262755Y25005D01*
X262755Y27105D02*
X267245Y27105D01*
X267245Y29205D02*
X262755Y29205D01*
X277245Y29495D02*
X277245Y14505D01*
X272755Y14505D01*
X272755Y29495D01*
X277245Y29495D01*
X277245Y16605D02*
X272755Y16605D01*
X272755Y18705D02*
X277245Y18705D01*
X277245Y20805D02*
X272755Y20805D01*
X272755Y22905D02*
X277245Y22905D01*
X277245Y25005D02*
X272755Y25005D01*
X272755Y27105D02*
X277245Y27105D01*
X277245Y29205D02*
X272755Y29205D01*
X287245Y29495D02*
X287245Y14505D01*
X282755Y14505D01*
X282755Y29495D01*
X287245Y29495D01*
X287245Y16605D02*
X282755Y16605D01*
X282755Y18705D02*
X287245Y18705D01*
X287245Y20805D02*
X282755Y20805D01*
X282755Y22905D02*
X287245Y22905D01*
X287245Y25005D02*
X282755Y25005D01*
X282755Y27105D02*
X287245Y27105D01*
X287245Y29205D02*
X282755Y29205D01*
X297245Y29495D02*
X297245Y14505D01*
X292755Y14505D01*
X292755Y29495D01*
X297245Y29495D01*
X297245Y16605D02*
X292755Y16605D01*
X292755Y18705D02*
X297245Y18705D01*
X297245Y20805D02*
X292755Y20805D01*
X292755Y22905D02*
X297245Y22905D01*
X297245Y25005D02*
X292755Y25005D01*
X292755Y27105D02*
X297245Y27105D01*
X297245Y29205D02*
X292755Y29205D01*
X307245Y29495D02*
X307245Y14505D01*
X302755Y14505D01*
X302755Y29495D01*
X307245Y29495D01*
X307245Y16605D02*
X302755Y16605D01*
X302755Y18705D02*
X307245Y18705D01*
X307245Y20805D02*
X302755Y20805D01*
X302755Y22905D02*
X307245Y22905D01*
X307245Y25005D02*
X302755Y25005D01*
X302755Y27105D02*
X307245Y27105D01*
X307245Y29205D02*
X302755Y29205D01*
X317245Y29495D02*
X317245Y14505D01*
X312755Y14505D01*
X312755Y29495D01*
X317245Y29495D01*
X317245Y16605D02*
X312755Y16605D01*
X312755Y18705D02*
X317245Y18705D01*
X317245Y20805D02*
X312755Y20805D01*
X312755Y22905D02*
X317245Y22905D01*
X317245Y25005D02*
X312755Y25005D01*
X312755Y27105D02*
X317245Y27105D01*
X317245Y29205D02*
X312755Y29205D01*
X327245Y29495D02*
X327245Y14505D01*
X322755Y14505D01*
X322755Y29495D01*
X327245Y29495D01*
X327245Y16605D02*
X322755Y16605D01*
X322755Y18705D02*
X327245Y18705D01*
X327245Y20805D02*
X322755Y20805D01*
X322755Y22905D02*
X327245Y22905D01*
X327245Y25005D02*
X322755Y25005D01*
X322755Y27105D02*
X327245Y27105D01*
X327245Y29205D02*
X322755Y29205D01*
X337245Y29495D02*
X337245Y14505D01*
X332755Y14505D01*
X332755Y29495D01*
X337245Y29495D01*
X337245Y16605D02*
X332755Y16605D01*
X332755Y18705D02*
X337245Y18705D01*
X337245Y20805D02*
X332755Y20805D01*
X332755Y22905D02*
X337245Y22905D01*
X337245Y25005D02*
X332755Y25005D01*
X332755Y27105D02*
X337245Y27105D01*
X337245Y29205D02*
X332755Y29205D01*
X347245Y29495D02*
X347245Y14505D01*
X342755Y14505D01*
X342755Y29495D01*
X347245Y29495D01*
X347245Y16605D02*
X342755Y16605D01*
X342755Y18705D02*
X347245Y18705D01*
X347245Y20805D02*
X342755Y20805D01*
X342755Y22905D02*
X347245Y22905D01*
X347245Y25005D02*
X342755Y25005D01*
X342755Y27105D02*
X347245Y27105D01*
X347245Y29205D02*
X342755Y29205D01*
D21*
X466998Y167130D02*
X473002Y167130D01*
X473002Y161126D01*
X466998Y161126D01*
X466998Y167130D01*
X466998Y163688D02*
X473002Y163688D01*
X473002Y166250D02*
X466998Y166250D01*
X457002Y167130D02*
X450998Y167130D01*
X457002Y167130D02*
X457002Y161126D01*
X450998Y161126D01*
X450998Y167130D01*
X450998Y163688D02*
X457002Y163688D01*
X457002Y166250D02*
X450998Y166250D01*
D13*
X407448Y80190D02*
X407448Y76810D01*
X402568Y76810D01*
X402568Y80190D01*
X407448Y80190D01*
X407448Y78539D02*
X402568Y78539D01*
X407448Y85810D02*
X407448Y89190D01*
X407448Y85810D02*
X402568Y85810D01*
X402568Y89190D01*
X407448Y89190D01*
X407448Y87539D02*
X402568Y87539D01*
X415810Y51448D02*
X419190Y51448D01*
X419190Y46568D01*
X415810Y46568D01*
X415810Y51448D01*
X415810Y48297D02*
X419190Y48297D01*
X419190Y50026D02*
X415810Y50026D01*
X410190Y51448D02*
X406810Y51448D01*
X410190Y51448D02*
X410190Y46568D01*
X406810Y46568D01*
X406810Y51448D01*
X406810Y48297D02*
X410190Y48297D01*
X410190Y50026D02*
X406810Y50026D01*
X422810Y88552D02*
X426190Y88552D01*
X422810Y88552D02*
X422810Y93432D01*
X426190Y93432D01*
X426190Y88552D01*
X426190Y90281D02*
X422810Y90281D01*
X422810Y92010D02*
X426190Y92010D01*
X431810Y88552D02*
X435190Y88552D01*
X431810Y88552D02*
X431810Y93432D01*
X435190Y93432D01*
X435190Y88552D01*
X435190Y90281D02*
X431810Y90281D01*
X431810Y92010D02*
X435190Y92010D01*
D24*
X29000Y86000D03*
X29000Y164000D03*
D14*
X332001Y124881D02*
X332001Y121119D01*
X327239Y121119D01*
X327239Y124881D01*
X332001Y124881D01*
X332001Y122960D02*
X327239Y122960D01*
X327239Y124801D02*
X332001Y124801D01*
X332001Y131119D02*
X332001Y134881D01*
X332001Y131119D02*
X327239Y131119D01*
X327239Y134881D01*
X332001Y134881D01*
X332001Y132960D02*
X327239Y132960D01*
X327239Y134801D02*
X332001Y134801D01*
D25*
X49500Y65500D03*
X434000Y181000D03*
X345000Y116000D03*
X382000Y68000D03*
X330500Y96500D03*
X407000Y38000D03*
D13*
X306190Y140560D02*
X302810Y140560D01*
X302810Y145440D01*
X306190Y145440D01*
X306190Y140560D01*
X306190Y142289D02*
X302810Y142289D01*
X302810Y144018D02*
X306190Y144018D01*
X311810Y140560D02*
X315190Y140560D01*
X311810Y140560D02*
X311810Y145440D01*
X315190Y145440D01*
X315190Y140560D01*
X315190Y142289D02*
X311810Y142289D01*
X311810Y144018D02*
X315190Y144018D01*
D15*
X428371Y82129D02*
X428371Y75871D01*
X428371Y82129D02*
X430629Y82129D01*
X430629Y75871D01*
X428371Y75871D01*
X428371Y77242D02*
X430629Y77242D01*
X430629Y78613D02*
X428371Y78613D01*
X428371Y79984D02*
X430629Y79984D01*
X430629Y81355D02*
X428371Y81355D01*
X423371Y82129D02*
X423371Y75871D01*
X423371Y82129D02*
X425629Y82129D01*
X425629Y75871D01*
X423371Y75871D01*
X423371Y77242D02*
X425629Y77242D01*
X425629Y78613D02*
X423371Y78613D01*
X423371Y79984D02*
X425629Y79984D01*
X425629Y81355D02*
X423371Y81355D01*
X418371Y82129D02*
X418371Y75871D01*
X418371Y82129D02*
X420629Y82129D01*
X420629Y75871D01*
X418371Y75871D01*
X418371Y77242D02*
X420629Y77242D01*
X420629Y78613D02*
X418371Y78613D01*
X418371Y79984D02*
X420629Y79984D01*
X420629Y81355D02*
X418371Y81355D01*
X413371Y82129D02*
X413371Y75871D01*
X413371Y82129D02*
X415629Y82129D01*
X415629Y75871D01*
X413371Y75871D01*
X413371Y77242D02*
X415629Y77242D01*
X415629Y78613D02*
X413371Y78613D01*
X413371Y79984D02*
X415629Y79984D01*
X415629Y81355D02*
X413371Y81355D01*
X428371Y62329D02*
X428371Y56071D01*
X428371Y62329D02*
X430629Y62329D01*
X430629Y56071D01*
X428371Y56071D01*
X428371Y57442D02*
X430629Y57442D01*
X430629Y58813D02*
X428371Y58813D01*
X428371Y60184D02*
X430629Y60184D01*
X430629Y61555D02*
X428371Y61555D01*
X423371Y62329D02*
X423371Y56071D01*
X423371Y62329D02*
X425629Y62329D01*
X425629Y56071D01*
X423371Y56071D01*
X423371Y57442D02*
X425629Y57442D01*
X425629Y58813D02*
X423371Y58813D01*
X423371Y60184D02*
X425629Y60184D01*
X425629Y61555D02*
X423371Y61555D01*
X418371Y62329D02*
X418371Y56071D01*
X418371Y62329D02*
X420629Y62329D01*
X420629Y56071D01*
X418371Y56071D01*
X418371Y57442D02*
X420629Y57442D01*
X420629Y58813D02*
X418371Y58813D01*
X418371Y60184D02*
X420629Y60184D01*
X420629Y61555D02*
X418371Y61555D01*
X413371Y62329D02*
X413371Y56071D01*
X413371Y62329D02*
X415629Y62329D01*
X415629Y56071D01*
X413371Y56071D01*
X413371Y57442D02*
X415629Y57442D01*
X415629Y58813D02*
X413371Y58813D01*
X413371Y60184D02*
X415629Y60184D01*
X415629Y61555D02*
X413371Y61555D01*
D21*
X416098Y65998D02*
X427902Y65998D01*
X416098Y65998D02*
X416098Y72002D01*
X427902Y72002D01*
X427902Y65998D01*
X427902Y68560D02*
X416098Y68560D01*
X416098Y71122D02*
X427902Y71122D01*
D26*
X108500Y132000D02*
X105500Y132000D01*
D27*
X105000Y136500D02*
X109000Y136500D01*
X109000Y135500D01*
X105000Y135500D01*
X105000Y136500D01*
X105000Y140500D02*
X109000Y140500D01*
X109000Y139500D01*
X105000Y139500D01*
X105000Y140500D01*
X105000Y144500D02*
X109000Y144500D01*
X109000Y143500D01*
X105000Y143500D01*
X105000Y144500D01*
X105000Y148500D02*
X109000Y148500D01*
X109000Y147500D01*
X105000Y147500D01*
X105000Y148500D01*
X105000Y152500D02*
X109000Y152500D01*
X109000Y151500D01*
X105000Y151500D01*
X105000Y152500D01*
X105000Y156500D02*
X109000Y156500D01*
X109000Y155500D01*
X105000Y155500D01*
X105000Y156500D01*
X105000Y160500D02*
X109000Y160500D01*
X109000Y159500D01*
X105000Y159500D01*
X105000Y160500D01*
X105000Y164500D02*
X109000Y164500D01*
X109000Y163500D01*
X105000Y163500D01*
X105000Y164500D01*
D26*
X105500Y168000D02*
X108500Y168000D01*
X103000Y170500D02*
X103000Y173500D01*
D27*
X99500Y174000D02*
X98500Y174000D01*
X99500Y174000D02*
X99500Y170000D01*
X98500Y170000D01*
X98500Y174000D01*
X98500Y171616D02*
X99500Y171616D01*
X99500Y173232D02*
X98500Y173232D01*
X95500Y174000D02*
X94500Y174000D01*
X95500Y174000D02*
X95500Y170000D01*
X94500Y170000D01*
X94500Y174000D01*
X94500Y171616D02*
X95500Y171616D01*
X95500Y173232D02*
X94500Y173232D01*
X91500Y174000D02*
X90500Y174000D01*
X91500Y174000D02*
X91500Y170000D01*
X90500Y170000D01*
X90500Y174000D01*
X90500Y171616D02*
X91500Y171616D01*
X91500Y173232D02*
X90500Y173232D01*
D26*
X87000Y173500D02*
X87000Y170500D01*
X84500Y168000D02*
X81500Y168000D01*
D27*
X81000Y164500D02*
X85000Y164500D01*
X85000Y163500D01*
X81000Y163500D01*
X81000Y164500D01*
X81000Y160500D02*
X85000Y160500D01*
X85000Y159500D01*
X81000Y159500D01*
X81000Y160500D01*
X81000Y156500D02*
X85000Y156500D01*
X85000Y155500D01*
X81000Y155500D01*
X81000Y156500D01*
X81000Y152500D02*
X85000Y152500D01*
X85000Y151500D01*
X81000Y151500D01*
X81000Y152500D01*
X81000Y148500D02*
X85000Y148500D01*
X85000Y147500D01*
X81000Y147500D01*
X81000Y148500D01*
X81000Y144500D02*
X85000Y144500D01*
X85000Y143500D01*
X81000Y143500D01*
X81000Y144500D01*
X81000Y140500D02*
X85000Y140500D01*
X85000Y139500D01*
X81000Y139500D01*
X81000Y140500D01*
X81000Y136500D02*
X85000Y136500D01*
X85000Y135500D01*
X81000Y135500D01*
X81000Y136500D01*
D26*
X81500Y132000D02*
X84500Y132000D01*
X87000Y129500D02*
X87000Y126500D01*
D27*
X90500Y130000D02*
X91500Y130000D01*
X91500Y126000D01*
X90500Y126000D01*
X90500Y130000D01*
X90500Y127616D02*
X91500Y127616D01*
X91500Y129232D02*
X90500Y129232D01*
X94500Y130000D02*
X95500Y130000D01*
X95500Y126000D01*
X94500Y126000D01*
X94500Y130000D01*
X94500Y127616D02*
X95500Y127616D01*
X95500Y129232D02*
X94500Y129232D01*
X98500Y130000D02*
X99500Y130000D01*
X99500Y126000D01*
X98500Y126000D01*
X98500Y130000D01*
X98500Y127616D02*
X99500Y127616D01*
X99500Y129232D02*
X98500Y129232D01*
D26*
X103000Y129500D02*
X103000Y126500D01*
D28*
X95000Y150000D03*
D29*
X98500Y150000D03*
X91500Y150000D03*
X98500Y138000D03*
X91500Y138000D03*
X98500Y162000D03*
X91500Y162000D03*
D30*
X118996Y214996D02*
X127004Y214996D01*
X118996Y214996D02*
X118996Y218004D01*
X127004Y218004D01*
X127004Y214996D01*
X127004Y216603D02*
X118996Y216603D01*
X118996Y208496D02*
X127004Y208496D01*
X118996Y208496D02*
X118996Y211504D01*
X127004Y211504D01*
X127004Y208496D01*
X127004Y210103D02*
X118996Y210103D01*
X118996Y201996D02*
X127004Y201996D01*
X118996Y201996D02*
X118996Y205004D01*
X127004Y205004D01*
X127004Y201996D01*
X127004Y203603D02*
X118996Y203603D01*
X140996Y201996D02*
X149004Y201996D01*
X140996Y201996D02*
X140996Y205004D01*
X149004Y205004D01*
X149004Y201996D01*
X149004Y203603D02*
X140996Y203603D01*
X140996Y214996D02*
X149004Y214996D01*
X140996Y214996D02*
X140996Y218004D01*
X149004Y218004D01*
X149004Y214996D01*
X149004Y216603D02*
X140996Y216603D01*
D14*
X104881Y201619D02*
X101119Y201619D01*
X101119Y206381D01*
X104881Y206381D01*
X104881Y201619D01*
X104881Y203460D02*
X101119Y203460D01*
X101119Y205301D02*
X104881Y205301D01*
X111119Y201619D02*
X114881Y201619D01*
X111119Y201619D02*
X111119Y206381D01*
X114881Y206381D01*
X114881Y201619D01*
X114881Y203460D02*
X111119Y203460D01*
X111119Y205301D02*
X114881Y205301D01*
X136119Y224619D02*
X139881Y224619D01*
X136119Y224619D02*
X136119Y229381D01*
X139881Y229381D01*
X139881Y224619D01*
X139881Y226460D02*
X136119Y226460D01*
X136119Y228301D02*
X139881Y228301D01*
X146119Y224619D02*
X149881Y224619D01*
X146119Y224619D02*
X146119Y229381D01*
X149881Y229381D01*
X149881Y224619D01*
X149881Y226460D02*
X146119Y226460D01*
X146119Y228301D02*
X149881Y228301D01*
D13*
X147190Y152940D02*
X143810Y152940D01*
X147190Y152940D02*
X147190Y148060D01*
X143810Y148060D01*
X143810Y152940D01*
X143810Y149789D02*
X147190Y149789D01*
X147190Y151518D02*
X143810Y151518D01*
X138190Y152940D02*
X134810Y152940D01*
X138190Y152940D02*
X138190Y148060D01*
X134810Y148060D01*
X134810Y152940D01*
X134810Y149789D02*
X138190Y149789D01*
X138190Y151518D02*
X134810Y151518D01*
X143810Y143940D02*
X147190Y143940D01*
X147190Y139060D01*
X143810Y139060D01*
X143810Y143940D01*
X143810Y140789D02*
X147190Y140789D01*
X147190Y142518D02*
X143810Y142518D01*
X138190Y143940D02*
X134810Y143940D01*
X138190Y143940D02*
X138190Y139060D01*
X134810Y139060D01*
X134810Y143940D01*
X134810Y140789D02*
X138190Y140789D01*
X138190Y142518D02*
X134810Y142518D01*
X161810Y157940D02*
X165190Y157940D01*
X165190Y153060D01*
X161810Y153060D01*
X161810Y157940D01*
X161810Y154789D02*
X165190Y154789D01*
X165190Y156518D02*
X161810Y156518D01*
X156190Y157940D02*
X152810Y157940D01*
X156190Y157940D02*
X156190Y153060D01*
X152810Y153060D01*
X152810Y157940D01*
X152810Y154789D02*
X156190Y154789D01*
X156190Y156518D02*
X152810Y156518D01*
X161810Y166940D02*
X165190Y166940D01*
X165190Y162060D01*
X161810Y162060D01*
X161810Y166940D01*
X161810Y163789D02*
X165190Y163789D01*
X165190Y165518D02*
X161810Y165518D01*
X156190Y166940D02*
X152810Y166940D01*
X156190Y166940D02*
X156190Y162060D01*
X152810Y162060D01*
X152810Y166940D01*
X152810Y163789D02*
X156190Y163789D01*
X156190Y165518D02*
X152810Y165518D01*
D31*
X179000Y229000D03*
D32*
X98745Y93745D02*
X71255Y93745D01*
X98745Y93745D02*
X98745Y86255D01*
X71255Y86255D01*
X71255Y93745D01*
X71255Y89304D02*
X98745Y89304D01*
X98745Y92353D02*
X71255Y92353D01*
D33*
X68444Y81194D02*
X68444Y75806D01*
X66556Y75806D01*
X66556Y81194D01*
X68444Y81194D01*
X68444Y77052D02*
X66556Y77052D01*
X66556Y78298D02*
X68444Y78298D01*
X68444Y79544D02*
X66556Y79544D01*
X66556Y80790D02*
X68444Y80790D01*
X66194Y88444D02*
X60806Y88444D01*
X66194Y88444D02*
X66194Y86556D01*
X60806Y86556D01*
X60806Y88444D01*
X60806Y87802D02*
X66194Y87802D01*
X73444Y81194D02*
X73444Y75806D01*
X71556Y75806D01*
X71556Y81194D01*
X73444Y81194D01*
X73444Y77052D02*
X71556Y77052D01*
X71556Y78298D02*
X73444Y78298D01*
X73444Y79544D02*
X71556Y79544D01*
X71556Y80790D02*
X73444Y80790D01*
X78444Y81194D02*
X78444Y75806D01*
X76556Y75806D01*
X76556Y81194D01*
X78444Y81194D01*
X78444Y77052D02*
X76556Y77052D01*
X76556Y78298D02*
X78444Y78298D01*
X78444Y79544D02*
X76556Y79544D01*
X76556Y80790D02*
X78444Y80790D01*
X83444Y81194D02*
X83444Y75806D01*
X81556Y75806D01*
X81556Y81194D01*
X83444Y81194D01*
X83444Y77052D02*
X81556Y77052D01*
X81556Y78298D02*
X83444Y78298D01*
X83444Y79544D02*
X81556Y79544D01*
X81556Y80790D02*
X83444Y80790D01*
X88444Y81194D02*
X88444Y75806D01*
X86556Y75806D01*
X86556Y81194D01*
X88444Y81194D01*
X88444Y77052D02*
X86556Y77052D01*
X86556Y78298D02*
X88444Y78298D01*
X88444Y79544D02*
X86556Y79544D01*
X86556Y80790D02*
X88444Y80790D01*
X93444Y81194D02*
X93444Y75806D01*
X91556Y75806D01*
X91556Y81194D01*
X93444Y81194D01*
X93444Y77052D02*
X91556Y77052D01*
X91556Y78298D02*
X93444Y78298D01*
X93444Y79544D02*
X91556Y79544D01*
X91556Y80790D02*
X93444Y80790D01*
X98444Y81194D02*
X98444Y75806D01*
X96556Y75806D01*
X96556Y81194D01*
X98444Y81194D01*
X98444Y77052D02*
X96556Y77052D01*
X96556Y78298D02*
X98444Y78298D01*
X98444Y79544D02*
X96556Y79544D01*
X96556Y80790D02*
X98444Y80790D01*
X103444Y81194D02*
X103444Y75806D01*
X101556Y75806D01*
X101556Y81194D01*
X103444Y81194D01*
X103444Y77052D02*
X101556Y77052D01*
X101556Y78298D02*
X103444Y78298D01*
X103444Y79544D02*
X101556Y79544D01*
X101556Y80790D02*
X103444Y80790D01*
X103806Y88444D02*
X109194Y88444D01*
X109194Y86556D01*
X103806Y86556D01*
X103806Y88444D01*
X103806Y87802D02*
X109194Y87802D01*
X109194Y93444D02*
X103806Y93444D01*
X109194Y93444D02*
X109194Y91556D01*
X103806Y91556D01*
X103806Y93444D01*
X103806Y92802D02*
X109194Y92802D01*
X101556Y98806D02*
X101556Y104194D01*
X103444Y104194D01*
X103444Y98806D01*
X101556Y98806D01*
X101556Y100052D02*
X103444Y100052D01*
X103444Y101298D02*
X101556Y101298D01*
X101556Y102544D02*
X103444Y102544D01*
X103444Y103790D02*
X101556Y103790D01*
X96556Y104194D02*
X96556Y98806D01*
X96556Y104194D02*
X98444Y104194D01*
X98444Y98806D01*
X96556Y98806D01*
X96556Y100052D02*
X98444Y100052D01*
X98444Y101298D02*
X96556Y101298D01*
X96556Y102544D02*
X98444Y102544D01*
X98444Y103790D02*
X96556Y103790D01*
X91556Y104194D02*
X91556Y98806D01*
X91556Y104194D02*
X93444Y104194D01*
X93444Y98806D01*
X91556Y98806D01*
X91556Y100052D02*
X93444Y100052D01*
X93444Y101298D02*
X91556Y101298D01*
X91556Y102544D02*
X93444Y102544D01*
X93444Y103790D02*
X91556Y103790D01*
X86556Y104194D02*
X86556Y98806D01*
X86556Y104194D02*
X88444Y104194D01*
X88444Y98806D01*
X86556Y98806D01*
X86556Y100052D02*
X88444Y100052D01*
X88444Y101298D02*
X86556Y101298D01*
X86556Y102544D02*
X88444Y102544D01*
X88444Y103790D02*
X86556Y103790D01*
X81556Y104194D02*
X81556Y98806D01*
X81556Y104194D02*
X83444Y104194D01*
X83444Y98806D01*
X81556Y98806D01*
X81556Y100052D02*
X83444Y100052D01*
X83444Y101298D02*
X81556Y101298D01*
X81556Y102544D02*
X83444Y102544D01*
X83444Y103790D02*
X81556Y103790D01*
X76556Y104194D02*
X76556Y98806D01*
X76556Y104194D02*
X78444Y104194D01*
X78444Y98806D01*
X76556Y98806D01*
X76556Y100052D02*
X78444Y100052D01*
X78444Y101298D02*
X76556Y101298D01*
X76556Y102544D02*
X78444Y102544D01*
X78444Y103790D02*
X76556Y103790D01*
X71556Y104194D02*
X71556Y98806D01*
X71556Y104194D02*
X73444Y104194D01*
X73444Y98806D01*
X71556Y98806D01*
X71556Y100052D02*
X73444Y100052D01*
X73444Y101298D02*
X71556Y101298D01*
X71556Y102544D02*
X73444Y102544D01*
X73444Y103790D02*
X71556Y103790D01*
X66556Y104194D02*
X66556Y98806D01*
X66556Y104194D02*
X68444Y104194D01*
X68444Y98806D01*
X66556Y98806D01*
X66556Y100052D02*
X68444Y100052D01*
X68444Y101298D02*
X66556Y101298D01*
X66556Y102544D02*
X68444Y102544D01*
X68444Y103790D02*
X66556Y103790D01*
X66194Y91556D02*
X60806Y91556D01*
X60806Y93444D01*
X66194Y93444D01*
X66194Y91556D01*
X66194Y92802D02*
X60806Y92802D01*
D34*
X85000Y90000D03*
X73000Y90000D03*
X97000Y90000D03*
D13*
X84560Y65190D02*
X84560Y61810D01*
X84560Y65190D02*
X89440Y65190D01*
X89440Y61810D01*
X84560Y61810D01*
X84560Y63539D02*
X89440Y63539D01*
X84560Y56190D02*
X84560Y52810D01*
X84560Y56190D02*
X89440Y56190D01*
X89440Y52810D01*
X84560Y52810D01*
X84560Y54539D02*
X89440Y54539D01*
X271810Y74060D02*
X275190Y74060D01*
X271810Y74060D02*
X271810Y78940D01*
X275190Y78940D01*
X275190Y74060D01*
X275190Y75789D02*
X271810Y75789D01*
X271810Y77518D02*
X275190Y77518D01*
X280810Y74060D02*
X284190Y74060D01*
X280810Y74060D02*
X280810Y78940D01*
X284190Y78940D01*
X284190Y74060D01*
X284190Y75789D02*
X280810Y75789D01*
X280810Y77518D02*
X284190Y77518D01*
D14*
X259881Y106381D02*
X256119Y106381D01*
X259881Y106381D02*
X259881Y101619D01*
X256119Y101619D01*
X256119Y106381D01*
X256119Y103460D02*
X259881Y103460D01*
X259881Y105301D02*
X256119Y105301D01*
X249881Y106381D02*
X246119Y106381D01*
X249881Y106381D02*
X249881Y101619D01*
X246119Y101619D01*
X246119Y106381D01*
X246119Y103460D02*
X249881Y103460D01*
X249881Y105301D02*
X246119Y105301D01*
X54881Y81381D02*
X51119Y81381D01*
X54881Y81381D02*
X54881Y76619D01*
X51119Y76619D01*
X51119Y81381D01*
X51119Y78460D02*
X54881Y78460D01*
X54881Y80301D02*
X51119Y80301D01*
X44881Y81381D02*
X41119Y81381D01*
X44881Y81381D02*
X44881Y76619D01*
X41119Y76619D01*
X41119Y81381D01*
X41119Y78460D02*
X44881Y78460D01*
X44881Y80301D02*
X41119Y80301D01*
D13*
X66810Y142440D02*
X70190Y142440D01*
X70190Y137560D01*
X66810Y137560D01*
X66810Y142440D01*
X66810Y139289D02*
X70190Y139289D01*
X70190Y141018D02*
X66810Y141018D01*
X61190Y142440D02*
X57810Y142440D01*
X61190Y142440D02*
X61190Y137560D01*
X57810Y137560D01*
X57810Y142440D01*
X57810Y139289D02*
X61190Y139289D01*
X61190Y141018D02*
X57810Y141018D01*
D33*
X226556Y104194D02*
X226556Y99306D01*
X226556Y104194D02*
X228444Y104194D01*
X228444Y99306D01*
X226556Y99306D01*
X226556Y100552D02*
X228444Y100552D01*
X228444Y101798D02*
X226556Y101798D01*
X226556Y103044D02*
X228444Y103044D01*
D35*
X221744Y104256D02*
X221744Y99244D01*
X221744Y104256D02*
X223256Y104256D01*
X223256Y99244D01*
X221744Y99244D01*
X221744Y100373D02*
X223256Y100373D01*
X223256Y101502D02*
X221744Y101502D01*
X221744Y102631D02*
X223256Y102631D01*
X223256Y103760D02*
X221744Y103760D01*
X216744Y104256D02*
X216744Y99244D01*
X216744Y104256D02*
X218256Y104256D01*
X218256Y99244D01*
X216744Y99244D01*
X216744Y100373D02*
X218256Y100373D01*
X218256Y101502D02*
X216744Y101502D01*
X216744Y102631D02*
X218256Y102631D01*
X218256Y103760D02*
X216744Y103760D01*
D33*
X211556Y104194D02*
X211556Y99306D01*
X211556Y104194D02*
X213444Y104194D01*
X213444Y99306D01*
X211556Y99306D01*
X211556Y100552D02*
X213444Y100552D01*
X213444Y101798D02*
X211556Y101798D01*
X211556Y103044D02*
X213444Y103044D01*
X213444Y90694D02*
X213444Y85806D01*
X211556Y85806D01*
X211556Y90694D01*
X213444Y90694D01*
X213444Y87052D02*
X211556Y87052D01*
X211556Y88298D02*
X213444Y88298D01*
X213444Y89544D02*
X211556Y89544D01*
D35*
X218256Y90756D02*
X218256Y85744D01*
X216744Y85744D01*
X216744Y90756D01*
X218256Y90756D01*
X218256Y86873D02*
X216744Y86873D01*
X216744Y88002D02*
X218256Y88002D01*
X218256Y89131D02*
X216744Y89131D01*
X216744Y90260D02*
X218256Y90260D01*
X223256Y90756D02*
X223256Y85744D01*
X221744Y85744D01*
X221744Y90756D01*
X223256Y90756D01*
X223256Y86873D02*
X221744Y86873D01*
X221744Y88002D02*
X223256Y88002D01*
X223256Y89131D02*
X221744Y89131D01*
X221744Y90260D02*
X223256Y90260D01*
D33*
X228444Y90694D02*
X228444Y85806D01*
X226556Y85806D01*
X226556Y90694D01*
X228444Y90694D01*
X228444Y87052D02*
X226556Y87052D01*
X226556Y88298D02*
X228444Y88298D01*
X228444Y89544D02*
X226556Y89544D01*
D15*
X213629Y93871D02*
X208371Y93871D01*
X208371Y96129D01*
X213629Y96129D01*
X213629Y93871D01*
X213629Y95242D02*
X208371Y95242D01*
X226371Y93871D02*
X231629Y93871D01*
X226371Y93871D02*
X226371Y96129D01*
X231629Y96129D01*
X231629Y93871D01*
X231629Y95242D02*
X226371Y95242D01*
D33*
X278306Y88444D02*
X283194Y88444D01*
X283194Y86556D01*
X278306Y86556D01*
X278306Y88444D01*
X278306Y87802D02*
X283194Y87802D01*
D35*
X283256Y93256D02*
X278244Y93256D01*
X283256Y93256D02*
X283256Y91744D01*
X278244Y91744D01*
X278244Y93256D01*
X278244Y92873D02*
X283256Y92873D01*
X283256Y98256D02*
X278244Y98256D01*
X283256Y98256D02*
X283256Y96744D01*
X278244Y96744D01*
X278244Y98256D01*
X278244Y97873D02*
X283256Y97873D01*
D33*
X283194Y103444D02*
X278306Y103444D01*
X283194Y103444D02*
X283194Y101556D01*
X278306Y101556D01*
X278306Y103444D01*
X278306Y102802D02*
X283194Y102802D01*
X269694Y101556D02*
X264806Y101556D01*
X264806Y103444D01*
X269694Y103444D01*
X269694Y101556D01*
X269694Y102802D02*
X264806Y102802D01*
D35*
X264744Y96744D02*
X269756Y96744D01*
X264744Y96744D02*
X264744Y98256D01*
X269756Y98256D01*
X269756Y96744D01*
X269756Y97873D02*
X264744Y97873D01*
X264744Y91744D02*
X269756Y91744D01*
X264744Y91744D02*
X264744Y93256D01*
X269756Y93256D01*
X269756Y91744D01*
X269756Y92873D02*
X264744Y92873D01*
D33*
X264806Y86556D02*
X269694Y86556D01*
X264806Y86556D02*
X264806Y88444D01*
X269694Y88444D01*
X269694Y86556D01*
X269694Y87802D02*
X264806Y87802D01*
D15*
X272871Y101371D02*
X272871Y106629D01*
X275129Y106629D01*
X275129Y101371D01*
X272871Y101371D01*
X272871Y102742D02*
X275129Y102742D01*
X275129Y104113D02*
X272871Y104113D01*
X272871Y105484D02*
X275129Y105484D01*
X272871Y88629D02*
X272871Y83371D01*
X272871Y88629D02*
X275129Y88629D01*
X275129Y83371D01*
X272871Y83371D01*
X272871Y84742D02*
X275129Y84742D01*
X275129Y86113D02*
X272871Y86113D01*
X272871Y87484D02*
X275129Y87484D01*
D13*
X236560Y95810D02*
X236560Y99190D01*
X241440Y99190D01*
X241440Y95810D01*
X236560Y95810D01*
X236560Y97539D02*
X241440Y97539D01*
X236560Y90190D02*
X236560Y86810D01*
X236560Y90190D02*
X241440Y90190D01*
X241440Y86810D01*
X236560Y86810D01*
X236560Y88539D02*
X241440Y88539D01*
D14*
X200619Y88881D02*
X200619Y85119D01*
X200619Y88881D02*
X205381Y88881D01*
X205381Y85119D01*
X200619Y85119D01*
X200619Y86960D02*
X205381Y86960D01*
X205381Y88801D02*
X200619Y88801D01*
X200619Y78881D02*
X200619Y75119D01*
X200619Y78881D02*
X205381Y78881D01*
X205381Y75119D01*
X200619Y75119D01*
X200619Y76960D02*
X205381Y76960D01*
X205381Y78801D02*
X200619Y78801D01*
D15*
X161371Y78071D02*
X161371Y82129D01*
X163629Y82129D01*
X163629Y78071D01*
X161371Y78071D01*
X161371Y79442D02*
X163629Y79442D01*
X163629Y80813D02*
X161371Y80813D01*
X161371Y75929D02*
X161371Y71871D01*
X161371Y75929D02*
X163629Y75929D01*
X163629Y71871D01*
X161371Y71871D01*
X161371Y73242D02*
X163629Y73242D01*
X163629Y74613D02*
X161371Y74613D01*
X156371Y78071D02*
X156371Y82129D01*
X158629Y82129D01*
X158629Y78071D01*
X156371Y78071D01*
X156371Y79442D02*
X158629Y79442D01*
X158629Y80813D02*
X156371Y80813D01*
X156371Y75929D02*
X156371Y71871D01*
X156371Y75929D02*
X158629Y75929D01*
X158629Y71871D01*
X156371Y71871D01*
X156371Y73242D02*
X158629Y73242D01*
X158629Y74613D02*
X156371Y74613D01*
D30*
X150996Y77496D02*
X150996Y82004D01*
X154004Y82004D01*
X154004Y77496D01*
X150996Y77496D01*
X150996Y79103D02*
X154004Y79103D01*
X154004Y80710D02*
X150996Y80710D01*
X150996Y75204D02*
X150996Y71996D01*
X150996Y75204D02*
X154004Y75204D01*
X154004Y71996D01*
X150996Y71996D01*
X150996Y73603D02*
X154004Y73603D01*
D15*
X191371Y78071D02*
X191371Y82129D01*
X193629Y82129D01*
X193629Y78071D01*
X191371Y78071D01*
X191371Y79442D02*
X193629Y79442D01*
X193629Y80813D02*
X191371Y80813D01*
X191371Y75929D02*
X191371Y71871D01*
X191371Y75929D02*
X193629Y75929D01*
X193629Y71871D01*
X191371Y71871D01*
X191371Y73242D02*
X193629Y73242D01*
X193629Y74613D02*
X191371Y74613D01*
X186371Y78071D02*
X186371Y82129D01*
X188629Y82129D01*
X188629Y78071D01*
X186371Y78071D01*
X186371Y79442D02*
X188629Y79442D01*
X188629Y80813D02*
X186371Y80813D01*
X186371Y75929D02*
X186371Y71871D01*
X186371Y75929D02*
X188629Y75929D01*
X188629Y71871D01*
X186371Y71871D01*
X186371Y73242D02*
X188629Y73242D01*
X188629Y74613D02*
X186371Y74613D01*
D30*
X180996Y77496D02*
X180996Y82004D01*
X184004Y82004D01*
X184004Y77496D01*
X180996Y77496D01*
X180996Y79103D02*
X184004Y79103D01*
X184004Y80710D02*
X180996Y80710D01*
X180996Y75204D02*
X180996Y71996D01*
X180996Y75204D02*
X184004Y75204D01*
X184004Y71996D01*
X180996Y71996D01*
X180996Y73603D02*
X184004Y73603D01*
D15*
X221371Y78071D02*
X221371Y82129D01*
X223629Y82129D01*
X223629Y78071D01*
X221371Y78071D01*
X221371Y79442D02*
X223629Y79442D01*
X223629Y80813D02*
X221371Y80813D01*
X221371Y75929D02*
X221371Y71871D01*
X221371Y75929D02*
X223629Y75929D01*
X223629Y71871D01*
X221371Y71871D01*
X221371Y73242D02*
X223629Y73242D01*
X223629Y74613D02*
X221371Y74613D01*
X216371Y78071D02*
X216371Y82129D01*
X218629Y82129D01*
X218629Y78071D01*
X216371Y78071D01*
X216371Y79442D02*
X218629Y79442D01*
X218629Y80813D02*
X216371Y80813D01*
X216371Y75929D02*
X216371Y71871D01*
X216371Y75929D02*
X218629Y75929D01*
X218629Y71871D01*
X216371Y71871D01*
X216371Y73242D02*
X218629Y73242D01*
X218629Y74613D02*
X216371Y74613D01*
D30*
X210996Y77496D02*
X210996Y82004D01*
X214004Y82004D01*
X214004Y77496D01*
X210996Y77496D01*
X210996Y79103D02*
X214004Y79103D01*
X214004Y80710D02*
X210996Y80710D01*
X210996Y75204D02*
X210996Y71996D01*
X210996Y75204D02*
X214004Y75204D01*
X214004Y71996D01*
X210996Y71996D01*
X210996Y73603D02*
X214004Y73603D01*
D15*
X251371Y78071D02*
X251371Y82129D01*
X253629Y82129D01*
X253629Y78071D01*
X251371Y78071D01*
X251371Y79442D02*
X253629Y79442D01*
X253629Y80813D02*
X251371Y80813D01*
X251371Y75929D02*
X251371Y71871D01*
X251371Y75929D02*
X253629Y75929D01*
X253629Y71871D01*
X251371Y71871D01*
X251371Y73242D02*
X253629Y73242D01*
X253629Y74613D02*
X251371Y74613D01*
X246371Y78071D02*
X246371Y82129D01*
X248629Y82129D01*
X248629Y78071D01*
X246371Y78071D01*
X246371Y79442D02*
X248629Y79442D01*
X248629Y80813D02*
X246371Y80813D01*
X246371Y75929D02*
X246371Y71871D01*
X246371Y75929D02*
X248629Y75929D01*
X248629Y71871D01*
X246371Y71871D01*
X246371Y73242D02*
X248629Y73242D01*
X248629Y74613D02*
X246371Y74613D01*
D30*
X240996Y77496D02*
X240996Y82004D01*
X244004Y82004D01*
X244004Y77496D01*
X240996Y77496D01*
X240996Y79103D02*
X244004Y79103D01*
X244004Y80710D02*
X240996Y80710D01*
X240996Y75204D02*
X240996Y71996D01*
X240996Y75204D02*
X244004Y75204D01*
X244004Y71996D01*
X240996Y71996D01*
X240996Y73603D02*
X244004Y73603D01*
D36*
X321009Y76491D02*
X321009Y85509D01*
X321009Y76491D02*
X311991Y76491D01*
X311991Y85509D01*
X321009Y85509D01*
X321009Y79990D02*
X311991Y79990D01*
X311991Y83489D02*
X321009Y83489D01*
X350009Y85509D02*
X350009Y76491D01*
X340991Y76491D01*
X340991Y85509D01*
X350009Y85509D01*
X350009Y79990D02*
X340991Y79990D01*
X340991Y83489D02*
X350009Y83489D01*
D15*
X201129Y149629D02*
X197071Y149629D01*
X201129Y149629D02*
X201129Y147371D01*
X197071Y147371D01*
X197071Y149629D01*
X197071Y148742D02*
X201129Y148742D01*
X194929Y149629D02*
X190871Y149629D01*
X194929Y149629D02*
X194929Y147371D01*
X190871Y147371D01*
X190871Y149629D01*
X190871Y148742D02*
X194929Y148742D01*
X197071Y154629D02*
X201129Y154629D01*
X201129Y152371D01*
X197071Y152371D01*
X197071Y154629D01*
X197071Y153742D02*
X201129Y153742D01*
X194929Y154629D02*
X190871Y154629D01*
X194929Y154629D02*
X194929Y152371D01*
X190871Y152371D01*
X190871Y154629D01*
X190871Y153742D02*
X194929Y153742D01*
D30*
X196496Y160004D02*
X201004Y160004D01*
X201004Y156996D01*
X196496Y156996D01*
X196496Y160004D01*
X196496Y158603D02*
X201004Y158603D01*
X194204Y160004D02*
X190996Y160004D01*
X194204Y160004D02*
X194204Y156996D01*
X190996Y156996D01*
X190996Y160004D01*
X190996Y158603D02*
X194204Y158603D01*
D15*
X194929Y192871D02*
X190871Y192871D01*
X190871Y195129D01*
X194929Y195129D01*
X194929Y192871D01*
X194929Y194242D02*
X190871Y194242D01*
X197071Y192871D02*
X201129Y192871D01*
X197071Y192871D02*
X197071Y195129D01*
X201129Y195129D01*
X201129Y192871D01*
X201129Y194242D02*
X197071Y194242D01*
X194929Y187871D02*
X190871Y187871D01*
X190871Y190129D01*
X194929Y190129D01*
X194929Y187871D01*
X194929Y189242D02*
X190871Y189242D01*
X197071Y187871D02*
X201129Y187871D01*
X197071Y187871D02*
X197071Y190129D01*
X201129Y190129D01*
X201129Y187871D01*
X201129Y189242D02*
X197071Y189242D01*
D30*
X195504Y182496D02*
X190996Y182496D01*
X190996Y185504D01*
X195504Y185504D01*
X195504Y182496D01*
X195504Y184103D02*
X190996Y184103D01*
X197796Y182496D02*
X201004Y182496D01*
X197796Y182496D02*
X197796Y185504D01*
X201004Y185504D01*
X201004Y182496D01*
X201004Y184103D02*
X197796Y184103D01*
D15*
X268629Y144929D02*
X268629Y140871D01*
X266371Y140871D01*
X266371Y144929D01*
X268629Y144929D01*
X268629Y142242D02*
X266371Y142242D01*
X266371Y143613D02*
X268629Y143613D01*
X268629Y147071D02*
X268629Y151129D01*
X268629Y147071D02*
X266371Y147071D01*
X266371Y151129D01*
X268629Y151129D01*
X268629Y148442D02*
X266371Y148442D01*
X266371Y149813D02*
X268629Y149813D01*
X273629Y144929D02*
X273629Y140871D01*
X271371Y140871D01*
X271371Y144929D01*
X273629Y144929D01*
X273629Y142242D02*
X271371Y142242D01*
X271371Y143613D02*
X273629Y143613D01*
X273629Y147071D02*
X273629Y151129D01*
X273629Y147071D02*
X271371Y147071D01*
X271371Y151129D01*
X273629Y151129D01*
X273629Y148442D02*
X271371Y148442D01*
X271371Y149813D02*
X273629Y149813D01*
D30*
X279004Y145504D02*
X279004Y140996D01*
X275996Y140996D01*
X275996Y145504D01*
X279004Y145504D01*
X279004Y142603D02*
X275996Y142603D01*
X275996Y144210D02*
X279004Y144210D01*
X279004Y147796D02*
X279004Y151004D01*
X279004Y147796D02*
X275996Y147796D01*
X275996Y151004D01*
X279004Y151004D01*
X279004Y149403D02*
X275996Y149403D01*
D15*
X286129Y133929D02*
X286129Y129871D01*
X283871Y129871D01*
X283871Y133929D01*
X286129Y133929D01*
X286129Y131242D02*
X283871Y131242D01*
X283871Y132613D02*
X286129Y132613D01*
X286129Y136071D02*
X286129Y140129D01*
X286129Y136071D02*
X283871Y136071D01*
X283871Y140129D01*
X286129Y140129D01*
X286129Y137442D02*
X283871Y137442D01*
X283871Y138813D02*
X286129Y138813D01*
X291129Y133929D02*
X291129Y129871D01*
X288871Y129871D01*
X288871Y133929D01*
X291129Y133929D01*
X291129Y131242D02*
X288871Y131242D01*
X288871Y132613D02*
X291129Y132613D01*
X291129Y136071D02*
X291129Y140129D01*
X291129Y136071D02*
X288871Y136071D01*
X288871Y140129D01*
X291129Y140129D01*
X291129Y137442D02*
X288871Y137442D01*
X288871Y138813D02*
X291129Y138813D01*
D30*
X296504Y134504D02*
X296504Y129996D01*
X293496Y129996D01*
X293496Y134504D01*
X296504Y134504D01*
X296504Y131603D02*
X293496Y131603D01*
X293496Y133210D02*
X296504Y133210D01*
X296504Y136796D02*
X296504Y140004D01*
X296504Y136796D02*
X293496Y136796D01*
X293496Y140004D01*
X296504Y140004D01*
X296504Y138403D02*
X293496Y138403D01*
D15*
X305071Y205129D02*
X309129Y205129D01*
X309129Y202871D01*
X305071Y202871D01*
X305071Y205129D01*
X305071Y204242D02*
X309129Y204242D01*
X302929Y205129D02*
X298871Y205129D01*
X302929Y205129D02*
X302929Y202871D01*
X298871Y202871D01*
X298871Y205129D01*
X298871Y204242D02*
X302929Y204242D01*
X305071Y210129D02*
X309129Y210129D01*
X309129Y207871D01*
X305071Y207871D01*
X305071Y210129D01*
X305071Y209242D02*
X309129Y209242D01*
X302929Y210129D02*
X298871Y210129D01*
X302929Y210129D02*
X302929Y207871D01*
X298871Y207871D01*
X298871Y210129D01*
X298871Y209242D02*
X302929Y209242D01*
D30*
X304496Y215504D02*
X309004Y215504D01*
X309004Y212496D01*
X304496Y212496D01*
X304496Y215504D01*
X304496Y214103D02*
X309004Y214103D01*
X302204Y215504D02*
X298996Y215504D01*
X302204Y215504D02*
X302204Y212496D01*
X298996Y212496D01*
X298996Y215504D01*
X298996Y214103D02*
X302204Y214103D01*
D15*
X302929Y193871D02*
X298871Y193871D01*
X298871Y196129D01*
X302929Y196129D01*
X302929Y193871D01*
X302929Y195242D02*
X298871Y195242D01*
X305071Y193871D02*
X309129Y193871D01*
X305071Y193871D02*
X305071Y196129D01*
X309129Y196129D01*
X309129Y193871D01*
X309129Y195242D02*
X305071Y195242D01*
X302929Y188871D02*
X298871Y188871D01*
X298871Y191129D01*
X302929Y191129D01*
X302929Y188871D01*
X302929Y190242D02*
X298871Y190242D01*
X305071Y188871D02*
X309129Y188871D01*
X305071Y188871D02*
X305071Y191129D01*
X309129Y191129D01*
X309129Y188871D01*
X309129Y190242D02*
X305071Y190242D01*
D30*
X303504Y183496D02*
X298996Y183496D01*
X298996Y186504D01*
X303504Y186504D01*
X303504Y183496D01*
X303504Y185103D02*
X298996Y185103D01*
X305796Y183496D02*
X309004Y183496D01*
X305796Y183496D02*
X305796Y186504D01*
X309004Y186504D01*
X309004Y183496D01*
X309004Y185103D02*
X305796Y185103D01*
D15*
X194929Y210871D02*
X190871Y210871D01*
X190871Y213129D01*
X194929Y213129D01*
X194929Y210871D01*
X194929Y212242D02*
X190871Y212242D01*
X197071Y210871D02*
X201129Y210871D01*
X197071Y210871D02*
X197071Y213129D01*
X201129Y213129D01*
X201129Y210871D01*
X201129Y212242D02*
X197071Y212242D01*
X194929Y205871D02*
X190871Y205871D01*
X190871Y208129D01*
X194929Y208129D01*
X194929Y205871D01*
X194929Y207242D02*
X190871Y207242D01*
X197071Y205871D02*
X201129Y205871D01*
X197071Y205871D02*
X197071Y208129D01*
X201129Y208129D01*
X201129Y205871D01*
X201129Y207242D02*
X197071Y207242D01*
D30*
X195504Y200496D02*
X190996Y200496D01*
X190996Y203504D01*
X195504Y203504D01*
X195504Y200496D01*
X195504Y202103D02*
X190996Y202103D01*
X197796Y200496D02*
X201004Y200496D01*
X197796Y200496D02*
X197796Y203504D01*
X201004Y203504D01*
X201004Y200496D01*
X201004Y202103D02*
X197796Y202103D01*
D14*
X61881Y189381D02*
X58119Y189381D01*
X61881Y189381D02*
X61881Y184619D01*
X58119Y184619D01*
X58119Y189381D01*
X58119Y186460D02*
X61881Y186460D01*
X61881Y188301D02*
X58119Y188301D01*
X51881Y189381D02*
X48119Y189381D01*
X51881Y189381D02*
X51881Y184619D01*
X48119Y184619D01*
X48119Y189381D01*
X48119Y186460D02*
X51881Y186460D01*
X51881Y188301D02*
X48119Y188301D01*
D13*
X154560Y220810D02*
X154560Y224190D01*
X159440Y224190D01*
X159440Y220810D01*
X154560Y220810D01*
X154560Y222539D02*
X159440Y222539D01*
X154560Y215190D02*
X154560Y211810D01*
X154560Y215190D02*
X159440Y215190D01*
X159440Y211810D01*
X154560Y211810D01*
X154560Y213539D02*
X159440Y213539D01*
M02*
