G04 EAGLE Gerber RS-274X export*
G75*
%MOMM*%
%FSLAX34Y34*%
%LPD*%
%IN5_Layer_2*%
%IPPOS*%
%AMOC8*
5,1,8,0,0,1.08239X$1,22.5*%
G01*
%ADD10C,0.152400*%
%ADD11C,0.800000*%
%ADD12C,0.500000*%
%ADD13C,0.550000*%
%ADD14C,0.400000*%
%ADD15C,0.350000*%
%ADD16C,0.250000*%

G36*
X255872Y4035D02*
X255872Y4035D01*
X255873Y4035D01*
X263159Y4179D01*
X263160Y4180D01*
X263162Y4180D01*
X263162Y4182D01*
X263164Y4183D01*
X263162Y4185D01*
X263162Y4188D01*
X261005Y6345D01*
X261005Y9655D01*
X263345Y11995D01*
X266655Y11995D01*
X268995Y9655D01*
X268995Y6345D01*
X266965Y4315D01*
X266964Y4313D01*
X266963Y4311D01*
X266964Y4310D01*
X266964Y4308D01*
X266967Y4308D01*
X266968Y4306D01*
X271505Y4467D01*
X272804Y4534D01*
X272805Y4535D01*
X272807Y4535D01*
X272807Y4537D01*
X272809Y4539D01*
X272807Y4541D01*
X272807Y4543D01*
X271005Y6345D01*
X271005Y9655D01*
X273345Y11995D01*
X276655Y11995D01*
X278995Y9655D01*
X278995Y6345D01*
X277431Y4781D01*
X277431Y4779D01*
X277430Y4778D01*
X277431Y4777D01*
X277431Y4775D01*
X277433Y4774D01*
X277435Y4773D01*
X279293Y4868D01*
X283206Y5133D01*
X283207Y5134D01*
X283209Y5134D01*
X283209Y5135D01*
X283210Y5137D01*
X283209Y5139D01*
X283209Y5141D01*
X281005Y7345D01*
X281005Y10655D01*
X283345Y12995D01*
X286655Y12995D01*
X288995Y10655D01*
X288995Y7345D01*
X287051Y5401D01*
X287051Y5399D01*
X287049Y5398D01*
X287051Y5396D01*
X287050Y5394D01*
X287053Y5394D01*
X287055Y5392D01*
X292491Y5847D01*
X292492Y5848D01*
X292494Y5848D01*
X292494Y5850D01*
X292496Y5852D01*
X292494Y5853D01*
X292494Y5856D01*
X291005Y7345D01*
X291005Y10655D01*
X293345Y12995D01*
X296655Y12995D01*
X298995Y10655D01*
X298995Y7345D01*
X298022Y6372D01*
X298022Y6370D01*
X298021Y6370D01*
X298022Y6370D01*
X298020Y6368D01*
X298021Y6367D01*
X298021Y6365D01*
X298024Y6365D01*
X298026Y6363D01*
X302448Y6805D01*
X310069Y7693D01*
X317631Y8701D01*
X325124Y9827D01*
X332539Y11071D01*
X339871Y12431D01*
X347111Y13905D01*
X354254Y15493D01*
X361289Y17192D01*
X368213Y19001D01*
X375016Y20917D01*
X381690Y22939D01*
X388232Y25064D01*
X394633Y27290D01*
X400886Y29615D01*
X406985Y32036D01*
X412924Y34550D01*
X418698Y37155D01*
X424299Y39847D01*
X429724Y42624D01*
X434963Y45482D01*
X440015Y48418D01*
X444871Y51428D01*
X444872Y51428D01*
X449531Y54510D01*
X449531Y54511D01*
X453986Y57659D01*
X458234Y60872D01*
X462268Y64144D01*
X462269Y64144D01*
X466088Y67472D01*
X469687Y70851D01*
X469688Y70851D01*
X473064Y74277D01*
X476216Y77747D01*
X479139Y81256D01*
X481831Y84799D01*
X484291Y88373D01*
X484292Y88373D01*
X486518Y91973D01*
X488511Y95596D01*
X490268Y99236D01*
X490268Y99237D01*
X491790Y102893D01*
X491791Y102893D01*
X493077Y106561D01*
X493077Y106562D01*
X493078Y106562D01*
X494130Y110239D01*
X494947Y113924D01*
X495531Y117614D01*
X495881Y121306D01*
X495998Y125000D01*
X495881Y128694D01*
X495531Y132386D01*
X494947Y136076D01*
X494130Y139761D01*
X493078Y143438D01*
X493077Y143439D01*
X491791Y147107D01*
X491790Y147107D01*
X490268Y150763D01*
X490268Y150764D01*
X488511Y154404D01*
X486518Y158027D01*
X484292Y161627D01*
X484291Y161627D01*
X481831Y165201D01*
X479139Y168744D01*
X476216Y172253D01*
X473064Y175723D01*
X469688Y179149D01*
X469687Y179149D01*
X466088Y182528D01*
X462269Y185856D01*
X462268Y185856D01*
X458234Y189128D01*
X453986Y192341D01*
X449531Y195489D01*
X449531Y195490D01*
X444872Y198572D01*
X440015Y201582D01*
X434963Y204518D01*
X429724Y207376D01*
X424733Y209931D01*
X424730Y209930D01*
X424727Y209931D01*
X424727Y209930D01*
X424726Y209929D01*
X424727Y209926D01*
X424727Y209923D01*
X425995Y208655D01*
X425995Y205345D01*
X423655Y203005D01*
X420345Y203005D01*
X418005Y205345D01*
X418005Y208655D01*
X420345Y210995D01*
X422525Y210995D01*
X422527Y210997D01*
X422529Y210997D01*
X422529Y210999D01*
X422530Y211000D01*
X422528Y211002D01*
X422527Y211005D01*
X418698Y212845D01*
X412924Y215450D01*
X406985Y217964D01*
X400886Y220385D01*
X394633Y222710D01*
X388232Y224936D01*
X381690Y227061D01*
X375016Y229083D01*
X368213Y230999D01*
X361289Y232808D01*
X354254Y234507D01*
X350270Y235393D01*
X350269Y235392D01*
X350266Y235392D01*
X350266Y235390D01*
X350265Y235389D01*
X350266Y235387D01*
X350266Y235384D01*
X351995Y233655D01*
X351995Y230345D01*
X349655Y228005D01*
X346345Y228005D01*
X344005Y230345D01*
X344005Y233655D01*
X346345Y235995D01*
X347514Y235995D01*
X347516Y235997D01*
X347519Y235998D01*
X347519Y235999D01*
X347519Y236000D01*
X347517Y236002D01*
X347515Y236005D01*
X347112Y236095D01*
X347111Y236095D01*
X339871Y237569D01*
X332539Y238929D01*
X325124Y240173D01*
X317632Y241299D01*
X317631Y241299D01*
X310069Y242307D01*
X302448Y243195D01*
X294772Y243962D01*
X290000Y244361D01*
X289995Y244357D01*
X289996Y244357D01*
X289995Y244356D01*
X289995Y234005D01*
X236999Y234005D01*
X236997Y234003D01*
X236995Y234004D01*
X235997Y233005D01*
X230257Y233005D01*
X229230Y232922D01*
X229133Y233004D01*
X229132Y233004D01*
X229131Y233004D01*
X229130Y233005D01*
X229003Y233005D01*
X228275Y233733D01*
X228275Y233734D01*
X227957Y234004D01*
X227955Y234004D01*
X227954Y234005D01*
X210005Y234005D01*
X210005Y244365D01*
X210001Y244369D01*
X210000Y244369D01*
X210000Y244370D01*
X209973Y244367D01*
X209907Y244363D01*
X209841Y244358D01*
X209776Y244353D01*
X209710Y244348D01*
X209644Y244343D01*
X209578Y244338D01*
X209513Y244333D01*
X209447Y244328D01*
X209381Y244323D01*
X209315Y244318D01*
X209250Y244313D01*
X209184Y244308D01*
X209118Y244303D01*
X209081Y244300D01*
X201384Y243594D01*
X193733Y242766D01*
X186141Y241818D01*
X178613Y240751D01*
X171159Y239566D01*
X163783Y238264D01*
X156497Y236846D01*
X149306Y235315D01*
X149305Y235315D01*
X142214Y233671D01*
X142213Y233671D01*
X135234Y231917D01*
X131873Y231005D01*
X131871Y231003D01*
X131869Y231001D01*
X131869Y231000D01*
X131869Y230999D01*
X131872Y230998D01*
X131874Y230995D01*
X132655Y230995D01*
X134995Y228655D01*
X134995Y225345D01*
X132655Y223005D01*
X129345Y223005D01*
X127005Y225345D01*
X127005Y228655D01*
X128404Y230054D01*
X128404Y230056D01*
X128405Y230057D01*
X128405Y230058D01*
X128404Y230059D01*
X128404Y230061D01*
X128402Y230061D01*
X128400Y230062D01*
X128399Y230062D01*
X128371Y230055D01*
X121631Y228085D01*
X115022Y226012D01*
X115022Y226011D01*
X108550Y223835D01*
X102222Y221559D01*
X96045Y219186D01*
X90024Y216718D01*
X84167Y214159D01*
X78479Y211510D01*
X72967Y208775D01*
X72966Y208775D01*
X67634Y205957D01*
X62487Y203060D01*
X57532Y200086D01*
X52774Y197039D01*
X48216Y193923D01*
X43864Y190742D01*
X39722Y187500D01*
X35795Y184199D01*
X32084Y180845D01*
X28596Y177442D01*
X28596Y177441D01*
X25332Y173993D01*
X22294Y170503D01*
X19486Y166977D01*
X19486Y166976D01*
X16910Y163418D01*
X14566Y159830D01*
X12456Y156218D01*
X10581Y152586D01*
X8941Y148937D01*
X8941Y148936D01*
X7537Y145274D01*
X7536Y145274D01*
X6367Y141601D01*
X5432Y137919D01*
X4731Y134232D01*
X4732Y134232D01*
X4731Y134232D01*
X4731Y134231D01*
X4731Y134226D01*
X4730Y134221D01*
X4729Y134216D01*
X4726Y134191D01*
X4726Y134186D01*
X4725Y134181D01*
X4724Y134176D01*
X4724Y134171D01*
X4720Y134141D01*
X4719Y134136D01*
X4719Y134131D01*
X4718Y134126D01*
X4714Y134097D01*
X4714Y134092D01*
X4713Y134087D01*
X4712Y134082D01*
X4712Y134077D01*
X4709Y134052D01*
X4708Y134047D01*
X4707Y134042D01*
X4707Y134037D01*
X4706Y134032D01*
X4702Y134002D01*
X4702Y133997D01*
X4701Y133992D01*
X4701Y133987D01*
X4697Y133958D01*
X4697Y133957D01*
X4696Y133953D01*
X4696Y133952D01*
X4696Y133948D01*
X4695Y133948D01*
X4696Y133948D01*
X4695Y133943D01*
X4694Y133938D01*
X4691Y133913D01*
X4690Y133908D01*
X4690Y133903D01*
X4689Y133898D01*
X4689Y133893D01*
X4685Y133868D01*
X4685Y133863D01*
X4684Y133858D01*
X4684Y133853D01*
X4683Y133848D01*
X4679Y133818D01*
X4679Y133813D01*
X4678Y133808D01*
X4677Y133803D01*
X4674Y133774D01*
X4673Y133774D01*
X4674Y133774D01*
X4673Y133769D01*
X4672Y133764D01*
X4672Y133759D01*
X4671Y133754D01*
X4668Y133729D01*
X4667Y133724D01*
X4667Y133719D01*
X4666Y133714D01*
X4665Y133709D01*
X4662Y133679D01*
X4661Y133674D01*
X4660Y133669D01*
X4660Y133664D01*
X4656Y133635D01*
X4656Y133634D01*
X4655Y133630D01*
X4655Y133625D01*
X4654Y133620D01*
X4653Y133615D01*
X4650Y133590D01*
X4650Y133585D01*
X4649Y133580D01*
X4648Y133575D01*
X4648Y133570D01*
X4644Y133540D01*
X4643Y133535D01*
X4643Y133530D01*
X4642Y133525D01*
X4638Y133495D01*
X4638Y133490D01*
X4637Y133485D01*
X4636Y133481D01*
X4636Y133480D01*
X4636Y133476D01*
X4636Y133475D01*
X4633Y133451D01*
X4632Y133446D01*
X4631Y133441D01*
X4631Y133436D01*
X4630Y133431D01*
X4626Y133401D01*
X4626Y133396D01*
X4625Y133391D01*
X4625Y133386D01*
X4624Y133386D01*
X4625Y133386D01*
X4621Y133356D01*
X4620Y133351D01*
X4619Y133346D01*
X4619Y133341D01*
X4618Y133336D01*
X4615Y133312D01*
X4614Y133307D01*
X4614Y133302D01*
X4613Y133297D01*
X4613Y133292D01*
X4609Y133262D01*
X4608Y133257D01*
X4608Y133252D01*
X4607Y133247D01*
X4603Y133217D01*
X4603Y133212D01*
X4602Y133212D01*
X4603Y133212D01*
X4602Y133207D01*
X4601Y133202D01*
X4601Y133197D01*
X4597Y133172D01*
X4597Y133167D01*
X4596Y133163D01*
X4596Y133162D01*
X4596Y133158D01*
X4596Y133157D01*
X4595Y133153D01*
X4591Y133123D01*
X4591Y133118D01*
X4590Y133113D01*
X4589Y133108D01*
X4586Y133078D01*
X4585Y133073D01*
X4584Y133068D01*
X4584Y133063D01*
X4580Y133033D01*
X4579Y133028D01*
X4579Y133023D01*
X4578Y133018D01*
X4577Y133013D01*
X4574Y132989D01*
X4574Y132984D01*
X4573Y132979D01*
X4572Y132974D01*
X4572Y132969D01*
X4568Y132939D01*
X4567Y132934D01*
X4567Y132929D01*
X4566Y132924D01*
X4562Y132894D01*
X4562Y132889D01*
X4561Y132884D01*
X4560Y132879D01*
X4560Y132874D01*
X4557Y132849D01*
X4556Y132845D01*
X4556Y132844D01*
X4555Y132840D01*
X4555Y132839D01*
X4555Y132835D01*
X4554Y132830D01*
X4550Y132800D01*
X4550Y132795D01*
X4549Y132790D01*
X4548Y132785D01*
X4545Y132755D01*
X4544Y132750D01*
X4543Y132745D01*
X4543Y132740D01*
X4542Y132735D01*
X4539Y132710D01*
X4538Y132705D01*
X4538Y132700D01*
X4537Y132695D01*
X4537Y132690D01*
X4533Y132661D01*
X4532Y132656D01*
X4532Y132651D01*
X4531Y132651D01*
X4532Y132651D01*
X4531Y132646D01*
X4527Y132616D01*
X4526Y132611D01*
X4526Y132606D01*
X4525Y132601D01*
X4525Y132596D01*
X4521Y132571D01*
X4521Y132566D01*
X4520Y132561D01*
X4520Y132556D01*
X4519Y132551D01*
X4515Y132522D01*
X4515Y132521D01*
X4515Y132517D01*
X4514Y132512D01*
X4513Y132507D01*
X4510Y132477D01*
X4509Y132477D01*
X4510Y132477D01*
X4509Y132472D01*
X4508Y132467D01*
X4508Y132462D01*
X4507Y132457D01*
X4504Y132432D01*
X4503Y132427D01*
X4503Y132422D01*
X4502Y132417D01*
X4501Y132412D01*
X4498Y132382D01*
X4497Y132377D01*
X4496Y132372D01*
X4496Y132368D01*
X4496Y132367D01*
X4492Y132338D01*
X4491Y132333D01*
X4491Y132328D01*
X4490Y132323D01*
X4486Y132293D01*
X4486Y132288D01*
X4485Y132283D01*
X4484Y132278D01*
X4484Y132273D01*
X4481Y132248D01*
X4480Y132243D01*
X4479Y132238D01*
X4479Y132233D01*
X4478Y132228D01*
X4474Y132199D01*
X4474Y132194D01*
X4473Y132189D01*
X4472Y132184D01*
X4469Y132154D01*
X4468Y132149D01*
X4467Y132144D01*
X4467Y132139D01*
X4466Y132134D01*
X4463Y132109D01*
X4462Y132104D01*
X4462Y132099D01*
X4461Y132094D01*
X4461Y132089D01*
X4460Y132089D01*
X4457Y132059D01*
X4456Y132054D01*
X4455Y132050D01*
X4455Y132049D01*
X4455Y132045D01*
X4455Y132044D01*
X4451Y132015D01*
X4450Y132010D01*
X4450Y132005D01*
X4449Y132000D01*
X4449Y131995D01*
X4445Y131970D01*
X4445Y131965D01*
X4444Y131960D01*
X4444Y131955D01*
X4443Y131950D01*
X4439Y131920D01*
X4439Y131915D01*
X4438Y131915D01*
X4439Y131915D01*
X4438Y131910D01*
X4437Y131905D01*
X4433Y131876D01*
X4433Y131871D01*
X4432Y131866D01*
X4432Y131861D01*
X4431Y131856D01*
X4428Y131831D01*
X4427Y131826D01*
X4427Y131821D01*
X4426Y131816D01*
X4425Y131811D01*
X4422Y131781D01*
X4421Y131776D01*
X4420Y131771D01*
X4420Y131766D01*
X4416Y131736D01*
X4415Y131732D01*
X4415Y131731D01*
X4415Y131727D01*
X4415Y131726D01*
X4414Y131722D01*
X4413Y131717D01*
X4410Y131692D01*
X4410Y131687D01*
X4409Y131682D01*
X4408Y131677D01*
X4408Y131672D01*
X4404Y131642D01*
X4403Y131637D01*
X4403Y131632D01*
X4402Y131627D01*
X4398Y131597D01*
X4398Y131592D01*
X4397Y131587D01*
X4396Y131582D01*
X4393Y131553D01*
X4392Y131548D01*
X4391Y131543D01*
X4391Y131538D01*
X4390Y131533D01*
X4387Y131508D01*
X4386Y131503D01*
X4386Y131498D01*
X4385Y131493D01*
X4384Y131488D01*
X4381Y131458D01*
X4380Y131453D01*
X4379Y131448D01*
X4379Y131443D01*
X4375Y131414D01*
X4375Y131413D01*
X4374Y131409D01*
X4374Y131408D01*
X4374Y131404D01*
X4373Y131399D01*
X4373Y131394D01*
X4369Y131369D01*
X4369Y131364D01*
X4368Y131359D01*
X4368Y131354D01*
X4367Y131354D01*
X4368Y131354D01*
X4367Y131349D01*
X4363Y131319D01*
X4362Y131314D01*
X4362Y131309D01*
X4361Y131304D01*
X4357Y131274D01*
X4357Y131269D01*
X4356Y131264D01*
X4356Y131259D01*
X4355Y131255D01*
X4355Y131254D01*
X4352Y131230D01*
X4351Y131225D01*
X4351Y131220D01*
X4350Y131215D01*
X4349Y131210D01*
X4346Y131180D01*
X4345Y131180D01*
X4346Y131180D01*
X4345Y131175D01*
X4344Y131170D01*
X4344Y131165D01*
X4340Y131135D01*
X4339Y131130D01*
X4339Y131125D01*
X4338Y131120D01*
X4337Y131115D01*
X4334Y131091D01*
X4334Y131090D01*
X4334Y131086D01*
X4333Y131081D01*
X4332Y131076D01*
X4332Y131071D01*
X4328Y131041D01*
X4327Y131036D01*
X4327Y131031D01*
X4326Y131026D01*
X4322Y130996D01*
X4322Y130991D01*
X4321Y130986D01*
X4320Y130981D01*
X4320Y130976D01*
X4317Y130951D01*
X4316Y130946D01*
X4315Y130941D01*
X4315Y130937D01*
X4315Y130936D01*
X4314Y130932D01*
X4314Y130931D01*
X4310Y130902D01*
X4310Y130897D01*
X4309Y130892D01*
X4308Y130887D01*
X4305Y130857D01*
X4304Y130852D01*
X4303Y130847D01*
X4303Y130842D01*
X4299Y130812D01*
X4298Y130807D01*
X4298Y130802D01*
X4297Y130797D01*
X4297Y130792D01*
X4296Y130792D01*
X4293Y130768D01*
X4293Y130763D01*
X4292Y130758D01*
X4291Y130753D01*
X4291Y130748D01*
X4287Y130718D01*
X4286Y130713D01*
X4286Y130708D01*
X4285Y130703D01*
X4281Y130673D01*
X4281Y130668D01*
X4280Y130663D01*
X4280Y130658D01*
X4279Y130653D01*
X4276Y130628D01*
X4275Y130623D01*
X4275Y130619D01*
X4274Y130618D01*
X4275Y130618D01*
X4274Y130614D01*
X4274Y130613D01*
X4273Y130609D01*
X4269Y130579D01*
X4269Y130574D01*
X4268Y130569D01*
X4268Y130564D01*
X4265Y130540D01*
X4264Y130534D01*
X4264Y130529D01*
X4264Y130524D01*
X4257Y130415D01*
X4256Y130410D01*
X4256Y130405D01*
X4249Y130296D01*
X4249Y130295D01*
X4249Y130291D01*
X4249Y130286D01*
X4242Y130176D01*
X4241Y130171D01*
X4241Y130166D01*
X4241Y130161D01*
X4234Y130057D01*
X4234Y130052D01*
X4233Y130047D01*
X4233Y130042D01*
X4227Y129938D01*
X4226Y129933D01*
X4226Y129928D01*
X4226Y129923D01*
X4219Y129819D01*
X4219Y129818D01*
X4219Y129814D01*
X4218Y129809D01*
X4218Y129804D01*
X4212Y129699D01*
X4211Y129699D01*
X4212Y129699D01*
X4211Y129694D01*
X4211Y129689D01*
X4211Y129684D01*
X4204Y129575D01*
X4203Y129570D01*
X4203Y129565D01*
X4196Y129456D01*
X4196Y129451D01*
X4196Y129446D01*
X4195Y129446D01*
X4189Y129337D01*
X4188Y129332D01*
X4188Y129327D01*
X4181Y129217D01*
X4181Y129212D01*
X4180Y129207D01*
X4174Y129098D01*
X4173Y129093D01*
X4173Y129088D01*
X4166Y128979D01*
X4166Y128974D01*
X4165Y128969D01*
X4158Y128860D01*
X4158Y128855D01*
X4158Y128850D01*
X4151Y128740D01*
X4151Y128735D01*
X4150Y128730D01*
X4143Y128621D01*
X4143Y128616D01*
X4143Y128611D01*
X4136Y128502D01*
X4136Y128497D01*
X4135Y128492D01*
X4128Y128383D01*
X4128Y128378D01*
X4128Y128373D01*
X4121Y128263D01*
X4121Y128258D01*
X4120Y128258D01*
X4121Y128258D01*
X4120Y128253D01*
X4113Y128144D01*
X4113Y128139D01*
X4113Y128134D01*
X4106Y128025D01*
X4105Y128020D01*
X4105Y128015D01*
X4098Y127906D01*
X4098Y127901D01*
X4098Y127896D01*
X4091Y127786D01*
X4090Y127781D01*
X4090Y127776D01*
X4083Y127667D01*
X4083Y127662D01*
X4083Y127657D01*
X4076Y127548D01*
X4075Y127543D01*
X4075Y127538D01*
X4068Y127429D01*
X4068Y127424D01*
X4067Y127419D01*
X4061Y127309D01*
X4060Y127304D01*
X4060Y127299D01*
X4053Y127190D01*
X4053Y127185D01*
X4052Y127180D01*
X4046Y127071D01*
X4045Y127071D01*
X4046Y127071D01*
X4045Y127066D01*
X4045Y127061D01*
X4038Y126952D01*
X4038Y126947D01*
X4037Y126942D01*
X4031Y126847D01*
X4032Y126847D01*
X4031Y126847D01*
X4031Y123153D01*
X4032Y123153D01*
X4031Y123153D01*
X4265Y119460D01*
X4731Y115768D01*
X4732Y115768D01*
X4731Y115768D01*
X5432Y112081D01*
X6367Y108399D01*
X7536Y104726D01*
X7537Y104726D01*
X8941Y101064D01*
X8941Y101063D01*
X10581Y97414D01*
X12456Y93782D01*
X12456Y93781D01*
X14566Y90170D01*
X16910Y86582D01*
X19486Y83024D01*
X19486Y83023D01*
X22294Y79497D01*
X25332Y76007D01*
X28596Y72559D01*
X28596Y72558D01*
X32084Y69155D01*
X35795Y65801D01*
X39722Y62500D01*
X43864Y59258D01*
X48216Y56077D01*
X52774Y52961D01*
X57532Y49914D01*
X62487Y46940D01*
X67634Y44043D01*
X72966Y41225D01*
X72967Y41225D01*
X78479Y38490D01*
X84167Y35841D01*
X90025Y33281D01*
X96045Y30814D01*
X102222Y28441D01*
X108550Y26165D01*
X115022Y23989D01*
X115022Y23988D01*
X121631Y21915D01*
X128371Y19945D01*
X135234Y18083D01*
X142213Y16329D01*
X149305Y14685D01*
X156497Y13154D01*
X163783Y11736D01*
X171159Y10434D01*
X178613Y9249D01*
X186141Y8182D01*
X193733Y7234D01*
X201384Y6406D01*
X209082Y5700D01*
X216823Y5115D01*
X224597Y4653D01*
X232397Y4313D01*
X240215Y4097D01*
X248043Y4004D01*
X255872Y4035D01*
G37*
%LPC*%
G36*
X382174Y140005D02*
X382174Y140005D01*
X362405Y159774D01*
X362405Y163004D01*
X362403Y163006D01*
X362403Y163007D01*
X362255Y163156D01*
X362255Y165250D01*
X362250Y165255D01*
X362250Y165254D01*
X362250Y165255D01*
X360156Y165255D01*
X358255Y167156D01*
X358255Y169844D01*
X358907Y170496D01*
X358908Y170503D01*
X358907Y170503D01*
X358907Y170504D01*
X358255Y171156D01*
X358255Y173250D01*
X358250Y173255D01*
X358250Y173254D01*
X358250Y173255D01*
X356750Y173255D01*
X356745Y173250D01*
X356745Y171156D01*
X354844Y169255D01*
X352156Y169255D01*
X350255Y171156D01*
X350255Y173844D01*
X352156Y175745D01*
X354250Y175745D01*
X354255Y175750D01*
X354254Y175750D01*
X354255Y175750D01*
X354255Y177844D01*
X356156Y179745D01*
X358250Y179745D01*
X358255Y179750D01*
X358254Y179750D01*
X358255Y179750D01*
X358255Y181844D01*
X360156Y183745D01*
X362844Y183745D01*
X362988Y183602D01*
X362990Y183601D01*
X362991Y183600D01*
X365228Y183600D01*
X371327Y177502D01*
X372500Y176328D01*
X372500Y174091D01*
X372502Y174089D01*
X372502Y174088D01*
X372745Y173844D01*
X372745Y171700D01*
X372750Y171695D01*
X372750Y171696D01*
X372750Y171695D01*
X373126Y171695D01*
X392995Y151826D01*
X392995Y143674D01*
X392247Y142925D01*
X392246Y142923D01*
X392245Y142921D01*
X392245Y142449D01*
X390051Y140255D01*
X389579Y140255D01*
X389577Y140253D01*
X389575Y140253D01*
X389326Y140005D01*
X382174Y140005D01*
G37*
%LPD*%
%LPC*%
G36*
X241158Y157355D02*
X241158Y157355D01*
X238679Y158382D01*
X236782Y160279D01*
X236068Y162002D01*
X236065Y162003D01*
X236064Y162005D01*
X234345Y162005D01*
X233004Y163346D01*
X233001Y163347D01*
X232999Y163347D01*
X232997Y163347D01*
X232997Y163346D01*
X232996Y163346D01*
X231655Y162005D01*
X228345Y162005D01*
X226005Y164345D01*
X226005Y167655D01*
X228345Y169995D01*
X231655Y169995D01*
X232996Y168654D01*
X233003Y168653D01*
X233003Y168654D01*
X233004Y168654D01*
X234345Y169995D01*
X237655Y169995D01*
X238252Y169398D01*
X238259Y169398D01*
X238679Y169818D01*
X241158Y170845D01*
X243842Y170845D01*
X246321Y169818D01*
X247746Y168393D01*
X247748Y168393D01*
X247749Y168391D01*
X247751Y168393D01*
X247753Y168392D01*
X247753Y168395D01*
X247755Y168396D01*
X247755Y169206D01*
X248782Y171685D01*
X250679Y173582D01*
X253158Y174609D01*
X255842Y174609D01*
X258321Y173582D01*
X260218Y171685D01*
X261245Y169206D01*
X261245Y167907D01*
X261246Y167906D01*
X261246Y167904D01*
X261248Y167904D01*
X261250Y167902D01*
X261251Y167903D01*
X261252Y167904D01*
X261254Y167904D01*
X263345Y169995D01*
X266655Y169995D01*
X268995Y167655D01*
X268995Y164345D01*
X266655Y162005D01*
X263345Y162005D01*
X261005Y164345D01*
X261005Y165917D01*
X261003Y165919D01*
X261002Y165921D01*
X261001Y165921D01*
X261000Y165922D01*
X260998Y165920D01*
X260995Y165919D01*
X260218Y164043D01*
X258321Y162146D01*
X255842Y161119D01*
X253158Y161119D01*
X250679Y162146D01*
X249254Y163571D01*
X249252Y163571D01*
X249251Y163573D01*
X249249Y163571D01*
X249247Y163572D01*
X249247Y163569D01*
X249245Y163568D01*
X249245Y162758D01*
X248218Y160279D01*
X246321Y158382D01*
X243842Y157355D01*
X241158Y157355D01*
G37*
%LPD*%
G36*
X388502Y141997D02*
X388502Y141997D01*
X388504Y141996D01*
X391004Y144496D01*
X391004Y144498D01*
X391004Y144499D01*
X391005Y144500D01*
X391005Y149333D01*
X391003Y149335D01*
X391004Y149336D01*
X390705Y149635D01*
X390705Y151300D01*
X390703Y151302D01*
X390703Y151304D01*
X372304Y169704D01*
X372301Y169704D01*
X372300Y169705D01*
X364900Y169705D01*
X364898Y169703D01*
X364896Y169704D01*
X364396Y169204D01*
X364396Y169201D01*
X364395Y169200D01*
X364395Y160600D01*
X364397Y160598D01*
X364396Y160596D01*
X382996Y141996D01*
X382999Y141996D01*
X383000Y141995D01*
X388500Y141995D01*
X388502Y141997D01*
G37*
%LPC*%
G36*
X258658Y174255D02*
X258658Y174255D01*
X256179Y175282D01*
X254282Y177179D01*
X253255Y179658D01*
X253255Y182342D01*
X254282Y184821D01*
X256179Y186718D01*
X258658Y187745D01*
X261342Y187745D01*
X263821Y186718D01*
X263864Y186675D01*
X263865Y186675D01*
X263865Y186674D01*
X263867Y186675D01*
X263871Y186675D01*
X263871Y186676D01*
X263872Y186677D01*
X263932Y186821D01*
X265829Y188718D01*
X268308Y189745D01*
X270992Y189745D01*
X272498Y189121D01*
X272500Y189122D01*
X272502Y189121D01*
X274008Y189745D01*
X276692Y189745D01*
X279171Y188718D01*
X281068Y186821D01*
X282095Y184342D01*
X282095Y181658D01*
X281068Y179179D01*
X279171Y177282D01*
X276692Y176255D01*
X274008Y176255D01*
X272502Y176879D01*
X272500Y176878D01*
X272498Y176879D01*
X270992Y176255D01*
X268308Y176255D01*
X265829Y177282D01*
X265786Y177325D01*
X265785Y177325D01*
X265785Y177326D01*
X265783Y177325D01*
X265779Y177325D01*
X265779Y177324D01*
X265778Y177323D01*
X265718Y177179D01*
X263821Y175282D01*
X261342Y174255D01*
X258658Y174255D01*
G37*
%LPD*%
%LPC*%
G36*
X257345Y140005D02*
X257345Y140005D01*
X255005Y142345D01*
X255005Y145655D01*
X255596Y146246D01*
X255596Y146248D01*
X255597Y146249D01*
X255598Y146249D01*
X255597Y146251D01*
X255597Y146253D01*
X255594Y146253D01*
X255593Y146255D01*
X254449Y146255D01*
X253548Y147156D01*
X253547Y147156D01*
X253546Y147157D01*
X253545Y147156D01*
X253541Y147156D01*
X253541Y147155D01*
X253539Y147154D01*
X253218Y146379D01*
X251321Y144482D01*
X248842Y143455D01*
X246158Y143455D01*
X243679Y144482D01*
X241909Y146252D01*
X241902Y146252D01*
X239655Y144005D01*
X236345Y144005D01*
X234005Y146345D01*
X234005Y149655D01*
X236345Y151995D01*
X239655Y151995D01*
X240746Y150904D01*
X240748Y150904D01*
X240749Y150902D01*
X240751Y150903D01*
X240753Y150903D01*
X240753Y150906D01*
X240755Y150907D01*
X240755Y151542D01*
X241782Y154021D01*
X243679Y155918D01*
X246158Y156945D01*
X248842Y156945D01*
X251321Y155918D01*
X253218Y154021D01*
X253657Y152963D01*
X253657Y152962D01*
X253659Y152961D01*
X253662Y152960D01*
X253663Y152961D01*
X253665Y152961D01*
X254449Y153745D01*
X257551Y153745D01*
X259745Y151551D01*
X259745Y148449D01*
X259300Y148004D01*
X259300Y148002D01*
X259299Y148001D01*
X259300Y147999D01*
X259300Y147997D01*
X259302Y147997D01*
X259304Y147995D01*
X260655Y147995D01*
X262995Y145655D01*
X262995Y142345D01*
X260655Y140005D01*
X257345Y140005D01*
G37*
%LPD*%
%LPC*%
G36*
X313321Y112293D02*
X313321Y112293D01*
X310750Y113357D01*
X308782Y115325D01*
X307868Y117532D01*
X307866Y117533D01*
X307865Y117535D01*
X305659Y118449D01*
X303691Y120416D01*
X302626Y122987D01*
X302626Y125770D01*
X303691Y128341D01*
X305659Y130309D01*
X308230Y131374D01*
X311013Y131374D01*
X313584Y130309D01*
X315552Y128341D01*
X316466Y126135D01*
X316468Y126134D01*
X316468Y126132D01*
X318675Y125218D01*
X320643Y123250D01*
X321708Y120679D01*
X321708Y117896D01*
X320643Y115325D01*
X318675Y113357D01*
X316104Y112293D01*
X313321Y112293D01*
G37*
%LPD*%
%LPC*%
G36*
X296230Y69626D02*
X296230Y69626D01*
X293659Y70691D01*
X291691Y72659D01*
X290626Y75230D01*
X290626Y78013D01*
X291691Y80583D01*
X293659Y82551D01*
X295865Y83465D01*
X295866Y83467D01*
X295868Y83468D01*
X296782Y85675D01*
X298750Y87643D01*
X301321Y88707D01*
X304104Y88707D01*
X306675Y87643D01*
X308643Y85675D01*
X309708Y83104D01*
X309708Y80321D01*
X308643Y77750D01*
X306675Y75782D01*
X304468Y74868D01*
X304467Y74866D01*
X304465Y74865D01*
X303551Y72659D01*
X301584Y70691D01*
X299013Y69626D01*
X296230Y69626D01*
G37*
%LPD*%
%LPC*%
G36*
X84009Y182005D02*
X84009Y182005D01*
X81438Y183070D01*
X79470Y185038D01*
X78405Y187609D01*
X78405Y190391D01*
X79470Y192962D01*
X81438Y194930D01*
X84009Y195995D01*
X86791Y195995D01*
X88998Y195081D01*
X89000Y195082D01*
X89002Y195081D01*
X91209Y195995D01*
X93991Y195995D01*
X96562Y194930D01*
X98530Y192962D01*
X99595Y190391D01*
X99595Y187609D01*
X98530Y185038D01*
X96562Y183070D01*
X93991Y182005D01*
X91209Y182005D01*
X89002Y182919D01*
X89001Y182919D01*
X88999Y182919D01*
X88999Y182918D01*
X88998Y182919D01*
X86791Y182005D01*
X84009Y182005D01*
G37*
%LPD*%
%LPC*%
G36*
X313609Y90905D02*
X313609Y90905D01*
X311038Y91970D01*
X309070Y93938D01*
X308005Y96509D01*
X308005Y99291D01*
X308919Y101498D01*
X308918Y101500D01*
X308919Y101500D01*
X308918Y101501D01*
X308919Y101502D01*
X308005Y103709D01*
X308005Y106491D01*
X309070Y109062D01*
X311038Y111030D01*
X313609Y112095D01*
X316391Y112095D01*
X318962Y111030D01*
X320930Y109062D01*
X321995Y106491D01*
X321995Y103709D01*
X321081Y101502D01*
X321082Y101500D01*
X321081Y101498D01*
X321995Y99291D01*
X321995Y96509D01*
X320930Y93938D01*
X318962Y91970D01*
X316391Y90905D01*
X313609Y90905D01*
G37*
%LPD*%
%LPC*%
G36*
X282759Y137705D02*
X282759Y137705D01*
X280188Y138770D01*
X278220Y140738D01*
X277155Y143309D01*
X277155Y146091D01*
X278220Y148662D01*
X280188Y150630D01*
X282759Y151695D01*
X285541Y151695D01*
X287495Y150886D01*
X287497Y150887D01*
X287499Y150886D01*
X289810Y151844D01*
X292593Y151844D01*
X295164Y150779D01*
X297132Y148811D01*
X298197Y146240D01*
X298197Y143457D01*
X297132Y140886D01*
X295164Y138918D01*
X292593Y137853D01*
X289810Y137853D01*
X287857Y138662D01*
X287856Y138662D01*
X287854Y138662D01*
X287853Y138662D01*
X285541Y137705D01*
X282759Y137705D01*
G37*
%LPD*%
%LPC*%
G36*
X226609Y199055D02*
X226609Y199055D01*
X224038Y200120D01*
X222070Y202088D01*
X221005Y204659D01*
X221005Y207441D01*
X221765Y209277D01*
X221765Y209280D01*
X221765Y209281D01*
X220905Y211359D01*
X220905Y214141D01*
X221970Y216712D01*
X223938Y218680D01*
X226509Y219745D01*
X229291Y219745D01*
X231862Y218680D01*
X233830Y216712D01*
X234895Y214141D01*
X234895Y211359D01*
X234135Y209523D01*
X234135Y209522D01*
X234135Y209520D01*
X234135Y209519D01*
X234995Y207441D01*
X234995Y204659D01*
X233930Y202088D01*
X231962Y200120D01*
X229391Y199055D01*
X226609Y199055D01*
G37*
%LPD*%
%LPC*%
G36*
X181509Y140755D02*
X181509Y140755D01*
X178938Y141820D01*
X176970Y143788D01*
X175905Y146359D01*
X175905Y149141D01*
X176765Y151219D01*
X176765Y151221D01*
X176765Y151223D01*
X176005Y153059D01*
X176005Y155841D01*
X177070Y158412D01*
X179038Y160380D01*
X181609Y161445D01*
X184391Y161445D01*
X186962Y160380D01*
X188930Y158412D01*
X189995Y155841D01*
X189995Y153059D01*
X189135Y150981D01*
X189135Y150980D01*
X189135Y150979D01*
X189135Y150977D01*
X189895Y149141D01*
X189895Y146359D01*
X188830Y143788D01*
X186862Y141820D01*
X184291Y140755D01*
X181509Y140755D01*
G37*
%LPD*%
%LPC*%
G36*
X123573Y106969D02*
X123573Y106969D01*
X121002Y108034D01*
X119034Y110002D01*
X117969Y112573D01*
X117969Y115356D01*
X119034Y117927D01*
X121002Y119895D01*
X122959Y120705D01*
X122960Y120707D01*
X122961Y120708D01*
X123772Y122665D01*
X125740Y124632D01*
X128311Y125697D01*
X131093Y125697D01*
X133664Y124632D01*
X135632Y122665D01*
X136697Y120094D01*
X136697Y117311D01*
X135632Y114740D01*
X133664Y112772D01*
X131708Y111961D01*
X131707Y111959D01*
X131705Y111959D01*
X130895Y110002D01*
X128927Y108034D01*
X126356Y106969D01*
X123573Y106969D01*
G37*
%LPD*%
%LPC*%
G36*
X327609Y176005D02*
X327609Y176005D01*
X325038Y177070D01*
X323070Y179038D01*
X322005Y181609D01*
X322005Y184391D01*
X322815Y186348D01*
X322815Y186350D01*
X322815Y186352D01*
X322005Y188309D01*
X322005Y191091D01*
X323070Y193662D01*
X325038Y195630D01*
X327609Y196695D01*
X330391Y196695D01*
X332962Y195630D01*
X334930Y193662D01*
X335995Y191091D01*
X335995Y188309D01*
X335185Y186352D01*
X335185Y186350D01*
X335185Y186348D01*
X335995Y184391D01*
X335995Y181609D01*
X334930Y179038D01*
X332962Y177070D01*
X330391Y176005D01*
X327609Y176005D01*
G37*
%LPD*%
%LPC*%
G36*
X60609Y103305D02*
X60609Y103305D01*
X58038Y104370D01*
X56070Y106338D01*
X55005Y108909D01*
X55005Y111691D01*
X55815Y113648D01*
X55815Y113649D01*
X55815Y113650D01*
X55815Y113652D01*
X55005Y115609D01*
X55005Y118391D01*
X56070Y120962D01*
X58038Y122930D01*
X60609Y123995D01*
X63391Y123995D01*
X65962Y122930D01*
X67930Y120962D01*
X68995Y118391D01*
X68995Y115609D01*
X68185Y113652D01*
X68185Y113651D01*
X68185Y113650D01*
X68185Y113649D01*
X68185Y113648D01*
X68995Y111691D01*
X68995Y108909D01*
X67930Y106338D01*
X65962Y104370D01*
X63391Y103305D01*
X60609Y103305D01*
G37*
%LPD*%
%LPC*%
G36*
X145609Y165305D02*
X145609Y165305D01*
X143038Y166370D01*
X141070Y168338D01*
X140005Y170909D01*
X140005Y173691D01*
X140815Y175648D01*
X140815Y175649D01*
X140816Y175649D01*
X140815Y175650D01*
X140815Y175652D01*
X140005Y177609D01*
X140005Y180391D01*
X141070Y182962D01*
X143038Y184930D01*
X145609Y185995D01*
X148391Y185995D01*
X150962Y184930D01*
X152930Y182962D01*
X153995Y180391D01*
X153995Y177609D01*
X153185Y175652D01*
X153185Y175651D01*
X153185Y175650D01*
X153185Y175649D01*
X153185Y175648D01*
X153995Y173691D01*
X153995Y170909D01*
X152930Y168338D01*
X150962Y166370D01*
X148391Y165305D01*
X145609Y165305D01*
G37*
%LPD*%
%LPC*%
G36*
X26609Y131005D02*
X26609Y131005D01*
X24038Y132070D01*
X22070Y134038D01*
X21005Y136609D01*
X21005Y139391D01*
X22070Y141962D01*
X24038Y143930D01*
X26609Y144995D01*
X29391Y144995D01*
X31348Y144185D01*
X31350Y144185D01*
X31352Y144185D01*
X33309Y144995D01*
X36091Y144995D01*
X38662Y143930D01*
X40630Y141962D01*
X41695Y139391D01*
X41695Y136609D01*
X40630Y134038D01*
X38662Y132070D01*
X36091Y131005D01*
X33309Y131005D01*
X31352Y131815D01*
X31351Y131815D01*
X31349Y131815D01*
X31348Y131815D01*
X29391Y131005D01*
X26609Y131005D01*
G37*
%LPD*%
%LPC*%
G36*
X336345Y122005D02*
X336345Y122005D01*
X334005Y124345D01*
X334005Y127655D01*
X335846Y129496D01*
X335847Y129498D01*
X335848Y129499D01*
X335847Y129500D01*
X335847Y129503D01*
X335846Y129503D01*
X335846Y129504D01*
X334005Y131345D01*
X334005Y134655D01*
X336345Y136995D01*
X339655Y136995D01*
X341996Y134654D01*
X341999Y134653D01*
X342000Y134652D01*
X342001Y134653D01*
X342003Y134653D01*
X342003Y134654D01*
X342004Y134654D01*
X344345Y136995D01*
X347655Y136995D01*
X349995Y134655D01*
X349995Y131345D01*
X348154Y129504D01*
X348153Y129502D01*
X348152Y129501D01*
X348153Y129499D01*
X348153Y129497D01*
X348154Y129497D01*
X348154Y129496D01*
X349995Y127655D01*
X349995Y124345D01*
X347655Y122005D01*
X344345Y122005D01*
X342004Y124346D01*
X342001Y124347D01*
X341999Y124347D01*
X341997Y124347D01*
X341997Y124346D01*
X341996Y124346D01*
X339655Y122005D01*
X336345Y122005D01*
G37*
%LPD*%
%LPC*%
G36*
X409345Y98005D02*
X409345Y98005D01*
X407005Y100345D01*
X407005Y103655D01*
X408346Y104996D01*
X408347Y104998D01*
X408347Y104999D01*
X408347Y105003D01*
X408346Y105003D01*
X408346Y105004D01*
X407005Y106345D01*
X407005Y109655D01*
X409345Y111995D01*
X412655Y111995D01*
X414995Y109655D01*
X414995Y106345D01*
X413654Y105004D01*
X413653Y105000D01*
X413653Y104999D01*
X413653Y104997D01*
X413654Y104997D01*
X413654Y104996D01*
X414496Y104154D01*
X414503Y104153D01*
X414503Y104154D01*
X414504Y104154D01*
X416345Y105995D01*
X419655Y105995D01*
X421496Y104154D01*
X421503Y104153D01*
X421503Y104154D01*
X421504Y104154D01*
X423345Y105995D01*
X426655Y105995D01*
X428995Y103655D01*
X428995Y100345D01*
X426655Y98005D01*
X423345Y98005D01*
X421504Y99846D01*
X421497Y99847D01*
X421497Y99846D01*
X421496Y99846D01*
X419655Y98005D01*
X416345Y98005D01*
X414504Y99846D01*
X414497Y99847D01*
X414497Y99846D01*
X414496Y99846D01*
X412655Y98005D01*
X409345Y98005D01*
G37*
%LPD*%
%LPC*%
G36*
X284559Y156755D02*
X284559Y156755D01*
X281896Y157858D01*
X279858Y159896D01*
X278755Y162559D01*
X278755Y165441D01*
X279858Y168104D01*
X281896Y170142D01*
X284559Y171245D01*
X287441Y171245D01*
X290104Y170142D01*
X292142Y168104D01*
X293245Y165441D01*
X293245Y162559D01*
X292142Y159896D01*
X290104Y157858D01*
X287441Y156755D01*
X284559Y156755D01*
G37*
%LPD*%
%LPC*%
G36*
X212609Y157005D02*
X212609Y157005D01*
X210038Y158070D01*
X208070Y160038D01*
X207005Y162609D01*
X207005Y165391D01*
X208070Y167962D01*
X210038Y169930D01*
X212609Y170995D01*
X215391Y170995D01*
X217962Y169930D01*
X219930Y167962D01*
X220995Y165391D01*
X220995Y162609D01*
X219930Y160038D01*
X217962Y158070D01*
X215391Y157005D01*
X212609Y157005D01*
G37*
%LPD*%
%LPC*%
G36*
X348156Y177255D02*
X348156Y177255D01*
X346255Y179156D01*
X346255Y181250D01*
X346250Y181255D01*
X346250Y181254D01*
X346250Y181255D01*
X344156Y181255D01*
X342255Y183156D01*
X342255Y185844D01*
X344156Y187745D01*
X346250Y187745D01*
X346255Y187750D01*
X346254Y187750D01*
X346255Y187750D01*
X346255Y189844D01*
X348156Y191745D01*
X350844Y191745D01*
X351496Y191093D01*
X351499Y191093D01*
X351501Y191093D01*
X351503Y191092D01*
X351503Y191093D01*
X351504Y191093D01*
X352156Y191745D01*
X354844Y191745D01*
X356745Y189844D01*
X356745Y187156D01*
X354844Y185255D01*
X352750Y185255D01*
X352745Y185250D01*
X352746Y185250D01*
X352745Y185250D01*
X352745Y183156D01*
X352093Y182504D01*
X352092Y182497D01*
X352093Y182497D01*
X352093Y182496D01*
X352745Y181844D01*
X352745Y179156D01*
X350844Y177255D01*
X348156Y177255D01*
G37*
%LPD*%
%LPC*%
G36*
X329345Y228005D02*
X329345Y228005D01*
X327005Y230345D01*
X327005Y233655D01*
X329345Y235995D01*
X332655Y235995D01*
X334996Y233654D01*
X335003Y233653D01*
X335003Y233654D01*
X335004Y233654D01*
X337345Y235995D01*
X340655Y235995D01*
X342995Y233655D01*
X342995Y230345D01*
X340655Y228005D01*
X337345Y228005D01*
X335004Y230346D01*
X334997Y230347D01*
X334997Y230346D01*
X334996Y230346D01*
X332655Y228005D01*
X329345Y228005D01*
G37*
%LPD*%
%LPC*%
G36*
X354345Y73005D02*
X354345Y73005D01*
X352005Y75345D01*
X352005Y78655D01*
X354346Y80996D01*
X354347Y80998D01*
X354348Y80999D01*
X354347Y81001D01*
X354347Y81003D01*
X354346Y81003D01*
X354346Y81004D01*
X352005Y83345D01*
X352005Y86655D01*
X354345Y88995D01*
X357655Y88995D01*
X359995Y86655D01*
X359995Y83345D01*
X357654Y81004D01*
X357653Y81002D01*
X357652Y81001D01*
X357653Y80999D01*
X357653Y80997D01*
X357654Y80997D01*
X357654Y80996D01*
X359995Y78655D01*
X359995Y75345D01*
X357655Y73005D01*
X354345Y73005D01*
G37*
%LPD*%
%LPC*%
G36*
X332345Y104005D02*
X332345Y104005D01*
X330005Y106345D01*
X330005Y109655D01*
X332345Y111995D01*
X333593Y111995D01*
X333594Y111996D01*
X333596Y111996D01*
X333596Y111998D01*
X333598Y112000D01*
X333596Y112001D01*
X333596Y112004D01*
X331255Y114345D01*
X331255Y117655D01*
X333595Y119995D01*
X336905Y119995D01*
X339245Y117655D01*
X339245Y114345D01*
X336905Y112005D01*
X335657Y112005D01*
X335656Y112004D01*
X335654Y112004D01*
X335654Y112002D01*
X335652Y112000D01*
X335654Y111999D01*
X335654Y111996D01*
X337995Y109655D01*
X337995Y106345D01*
X335655Y104005D01*
X332345Y104005D01*
G37*
%LPD*%
%LPC*%
G36*
X420345Y170005D02*
X420345Y170005D01*
X418005Y172345D01*
X418005Y175655D01*
X419846Y177496D01*
X419847Y177503D01*
X419846Y177503D01*
X419846Y177504D01*
X418005Y179345D01*
X418005Y182655D01*
X420345Y184995D01*
X423655Y184995D01*
X425995Y182655D01*
X425995Y179345D01*
X424154Y177504D01*
X424153Y177497D01*
X424154Y177497D01*
X424154Y177496D01*
X425995Y175655D01*
X425995Y172345D01*
X423655Y170005D01*
X420345Y170005D01*
G37*
%LPD*%
G36*
X369702Y171497D02*
X369702Y171497D01*
X369703Y171497D01*
X370503Y172297D01*
X370503Y172298D01*
X370503Y172299D01*
X370504Y172300D01*
X370504Y175500D01*
X370503Y175502D01*
X370503Y175503D01*
X364403Y181603D01*
X364401Y181603D01*
X364400Y181604D01*
X361000Y181604D01*
X360998Y181603D01*
X360997Y181603D01*
X360497Y181103D01*
X360497Y181102D01*
X360497Y181101D01*
X360496Y181100D01*
X360496Y176000D01*
X360497Y175998D01*
X360497Y175997D01*
X360997Y175497D01*
X360999Y175497D01*
X361000Y175496D01*
X362498Y175496D01*
X364496Y173498D01*
X364496Y172000D01*
X364497Y171998D01*
X364497Y171997D01*
X364997Y171497D01*
X364999Y171497D01*
X365000Y171496D01*
X369700Y171496D01*
X369702Y171497D01*
G37*
%LPC*%
G36*
X382345Y181505D02*
X382345Y181505D01*
X380005Y183845D01*
X380005Y187155D01*
X382345Y189495D01*
X385655Y189495D01*
X387995Y187155D01*
X387995Y183845D01*
X385655Y181505D01*
X382345Y181505D01*
G37*
%LPD*%
%LPC*%
G36*
X392845Y181505D02*
X392845Y181505D01*
X390505Y183845D01*
X390505Y187155D01*
X392845Y189495D01*
X396155Y189495D01*
X398495Y187155D01*
X398495Y183845D01*
X396155Y181505D01*
X392845Y181505D01*
G37*
%LPD*%
%LPC*%
G36*
X33345Y173005D02*
X33345Y173005D01*
X31005Y175345D01*
X31005Y178655D01*
X33345Y180995D01*
X36655Y180995D01*
X38995Y178655D01*
X38995Y175345D01*
X36655Y173005D01*
X33345Y173005D01*
G37*
%LPD*%
%LPC*%
G36*
X301345Y172005D02*
X301345Y172005D01*
X299005Y174345D01*
X299005Y177655D01*
X301345Y179995D01*
X304655Y179995D01*
X306995Y177655D01*
X306995Y174345D01*
X304655Y172005D01*
X301345Y172005D01*
G37*
%LPD*%
%LPC*%
G36*
X306345Y165005D02*
X306345Y165005D01*
X304005Y167345D01*
X304005Y170655D01*
X306345Y172995D01*
X309655Y172995D01*
X311995Y170655D01*
X311995Y167345D01*
X309655Y165005D01*
X306345Y165005D01*
G37*
%LPD*%
%LPC*%
G36*
X381345Y214005D02*
X381345Y214005D01*
X379005Y216345D01*
X379005Y219655D01*
X381345Y221995D01*
X384655Y221995D01*
X386995Y219655D01*
X386995Y216345D01*
X384655Y214005D01*
X381345Y214005D01*
G37*
%LPD*%
%LPC*%
G36*
X189345Y231005D02*
X189345Y231005D01*
X187005Y233345D01*
X187005Y236655D01*
X189345Y238995D01*
X192655Y238995D01*
X194995Y236655D01*
X194995Y233345D01*
X192655Y231005D01*
X189345Y231005D01*
G37*
%LPD*%
%LPC*%
G36*
X416345Y160005D02*
X416345Y160005D01*
X414005Y162345D01*
X414005Y165655D01*
X416345Y167995D01*
X419655Y167995D01*
X421995Y165655D01*
X421995Y162345D01*
X419655Y160005D01*
X416345Y160005D01*
G37*
%LPD*%
%LPC*%
G36*
X118345Y157005D02*
X118345Y157005D01*
X116005Y159345D01*
X116005Y162655D01*
X118345Y164995D01*
X121655Y164995D01*
X123995Y162655D01*
X123995Y159345D01*
X121655Y157005D01*
X118345Y157005D01*
G37*
%LPD*%
%LPC*%
G36*
X74345Y156005D02*
X74345Y156005D01*
X72005Y158345D01*
X72005Y161655D01*
X74345Y163995D01*
X77655Y163995D01*
X79995Y161655D01*
X79995Y158345D01*
X77655Y156005D01*
X74345Y156005D01*
G37*
%LPD*%
%LPC*%
G36*
X155345Y226005D02*
X155345Y226005D01*
X153005Y228345D01*
X153005Y231655D01*
X155345Y233995D01*
X158655Y233995D01*
X160995Y231655D01*
X160995Y228345D01*
X158655Y226005D01*
X155345Y226005D01*
G37*
%LPD*%
%LPC*%
G36*
X310345Y223005D02*
X310345Y223005D01*
X308005Y225345D01*
X308005Y228655D01*
X310345Y230995D01*
X313655Y230995D01*
X315995Y228655D01*
X315995Y225345D01*
X313655Y223005D01*
X310345Y223005D01*
G37*
%LPD*%
%LPC*%
G36*
X189345Y218005D02*
X189345Y218005D01*
X187005Y220345D01*
X187005Y223655D01*
X189345Y225995D01*
X192655Y225995D01*
X194995Y223655D01*
X194995Y220345D01*
X192655Y218005D01*
X189345Y218005D01*
G37*
%LPD*%
%LPC*%
G36*
X304345Y217005D02*
X304345Y217005D01*
X302005Y219345D01*
X302005Y222655D01*
X304345Y224995D01*
X307655Y224995D01*
X309995Y222655D01*
X309995Y219345D01*
X307655Y217005D01*
X304345Y217005D01*
G37*
%LPD*%
%LPC*%
G36*
X74345Y136005D02*
X74345Y136005D01*
X72005Y138345D01*
X72005Y141655D01*
X74345Y143995D01*
X77655Y143995D01*
X79995Y141655D01*
X79995Y138345D01*
X77655Y136005D01*
X74345Y136005D01*
G37*
%LPD*%
%LPC*%
G36*
X124345Y134105D02*
X124345Y134105D01*
X122005Y136445D01*
X122005Y139755D01*
X124345Y142095D01*
X127655Y142095D01*
X129995Y139755D01*
X129995Y136445D01*
X127655Y134105D01*
X124345Y134105D01*
G37*
%LPD*%
%LPC*%
G36*
X111345Y214005D02*
X111345Y214005D01*
X109005Y216345D01*
X109005Y219655D01*
X111345Y221995D01*
X114655Y221995D01*
X116995Y219655D01*
X116995Y216345D01*
X114655Y214005D01*
X111345Y214005D01*
G37*
%LPD*%
%LPC*%
G36*
X249345Y205005D02*
X249345Y205005D01*
X247005Y207345D01*
X247005Y210655D01*
X249345Y212995D01*
X252655Y212995D01*
X254995Y210655D01*
X254995Y207345D01*
X252655Y205005D01*
X249345Y205005D01*
G37*
%LPD*%
%LPC*%
G36*
X444345Y121005D02*
X444345Y121005D01*
X442005Y123345D01*
X442005Y126655D01*
X444345Y128995D01*
X447655Y128995D01*
X449995Y126655D01*
X449995Y123345D01*
X447655Y121005D01*
X444345Y121005D01*
G37*
%LPD*%
%LPC*%
G36*
X366345Y204005D02*
X366345Y204005D01*
X364005Y206345D01*
X364005Y209655D01*
X366345Y211995D01*
X369655Y211995D01*
X371995Y209655D01*
X371995Y206345D01*
X369655Y204005D01*
X366345Y204005D01*
G37*
%LPD*%
%LPC*%
G36*
X356345Y204005D02*
X356345Y204005D01*
X354005Y206345D01*
X354005Y209655D01*
X356345Y211995D01*
X359655Y211995D01*
X361995Y209655D01*
X361995Y206345D01*
X359655Y204005D01*
X356345Y204005D01*
G37*
%LPD*%
%LPC*%
G36*
X337745Y204005D02*
X337745Y204005D01*
X335405Y206345D01*
X335405Y209655D01*
X337745Y211995D01*
X341055Y211995D01*
X343395Y209655D01*
X343395Y206345D01*
X341055Y204005D01*
X337745Y204005D01*
G37*
%LPD*%
%LPC*%
G36*
X320345Y204005D02*
X320345Y204005D01*
X318005Y206345D01*
X318005Y209655D01*
X320345Y211995D01*
X323655Y211995D01*
X325995Y209655D01*
X325995Y206345D01*
X323655Y204005D01*
X320345Y204005D01*
G37*
%LPD*%
%LPC*%
G36*
X346745Y203705D02*
X346745Y203705D01*
X344405Y206045D01*
X344405Y209355D01*
X346745Y211695D01*
X350055Y211695D01*
X352395Y209355D01*
X352395Y206045D01*
X350055Y203705D01*
X346745Y203705D01*
G37*
%LPD*%
%LPC*%
G36*
X169345Y86005D02*
X169345Y86005D01*
X167005Y88345D01*
X167005Y91655D01*
X169345Y93995D01*
X172655Y93995D01*
X174995Y91655D01*
X174995Y88345D01*
X172655Y86005D01*
X169345Y86005D01*
G37*
%LPD*%
%LPC*%
G36*
X384345Y82005D02*
X384345Y82005D01*
X382005Y84345D01*
X382005Y87655D01*
X384345Y89995D01*
X387655Y89995D01*
X389995Y87655D01*
X389995Y84345D01*
X387655Y82005D01*
X384345Y82005D01*
G37*
%LPD*%
%LPC*%
G36*
X416345Y38005D02*
X416345Y38005D01*
X414005Y40345D01*
X414005Y43655D01*
X416345Y45995D01*
X419655Y45995D01*
X421995Y43655D01*
X421995Y40345D01*
X419655Y38005D01*
X416345Y38005D01*
G37*
%LPD*%
%LPC*%
G36*
X328845Y203705D02*
X328845Y203705D01*
X326505Y206045D01*
X326505Y209355D01*
X328845Y211695D01*
X332155Y211695D01*
X334495Y209355D01*
X334495Y206045D01*
X332155Y203705D01*
X328845Y203705D01*
G37*
%LPD*%
%LPC*%
G36*
X130345Y199005D02*
X130345Y199005D01*
X128005Y201345D01*
X128005Y204655D01*
X130345Y206995D01*
X133655Y206995D01*
X135995Y204655D01*
X135995Y201345D01*
X133655Y199005D01*
X130345Y199005D01*
G37*
%LPD*%
%LPC*%
G36*
X109345Y75005D02*
X109345Y75005D01*
X107005Y77345D01*
X107005Y80655D01*
X109345Y82995D01*
X112655Y82995D01*
X114995Y80655D01*
X114995Y77345D01*
X112655Y75005D01*
X109345Y75005D01*
G37*
%LPD*%
%LPC*%
G36*
X85345Y67005D02*
X85345Y67005D01*
X83005Y69345D01*
X83005Y72655D01*
X85345Y74995D01*
X88655Y74995D01*
X90995Y72655D01*
X90995Y69345D01*
X88655Y67005D01*
X85345Y67005D01*
G37*
%LPD*%
%LPC*%
G36*
X423345Y45005D02*
X423345Y45005D01*
X421005Y47345D01*
X421005Y50655D01*
X423345Y52995D01*
X426655Y52995D01*
X428995Y50655D01*
X428995Y47345D01*
X426655Y45005D01*
X423345Y45005D01*
G37*
%LPD*%
%LPC*%
G36*
X228449Y78255D02*
X228449Y78255D01*
X226255Y80449D01*
X226255Y83551D01*
X228449Y85745D01*
X231551Y85745D01*
X233745Y83551D01*
X233745Y80449D01*
X231551Y78255D01*
X228449Y78255D01*
G37*
%LPD*%
%LPC*%
G36*
X380449Y124255D02*
X380449Y124255D01*
X378255Y126449D01*
X378255Y129551D01*
X380449Y131745D01*
X383551Y131745D01*
X385745Y129551D01*
X385745Y126449D01*
X383551Y124255D01*
X380449Y124255D01*
G37*
%LPD*%
%LPC*%
G36*
X265449Y73005D02*
X265449Y73005D01*
X263255Y75199D01*
X263255Y78301D01*
X265449Y80495D01*
X268551Y80495D01*
X270745Y78301D01*
X270745Y75199D01*
X268551Y73005D01*
X265449Y73005D01*
G37*
%LPD*%
%LPC*%
G36*
X233449Y100255D02*
X233449Y100255D01*
X231255Y102449D01*
X231255Y105551D01*
X233449Y107745D01*
X236551Y107745D01*
X238745Y105551D01*
X238745Y102449D01*
X236551Y100255D01*
X233449Y100255D01*
G37*
%LPD*%
%LPC*%
G36*
X258899Y82255D02*
X258899Y82255D01*
X256705Y84449D01*
X256705Y87551D01*
X258899Y89745D01*
X262001Y89745D01*
X264195Y87551D01*
X264195Y84449D01*
X262001Y82255D01*
X258899Y82255D01*
G37*
%LPD*%
%LPC*%
G36*
X340156Y161255D02*
X340156Y161255D01*
X338255Y163156D01*
X338255Y165844D01*
X340156Y167745D01*
X342844Y167745D01*
X344745Y165844D01*
X344745Y163156D01*
X342844Y161255D01*
X340156Y161255D01*
G37*
%LPD*%
%LPC*%
G36*
X348156Y161255D02*
X348156Y161255D01*
X346255Y163156D01*
X346255Y165844D01*
X348156Y167745D01*
X350844Y167745D01*
X352745Y165844D01*
X352745Y163156D01*
X350844Y161255D01*
X348156Y161255D01*
G37*
%LPD*%
D10*
X234854Y242119D02*
X234852Y242209D01*
X234846Y242299D01*
X234837Y242388D01*
X234824Y242477D01*
X234806Y242565D01*
X234786Y242653D01*
X234761Y242739D01*
X234733Y242825D01*
X234701Y242909D01*
X234666Y242992D01*
X234627Y243073D01*
X234585Y243152D01*
X234539Y243230D01*
X234491Y243306D01*
X234439Y243379D01*
X234384Y243450D01*
X234326Y243519D01*
X234265Y243585D01*
X234201Y243649D01*
X234135Y243710D01*
X234066Y243768D01*
X233995Y243823D01*
X233922Y243875D01*
X233846Y243923D01*
X233768Y243969D01*
X233689Y244011D01*
X233608Y244050D01*
X233525Y244085D01*
X233441Y244117D01*
X233355Y244145D01*
X233269Y244170D01*
X233181Y244190D01*
X233093Y244208D01*
X233004Y244221D01*
X232915Y244230D01*
X232825Y244236D01*
X232735Y244238D01*
X232631Y244236D01*
X232528Y244230D01*
X232424Y244220D01*
X232322Y244206D01*
X232219Y244189D01*
X232118Y244167D01*
X232017Y244142D01*
X231918Y244112D01*
X231820Y244079D01*
X231723Y244043D01*
X231627Y244002D01*
X231533Y243958D01*
X231441Y243911D01*
X231351Y243860D01*
X231262Y243805D01*
X231176Y243747D01*
X231092Y243686D01*
X231011Y243622D01*
X230932Y243555D01*
X230855Y243485D01*
X230782Y243412D01*
X230711Y243336D01*
X230643Y243258D01*
X230578Y243177D01*
X230517Y243093D01*
X230458Y243008D01*
X230403Y242920D01*
X230351Y242830D01*
X230303Y242738D01*
X230258Y242645D01*
X230217Y242549D01*
X230179Y242453D01*
X230145Y242355D01*
X234148Y240471D02*
X234213Y240536D01*
X234276Y240603D01*
X234336Y240673D01*
X234393Y240746D01*
X234447Y240820D01*
X234498Y240897D01*
X234546Y240976D01*
X234591Y241056D01*
X234632Y241139D01*
X234670Y241222D01*
X234705Y241308D01*
X234736Y241395D01*
X234763Y241483D01*
X234787Y241572D01*
X234808Y241661D01*
X234824Y241752D01*
X234837Y241843D01*
X234847Y241935D01*
X234852Y242027D01*
X234854Y242119D01*
X234148Y240471D02*
X230146Y235762D01*
X234854Y235762D01*
D11*
X291300Y173500D03*
X208700Y173500D03*
X294900Y239000D03*
X205100Y239000D03*
X291300Y181500D03*
X208700Y181500D03*
X294900Y231000D03*
X205100Y231000D03*
X291300Y177500D03*
X208700Y177000D03*
X205100Y235000D03*
X294900Y235000D03*
D12*
X98500Y150000D03*
X91500Y150000D03*
X98500Y138000D03*
X91500Y138000D03*
X98500Y162000D03*
X91500Y162000D03*
D13*
X85000Y90000D03*
X73000Y90000D03*
X97000Y90000D03*
D14*
X321000Y232000D03*
X357868Y231404D03*
X376000Y225000D03*
X424000Y148000D03*
X430000Y148000D03*
X436000Y148000D03*
X418000Y148000D03*
X219000Y201000D03*
X219000Y218000D03*
D15*
X281000Y188000D03*
D14*
X278000Y136000D03*
X312000Y135000D03*
X322000Y112000D03*
X307000Y91000D03*
X288000Y76000D03*
X100000Y196000D03*
X78000Y196000D03*
X322000Y197000D03*
X320000Y178000D03*
D15*
X235000Y73000D03*
X204000Y95000D03*
D14*
X51000Y140000D03*
X95000Y204000D03*
X186000Y202000D03*
X199000Y176000D03*
X410000Y157000D03*
X394000Y151000D03*
X410000Y151000D03*
X295000Y155000D03*
X299000Y123000D03*
X408000Y208000D03*
X369000Y121000D03*
X400000Y52000D03*
X400000Y46000D03*
X418000Y69000D03*
X426000Y69000D03*
D16*
X341500Y188500D03*
X341500Y192500D03*
X341500Y184500D03*
X341500Y180500D03*
X341500Y176500D03*
X349500Y172500D03*
X345500Y172500D03*
X349500Y176500D03*
X353500Y176500D03*
X349500Y168500D03*
X337500Y168500D03*
X337500Y160500D03*
X361500Y160500D03*
X361500Y164500D03*
X357500Y168500D03*
X357500Y172500D03*
X353500Y184500D03*
X357500Y184500D03*
X361500Y184500D03*
X361500Y188500D03*
X365500Y188500D03*
X369500Y188500D03*
X369500Y192500D03*
X365500Y192500D03*
X361500Y192500D03*
X357500Y188500D03*
X365500Y184500D03*
D14*
X294000Y214000D03*
D15*
X241000Y107000D03*
X274000Y108000D03*
D14*
X198500Y166000D03*
X223000Y166000D03*
D15*
X278000Y166000D03*
D14*
X206000Y202000D03*
X399000Y211000D03*
X392000Y219000D03*
X375000Y121000D03*
X375000Y137000D03*
X477000Y148000D03*
X447000Y140000D03*
X413000Y88000D03*
X405000Y95000D03*
D15*
X321000Y148000D03*
X321000Y141000D03*
X264000Y188000D03*
D14*
X184000Y165000D03*
X174000Y143000D03*
X157000Y179000D03*
X157000Y172000D03*
X22000Y146000D03*
X41000Y146000D03*
X52000Y121000D03*
X58000Y101000D03*
X140000Y121000D03*
X124000Y104000D03*
X94000Y55000D03*
X33000Y73000D03*
D15*
X174000Y74000D03*
X205000Y45000D03*
D14*
X305000Y45000D03*
D15*
X146000Y79000D03*
X146000Y73000D03*
D14*
X142000Y32000D03*
X134000Y32000D03*
X125000Y32000D03*
D15*
X175000Y45000D03*
X235000Y45000D03*
X242500Y164100D03*
D14*
X228000Y206050D03*
X348400Y207700D03*
X295000Y9000D03*
X330500Y207700D03*
X285000Y9000D03*
D16*
X361500Y168500D03*
D15*
X382000Y128000D03*
D16*
X361500Y168500D03*
D14*
X446000Y125000D03*
X334000Y108000D03*
D15*
X388500Y144000D03*
X380500Y149000D03*
X386000Y149000D03*
D16*
X365500Y168500D03*
X369500Y168500D03*
X369500Y164500D03*
X365500Y164500D03*
X349500Y180500D03*
D14*
X368000Y208000D03*
X322000Y208000D03*
X386000Y86000D03*
D16*
X349500Y180500D03*
X353500Y172500D03*
D14*
X338000Y133000D03*
X346000Y133000D03*
X338000Y126000D03*
X346000Y126000D03*
X411000Y102000D03*
X425000Y102000D03*
X418000Y102000D03*
X411000Y108000D03*
D16*
X349500Y164500D03*
X353500Y172500D03*
X349500Y164500D03*
D14*
X422000Y174000D03*
X422000Y181000D03*
X356000Y85000D03*
X356000Y77000D03*
X230000Y166000D03*
X236000Y166000D03*
X265000Y166000D03*
X259000Y144000D03*
X238000Y148000D03*
D16*
X349500Y184500D03*
D14*
X358000Y208000D03*
X422000Y207000D03*
D16*
X349500Y184500D03*
D14*
X394500Y185500D03*
D16*
X361500Y172500D03*
X361500Y172500D03*
D14*
X384000Y185500D03*
D16*
X357500Y176500D03*
X357500Y176500D03*
X361500Y180500D03*
X361500Y176500D03*
X365500Y172500D03*
X369500Y172500D03*
D14*
X251000Y209000D03*
X306000Y221000D03*
X303000Y176000D03*
X191000Y222000D03*
D15*
X256000Y150000D03*
D14*
X312000Y227000D03*
X308000Y169000D03*
X191000Y235000D03*
D16*
X349500Y188500D03*
D14*
X339400Y208000D03*
D16*
X349500Y188500D03*
D14*
X265000Y8000D03*
D16*
X341500Y164500D03*
D14*
X335250Y116000D03*
X35000Y177000D03*
D16*
X341500Y164500D03*
X345500Y184500D03*
D14*
X418000Y164000D03*
X275000Y8000D03*
D16*
X345500Y184500D03*
D15*
X275350Y183000D03*
D14*
X291202Y144848D03*
D15*
X269650Y183000D03*
D14*
X284150Y144700D03*
X297621Y76621D03*
X92600Y189000D03*
X126000Y138100D03*
X113000Y218000D03*
X329000Y189700D03*
X314712Y119288D03*
D15*
X254500Y167864D03*
X247500Y150200D03*
D14*
X329000Y183000D03*
X309621Y124379D03*
X183000Y154450D03*
X147000Y172300D03*
X182900Y147750D03*
X147000Y179000D03*
D16*
X353500Y188500D03*
D14*
X339000Y232000D03*
X348000Y232000D03*
X331000Y232000D03*
X418000Y42000D03*
X425000Y49000D03*
X157000Y230000D03*
D15*
X267000Y76750D03*
D14*
X76000Y140000D03*
D15*
X235000Y104000D03*
D14*
X87000Y71000D03*
D16*
X353500Y188500D03*
D14*
X131000Y227000D03*
X132000Y203000D03*
X383000Y218000D03*
D15*
X260000Y181000D03*
D14*
X227900Y212750D03*
X302712Y81712D03*
X85400Y189000D03*
X120000Y161000D03*
X76000Y160000D03*
X124964Y113965D03*
X129702Y118702D03*
X28000Y138000D03*
X34700Y138000D03*
X62000Y110300D03*
X62000Y117000D03*
X315000Y97900D03*
X315000Y105100D03*
X111000Y79000D03*
D15*
X230000Y82000D03*
X260450Y86000D03*
D14*
X171000Y90000D03*
M02*
