G04 EAGLE Gerber RS-274X export*
G75*
%MOMM*%
%FSLAX34Y34*%
%LPD*%
%IN6_Layer_3*%
%IPPOS*%
%AMOC8*
5,1,8,0,0,1.08239X$1,22.5*%
G01*
%ADD10C,0.152400*%
%ADD11C,0.800000*%
%ADD12C,0.500000*%
%ADD13C,0.550000*%
%ADD14C,0.400000*%
%ADD15C,0.350000*%
%ADD16C,0.250000*%
%ADD17C,0.250000*%
%ADD18C,0.200000*%
%ADD19C,0.300000*%
%ADD20C,0.160000*%

G36*
X255872Y4035D02*
X255872Y4035D01*
X255873Y4035D01*
X262466Y4165D01*
X262467Y4166D01*
X262469Y4166D01*
X262469Y4168D01*
X262471Y4170D01*
X262469Y4171D01*
X262469Y4174D01*
X260505Y6138D01*
X260505Y9862D01*
X263138Y12495D01*
X266862Y12495D01*
X269495Y9862D01*
X269495Y6138D01*
X267698Y4341D01*
X267698Y4339D01*
X267696Y4338D01*
X267697Y4336D01*
X267697Y4334D01*
X267700Y4334D01*
X267701Y4332D01*
X271505Y4467D01*
X272131Y4500D01*
X272133Y4501D01*
X272134Y4501D01*
X272134Y4503D01*
X272136Y4504D01*
X272135Y4506D01*
X272135Y4508D01*
X270505Y6138D01*
X270505Y9862D01*
X273138Y12495D01*
X276862Y12495D01*
X279495Y9862D01*
X279495Y6138D01*
X278177Y4820D01*
X278177Y4818D01*
X278175Y4816D01*
X278176Y4815D01*
X278176Y4813D01*
X278179Y4813D01*
X278181Y4811D01*
X279293Y4868D01*
X282543Y5088D01*
X282545Y5089D01*
X282546Y5089D01*
X282546Y5091D01*
X282548Y5092D01*
X282546Y5094D01*
X282547Y5096D01*
X280505Y7138D01*
X280505Y10862D01*
X283138Y13495D01*
X286862Y13495D01*
X289495Y10862D01*
X289495Y7138D01*
X287823Y5465D01*
X287822Y5463D01*
X287821Y5462D01*
X287822Y5461D01*
X287822Y5459D01*
X287825Y5459D01*
X287826Y5457D01*
X291839Y5793D01*
X291840Y5794D01*
X291841Y5794D01*
X291841Y5795D01*
X291843Y5797D01*
X291842Y5799D01*
X291842Y5801D01*
X290505Y7138D01*
X290505Y10862D01*
X293138Y13495D01*
X296862Y13495D01*
X299495Y10862D01*
X299495Y7138D01*
X298807Y6450D01*
X298807Y6448D01*
X298806Y6447D01*
X298807Y6446D01*
X298807Y6444D01*
X298809Y6443D01*
X298811Y6442D01*
X302448Y6805D01*
X310069Y7693D01*
X317631Y8701D01*
X325124Y9827D01*
X332539Y11071D01*
X339871Y12431D01*
X347112Y13905D01*
X354253Y15493D01*
X354254Y15493D01*
X361289Y17192D01*
X368213Y19001D01*
X375016Y20917D01*
X381690Y22939D01*
X388232Y25064D01*
X394633Y27290D01*
X400886Y29615D01*
X406985Y32036D01*
X412924Y34550D01*
X418698Y37155D01*
X424299Y39847D01*
X429724Y42624D01*
X434963Y45482D01*
X440015Y48418D01*
X444871Y51428D01*
X444872Y51428D01*
X449531Y54510D01*
X449531Y54511D01*
X453986Y57659D01*
X458234Y60872D01*
X462268Y64144D01*
X462269Y64144D01*
X466088Y67472D01*
X469687Y70851D01*
X469688Y70851D01*
X473064Y74277D01*
X476216Y77747D01*
X479139Y81256D01*
X481831Y84799D01*
X484291Y88373D01*
X484292Y88373D01*
X486518Y91973D01*
X488511Y95596D01*
X490268Y99236D01*
X490268Y99237D01*
X491790Y102893D01*
X491791Y102893D01*
X493077Y106561D01*
X493077Y106562D01*
X493078Y106562D01*
X494130Y110239D01*
X494947Y113924D01*
X495531Y117614D01*
X495881Y121306D01*
X495998Y125000D01*
X495881Y128694D01*
X495531Y132386D01*
X494947Y136076D01*
X494130Y139761D01*
X493078Y143438D01*
X493077Y143439D01*
X491791Y147107D01*
X491790Y147107D01*
X490268Y150763D01*
X490268Y150764D01*
X488511Y154404D01*
X486518Y158027D01*
X484292Y161627D01*
X484291Y161627D01*
X481831Y165201D01*
X479139Y168744D01*
X476216Y172253D01*
X473064Y175723D01*
X469688Y179149D01*
X469687Y179149D01*
X466088Y182528D01*
X462269Y185856D01*
X462268Y185856D01*
X458234Y189128D01*
X458233Y189128D01*
X453986Y192341D01*
X449531Y195489D01*
X449531Y195490D01*
X444872Y198572D01*
X440015Y201582D01*
X434963Y204518D01*
X429724Y207376D01*
X426182Y209189D01*
X426179Y209189D01*
X426176Y209189D01*
X426176Y209188D01*
X426175Y209188D01*
X426176Y209185D01*
X426176Y209184D01*
X426176Y209181D01*
X426495Y208862D01*
X426495Y205138D01*
X423862Y202505D01*
X420138Y202505D01*
X417505Y205138D01*
X417505Y208862D01*
X420138Y211495D01*
X421485Y211495D01*
X421487Y211497D01*
X421489Y211497D01*
X421489Y211499D01*
X421490Y211500D01*
X421488Y211502D01*
X421487Y211505D01*
X418698Y212845D01*
X412924Y215450D01*
X406985Y217964D01*
X400886Y220385D01*
X394678Y222693D01*
X394675Y222692D01*
X394673Y222692D01*
X394673Y222691D01*
X394671Y222691D01*
X394672Y222688D01*
X394672Y222685D01*
X396495Y220862D01*
X396495Y217138D01*
X393862Y214505D01*
X390138Y214505D01*
X387504Y217139D01*
X387502Y217139D01*
X387501Y217141D01*
X387499Y217139D01*
X387497Y217140D01*
X387497Y217137D01*
X387495Y217136D01*
X387495Y216138D01*
X384862Y213505D01*
X381138Y213505D01*
X378505Y216138D01*
X378505Y219862D01*
X381138Y222495D01*
X384862Y222495D01*
X387496Y219861D01*
X387498Y219861D01*
X387499Y219859D01*
X387501Y219861D01*
X387503Y219860D01*
X387503Y219863D01*
X387505Y219864D01*
X387505Y220862D01*
X390138Y223495D01*
X392345Y223495D01*
X392347Y223497D01*
X392349Y223498D01*
X392349Y223499D01*
X392350Y223500D01*
X392348Y223502D01*
X392347Y223505D01*
X388232Y224936D01*
X381690Y227061D01*
X379709Y227661D01*
X379707Y227660D01*
X379704Y227661D01*
X379704Y227659D01*
X379703Y227659D01*
X379704Y227656D01*
X379704Y227653D01*
X380495Y226862D01*
X380495Y223138D01*
X377862Y220505D01*
X374138Y220505D01*
X371505Y223138D01*
X371505Y226862D01*
X374003Y229360D01*
X374003Y229362D01*
X374004Y229362D01*
X374004Y229364D01*
X374004Y229367D01*
X374002Y229367D01*
X374001Y229369D01*
X368213Y230999D01*
X362369Y232526D01*
X362368Y232526D01*
X362367Y232525D01*
X362363Y232523D01*
X362364Y232522D01*
X362363Y232521D01*
X362363Y229542D01*
X359729Y226909D01*
X356006Y226909D01*
X353372Y229542D01*
X353372Y233266D01*
X354537Y234431D01*
X354537Y234432D01*
X354538Y234433D01*
X354537Y234434D01*
X354538Y234437D01*
X354536Y234438D01*
X354535Y234439D01*
X354254Y234507D01*
X347112Y236095D01*
X347111Y236095D01*
X339871Y237569D01*
X332539Y238929D01*
X325124Y240173D01*
X317632Y241299D01*
X317631Y241299D01*
X310069Y242307D01*
X302448Y243195D01*
X299621Y243477D01*
X299619Y243476D01*
X299617Y243476D01*
X299617Y243475D01*
X299615Y243474D01*
X299617Y243472D01*
X299617Y243469D01*
X300406Y242679D01*
X301395Y240292D01*
X301395Y237708D01*
X301103Y237002D01*
X301103Y237000D01*
X301103Y236999D01*
X301103Y236998D01*
X301395Y236292D01*
X301395Y233708D01*
X301103Y233002D01*
X301103Y233000D01*
X301103Y232999D01*
X301103Y232998D01*
X301395Y232292D01*
X301395Y229708D01*
X300406Y227321D01*
X298579Y225494D01*
X296192Y224505D01*
X293608Y224505D01*
X291221Y225494D01*
X289394Y227321D01*
X288405Y229708D01*
X288405Y232292D01*
X288697Y232998D01*
X288697Y233000D01*
X288697Y233002D01*
X288405Y233708D01*
X288405Y234000D01*
X288400Y234005D01*
X248890Y234005D01*
X248888Y234004D01*
X248887Y234004D01*
X246823Y232505D01*
X241296Y232505D01*
X239798Y234004D01*
X239795Y234004D01*
X239794Y234005D01*
X211600Y234005D01*
X211595Y234001D01*
X211596Y234000D01*
X211595Y234000D01*
X211595Y233708D01*
X211303Y233002D01*
X211303Y233000D01*
X211303Y232999D01*
X211303Y232998D01*
X211595Y232292D01*
X211595Y229708D01*
X210606Y227321D01*
X208779Y225494D01*
X206392Y224505D01*
X203808Y224505D01*
X201421Y225494D01*
X199594Y227321D01*
X198605Y229708D01*
X198605Y232292D01*
X198897Y232998D01*
X198897Y233000D01*
X198897Y233002D01*
X198605Y233708D01*
X198605Y236292D01*
X198897Y236998D01*
X198897Y237000D01*
X198897Y237002D01*
X198605Y237708D01*
X198605Y240292D01*
X199594Y242679D01*
X200392Y243477D01*
X200392Y243479D01*
X200393Y243481D01*
X200392Y243482D01*
X200392Y243484D01*
X200390Y243484D01*
X200388Y243486D01*
X193733Y242766D01*
X186141Y241818D01*
X178613Y240751D01*
X171159Y239566D01*
X163783Y238264D01*
X156497Y236846D01*
X149306Y235315D01*
X149305Y235315D01*
X142214Y233671D01*
X142213Y233671D01*
X135234Y231917D01*
X133045Y231323D01*
X133044Y231322D01*
X133043Y231322D01*
X133043Y231320D01*
X133041Y231318D01*
X133043Y231317D01*
X133042Y231315D01*
X135495Y228862D01*
X135495Y225138D01*
X132862Y222505D01*
X129138Y222505D01*
X126505Y225138D01*
X126505Y228862D01*
X127406Y229763D01*
X127406Y229765D01*
X127407Y229767D01*
X127406Y229768D01*
X127406Y229770D01*
X127403Y229770D01*
X127401Y229771D01*
X121631Y228085D01*
X115022Y226012D01*
X115022Y226011D01*
X108550Y223835D01*
X102222Y221559D01*
X96045Y219186D01*
X90024Y216718D01*
X84167Y214159D01*
X78479Y211510D01*
X72967Y208775D01*
X72966Y208775D01*
X67634Y205957D01*
X62487Y203060D01*
X57532Y200086D01*
X52774Y197039D01*
X48216Y193923D01*
X43864Y190742D01*
X39722Y187500D01*
X35795Y184199D01*
X32084Y180845D01*
X28596Y177442D01*
X28596Y177441D01*
X25332Y173993D01*
X22294Y170503D01*
X19486Y166977D01*
X19486Y166976D01*
X16910Y163418D01*
X14566Y159830D01*
X12456Y156219D01*
X12456Y156218D01*
X10581Y152586D01*
X8941Y148937D01*
X8941Y148936D01*
X7537Y145274D01*
X7536Y145274D01*
X6367Y141601D01*
X5432Y137919D01*
X4731Y134232D01*
X4732Y134232D01*
X4731Y134232D01*
X4731Y134231D01*
X4731Y134226D01*
X4730Y134221D01*
X4729Y134216D01*
X4726Y134191D01*
X4726Y134186D01*
X4725Y134181D01*
X4724Y134176D01*
X4724Y134171D01*
X4720Y134141D01*
X4719Y134136D01*
X4719Y134131D01*
X4718Y134126D01*
X4714Y134097D01*
X4714Y134092D01*
X4713Y134087D01*
X4712Y134082D01*
X4712Y134077D01*
X4709Y134052D01*
X4708Y134047D01*
X4707Y134042D01*
X4707Y134037D01*
X4706Y134032D01*
X4702Y134002D01*
X4702Y133997D01*
X4701Y133992D01*
X4701Y133987D01*
X4697Y133958D01*
X4697Y133957D01*
X4696Y133953D01*
X4696Y133952D01*
X4696Y133948D01*
X4695Y133948D01*
X4696Y133948D01*
X4695Y133943D01*
X4694Y133938D01*
X4691Y133913D01*
X4690Y133908D01*
X4690Y133903D01*
X4689Y133898D01*
X4689Y133893D01*
X4685Y133868D01*
X4685Y133863D01*
X4684Y133858D01*
X4684Y133853D01*
X4683Y133848D01*
X4679Y133818D01*
X4679Y133813D01*
X4678Y133808D01*
X4677Y133803D01*
X4674Y133774D01*
X4673Y133774D01*
X4674Y133774D01*
X4673Y133769D01*
X4672Y133764D01*
X4672Y133759D01*
X4671Y133754D01*
X4668Y133729D01*
X4667Y133724D01*
X4667Y133719D01*
X4666Y133714D01*
X4665Y133709D01*
X4662Y133679D01*
X4661Y133674D01*
X4660Y133669D01*
X4660Y133664D01*
X4656Y133635D01*
X4656Y133634D01*
X4655Y133630D01*
X4655Y133625D01*
X4654Y133620D01*
X4653Y133615D01*
X4650Y133590D01*
X4650Y133585D01*
X4649Y133580D01*
X4648Y133575D01*
X4648Y133570D01*
X4644Y133540D01*
X4643Y133535D01*
X4643Y133530D01*
X4642Y133525D01*
X4638Y133495D01*
X4638Y133490D01*
X4637Y133485D01*
X4636Y133481D01*
X4636Y133480D01*
X4636Y133476D01*
X4636Y133475D01*
X4633Y133451D01*
X4632Y133446D01*
X4631Y133441D01*
X4631Y133436D01*
X4630Y133431D01*
X4626Y133401D01*
X4626Y133396D01*
X4625Y133391D01*
X4625Y133386D01*
X4624Y133386D01*
X4625Y133386D01*
X4621Y133356D01*
X4620Y133351D01*
X4619Y133346D01*
X4619Y133341D01*
X4618Y133336D01*
X4615Y133312D01*
X4614Y133307D01*
X4614Y133302D01*
X4613Y133297D01*
X4613Y133292D01*
X4609Y133262D01*
X4608Y133257D01*
X4608Y133252D01*
X4607Y133247D01*
X4603Y133217D01*
X4603Y133212D01*
X4602Y133212D01*
X4603Y133212D01*
X4602Y133207D01*
X4601Y133202D01*
X4601Y133197D01*
X4597Y133172D01*
X4597Y133167D01*
X4596Y133163D01*
X4596Y133162D01*
X4596Y133158D01*
X4596Y133157D01*
X4595Y133153D01*
X4591Y133123D01*
X4591Y133118D01*
X4590Y133113D01*
X4589Y133108D01*
X4586Y133078D01*
X4585Y133073D01*
X4584Y133068D01*
X4584Y133063D01*
X4580Y133033D01*
X4579Y133028D01*
X4579Y133023D01*
X4578Y133018D01*
X4577Y133013D01*
X4574Y132989D01*
X4574Y132984D01*
X4573Y132979D01*
X4572Y132974D01*
X4572Y132969D01*
X4568Y132939D01*
X4567Y132934D01*
X4567Y132929D01*
X4566Y132924D01*
X4562Y132894D01*
X4562Y132889D01*
X4561Y132884D01*
X4560Y132879D01*
X4560Y132874D01*
X4557Y132849D01*
X4556Y132845D01*
X4556Y132844D01*
X4555Y132840D01*
X4555Y132839D01*
X4555Y132835D01*
X4554Y132830D01*
X4550Y132800D01*
X4550Y132795D01*
X4549Y132790D01*
X4548Y132785D01*
X4545Y132755D01*
X4544Y132750D01*
X4543Y132745D01*
X4543Y132740D01*
X4542Y132735D01*
X4539Y132710D01*
X4538Y132705D01*
X4538Y132700D01*
X4537Y132695D01*
X4537Y132690D01*
X4533Y132661D01*
X4532Y132656D01*
X4532Y132651D01*
X4531Y132651D01*
X4532Y132651D01*
X4531Y132646D01*
X4527Y132616D01*
X4526Y132611D01*
X4526Y132606D01*
X4525Y132601D01*
X4525Y132596D01*
X4521Y132571D01*
X4521Y132566D01*
X4520Y132561D01*
X4520Y132556D01*
X4519Y132551D01*
X4515Y132522D01*
X4515Y132521D01*
X4515Y132517D01*
X4514Y132512D01*
X4513Y132507D01*
X4510Y132477D01*
X4509Y132477D01*
X4510Y132477D01*
X4509Y132472D01*
X4508Y132467D01*
X4508Y132462D01*
X4507Y132457D01*
X4504Y132432D01*
X4503Y132427D01*
X4503Y132422D01*
X4502Y132417D01*
X4501Y132412D01*
X4498Y132382D01*
X4497Y132377D01*
X4496Y132372D01*
X4496Y132368D01*
X4496Y132367D01*
X4492Y132338D01*
X4491Y132333D01*
X4491Y132328D01*
X4490Y132323D01*
X4486Y132293D01*
X4486Y132288D01*
X4485Y132283D01*
X4484Y132278D01*
X4484Y132273D01*
X4481Y132248D01*
X4480Y132243D01*
X4479Y132238D01*
X4479Y132233D01*
X4478Y132228D01*
X4474Y132199D01*
X4474Y132194D01*
X4473Y132189D01*
X4472Y132184D01*
X4469Y132154D01*
X4468Y132149D01*
X4467Y132144D01*
X4467Y132139D01*
X4466Y132134D01*
X4463Y132109D01*
X4462Y132104D01*
X4462Y132099D01*
X4461Y132094D01*
X4461Y132089D01*
X4460Y132089D01*
X4457Y132059D01*
X4456Y132054D01*
X4455Y132050D01*
X4455Y132049D01*
X4455Y132045D01*
X4455Y132044D01*
X4451Y132015D01*
X4450Y132010D01*
X4450Y132005D01*
X4449Y132000D01*
X4449Y131995D01*
X4445Y131970D01*
X4445Y131965D01*
X4444Y131960D01*
X4444Y131955D01*
X4443Y131950D01*
X4439Y131920D01*
X4439Y131915D01*
X4438Y131915D01*
X4439Y131915D01*
X4438Y131910D01*
X4437Y131905D01*
X4433Y131876D01*
X4433Y131871D01*
X4432Y131866D01*
X4432Y131861D01*
X4431Y131856D01*
X4428Y131831D01*
X4427Y131826D01*
X4427Y131821D01*
X4426Y131816D01*
X4425Y131811D01*
X4422Y131781D01*
X4421Y131776D01*
X4420Y131771D01*
X4420Y131766D01*
X4416Y131736D01*
X4415Y131732D01*
X4415Y131731D01*
X4415Y131727D01*
X4415Y131726D01*
X4414Y131722D01*
X4413Y131717D01*
X4410Y131692D01*
X4410Y131687D01*
X4409Y131682D01*
X4408Y131677D01*
X4408Y131672D01*
X4404Y131642D01*
X4403Y131637D01*
X4403Y131632D01*
X4402Y131627D01*
X4398Y131597D01*
X4398Y131592D01*
X4397Y131587D01*
X4396Y131582D01*
X4393Y131553D01*
X4392Y131548D01*
X4391Y131543D01*
X4391Y131538D01*
X4390Y131533D01*
X4387Y131508D01*
X4386Y131503D01*
X4386Y131498D01*
X4385Y131493D01*
X4384Y131488D01*
X4381Y131458D01*
X4380Y131453D01*
X4379Y131448D01*
X4379Y131443D01*
X4375Y131414D01*
X4375Y131413D01*
X4374Y131409D01*
X4374Y131408D01*
X4374Y131404D01*
X4373Y131399D01*
X4373Y131394D01*
X4369Y131369D01*
X4369Y131364D01*
X4368Y131359D01*
X4368Y131354D01*
X4367Y131354D01*
X4368Y131354D01*
X4367Y131349D01*
X4363Y131319D01*
X4362Y131314D01*
X4362Y131309D01*
X4361Y131304D01*
X4357Y131274D01*
X4357Y131269D01*
X4356Y131264D01*
X4356Y131259D01*
X4355Y131255D01*
X4355Y131254D01*
X4352Y131230D01*
X4351Y131225D01*
X4351Y131220D01*
X4350Y131215D01*
X4349Y131210D01*
X4346Y131180D01*
X4345Y131180D01*
X4346Y131180D01*
X4345Y131175D01*
X4344Y131170D01*
X4344Y131165D01*
X4340Y131135D01*
X4339Y131130D01*
X4339Y131125D01*
X4338Y131120D01*
X4337Y131115D01*
X4334Y131091D01*
X4334Y131090D01*
X4334Y131086D01*
X4333Y131081D01*
X4332Y131076D01*
X4332Y131071D01*
X4328Y131041D01*
X4327Y131036D01*
X4327Y131031D01*
X4326Y131026D01*
X4322Y130996D01*
X4322Y130991D01*
X4321Y130986D01*
X4320Y130981D01*
X4320Y130976D01*
X4317Y130951D01*
X4316Y130946D01*
X4315Y130941D01*
X4315Y130937D01*
X4315Y130936D01*
X4314Y130932D01*
X4314Y130931D01*
X4310Y130902D01*
X4310Y130897D01*
X4309Y130892D01*
X4308Y130887D01*
X4305Y130857D01*
X4304Y130852D01*
X4303Y130847D01*
X4303Y130842D01*
X4299Y130812D01*
X4298Y130807D01*
X4298Y130802D01*
X4297Y130797D01*
X4297Y130792D01*
X4296Y130792D01*
X4293Y130768D01*
X4293Y130763D01*
X4292Y130758D01*
X4291Y130753D01*
X4291Y130748D01*
X4287Y130718D01*
X4286Y130713D01*
X4286Y130708D01*
X4285Y130703D01*
X4281Y130673D01*
X4281Y130668D01*
X4280Y130663D01*
X4280Y130658D01*
X4279Y130653D01*
X4276Y130628D01*
X4275Y130623D01*
X4275Y130619D01*
X4274Y130618D01*
X4275Y130618D01*
X4274Y130614D01*
X4274Y130613D01*
X4273Y130609D01*
X4269Y130579D01*
X4269Y130574D01*
X4268Y130569D01*
X4268Y130564D01*
X4265Y130540D01*
X4264Y130534D01*
X4264Y130529D01*
X4264Y130524D01*
X4257Y130415D01*
X4256Y130410D01*
X4256Y130405D01*
X4249Y130296D01*
X4249Y130295D01*
X4249Y130291D01*
X4249Y130286D01*
X4242Y130176D01*
X4241Y130171D01*
X4241Y130166D01*
X4241Y130161D01*
X4234Y130057D01*
X4234Y130052D01*
X4233Y130047D01*
X4233Y130042D01*
X4227Y129938D01*
X4226Y129933D01*
X4226Y129928D01*
X4226Y129923D01*
X4219Y129819D01*
X4219Y129818D01*
X4219Y129814D01*
X4218Y129809D01*
X4218Y129804D01*
X4212Y129699D01*
X4211Y129699D01*
X4212Y129699D01*
X4211Y129694D01*
X4211Y129689D01*
X4211Y129684D01*
X4204Y129575D01*
X4203Y129570D01*
X4203Y129565D01*
X4196Y129456D01*
X4196Y129451D01*
X4196Y129446D01*
X4195Y129446D01*
X4189Y129337D01*
X4188Y129332D01*
X4188Y129327D01*
X4181Y129217D01*
X4181Y129212D01*
X4180Y129207D01*
X4174Y129098D01*
X4173Y129093D01*
X4173Y129088D01*
X4166Y128979D01*
X4166Y128974D01*
X4165Y128969D01*
X4158Y128860D01*
X4158Y128855D01*
X4158Y128850D01*
X4151Y128740D01*
X4151Y128735D01*
X4150Y128730D01*
X4143Y128621D01*
X4143Y128616D01*
X4143Y128611D01*
X4136Y128502D01*
X4136Y128497D01*
X4135Y128492D01*
X4128Y128383D01*
X4128Y128378D01*
X4128Y128373D01*
X4121Y128263D01*
X4121Y128258D01*
X4120Y128258D01*
X4121Y128258D01*
X4120Y128253D01*
X4113Y128144D01*
X4113Y128139D01*
X4113Y128134D01*
X4106Y128025D01*
X4105Y128020D01*
X4105Y128015D01*
X4098Y127906D01*
X4098Y127901D01*
X4098Y127896D01*
X4091Y127786D01*
X4090Y127781D01*
X4090Y127776D01*
X4083Y127667D01*
X4083Y127662D01*
X4083Y127657D01*
X4076Y127548D01*
X4075Y127543D01*
X4075Y127538D01*
X4068Y127429D01*
X4068Y127424D01*
X4067Y127419D01*
X4061Y127309D01*
X4060Y127304D01*
X4060Y127299D01*
X4053Y127190D01*
X4053Y127185D01*
X4052Y127180D01*
X4046Y127071D01*
X4045Y127071D01*
X4046Y127071D01*
X4045Y127066D01*
X4045Y127061D01*
X4038Y126952D01*
X4038Y126947D01*
X4037Y126942D01*
X4031Y126847D01*
X4032Y126847D01*
X4031Y126847D01*
X4031Y123153D01*
X4032Y123153D01*
X4031Y123153D01*
X4265Y119460D01*
X4731Y115768D01*
X4732Y115768D01*
X4731Y115768D01*
X5432Y112081D01*
X6367Y108399D01*
X7536Y104726D01*
X7537Y104726D01*
X8941Y101064D01*
X8941Y101063D01*
X10581Y97414D01*
X12456Y93782D01*
X12456Y93781D01*
X14566Y90170D01*
X16910Y86582D01*
X19486Y83024D01*
X19486Y83023D01*
X22294Y79497D01*
X25332Y76007D01*
X28496Y72664D01*
X28498Y72664D01*
X28499Y72662D01*
X28500Y72663D01*
X28500Y72662D01*
X28501Y72663D01*
X28503Y72663D01*
X28503Y72665D01*
X28505Y72667D01*
X28505Y74862D01*
X31138Y77495D01*
X34862Y77495D01*
X37495Y74862D01*
X37495Y71138D01*
X34862Y68505D01*
X32817Y68505D01*
X32815Y68504D01*
X32813Y68504D01*
X32813Y68502D01*
X32812Y68500D01*
X32813Y68499D01*
X32813Y68496D01*
X35795Y65801D01*
X39722Y62500D01*
X43864Y59258D01*
X48216Y56077D01*
X52774Y52961D01*
X57532Y49914D01*
X62487Y46940D01*
X67634Y44043D01*
X72966Y41225D01*
X72967Y41225D01*
X78479Y38490D01*
X84168Y35841D01*
X90024Y33282D01*
X96045Y30814D01*
X102222Y28441D01*
X108550Y26165D01*
X115022Y23989D01*
X115022Y23988D01*
X121631Y21915D01*
X128371Y19945D01*
X135234Y18083D01*
X142213Y16329D01*
X149305Y14685D01*
X156497Y13154D01*
X163783Y11736D01*
X171159Y10434D01*
X178613Y9249D01*
X186141Y8182D01*
X193733Y7234D01*
X201384Y6406D01*
X209082Y5700D01*
X216823Y5115D01*
X224597Y4653D01*
X232397Y4313D01*
X240215Y4097D01*
X248043Y4004D01*
X255872Y4035D01*
G37*
%LPC*%
G36*
X354138Y72505D02*
X354138Y72505D01*
X351505Y75138D01*
X351505Y78862D01*
X353139Y80496D01*
X353139Y80498D01*
X353141Y80499D01*
X353139Y80501D01*
X353140Y80503D01*
X353137Y80503D01*
X353136Y80505D01*
X337966Y80505D01*
X332505Y85966D01*
X332505Y103500D01*
X332500Y103505D01*
X332500Y103504D01*
X332500Y103505D01*
X332138Y103505D01*
X329505Y106138D01*
X329505Y109862D01*
X332138Y112495D01*
X332386Y112495D01*
X332387Y112496D01*
X332389Y112496D01*
X332389Y112498D01*
X332391Y112500D01*
X332389Y112501D01*
X332389Y112504D01*
X330755Y114138D01*
X330755Y115550D01*
X330753Y115552D01*
X330753Y115554D01*
X325755Y120552D01*
X325755Y140750D01*
X325750Y140755D01*
X325750Y140754D01*
X325750Y140755D01*
X309700Y140755D01*
X309698Y140753D01*
X309696Y140753D01*
X293448Y124505D01*
X163552Y124505D01*
X114554Y173503D01*
X114551Y173504D01*
X114550Y173505D01*
X37864Y173505D01*
X37862Y173503D01*
X37861Y173503D01*
X36862Y172505D01*
X33138Y172505D01*
X30505Y175138D01*
X30505Y178862D01*
X33138Y181495D01*
X36862Y181495D01*
X37861Y180497D01*
X37863Y180496D01*
X37864Y180495D01*
X117448Y180495D01*
X166446Y131497D01*
X166449Y131496D01*
X166450Y131495D01*
X276136Y131495D01*
X276137Y131496D01*
X276139Y131496D01*
X276139Y131498D01*
X276141Y131500D01*
X276139Y131501D01*
X276139Y131504D01*
X273505Y134138D01*
X273505Y137862D01*
X276138Y140495D01*
X278450Y140495D01*
X278451Y140496D01*
X278453Y140496D01*
X278453Y140498D01*
X278455Y140500D01*
X278453Y140501D01*
X278454Y140504D01*
X278220Y140738D01*
X277155Y143309D01*
X277155Y146091D01*
X278220Y148662D01*
X280188Y150630D01*
X282759Y151695D01*
X285541Y151695D01*
X287495Y150886D01*
X287497Y150887D01*
X287499Y150886D01*
X289810Y151844D01*
X291787Y151844D01*
X291789Y151845D01*
X291790Y151845D01*
X291790Y151846D01*
X291792Y151848D01*
X291791Y151850D01*
X291791Y151852D01*
X290505Y153138D01*
X290505Y156862D01*
X293138Y159495D01*
X296862Y159495D01*
X299495Y156862D01*
X299495Y153138D01*
X296862Y150505D01*
X295450Y150505D01*
X295449Y150504D01*
X295447Y150504D01*
X295447Y150502D01*
X295445Y150500D01*
X295447Y150499D01*
X295446Y150496D01*
X297132Y148811D01*
X298197Y146240D01*
X298197Y143457D01*
X297132Y140886D01*
X295164Y138918D01*
X292593Y137853D01*
X289810Y137853D01*
X287857Y138662D01*
X287856Y138662D01*
X287854Y138662D01*
X287853Y138662D01*
X285541Y137705D01*
X282759Y137705D01*
X282502Y137811D01*
X282501Y137811D01*
X282499Y137810D01*
X282496Y137809D01*
X282496Y137807D01*
X282495Y137806D01*
X282495Y134138D01*
X279861Y131504D01*
X279861Y131502D01*
X279859Y131501D01*
X279861Y131499D01*
X279860Y131497D01*
X279863Y131497D01*
X279864Y131495D01*
X290550Y131495D01*
X290552Y131497D01*
X290554Y131497D01*
X306802Y147745D01*
X327800Y147745D01*
X327802Y147747D01*
X327804Y147747D01*
X338003Y157946D01*
X338004Y157949D01*
X338005Y157950D01*
X338005Y162697D01*
X338003Y162698D01*
X338003Y162700D01*
X337755Y162949D01*
X337755Y166051D01*
X339949Y168245D01*
X342000Y168245D01*
X342005Y168250D01*
X342004Y168250D01*
X342005Y168250D01*
X342005Y182697D01*
X342003Y182698D01*
X342003Y182700D01*
X341755Y182949D01*
X341755Y186051D01*
X343949Y188245D01*
X345750Y188245D01*
X345755Y188250D01*
X345755Y190051D01*
X346003Y190300D01*
X346003Y190302D01*
X346004Y190302D01*
X346005Y190303D01*
X346005Y196450D01*
X346003Y196452D01*
X346003Y196454D01*
X338954Y203503D01*
X338951Y203504D01*
X338950Y203504D01*
X338950Y203505D01*
X337538Y203505D01*
X335004Y206039D01*
X335002Y206039D01*
X335001Y206041D01*
X334999Y206039D01*
X334997Y206040D01*
X334997Y206037D01*
X334995Y206036D01*
X334995Y205838D01*
X332362Y203205D01*
X328638Y203205D01*
X326104Y205739D01*
X326101Y205739D01*
X326100Y205740D01*
X326099Y205740D01*
X326097Y205740D01*
X326097Y205739D01*
X326096Y205739D01*
X323862Y203505D01*
X320138Y203505D01*
X317505Y206138D01*
X317505Y209862D01*
X320138Y212495D01*
X323862Y212495D01*
X326396Y209961D01*
X326403Y209960D01*
X326403Y209961D01*
X326404Y209961D01*
X328638Y212195D01*
X332362Y212195D01*
X334896Y209661D01*
X334898Y209661D01*
X334899Y209659D01*
X334901Y209661D01*
X334903Y209660D01*
X334903Y209663D01*
X334905Y209664D01*
X334905Y209862D01*
X337538Y212495D01*
X341262Y212495D01*
X343895Y209862D01*
X343895Y209564D01*
X343896Y209563D01*
X343896Y209561D01*
X343898Y209561D01*
X343900Y209559D01*
X343901Y209561D01*
X343904Y209561D01*
X346538Y212195D01*
X350262Y212195D01*
X352895Y209562D01*
X352895Y205838D01*
X350262Y203205D01*
X349150Y203205D01*
X349149Y203204D01*
X349147Y203204D01*
X349147Y203202D01*
X349145Y203200D01*
X349147Y203199D01*
X349147Y203196D01*
X350946Y201397D01*
X352995Y199348D01*
X352995Y190303D01*
X352997Y190302D01*
X352997Y190300D01*
X353245Y190051D01*
X353245Y188000D01*
X353250Y187995D01*
X353250Y187996D01*
X353250Y187995D01*
X354050Y187995D01*
X354052Y187997D01*
X354054Y187997D01*
X354503Y188446D01*
X354503Y188448D01*
X354504Y188449D01*
X354505Y188450D01*
X354505Y205136D01*
X354503Y205138D01*
X354503Y205139D01*
X353505Y206138D01*
X353505Y209862D01*
X356138Y212495D01*
X359862Y212495D01*
X362495Y209862D01*
X362495Y206138D01*
X361497Y205139D01*
X361496Y205137D01*
X361495Y205136D01*
X361495Y189450D01*
X361496Y189449D01*
X361496Y189447D01*
X361498Y189447D01*
X361500Y189445D01*
X361501Y189447D01*
X361504Y189447D01*
X364503Y192446D01*
X364503Y192448D01*
X364504Y192448D01*
X364504Y192449D01*
X364505Y192450D01*
X364505Y205136D01*
X364503Y205138D01*
X364503Y205139D01*
X363505Y206138D01*
X363505Y209862D01*
X366138Y212495D01*
X369862Y212495D01*
X370361Y211997D01*
X370363Y211996D01*
X370364Y211995D01*
X373655Y211995D01*
X375997Y209653D01*
X386653Y198997D01*
X386656Y198996D01*
X386657Y198995D01*
X399655Y198995D01*
X405653Y192997D01*
X405656Y192996D01*
X405657Y192996D01*
X405657Y192995D01*
X432655Y192995D01*
X457653Y167997D01*
X459995Y165655D01*
X459995Y92345D01*
X457653Y90003D01*
X445997Y78347D01*
X443655Y76005D01*
X390345Y76005D01*
X385847Y80503D01*
X385844Y80504D01*
X385843Y80505D01*
X358864Y80505D01*
X358863Y80504D01*
X358861Y80504D01*
X358861Y80502D01*
X358859Y80500D01*
X358861Y80499D01*
X358861Y80496D01*
X360495Y78862D01*
X360495Y75138D01*
X357862Y72505D01*
X354138Y72505D01*
G37*
%LPD*%
G36*
X353051Y82996D02*
X353051Y82996D01*
X353053Y82996D01*
X353053Y82998D01*
X353055Y82999D01*
X353053Y83001D01*
X353054Y83004D01*
X352505Y83552D01*
X352505Y86448D01*
X354552Y88495D01*
X357448Y88495D01*
X359495Y86448D01*
X359495Y83552D01*
X358946Y83004D01*
X358946Y83002D01*
X358945Y83001D01*
X358946Y82999D01*
X358946Y82997D01*
X358948Y82997D01*
X358950Y82995D01*
X384050Y82995D01*
X384051Y82996D01*
X384053Y82996D01*
X384053Y82998D01*
X384055Y82999D01*
X384053Y83001D01*
X384054Y83004D01*
X382505Y84552D01*
X382505Y87448D01*
X384552Y89495D01*
X387448Y89495D01*
X389495Y87448D01*
X389495Y86743D01*
X389497Y86741D01*
X389497Y86739D01*
X393239Y82997D01*
X393242Y82996D01*
X393243Y82995D01*
X426000Y82995D01*
X426002Y82997D01*
X426004Y82997D01*
X431004Y87996D01*
X431004Y87999D01*
X431005Y88000D01*
X431005Y112000D01*
X431003Y112002D01*
X431004Y112004D01*
X426004Y117004D01*
X426001Y117004D01*
X426000Y117005D01*
X410000Y117005D01*
X409998Y117003D01*
X409996Y117004D01*
X404998Y112005D01*
X359002Y112005D01*
X350005Y121002D01*
X350005Y135000D01*
X350003Y135002D01*
X350004Y135004D01*
X348004Y137004D01*
X348001Y137004D01*
X348000Y137005D01*
X337000Y137005D01*
X336998Y137003D01*
X336996Y137004D01*
X334996Y135004D01*
X334996Y135001D01*
X334995Y135000D01*
X334995Y119644D01*
X334997Y119643D01*
X334996Y119641D01*
X335241Y119397D01*
X335243Y119396D01*
X335244Y119395D01*
X336656Y119395D01*
X338645Y117406D01*
X338645Y114594D01*
X336656Y112605D01*
X335000Y112605D01*
X334995Y112600D01*
X334995Y111400D01*
X334999Y111395D01*
X335000Y111396D01*
X335000Y111395D01*
X335406Y111395D01*
X337395Y109406D01*
X337395Y106594D01*
X335406Y104605D01*
X335000Y104605D01*
X334995Y104600D01*
X334995Y87000D01*
X334997Y86998D01*
X334996Y86996D01*
X338996Y82996D01*
X338999Y82996D01*
X339000Y82995D01*
X353050Y82995D01*
X353051Y82996D01*
G37*
%LPC*%
G36*
X257138Y139505D02*
X257138Y139505D01*
X254505Y142138D01*
X254505Y145750D01*
X254500Y145755D01*
X254500Y145754D01*
X254500Y145755D01*
X254242Y145755D01*
X253340Y146656D01*
X253339Y146657D01*
X253338Y146656D01*
X253337Y146657D01*
X253336Y146656D01*
X253334Y146656D01*
X253334Y146655D01*
X253332Y146654D01*
X253218Y146379D01*
X251321Y144482D01*
X248842Y143455D01*
X246158Y143455D01*
X243679Y144482D01*
X242263Y145898D01*
X242256Y145899D01*
X242256Y145898D01*
X242255Y145898D01*
X239862Y143505D01*
X236138Y143505D01*
X233505Y146138D01*
X233505Y149862D01*
X236138Y152495D01*
X239862Y152495D01*
X240767Y151590D01*
X240768Y151590D01*
X240768Y151589D01*
X240770Y151590D01*
X240774Y151589D01*
X240774Y151591D01*
X240775Y151591D01*
X241782Y154021D01*
X243679Y155918D01*
X246158Y156945D01*
X248842Y156945D01*
X251321Y155918D01*
X252696Y154543D01*
X252698Y154543D01*
X252699Y154541D01*
X252701Y154543D01*
X252703Y154542D01*
X252703Y154545D01*
X252705Y154546D01*
X252705Y157633D01*
X252703Y157635D01*
X252703Y157637D01*
X248763Y161577D01*
X248762Y161577D01*
X248762Y161578D01*
X248760Y161577D01*
X248757Y161577D01*
X248757Y161576D01*
X248755Y161575D01*
X248218Y160279D01*
X246321Y158382D01*
X243842Y157355D01*
X241158Y157355D01*
X238679Y158382D01*
X236782Y160279D01*
X236275Y161502D01*
X236272Y161503D01*
X236271Y161505D01*
X234138Y161505D01*
X233004Y162639D01*
X232997Y162640D01*
X232997Y162639D01*
X232996Y162639D01*
X231862Y161505D01*
X228138Y161505D01*
X226504Y163139D01*
X226497Y163140D01*
X226497Y163139D01*
X226496Y163139D01*
X224862Y161505D01*
X221138Y161505D01*
X220719Y161924D01*
X220718Y161924D01*
X220718Y161925D01*
X220716Y161924D01*
X220712Y161924D01*
X220712Y161923D01*
X220711Y161922D01*
X219930Y160038D01*
X217962Y158070D01*
X215391Y157005D01*
X212609Y157005D01*
X210038Y158070D01*
X208070Y160038D01*
X207005Y162609D01*
X207005Y165391D01*
X207670Y166998D01*
X207670Y166999D01*
X207671Y166999D01*
X207669Y167001D01*
X207668Y167004D01*
X207667Y167004D01*
X207666Y167005D01*
X207408Y167005D01*
X205021Y167994D01*
X203194Y169821D01*
X202205Y172208D01*
X202205Y172836D01*
X202204Y172837D01*
X202204Y172839D01*
X202202Y172839D01*
X202200Y172841D01*
X202199Y172839D01*
X202196Y172839D01*
X200862Y171505D01*
X197138Y171505D01*
X194505Y174138D01*
X194505Y177862D01*
X197138Y180495D01*
X200862Y180495D01*
X202452Y178906D01*
X202453Y178905D01*
X202454Y178905D01*
X202458Y178905D01*
X202458Y178907D01*
X202460Y178907D01*
X202601Y179248D01*
X202600Y179250D01*
X202601Y179252D01*
X202205Y180208D01*
X202205Y182792D01*
X203194Y185179D01*
X205021Y187006D01*
X207408Y187995D01*
X209992Y187995D01*
X212379Y187006D01*
X214206Y185179D01*
X215195Y182792D01*
X215195Y180208D01*
X214799Y179252D01*
X214800Y179250D01*
X214799Y179248D01*
X215195Y178292D01*
X215195Y175708D01*
X215006Y175252D01*
X215007Y175250D01*
X215006Y175248D01*
X215195Y174792D01*
X215195Y172208D01*
X214696Y171002D01*
X214696Y171001D01*
X214695Y171001D01*
X214697Y170999D01*
X214698Y170996D01*
X214699Y170996D01*
X214700Y170995D01*
X215391Y170995D01*
X217962Y169930D01*
X219264Y168628D01*
X219271Y168628D01*
X221138Y170495D01*
X224862Y170495D01*
X226496Y168861D01*
X226503Y168860D01*
X226503Y168861D01*
X226504Y168861D01*
X228138Y170495D01*
X231862Y170495D01*
X232996Y169361D01*
X233003Y169360D01*
X233003Y169361D01*
X233004Y169361D01*
X234138Y170495D01*
X237862Y170495D01*
X238605Y169752D01*
X238612Y169751D01*
X238612Y169752D01*
X238613Y169752D01*
X238679Y169818D01*
X241158Y170845D01*
X243700Y170845D01*
X243705Y170850D01*
X243704Y170850D01*
X243705Y170850D01*
X243705Y180365D01*
X247703Y184363D01*
X247704Y184366D01*
X247705Y184367D01*
X247705Y205936D01*
X247703Y205938D01*
X247703Y205939D01*
X246505Y207138D01*
X246505Y210862D01*
X249138Y213495D01*
X252862Y213495D01*
X255495Y210862D01*
X255495Y207138D01*
X254297Y205939D01*
X254296Y205937D01*
X254295Y205936D01*
X254295Y184846D01*
X254296Y184845D01*
X254296Y184843D01*
X254298Y184843D01*
X254300Y184841D01*
X254300Y184842D01*
X254301Y184842D01*
X254302Y184843D01*
X254304Y184843D01*
X256179Y186718D01*
X258658Y187745D01*
X259750Y187745D01*
X259755Y187750D01*
X259754Y187750D01*
X259755Y187750D01*
X259755Y189758D01*
X262242Y192245D01*
X265758Y192245D01*
X268245Y189758D01*
X268245Y189726D01*
X268246Y189726D01*
X268245Y189725D01*
X268247Y189724D01*
X268250Y189722D01*
X268251Y189723D01*
X268252Y189722D01*
X268308Y189745D01*
X270992Y189745D01*
X272498Y189121D01*
X272500Y189122D01*
X272502Y189121D01*
X274008Y189745D01*
X276692Y189745D01*
X276748Y189722D01*
X276749Y189722D01*
X276751Y189723D01*
X276754Y189724D01*
X276754Y189725D01*
X276755Y189726D01*
X276755Y189758D01*
X279242Y192245D01*
X282758Y192245D01*
X285245Y189758D01*
X285245Y186242D01*
X282758Y183755D01*
X282100Y183755D01*
X282095Y183750D01*
X282096Y183750D01*
X282095Y183750D01*
X282095Y181658D01*
X281068Y179179D01*
X279171Y177282D01*
X276692Y176255D01*
X274008Y176255D01*
X272502Y176879D01*
X272500Y176878D01*
X272498Y176879D01*
X270992Y176255D01*
X268308Y176255D01*
X265829Y177282D01*
X265786Y177325D01*
X265785Y177325D01*
X265785Y177326D01*
X265783Y177325D01*
X265779Y177325D01*
X265779Y177324D01*
X265778Y177323D01*
X265718Y177179D01*
X263821Y175282D01*
X261342Y174255D01*
X258658Y174255D01*
X256179Y175282D01*
X254282Y177179D01*
X253255Y179658D01*
X253255Y180583D01*
X253254Y180584D01*
X253254Y180586D01*
X253252Y180586D01*
X253250Y180588D01*
X253249Y180586D01*
X253246Y180586D01*
X250297Y177637D01*
X250296Y177634D01*
X250295Y177633D01*
X250295Y173210D01*
X250296Y173209D01*
X250296Y173207D01*
X250298Y173207D01*
X250300Y173205D01*
X250301Y173207D01*
X250304Y173207D01*
X250679Y173582D01*
X253158Y174609D01*
X255842Y174609D01*
X258321Y173582D01*
X260218Y171685D01*
X261245Y169206D01*
X261245Y168614D01*
X261246Y168613D01*
X261246Y168611D01*
X261248Y168611D01*
X261250Y168609D01*
X261251Y168611D01*
X261254Y168611D01*
X263138Y170495D01*
X266862Y170495D01*
X269495Y167862D01*
X269495Y164138D01*
X266862Y161505D01*
X263138Y161505D01*
X260505Y164138D01*
X260505Y164710D01*
X260503Y164712D01*
X260502Y164714D01*
X260501Y164714D01*
X260500Y164715D01*
X260498Y164713D01*
X260495Y164712D01*
X260218Y164043D01*
X258321Y162146D01*
X257757Y161912D01*
X257756Y161912D01*
X257756Y161910D01*
X257755Y161906D01*
X257756Y161906D01*
X257756Y161904D01*
X259295Y160365D01*
X259295Y152710D01*
X259297Y152709D01*
X259297Y152707D01*
X260245Y151758D01*
X260245Y148500D01*
X260250Y148495D01*
X260250Y148496D01*
X260250Y148495D01*
X260862Y148495D01*
X263495Y145862D01*
X263495Y142138D01*
X260862Y139505D01*
X257138Y139505D01*
G37*
%LPD*%
%LPC*%
G36*
X296230Y69626D02*
X296230Y69626D01*
X293659Y70691D01*
X291691Y72659D01*
X291496Y73129D01*
X291495Y73130D01*
X291493Y73130D01*
X291490Y73132D01*
X291489Y73131D01*
X291488Y73131D01*
X289862Y71505D01*
X286138Y71505D01*
X283505Y74138D01*
X283505Y77862D01*
X286138Y80495D01*
X289862Y80495D01*
X291124Y79233D01*
X291125Y79233D01*
X291125Y79232D01*
X291127Y79233D01*
X291131Y79233D01*
X291131Y79234D01*
X291132Y79235D01*
X291691Y80583D01*
X293659Y82551D01*
X295865Y83465D01*
X295866Y83467D01*
X295868Y83468D01*
X296782Y85675D01*
X298750Y87643D01*
X301321Y88707D01*
X302923Y88707D01*
X302925Y88709D01*
X302926Y88708D01*
X302927Y88710D01*
X302928Y88712D01*
X302927Y88714D01*
X302927Y88716D01*
X302505Y89138D01*
X302505Y92862D01*
X305138Y95495D01*
X308417Y95495D01*
X308418Y95496D01*
X308418Y95495D01*
X308419Y95497D01*
X308422Y95500D01*
X308421Y95501D01*
X308422Y95502D01*
X308005Y96509D01*
X308005Y99291D01*
X308919Y101498D01*
X308918Y101500D01*
X308919Y101500D01*
X308918Y101501D01*
X308919Y101502D01*
X308005Y103709D01*
X308005Y106491D01*
X309070Y109062D01*
X311038Y111030D01*
X313609Y112095D01*
X316391Y112095D01*
X317498Y111637D01*
X317499Y111637D01*
X317501Y111638D01*
X317504Y111639D01*
X317504Y111640D01*
X317505Y111641D01*
X317505Y112865D01*
X317504Y112866D01*
X317505Y112867D01*
X317503Y112868D01*
X317500Y112870D01*
X317499Y112870D01*
X317498Y112870D01*
X316104Y112293D01*
X313321Y112293D01*
X310750Y113357D01*
X308782Y115325D01*
X307868Y117532D01*
X307866Y117533D01*
X307865Y117535D01*
X305659Y118449D01*
X303691Y120416D01*
X303425Y121058D01*
X303424Y121059D01*
X303425Y121059D01*
X303423Y121060D01*
X303419Y121061D01*
X303419Y121060D01*
X303417Y121060D01*
X300862Y118505D01*
X297138Y118505D01*
X294505Y121138D01*
X294505Y124862D01*
X297138Y127495D01*
X300862Y127495D01*
X302618Y125740D01*
X302619Y125739D01*
X302620Y125738D01*
X302621Y125739D01*
X302622Y125739D01*
X302624Y125739D01*
X302624Y125741D01*
X302626Y125743D01*
X302626Y125770D01*
X303691Y128341D01*
X305659Y130309D01*
X308230Y131374D01*
X309257Y131374D01*
X309258Y131375D01*
X309260Y131375D01*
X309260Y131377D01*
X309262Y131378D01*
X309260Y131380D01*
X309260Y131383D01*
X307505Y133138D01*
X307505Y136862D01*
X310138Y139495D01*
X313862Y139495D01*
X316495Y136862D01*
X316495Y133138D01*
X313862Y130505D01*
X313136Y130505D01*
X313134Y130503D01*
X313132Y130502D01*
X313132Y130501D01*
X313131Y130500D01*
X313133Y130498D01*
X313134Y130495D01*
X313584Y130309D01*
X315552Y128341D01*
X316466Y126135D01*
X316468Y126134D01*
X316468Y126132D01*
X318675Y125218D01*
X320643Y123250D01*
X321708Y120679D01*
X321708Y117896D01*
X321130Y116502D01*
X321130Y116501D01*
X321131Y116499D01*
X321132Y116496D01*
X321134Y116496D01*
X321135Y116495D01*
X323862Y116495D01*
X326495Y113862D01*
X326495Y110138D01*
X323862Y107505D01*
X321583Y107505D01*
X321582Y107504D01*
X321582Y107505D01*
X321581Y107503D01*
X321578Y107500D01*
X321579Y107499D01*
X321578Y107498D01*
X321995Y106491D01*
X321995Y103709D01*
X321081Y101502D01*
X321082Y101500D01*
X321081Y101498D01*
X321995Y99291D01*
X321995Y96509D01*
X320930Y93938D01*
X318962Y91970D01*
X316391Y90905D01*
X313609Y90905D01*
X311502Y91777D01*
X311501Y91777D01*
X311501Y91778D01*
X311500Y91777D01*
X311499Y91776D01*
X311496Y91775D01*
X311496Y91774D01*
X311495Y91773D01*
X311495Y89138D01*
X308862Y86505D01*
X307825Y86505D01*
X307823Y86504D01*
X307821Y86504D01*
X307821Y86502D01*
X307820Y86500D01*
X307821Y86499D01*
X307821Y86496D01*
X308643Y85675D01*
X309708Y83104D01*
X309708Y80321D01*
X308643Y77750D01*
X306675Y75782D01*
X304468Y74868D01*
X304467Y74866D01*
X304465Y74865D01*
X303551Y72659D01*
X301584Y70691D01*
X299013Y69626D01*
X296230Y69626D01*
G37*
%LPD*%
%LPC*%
G36*
X228242Y77755D02*
X228242Y77755D01*
X225755Y80242D01*
X225755Y81200D01*
X225750Y81205D01*
X225750Y81204D01*
X225750Y81205D01*
X174852Y81205D01*
X170554Y85503D01*
X170551Y85504D01*
X170550Y85505D01*
X169138Y85505D01*
X166505Y88138D01*
X166505Y91862D01*
X169138Y94495D01*
X172862Y94495D01*
X175495Y91862D01*
X175495Y90450D01*
X175497Y90448D01*
X175497Y90446D01*
X177746Y88197D01*
X177749Y88196D01*
X177750Y88195D01*
X228748Y88195D01*
X229996Y86946D01*
X230003Y86946D01*
X230004Y86946D01*
X232552Y89495D01*
X257940Y89495D01*
X257941Y89497D01*
X257943Y89497D01*
X258692Y90245D01*
X262208Y90245D01*
X264695Y87758D01*
X264695Y84242D01*
X262208Y81755D01*
X258692Y81755D01*
X257943Y82503D01*
X257941Y82504D01*
X257940Y82505D01*
X235450Y82505D01*
X235448Y82503D01*
X235446Y82503D01*
X234247Y81304D01*
X234246Y81301D01*
X234245Y81300D01*
X234245Y80242D01*
X231758Y77755D01*
X228242Y77755D01*
G37*
%LPD*%
%LPC*%
G36*
X284559Y156755D02*
X284559Y156755D01*
X281896Y157858D01*
X279858Y159896D01*
X278755Y162559D01*
X278755Y165441D01*
X279858Y168104D01*
X281896Y170142D01*
X284559Y171245D01*
X285196Y171245D01*
X285197Y171246D01*
X285198Y171245D01*
X285198Y171247D01*
X285201Y171250D01*
X285200Y171251D01*
X285201Y171252D01*
X284805Y172208D01*
X284805Y174792D01*
X285097Y175498D01*
X285097Y175499D01*
X285097Y175500D01*
X285097Y175501D01*
X285097Y175502D01*
X284805Y176208D01*
X284805Y178792D01*
X285097Y179498D01*
X285097Y179499D01*
X285097Y179500D01*
X285097Y179501D01*
X285097Y179502D01*
X284805Y180208D01*
X284805Y182792D01*
X285794Y185179D01*
X287621Y187006D01*
X290008Y187995D01*
X292592Y187995D01*
X294979Y187006D01*
X296806Y185179D01*
X297795Y182792D01*
X297795Y180208D01*
X297503Y179502D01*
X297503Y179501D01*
X297503Y179500D01*
X297503Y179498D01*
X297795Y178792D01*
X297795Y176208D01*
X297503Y175502D01*
X297503Y175501D01*
X297503Y175500D01*
X297503Y175498D01*
X297795Y174792D01*
X297795Y172208D01*
X296806Y169821D01*
X294979Y167994D01*
X292601Y167009D01*
X292600Y167006D01*
X292598Y167005D01*
X292599Y167004D01*
X292598Y167003D01*
X292599Y167003D01*
X292599Y167002D01*
X293245Y165441D01*
X293245Y162559D01*
X292142Y159896D01*
X290104Y157858D01*
X287441Y156755D01*
X284559Y156755D01*
G37*
%LPD*%
%LPC*%
G36*
X84009Y182005D02*
X84009Y182005D01*
X81438Y183070D01*
X79470Y185038D01*
X78405Y187609D01*
X78405Y190391D01*
X78863Y191498D01*
X78863Y191499D01*
X78862Y191501D01*
X78861Y191504D01*
X78860Y191504D01*
X78859Y191505D01*
X76138Y191505D01*
X73505Y194138D01*
X73505Y197862D01*
X76138Y200495D01*
X79862Y200495D01*
X82495Y197862D01*
X82495Y195376D01*
X82496Y195375D01*
X82495Y195374D01*
X82497Y195374D01*
X82500Y195371D01*
X82501Y195372D01*
X82502Y195371D01*
X84009Y195995D01*
X86791Y195995D01*
X88998Y195081D01*
X89000Y195082D01*
X89002Y195081D01*
X91209Y195995D01*
X93991Y195995D01*
X95498Y195371D01*
X95499Y195371D01*
X95501Y195372D01*
X95504Y195373D01*
X95504Y195375D01*
X95505Y195376D01*
X95505Y197862D01*
X98138Y200495D01*
X101862Y200495D01*
X104495Y197862D01*
X104495Y194138D01*
X101862Y191505D01*
X99141Y191505D01*
X99141Y191504D01*
X99140Y191505D01*
X99139Y191503D01*
X99137Y191500D01*
X99138Y191499D01*
X99137Y191498D01*
X99595Y190391D01*
X99595Y187609D01*
X98530Y185038D01*
X96562Y183070D01*
X93991Y182005D01*
X91209Y182005D01*
X89002Y182919D01*
X89001Y182919D01*
X88999Y182919D01*
X88998Y182919D01*
X86791Y182005D01*
X84009Y182005D01*
G37*
%LPD*%
%LPC*%
G36*
X56138Y96505D02*
X56138Y96505D01*
X53505Y99138D01*
X53505Y102862D01*
X56138Y105495D01*
X56900Y105495D01*
X56901Y105496D01*
X56903Y105496D01*
X56903Y105498D01*
X56905Y105500D01*
X56903Y105501D01*
X56904Y105504D01*
X56070Y106338D01*
X55005Y108909D01*
X55005Y111691D01*
X55815Y113648D01*
X55815Y113649D01*
X55815Y113650D01*
X55815Y113652D01*
X55005Y115609D01*
X55005Y117636D01*
X55004Y117637D01*
X55004Y117639D01*
X55002Y117639D01*
X55000Y117641D01*
X54999Y117640D01*
X54998Y117639D01*
X54996Y117639D01*
X53862Y116505D01*
X50138Y116505D01*
X47505Y119138D01*
X47505Y122862D01*
X50138Y125495D01*
X53862Y125495D01*
X56495Y122862D01*
X56495Y121400D01*
X56496Y121399D01*
X56496Y121397D01*
X56498Y121397D01*
X56500Y121395D01*
X56501Y121396D01*
X56502Y121396D01*
X56504Y121396D01*
X58038Y122930D01*
X60609Y123995D01*
X63391Y123995D01*
X65962Y122930D01*
X67930Y120962D01*
X68995Y118391D01*
X68995Y115609D01*
X68185Y113652D01*
X68185Y113651D01*
X68185Y113650D01*
X68185Y113649D01*
X68185Y113648D01*
X68995Y111691D01*
X68995Y108909D01*
X67930Y106338D01*
X65962Y104370D01*
X63391Y103305D01*
X62064Y103305D01*
X62063Y103304D01*
X62061Y103304D01*
X62061Y103302D01*
X62059Y103300D01*
X62061Y103299D01*
X62061Y103296D01*
X62495Y102862D01*
X62495Y99138D01*
X59862Y96505D01*
X56138Y96505D01*
G37*
%LPD*%
%LPC*%
G36*
X217138Y196505D02*
X217138Y196505D01*
X214505Y199138D01*
X214505Y202862D01*
X217138Y205495D01*
X220862Y205495D01*
X220996Y205361D01*
X220998Y205361D01*
X220999Y205359D01*
X221001Y205361D01*
X221003Y205360D01*
X221003Y205363D01*
X221005Y205364D01*
X221005Y207441D01*
X221765Y209277D01*
X221765Y209280D01*
X221765Y209281D01*
X220905Y211359D01*
X220905Y213536D01*
X220904Y213537D01*
X220904Y213539D01*
X220902Y213539D01*
X220900Y213541D01*
X220899Y213539D01*
X220896Y213539D01*
X220862Y213505D01*
X217138Y213505D01*
X214505Y216138D01*
X214505Y219862D01*
X217138Y222495D01*
X220862Y222495D01*
X223495Y219862D01*
X223495Y218250D01*
X223496Y218249D01*
X223496Y218247D01*
X223498Y218247D01*
X223500Y218245D01*
X223501Y218247D01*
X223504Y218246D01*
X223938Y218680D01*
X226509Y219745D01*
X229291Y219745D01*
X231862Y218680D01*
X233830Y216712D01*
X234895Y214141D01*
X234895Y211359D01*
X234135Y209523D01*
X234135Y209522D01*
X234135Y209520D01*
X234135Y209519D01*
X234995Y207441D01*
X234995Y204659D01*
X233930Y202088D01*
X231962Y200120D01*
X229391Y199055D01*
X226609Y199055D01*
X224038Y200120D01*
X223504Y200654D01*
X223502Y200654D01*
X223501Y200655D01*
X223499Y200654D01*
X223497Y200654D01*
X223497Y200652D01*
X223495Y200650D01*
X223495Y199138D01*
X220862Y196505D01*
X217138Y196505D01*
G37*
%LPD*%
%LPC*%
G36*
X172138Y138505D02*
X172138Y138505D01*
X169505Y141138D01*
X169505Y144862D01*
X172138Y147495D01*
X175862Y147495D01*
X175896Y147461D01*
X175898Y147461D01*
X175899Y147459D01*
X175901Y147461D01*
X175903Y147460D01*
X175903Y147463D01*
X175905Y147464D01*
X175905Y149141D01*
X176765Y151219D01*
X176765Y151221D01*
X176765Y151223D01*
X176005Y153059D01*
X176005Y155841D01*
X177070Y158412D01*
X179038Y160380D01*
X181311Y161322D01*
X181311Y161323D01*
X181312Y161323D01*
X181312Y161325D01*
X181314Y161328D01*
X181313Y161329D01*
X181313Y161330D01*
X179505Y163138D01*
X179505Y166862D01*
X182138Y169495D01*
X185862Y169495D01*
X188495Y166862D01*
X188495Y163138D01*
X186101Y160744D01*
X186101Y160743D01*
X186101Y160741D01*
X186101Y160738D01*
X186103Y160738D01*
X186103Y160736D01*
X186962Y160380D01*
X188930Y158412D01*
X189995Y155841D01*
X189995Y153059D01*
X189135Y150981D01*
X189135Y150980D01*
X189135Y150979D01*
X189135Y150977D01*
X189895Y149141D01*
X189895Y146359D01*
X188830Y143788D01*
X186862Y141820D01*
X184291Y140755D01*
X181509Y140755D01*
X178938Y141820D01*
X178504Y142254D01*
X178502Y142254D01*
X178501Y142255D01*
X178500Y142255D01*
X178499Y142254D01*
X178497Y142254D01*
X178497Y142252D01*
X178495Y142250D01*
X178495Y141138D01*
X175862Y138505D01*
X172138Y138505D01*
G37*
%LPD*%
%LPC*%
G36*
X122138Y99505D02*
X122138Y99505D01*
X119505Y102138D01*
X119505Y105862D01*
X121474Y107831D01*
X121474Y107832D01*
X121475Y107832D01*
X121474Y107834D01*
X121475Y107838D01*
X121473Y107838D01*
X121473Y107839D01*
X121002Y108034D01*
X119034Y110002D01*
X117969Y112573D01*
X117969Y115356D01*
X119034Y117927D01*
X121002Y119895D01*
X122959Y120705D01*
X122960Y120707D01*
X122961Y120708D01*
X123772Y122665D01*
X125740Y124632D01*
X128311Y125697D01*
X131093Y125697D01*
X133664Y124632D01*
X135496Y122801D01*
X135498Y122801D01*
X135499Y122799D01*
X135501Y122800D01*
X135503Y122800D01*
X135503Y122803D01*
X135505Y122804D01*
X135505Y122862D01*
X138138Y125495D01*
X141862Y125495D01*
X144495Y122862D01*
X144495Y119138D01*
X141862Y116505D01*
X138138Y116505D01*
X136706Y117937D01*
X136704Y117937D01*
X136703Y117939D01*
X136702Y117937D01*
X136699Y117938D01*
X136699Y117935D01*
X136697Y117934D01*
X136697Y117311D01*
X135632Y114740D01*
X133664Y112772D01*
X131708Y111961D01*
X131707Y111959D01*
X131705Y111959D01*
X130895Y110002D01*
X128927Y108034D01*
X127092Y107274D01*
X127091Y107274D01*
X127091Y107272D01*
X127090Y107270D01*
X127090Y107269D01*
X127091Y107268D01*
X127091Y107266D01*
X128495Y105862D01*
X128495Y102138D01*
X125862Y99505D01*
X122138Y99505D01*
G37*
%LPD*%
%LPC*%
G36*
X318138Y173505D02*
X318138Y173505D01*
X315505Y176138D01*
X315505Y179862D01*
X318138Y182495D01*
X321862Y182495D01*
X321996Y182361D01*
X321998Y182361D01*
X321999Y182359D01*
X322001Y182361D01*
X322003Y182360D01*
X322003Y182363D01*
X322005Y182364D01*
X322005Y184391D01*
X322815Y186348D01*
X322815Y186350D01*
X322815Y186352D01*
X322005Y188309D01*
X322005Y191091D01*
X322587Y192498D01*
X322587Y192499D01*
X322588Y192499D01*
X322586Y192501D01*
X322585Y192504D01*
X322584Y192504D01*
X322583Y192505D01*
X320138Y192505D01*
X317505Y195138D01*
X317505Y198862D01*
X320138Y201495D01*
X323862Y201495D01*
X326495Y198862D01*
X326495Y196241D01*
X326496Y196241D01*
X326495Y196240D01*
X326497Y196239D01*
X326500Y196237D01*
X326501Y196238D01*
X326502Y196237D01*
X327609Y196695D01*
X330391Y196695D01*
X332962Y195630D01*
X334930Y193662D01*
X335995Y191091D01*
X335995Y188309D01*
X335185Y186352D01*
X335185Y186350D01*
X335185Y186348D01*
X335995Y184391D01*
X335995Y181609D01*
X334930Y179038D01*
X332962Y177070D01*
X330391Y176005D01*
X327609Y176005D01*
X325038Y177070D01*
X324504Y177604D01*
X324502Y177604D01*
X324501Y177605D01*
X324499Y177604D01*
X324497Y177604D01*
X324497Y177602D01*
X324495Y177600D01*
X324495Y176138D01*
X321862Y173505D01*
X318138Y173505D01*
G37*
%LPD*%
%LPC*%
G36*
X26609Y131005D02*
X26609Y131005D01*
X24038Y132070D01*
X22070Y134038D01*
X21005Y136609D01*
X21005Y139391D01*
X21877Y141498D01*
X21878Y141499D01*
X21877Y141499D01*
X21878Y141499D01*
X21876Y141501D01*
X21875Y141504D01*
X21874Y141504D01*
X21873Y141505D01*
X20138Y141505D01*
X17505Y144138D01*
X17505Y147862D01*
X20138Y150495D01*
X23862Y150495D01*
X26495Y147862D01*
X26495Y144956D01*
X26496Y144955D01*
X26495Y144954D01*
X26497Y144954D01*
X26500Y144951D01*
X26501Y144952D01*
X26502Y144951D01*
X26609Y144995D01*
X29391Y144995D01*
X31348Y144185D01*
X31350Y144185D01*
X31352Y144185D01*
X33309Y144995D01*
X36091Y144995D01*
X36498Y144827D01*
X36499Y144827D01*
X36499Y144826D01*
X36501Y144828D01*
X36504Y144829D01*
X36504Y144830D01*
X36505Y144831D01*
X36505Y147862D01*
X39138Y150495D01*
X42862Y150495D01*
X45495Y147862D01*
X45495Y144138D01*
X42862Y141505D01*
X40827Y141505D01*
X40827Y141504D01*
X40826Y141505D01*
X40825Y141503D01*
X40822Y141500D01*
X40823Y141500D01*
X40822Y141500D01*
X40823Y141499D01*
X40823Y141498D01*
X41695Y139391D01*
X41695Y136609D01*
X40630Y134038D01*
X38662Y132070D01*
X36091Y131005D01*
X33309Y131005D01*
X31352Y131815D01*
X31351Y131815D01*
X31349Y131815D01*
X31348Y131815D01*
X29391Y131005D01*
X26609Y131005D01*
G37*
%LPD*%
%LPC*%
G36*
X145609Y165305D02*
X145609Y165305D01*
X143038Y166370D01*
X141070Y168338D01*
X140005Y170909D01*
X140005Y173691D01*
X140815Y175648D01*
X140815Y175649D01*
X140816Y175649D01*
X140815Y175650D01*
X140815Y175652D01*
X140005Y177609D01*
X140005Y180391D01*
X141070Y182962D01*
X143038Y184930D01*
X145609Y185995D01*
X148391Y185995D01*
X150962Y184930D01*
X152930Y182962D01*
X153418Y181785D01*
X153419Y181785D01*
X153419Y181784D01*
X153421Y181784D01*
X153424Y181782D01*
X153425Y181783D01*
X153426Y181783D01*
X155138Y183495D01*
X158862Y183495D01*
X161495Y180862D01*
X161495Y177138D01*
X159861Y175504D01*
X159861Y175502D01*
X159860Y175501D01*
X159860Y175500D01*
X159860Y175497D01*
X159861Y175497D01*
X159861Y175496D01*
X161495Y173862D01*
X161495Y170138D01*
X158862Y167505D01*
X155138Y167505D01*
X153338Y169305D01*
X153337Y169305D01*
X153335Y169305D01*
X153332Y169305D01*
X153332Y169303D01*
X153330Y169303D01*
X152930Y168338D01*
X150962Y166370D01*
X148391Y165305D01*
X145609Y165305D01*
G37*
%LPD*%
%LPC*%
G36*
X123138Y27505D02*
X123138Y27505D01*
X120505Y30138D01*
X120505Y33862D01*
X123138Y36495D01*
X126862Y36495D01*
X129496Y33861D01*
X129503Y33860D01*
X129503Y33861D01*
X129504Y33861D01*
X132138Y36495D01*
X135862Y36495D01*
X137996Y34361D01*
X138003Y34360D01*
X138003Y34361D01*
X138004Y34361D01*
X140138Y36495D01*
X143862Y36495D01*
X146495Y33862D01*
X146495Y30138D01*
X143862Y27505D01*
X140138Y27505D01*
X138004Y29639D01*
X137997Y29640D01*
X137997Y29639D01*
X137996Y29639D01*
X135862Y27505D01*
X132138Y27505D01*
X129504Y30139D01*
X129501Y30139D01*
X129501Y30140D01*
X129499Y30140D01*
X129497Y30140D01*
X129497Y30139D01*
X129496Y30139D01*
X126862Y27505D01*
X123138Y27505D01*
G37*
%LPD*%
%LPC*%
G36*
X89431Y133005D02*
X89431Y133005D01*
X86505Y135931D01*
X86505Y140069D01*
X89431Y142995D01*
X93569Y142995D01*
X94996Y141568D01*
X95003Y141567D01*
X95003Y141568D01*
X95004Y141568D01*
X96431Y142995D01*
X100569Y142995D01*
X103495Y140069D01*
X103495Y135931D01*
X100569Y133005D01*
X96431Y133005D01*
X95004Y134432D01*
X94997Y134433D01*
X94997Y134432D01*
X94996Y134432D01*
X93569Y133005D01*
X89431Y133005D01*
G37*
%LPD*%
%LPC*%
G36*
X89431Y157005D02*
X89431Y157005D01*
X86505Y159931D01*
X86505Y164069D01*
X89431Y166995D01*
X93569Y166995D01*
X94996Y165568D01*
X95003Y165567D01*
X95003Y165568D01*
X95004Y165568D01*
X96431Y166995D01*
X100569Y166995D01*
X103495Y164069D01*
X103495Y159931D01*
X100569Y157005D01*
X96431Y157005D01*
X95004Y158432D01*
X95001Y158432D01*
X95001Y158433D01*
X94999Y158433D01*
X94997Y158433D01*
X94997Y158432D01*
X94996Y158432D01*
X93569Y157005D01*
X89431Y157005D01*
G37*
%LPD*%
%LPC*%
G36*
X89431Y145005D02*
X89431Y145005D01*
X86505Y147931D01*
X86505Y152069D01*
X89431Y154995D01*
X93569Y154995D01*
X94996Y153568D01*
X95003Y153567D01*
X95003Y153568D01*
X95004Y153568D01*
X96431Y154995D01*
X100569Y154995D01*
X103495Y152069D01*
X103495Y147931D01*
X100569Y145005D01*
X96431Y145005D01*
X95004Y146432D01*
X95001Y146432D01*
X95000Y146433D01*
X94999Y146433D01*
X94997Y146433D01*
X94997Y146432D01*
X94996Y146432D01*
X93569Y145005D01*
X89431Y145005D01*
G37*
%LPD*%
%LPC*%
G36*
X406138Y203505D02*
X406138Y203505D01*
X403505Y206138D01*
X403505Y209136D01*
X403504Y209137D01*
X403504Y209139D01*
X403502Y209139D01*
X403500Y209141D01*
X403499Y209139D01*
X403498Y209139D01*
X403496Y209139D01*
X400862Y206505D01*
X397138Y206505D01*
X394505Y209138D01*
X394505Y212862D01*
X397138Y215495D01*
X400862Y215495D01*
X403495Y212862D01*
X403495Y209864D01*
X403496Y209863D01*
X403496Y209861D01*
X403498Y209861D01*
X403500Y209859D01*
X403500Y209860D01*
X403500Y209859D01*
X403502Y209861D01*
X403504Y209861D01*
X406138Y212495D01*
X409862Y212495D01*
X412495Y209862D01*
X412495Y206138D01*
X409862Y203505D01*
X406138Y203505D01*
G37*
%LPD*%
%LPC*%
G36*
X306138Y164505D02*
X306138Y164505D01*
X303505Y167138D01*
X303505Y170862D01*
X304139Y171496D01*
X304139Y171498D01*
X304141Y171499D01*
X304139Y171501D01*
X304140Y171503D01*
X304137Y171503D01*
X304136Y171505D01*
X301138Y171505D01*
X298505Y174138D01*
X298505Y177862D01*
X301138Y180495D01*
X304862Y180495D01*
X307495Y177862D01*
X307495Y174138D01*
X306861Y173504D01*
X306861Y173502D01*
X306859Y173501D01*
X306861Y173499D01*
X306860Y173497D01*
X306863Y173497D01*
X306864Y173495D01*
X309862Y173495D01*
X312495Y170862D01*
X312495Y167138D01*
X309862Y164505D01*
X306138Y164505D01*
G37*
%LPD*%
%LPC*%
G36*
X304138Y216505D02*
X304138Y216505D01*
X301505Y219138D01*
X301505Y222862D01*
X304138Y225495D01*
X307500Y225495D01*
X307505Y225500D01*
X307504Y225500D01*
X307505Y225500D01*
X307505Y228862D01*
X310138Y231495D01*
X313862Y231495D01*
X316495Y228862D01*
X316495Y225138D01*
X313862Y222505D01*
X310500Y222505D01*
X310495Y222500D01*
X310496Y222500D01*
X310495Y222500D01*
X310495Y219138D01*
X307862Y216505D01*
X304138Y216505D01*
G37*
%LPD*%
%LPC*%
G36*
X416138Y64505D02*
X416138Y64505D01*
X413505Y67138D01*
X413505Y70862D01*
X416138Y73495D01*
X419862Y73495D01*
X421996Y71361D01*
X422003Y71360D01*
X422003Y71361D01*
X422004Y71361D01*
X424138Y73495D01*
X427862Y73495D01*
X430495Y70862D01*
X430495Y67138D01*
X427862Y64505D01*
X424138Y64505D01*
X422004Y66639D01*
X422001Y66639D01*
X422001Y66640D01*
X421999Y66640D01*
X421997Y66640D01*
X421997Y66639D01*
X421996Y66639D01*
X419862Y64505D01*
X416138Y64505D01*
G37*
%LPD*%
%LPC*%
G36*
X398138Y41505D02*
X398138Y41505D01*
X395505Y44138D01*
X395505Y47862D01*
X396639Y48996D01*
X396640Y49003D01*
X396639Y49003D01*
X396639Y49004D01*
X395505Y50138D01*
X395505Y53862D01*
X398138Y56495D01*
X401862Y56495D01*
X404495Y53862D01*
X404495Y50138D01*
X403361Y49004D01*
X403361Y49002D01*
X403360Y49002D01*
X403361Y49002D01*
X403360Y48997D01*
X403361Y48997D01*
X403361Y48996D01*
X404495Y47862D01*
X404495Y44138D01*
X401862Y41505D01*
X398138Y41505D01*
G37*
%LPD*%
%LPC*%
G36*
X82827Y84755D02*
X82827Y84755D01*
X79755Y87827D01*
X79755Y92173D01*
X82827Y95245D01*
X87173Y95245D01*
X90245Y92173D01*
X90245Y87827D01*
X87173Y84755D01*
X82827Y84755D01*
G37*
%LPD*%
%LPC*%
G36*
X70827Y84755D02*
X70827Y84755D01*
X67755Y87827D01*
X67755Y92173D01*
X70827Y95245D01*
X75173Y95245D01*
X78245Y92173D01*
X78245Y87827D01*
X75173Y84755D01*
X70827Y84755D01*
G37*
%LPD*%
%LPC*%
G36*
X94827Y84755D02*
X94827Y84755D01*
X91755Y87827D01*
X91755Y92173D01*
X94827Y95245D01*
X99173Y95245D01*
X102245Y92173D01*
X102245Y87827D01*
X99173Y84755D01*
X94827Y84755D01*
G37*
%LPD*%
%LPC*%
G36*
X204138Y197505D02*
X204138Y197505D01*
X201505Y200138D01*
X201505Y203862D01*
X204138Y206495D01*
X207862Y206495D01*
X210495Y203862D01*
X210495Y200138D01*
X207862Y197505D01*
X204138Y197505D01*
G37*
%LPD*%
%LPC*%
G36*
X49138Y135505D02*
X49138Y135505D01*
X46505Y138138D01*
X46505Y141862D01*
X49138Y144495D01*
X52862Y144495D01*
X55495Y141862D01*
X55495Y138138D01*
X52862Y135505D01*
X49138Y135505D01*
G37*
%LPD*%
%LPC*%
G36*
X184138Y197505D02*
X184138Y197505D01*
X181505Y200138D01*
X181505Y203862D01*
X184138Y206495D01*
X187862Y206495D01*
X190495Y203862D01*
X190495Y200138D01*
X187862Y197505D01*
X184138Y197505D01*
G37*
%LPD*%
%LPC*%
G36*
X124138Y133605D02*
X124138Y133605D01*
X121505Y136238D01*
X121505Y139962D01*
X124138Y142595D01*
X127862Y142595D01*
X130495Y139962D01*
X130495Y136238D01*
X127862Y133605D01*
X124138Y133605D01*
G37*
%LPD*%
%LPC*%
G36*
X130138Y198505D02*
X130138Y198505D01*
X127505Y201138D01*
X127505Y204862D01*
X130138Y207495D01*
X133862Y207495D01*
X136495Y204862D01*
X136495Y201138D01*
X133862Y198505D01*
X130138Y198505D01*
G37*
%LPD*%
%LPC*%
G36*
X93138Y199505D02*
X93138Y199505D01*
X90505Y202138D01*
X90505Y205862D01*
X93138Y208495D01*
X96862Y208495D01*
X99495Y205862D01*
X99495Y202138D01*
X96862Y199505D01*
X93138Y199505D01*
G37*
%LPD*%
%LPC*%
G36*
X292138Y209505D02*
X292138Y209505D01*
X289505Y212138D01*
X289505Y215862D01*
X292138Y218495D01*
X295862Y218495D01*
X298495Y215862D01*
X298495Y212138D01*
X295862Y209505D01*
X292138Y209505D01*
G37*
%LPD*%
%LPC*%
G36*
X111138Y213505D02*
X111138Y213505D01*
X108505Y216138D01*
X108505Y219862D01*
X111138Y222495D01*
X114862Y222495D01*
X117495Y219862D01*
X117495Y216138D01*
X114862Y213505D01*
X111138Y213505D01*
G37*
%LPD*%
%LPC*%
G36*
X189138Y217505D02*
X189138Y217505D01*
X186505Y220138D01*
X186505Y223862D01*
X189138Y226495D01*
X192862Y226495D01*
X195495Y223862D01*
X195495Y220138D01*
X192862Y217505D01*
X189138Y217505D01*
G37*
%LPD*%
%LPC*%
G36*
X74138Y155505D02*
X74138Y155505D01*
X71505Y158138D01*
X71505Y161862D01*
X74138Y164495D01*
X77862Y164495D01*
X80495Y161862D01*
X80495Y158138D01*
X77862Y155505D01*
X74138Y155505D01*
G37*
%LPD*%
%LPC*%
G36*
X196638Y161505D02*
X196638Y161505D01*
X194005Y164138D01*
X194005Y167862D01*
X196638Y170495D01*
X200362Y170495D01*
X202995Y167862D01*
X202995Y164138D01*
X200362Y161505D01*
X196638Y161505D01*
G37*
%LPD*%
%LPC*%
G36*
X319138Y227505D02*
X319138Y227505D01*
X316505Y230138D01*
X316505Y233862D01*
X319138Y236495D01*
X322862Y236495D01*
X325495Y233862D01*
X325495Y230138D01*
X322862Y227505D01*
X319138Y227505D01*
G37*
%LPD*%
%LPC*%
G36*
X118138Y156505D02*
X118138Y156505D01*
X115505Y159138D01*
X115505Y162862D01*
X118138Y165495D01*
X121862Y165495D01*
X124495Y162862D01*
X124495Y159138D01*
X121862Y156505D01*
X118138Y156505D01*
G37*
%LPD*%
%LPC*%
G36*
X189138Y230505D02*
X189138Y230505D01*
X186505Y233138D01*
X186505Y236862D01*
X189138Y239495D01*
X192862Y239495D01*
X195495Y236862D01*
X195495Y233138D01*
X192862Y230505D01*
X189138Y230505D01*
G37*
%LPD*%
%LPC*%
G36*
X92138Y50505D02*
X92138Y50505D01*
X89505Y53138D01*
X89505Y56862D01*
X92138Y59495D01*
X95862Y59495D01*
X98495Y56862D01*
X98495Y53138D01*
X95862Y50505D01*
X92138Y50505D01*
G37*
%LPD*%
%LPC*%
G36*
X475138Y143505D02*
X475138Y143505D01*
X472505Y146138D01*
X472505Y149862D01*
X475138Y152495D01*
X478862Y152495D01*
X481495Y149862D01*
X481495Y146138D01*
X478862Y143505D01*
X475138Y143505D01*
G37*
%LPD*%
%LPC*%
G36*
X303138Y40505D02*
X303138Y40505D01*
X300505Y43138D01*
X300505Y46862D01*
X303138Y49495D01*
X306862Y49495D01*
X309495Y46862D01*
X309495Y43138D01*
X306862Y40505D01*
X303138Y40505D01*
G37*
%LPD*%
%LPC*%
G36*
X109138Y74505D02*
X109138Y74505D01*
X106505Y77138D01*
X106505Y80862D01*
X109138Y83495D01*
X112862Y83495D01*
X115495Y80862D01*
X115495Y77138D01*
X112862Y74505D01*
X109138Y74505D01*
G37*
%LPD*%
%LPC*%
G36*
X403594Y91605D02*
X403594Y91605D01*
X401605Y93594D01*
X401605Y96406D01*
X403594Y98395D01*
X406406Y98395D01*
X408395Y96406D01*
X408395Y93594D01*
X406406Y91605D01*
X403594Y91605D01*
G37*
%LPD*%
%LPC*%
G36*
X411594Y84605D02*
X411594Y84605D01*
X409605Y86594D01*
X409605Y89406D01*
X411594Y91395D01*
X414406Y91395D01*
X416395Y89406D01*
X416395Y86594D01*
X414406Y84605D01*
X411594Y84605D01*
G37*
%LPD*%
D10*
X242646Y235762D02*
X245000Y235762D01*
X245096Y235764D01*
X245192Y235770D01*
X245287Y235780D01*
X245382Y235793D01*
X245477Y235811D01*
X245571Y235832D01*
X245663Y235857D01*
X245755Y235886D01*
X245845Y235919D01*
X245934Y235955D01*
X246021Y235995D01*
X246107Y236039D01*
X246191Y236085D01*
X246273Y236136D01*
X246352Y236189D01*
X246430Y236246D01*
X246505Y236306D01*
X246578Y236369D01*
X246647Y236435D01*
X246715Y236503D01*
X246779Y236574D01*
X246840Y236648D01*
X246899Y236725D01*
X246954Y236803D01*
X247006Y236884D01*
X247054Y236967D01*
X247100Y237052D01*
X247141Y237138D01*
X247179Y237226D01*
X247214Y237316D01*
X247245Y237407D01*
X247272Y237499D01*
X247295Y237592D01*
X247314Y237686D01*
X247330Y237781D01*
X247342Y237876D01*
X247350Y237972D01*
X247354Y238068D01*
X247354Y238164D01*
X247350Y238260D01*
X247342Y238356D01*
X247330Y238451D01*
X247314Y238546D01*
X247295Y238640D01*
X247272Y238733D01*
X247245Y238825D01*
X247214Y238916D01*
X247179Y239006D01*
X247141Y239094D01*
X247100Y239180D01*
X247054Y239265D01*
X247006Y239348D01*
X246954Y239429D01*
X246899Y239507D01*
X246840Y239584D01*
X246779Y239658D01*
X246715Y239729D01*
X246647Y239797D01*
X246578Y239863D01*
X246505Y239926D01*
X246430Y239986D01*
X246352Y240043D01*
X246273Y240096D01*
X246191Y240147D01*
X246107Y240193D01*
X246021Y240237D01*
X245934Y240277D01*
X245845Y240313D01*
X245755Y240346D01*
X245663Y240375D01*
X245571Y240400D01*
X245477Y240421D01*
X245382Y240439D01*
X245287Y240452D01*
X245192Y240462D01*
X245096Y240468D01*
X245000Y240470D01*
X245471Y244238D02*
X242646Y244238D01*
X245471Y244238D02*
X245557Y244236D01*
X245642Y244230D01*
X245728Y244220D01*
X245812Y244207D01*
X245896Y244189D01*
X245979Y244168D01*
X246061Y244143D01*
X246142Y244114D01*
X246222Y244082D01*
X246299Y244046D01*
X246376Y244007D01*
X246450Y243964D01*
X246522Y243918D01*
X246592Y243868D01*
X246660Y243815D01*
X246725Y243760D01*
X246788Y243701D01*
X246848Y243640D01*
X246905Y243576D01*
X246959Y243509D01*
X247010Y243440D01*
X247058Y243369D01*
X247103Y243296D01*
X247144Y243221D01*
X247181Y243144D01*
X247216Y243065D01*
X247246Y242985D01*
X247273Y242903D01*
X247296Y242821D01*
X247316Y242737D01*
X247331Y242653D01*
X247343Y242568D01*
X247351Y242483D01*
X247355Y242397D01*
X247355Y242311D01*
X247351Y242225D01*
X247343Y242140D01*
X247331Y242055D01*
X247316Y241971D01*
X247296Y241887D01*
X247273Y241805D01*
X247246Y241723D01*
X247216Y241643D01*
X247181Y241564D01*
X247144Y241487D01*
X247103Y241412D01*
X247058Y241339D01*
X247010Y241268D01*
X246959Y241199D01*
X246905Y241132D01*
X246848Y241068D01*
X246788Y241007D01*
X246725Y240948D01*
X246660Y240893D01*
X246592Y240840D01*
X246522Y240790D01*
X246450Y240744D01*
X246376Y240701D01*
X246299Y240662D01*
X246222Y240626D01*
X246142Y240594D01*
X246061Y240565D01*
X245979Y240540D01*
X245896Y240519D01*
X245812Y240501D01*
X245728Y240488D01*
X245642Y240478D01*
X245557Y240472D01*
X245471Y240470D01*
X245471Y240471D02*
X243587Y240471D01*
D11*
X291300Y173500D03*
X208700Y173500D03*
X294900Y239000D03*
X205100Y239000D03*
X291300Y181500D03*
X208700Y181500D03*
X294900Y231000D03*
X205100Y231000D03*
X291300Y177500D03*
X208700Y177000D03*
X205100Y235000D03*
X294900Y235000D03*
D12*
X98500Y150000D03*
X91500Y150000D03*
X98500Y138000D03*
X91500Y138000D03*
X98500Y162000D03*
X91500Y162000D03*
D13*
X85000Y90000D03*
X73000Y90000D03*
X97000Y90000D03*
D14*
X321000Y232000D03*
X357868Y231404D03*
X376000Y225000D03*
X424000Y148000D03*
X430000Y148000D03*
X436000Y148000D03*
X418000Y148000D03*
X219000Y201000D03*
X219000Y218000D03*
D15*
X281000Y188000D03*
D14*
X278000Y136000D03*
X312000Y135000D03*
X322000Y112000D03*
X307000Y91000D03*
X288000Y76000D03*
X100000Y196000D03*
X78000Y196000D03*
X322000Y197000D03*
X320000Y178000D03*
X51000Y140000D03*
X95000Y204000D03*
X186000Y202000D03*
X199000Y176000D03*
X410000Y157000D03*
X394000Y151000D03*
X410000Y151000D03*
X295000Y155000D03*
X299000Y123000D03*
X408000Y208000D03*
X369000Y121000D03*
X400000Y52000D03*
X400000Y46000D03*
X418000Y69000D03*
X426000Y69000D03*
X294000Y214000D03*
X198500Y166000D03*
X223000Y166000D03*
X206000Y202000D03*
X399000Y211000D03*
X392000Y219000D03*
X375000Y121000D03*
X375000Y137000D03*
X477000Y148000D03*
X447000Y140000D03*
X413000Y88000D03*
X405000Y95000D03*
D15*
X264000Y188000D03*
D14*
X184000Y165000D03*
X174000Y143000D03*
X157000Y179000D03*
X157000Y172000D03*
X22000Y146000D03*
X41000Y146000D03*
X52000Y121000D03*
X58000Y101000D03*
X140000Y121000D03*
X124000Y104000D03*
X94000Y55000D03*
X33000Y73000D03*
X305000Y45000D03*
X142000Y32000D03*
X134000Y32000D03*
X125000Y32000D03*
D15*
X242500Y164100D03*
D14*
X228000Y206050D03*
X348400Y207700D03*
X295000Y9000D03*
X330500Y207700D03*
X285000Y9000D03*
D15*
X382000Y128000D03*
D16*
X361500Y141500D02*
X361500Y168500D01*
X361500Y141500D02*
X375000Y128000D01*
X382000Y128000D01*
D17*
X361500Y168500D03*
D14*
X446000Y125000D03*
X334000Y108000D03*
D15*
X388500Y144000D03*
X380500Y149000D03*
X386000Y149000D03*
D18*
X357500Y180500D02*
X349500Y180500D01*
X368000Y191000D02*
X368000Y208000D01*
D14*
X368000Y208000D03*
D18*
X368000Y191000D02*
X357500Y180500D01*
D14*
X322000Y208000D03*
D19*
X372000Y208000D02*
X385000Y195000D01*
X372000Y208000D02*
X368000Y208000D01*
X385000Y195000D02*
X398000Y195000D01*
X404000Y189000D02*
X431000Y189000D01*
X456000Y164000D01*
X456000Y94000D02*
X442000Y80000D01*
X404000Y189000D02*
X398000Y195000D01*
X456000Y164000D02*
X456000Y94000D01*
D14*
X386000Y86000D03*
D19*
X392000Y80000D02*
X442000Y80000D01*
X392000Y80000D02*
X386000Y86000D01*
D17*
X349500Y180500D03*
D14*
X338000Y133000D03*
X346000Y133000D03*
X338000Y126000D03*
X346000Y126000D03*
X411000Y102000D03*
X425000Y102000D03*
X418000Y102000D03*
X411000Y108000D03*
D20*
X353500Y166500D02*
X353500Y172500D01*
X353500Y166500D02*
X351500Y164500D01*
X349500Y164500D01*
D17*
X353500Y172500D03*
X349500Y164500D03*
D14*
X422000Y174000D03*
X422000Y181000D03*
X356000Y85000D03*
X356000Y77000D03*
X230000Y166000D03*
X236000Y166000D03*
X265000Y166000D03*
X259000Y144000D03*
X238000Y148000D03*
D18*
X349500Y184500D02*
X355500Y184500D01*
D14*
X358000Y208000D03*
D18*
X358000Y187000D02*
X355500Y184500D01*
X358000Y187000D02*
X358000Y208000D01*
D14*
X422000Y207000D03*
D17*
X349500Y184500D03*
D18*
X361500Y172500D02*
X381500Y172500D01*
D14*
X394500Y185500D03*
D18*
X381500Y172500D01*
D17*
X361500Y172500D03*
D18*
X357500Y176500D02*
X375000Y176500D01*
D14*
X384000Y185500D03*
D18*
X375000Y176500D01*
D17*
X357500Y176500D03*
D14*
X251000Y209000D03*
X306000Y221000D03*
X303000Y176000D03*
X191000Y222000D03*
D15*
X256000Y150000D03*
D20*
X251000Y183000D02*
X251000Y209000D01*
X251000Y183000D02*
X247000Y179000D01*
X247000Y168000D01*
X256000Y159000D01*
X256000Y150000D01*
D14*
X312000Y227000D03*
X308000Y169000D03*
X191000Y235000D03*
X339400Y208000D03*
D18*
X349500Y197900D01*
X349500Y188500D01*
D17*
X349500Y188500D03*
D14*
X265000Y8000D03*
X335250Y116000D03*
D18*
X329250Y122000D02*
X329250Y144250D01*
X329250Y122000D02*
X335250Y116000D01*
X329250Y144250D02*
X341500Y156500D01*
X341500Y164500D01*
D14*
X35000Y177000D03*
D18*
X116000Y177000D01*
X165000Y128000D01*
X308250Y144250D02*
X329250Y144250D01*
X292000Y128000D02*
X165000Y128000D01*
X292000Y128000D02*
X308250Y144250D01*
D17*
X341500Y164500D03*
D14*
X418000Y164000D03*
X275000Y8000D03*
D18*
X363000Y116000D02*
X355000Y124000D01*
X363000Y116000D02*
X391000Y116000D01*
X402000Y127000D01*
X405000Y164000D02*
X418000Y164000D01*
X345500Y160500D02*
X345500Y184500D01*
X345500Y160500D02*
X355000Y151000D01*
X355000Y124000D01*
X402000Y127000D02*
X402000Y161000D01*
X405000Y164000D01*
D17*
X345500Y184500D03*
D15*
X275350Y183000D03*
D14*
X291202Y144848D03*
D15*
X269650Y183000D03*
D14*
X284150Y144700D03*
X297621Y76621D03*
X92600Y189000D03*
X126000Y138100D03*
X113000Y218000D03*
X329000Y189700D03*
X314712Y119288D03*
D15*
X254500Y167864D03*
X247500Y150200D03*
D14*
X329000Y183000D03*
X309621Y124379D03*
X183000Y154450D03*
X147000Y172300D03*
X182900Y147750D03*
X147000Y179000D03*
X339000Y232000D03*
X348000Y232000D03*
X331000Y232000D03*
X418000Y42000D03*
X425000Y49000D03*
X157000Y230000D03*
D15*
X267000Y76750D03*
D14*
X76000Y140000D03*
D15*
X235000Y104000D03*
D14*
X87000Y71000D03*
D20*
X353500Y188500D02*
X353500Y215500D01*
X348000Y221000D02*
X348000Y232000D01*
X348000Y221000D02*
X353500Y215500D01*
D17*
X353500Y188500D03*
D14*
X131000Y227000D03*
X132000Y203000D03*
X383000Y218000D03*
D15*
X260000Y181000D03*
D14*
X227900Y212750D03*
X302712Y81712D03*
X85400Y189000D03*
X120000Y161000D03*
X76000Y160000D03*
X124964Y113965D03*
X129702Y118702D03*
X28000Y138000D03*
X34700Y138000D03*
X62000Y110300D03*
X62000Y117000D03*
X315000Y97900D03*
X315000Y105100D03*
X111000Y79000D03*
D15*
X230000Y82000D03*
D18*
X234000Y86000D02*
X260450Y86000D01*
X234000Y86000D02*
X230000Y82000D01*
D15*
X260450Y86000D03*
D18*
X230000Y82000D02*
X227300Y84700D01*
X177000Y84700D01*
D14*
X171000Y90000D03*
D18*
X174000Y87000D01*
X176300Y84700D01*
X177000Y84700D01*
M02*
