G04 EAGLE Gerber RS-274X export*
G75*
%MOMM*%
%FSLAX34Y34*%
%LPD*%
%IN9_Bottom Layer*%
%IPPOS*%
%AMOC8*
5,1,8,0,0,1.08239X$1,22.5*%
G01*
%ADD10C,0.152400*%
%ADD11C,0.800000*%
%ADD12C,0.800000*%
%ADD13C,0.500000*%
%ADD14R,0.400000X0.200000*%
%ADD15R,0.600000X0.400000*%
%ADD16C,1.300000*%
%ADD17C,0.550000*%
%ADD18R,0.300000X0.200000*%
%ADD19C,0.075000*%
%ADD20C,0.100000*%
%ADD21C,0.400000*%
%ADD22C,0.300000*%
%ADD23C,0.160000*%
%ADD24C,0.200000*%
%ADD25C,0.500000*%

G36*
X32526Y68762D02*
X32526Y68762D01*
X32759Y68995D01*
X33757Y68995D01*
X33758Y68995D01*
X33759Y68997D01*
X33761Y68997D01*
X37947Y73183D01*
X37948Y73190D01*
X37947Y73190D01*
X27301Y83836D01*
X23905Y87233D01*
X23905Y131580D01*
X23902Y131583D01*
X23902Y131585D01*
X23754Y131646D01*
X21646Y133754D01*
X20505Y136509D01*
X20505Y139491D01*
X21646Y142246D01*
X23754Y144354D01*
X26509Y145495D01*
X29491Y145495D01*
X31348Y144726D01*
X31350Y144727D01*
X31352Y144726D01*
X33209Y145495D01*
X36191Y145495D01*
X38946Y144354D01*
X41054Y142246D01*
X42195Y139491D01*
X42195Y136509D01*
X41473Y134767D01*
X41475Y134763D01*
X41475Y134761D01*
X42995Y133241D01*
X42995Y128243D01*
X42997Y128241D01*
X42997Y128239D01*
X50683Y120553D01*
X50690Y120552D01*
X50690Y120553D01*
X51233Y121095D01*
X55580Y121095D01*
X55583Y121098D01*
X55585Y121098D01*
X55646Y121246D01*
X57754Y123354D01*
X60509Y124495D01*
X63491Y124495D01*
X66246Y123354D01*
X68354Y121246D01*
X69495Y118491D01*
X69495Y115509D01*
X68726Y113652D01*
X68726Y113651D01*
X68726Y113650D01*
X68727Y113649D01*
X68726Y113648D01*
X69495Y111791D01*
X69495Y108809D01*
X68354Y106054D01*
X66246Y103946D01*
X63491Y102805D01*
X60509Y102805D01*
X57754Y103946D01*
X56451Y105249D01*
X56445Y105249D01*
X56444Y105249D01*
X54797Y103601D01*
X54797Y103599D01*
X54796Y103598D01*
X54795Y103597D01*
X54795Y97403D01*
X54797Y97401D01*
X54797Y97399D01*
X81996Y70199D01*
X81998Y70199D01*
X81999Y70198D01*
X82001Y70199D01*
X82003Y70199D01*
X82003Y70201D01*
X82005Y70203D01*
X82005Y73069D01*
X84931Y75995D01*
X89069Y75995D01*
X89768Y75297D01*
X89770Y75296D01*
X89771Y75296D01*
X89771Y75295D01*
X107629Y75295D01*
X107630Y75296D01*
X107632Y75296D01*
X107632Y75298D01*
X107633Y75300D01*
X107632Y75301D01*
X107632Y75304D01*
X106005Y76931D01*
X106005Y81069D01*
X107703Y82768D01*
X107704Y82770D01*
X107705Y82771D01*
X107705Y86365D01*
X112635Y91295D01*
X116764Y91295D01*
X116766Y91297D01*
X116768Y91297D01*
X117966Y92495D01*
X119187Y92495D01*
X119083Y92220D01*
X119083Y92219D01*
X119082Y92219D01*
X118995Y91501D01*
X118999Y91495D01*
X118999Y91496D01*
X119000Y91495D01*
X125000Y91495D01*
X125005Y91499D01*
X125004Y91500D01*
X125005Y91501D01*
X124918Y92219D01*
X124917Y92219D01*
X124917Y92220D01*
X124813Y92495D01*
X126034Y92495D01*
X126996Y91532D01*
X127003Y91532D01*
X127004Y91532D01*
X127966Y92495D01*
X129187Y92495D01*
X129083Y92220D01*
X129083Y92219D01*
X129082Y92219D01*
X128995Y91501D01*
X128999Y91495D01*
X128999Y91496D01*
X129000Y91495D01*
X135000Y91495D01*
X135005Y91499D01*
X135004Y91500D01*
X135005Y91501D01*
X134918Y92219D01*
X134917Y92219D01*
X134917Y92220D01*
X134661Y92896D01*
X134660Y92896D01*
X134660Y92897D01*
X134250Y93492D01*
X134249Y93492D01*
X134249Y93493D01*
X134005Y93709D01*
X134005Y99131D01*
X134003Y99132D01*
X134003Y99134D01*
X126608Y106529D01*
X126604Y106530D01*
X126603Y106530D01*
X126455Y106469D01*
X123473Y106469D01*
X120719Y107610D01*
X118610Y109719D01*
X117469Y112474D01*
X117469Y115456D01*
X118610Y118210D01*
X120719Y120319D01*
X122576Y121088D01*
X122577Y121090D01*
X122579Y121091D01*
X123348Y122948D01*
X125456Y125056D01*
X128211Y126197D01*
X131193Y126197D01*
X133948Y125056D01*
X136056Y122948D01*
X137197Y120193D01*
X137197Y117211D01*
X137136Y117064D01*
X137137Y117060D01*
X137137Y117058D01*
X146099Y108097D01*
X146102Y108096D01*
X146103Y108095D01*
X187249Y108095D01*
X187250Y108097D01*
X187252Y108097D01*
X188651Y109495D01*
X202000Y109495D01*
X202005Y109500D01*
X202005Y119000D01*
X202000Y119005D01*
X202000Y119004D01*
X202000Y119005D01*
X189686Y119005D01*
X188988Y119703D01*
X188985Y119704D01*
X188984Y119705D01*
X185564Y119705D01*
X179705Y125564D01*
X179705Y137436D01*
X182515Y140246D01*
X182515Y140248D01*
X182517Y140249D01*
X182515Y140251D01*
X182516Y140253D01*
X182513Y140253D01*
X182512Y140255D01*
X181409Y140255D01*
X178654Y141396D01*
X176546Y143504D01*
X176485Y143652D01*
X176482Y143653D01*
X176480Y143655D01*
X172483Y143655D01*
X163905Y152233D01*
X163905Y181000D01*
X163900Y181005D01*
X163900Y181004D01*
X163900Y181005D01*
X154290Y181005D01*
X154289Y181004D01*
X154288Y181005D01*
X154288Y181003D01*
X154285Y181000D01*
X154286Y180999D01*
X154285Y180998D01*
X154495Y180491D01*
X154495Y177509D01*
X153726Y175652D01*
X153726Y175651D01*
X153726Y175650D01*
X153727Y175649D01*
X153726Y175648D01*
X154495Y173791D01*
X154495Y170809D01*
X153354Y168054D01*
X151246Y165946D01*
X148491Y164805D01*
X145509Y164805D01*
X142754Y165946D01*
X140646Y168054D01*
X140585Y168202D01*
X140582Y168203D01*
X140580Y168205D01*
X137933Y168205D01*
X129871Y176266D01*
X129871Y193734D01*
X133268Y197130D01*
X133884Y197746D01*
X133884Y197748D01*
X133885Y197749D01*
X133884Y197751D01*
X133884Y197753D01*
X133882Y197753D01*
X133880Y197755D01*
X129827Y197755D01*
X128079Y199503D01*
X128076Y199504D01*
X128076Y199505D01*
X128075Y199505D01*
X126552Y199505D01*
X119505Y206552D01*
X119505Y220448D01*
X125753Y226696D01*
X125753Y226698D01*
X125754Y226698D01*
X125753Y226698D01*
X125754Y226699D01*
X125755Y226700D01*
X125755Y229173D01*
X125907Y229325D01*
X125907Y229327D01*
X125909Y229329D01*
X125908Y229330D01*
X125908Y229332D01*
X125905Y229332D01*
X125902Y229333D01*
X121631Y228085D01*
X115022Y226012D01*
X115022Y226011D01*
X108550Y223835D01*
X102222Y221559D01*
X96045Y219186D01*
X90024Y216718D01*
X84167Y214159D01*
X78479Y211510D01*
X72967Y208775D01*
X72966Y208775D01*
X67634Y205957D01*
X62487Y203060D01*
X57532Y200086D01*
X52774Y197039D01*
X48216Y193923D01*
X43864Y190742D01*
X39722Y187500D01*
X35795Y184199D01*
X33366Y182004D01*
X33366Y182002D01*
X33365Y182001D01*
X33366Y182000D01*
X33366Y181997D01*
X33368Y181997D01*
X33370Y181995D01*
X37069Y181995D01*
X39995Y179069D01*
X39995Y174931D01*
X37069Y172005D01*
X32931Y172005D01*
X30005Y174931D01*
X30005Y178804D01*
X30004Y178806D01*
X30004Y178807D01*
X30002Y178807D01*
X30000Y178809D01*
X29999Y178808D01*
X29996Y178808D01*
X28596Y177442D01*
X28596Y177441D01*
X25332Y173993D01*
X22294Y170503D01*
X19486Y166977D01*
X19486Y166976D01*
X16910Y163418D01*
X14566Y159830D01*
X12456Y156219D01*
X12456Y156218D01*
X10581Y152586D01*
X8941Y148937D01*
X8941Y148936D01*
X7536Y145274D01*
X7537Y145273D01*
X7536Y145273D01*
X6367Y141601D01*
X5432Y137919D01*
X4731Y134232D01*
X4732Y134232D01*
X4731Y134232D01*
X4731Y134231D01*
X4731Y134226D01*
X4730Y134221D01*
X4729Y134216D01*
X4726Y134191D01*
X4726Y134186D01*
X4725Y134181D01*
X4724Y134176D01*
X4724Y134171D01*
X4720Y134141D01*
X4719Y134136D01*
X4719Y134131D01*
X4718Y134126D01*
X4714Y134097D01*
X4714Y134092D01*
X4713Y134087D01*
X4712Y134082D01*
X4712Y134077D01*
X4709Y134052D01*
X4708Y134047D01*
X4707Y134042D01*
X4707Y134037D01*
X4706Y134032D01*
X4702Y134002D01*
X4702Y133997D01*
X4701Y133992D01*
X4701Y133987D01*
X4697Y133958D01*
X4697Y133957D01*
X4696Y133953D01*
X4696Y133952D01*
X4696Y133948D01*
X4695Y133948D01*
X4696Y133948D01*
X4695Y133943D01*
X4694Y133938D01*
X4691Y133913D01*
X4690Y133908D01*
X4690Y133903D01*
X4689Y133898D01*
X4689Y133893D01*
X4685Y133868D01*
X4685Y133863D01*
X4684Y133858D01*
X4684Y133853D01*
X4683Y133848D01*
X4679Y133818D01*
X4679Y133813D01*
X4678Y133808D01*
X4677Y133803D01*
X4674Y133774D01*
X4673Y133774D01*
X4674Y133774D01*
X4673Y133769D01*
X4672Y133764D01*
X4672Y133759D01*
X4671Y133754D01*
X4668Y133729D01*
X4667Y133724D01*
X4667Y133719D01*
X4666Y133714D01*
X4665Y133709D01*
X4662Y133679D01*
X4661Y133674D01*
X4660Y133669D01*
X4660Y133664D01*
X4656Y133635D01*
X4656Y133634D01*
X4655Y133630D01*
X4655Y133625D01*
X4654Y133620D01*
X4653Y133615D01*
X4650Y133590D01*
X4650Y133585D01*
X4649Y133580D01*
X4648Y133575D01*
X4648Y133570D01*
X4644Y133540D01*
X4643Y133535D01*
X4643Y133530D01*
X4642Y133525D01*
X4638Y133495D01*
X4638Y133490D01*
X4637Y133485D01*
X4636Y133481D01*
X4636Y133480D01*
X4636Y133476D01*
X4636Y133475D01*
X4633Y133451D01*
X4632Y133446D01*
X4631Y133441D01*
X4631Y133436D01*
X4630Y133431D01*
X4626Y133401D01*
X4626Y133396D01*
X4625Y133391D01*
X4625Y133386D01*
X4624Y133386D01*
X4625Y133386D01*
X4621Y133356D01*
X4620Y133351D01*
X4619Y133346D01*
X4619Y133341D01*
X4618Y133336D01*
X4615Y133312D01*
X4614Y133307D01*
X4614Y133302D01*
X4613Y133297D01*
X4613Y133292D01*
X4609Y133262D01*
X4608Y133257D01*
X4608Y133252D01*
X4607Y133247D01*
X4603Y133217D01*
X4603Y133212D01*
X4602Y133212D01*
X4603Y133212D01*
X4602Y133207D01*
X4601Y133202D01*
X4601Y133197D01*
X4597Y133172D01*
X4597Y133167D01*
X4596Y133163D01*
X4596Y133162D01*
X4596Y133158D01*
X4596Y133157D01*
X4595Y133153D01*
X4591Y133123D01*
X4591Y133118D01*
X4590Y133113D01*
X4589Y133108D01*
X4586Y133078D01*
X4585Y133073D01*
X4584Y133068D01*
X4584Y133063D01*
X4580Y133033D01*
X4579Y133028D01*
X4579Y133023D01*
X4578Y133018D01*
X4577Y133013D01*
X4574Y132989D01*
X4574Y132984D01*
X4573Y132979D01*
X4572Y132974D01*
X4572Y132969D01*
X4568Y132939D01*
X4567Y132934D01*
X4567Y132929D01*
X4566Y132924D01*
X4562Y132894D01*
X4562Y132889D01*
X4561Y132884D01*
X4560Y132879D01*
X4560Y132874D01*
X4557Y132849D01*
X4556Y132845D01*
X4556Y132844D01*
X4555Y132840D01*
X4555Y132839D01*
X4555Y132835D01*
X4554Y132830D01*
X4550Y132800D01*
X4550Y132795D01*
X4549Y132790D01*
X4548Y132785D01*
X4545Y132755D01*
X4544Y132750D01*
X4543Y132745D01*
X4543Y132740D01*
X4542Y132735D01*
X4539Y132710D01*
X4538Y132705D01*
X4538Y132700D01*
X4537Y132695D01*
X4537Y132690D01*
X4533Y132661D01*
X4532Y132656D01*
X4532Y132651D01*
X4531Y132651D01*
X4532Y132651D01*
X4531Y132646D01*
X4527Y132616D01*
X4526Y132611D01*
X4526Y132606D01*
X4525Y132601D01*
X4525Y132596D01*
X4521Y132571D01*
X4521Y132566D01*
X4520Y132561D01*
X4520Y132556D01*
X4519Y132551D01*
X4515Y132522D01*
X4515Y132521D01*
X4515Y132517D01*
X4514Y132512D01*
X4513Y132507D01*
X4510Y132477D01*
X4509Y132477D01*
X4510Y132477D01*
X4509Y132472D01*
X4508Y132467D01*
X4508Y132462D01*
X4507Y132457D01*
X4504Y132432D01*
X4503Y132427D01*
X4503Y132422D01*
X4502Y132417D01*
X4501Y132412D01*
X4498Y132382D01*
X4497Y132377D01*
X4496Y132372D01*
X4496Y132368D01*
X4496Y132367D01*
X4492Y132338D01*
X4491Y132333D01*
X4491Y132328D01*
X4490Y132323D01*
X4486Y132293D01*
X4486Y132288D01*
X4485Y132283D01*
X4484Y132278D01*
X4484Y132273D01*
X4481Y132248D01*
X4480Y132243D01*
X4479Y132238D01*
X4479Y132233D01*
X4478Y132228D01*
X4474Y132199D01*
X4474Y132194D01*
X4473Y132189D01*
X4472Y132184D01*
X4469Y132154D01*
X4468Y132149D01*
X4467Y132144D01*
X4467Y132139D01*
X4466Y132134D01*
X4463Y132109D01*
X4462Y132104D01*
X4462Y132099D01*
X4461Y132094D01*
X4461Y132089D01*
X4460Y132089D01*
X4457Y132059D01*
X4456Y132054D01*
X4455Y132050D01*
X4455Y132049D01*
X4455Y132045D01*
X4455Y132044D01*
X4451Y132015D01*
X4450Y132010D01*
X4450Y132005D01*
X4449Y132000D01*
X4449Y131995D01*
X4445Y131970D01*
X4445Y131965D01*
X4444Y131960D01*
X4444Y131955D01*
X4443Y131950D01*
X4439Y131920D01*
X4439Y131915D01*
X4438Y131915D01*
X4439Y131915D01*
X4438Y131910D01*
X4437Y131905D01*
X4433Y131876D01*
X4433Y131871D01*
X4432Y131866D01*
X4432Y131861D01*
X4431Y131856D01*
X4428Y131831D01*
X4427Y131826D01*
X4427Y131821D01*
X4426Y131816D01*
X4425Y131811D01*
X4422Y131781D01*
X4421Y131776D01*
X4420Y131771D01*
X4420Y131766D01*
X4416Y131736D01*
X4415Y131732D01*
X4415Y131731D01*
X4415Y131727D01*
X4415Y131726D01*
X4414Y131722D01*
X4413Y131717D01*
X4410Y131692D01*
X4410Y131687D01*
X4409Y131682D01*
X4408Y131677D01*
X4408Y131672D01*
X4404Y131642D01*
X4403Y131637D01*
X4403Y131632D01*
X4402Y131627D01*
X4398Y131597D01*
X4398Y131592D01*
X4397Y131587D01*
X4396Y131582D01*
X4393Y131553D01*
X4392Y131548D01*
X4391Y131543D01*
X4391Y131538D01*
X4390Y131533D01*
X4387Y131508D01*
X4386Y131503D01*
X4386Y131498D01*
X4385Y131493D01*
X4384Y131488D01*
X4381Y131458D01*
X4380Y131453D01*
X4379Y131448D01*
X4379Y131443D01*
X4375Y131414D01*
X4375Y131413D01*
X4374Y131409D01*
X4374Y131408D01*
X4374Y131404D01*
X4373Y131399D01*
X4373Y131394D01*
X4369Y131369D01*
X4369Y131364D01*
X4368Y131359D01*
X4368Y131354D01*
X4367Y131354D01*
X4368Y131354D01*
X4367Y131349D01*
X4363Y131319D01*
X4362Y131314D01*
X4362Y131309D01*
X4361Y131304D01*
X4357Y131274D01*
X4357Y131269D01*
X4356Y131264D01*
X4356Y131259D01*
X4355Y131255D01*
X4355Y131254D01*
X4352Y131230D01*
X4351Y131225D01*
X4351Y131220D01*
X4350Y131215D01*
X4349Y131210D01*
X4346Y131180D01*
X4345Y131180D01*
X4346Y131180D01*
X4345Y131175D01*
X4344Y131170D01*
X4344Y131165D01*
X4340Y131135D01*
X4339Y131130D01*
X4339Y131125D01*
X4338Y131120D01*
X4337Y131115D01*
X4334Y131091D01*
X4334Y131090D01*
X4334Y131086D01*
X4333Y131081D01*
X4332Y131076D01*
X4332Y131071D01*
X4328Y131041D01*
X4327Y131036D01*
X4327Y131031D01*
X4326Y131026D01*
X4322Y130996D01*
X4322Y130991D01*
X4321Y130986D01*
X4320Y130981D01*
X4320Y130976D01*
X4317Y130951D01*
X4316Y130946D01*
X4315Y130941D01*
X4315Y130937D01*
X4315Y130936D01*
X4314Y130932D01*
X4314Y130931D01*
X4310Y130902D01*
X4310Y130897D01*
X4309Y130892D01*
X4308Y130887D01*
X4305Y130857D01*
X4304Y130852D01*
X4303Y130847D01*
X4303Y130842D01*
X4299Y130812D01*
X4298Y130807D01*
X4298Y130802D01*
X4297Y130797D01*
X4297Y130792D01*
X4296Y130792D01*
X4293Y130768D01*
X4293Y130763D01*
X4292Y130758D01*
X4291Y130753D01*
X4291Y130748D01*
X4287Y130718D01*
X4286Y130713D01*
X4286Y130708D01*
X4285Y130703D01*
X4281Y130673D01*
X4281Y130668D01*
X4280Y130663D01*
X4280Y130658D01*
X4279Y130653D01*
X4276Y130628D01*
X4275Y130623D01*
X4275Y130619D01*
X4274Y130618D01*
X4275Y130618D01*
X4274Y130614D01*
X4274Y130613D01*
X4273Y130609D01*
X4269Y130579D01*
X4269Y130574D01*
X4268Y130569D01*
X4268Y130564D01*
X4265Y130540D01*
X4264Y130534D01*
X4264Y130529D01*
X4264Y130524D01*
X4257Y130415D01*
X4256Y130410D01*
X4256Y130405D01*
X4249Y130296D01*
X4249Y130295D01*
X4249Y130291D01*
X4249Y130286D01*
X4242Y130176D01*
X4241Y130171D01*
X4241Y130166D01*
X4241Y130161D01*
X4234Y130057D01*
X4234Y130052D01*
X4233Y130047D01*
X4233Y130042D01*
X4227Y129938D01*
X4226Y129933D01*
X4226Y129928D01*
X4226Y129923D01*
X4219Y129819D01*
X4219Y129818D01*
X4219Y129814D01*
X4218Y129809D01*
X4218Y129804D01*
X4212Y129699D01*
X4211Y129699D01*
X4212Y129699D01*
X4211Y129694D01*
X4211Y129689D01*
X4211Y129684D01*
X4204Y129575D01*
X4203Y129570D01*
X4203Y129565D01*
X4196Y129456D01*
X4196Y129451D01*
X4196Y129446D01*
X4195Y129446D01*
X4189Y129337D01*
X4188Y129332D01*
X4188Y129327D01*
X4181Y129217D01*
X4181Y129212D01*
X4180Y129207D01*
X4174Y129098D01*
X4173Y129093D01*
X4173Y129088D01*
X4166Y128979D01*
X4166Y128974D01*
X4165Y128969D01*
X4158Y128860D01*
X4158Y128855D01*
X4158Y128850D01*
X4151Y128740D01*
X4151Y128735D01*
X4150Y128730D01*
X4143Y128621D01*
X4143Y128616D01*
X4143Y128611D01*
X4136Y128502D01*
X4136Y128497D01*
X4135Y128492D01*
X4128Y128383D01*
X4128Y128378D01*
X4128Y128373D01*
X4121Y128263D01*
X4121Y128258D01*
X4120Y128258D01*
X4121Y128258D01*
X4120Y128253D01*
X4113Y128144D01*
X4113Y128139D01*
X4113Y128134D01*
X4106Y128025D01*
X4105Y128020D01*
X4105Y128015D01*
X4098Y127906D01*
X4098Y127901D01*
X4098Y127896D01*
X4091Y127786D01*
X4090Y127781D01*
X4090Y127776D01*
X4083Y127667D01*
X4083Y127662D01*
X4083Y127657D01*
X4076Y127548D01*
X4075Y127543D01*
X4075Y127538D01*
X4068Y127429D01*
X4068Y127424D01*
X4067Y127419D01*
X4061Y127309D01*
X4060Y127304D01*
X4060Y127299D01*
X4053Y127190D01*
X4053Y127185D01*
X4052Y127180D01*
X4046Y127071D01*
X4045Y127071D01*
X4046Y127071D01*
X4045Y127066D01*
X4045Y127061D01*
X4038Y126952D01*
X4038Y126947D01*
X4037Y126942D01*
X4031Y126847D01*
X4032Y126847D01*
X4031Y126847D01*
X4031Y123153D01*
X4032Y123153D01*
X4031Y123153D01*
X4265Y119460D01*
X4731Y115768D01*
X4732Y115768D01*
X4731Y115768D01*
X5432Y112081D01*
X6367Y108399D01*
X7536Y104726D01*
X7537Y104726D01*
X8941Y101064D01*
X8941Y101063D01*
X10581Y97414D01*
X12456Y93782D01*
X12456Y93781D01*
X14566Y90170D01*
X16910Y86582D01*
X19486Y83024D01*
X19486Y83023D01*
X22294Y79497D01*
X25332Y76007D01*
X28596Y72559D01*
X28596Y72558D01*
X32084Y69155D01*
X32519Y68762D01*
X32526Y68762D01*
X32526Y68762D01*
G37*
G36*
X255872Y4035D02*
X255872Y4035D01*
X255873Y4035D01*
X261426Y4145D01*
X261427Y4146D01*
X261428Y4146D01*
X261429Y4148D01*
X261430Y4149D01*
X261429Y4151D01*
X261429Y4153D01*
X259755Y5827D01*
X259755Y10173D01*
X262827Y13245D01*
X267173Y13245D01*
X270173Y10245D01*
X270180Y10244D01*
X270180Y10245D01*
X272931Y12995D01*
X275050Y12995D01*
X275052Y12997D01*
X275054Y12997D01*
X290552Y28495D01*
X311550Y28495D01*
X311552Y28497D01*
X311554Y28497D01*
X355053Y71996D01*
X355053Y71998D01*
X355055Y71999D01*
X355054Y72001D01*
X355054Y72003D01*
X355051Y72003D01*
X355050Y72005D01*
X353931Y72005D01*
X351005Y74931D01*
X351005Y79069D01*
X352932Y80996D01*
X352932Y80998D01*
X352934Y80999D01*
X352932Y81001D01*
X352933Y81003D01*
X352932Y81003D01*
X352932Y81004D01*
X351005Y82931D01*
X351005Y87069D01*
X353931Y89995D01*
X358069Y89995D01*
X360995Y87069D01*
X360995Y82931D01*
X359068Y81004D01*
X359068Y81002D01*
X359066Y81001D01*
X359068Y80999D01*
X359067Y80997D01*
X359068Y80997D01*
X359068Y80996D01*
X360995Y79069D01*
X360995Y77950D01*
X360996Y77949D01*
X360996Y77947D01*
X360998Y77947D01*
X361000Y77945D01*
X361001Y77947D01*
X361004Y77947D01*
X364503Y81446D01*
X366552Y83495D01*
X381429Y83495D01*
X381430Y83496D01*
X381432Y83496D01*
X381432Y83498D01*
X381433Y83500D01*
X381432Y83501D01*
X381432Y83504D01*
X381005Y83931D01*
X381005Y88069D01*
X383931Y90995D01*
X388069Y90995D01*
X390995Y88069D01*
X390995Y83931D01*
X390568Y83504D01*
X390568Y83502D01*
X390567Y83501D01*
X390568Y83499D01*
X390568Y83497D01*
X390570Y83497D01*
X390571Y83495D01*
X439850Y83495D01*
X439852Y83497D01*
X439854Y83497D01*
X449803Y93446D01*
X449804Y93449D01*
X449805Y93450D01*
X449805Y121729D01*
X449804Y121730D01*
X449804Y121732D01*
X449802Y121732D01*
X449800Y121733D01*
X449799Y121732D01*
X449796Y121732D01*
X448069Y120005D01*
X443931Y120005D01*
X442432Y121503D01*
X442430Y121504D01*
X442429Y121505D01*
X402450Y121505D01*
X402448Y121503D01*
X402446Y121503D01*
X385448Y104505D01*
X337571Y104505D01*
X337569Y104503D01*
X337568Y104503D01*
X336069Y103005D01*
X331931Y103005D01*
X329005Y105931D01*
X329005Y110069D01*
X331557Y112621D01*
X331557Y112625D01*
X331558Y112625D01*
X331557Y112626D01*
X331558Y112628D01*
X331557Y112628D01*
X331557Y112629D01*
X330255Y113931D01*
X330255Y118069D01*
X333181Y120995D01*
X335929Y120995D01*
X335930Y120996D01*
X335932Y120996D01*
X335932Y120998D01*
X335933Y121000D01*
X335932Y121001D01*
X335932Y121004D01*
X333005Y123931D01*
X333005Y128069D01*
X334432Y129496D01*
X334432Y129498D01*
X334434Y129499D01*
X334432Y129500D01*
X334433Y129503D01*
X334432Y129503D01*
X334432Y129504D01*
X333005Y130931D01*
X333005Y132130D01*
X333004Y132131D01*
X333004Y132133D01*
X333002Y132133D01*
X333000Y132135D01*
X332999Y132133D01*
X332996Y132134D01*
X322044Y121181D01*
X322044Y121179D01*
X322043Y121178D01*
X322044Y121177D01*
X322043Y121176D01*
X322208Y120779D01*
X322208Y117797D01*
X321067Y115042D01*
X320997Y114972D01*
X320996Y114970D01*
X320995Y114969D01*
X320995Y109707D01*
X320997Y109705D01*
X320997Y109703D01*
X321354Y109346D01*
X322495Y106591D01*
X322495Y103609D01*
X321622Y101502D01*
X321623Y101500D01*
X321622Y101498D01*
X322495Y99391D01*
X322495Y96409D01*
X321354Y93654D01*
X319246Y91546D01*
X316491Y90405D01*
X313509Y90405D01*
X310754Y91546D01*
X309797Y92503D01*
X309794Y92504D01*
X309793Y92505D01*
X296651Y92505D01*
X295252Y93903D01*
X295250Y93903D01*
X295250Y93904D01*
X295249Y93904D01*
X295249Y93905D01*
X280000Y93905D01*
X279995Y93900D01*
X279996Y93900D01*
X279995Y93900D01*
X279995Y75000D01*
X280000Y74995D01*
X280000Y74996D01*
X280000Y74995D01*
X287241Y74995D01*
X288139Y74097D01*
X288142Y74096D01*
X288143Y74095D01*
X290387Y74095D01*
X290578Y74016D01*
X290580Y74016D01*
X290582Y74015D01*
X290582Y74017D01*
X290585Y74018D01*
X290584Y74020D01*
X290585Y74022D01*
X290126Y75130D01*
X290126Y78112D01*
X291267Y80867D01*
X293376Y82975D01*
X295483Y83848D01*
X295484Y83850D01*
X295485Y83851D01*
X296358Y85958D01*
X298467Y88066D01*
X301221Y89207D01*
X304203Y89207D01*
X306958Y88066D01*
X309067Y85958D01*
X310208Y83203D01*
X310208Y80221D01*
X309067Y77467D01*
X306958Y75358D01*
X304851Y74485D01*
X304850Y74483D01*
X304848Y74483D01*
X303975Y72375D01*
X301867Y70267D01*
X299112Y69126D01*
X297843Y69126D01*
X297841Y69125D01*
X297840Y69125D01*
X297840Y69123D01*
X297838Y69122D01*
X297839Y69120D01*
X297839Y69117D01*
X297845Y69111D01*
X299595Y64887D01*
X299595Y60313D01*
X297845Y56089D01*
X294611Y52855D01*
X290387Y51105D01*
X285813Y51105D01*
X282852Y52331D01*
X282851Y52331D01*
X282851Y52332D01*
X282849Y52331D01*
X282846Y52329D01*
X282846Y52328D01*
X282845Y52327D01*
X282845Y49233D01*
X273517Y39905D01*
X204751Y39905D01*
X204750Y39903D01*
X204748Y39903D01*
X203349Y38505D01*
X188651Y38505D01*
X187252Y39903D01*
X187250Y39904D01*
X187249Y39905D01*
X75649Y39905D01*
X75647Y39903D01*
X75645Y39903D01*
X75645Y39901D01*
X75644Y39900D01*
X75646Y39898D01*
X75647Y39895D01*
X78479Y38490D01*
X84167Y35841D01*
X90024Y33282D01*
X96045Y30814D01*
X102222Y28441D01*
X108550Y26164D01*
X108551Y26164D01*
X115022Y23989D01*
X115022Y23988D01*
X121631Y21915D01*
X128371Y19945D01*
X135234Y18083D01*
X142213Y16329D01*
X149305Y14685D01*
X156497Y13154D01*
X163783Y11736D01*
X171159Y10434D01*
X178613Y9249D01*
X186141Y8182D01*
X193733Y7234D01*
X201384Y6406D01*
X209082Y5700D01*
X216823Y5115D01*
X224597Y4653D01*
X232397Y4313D01*
X240215Y4097D01*
X248043Y4004D01*
X255872Y4035D01*
G37*
G36*
X234630Y144296D02*
X234630Y144296D01*
X234632Y144296D01*
X234632Y144298D01*
X234633Y144300D01*
X234632Y144301D01*
X234632Y144304D01*
X233005Y145931D01*
X233005Y150069D01*
X235931Y152995D01*
X240069Y152995D01*
X240783Y152281D01*
X240784Y152281D01*
X240784Y152280D01*
X240786Y152281D01*
X240790Y152281D01*
X240790Y152282D01*
X240791Y152283D01*
X241570Y154162D01*
X241703Y154296D01*
X241703Y154298D01*
X241704Y154298D01*
X241704Y154299D01*
X241705Y154300D01*
X241705Y157100D01*
X241700Y157105D01*
X241700Y157104D01*
X241700Y157105D01*
X241109Y157105D01*
X238538Y158170D01*
X236570Y160138D01*
X236212Y161002D01*
X236208Y161003D01*
X236207Y161005D01*
X233931Y161005D01*
X233004Y161932D01*
X232997Y161933D01*
X232997Y161932D01*
X232996Y161932D01*
X232069Y161005D01*
X227931Y161005D01*
X225005Y163931D01*
X225005Y168069D01*
X227931Y170995D01*
X232069Y170995D01*
X232996Y170068D01*
X233003Y170067D01*
X233003Y170068D01*
X233004Y170068D01*
X233931Y170995D01*
X236700Y170995D01*
X236705Y171000D01*
X236704Y171000D01*
X236705Y171000D01*
X236705Y175864D01*
X236703Y175866D01*
X236703Y175868D01*
X236301Y176270D01*
X232905Y179666D01*
X232905Y200343D01*
X232904Y200344D01*
X232904Y200346D01*
X232902Y200346D01*
X232900Y200348D01*
X232899Y200346D01*
X232896Y200347D01*
X232246Y199696D01*
X229491Y198555D01*
X226509Y198555D01*
X223754Y199696D01*
X221646Y201804D01*
X220505Y204559D01*
X220505Y207541D01*
X221224Y209277D01*
X221223Y209280D01*
X221224Y209281D01*
X220405Y211259D01*
X220405Y214241D01*
X221546Y216996D01*
X223654Y219104D01*
X226409Y220245D01*
X229391Y220245D01*
X232146Y219104D01*
X234254Y216996D01*
X234274Y216948D01*
X234277Y216947D01*
X234278Y216945D01*
X239917Y216945D01*
X245996Y210866D01*
X245998Y210866D01*
X245999Y210865D01*
X246001Y210866D01*
X246003Y210866D01*
X246003Y210868D01*
X246005Y210870D01*
X246005Y211069D01*
X248931Y213995D01*
X253069Y213995D01*
X255995Y211069D01*
X255995Y206931D01*
X253069Y204005D01*
X248931Y204005D01*
X247804Y205132D01*
X247802Y205132D01*
X247801Y205133D01*
X247799Y205132D01*
X247797Y205132D01*
X247797Y205130D01*
X247795Y205129D01*
X247795Y186800D01*
X247800Y186795D01*
X247800Y186796D01*
X247800Y186795D01*
X255900Y186795D01*
X255902Y186797D01*
X255904Y186797D01*
X256038Y186930D01*
X258609Y187995D01*
X261391Y187995D01*
X263765Y187012D01*
X263768Y187013D01*
X263770Y187013D01*
X265688Y188930D01*
X268259Y189995D01*
X271041Y189995D01*
X272498Y189392D01*
X272500Y189393D01*
X272502Y189392D01*
X273959Y189995D01*
X276741Y189995D01*
X279312Y188930D01*
X281280Y186962D01*
X282345Y184391D01*
X282345Y181609D01*
X281280Y179038D01*
X279947Y177704D01*
X279946Y177702D01*
X279945Y177700D01*
X279945Y168203D01*
X279946Y168202D01*
X279946Y168200D01*
X279948Y168200D01*
X279950Y168198D01*
X279951Y168200D01*
X279954Y168200D01*
X281896Y170142D01*
X284559Y171245D01*
X287441Y171245D01*
X290104Y170142D01*
X292142Y168104D01*
X293245Y165441D01*
X293245Y162559D01*
X292142Y159896D01*
X290104Y157858D01*
X288862Y157343D01*
X288861Y157343D01*
X288861Y157341D01*
X288859Y157337D01*
X288860Y157337D01*
X288860Y157335D01*
X290996Y155199D01*
X290998Y155199D01*
X290999Y155198D01*
X291000Y155198D01*
X291001Y155199D01*
X291003Y155199D01*
X291003Y155201D01*
X291005Y155203D01*
X291005Y156241D01*
X292759Y157995D01*
X297011Y157995D01*
X297012Y157996D01*
X297014Y157996D01*
X297014Y157998D01*
X297016Y158000D01*
X297015Y158001D01*
X297015Y158003D01*
X296998Y158025D01*
X296999Y158030D01*
X297000Y158040D01*
X297001Y158045D01*
X297002Y158055D01*
X297003Y158060D01*
X297004Y158070D01*
X297004Y158075D01*
X297006Y158089D01*
X297007Y158094D01*
X297008Y158104D01*
X297009Y158109D01*
X297010Y158119D01*
X297010Y158124D01*
X297012Y158134D01*
X297012Y158139D01*
X297013Y158149D01*
X297014Y158149D01*
X297013Y158149D01*
X297014Y158154D01*
X297016Y158169D01*
X297016Y158174D01*
X297017Y158174D01*
X297018Y158184D01*
X297018Y158189D01*
X297020Y158199D01*
X297020Y158204D01*
X297021Y158214D01*
X297022Y158219D01*
X297024Y158234D01*
X297024Y158238D01*
X297024Y158239D01*
X297026Y158248D01*
X297026Y158253D01*
X297027Y158263D01*
X297028Y158268D01*
X297029Y158278D01*
X297030Y158283D01*
X297031Y158293D01*
X297032Y158298D01*
X297033Y158313D01*
X297034Y158318D01*
X297035Y158328D01*
X297036Y158333D01*
X297037Y158343D01*
X297038Y158348D01*
X297039Y158358D01*
X297039Y158363D01*
X297041Y158378D01*
X297042Y158383D01*
X297043Y158393D01*
X297044Y158397D01*
X297044Y158398D01*
X297045Y158407D01*
X297045Y158412D01*
X297047Y158422D01*
X297047Y158427D01*
X297048Y158437D01*
X297049Y158437D01*
X297048Y158437D01*
X297049Y158442D01*
X297051Y158457D01*
X297051Y158462D01*
X297052Y158462D01*
X297053Y158472D01*
X297053Y158477D01*
X297055Y158487D01*
X297055Y158492D01*
X297056Y158502D01*
X297057Y158507D01*
X297059Y158522D01*
X297059Y158527D01*
X297061Y158537D01*
X297061Y158542D01*
X297062Y158552D01*
X297063Y158556D01*
X297063Y158557D01*
X297064Y158566D01*
X297065Y158571D01*
X297066Y158581D01*
X297067Y158586D01*
X297068Y158601D01*
X297069Y158606D01*
X297070Y158616D01*
X297071Y158621D01*
X297072Y158631D01*
X297073Y158636D01*
X297074Y158646D01*
X297074Y158651D01*
X297076Y158666D01*
X297077Y158671D01*
X297078Y158681D01*
X297079Y158686D01*
X297080Y158696D01*
X297080Y158701D01*
X297082Y158711D01*
X297082Y158715D01*
X297082Y158716D01*
X297083Y158725D01*
X297084Y158725D01*
X297083Y158725D01*
X297084Y158730D01*
X297086Y158745D01*
X297086Y158750D01*
X297087Y158750D01*
X297088Y158760D01*
X297088Y158765D01*
X297090Y158775D01*
X297090Y158780D01*
X297091Y158790D01*
X297092Y158795D01*
X297093Y158805D01*
X297094Y158810D01*
X297094Y158815D01*
X297096Y158825D01*
X297096Y158830D01*
X297097Y158840D01*
X297098Y158845D01*
X297099Y158855D01*
X297100Y158860D01*
X297101Y158870D01*
X297102Y158874D01*
X297102Y158875D01*
X297103Y158889D01*
X297104Y158894D01*
X297105Y158901D01*
X297105Y159125D01*
X297104Y159126D01*
X297104Y159127D01*
X296988Y159386D01*
X297104Y159694D01*
X297104Y159695D01*
X297105Y159696D01*
X297105Y159784D01*
X297158Y159837D01*
X297158Y159838D01*
X297159Y159838D01*
X297247Y160069D01*
X297246Y160070D01*
X297247Y160070D01*
X297248Y160077D01*
X297248Y160082D01*
X297249Y160092D01*
X297250Y160097D01*
X297251Y160102D01*
X297252Y160112D01*
X297252Y160117D01*
X297254Y160127D01*
X297254Y160132D01*
X297255Y160142D01*
X297256Y160142D01*
X297255Y160142D01*
X297256Y160146D01*
X297256Y160147D01*
X297257Y160156D01*
X297258Y160161D01*
X297258Y160166D01*
X297259Y160166D01*
X297260Y160176D01*
X297260Y160181D01*
X297262Y160191D01*
X297262Y160196D01*
X297263Y160206D01*
X297264Y160211D01*
X297265Y160221D01*
X297266Y160226D01*
X297266Y160231D01*
X297268Y160241D01*
X297268Y160246D01*
X297269Y160256D01*
X297270Y160261D01*
X297271Y160271D01*
X297272Y160276D01*
X297273Y160286D01*
X297274Y160291D01*
X297274Y160296D01*
X297275Y160305D01*
X297275Y160306D01*
X297276Y160310D01*
X297276Y160311D01*
X297277Y160320D01*
X297278Y160325D01*
X297279Y160335D01*
X297280Y160340D01*
X297281Y160355D01*
X297282Y160360D01*
X297283Y160370D01*
X297284Y160375D01*
X297285Y160385D01*
X297286Y160390D01*
X297287Y160400D01*
X297287Y160405D01*
X297289Y160420D01*
X297290Y160425D01*
X297291Y160435D01*
X297292Y160440D01*
X297293Y160450D01*
X297293Y160455D01*
X297294Y160455D01*
X297293Y160455D01*
X297295Y160464D01*
X297295Y160465D01*
X297295Y160469D01*
X297295Y160470D01*
X297297Y160484D01*
X297298Y160489D01*
X297299Y160499D01*
X297300Y160504D01*
X297301Y160514D01*
X297301Y160519D01*
X297303Y160529D01*
X297303Y160534D01*
X297305Y160549D01*
X297306Y160554D01*
X297307Y160564D01*
X297307Y160569D01*
X297309Y160579D01*
X297309Y160584D01*
X297310Y160594D01*
X297311Y160599D01*
X297313Y160614D01*
X297313Y160619D01*
X297315Y160628D01*
X297315Y160629D01*
X297315Y160633D01*
X297316Y160639D01*
X297315Y160640D01*
X297316Y160641D01*
X297303Y160711D01*
X297329Y160748D01*
X297328Y160749D01*
X297329Y160750D01*
X297330Y160758D01*
X297331Y160763D01*
X297333Y160778D01*
X297333Y160782D01*
X297333Y160783D01*
X297335Y160792D01*
X297335Y160795D01*
X297391Y160839D01*
X297391Y160840D01*
X297392Y160840D01*
X297718Y161312D01*
X297718Y161313D01*
X297922Y161849D01*
X297921Y161850D01*
X297922Y161851D01*
X297925Y161895D01*
X297925Y161896D01*
X297926Y161922D01*
X297960Y161951D01*
X297960Y161953D01*
X297961Y161953D01*
X297977Y161995D01*
X298042Y162024D01*
X298042Y162025D01*
X298043Y162025D01*
X298473Y162406D01*
X298473Y162407D01*
X298799Y162879D01*
X298799Y162880D01*
X298800Y162880D01*
X298821Y162948D01*
X298861Y162969D01*
X298861Y162970D01*
X298863Y162970D01*
X298888Y163007D01*
X298958Y163020D01*
X298959Y163021D01*
X298960Y163021D01*
X299302Y163200D01*
X299303Y163204D01*
X299305Y163205D01*
X299305Y172629D01*
X299303Y172631D01*
X299303Y172632D01*
X298005Y173931D01*
X298005Y178069D01*
X299703Y179768D01*
X299704Y179770D01*
X299705Y179771D01*
X299705Y205729D01*
X301637Y207661D01*
X302703Y208727D01*
X302704Y208730D01*
X302705Y208731D01*
X302705Y215700D01*
X302700Y215705D01*
X302700Y215704D01*
X302700Y215705D01*
X246635Y215705D01*
X240637Y221703D01*
X240634Y221704D01*
X240633Y221705D01*
X218367Y221705D01*
X218365Y221703D01*
X218363Y221703D01*
X212365Y215705D01*
X192635Y215705D01*
X191337Y217003D01*
X191334Y217004D01*
X191333Y217005D01*
X188931Y217005D01*
X186005Y219931D01*
X186005Y224069D01*
X188931Y226995D01*
X193069Y226995D01*
X193696Y226368D01*
X193698Y226368D01*
X193699Y226367D01*
X193701Y226368D01*
X193703Y226368D01*
X193703Y226370D01*
X193705Y226371D01*
X193705Y230629D01*
X193704Y230630D01*
X193704Y230632D01*
X193702Y230632D01*
X193700Y230633D01*
X193699Y230632D01*
X193696Y230632D01*
X193069Y230005D01*
X188931Y230005D01*
X186005Y232931D01*
X186005Y237069D01*
X188931Y239995D01*
X193069Y239995D01*
X194768Y238297D01*
X194770Y238296D01*
X194771Y238296D01*
X194771Y238295D01*
X196365Y238295D01*
X200295Y234365D01*
X200295Y227367D01*
X200297Y227365D01*
X200297Y227363D01*
X201363Y226297D01*
X201366Y226297D01*
X201366Y226296D01*
X201367Y226295D01*
X207633Y226295D01*
X207635Y226297D01*
X207637Y226297D01*
X214635Y233295D01*
X245365Y233295D01*
X247297Y231363D01*
X252363Y226297D01*
X252366Y226297D01*
X252366Y226296D01*
X252367Y226295D01*
X298633Y226295D01*
X298635Y226297D01*
X298637Y226297D01*
X302635Y230295D01*
X308229Y230295D01*
X308231Y230297D01*
X308232Y230297D01*
X309931Y231995D01*
X314069Y231995D01*
X316995Y229069D01*
X316995Y224931D01*
X315297Y223232D01*
X315296Y223230D01*
X315295Y223229D01*
X315295Y211000D01*
X315300Y210995D01*
X315300Y210996D01*
X315300Y210995D01*
X317929Y210995D01*
X317931Y210997D01*
X317932Y210997D01*
X319931Y212995D01*
X324069Y212995D01*
X326396Y210668D01*
X326403Y210667D01*
X326403Y210668D01*
X326404Y210668D01*
X328431Y212695D01*
X332569Y212695D01*
X334796Y210468D01*
X334803Y210467D01*
X334803Y210468D01*
X334804Y210468D01*
X337331Y212995D01*
X341469Y212995D01*
X344046Y210418D01*
X344053Y210417D01*
X344053Y210418D01*
X344054Y210418D01*
X346331Y212695D01*
X350469Y212695D01*
X353046Y210118D01*
X353053Y210117D01*
X353053Y210118D01*
X353054Y210118D01*
X355931Y212995D01*
X360069Y212995D01*
X362996Y210068D01*
X363003Y210067D01*
X363003Y210068D01*
X363004Y210068D01*
X365931Y212995D01*
X370069Y212995D01*
X372995Y210069D01*
X372995Y205931D01*
X372568Y205504D01*
X372568Y205502D01*
X372567Y205501D01*
X372568Y205499D01*
X372568Y205497D01*
X372570Y205497D01*
X372571Y205495D01*
X415550Y205495D01*
X415552Y205497D01*
X415554Y205497D01*
X417003Y206946D01*
X417004Y206949D01*
X417005Y206950D01*
X417005Y209069D01*
X419931Y211995D01*
X420445Y211995D01*
X420446Y211997D01*
X420449Y211997D01*
X420449Y211999D01*
X420450Y212000D01*
X420448Y212002D01*
X420447Y212005D01*
X418698Y212845D01*
X412924Y215450D01*
X406985Y217964D01*
X400886Y220385D01*
X394633Y222710D01*
X388232Y224936D01*
X381690Y227061D01*
X375016Y229083D01*
X368213Y230999D01*
X361289Y232808D01*
X354254Y234507D01*
X352089Y234988D01*
X352087Y234987D01*
X352085Y234987D01*
X352085Y234986D01*
X352083Y234985D01*
X352084Y234983D01*
X352084Y234980D01*
X352995Y234069D01*
X352995Y229931D01*
X351297Y228232D01*
X351297Y228231D01*
X351295Y228230D01*
X351296Y228229D01*
X351295Y228229D01*
X351295Y225205D01*
X351297Y225202D01*
X351298Y225200D01*
X351640Y225021D01*
X351641Y225021D01*
X351642Y225020D01*
X351712Y225007D01*
X351737Y224970D01*
X351739Y224970D01*
X351739Y224969D01*
X351779Y224948D01*
X351800Y224880D01*
X351801Y224879D01*
X352127Y224407D01*
X352127Y224406D01*
X352557Y224025D01*
X352558Y224025D01*
X352558Y224024D01*
X352623Y223995D01*
X352639Y223953D01*
X352640Y223953D01*
X352640Y223951D01*
X352674Y223922D01*
X352678Y223851D01*
X352679Y223850D01*
X352678Y223849D01*
X352882Y223313D01*
X352882Y223312D01*
X353208Y222840D01*
X353209Y222840D01*
X353209Y222839D01*
X353265Y222795D01*
X353271Y222750D01*
X353272Y222749D01*
X353271Y222748D01*
X353297Y222711D01*
X353284Y222641D01*
X353285Y222640D01*
X353284Y222640D01*
X353284Y222639D01*
X353353Y222070D01*
X353354Y222069D01*
X353353Y222069D01*
X353441Y221838D01*
X353442Y221838D01*
X353442Y221837D01*
X353495Y221784D01*
X353495Y221696D01*
X353496Y221695D01*
X353496Y221694D01*
X353551Y221548D01*
X353554Y221547D01*
X353556Y221545D01*
X379125Y221545D01*
X379127Y221547D01*
X379129Y221547D01*
X380827Y223245D01*
X385173Y223245D01*
X388245Y220173D01*
X388245Y215827D01*
X385173Y212755D01*
X380827Y212755D01*
X378629Y214953D01*
X378626Y214954D01*
X378625Y214955D01*
X351595Y214955D01*
X351594Y214954D01*
X351593Y214954D01*
X351133Y214713D01*
X351132Y214712D01*
X350702Y214332D01*
X350702Y214331D01*
X350701Y214331D01*
X350664Y214270D01*
X350621Y214259D01*
X350620Y214258D01*
X350619Y214258D01*
X350585Y214228D01*
X350519Y214232D01*
X350514Y214232D01*
X350513Y214232D01*
X349956Y214095D01*
X349955Y214094D01*
X349447Y213828D01*
X349446Y213827D01*
X349445Y213827D01*
X349395Y213777D01*
X349350Y213777D01*
X349349Y213776D01*
X349348Y213776D01*
X349308Y213755D01*
X349240Y213776D01*
X349239Y213776D01*
X349239Y213777D01*
X348665Y213777D01*
X348665Y213776D01*
X348664Y213777D01*
X348107Y213639D01*
X348107Y213638D01*
X348106Y213639D01*
X348045Y213602D01*
X348001Y213613D01*
X348000Y213612D01*
X347999Y213613D01*
X347955Y213602D01*
X347894Y213639D01*
X347893Y213639D01*
X347336Y213777D01*
X347335Y213776D01*
X347335Y213777D01*
X346761Y213777D01*
X346760Y213776D01*
X346692Y213755D01*
X346652Y213776D01*
X346650Y213776D01*
X346650Y213777D01*
X346605Y213777D01*
X346555Y213827D01*
X346554Y213827D01*
X346553Y213828D01*
X346045Y214094D01*
X346044Y214095D01*
X345487Y214232D01*
X345486Y214232D01*
X345481Y214232D01*
X345415Y214228D01*
X345381Y214258D01*
X345380Y214258D01*
X345379Y214259D01*
X345336Y214270D01*
X345299Y214331D01*
X345298Y214331D01*
X345298Y214332D01*
X344868Y214712D01*
X344867Y214713D01*
X344360Y214979D01*
X344359Y214979D01*
X344358Y214980D01*
X344288Y214993D01*
X344263Y215030D01*
X344261Y215030D01*
X344261Y215031D01*
X344221Y215052D01*
X344200Y215120D01*
X344199Y215121D01*
X343873Y215593D01*
X343873Y215594D01*
X343443Y215975D01*
X343442Y215975D01*
X343442Y215976D01*
X343377Y216005D01*
X343361Y216047D01*
X343360Y216047D01*
X343360Y216049D01*
X343326Y216078D01*
X343322Y216149D01*
X343321Y216150D01*
X343322Y216151D01*
X343118Y216687D01*
X343118Y216688D01*
X342792Y217160D01*
X342791Y217160D01*
X342791Y217161D01*
X342735Y217205D01*
X342729Y217250D01*
X342728Y217251D01*
X342729Y217252D01*
X342703Y217289D01*
X342716Y217359D01*
X342715Y217360D01*
X342716Y217361D01*
X342647Y217930D01*
X342646Y217931D01*
X342647Y217931D01*
X342559Y218162D01*
X342558Y218162D01*
X342558Y218163D01*
X342505Y218216D01*
X342505Y218304D01*
X342504Y218305D01*
X342504Y218306D01*
X342388Y218614D01*
X342504Y218873D01*
X342504Y218874D01*
X342505Y218875D01*
X342505Y219099D01*
X342398Y219975D01*
X342415Y219997D01*
X342415Y220000D01*
X342416Y220000D01*
X342415Y220001D01*
X342415Y220002D01*
X342415Y220003D01*
X342398Y220025D01*
X342400Y220035D01*
X342400Y220040D01*
X342401Y220050D01*
X342402Y220055D01*
X342404Y220070D01*
X342404Y220075D01*
X342406Y220085D01*
X342406Y220089D01*
X342406Y220090D01*
X342407Y220099D01*
X342408Y220104D01*
X342409Y220114D01*
X342410Y220119D01*
X342411Y220129D01*
X342412Y220134D01*
X342413Y220149D01*
X342414Y220149D01*
X342413Y220149D01*
X342414Y220154D01*
X342415Y220164D01*
X342416Y220169D01*
X342417Y220179D01*
X342418Y220184D01*
X342419Y220194D01*
X342420Y220199D01*
X342421Y220214D01*
X342422Y220219D01*
X342423Y220229D01*
X342424Y220234D01*
X342425Y220244D01*
X342426Y220248D01*
X342426Y220249D01*
X342427Y220258D01*
X342427Y220263D01*
X342429Y220273D01*
X342429Y220278D01*
X342431Y220293D01*
X342432Y220298D01*
X342433Y220308D01*
X342433Y220313D01*
X342435Y220323D01*
X342435Y220328D01*
X342436Y220338D01*
X342437Y220343D01*
X342439Y220358D01*
X342439Y220363D01*
X342441Y220373D01*
X342441Y220378D01*
X342442Y220388D01*
X342443Y220393D01*
X342444Y220403D01*
X342445Y220407D01*
X342445Y220408D01*
X342446Y220417D01*
X342447Y220422D01*
X342448Y220437D01*
X342449Y220437D01*
X342448Y220437D01*
X342449Y220442D01*
X342450Y220452D01*
X342451Y220457D01*
X342452Y220467D01*
X342453Y220472D01*
X342454Y220482D01*
X342455Y220487D01*
X342456Y220502D01*
X342457Y220507D01*
X342458Y220517D01*
X342459Y220522D01*
X342460Y220532D01*
X342461Y220537D01*
X342462Y220547D01*
X342462Y220552D01*
X342464Y220562D01*
X342464Y220566D01*
X342464Y220567D01*
X342466Y220581D01*
X342467Y220586D01*
X342468Y220596D01*
X342468Y220601D01*
X342470Y220611D01*
X342470Y220616D01*
X342471Y220626D01*
X342472Y220631D01*
X342474Y220646D01*
X342474Y220651D01*
X342476Y220661D01*
X342476Y220666D01*
X342477Y220676D01*
X342478Y220681D01*
X342479Y220691D01*
X342480Y220696D01*
X342481Y220706D01*
X342482Y220711D01*
X342483Y220725D01*
X342484Y220726D01*
X342483Y220726D01*
X342484Y220730D01*
X342484Y220731D01*
X342485Y220740D01*
X342486Y220745D01*
X342487Y220755D01*
X342488Y220760D01*
X342489Y220770D01*
X342490Y220775D01*
X342491Y220785D01*
X342491Y220790D01*
X342493Y220805D01*
X342494Y220810D01*
X342495Y220820D01*
X342496Y220825D01*
X342497Y220835D01*
X342497Y220840D01*
X342499Y220850D01*
X342499Y220855D01*
X342501Y220870D01*
X342502Y220875D01*
X342503Y220884D01*
X342503Y220885D01*
X342503Y220889D01*
X342503Y220890D01*
X342505Y220899D01*
X342505Y220901D01*
X342505Y221125D01*
X342504Y221126D01*
X342504Y221127D01*
X342388Y221386D01*
X342504Y221694D01*
X342504Y221695D01*
X342505Y221696D01*
X342505Y221784D01*
X342558Y221837D01*
X342558Y221838D01*
X342559Y221838D01*
X342647Y222069D01*
X342646Y222070D01*
X342647Y222070D01*
X342647Y222072D01*
X342648Y222077D01*
X342649Y222092D01*
X342650Y222097D01*
X342651Y222107D01*
X342652Y222112D01*
X342653Y222122D01*
X342654Y222127D01*
X342655Y222137D01*
X342655Y222142D01*
X342656Y222142D01*
X342655Y222142D01*
X342657Y222156D01*
X342657Y222157D01*
X342658Y222161D01*
X342658Y222162D01*
X342659Y222171D01*
X342660Y222176D01*
X342661Y222186D01*
X342662Y222191D01*
X342663Y222201D01*
X342663Y222206D01*
X342665Y222221D01*
X342666Y222226D01*
X342667Y222236D01*
X342668Y222241D01*
X342669Y222251D01*
X342669Y222256D01*
X342671Y222266D01*
X342671Y222271D01*
X342672Y222281D01*
X342673Y222286D01*
X342675Y222301D01*
X342675Y222306D01*
X342677Y222315D01*
X342677Y222316D01*
X342677Y222320D01*
X342677Y222321D01*
X342678Y222330D01*
X342679Y222335D01*
X342680Y222345D01*
X342681Y222350D01*
X342683Y222365D01*
X342683Y222370D01*
X342684Y222380D01*
X342685Y222385D01*
X342686Y222395D01*
X342687Y222400D01*
X342688Y222410D01*
X342689Y222415D01*
X342690Y222425D01*
X342690Y222430D01*
X342691Y222430D01*
X342690Y222430D01*
X342692Y222445D01*
X342693Y222450D01*
X342694Y222460D01*
X342695Y222465D01*
X342696Y222474D01*
X342696Y222475D01*
X342697Y222479D01*
X342697Y222480D01*
X342698Y222489D01*
X342698Y222494D01*
X342700Y222509D01*
X342701Y222514D01*
X342702Y222524D01*
X342703Y222529D01*
X342704Y222539D01*
X342704Y222544D01*
X342706Y222554D01*
X342706Y222559D01*
X342708Y222574D01*
X342709Y222579D01*
X342710Y222589D01*
X342710Y222594D01*
X342712Y222604D01*
X342712Y222609D01*
X342713Y222619D01*
X342714Y222624D01*
X342715Y222633D01*
X342715Y222634D01*
X342716Y222638D01*
X342716Y222639D01*
X342715Y222640D01*
X342716Y222641D01*
X342703Y222711D01*
X342729Y222748D01*
X342728Y222750D01*
X342729Y222750D01*
X342730Y222758D01*
X342731Y222763D01*
X342732Y222773D01*
X342733Y222778D01*
X342734Y222788D01*
X342735Y222792D01*
X342735Y222793D01*
X342735Y222795D01*
X342791Y222839D01*
X342791Y222840D01*
X342792Y222840D01*
X343118Y223312D01*
X343118Y223313D01*
X343322Y223849D01*
X343321Y223850D01*
X343322Y223851D01*
X343324Y223886D01*
X343326Y223920D01*
X343326Y223922D01*
X343360Y223951D01*
X343360Y223953D01*
X343361Y223953D01*
X343377Y223995D01*
X343442Y224024D01*
X343442Y224025D01*
X343443Y224025D01*
X343873Y224406D01*
X343873Y224407D01*
X344199Y224879D01*
X344199Y224880D01*
X344200Y224880D01*
X344221Y224948D01*
X344261Y224969D01*
X344261Y224970D01*
X344262Y224970D01*
X344288Y225007D01*
X344358Y225020D01*
X344359Y225021D01*
X344360Y225021D01*
X344702Y225200D01*
X344703Y225204D01*
X344705Y225205D01*
X344705Y228229D01*
X344703Y228231D01*
X344703Y228232D01*
X343504Y229432D01*
X343497Y229433D01*
X343497Y229432D01*
X343496Y229432D01*
X341069Y227005D01*
X336931Y227005D01*
X335004Y228932D01*
X334997Y228933D01*
X334997Y228932D01*
X334996Y228932D01*
X333069Y227005D01*
X328931Y227005D01*
X326005Y229931D01*
X326005Y234069D01*
X328931Y236995D01*
X333069Y236995D01*
X334996Y235068D01*
X335003Y235067D01*
X335003Y235068D01*
X335004Y235068D01*
X336931Y236995D01*
X341069Y236995D01*
X343496Y234568D01*
X343503Y234567D01*
X343503Y234568D01*
X343504Y234568D01*
X345376Y236440D01*
X345376Y236442D01*
X345377Y236442D01*
X345376Y236444D01*
X345376Y236447D01*
X345375Y236447D01*
X345374Y236449D01*
X339871Y237569D01*
X332539Y238929D01*
X325124Y240173D01*
X317632Y241299D01*
X317631Y241299D01*
X310069Y242307D01*
X302448Y243195D01*
X294772Y243962D01*
X290000Y244361D01*
X289995Y244357D01*
X289996Y244357D01*
X289995Y244356D01*
X289995Y234005D01*
X286452Y234005D01*
X286450Y234003D01*
X286448Y234003D01*
X285968Y233343D01*
X282500Y232216D01*
X279032Y233343D01*
X278552Y234003D01*
X278550Y234004D01*
X278548Y234005D01*
X210005Y234005D01*
X210005Y244365D01*
X210001Y244369D01*
X210000Y244369D01*
X210000Y244370D01*
X209973Y244367D01*
X209907Y244363D01*
X209841Y244358D01*
X209776Y244353D01*
X209775Y244353D01*
X209710Y244348D01*
X209644Y244343D01*
X209578Y244338D01*
X209513Y244333D01*
X209447Y244328D01*
X209381Y244323D01*
X209315Y244318D01*
X209250Y244313D01*
X209184Y244308D01*
X209118Y244303D01*
X209082Y244300D01*
X201384Y243594D01*
X193733Y242766D01*
X186141Y241818D01*
X178613Y240751D01*
X171159Y239566D01*
X163783Y238264D01*
X156497Y236846D01*
X149306Y235315D01*
X149305Y235315D01*
X142214Y233671D01*
X142213Y233671D01*
X135234Y231917D01*
X133879Y231549D01*
X133878Y231549D01*
X133877Y231549D01*
X133877Y231547D01*
X133875Y231544D01*
X133877Y231543D01*
X133877Y231541D01*
X136245Y229173D01*
X136245Y224827D01*
X133173Y221755D01*
X130700Y221755D01*
X130698Y221753D01*
X130696Y221753D01*
X126497Y217554D01*
X126497Y217552D01*
X126496Y217552D01*
X126496Y217551D01*
X126495Y217550D01*
X126495Y209450D01*
X126497Y209448D01*
X126497Y209446D01*
X128759Y207184D01*
X128766Y207183D01*
X128766Y207184D01*
X129827Y208245D01*
X134173Y208245D01*
X137245Y205173D01*
X137245Y201120D01*
X137246Y201119D01*
X137246Y201117D01*
X137248Y201117D01*
X137250Y201115D01*
X137251Y201116D01*
X137254Y201116D01*
X138233Y202095D01*
X165767Y202095D01*
X178795Y189067D01*
X178795Y160828D01*
X178796Y160828D01*
X178795Y160827D01*
X178797Y160826D01*
X178800Y160824D01*
X178801Y160825D01*
X178802Y160824D01*
X181509Y161945D01*
X184491Y161945D01*
X187246Y160804D01*
X189354Y158696D01*
X190495Y155941D01*
X190495Y152959D01*
X189676Y150981D01*
X189676Y150980D01*
X189677Y150979D01*
X189676Y150977D01*
X190395Y149241D01*
X190395Y146259D01*
X189585Y144302D01*
X189585Y144301D01*
X189584Y144301D01*
X189585Y144299D01*
X189587Y144296D01*
X189588Y144296D01*
X189589Y144295D01*
X234629Y144295D01*
X234630Y144296D01*
G37*
G36*
X382552Y111497D02*
X382552Y111497D01*
X382554Y111497D01*
X399552Y128495D01*
X442429Y128495D01*
X442431Y128497D01*
X442432Y128497D01*
X443931Y129995D01*
X448069Y129995D01*
X449796Y128268D01*
X449798Y128268D01*
X449799Y128267D01*
X449801Y128268D01*
X449803Y128268D01*
X449803Y128270D01*
X449805Y128271D01*
X449805Y145018D01*
X449803Y145019D01*
X449803Y145021D01*
X434321Y160503D01*
X434319Y160504D01*
X434318Y160505D01*
X421571Y160505D01*
X421569Y160503D01*
X421568Y160503D01*
X420069Y159005D01*
X415931Y159005D01*
X413005Y161931D01*
X413005Y166069D01*
X415931Y168995D01*
X419929Y168995D01*
X419930Y168996D01*
X419932Y168996D01*
X419932Y168998D01*
X419933Y169000D01*
X419932Y169001D01*
X419932Y169004D01*
X417005Y171931D01*
X417005Y176069D01*
X418432Y177496D01*
X418433Y177503D01*
X418432Y177503D01*
X418432Y177504D01*
X417005Y178931D01*
X417005Y183069D01*
X419931Y185995D01*
X424069Y185995D01*
X426995Y183069D01*
X426995Y178931D01*
X425568Y177504D01*
X425567Y177497D01*
X425568Y177497D01*
X425568Y177496D01*
X426995Y176069D01*
X426995Y171931D01*
X424069Y169005D01*
X420071Y169005D01*
X420070Y169004D01*
X420068Y169004D01*
X420068Y169002D01*
X420067Y169000D01*
X420068Y168999D01*
X420068Y168996D01*
X421568Y167497D01*
X421570Y167496D01*
X421571Y167495D01*
X437215Y167495D01*
X456496Y148214D01*
X456498Y148214D01*
X456499Y148213D01*
X456501Y148214D01*
X456503Y148214D01*
X456503Y148216D01*
X456505Y148218D01*
X456505Y158550D01*
X456503Y158552D01*
X456503Y158554D01*
X426254Y188803D01*
X426251Y188804D01*
X426250Y188805D01*
X398271Y188805D01*
X398270Y188804D01*
X398268Y188804D01*
X398268Y188802D01*
X398267Y188800D01*
X398268Y188799D01*
X398268Y188796D01*
X399495Y187569D01*
X399495Y183431D01*
X396569Y180505D01*
X392431Y180505D01*
X389505Y183431D01*
X389505Y187569D01*
X390732Y188796D01*
X390732Y188798D01*
X390733Y188799D01*
X390732Y188801D01*
X390732Y188803D01*
X390730Y188803D01*
X390729Y188805D01*
X387771Y188805D01*
X387770Y188804D01*
X387768Y188804D01*
X387768Y188802D01*
X387767Y188800D01*
X387768Y188799D01*
X387768Y188796D01*
X388995Y187569D01*
X388995Y183431D01*
X386069Y180505D01*
X381931Y180505D01*
X379005Y183431D01*
X379005Y187569D01*
X380232Y188796D01*
X380232Y188798D01*
X380233Y188799D01*
X380232Y188801D01*
X380232Y188803D01*
X380230Y188803D01*
X380229Y188805D01*
X340870Y188805D01*
X340868Y188804D01*
X340867Y188804D01*
X340867Y188802D01*
X340865Y188800D01*
X340866Y188799D01*
X340866Y188796D01*
X345095Y184567D01*
X345095Y144232D01*
X338866Y138004D01*
X338866Y138002D01*
X338865Y138001D01*
X338866Y137999D01*
X338866Y137997D01*
X338868Y137997D01*
X338870Y137995D01*
X340069Y137995D01*
X341996Y136068D01*
X342003Y136067D01*
X342003Y136068D01*
X342004Y136068D01*
X343931Y137995D01*
X348069Y137995D01*
X350995Y135069D01*
X350995Y130931D01*
X349568Y129504D01*
X349568Y129502D01*
X349566Y129501D01*
X349568Y129499D01*
X349567Y129497D01*
X349568Y129497D01*
X349568Y129496D01*
X350995Y128069D01*
X350995Y123931D01*
X348069Y121005D01*
X343931Y121005D01*
X342004Y122932D01*
X341997Y122933D01*
X341997Y122932D01*
X341996Y122932D01*
X340069Y121005D01*
X337321Y121005D01*
X337320Y121004D01*
X337318Y121004D01*
X337318Y121002D01*
X337317Y121000D01*
X337318Y120999D01*
X337318Y120996D01*
X340245Y118069D01*
X340245Y113931D01*
X337818Y111504D01*
X337818Y111502D01*
X337817Y111501D01*
X337818Y111499D01*
X337818Y111497D01*
X337820Y111497D01*
X337821Y111495D01*
X382550Y111495D01*
X382552Y111497D01*
G37*
G36*
X302448Y6805D02*
X302448Y6805D01*
X310069Y7693D01*
X317631Y8701D01*
X325124Y9827D01*
X332539Y11071D01*
X339871Y12431D01*
X347111Y13905D01*
X354253Y15493D01*
X354254Y15493D01*
X361289Y17192D01*
X368213Y19001D01*
X375016Y20917D01*
X381690Y22939D01*
X388232Y25064D01*
X394633Y27290D01*
X400886Y29615D01*
X406985Y32036D01*
X412924Y34550D01*
X418344Y36995D01*
X418346Y36998D01*
X418347Y36999D01*
X418347Y37000D01*
X418347Y37001D01*
X418344Y37003D01*
X418342Y37005D01*
X415931Y37005D01*
X413005Y39931D01*
X413005Y44069D01*
X415931Y46995D01*
X420000Y46995D01*
X420005Y47000D01*
X420004Y47000D01*
X420005Y47000D01*
X420005Y51069D01*
X422931Y53995D01*
X427069Y53995D01*
X429995Y51069D01*
X429995Y46931D01*
X427069Y44005D01*
X423000Y44005D01*
X422995Y44000D01*
X422996Y44000D01*
X422995Y44000D01*
X422995Y39931D01*
X421647Y38583D01*
X421647Y38580D01*
X421646Y38578D01*
X421647Y38578D01*
X421647Y38577D01*
X421650Y38576D01*
X421653Y38575D01*
X424299Y39847D01*
X429724Y42624D01*
X434963Y45482D01*
X440015Y48418D01*
X444871Y51428D01*
X444872Y51428D01*
X449531Y54510D01*
X449531Y54511D01*
X453986Y57659D01*
X458234Y60872D01*
X462268Y64144D01*
X462269Y64144D01*
X466088Y67472D01*
X469687Y70851D01*
X469688Y70851D01*
X473064Y74277D01*
X476216Y77747D01*
X479139Y81256D01*
X481831Y84799D01*
X484291Y88373D01*
X484292Y88373D01*
X486518Y91973D01*
X488511Y95596D01*
X490268Y99236D01*
X490268Y99237D01*
X491790Y102893D01*
X491791Y102893D01*
X493077Y106561D01*
X493077Y106562D01*
X493078Y106562D01*
X494130Y110239D01*
X494947Y113924D01*
X495531Y117614D01*
X495881Y121306D01*
X495998Y125000D01*
X495881Y128694D01*
X495531Y132386D01*
X494947Y136076D01*
X494130Y139761D01*
X493078Y143438D01*
X493077Y143439D01*
X491791Y147107D01*
X491790Y147107D01*
X490268Y150763D01*
X490268Y150764D01*
X488511Y154404D01*
X486518Y158027D01*
X484292Y161627D01*
X484291Y161627D01*
X481831Y165201D01*
X479139Y168744D01*
X476216Y172253D01*
X473064Y175723D01*
X469688Y179149D01*
X469687Y179149D01*
X466088Y182528D01*
X462269Y185856D01*
X462268Y185856D01*
X458234Y189128D01*
X453986Y192341D01*
X449531Y195489D01*
X449531Y195490D01*
X444872Y198572D01*
X440015Y201582D01*
X434963Y204518D01*
X429724Y207376D01*
X427002Y208769D01*
X427001Y208769D01*
X427001Y208770D01*
X426999Y208768D01*
X426996Y208767D01*
X426996Y208766D01*
X426995Y208765D01*
X426995Y204931D01*
X424069Y202005D01*
X421950Y202005D01*
X421948Y202003D01*
X421946Y202003D01*
X420497Y200554D01*
X420447Y200504D01*
X420447Y200502D01*
X420445Y200501D01*
X420446Y200499D01*
X420446Y200497D01*
X420449Y200497D01*
X420450Y200495D01*
X433448Y200495D01*
X469495Y164448D01*
X469495Y83552D01*
X444448Y58505D01*
X367450Y58505D01*
X367448Y58503D01*
X367446Y58503D01*
X320448Y11505D01*
X302450Y11505D01*
X302448Y11503D01*
X302446Y11503D01*
X299997Y9054D01*
X299996Y9051D01*
X299995Y9050D01*
X299995Y6931D01*
X299593Y6529D01*
X299593Y6527D01*
X299591Y6525D01*
X299593Y6524D01*
X299593Y6522D01*
X299595Y6522D01*
X299597Y6520D01*
X302448Y6805D01*
G37*
%LPC*%
G36*
X80552Y121505D02*
X80552Y121505D01*
X72505Y129552D01*
X72505Y136429D01*
X72503Y136431D01*
X72503Y136432D01*
X71005Y137931D01*
X71005Y142069D01*
X73931Y144995D01*
X78069Y144995D01*
X80995Y142069D01*
X80995Y137931D01*
X79497Y136432D01*
X79496Y136430D01*
X79495Y136429D01*
X79495Y132450D01*
X79497Y132448D01*
X79497Y132446D01*
X83446Y128497D01*
X83449Y128497D01*
X83449Y128496D01*
X83450Y128495D01*
X112550Y128495D01*
X112552Y128497D01*
X112554Y128497D01*
X113907Y129850D01*
X113907Y129852D01*
X113908Y129852D01*
X113907Y129852D01*
X113908Y129857D01*
X113907Y129857D01*
X113005Y130759D01*
X113005Y139500D01*
X113000Y139505D01*
X113000Y139504D01*
X113000Y139505D01*
X112813Y139505D01*
X112917Y139780D01*
X112917Y139781D01*
X112918Y139781D01*
X112918Y139782D01*
X112918Y139787D01*
X112920Y139797D01*
X112920Y139802D01*
X112921Y139812D01*
X112922Y139817D01*
X112924Y139832D01*
X112924Y139837D01*
X112926Y139847D01*
X112926Y139852D01*
X112927Y139861D01*
X112928Y139862D01*
X112927Y139862D01*
X112928Y139866D01*
X112928Y139867D01*
X112929Y139876D01*
X112930Y139881D01*
X112932Y139896D01*
X112932Y139901D01*
X112934Y139911D01*
X112934Y139916D01*
X112935Y139926D01*
X112936Y139931D01*
X112937Y139941D01*
X112938Y139946D01*
X112939Y139956D01*
X112940Y139961D01*
X112941Y139976D01*
X112942Y139981D01*
X112943Y139991D01*
X112944Y139996D01*
X112945Y140006D01*
X112946Y140011D01*
X112947Y140020D01*
X112947Y140021D01*
X112947Y140025D01*
X112947Y140026D01*
X112949Y140040D01*
X112950Y140045D01*
X112951Y140055D01*
X112952Y140060D01*
X112953Y140070D01*
X112953Y140075D01*
X112955Y140085D01*
X112955Y140090D01*
X112957Y140105D01*
X112958Y140110D01*
X112959Y140120D01*
X112959Y140125D01*
X112961Y140135D01*
X112961Y140140D01*
X112962Y140150D01*
X112963Y140150D01*
X112962Y140150D01*
X112963Y140155D01*
X112965Y140170D01*
X112965Y140175D01*
X112966Y140175D01*
X112967Y140184D01*
X112967Y140185D01*
X112967Y140189D01*
X112969Y140199D01*
X112969Y140204D01*
X112970Y140214D01*
X112971Y140219D01*
X112972Y140229D01*
X112973Y140234D01*
X112975Y140249D01*
X112975Y140254D01*
X112976Y140264D01*
X112977Y140269D01*
X112978Y140279D01*
X112979Y140284D01*
X112980Y140294D01*
X112981Y140299D01*
X112982Y140314D01*
X112983Y140319D01*
X112984Y140329D01*
X112985Y140334D01*
X112986Y140343D01*
X112986Y140344D01*
X112987Y140348D01*
X112988Y140358D01*
X112988Y140363D01*
X112990Y140378D01*
X112991Y140383D01*
X112992Y140393D01*
X112993Y140398D01*
X112994Y140408D01*
X112994Y140413D01*
X112996Y140423D01*
X112996Y140428D01*
X112997Y140438D01*
X112998Y140438D01*
X112997Y140438D01*
X112998Y140443D01*
X112999Y140448D01*
X113000Y140458D01*
X113000Y140463D01*
X113001Y140463D01*
X113000Y140463D01*
X113002Y140473D01*
X113002Y140478D01*
X113004Y140488D01*
X113004Y140493D01*
X113005Y140499D01*
X113001Y140505D01*
X113001Y140504D01*
X113000Y140505D01*
X107000Y140505D01*
X106995Y140501D01*
X106996Y140500D01*
X106995Y140499D01*
X107082Y139781D01*
X107083Y139781D01*
X107083Y139780D01*
X107187Y139505D01*
X105966Y139505D01*
X104768Y140703D01*
X104766Y140704D01*
X104765Y140704D01*
X104764Y140705D01*
X87635Y140705D01*
X79705Y148635D01*
X79705Y154633D01*
X79703Y154635D01*
X79703Y154637D01*
X78706Y155634D01*
X78703Y155634D01*
X78702Y155636D01*
X78701Y155635D01*
X78699Y155635D01*
X78699Y155634D01*
X78069Y155005D01*
X73931Y155005D01*
X71005Y157931D01*
X71005Y162069D01*
X73931Y164995D01*
X78069Y164995D01*
X79768Y163297D01*
X79770Y163296D01*
X79771Y163295D01*
X80365Y163295D01*
X86295Y157365D01*
X86295Y151367D01*
X86297Y151365D01*
X86297Y151363D01*
X90363Y147297D01*
X90366Y147296D01*
X90367Y147295D01*
X104457Y147295D01*
X104462Y147300D01*
X104464Y147312D01*
X104464Y147317D01*
X104465Y147327D01*
X104466Y147327D01*
X104465Y147327D01*
X104466Y147332D01*
X104467Y147342D01*
X104468Y147347D01*
X104469Y147357D01*
X104470Y147362D01*
X104470Y147367D01*
X104472Y147377D01*
X104472Y147382D01*
X104473Y147392D01*
X104474Y147397D01*
X104475Y147407D01*
X104476Y147412D01*
X104478Y147426D01*
X104478Y147427D01*
X104478Y147431D01*
X104478Y147432D01*
X104479Y147441D01*
X104480Y147446D01*
X104481Y147456D01*
X104482Y147461D01*
X104484Y147476D01*
X104484Y147481D01*
X104485Y147491D01*
X104486Y147496D01*
X104487Y147506D01*
X104488Y147511D01*
X104490Y147526D01*
X104490Y147531D01*
X104491Y147541D01*
X104492Y147546D01*
X104493Y147556D01*
X104494Y147561D01*
X104496Y147576D01*
X104496Y147581D01*
X104497Y147590D01*
X104497Y147591D01*
X104498Y147595D01*
X104499Y147605D01*
X104500Y147610D01*
X104501Y147620D01*
X104502Y147625D01*
X104502Y147630D01*
X104503Y147640D01*
X104504Y147640D01*
X104503Y147640D01*
X104504Y147645D01*
X104505Y147651D01*
X104505Y147875D01*
X104504Y147876D01*
X104504Y147877D01*
X104388Y148136D01*
X104504Y148444D01*
X104504Y148445D01*
X104505Y148445D01*
X104504Y148446D01*
X104505Y148446D01*
X104505Y148534D01*
X104558Y148587D01*
X104558Y148588D01*
X104559Y148588D01*
X104647Y148819D01*
X104646Y148820D01*
X104647Y148820D01*
X104648Y148833D01*
X104649Y148838D01*
X104650Y148848D01*
X104651Y148853D01*
X104652Y148862D01*
X104652Y148863D01*
X104653Y148867D01*
X104654Y148877D01*
X104654Y148882D01*
X104656Y148897D01*
X104657Y148902D01*
X104658Y148912D01*
X104659Y148917D01*
X104660Y148927D01*
X104660Y148932D01*
X104662Y148942D01*
X104662Y148947D01*
X104664Y148962D01*
X104665Y148967D01*
X104666Y148977D01*
X104666Y148982D01*
X104668Y148992D01*
X104668Y148997D01*
X104669Y149007D01*
X104670Y149012D01*
X104672Y149026D01*
X104672Y149031D01*
X104674Y149041D01*
X104674Y149046D01*
X104675Y149056D01*
X104676Y149056D01*
X104675Y149056D01*
X104676Y149061D01*
X104677Y149071D01*
X104678Y149076D01*
X104680Y149091D01*
X104680Y149096D01*
X104682Y149106D01*
X104682Y149111D01*
X104683Y149121D01*
X104684Y149126D01*
X104685Y149136D01*
X104686Y149141D01*
X104688Y149156D01*
X104688Y149161D01*
X104689Y149171D01*
X104690Y149175D01*
X104690Y149176D01*
X104691Y149185D01*
X104692Y149190D01*
X104693Y149200D01*
X104694Y149205D01*
X104695Y149220D01*
X104696Y149225D01*
X104697Y149235D01*
X104698Y149240D01*
X104699Y149250D01*
X104700Y149255D01*
X104701Y149265D01*
X104701Y149270D01*
X104703Y149285D01*
X104704Y149290D01*
X104705Y149300D01*
X104706Y149305D01*
X104707Y149315D01*
X104707Y149320D01*
X104709Y149330D01*
X104709Y149334D01*
X104709Y149335D01*
X104711Y149349D01*
X104712Y149354D01*
X104713Y149364D01*
X104713Y149369D01*
X104714Y149369D01*
X104713Y149369D01*
X104715Y149379D01*
X104715Y149384D01*
X104716Y149389D01*
X104715Y149390D01*
X104716Y149391D01*
X104703Y149461D01*
X104729Y149498D01*
X104728Y149499D01*
X104729Y149500D01*
X104730Y149508D01*
X104731Y149513D01*
X104732Y149518D01*
X104733Y149528D01*
X104733Y149533D01*
X104735Y149543D01*
X104735Y149545D01*
X104791Y149589D01*
X104791Y149590D01*
X104792Y149590D01*
X105118Y150062D01*
X105118Y150063D01*
X105322Y150599D01*
X105321Y150600D01*
X105322Y150601D01*
X105325Y150651D01*
X105326Y150672D01*
X105360Y150701D01*
X105360Y150703D01*
X105361Y150703D01*
X105377Y150745D01*
X105442Y150774D01*
X105442Y150775D01*
X105443Y150775D01*
X105873Y151156D01*
X105873Y151157D01*
X106199Y151629D01*
X106199Y151630D01*
X106200Y151630D01*
X106221Y151698D01*
X106261Y151719D01*
X106261Y151720D01*
X106263Y151720D01*
X106288Y151757D01*
X106358Y151770D01*
X106359Y151771D01*
X106360Y151771D01*
X106502Y151845D01*
X106503Y151848D01*
X106504Y151849D01*
X106505Y151850D01*
X106505Y153150D01*
X106503Y153153D01*
X106502Y153155D01*
X106360Y153229D01*
X106359Y153229D01*
X106358Y153230D01*
X106288Y153243D01*
X106263Y153280D01*
X106261Y153280D01*
X106261Y153281D01*
X106221Y153302D01*
X106200Y153370D01*
X106199Y153371D01*
X105873Y153843D01*
X105873Y153844D01*
X105443Y154225D01*
X105442Y154225D01*
X105442Y154226D01*
X105377Y154255D01*
X105361Y154297D01*
X105360Y154297D01*
X105360Y154299D01*
X105326Y154328D01*
X105322Y154399D01*
X105321Y154400D01*
X105322Y154401D01*
X105118Y154937D01*
X105118Y154938D01*
X104792Y155410D01*
X104791Y155410D01*
X104791Y155411D01*
X104735Y155455D01*
X104729Y155500D01*
X104728Y155501D01*
X104729Y155502D01*
X104703Y155539D01*
X104716Y155609D01*
X104716Y155610D01*
X104716Y155611D01*
X104647Y156180D01*
X104646Y156181D01*
X104559Y156412D01*
X104558Y156412D01*
X104558Y156413D01*
X104505Y156466D01*
X104505Y156554D01*
X104504Y156555D01*
X104504Y156556D01*
X104388Y156864D01*
X104504Y157123D01*
X104504Y157124D01*
X104505Y157125D01*
X104505Y157349D01*
X104398Y158225D01*
X104504Y158360D01*
X104504Y158362D01*
X104505Y158363D01*
X104505Y164034D01*
X105966Y165495D01*
X107187Y165495D01*
X107083Y165220D01*
X107083Y165219D01*
X107082Y165219D01*
X107082Y165216D01*
X107081Y165206D01*
X107080Y165201D01*
X107079Y165191D01*
X107078Y165186D01*
X107077Y165176D01*
X107077Y165171D01*
X107075Y165157D01*
X107075Y165156D01*
X107074Y165152D01*
X107074Y165151D01*
X107073Y165142D01*
X107072Y165137D01*
X107071Y165127D01*
X107071Y165122D01*
X107070Y165122D01*
X107071Y165122D01*
X107069Y165112D01*
X107069Y165107D01*
X107067Y165097D01*
X107067Y165092D01*
X107065Y165077D01*
X107064Y165072D01*
X107063Y165062D01*
X107063Y165057D01*
X107061Y165047D01*
X107061Y165042D01*
X107060Y165032D01*
X107059Y165027D01*
X107057Y165012D01*
X107057Y165007D01*
X107055Y164998D01*
X107055Y164997D01*
X107055Y164993D01*
X107055Y164992D01*
X107054Y164983D01*
X107053Y164978D01*
X107052Y164968D01*
X107051Y164963D01*
X107049Y164948D01*
X107049Y164943D01*
X107048Y164933D01*
X107047Y164928D01*
X107046Y164918D01*
X107045Y164913D01*
X107044Y164903D01*
X107043Y164898D01*
X107042Y164888D01*
X107042Y164883D01*
X107041Y164878D01*
X107040Y164868D01*
X107039Y164863D01*
X107038Y164853D01*
X107037Y164848D01*
X107036Y164839D01*
X107036Y164838D01*
X107036Y164834D01*
X107035Y164834D01*
X107036Y164833D01*
X107034Y164824D01*
X107034Y164819D01*
X107032Y164804D01*
X107031Y164799D01*
X107030Y164789D01*
X107029Y164784D01*
X107028Y164774D01*
X107028Y164769D01*
X107026Y164759D01*
X107026Y164754D01*
X107024Y164739D01*
X107023Y164734D01*
X107022Y164724D01*
X107022Y164719D01*
X107020Y164709D01*
X107020Y164704D01*
X107019Y164694D01*
X107018Y164689D01*
X107016Y164675D01*
X107016Y164674D01*
X107016Y164670D01*
X107014Y164660D01*
X107014Y164655D01*
X107013Y164645D01*
X107012Y164640D01*
X107011Y164630D01*
X107010Y164625D01*
X107009Y164615D01*
X107008Y164610D01*
X107007Y164595D01*
X107006Y164590D01*
X107005Y164580D01*
X107004Y164575D01*
X107003Y164565D01*
X107002Y164560D01*
X107001Y164550D01*
X107001Y164545D01*
X107000Y164545D01*
X107001Y164545D01*
X106999Y164530D01*
X106998Y164525D01*
X106997Y164516D01*
X106997Y164515D01*
X106996Y164511D01*
X106995Y164501D01*
X106999Y164495D01*
X106999Y164496D01*
X107000Y164495D01*
X113000Y164495D01*
X113005Y164499D01*
X113004Y164500D01*
X113005Y164501D01*
X112918Y165219D01*
X112917Y165219D01*
X112917Y165220D01*
X112813Y165495D01*
X114034Y165495D01*
X115032Y164497D01*
X115034Y164496D01*
X115036Y164495D01*
X116429Y164495D01*
X116431Y164497D01*
X116432Y164497D01*
X117931Y165995D01*
X122069Y165995D01*
X124995Y163069D01*
X124995Y158931D01*
X122069Y156005D01*
X117931Y156005D01*
X116432Y157503D01*
X116430Y157503D01*
X116430Y157504D01*
X116429Y157505D01*
X115519Y157505D01*
X115514Y157500D01*
X115513Y157499D01*
X115513Y157494D01*
X115512Y157490D01*
X115512Y157489D01*
X115511Y157480D01*
X115510Y157475D01*
X115509Y157465D01*
X115509Y157460D01*
X115507Y157450D01*
X115507Y157445D01*
X115506Y157440D01*
X115505Y157430D01*
X115504Y157425D01*
X115503Y157415D01*
X115503Y157410D01*
X115501Y157395D01*
X115500Y157390D01*
X115499Y157380D01*
X115498Y157375D01*
X115497Y157365D01*
X115497Y157360D01*
X115495Y157349D01*
X115495Y157125D01*
X115496Y157124D01*
X115496Y157123D01*
X115612Y156864D01*
X115496Y156556D01*
X115496Y156555D01*
X115495Y156554D01*
X115495Y156466D01*
X115442Y156413D01*
X115442Y156412D01*
X115441Y156412D01*
X115353Y156181D01*
X115354Y156180D01*
X115353Y156180D01*
X115352Y156173D01*
X115352Y156168D01*
X115351Y156158D01*
X115350Y156158D01*
X115351Y156158D01*
X115350Y156153D01*
X115349Y156143D01*
X115348Y156138D01*
X115346Y156123D01*
X115346Y156118D01*
X115344Y156108D01*
X115344Y156103D01*
X115343Y156093D01*
X115342Y156088D01*
X115341Y156078D01*
X115340Y156073D01*
X115338Y156059D01*
X115338Y156058D01*
X115338Y156054D01*
X115338Y156053D01*
X115337Y156044D01*
X115336Y156039D01*
X115335Y156029D01*
X115334Y156024D01*
X115333Y156014D01*
X115332Y156009D01*
X115331Y155994D01*
X115330Y155989D01*
X115329Y155979D01*
X115328Y155974D01*
X115327Y155964D01*
X115326Y155959D01*
X115325Y155949D01*
X115325Y155944D01*
X115323Y155929D01*
X115322Y155924D01*
X115321Y155914D01*
X115320Y155909D01*
X115319Y155900D01*
X115319Y155899D01*
X115319Y155895D01*
X115319Y155894D01*
X115317Y155885D01*
X115317Y155880D01*
X115315Y155865D01*
X115314Y155860D01*
X115313Y155850D01*
X115313Y155845D01*
X115312Y155845D01*
X115313Y155845D01*
X115311Y155835D01*
X115311Y155830D01*
X115309Y155820D01*
X115309Y155815D01*
X115307Y155800D01*
X115306Y155795D01*
X115305Y155785D01*
X115305Y155780D01*
X115303Y155770D01*
X115303Y155765D01*
X115302Y155755D01*
X115301Y155750D01*
X115299Y155736D01*
X115299Y155735D01*
X115299Y155731D01*
X115297Y155721D01*
X115297Y155716D01*
X115296Y155706D01*
X115295Y155701D01*
X115294Y155691D01*
X115293Y155686D01*
X115291Y155671D01*
X115291Y155666D01*
X115290Y155656D01*
X115289Y155651D01*
X115288Y155641D01*
X115287Y155636D01*
X115286Y155626D01*
X115285Y155621D01*
X115284Y155611D01*
X115285Y155610D01*
X115284Y155609D01*
X115297Y155539D01*
X115272Y155503D01*
X115272Y155502D01*
X115271Y155501D01*
X115273Y155499D01*
X115273Y155496D01*
X115275Y155497D01*
X115276Y155495D01*
X118448Y155495D01*
X122995Y150948D01*
X122995Y142171D01*
X122996Y142170D01*
X122996Y142168D01*
X122998Y142168D01*
X123000Y142167D01*
X123001Y142168D01*
X123004Y142168D01*
X123931Y143095D01*
X126050Y143095D01*
X126052Y143097D01*
X126054Y143097D01*
X126503Y143546D01*
X126504Y143549D01*
X126505Y143550D01*
X126505Y167550D01*
X126503Y167552D01*
X126503Y167554D01*
X109505Y184552D01*
X109505Y214429D01*
X109503Y214431D01*
X109503Y214432D01*
X108005Y215931D01*
X108005Y220069D01*
X110931Y222995D01*
X115069Y222995D01*
X117995Y220069D01*
X117995Y215931D01*
X116497Y214432D01*
X116496Y214430D01*
X116495Y214429D01*
X116495Y187450D01*
X116497Y187448D01*
X116497Y187446D01*
X133495Y170448D01*
X133495Y140652D01*
X130997Y138154D01*
X130997Y138152D01*
X130996Y138151D01*
X130995Y138150D01*
X130995Y136031D01*
X128069Y133105D01*
X123931Y133105D01*
X123004Y134032D01*
X123002Y134032D01*
X123001Y134033D01*
X122999Y134032D01*
X122997Y134032D01*
X122997Y134030D01*
X122995Y134029D01*
X122995Y129052D01*
X115448Y121505D01*
X80552Y121505D01*
G37*
%LPD*%
%LPC*%
G36*
X83909Y181505D02*
X83909Y181505D01*
X81154Y182646D01*
X79046Y184754D01*
X77905Y187509D01*
X77905Y190491D01*
X79046Y193246D01*
X81154Y195354D01*
X83909Y196495D01*
X86891Y196495D01*
X88998Y195622D01*
X89000Y195623D01*
X89002Y195622D01*
X91109Y196495D01*
X94091Y196495D01*
X96846Y195354D01*
X98954Y193246D01*
X100095Y190491D01*
X100095Y187509D01*
X98954Y184754D01*
X96846Y182646D01*
X94091Y181505D01*
X91109Y181505D01*
X89002Y182378D01*
X89001Y182377D01*
X88999Y182377D01*
X88998Y182378D01*
X86891Y181505D01*
X83909Y181505D01*
G37*
%LPD*%
%LPC*%
G36*
X408931Y97005D02*
X408931Y97005D01*
X406005Y99931D01*
X406005Y104069D01*
X406932Y104996D01*
X406932Y104998D01*
X406933Y104998D01*
X406932Y104999D01*
X406933Y105003D01*
X406932Y105003D01*
X406932Y105004D01*
X406005Y105931D01*
X406005Y110069D01*
X408931Y112995D01*
X413069Y112995D01*
X415995Y110069D01*
X415995Y107000D01*
X416000Y106995D01*
X416000Y106996D01*
X416000Y106995D01*
X420069Y106995D01*
X421496Y105568D01*
X421503Y105567D01*
X421503Y105568D01*
X421504Y105568D01*
X422931Y106995D01*
X427069Y106995D01*
X429995Y104069D01*
X429995Y99931D01*
X427069Y97005D01*
X422931Y97005D01*
X421504Y98432D01*
X421497Y98433D01*
X421497Y98432D01*
X421496Y98432D01*
X420069Y97005D01*
X415931Y97005D01*
X414504Y98432D01*
X414497Y98433D01*
X414497Y98432D01*
X414496Y98432D01*
X413069Y97005D01*
X408931Y97005D01*
G37*
%LPD*%
%LPC*%
G36*
X212609Y157005D02*
X212609Y157005D01*
X210038Y158070D01*
X208070Y160038D01*
X207005Y162609D01*
X207005Y165391D01*
X208070Y167962D01*
X210038Y169930D01*
X212609Y170995D01*
X215391Y170995D01*
X217962Y169930D01*
X219930Y167962D01*
X220995Y165391D01*
X220995Y162609D01*
X219930Y160038D01*
X217962Y158070D01*
X215391Y157005D01*
X212609Y157005D01*
G37*
%LPD*%
G36*
X201005Y56500D02*
X201005Y56500D01*
X201004Y56500D01*
X201005Y56500D01*
X201005Y58864D01*
X201004Y58865D01*
X201004Y58866D01*
X200405Y60313D01*
X200405Y64887D01*
X200658Y65498D01*
X200658Y65499D01*
X200657Y65501D01*
X200656Y65504D01*
X200654Y65504D01*
X200653Y65505D01*
X191000Y65505D01*
X190995Y65500D01*
X190996Y65500D01*
X190995Y65500D01*
X190995Y56500D01*
X191000Y56495D01*
X191000Y56496D01*
X191000Y56495D01*
X201000Y56495D01*
X201005Y56500D01*
G37*
%LPC*%
G36*
X154931Y225005D02*
X154931Y225005D01*
X152005Y227931D01*
X152005Y232069D01*
X154931Y234995D01*
X159069Y234995D01*
X161995Y232069D01*
X161995Y227931D01*
X159069Y225005D01*
X154931Y225005D01*
G37*
%LPD*%
G36*
X428005Y65500D02*
X428005Y65500D01*
X428004Y65500D01*
X428005Y65500D01*
X428005Y71500D01*
X428000Y71505D01*
X428000Y71504D01*
X428000Y71505D01*
X415000Y71505D01*
X414995Y71500D01*
X414995Y65500D01*
X415000Y65495D01*
X415000Y65496D01*
X415000Y65495D01*
X428000Y65495D01*
X428005Y65500D01*
G37*
G36*
X308258Y110496D02*
X308258Y110496D01*
X308260Y110496D01*
X308260Y110498D01*
X308262Y110500D01*
X308260Y110501D01*
X308260Y110504D01*
X307005Y111759D01*
X307005Y116000D01*
X307000Y116005D01*
X307000Y116004D01*
X307000Y116005D01*
X299471Y116005D01*
X299470Y116004D01*
X299469Y116005D01*
X299469Y116003D01*
X299466Y116000D01*
X299467Y115999D01*
X299466Y115998D01*
X299595Y115687D01*
X299595Y111113D01*
X299342Y110502D01*
X299342Y110501D01*
X299343Y110499D01*
X299344Y110496D01*
X299346Y110496D01*
X299347Y110495D01*
X308257Y110495D01*
X308258Y110496D01*
G37*
G36*
X110362Y154517D02*
X110362Y154517D01*
X110363Y154517D01*
X111065Y154690D01*
X111065Y154691D01*
X111066Y154691D01*
X111707Y155027D01*
X111708Y155027D01*
X112249Y155507D01*
X112249Y155508D01*
X112250Y155508D01*
X112660Y156103D01*
X112660Y156104D01*
X112661Y156104D01*
X112917Y156780D01*
X112917Y156781D01*
X112918Y156781D01*
X113005Y157499D01*
X113001Y157505D01*
X113001Y157504D01*
X113000Y157505D01*
X107000Y157505D01*
X106995Y157501D01*
X106996Y157500D01*
X106995Y157499D01*
X107082Y156781D01*
X107083Y156781D01*
X107083Y156780D01*
X107339Y156104D01*
X107340Y156104D01*
X107340Y156103D01*
X107750Y155508D01*
X107751Y155508D01*
X107751Y155507D01*
X108293Y155027D01*
X108294Y155027D01*
X108934Y154691D01*
X108935Y154691D01*
X108935Y154690D01*
X109637Y154517D01*
X109638Y154517D01*
X110362Y154517D01*
X110362Y154517D01*
G37*
G36*
X348362Y216267D02*
X348362Y216267D01*
X348363Y216267D01*
X349065Y216440D01*
X349065Y216441D01*
X349066Y216441D01*
X349707Y216777D01*
X349708Y216777D01*
X350249Y217257D01*
X350249Y217258D01*
X350250Y217258D01*
X350660Y217853D01*
X350660Y217854D01*
X350661Y217854D01*
X350917Y218530D01*
X350917Y218531D01*
X350918Y218531D01*
X350918Y218532D01*
X350918Y218537D01*
X350920Y218547D01*
X350920Y218552D01*
X350921Y218562D01*
X350922Y218567D01*
X350924Y218582D01*
X350924Y218587D01*
X350926Y218597D01*
X350926Y218602D01*
X350927Y218611D01*
X350928Y218612D01*
X350927Y218612D01*
X350928Y218616D01*
X350928Y218617D01*
X350929Y218626D01*
X350930Y218631D01*
X350932Y218646D01*
X350932Y218651D01*
X350934Y218661D01*
X350934Y218666D01*
X350935Y218676D01*
X350936Y218681D01*
X350937Y218691D01*
X350938Y218696D01*
X350939Y218706D01*
X350940Y218711D01*
X350941Y218726D01*
X350942Y218731D01*
X350943Y218741D01*
X350944Y218746D01*
X350945Y218756D01*
X350946Y218761D01*
X350947Y218770D01*
X350947Y218771D01*
X350947Y218775D01*
X350947Y218776D01*
X350949Y218790D01*
X350950Y218795D01*
X350951Y218805D01*
X350952Y218810D01*
X350953Y218820D01*
X350953Y218825D01*
X350955Y218835D01*
X350955Y218840D01*
X350957Y218855D01*
X350958Y218860D01*
X350959Y218870D01*
X350959Y218875D01*
X350961Y218885D01*
X350961Y218890D01*
X350962Y218900D01*
X350963Y218900D01*
X350962Y218900D01*
X350963Y218905D01*
X350965Y218920D01*
X350965Y218925D01*
X350966Y218925D01*
X350967Y218934D01*
X350967Y218935D01*
X350967Y218939D01*
X350969Y218949D01*
X350969Y218954D01*
X350970Y218964D01*
X350971Y218969D01*
X350972Y218979D01*
X350973Y218984D01*
X350975Y218999D01*
X350975Y219004D01*
X350976Y219014D01*
X350977Y219019D01*
X350978Y219029D01*
X350979Y219034D01*
X350980Y219044D01*
X350981Y219049D01*
X350982Y219064D01*
X350983Y219069D01*
X350984Y219079D01*
X350985Y219084D01*
X350986Y219093D01*
X350986Y219094D01*
X350987Y219098D01*
X350988Y219108D01*
X350988Y219113D01*
X350990Y219128D01*
X350991Y219133D01*
X350992Y219143D01*
X350993Y219148D01*
X350994Y219158D01*
X350994Y219163D01*
X350996Y219173D01*
X350996Y219178D01*
X350997Y219188D01*
X350998Y219188D01*
X350997Y219188D01*
X350998Y219193D01*
X350999Y219198D01*
X351000Y219208D01*
X351000Y219213D01*
X351001Y219213D01*
X351000Y219213D01*
X351002Y219223D01*
X351002Y219228D01*
X351004Y219238D01*
X351004Y219243D01*
X351005Y219249D01*
X351001Y219255D01*
X351001Y219254D01*
X351000Y219255D01*
X345000Y219255D01*
X344995Y219251D01*
X344996Y219250D01*
X344995Y219249D01*
X345082Y218531D01*
X345083Y218531D01*
X345083Y218530D01*
X345339Y217854D01*
X345340Y217854D01*
X345340Y217853D01*
X345750Y217258D01*
X345751Y217258D01*
X345751Y217257D01*
X346293Y216777D01*
X346294Y216777D01*
X346934Y216441D01*
X346935Y216441D01*
X346935Y216440D01*
X347637Y216267D01*
X347638Y216267D01*
X348362Y216267D01*
X348362Y216267D01*
G37*
G36*
X302962Y154267D02*
X302962Y154267D01*
X302963Y154267D01*
X303665Y154440D01*
X303665Y154441D01*
X303666Y154441D01*
X304307Y154777D01*
X304308Y154777D01*
X304849Y155257D01*
X304849Y155258D01*
X304850Y155258D01*
X305260Y155853D01*
X305260Y155854D01*
X305261Y155854D01*
X305517Y156530D01*
X305517Y156531D01*
X305518Y156531D01*
X305518Y156532D01*
X305518Y156537D01*
X305520Y156547D01*
X305520Y156552D01*
X305521Y156562D01*
X305522Y156567D01*
X305524Y156582D01*
X305524Y156587D01*
X305526Y156597D01*
X305526Y156602D01*
X305527Y156611D01*
X305528Y156612D01*
X305527Y156612D01*
X305528Y156616D01*
X305528Y156617D01*
X305529Y156626D01*
X305530Y156631D01*
X305532Y156646D01*
X305532Y156651D01*
X305534Y156661D01*
X305534Y156666D01*
X305535Y156676D01*
X305536Y156681D01*
X305537Y156691D01*
X305538Y156696D01*
X305539Y156706D01*
X305540Y156711D01*
X305541Y156726D01*
X305542Y156731D01*
X305543Y156741D01*
X305544Y156746D01*
X305545Y156756D01*
X305546Y156761D01*
X305547Y156770D01*
X305547Y156771D01*
X305547Y156775D01*
X305547Y156776D01*
X305549Y156790D01*
X305550Y156795D01*
X305551Y156805D01*
X305552Y156810D01*
X305553Y156820D01*
X305553Y156825D01*
X305555Y156835D01*
X305555Y156840D01*
X305557Y156855D01*
X305558Y156860D01*
X305559Y156870D01*
X305559Y156875D01*
X305561Y156885D01*
X305561Y156890D01*
X305562Y156900D01*
X305563Y156900D01*
X305562Y156900D01*
X305563Y156905D01*
X305565Y156920D01*
X305565Y156925D01*
X305566Y156925D01*
X305567Y156934D01*
X305567Y156935D01*
X305567Y156939D01*
X305569Y156949D01*
X305569Y156954D01*
X305570Y156964D01*
X305571Y156969D01*
X305572Y156979D01*
X305573Y156984D01*
X305575Y156999D01*
X305575Y157004D01*
X305576Y157014D01*
X305577Y157019D01*
X305578Y157029D01*
X305579Y157034D01*
X305580Y157044D01*
X305581Y157049D01*
X305582Y157064D01*
X305583Y157069D01*
X305584Y157079D01*
X305585Y157084D01*
X305586Y157093D01*
X305586Y157094D01*
X305587Y157098D01*
X305588Y157108D01*
X305588Y157113D01*
X305590Y157128D01*
X305591Y157133D01*
X305592Y157143D01*
X305593Y157148D01*
X305594Y157158D01*
X305594Y157163D01*
X305596Y157173D01*
X305596Y157178D01*
X305597Y157188D01*
X305598Y157188D01*
X305597Y157188D01*
X305598Y157193D01*
X305599Y157198D01*
X305600Y157208D01*
X305600Y157213D01*
X305601Y157213D01*
X305600Y157213D01*
X305602Y157223D01*
X305602Y157228D01*
X305604Y157238D01*
X305604Y157243D01*
X305605Y157249D01*
X305601Y157255D01*
X305601Y157254D01*
X305600Y157255D01*
X299600Y157255D01*
X299595Y157251D01*
X299596Y157250D01*
X299595Y157249D01*
X299682Y156531D01*
X299683Y156531D01*
X299683Y156530D01*
X299939Y155854D01*
X299940Y155854D01*
X299940Y155853D01*
X300350Y155258D01*
X300351Y155258D01*
X300351Y155257D01*
X300893Y154777D01*
X300894Y154777D01*
X301534Y154441D01*
X301535Y154441D01*
X301535Y154440D01*
X302237Y154267D01*
X302238Y154267D01*
X302962Y154267D01*
X302962Y154267D01*
G37*
G36*
X313962Y154267D02*
X313962Y154267D01*
X313963Y154267D01*
X314665Y154440D01*
X314665Y154441D01*
X314666Y154441D01*
X315307Y154777D01*
X315308Y154777D01*
X315849Y155257D01*
X315849Y155258D01*
X315850Y155258D01*
X316260Y155853D01*
X316260Y155854D01*
X316261Y155854D01*
X316517Y156530D01*
X316517Y156531D01*
X316518Y156531D01*
X316518Y156532D01*
X316518Y156537D01*
X316520Y156547D01*
X316520Y156552D01*
X316521Y156562D01*
X316522Y156567D01*
X316524Y156582D01*
X316524Y156587D01*
X316526Y156597D01*
X316526Y156602D01*
X316527Y156611D01*
X316528Y156612D01*
X316527Y156612D01*
X316528Y156616D01*
X316528Y156617D01*
X316529Y156626D01*
X316530Y156631D01*
X316532Y156646D01*
X316532Y156651D01*
X316534Y156661D01*
X316534Y156666D01*
X316535Y156676D01*
X316536Y156681D01*
X316537Y156691D01*
X316538Y156696D01*
X316539Y156706D01*
X316540Y156711D01*
X316541Y156726D01*
X316542Y156731D01*
X316543Y156741D01*
X316544Y156746D01*
X316545Y156756D01*
X316546Y156761D01*
X316547Y156770D01*
X316547Y156771D01*
X316547Y156775D01*
X316547Y156776D01*
X316549Y156790D01*
X316550Y156795D01*
X316551Y156805D01*
X316552Y156810D01*
X316553Y156820D01*
X316553Y156825D01*
X316555Y156835D01*
X316555Y156840D01*
X316557Y156855D01*
X316558Y156860D01*
X316559Y156870D01*
X316559Y156875D01*
X316561Y156885D01*
X316561Y156890D01*
X316562Y156900D01*
X316563Y156900D01*
X316562Y156900D01*
X316563Y156905D01*
X316565Y156920D01*
X316565Y156925D01*
X316566Y156925D01*
X316567Y156934D01*
X316567Y156935D01*
X316567Y156939D01*
X316569Y156949D01*
X316569Y156954D01*
X316570Y156964D01*
X316571Y156969D01*
X316572Y156979D01*
X316573Y156984D01*
X316575Y156999D01*
X316575Y157004D01*
X316576Y157014D01*
X316577Y157019D01*
X316578Y157029D01*
X316579Y157034D01*
X316580Y157044D01*
X316581Y157049D01*
X316582Y157064D01*
X316583Y157069D01*
X316584Y157079D01*
X316585Y157084D01*
X316586Y157093D01*
X316586Y157094D01*
X316587Y157098D01*
X316588Y157108D01*
X316588Y157113D01*
X316590Y157128D01*
X316591Y157133D01*
X316592Y157143D01*
X316593Y157148D01*
X316594Y157158D01*
X316594Y157163D01*
X316596Y157173D01*
X316596Y157178D01*
X316597Y157188D01*
X316598Y157188D01*
X316597Y157188D01*
X316598Y157193D01*
X316599Y157198D01*
X316600Y157208D01*
X316600Y157213D01*
X316601Y157213D01*
X316600Y157213D01*
X316602Y157223D01*
X316602Y157228D01*
X316604Y157238D01*
X316604Y157243D01*
X316605Y157249D01*
X316601Y157255D01*
X316601Y157254D01*
X316600Y157255D01*
X310600Y157255D01*
X310595Y157251D01*
X310596Y157250D01*
X310595Y157249D01*
X310682Y156531D01*
X310683Y156531D01*
X310683Y156530D01*
X310939Y155854D01*
X310940Y155854D01*
X310940Y155853D01*
X311350Y155258D01*
X311351Y155258D01*
X311351Y155257D01*
X311893Y154777D01*
X311894Y154777D01*
X312534Y154441D01*
X312535Y154441D01*
X312535Y154440D01*
X313237Y154267D01*
X313238Y154267D01*
X313962Y154267D01*
X313962Y154267D01*
G37*
G36*
X132362Y81517D02*
X132362Y81517D01*
X132363Y81517D01*
X133065Y81690D01*
X133065Y81691D01*
X133066Y81691D01*
X133707Y82027D01*
X133708Y82027D01*
X134249Y82507D01*
X134249Y82508D01*
X134250Y82508D01*
X134660Y83103D01*
X134660Y83104D01*
X134661Y83104D01*
X134917Y83780D01*
X134917Y83781D01*
X134918Y83781D01*
X134918Y83782D01*
X134918Y83787D01*
X134920Y83797D01*
X134920Y83802D01*
X134921Y83812D01*
X134922Y83817D01*
X134924Y83832D01*
X134924Y83837D01*
X134926Y83847D01*
X134926Y83852D01*
X134927Y83861D01*
X134928Y83862D01*
X134927Y83862D01*
X134928Y83866D01*
X134928Y83867D01*
X134929Y83876D01*
X134930Y83881D01*
X134932Y83896D01*
X134932Y83901D01*
X134934Y83911D01*
X134934Y83916D01*
X134935Y83926D01*
X134936Y83931D01*
X134937Y83941D01*
X134938Y83946D01*
X134939Y83956D01*
X134940Y83961D01*
X134941Y83976D01*
X134942Y83981D01*
X134943Y83991D01*
X134944Y83996D01*
X134945Y84006D01*
X134946Y84011D01*
X134947Y84020D01*
X134947Y84021D01*
X134947Y84025D01*
X134947Y84026D01*
X134949Y84040D01*
X134950Y84045D01*
X134951Y84055D01*
X134952Y84060D01*
X134953Y84070D01*
X134953Y84075D01*
X134955Y84085D01*
X134955Y84090D01*
X134957Y84105D01*
X134958Y84110D01*
X134959Y84120D01*
X134959Y84125D01*
X134961Y84135D01*
X134961Y84140D01*
X134962Y84150D01*
X134963Y84150D01*
X134962Y84150D01*
X134963Y84155D01*
X134965Y84170D01*
X134965Y84175D01*
X134966Y84175D01*
X134967Y84184D01*
X134967Y84185D01*
X134967Y84189D01*
X134969Y84199D01*
X134969Y84204D01*
X134970Y84214D01*
X134971Y84219D01*
X134972Y84229D01*
X134973Y84234D01*
X134975Y84249D01*
X134975Y84254D01*
X134976Y84264D01*
X134977Y84269D01*
X134978Y84279D01*
X134979Y84284D01*
X134980Y84294D01*
X134981Y84299D01*
X134982Y84314D01*
X134983Y84319D01*
X134984Y84329D01*
X134985Y84334D01*
X134986Y84343D01*
X134986Y84344D01*
X134987Y84348D01*
X134988Y84358D01*
X134988Y84363D01*
X134990Y84378D01*
X134991Y84383D01*
X134992Y84393D01*
X134993Y84398D01*
X134994Y84408D01*
X134994Y84413D01*
X134996Y84423D01*
X134996Y84428D01*
X134997Y84438D01*
X134998Y84438D01*
X134997Y84438D01*
X134998Y84443D01*
X134999Y84448D01*
X135000Y84458D01*
X135000Y84463D01*
X135001Y84463D01*
X135000Y84463D01*
X135002Y84473D01*
X135002Y84478D01*
X135004Y84488D01*
X135004Y84493D01*
X135005Y84499D01*
X135001Y84505D01*
X135001Y84504D01*
X135000Y84505D01*
X129000Y84505D01*
X128995Y84501D01*
X128996Y84500D01*
X128995Y84499D01*
X129082Y83781D01*
X129083Y83781D01*
X129083Y83780D01*
X129339Y83104D01*
X129340Y83104D01*
X129340Y83103D01*
X129750Y82508D01*
X129751Y82508D01*
X129751Y82507D01*
X130293Y82027D01*
X130294Y82027D01*
X130934Y81691D01*
X130935Y81691D01*
X130935Y81690D01*
X131637Y81517D01*
X131638Y81517D01*
X132362Y81517D01*
X132362Y81517D01*
G37*
G36*
X122362Y81517D02*
X122362Y81517D01*
X122363Y81517D01*
X123065Y81690D01*
X123065Y81691D01*
X123066Y81691D01*
X123707Y82027D01*
X123708Y82027D01*
X124249Y82507D01*
X124249Y82508D01*
X124250Y82508D01*
X124660Y83103D01*
X124660Y83104D01*
X124661Y83104D01*
X124917Y83780D01*
X124917Y83781D01*
X124918Y83781D01*
X124918Y83782D01*
X124918Y83787D01*
X124920Y83797D01*
X124920Y83802D01*
X124921Y83812D01*
X124922Y83817D01*
X124924Y83832D01*
X124924Y83837D01*
X124926Y83847D01*
X124926Y83852D01*
X124927Y83861D01*
X124928Y83862D01*
X124927Y83862D01*
X124928Y83866D01*
X124928Y83867D01*
X124929Y83876D01*
X124930Y83881D01*
X124932Y83896D01*
X124932Y83901D01*
X124934Y83911D01*
X124934Y83916D01*
X124935Y83926D01*
X124936Y83931D01*
X124937Y83941D01*
X124938Y83946D01*
X124939Y83956D01*
X124940Y83961D01*
X124941Y83976D01*
X124942Y83981D01*
X124943Y83991D01*
X124944Y83996D01*
X124945Y84006D01*
X124946Y84011D01*
X124947Y84020D01*
X124947Y84021D01*
X124947Y84025D01*
X124947Y84026D01*
X124949Y84040D01*
X124950Y84045D01*
X124951Y84055D01*
X124952Y84060D01*
X124953Y84070D01*
X124953Y84075D01*
X124955Y84085D01*
X124955Y84090D01*
X124957Y84105D01*
X124958Y84110D01*
X124959Y84120D01*
X124959Y84125D01*
X124961Y84135D01*
X124961Y84140D01*
X124962Y84150D01*
X124963Y84150D01*
X124962Y84150D01*
X124963Y84155D01*
X124965Y84170D01*
X124965Y84175D01*
X124966Y84175D01*
X124967Y84184D01*
X124967Y84185D01*
X124967Y84189D01*
X124969Y84199D01*
X124969Y84204D01*
X124970Y84214D01*
X124971Y84219D01*
X124972Y84229D01*
X124973Y84234D01*
X124975Y84249D01*
X124975Y84254D01*
X124976Y84264D01*
X124977Y84269D01*
X124978Y84279D01*
X124979Y84284D01*
X124980Y84294D01*
X124981Y84299D01*
X124982Y84314D01*
X124983Y84319D01*
X124984Y84329D01*
X124985Y84334D01*
X124986Y84343D01*
X124986Y84344D01*
X124987Y84348D01*
X124988Y84358D01*
X124988Y84363D01*
X124990Y84378D01*
X124991Y84383D01*
X124992Y84393D01*
X124993Y84398D01*
X124994Y84408D01*
X124994Y84413D01*
X124996Y84423D01*
X124996Y84428D01*
X124997Y84438D01*
X124998Y84438D01*
X124997Y84438D01*
X124998Y84443D01*
X124999Y84448D01*
X125000Y84458D01*
X125000Y84463D01*
X125001Y84463D01*
X125000Y84463D01*
X125002Y84473D01*
X125002Y84478D01*
X125004Y84488D01*
X125004Y84493D01*
X125005Y84499D01*
X125001Y84505D01*
X125001Y84504D01*
X125000Y84505D01*
X119000Y84505D01*
X118995Y84501D01*
X118996Y84500D01*
X118995Y84499D01*
X119082Y83781D01*
X119083Y83781D01*
X119083Y83780D01*
X119339Y83104D01*
X119340Y83104D01*
X119340Y83103D01*
X119750Y82508D01*
X119751Y82508D01*
X119751Y82507D01*
X120293Y82027D01*
X120294Y82027D01*
X120934Y81691D01*
X120935Y81691D01*
X120935Y81690D01*
X121637Y81517D01*
X121638Y81517D01*
X122362Y81517D01*
X122362Y81517D01*
G37*
G36*
X351005Y220749D02*
X351005Y220749D01*
X351004Y220750D01*
X351005Y220751D01*
X350918Y221469D01*
X350917Y221469D01*
X350917Y221470D01*
X350661Y222146D01*
X350660Y222146D01*
X350660Y222147D01*
X350250Y222742D01*
X350249Y222742D01*
X350249Y222743D01*
X349708Y223223D01*
X349707Y223223D01*
X349066Y223559D01*
X349065Y223559D01*
X349065Y223560D01*
X348363Y223733D01*
X348362Y223733D01*
X347638Y223733D01*
X347637Y223733D01*
X346935Y223560D01*
X346935Y223559D01*
X346934Y223559D01*
X346294Y223223D01*
X346293Y223223D01*
X345751Y222743D01*
X345751Y222742D01*
X345750Y222742D01*
X345340Y222147D01*
X345340Y222146D01*
X345339Y222146D01*
X345083Y221470D01*
X345083Y221469D01*
X345082Y221469D01*
X344995Y220751D01*
X344999Y220745D01*
X344999Y220746D01*
X345000Y220745D01*
X351000Y220745D01*
X351005Y220749D01*
G37*
G36*
X305605Y158749D02*
X305605Y158749D01*
X305604Y158750D01*
X305605Y158751D01*
X305518Y159469D01*
X305517Y159469D01*
X305517Y159470D01*
X305261Y160146D01*
X305260Y160146D01*
X305260Y160147D01*
X304850Y160742D01*
X304849Y160742D01*
X304849Y160743D01*
X304308Y161223D01*
X304307Y161223D01*
X303666Y161559D01*
X303665Y161559D01*
X303665Y161560D01*
X302963Y161733D01*
X302962Y161733D01*
X302238Y161733D01*
X302237Y161733D01*
X301535Y161560D01*
X301535Y161559D01*
X301534Y161559D01*
X300894Y161223D01*
X300893Y161223D01*
X300351Y160743D01*
X300351Y160742D01*
X300350Y160742D01*
X299940Y160147D01*
X299940Y160146D01*
X299939Y160146D01*
X299683Y159470D01*
X299683Y159469D01*
X299682Y159469D01*
X299595Y158751D01*
X299599Y158745D01*
X299599Y158746D01*
X299600Y158745D01*
X305600Y158745D01*
X305605Y158749D01*
G37*
G36*
X316605Y158749D02*
X316605Y158749D01*
X316604Y158750D01*
X316605Y158751D01*
X316518Y159469D01*
X316517Y159469D01*
X316517Y159470D01*
X316261Y160146D01*
X316260Y160146D01*
X316260Y160147D01*
X315850Y160742D01*
X315849Y160742D01*
X315849Y160743D01*
X315308Y161223D01*
X315307Y161223D01*
X314666Y161559D01*
X314665Y161559D01*
X314665Y161560D01*
X313963Y161733D01*
X313962Y161733D01*
X313238Y161733D01*
X313237Y161733D01*
X312535Y161560D01*
X312535Y161559D01*
X312534Y161559D01*
X311894Y161223D01*
X311893Y161223D01*
X311351Y160743D01*
X311351Y160742D01*
X311350Y160742D01*
X310940Y160147D01*
X310940Y160146D01*
X310939Y160146D01*
X310683Y159470D01*
X310683Y159469D01*
X310682Y159469D01*
X310595Y158751D01*
X310599Y158745D01*
X310599Y158746D01*
X310600Y158745D01*
X316600Y158745D01*
X316605Y158749D01*
G37*
G36*
X113005Y147499D02*
X113005Y147499D01*
X113004Y147500D01*
X113005Y147501D01*
X112918Y148219D01*
X112917Y148219D01*
X112917Y148220D01*
X112661Y148896D01*
X112660Y148896D01*
X112660Y148897D01*
X112250Y149492D01*
X112249Y149492D01*
X112249Y149493D01*
X111708Y149973D01*
X111707Y149973D01*
X111066Y150309D01*
X111065Y150309D01*
X111065Y150310D01*
X110363Y150483D01*
X110362Y150483D01*
X109638Y150483D01*
X109637Y150483D01*
X108935Y150310D01*
X108935Y150309D01*
X108934Y150309D01*
X108294Y149973D01*
X108293Y149973D01*
X107751Y149493D01*
X107751Y149492D01*
X107750Y149492D01*
X107340Y148897D01*
X107340Y148896D01*
X107339Y148896D01*
X107083Y148220D01*
X107083Y148219D01*
X107082Y148219D01*
X106995Y147501D01*
X106999Y147495D01*
X106999Y147496D01*
X107000Y147495D01*
X113000Y147495D01*
X113005Y147499D01*
G37*
G36*
X201005Y91000D02*
X201005Y91000D01*
X201004Y91000D01*
X201005Y91000D01*
X201005Y91500D01*
X201000Y91505D01*
X201000Y91504D01*
X201000Y91505D01*
X188651Y91505D01*
X186952Y93203D01*
X186950Y93204D01*
X186949Y93205D01*
X185175Y93205D01*
X185174Y93204D01*
X185170Y93200D01*
X185171Y93200D01*
X185170Y93199D01*
X185537Y90999D01*
X185541Y90996D01*
X185542Y90995D01*
X201000Y90995D01*
X201005Y91000D01*
G37*
D10*
X280146Y240471D02*
X282971Y240471D01*
X283056Y240469D01*
X283140Y240463D01*
X283224Y240454D01*
X283307Y240441D01*
X283390Y240424D01*
X283472Y240403D01*
X283553Y240379D01*
X283633Y240351D01*
X283711Y240319D01*
X283788Y240284D01*
X283864Y240246D01*
X283937Y240204D01*
X284009Y240159D01*
X284078Y240111D01*
X284146Y240060D01*
X284211Y240006D01*
X284273Y239949D01*
X284333Y239889D01*
X284390Y239827D01*
X284444Y239762D01*
X284495Y239694D01*
X284543Y239625D01*
X284588Y239553D01*
X284630Y239480D01*
X284668Y239404D01*
X284703Y239327D01*
X284735Y239249D01*
X284763Y239169D01*
X284787Y239088D01*
X284808Y239006D01*
X284825Y238923D01*
X284838Y238840D01*
X284847Y238756D01*
X284853Y238672D01*
X284855Y238587D01*
X284854Y238587D02*
X284854Y238116D01*
X284852Y238020D01*
X284846Y237924D01*
X284836Y237829D01*
X284823Y237734D01*
X284805Y237639D01*
X284784Y237545D01*
X284759Y237453D01*
X284730Y237361D01*
X284697Y237271D01*
X284661Y237182D01*
X284621Y237095D01*
X284577Y237009D01*
X284531Y236925D01*
X284480Y236843D01*
X284427Y236764D01*
X284370Y236686D01*
X284310Y236611D01*
X284247Y236538D01*
X284181Y236469D01*
X284113Y236401D01*
X284042Y236337D01*
X283968Y236276D01*
X283891Y236217D01*
X283813Y236162D01*
X283732Y236110D01*
X283649Y236062D01*
X283564Y236016D01*
X283478Y235975D01*
X283390Y235937D01*
X283300Y235902D01*
X283209Y235871D01*
X283117Y235844D01*
X283024Y235821D01*
X282930Y235802D01*
X282835Y235786D01*
X282740Y235774D01*
X282644Y235766D01*
X282548Y235762D01*
X282452Y235762D01*
X282356Y235766D01*
X282260Y235774D01*
X282165Y235786D01*
X282070Y235802D01*
X281976Y235821D01*
X281883Y235844D01*
X281791Y235871D01*
X281700Y235902D01*
X281610Y235937D01*
X281522Y235975D01*
X281436Y236016D01*
X281351Y236062D01*
X281268Y236110D01*
X281187Y236162D01*
X281109Y236217D01*
X281032Y236276D01*
X280958Y236337D01*
X280887Y236401D01*
X280819Y236469D01*
X280753Y236538D01*
X280690Y236611D01*
X280630Y236686D01*
X280573Y236764D01*
X280520Y236843D01*
X280469Y236925D01*
X280423Y237009D01*
X280379Y237095D01*
X280339Y237182D01*
X280303Y237271D01*
X280270Y237361D01*
X280241Y237453D01*
X280216Y237545D01*
X280195Y237639D01*
X280177Y237734D01*
X280164Y237829D01*
X280154Y237924D01*
X280148Y238020D01*
X280146Y238116D01*
X280146Y240471D01*
X280148Y240592D01*
X280154Y240712D01*
X280163Y240833D01*
X280177Y240953D01*
X280194Y241072D01*
X280215Y241191D01*
X280240Y241309D01*
X280269Y241427D01*
X280302Y241543D01*
X280338Y241658D01*
X280378Y241772D01*
X280421Y241885D01*
X280468Y241996D01*
X280519Y242105D01*
X280573Y242213D01*
X280631Y242320D01*
X280692Y242424D01*
X280756Y242526D01*
X280823Y242626D01*
X280894Y242724D01*
X280968Y242820D01*
X281045Y242913D01*
X281124Y243004D01*
X281207Y243092D01*
X281292Y243177D01*
X281380Y243260D01*
X281471Y243339D01*
X281564Y243416D01*
X281660Y243490D01*
X281758Y243561D01*
X281858Y243628D01*
X281960Y243692D01*
X282064Y243753D01*
X282171Y243811D01*
X282279Y243865D01*
X282388Y243916D01*
X282499Y243963D01*
X282612Y244006D01*
X282726Y244046D01*
X282841Y244082D01*
X282957Y244115D01*
X283075Y244144D01*
X283193Y244169D01*
X283312Y244190D01*
X283431Y244207D01*
X283551Y244221D01*
X283672Y244230D01*
X283792Y244236D01*
X283913Y244238D01*
D11*
X291300Y181500D02*
X291300Y173500D01*
X208700Y173500D02*
X208700Y181500D01*
X294900Y231000D02*
X294900Y239000D01*
X205100Y239000D02*
X205100Y231000D01*
X291300Y181500D02*
X291300Y173500D01*
X208700Y173500D02*
X208700Y181500D01*
X294900Y231000D02*
X294900Y239000D01*
X205100Y239000D02*
X205100Y231000D01*
D12*
X291300Y177500D03*
X208700Y177000D03*
X205100Y235000D03*
X294900Y235000D03*
D13*
X98500Y150000D03*
X91500Y150000D03*
X98500Y138000D03*
X91500Y138000D03*
X98500Y162000D03*
X91500Y162000D03*
D14*
X110000Y165500D03*
X110000Y156500D03*
D15*
X110000Y161000D03*
D14*
X110000Y139500D03*
X110000Y148500D03*
D15*
X110000Y144000D03*
D16*
X211900Y88000D03*
X237300Y88000D03*
X262700Y62600D03*
X262700Y88000D03*
X288100Y62600D03*
X211900Y113400D03*
X237300Y62600D03*
X262700Y113400D03*
X211900Y62600D03*
X288100Y113400D03*
X288100Y88000D03*
X237300Y113400D03*
D17*
X85000Y90000D03*
X73000Y90000D03*
X97000Y90000D03*
D14*
X122000Y83500D03*
X122000Y92500D03*
D15*
X122000Y88000D03*
D18*
X302600Y156250D03*
X302600Y159750D03*
X313600Y156250D03*
X313600Y159750D03*
D14*
X132000Y83500D03*
X132000Y92500D03*
D15*
X132000Y88000D03*
D19*
X190875Y43875D02*
X194925Y43875D01*
X190875Y43875D02*
X190875Y46125D01*
X194925Y46125D01*
X194925Y43875D01*
X194925Y44587D02*
X190875Y44587D01*
X190875Y45299D02*
X194925Y45299D01*
X194925Y46011D02*
X190875Y46011D01*
X197075Y43875D02*
X201125Y43875D01*
X197075Y43875D02*
X197075Y46125D01*
X201125Y46125D01*
X201125Y43875D01*
X201125Y44587D02*
X197075Y44587D01*
X197075Y45299D02*
X201125Y45299D01*
X201125Y46011D02*
X197075Y46011D01*
X194925Y48875D02*
X190875Y48875D01*
X190875Y51125D01*
X194925Y51125D01*
X194925Y48875D01*
X194925Y49587D02*
X190875Y49587D01*
X190875Y50299D02*
X194925Y50299D01*
X194925Y51011D02*
X190875Y51011D01*
X197075Y48875D02*
X201125Y48875D01*
X197075Y48875D02*
X197075Y51125D01*
X201125Y51125D01*
X201125Y48875D01*
X201125Y49587D02*
X197075Y49587D01*
X197075Y50299D02*
X201125Y50299D01*
X201125Y51011D02*
X197075Y51011D01*
D20*
X195500Y53500D02*
X191000Y53500D01*
X191000Y56500D01*
X195500Y56500D01*
X195500Y53500D01*
X195500Y54450D02*
X191000Y54450D01*
X191000Y55400D02*
X195500Y55400D01*
X195500Y56350D02*
X191000Y56350D01*
X197800Y53500D02*
X201000Y53500D01*
X197800Y53500D02*
X197800Y56500D01*
X201000Y56500D01*
X201000Y53500D01*
X201000Y54450D02*
X197800Y54450D01*
X197800Y55400D02*
X201000Y55400D01*
X201000Y56350D02*
X197800Y56350D01*
D19*
X197075Y78125D02*
X201125Y78125D01*
X201125Y75875D01*
X197075Y75875D01*
X197075Y78125D01*
X197075Y76587D02*
X201125Y76587D01*
X201125Y77299D02*
X197075Y77299D01*
X197075Y78011D02*
X201125Y78011D01*
X194925Y78125D02*
X190875Y78125D01*
X194925Y78125D02*
X194925Y75875D01*
X190875Y75875D01*
X190875Y78125D01*
X190875Y76587D02*
X194925Y76587D01*
X194925Y77299D02*
X190875Y77299D01*
X190875Y78011D02*
X194925Y78011D01*
X197075Y73125D02*
X201125Y73125D01*
X201125Y70875D01*
X197075Y70875D01*
X197075Y73125D01*
X197075Y71587D02*
X201125Y71587D01*
X201125Y72299D02*
X197075Y72299D01*
X197075Y73011D02*
X201125Y73011D01*
X194925Y73125D02*
X190875Y73125D01*
X194925Y73125D02*
X194925Y70875D01*
X190875Y70875D01*
X190875Y73125D01*
X190875Y71587D02*
X194925Y71587D01*
X194925Y72299D02*
X190875Y72299D01*
X190875Y73011D02*
X194925Y73011D01*
D20*
X196500Y68500D02*
X201000Y68500D01*
X201000Y65500D01*
X196500Y65500D01*
X196500Y68500D01*
X196500Y66450D02*
X201000Y66450D01*
X201000Y67400D02*
X196500Y67400D01*
X196500Y68350D02*
X201000Y68350D01*
X194200Y68500D02*
X191000Y68500D01*
X194200Y68500D02*
X194200Y65500D01*
X191000Y65500D01*
X191000Y68500D01*
X191000Y66450D02*
X194200Y66450D01*
X194200Y67400D02*
X191000Y67400D01*
X191000Y68350D02*
X194200Y68350D01*
D19*
X197075Y104125D02*
X201125Y104125D01*
X201125Y101875D01*
X197075Y101875D01*
X197075Y104125D01*
X197075Y102587D02*
X201125Y102587D01*
X201125Y103299D02*
X197075Y103299D01*
X197075Y104011D02*
X201125Y104011D01*
X194925Y104125D02*
X190875Y104125D01*
X194925Y104125D02*
X194925Y101875D01*
X190875Y101875D01*
X190875Y104125D01*
X190875Y102587D02*
X194925Y102587D01*
X194925Y103299D02*
X190875Y103299D01*
X190875Y104011D02*
X194925Y104011D01*
X197075Y99125D02*
X201125Y99125D01*
X201125Y96875D01*
X197075Y96875D01*
X197075Y99125D01*
X197075Y97587D02*
X201125Y97587D01*
X201125Y98299D02*
X197075Y98299D01*
X197075Y99011D02*
X201125Y99011D01*
X194925Y99125D02*
X190875Y99125D01*
X194925Y99125D02*
X194925Y96875D01*
X190875Y96875D01*
X190875Y99125D01*
X190875Y97587D02*
X194925Y97587D01*
X194925Y98299D02*
X190875Y98299D01*
X190875Y99011D02*
X194925Y99011D01*
D20*
X196500Y94500D02*
X201000Y94500D01*
X201000Y91500D01*
X196500Y91500D01*
X196500Y94500D01*
X196500Y92450D02*
X201000Y92450D01*
X201000Y93400D02*
X196500Y93400D01*
X196500Y94350D02*
X201000Y94350D01*
X194200Y94500D02*
X191000Y94500D01*
X194200Y94500D02*
X194200Y91500D01*
X191000Y91500D01*
X191000Y94500D01*
X191000Y92450D02*
X194200Y92450D01*
X194200Y93400D02*
X191000Y93400D01*
X191000Y94350D02*
X194200Y94350D01*
D19*
X298875Y97875D02*
X302925Y97875D01*
X298875Y97875D02*
X298875Y100125D01*
X302925Y100125D01*
X302925Y97875D01*
X302925Y98587D02*
X298875Y98587D01*
X298875Y99299D02*
X302925Y99299D01*
X302925Y100011D02*
X298875Y100011D01*
X305075Y97875D02*
X309125Y97875D01*
X305075Y97875D02*
X305075Y100125D01*
X309125Y100125D01*
X309125Y97875D01*
X309125Y98587D02*
X305075Y98587D01*
X305075Y99299D02*
X309125Y99299D01*
X309125Y100011D02*
X305075Y100011D01*
X302925Y102875D02*
X298875Y102875D01*
X298875Y105125D01*
X302925Y105125D01*
X302925Y102875D01*
X302925Y103587D02*
X298875Y103587D01*
X298875Y104299D02*
X302925Y104299D01*
X302925Y105011D02*
X298875Y105011D01*
X305075Y102875D02*
X309125Y102875D01*
X305075Y102875D02*
X305075Y105125D01*
X309125Y105125D01*
X309125Y102875D01*
X309125Y103587D02*
X305075Y103587D01*
X305075Y104299D02*
X309125Y104299D01*
X309125Y105011D02*
X305075Y105011D01*
D20*
X303500Y107500D02*
X299000Y107500D01*
X299000Y110500D01*
X303500Y110500D01*
X303500Y107500D01*
X303500Y108450D02*
X299000Y108450D01*
X299000Y109400D02*
X303500Y109400D01*
X303500Y110350D02*
X299000Y110350D01*
X305800Y107500D02*
X309000Y107500D01*
X305800Y107500D02*
X305800Y110500D01*
X309000Y110500D01*
X309000Y107500D01*
X309000Y108450D02*
X305800Y108450D01*
X305800Y109400D02*
X309000Y109400D01*
X309000Y110350D02*
X305800Y110350D01*
D19*
X201125Y129125D02*
X197075Y129125D01*
X201125Y129125D02*
X201125Y126875D01*
X197075Y126875D01*
X197075Y129125D01*
X197075Y127587D02*
X201125Y127587D01*
X201125Y128299D02*
X197075Y128299D01*
X197075Y129011D02*
X201125Y129011D01*
X194925Y129125D02*
X190875Y129125D01*
X194925Y129125D02*
X194925Y126875D01*
X190875Y126875D01*
X190875Y129125D01*
X190875Y127587D02*
X194925Y127587D01*
X194925Y128299D02*
X190875Y128299D01*
X190875Y129011D02*
X194925Y129011D01*
X197075Y124125D02*
X201125Y124125D01*
X201125Y121875D01*
X197075Y121875D01*
X197075Y124125D01*
X197075Y122587D02*
X201125Y122587D01*
X201125Y123299D02*
X197075Y123299D01*
X197075Y124011D02*
X201125Y124011D01*
X194925Y124125D02*
X190875Y124125D01*
X194925Y124125D02*
X194925Y121875D01*
X190875Y121875D01*
X190875Y124125D01*
X190875Y122587D02*
X194925Y122587D01*
X194925Y123299D02*
X190875Y123299D01*
X190875Y124011D02*
X194925Y124011D01*
D20*
X196500Y119500D02*
X201000Y119500D01*
X201000Y116500D01*
X196500Y116500D01*
X196500Y119500D01*
X196500Y117450D02*
X201000Y117450D01*
X201000Y118400D02*
X196500Y118400D01*
X196500Y119350D02*
X201000Y119350D01*
X194200Y119500D02*
X191000Y119500D01*
X194200Y119500D02*
X194200Y116500D01*
X191000Y116500D01*
X191000Y119500D01*
X191000Y117450D02*
X194200Y117450D01*
X194200Y118400D02*
X191000Y118400D01*
X191000Y119350D02*
X194200Y119350D01*
D18*
X348000Y218250D03*
X348000Y221750D03*
D13*
X321000Y232000D03*
X357868Y231404D03*
X376000Y225000D03*
X424000Y148000D03*
X430000Y148000D03*
X436000Y148000D03*
X418000Y148000D03*
X219000Y201000D03*
X219000Y218000D03*
D21*
X281000Y188000D03*
D13*
X278000Y136000D03*
X312000Y135000D03*
X322000Y112000D03*
X307000Y91000D03*
X288000Y76000D03*
X100000Y196000D03*
X78000Y196000D03*
X322000Y197000D03*
X320000Y178000D03*
X51000Y140000D03*
X95000Y204000D03*
X186000Y202000D03*
X199000Y176000D03*
X410000Y157000D03*
X394000Y151000D03*
X410000Y151000D03*
X295000Y155000D03*
X299000Y123000D03*
X408000Y208000D03*
X369000Y121000D03*
X400000Y52000D03*
X400000Y46000D03*
X418000Y69000D03*
X426000Y69000D03*
X294000Y214000D03*
X198500Y166000D03*
X223000Y166000D03*
X206000Y202000D03*
X399000Y211000D03*
X392000Y219000D03*
X375000Y121000D03*
X375000Y137000D03*
X477000Y148000D03*
X447000Y140000D03*
X413000Y88000D03*
X405000Y95000D03*
X192000Y61000D03*
X199000Y61000D03*
D21*
X264000Y188000D03*
D13*
X184000Y165000D03*
X174000Y143000D03*
X157000Y179000D03*
X157000Y172000D03*
X22000Y146000D03*
X41000Y146000D03*
X52000Y121000D03*
X58000Y101000D03*
X140000Y121000D03*
X124000Y104000D03*
X94000Y55000D03*
X33000Y73000D03*
D22*
X192600Y93000D02*
X198750Y93000D01*
X198750Y67000D02*
X192600Y67000D01*
X192600Y118000D02*
X198750Y118000D01*
X301250Y109000D02*
X307400Y109000D01*
D23*
X132000Y98500D02*
X132000Y92500D01*
X132000Y98500D02*
X126500Y104000D01*
X124000Y104000D01*
X122000Y102000D02*
X122000Y92500D01*
X122000Y102000D02*
X124000Y104000D01*
D13*
X305000Y45000D03*
X186000Y91000D03*
D22*
X188000Y93000D02*
X198750Y93000D01*
X188000Y93000D02*
X186000Y91000D01*
X198750Y67000D02*
X198750Y55650D01*
X199400Y55000D01*
X193250Y55000D01*
D13*
X304000Y114000D03*
X142000Y32000D03*
X134000Y32000D03*
X125000Y32000D03*
D21*
X242500Y164100D03*
D23*
X242500Y178267D01*
X238700Y182067D01*
D13*
X228000Y206050D03*
D23*
X229800Y207850D01*
X236150Y207850D01*
X238700Y205300D01*
X238700Y182067D01*
D13*
X348400Y207700D03*
X295000Y9000D03*
D24*
X301000Y15000D01*
X319000Y15000D01*
X354100Y197000D02*
X348400Y202700D01*
X348400Y207700D01*
X354100Y197000D02*
X432000Y197000D01*
X366000Y62000D02*
X319000Y15000D01*
X366000Y62000D02*
X443000Y62000D01*
X466000Y85000D01*
X466000Y163000D01*
X432000Y197000D01*
D13*
X330500Y207700D03*
X285000Y9000D03*
D24*
X296000Y20000D01*
X316000Y20000D01*
X342039Y192300D02*
X330500Y203839D01*
X330500Y207700D01*
X342039Y192300D02*
X427700Y192300D01*
X460000Y160000D02*
X460000Y89000D01*
X446000Y75000D01*
X371000Y75000D02*
X316000Y20000D01*
X460000Y160000D02*
X427700Y192300D01*
X446000Y75000D02*
X371000Y75000D01*
D13*
X446000Y125000D03*
X334000Y108000D03*
D24*
X384000Y108000D01*
X401000Y125000D02*
X446000Y125000D01*
X401000Y125000D02*
X384000Y108000D01*
D13*
X368000Y208000D03*
X322000Y208000D03*
X386000Y86000D03*
X338000Y133000D03*
X346000Y133000D03*
X338000Y126000D03*
X346000Y126000D03*
X411000Y102000D03*
X425000Y102000D03*
X418000Y102000D03*
X411000Y108000D03*
X422000Y174000D03*
X422000Y181000D03*
X356000Y85000D03*
X356000Y77000D03*
X198000Y86000D03*
X203000Y83000D03*
X193000Y83000D03*
X230000Y166000D03*
X236000Y166000D03*
X265000Y166000D03*
X259000Y144000D03*
X238000Y148000D03*
D25*
X211900Y88000D02*
X209900Y86000D01*
X198000Y86000D01*
X193000Y83000D02*
X203000Y83000D01*
X206900Y83000D01*
X211900Y88000D01*
D13*
X358000Y208000D03*
D24*
X358000Y205000D02*
X361000Y202000D01*
X358000Y205000D02*
X358000Y208000D01*
D13*
X422000Y207000D03*
D24*
X417000Y202000D01*
X361000Y202000D01*
D13*
X394500Y185500D03*
X384000Y185500D03*
X251000Y209000D03*
X306000Y221000D03*
X303000Y176000D03*
D23*
X302600Y175600D02*
X302600Y159750D01*
X302600Y175600D02*
X303000Y176000D01*
X306000Y207364D02*
X306000Y221000D01*
X306000Y207364D02*
X303000Y204364D01*
X304000Y219000D02*
X306000Y221000D01*
X304000Y219000D02*
X248000Y219000D01*
D13*
X191000Y222000D03*
D23*
X242000Y225000D02*
X248000Y219000D01*
X242000Y225000D02*
X217000Y225000D01*
X211000Y219000D01*
X194000Y219000D01*
X191000Y222000D01*
D21*
X256000Y150000D03*
D23*
X303000Y176000D02*
X303000Y204364D01*
D13*
X312000Y227000D03*
X308000Y169000D03*
D23*
X308000Y165350D01*
X313600Y159750D01*
X312000Y173000D02*
X312000Y227000D01*
X312000Y173000D02*
X308000Y169000D01*
X312000Y227000D02*
X304000Y227000D01*
X300000Y223000D01*
X200000Y223000D02*
X197000Y226000D01*
X197000Y233000D01*
X195000Y235000D01*
X191000Y235000D01*
D13*
X191000Y235000D03*
D23*
X251000Y223000D02*
X300000Y223000D01*
X251000Y223000D02*
X244000Y230000D01*
X216000Y230000D01*
X209000Y223000D01*
X200000Y223000D01*
D13*
X339400Y208000D03*
D17*
X265000Y8000D03*
D13*
X335250Y116000D03*
X35000Y177000D03*
X418000Y164000D03*
X275000Y8000D03*
D24*
X292000Y25000D01*
X441300Y80000D02*
X453300Y92000D01*
X453300Y146467D01*
X435767Y164000D02*
X418000Y164000D01*
X313000Y25000D02*
X292000Y25000D01*
X313000Y25000D02*
X368000Y80000D01*
X441300Y80000D01*
X453300Y146467D02*
X435767Y164000D01*
D21*
X275350Y183000D03*
D23*
X274150Y181800D01*
X274150Y163850D01*
D13*
X291202Y144848D03*
D23*
X289202Y146848D02*
X289202Y148798D01*
X289202Y146848D02*
X291202Y144848D01*
X289202Y148798D02*
X274150Y163850D01*
D21*
X269650Y183000D03*
D23*
X270850Y181800D01*
X270850Y162483D01*
X275969Y157364D01*
X276023Y157307D01*
X276074Y157248D01*
X276123Y157186D01*
X276168Y157122D01*
X276211Y157056D01*
X276250Y156988D01*
X276286Y156918D01*
X276319Y156847D01*
X276348Y156774D01*
X276374Y156699D01*
X276396Y156624D01*
X276414Y156548D01*
X276429Y156471D01*
X276440Y156393D01*
X276448Y156315D01*
X276452Y156236D01*
X276452Y156158D01*
X276448Y156079D01*
X276440Y156001D01*
X276429Y155923D01*
X276414Y155846D01*
X276396Y155770D01*
X276374Y155695D01*
X276348Y155620D01*
X276319Y155547D01*
X276286Y155476D01*
X276250Y155406D01*
X276211Y155338D01*
X276168Y155272D01*
X276123Y155208D01*
X276074Y155146D01*
X276023Y155087D01*
X275969Y155030D01*
X275969Y155031D02*
X275265Y154327D01*
X275264Y154327D02*
X275210Y154270D01*
X275159Y154211D01*
X275110Y154149D01*
X275065Y154085D01*
X275022Y154019D01*
X274983Y153951D01*
X274947Y153881D01*
X274914Y153810D01*
X274885Y153737D01*
X274859Y153662D01*
X274837Y153587D01*
X274819Y153511D01*
X274804Y153434D01*
X274793Y153356D01*
X274785Y153278D01*
X274781Y153199D01*
X274781Y153121D01*
X274785Y153042D01*
X274793Y152964D01*
X274804Y152886D01*
X274819Y152809D01*
X274837Y152733D01*
X274859Y152658D01*
X274885Y152583D01*
X274914Y152510D01*
X274947Y152439D01*
X274983Y152369D01*
X275022Y152301D01*
X275065Y152235D01*
X275110Y152171D01*
X275159Y152109D01*
X275210Y152050D01*
X275264Y151993D01*
X275265Y151993D02*
X277295Y149962D01*
X277352Y149908D01*
X277411Y149857D01*
X277473Y149808D01*
X277537Y149763D01*
X277603Y149720D01*
X277671Y149681D01*
X277741Y149645D01*
X277812Y149612D01*
X277885Y149583D01*
X277960Y149557D01*
X278035Y149535D01*
X278111Y149517D01*
X278188Y149502D01*
X278266Y149491D01*
X278344Y149483D01*
X278423Y149479D01*
X278501Y149479D01*
X278580Y149483D01*
X278658Y149491D01*
X278736Y149502D01*
X278813Y149517D01*
X278889Y149535D01*
X278964Y149557D01*
X279039Y149583D01*
X279112Y149612D01*
X279183Y149645D01*
X279253Y149681D01*
X279321Y149720D01*
X279387Y149763D01*
X279451Y149808D01*
X279513Y149857D01*
X279572Y149908D01*
X279629Y149962D01*
X280333Y150667D01*
X280390Y150721D01*
X280449Y150772D01*
X280511Y150821D01*
X280575Y150866D01*
X280641Y150909D01*
X280709Y150948D01*
X280779Y150984D01*
X280850Y151017D01*
X280923Y151046D01*
X280998Y151072D01*
X281073Y151094D01*
X281149Y151112D01*
X281226Y151127D01*
X281304Y151138D01*
X281382Y151146D01*
X281461Y151150D01*
X281539Y151150D01*
X281618Y151146D01*
X281696Y151138D01*
X281774Y151127D01*
X281851Y151112D01*
X281927Y151094D01*
X282002Y151072D01*
X282077Y151046D01*
X282150Y151017D01*
X282221Y150984D01*
X282291Y150948D01*
X282359Y150909D01*
X282425Y150866D01*
X282489Y150821D01*
X282551Y150772D01*
X282610Y150721D01*
X282667Y150667D01*
X285850Y147483D01*
D13*
X284150Y144700D03*
D23*
X285850Y146400D02*
X285850Y147483D01*
X285850Y146400D02*
X284150Y144700D01*
D13*
X297621Y76621D03*
X92600Y189000D03*
X126000Y138100D03*
X113000Y218000D03*
D24*
X130000Y169000D02*
X130000Y142100D01*
X126000Y138100D01*
X113000Y186000D02*
X113000Y218000D01*
X113000Y186000D02*
X130000Y169000D01*
D13*
X329000Y189700D03*
D23*
X330600Y188100D01*
X333367Y188100D02*
X339300Y182167D01*
X333367Y188100D02*
X330600Y188100D01*
D13*
X314712Y119288D03*
D23*
X314712Y122045D01*
X339300Y146633D02*
X339300Y182167D01*
X339300Y146633D02*
X314712Y122045D01*
D21*
X254500Y167864D03*
X247500Y150200D03*
D23*
X247500Y155500D01*
X254500Y162500D02*
X254500Y167864D01*
X254500Y162500D02*
X247500Y155500D01*
D13*
X329000Y183000D03*
D23*
X330800Y184800D01*
X332000Y184800D01*
X336000Y180800D01*
D13*
X309621Y124379D03*
D23*
X312379Y124379D01*
X336000Y148000D01*
X336000Y180800D01*
D13*
X183000Y154450D03*
X147000Y172300D03*
D23*
X145300Y174000D01*
X181300Y152750D02*
X183000Y154450D01*
X181300Y152750D02*
X176250Y152750D01*
X173000Y156000D01*
X173000Y186667D01*
X140633Y196300D02*
X135667Y191334D01*
X135667Y178667D01*
X140333Y174000D01*
X145300Y174000D01*
X163367Y196300D02*
X173000Y186667D01*
X163367Y196300D02*
X140633Y196300D01*
D13*
X182900Y147750D03*
X147000Y179000D03*
D23*
X145300Y177300D01*
X181200Y149450D02*
X182900Y147750D01*
X181200Y149450D02*
X174883Y149450D01*
X169700Y154633D01*
X169700Y185300D01*
X142000Y193000D02*
X139000Y190000D01*
X139000Y180000D01*
X141700Y177300D01*
X145300Y177300D01*
X162000Y193000D02*
X169700Y185300D01*
X162000Y193000D02*
X142000Y193000D01*
D13*
X339000Y232000D03*
X348000Y232000D03*
X331000Y232000D03*
X418000Y42000D03*
X425000Y49000D03*
X157000Y230000D03*
X76000Y140000D03*
D24*
X110000Y152000D02*
X110000Y156500D01*
X110000Y152000D02*
X110000Y148500D01*
X110000Y152000D02*
X117000Y152000D01*
X119500Y149500D02*
X119500Y130500D01*
X119500Y149500D02*
X117000Y152000D01*
X82000Y125000D02*
X76000Y131000D01*
X76000Y140000D01*
X114000Y125000D02*
X119500Y130500D01*
X114000Y125000D02*
X82000Y125000D01*
D13*
X87000Y71000D03*
D23*
X88000Y72000D01*
X116000Y72000D01*
X122000Y78000D01*
X122000Y83500D01*
X126500Y78000D02*
X132000Y83500D01*
X126500Y78000D02*
X122000Y78000D01*
X348000Y221750D02*
X348000Y232000D01*
D17*
X131000Y227000D03*
D24*
X123000Y219000D01*
X123000Y208000D01*
X128000Y203000D01*
X132000Y203000D01*
D17*
X132000Y203000D03*
D23*
X348000Y218250D02*
X382750Y218250D01*
X383000Y218000D01*
D17*
X383000Y218000D03*
D21*
X260000Y181000D03*
D23*
X244434Y181000D01*
X242000Y183434D01*
X242000Y206667D01*
D13*
X227900Y212750D03*
D23*
X229500Y211150D01*
X237517Y211150D01*
X242000Y206667D01*
D13*
X302712Y81712D03*
X85400Y189000D03*
X120000Y161000D03*
D24*
X110000Y161000D01*
D13*
X76000Y160000D03*
D23*
X83000Y156000D02*
X83000Y150000D01*
X83000Y156000D02*
X79000Y160000D01*
X76000Y160000D01*
X89000Y144000D02*
X110000Y144000D01*
X89000Y144000D02*
X83000Y150000D01*
X199100Y128000D02*
X232000Y128000D01*
X237300Y122700D02*
X237300Y113400D01*
X237300Y122700D02*
X232000Y128000D01*
X252464Y126536D02*
X295607Y126536D01*
X310000Y140929D02*
X310000Y148000D01*
X313600Y151600D02*
X313600Y156250D01*
X313600Y151600D02*
X310000Y148000D01*
X188000Y128000D02*
X186207Y129793D01*
X186207Y134207D01*
X189000Y137000D01*
X242000Y137000D01*
X252464Y126536D01*
X295607Y126536D02*
X310000Y140929D01*
X192900Y128000D02*
X188000Y128000D01*
X192900Y128000D02*
X199100Y128000D01*
X199100Y123000D02*
X210000Y123000D01*
X212000Y121000D01*
X212000Y113500D01*
X211900Y113400D01*
X192900Y123000D02*
X186929Y123000D01*
X183000Y126929D02*
X183000Y136071D01*
X244071Y141000D02*
X254536Y130536D01*
X293536Y130536D01*
X306000Y143000D02*
X306000Y148000D01*
X302600Y151400D02*
X302600Y156250D01*
X302600Y151400D02*
X306000Y148000D01*
X186929Y123000D02*
X183000Y126929D01*
X183000Y136071D02*
X187929Y141000D01*
X244071Y141000D01*
X293536Y130536D02*
X306000Y143000D01*
X199100Y123000D02*
X192900Y123000D01*
X237300Y88000D02*
X246350Y88000D01*
X248350Y90000D01*
X248350Y96650D01*
X246000Y99000D01*
D13*
X124964Y113965D03*
D23*
X127369Y113965D01*
X193000Y99000D02*
X200000Y99000D01*
X193000Y99000D02*
X142333Y99000D01*
X127369Y113965D01*
X192900Y98900D02*
X192900Y98000D01*
X192900Y98900D02*
X193000Y99000D01*
X199100Y98100D02*
X199100Y98000D01*
X199100Y98100D02*
X200000Y99000D01*
X200100Y99000D02*
X199100Y98000D01*
X200100Y99000D02*
X246000Y99000D01*
X253650Y88000D02*
X262700Y88000D01*
X253650Y88000D02*
X251650Y90000D01*
X251650Y98017D01*
X247367Y102300D01*
D13*
X129702Y118702D03*
D23*
X129702Y116298D01*
X199000Y102300D02*
X247367Y102300D01*
X199000Y102300D02*
X193000Y102300D01*
X143700Y102300D01*
X129702Y116298D01*
X199100Y103000D02*
X199100Y102400D01*
X199000Y102300D01*
X192900Y102400D02*
X192900Y103000D01*
X192900Y102400D02*
X193000Y102300D01*
X279650Y62600D02*
X288100Y62600D01*
X279650Y62600D02*
X277050Y60000D01*
X277050Y51633D02*
X271117Y45700D01*
X277050Y51633D02*
X277050Y60000D01*
X271117Y45700D02*
X199000Y45700D01*
X193000Y45700D01*
X73633Y45700D01*
X29700Y89633D01*
D13*
X28000Y138000D03*
D23*
X29700Y136300D01*
X29700Y89633D01*
X192900Y45600D02*
X192900Y45000D01*
X192900Y45600D02*
X193000Y45700D01*
X199000Y45100D02*
X199100Y45000D01*
X199000Y45100D02*
X199000Y45700D01*
X262700Y62600D02*
X271150Y62600D01*
X273750Y60000D01*
X273750Y53000D01*
X269750Y49000D01*
X199000Y49000D01*
X193000Y49000D01*
X181842Y49000D01*
X181763Y49002D01*
X181685Y49007D01*
X181607Y49017D01*
X181530Y49030D01*
X181453Y49047D01*
X181377Y49067D01*
X181302Y49091D01*
X181229Y49118D01*
X181157Y49149D01*
X181086Y49183D01*
X181017Y49221D01*
X180950Y49262D01*
X180885Y49306D01*
X180822Y49353D01*
X180761Y49403D01*
X180703Y49456D01*
X180648Y49511D01*
X180595Y49569D01*
X180545Y49630D01*
X180498Y49693D01*
X180454Y49758D01*
X180413Y49825D01*
X180375Y49894D01*
X180341Y49965D01*
X180310Y50037D01*
X180283Y50110D01*
X180259Y50185D01*
X180239Y50261D01*
X180222Y50338D01*
X180209Y50415D01*
X180199Y50493D01*
X180194Y50571D01*
X180192Y50650D01*
X180192Y51500D01*
X180190Y51579D01*
X180185Y51657D01*
X180175Y51735D01*
X180162Y51812D01*
X180145Y51889D01*
X180125Y51965D01*
X180101Y52040D01*
X180074Y52113D01*
X180043Y52185D01*
X180009Y52256D01*
X179971Y52325D01*
X179930Y52392D01*
X179886Y52457D01*
X179839Y52520D01*
X179789Y52581D01*
X179736Y52639D01*
X179681Y52694D01*
X179623Y52747D01*
X179562Y52797D01*
X179499Y52844D01*
X179434Y52888D01*
X179367Y52929D01*
X179298Y52967D01*
X179227Y53001D01*
X179155Y53032D01*
X179082Y53059D01*
X179007Y53083D01*
X178931Y53103D01*
X178854Y53120D01*
X178777Y53133D01*
X178699Y53143D01*
X178621Y53148D01*
X178542Y53150D01*
X175995Y53150D01*
X175916Y53148D01*
X175838Y53143D01*
X175760Y53133D01*
X175683Y53120D01*
X175606Y53103D01*
X175530Y53083D01*
X175455Y53059D01*
X175382Y53032D01*
X175310Y53001D01*
X175239Y52967D01*
X175170Y52929D01*
X175103Y52888D01*
X175038Y52844D01*
X174975Y52797D01*
X174914Y52747D01*
X174856Y52694D01*
X174801Y52639D01*
X174748Y52581D01*
X174698Y52520D01*
X174651Y52457D01*
X174607Y52392D01*
X174566Y52325D01*
X174528Y52256D01*
X174494Y52185D01*
X174463Y52113D01*
X174436Y52040D01*
X174412Y51965D01*
X174392Y51889D01*
X174375Y51812D01*
X174362Y51735D01*
X174352Y51657D01*
X174347Y51579D01*
X174345Y51500D01*
X174345Y50650D01*
X174343Y50571D01*
X174338Y50493D01*
X174328Y50415D01*
X174315Y50338D01*
X174298Y50261D01*
X174278Y50185D01*
X174254Y50110D01*
X174227Y50037D01*
X174196Y49965D01*
X174162Y49894D01*
X174124Y49825D01*
X174083Y49758D01*
X174039Y49693D01*
X173992Y49630D01*
X173942Y49569D01*
X173889Y49511D01*
X173834Y49456D01*
X173776Y49403D01*
X173715Y49353D01*
X173652Y49306D01*
X173587Y49262D01*
X173520Y49221D01*
X173451Y49183D01*
X173380Y49149D01*
X173308Y49118D01*
X173235Y49091D01*
X173160Y49067D01*
X173084Y49047D01*
X173007Y49030D01*
X172930Y49017D01*
X172852Y49007D01*
X172774Y49002D01*
X172695Y49000D01*
X170147Y49000D01*
X170068Y49002D01*
X169990Y49007D01*
X169912Y49017D01*
X169835Y49030D01*
X169758Y49047D01*
X169682Y49067D01*
X169607Y49091D01*
X169534Y49118D01*
X169462Y49149D01*
X169391Y49183D01*
X169322Y49221D01*
X169255Y49262D01*
X169190Y49306D01*
X169127Y49353D01*
X169066Y49403D01*
X169008Y49456D01*
X168953Y49511D01*
X168900Y49569D01*
X168850Y49630D01*
X168803Y49693D01*
X168759Y49758D01*
X168718Y49825D01*
X168680Y49894D01*
X168646Y49965D01*
X168615Y50037D01*
X168588Y50110D01*
X168564Y50185D01*
X168544Y50261D01*
X168527Y50338D01*
X168514Y50415D01*
X168504Y50493D01*
X168499Y50571D01*
X168497Y50650D01*
X168497Y51500D01*
X168495Y51579D01*
X168490Y51657D01*
X168480Y51735D01*
X168467Y51812D01*
X168450Y51889D01*
X168430Y51965D01*
X168406Y52040D01*
X168379Y52113D01*
X168348Y52185D01*
X168314Y52256D01*
X168276Y52325D01*
X168235Y52392D01*
X168191Y52457D01*
X168144Y52520D01*
X168094Y52581D01*
X168041Y52639D01*
X167986Y52694D01*
X167928Y52747D01*
X167867Y52797D01*
X167804Y52844D01*
X167739Y52888D01*
X167672Y52929D01*
X167603Y52967D01*
X167532Y53001D01*
X167460Y53032D01*
X167387Y53059D01*
X167312Y53083D01*
X167236Y53103D01*
X167159Y53120D01*
X167082Y53133D01*
X167004Y53143D01*
X166926Y53148D01*
X166847Y53150D01*
X164300Y53150D01*
X164221Y53148D01*
X164143Y53143D01*
X164065Y53133D01*
X163988Y53120D01*
X163911Y53103D01*
X163835Y53083D01*
X163760Y53059D01*
X163687Y53032D01*
X163615Y53001D01*
X163544Y52967D01*
X163475Y52929D01*
X163408Y52888D01*
X163343Y52844D01*
X163280Y52797D01*
X163219Y52747D01*
X163161Y52694D01*
X163106Y52639D01*
X163053Y52581D01*
X163003Y52520D01*
X162956Y52457D01*
X162912Y52392D01*
X162871Y52325D01*
X162833Y52256D01*
X162799Y52185D01*
X162768Y52113D01*
X162741Y52040D01*
X162717Y51965D01*
X162697Y51889D01*
X162680Y51812D01*
X162667Y51735D01*
X162657Y51657D01*
X162652Y51579D01*
X162650Y51500D01*
X162650Y50650D01*
X162648Y50571D01*
X162643Y50493D01*
X162633Y50415D01*
X162620Y50338D01*
X162603Y50261D01*
X162583Y50185D01*
X162559Y50110D01*
X162532Y50037D01*
X162501Y49965D01*
X162467Y49894D01*
X162429Y49825D01*
X162388Y49758D01*
X162344Y49693D01*
X162297Y49630D01*
X162247Y49569D01*
X162194Y49511D01*
X162139Y49456D01*
X162081Y49403D01*
X162020Y49353D01*
X161957Y49306D01*
X161892Y49262D01*
X161825Y49221D01*
X161756Y49183D01*
X161685Y49149D01*
X161613Y49118D01*
X161540Y49091D01*
X161465Y49067D01*
X161389Y49047D01*
X161312Y49030D01*
X161235Y49017D01*
X161157Y49007D01*
X161079Y49002D01*
X161000Y49000D01*
X75000Y49000D01*
X33000Y91000D01*
D13*
X34700Y138000D03*
D23*
X33000Y136300D01*
X33000Y91000D01*
X199100Y50000D02*
X199100Y49100D01*
X199000Y49000D01*
X192900Y49100D02*
X192900Y50000D01*
X192900Y49100D02*
X193000Y49000D01*
X228650Y62600D02*
X237300Y62600D01*
X228650Y62600D02*
X226250Y65000D01*
X226250Y71367D02*
X221317Y76300D01*
X226250Y71367D02*
X226250Y65000D01*
D13*
X62000Y110300D03*
D23*
X60300Y112000D01*
X55000Y112000D01*
X49000Y106000D01*
X49000Y95000D01*
X80000Y64000D02*
X133000Y64000D01*
X80000Y64000D02*
X49000Y95000D01*
X199000Y76300D02*
X221317Y76300D01*
X199000Y76300D02*
X193000Y76300D01*
X181949Y76300D01*
X181870Y76302D01*
X181792Y76307D01*
X181714Y76317D01*
X181637Y76330D01*
X181560Y76347D01*
X181484Y76367D01*
X181409Y76391D01*
X181336Y76418D01*
X181264Y76449D01*
X181193Y76483D01*
X181124Y76521D01*
X181057Y76562D01*
X180992Y76606D01*
X180929Y76653D01*
X180868Y76703D01*
X180810Y76756D01*
X180755Y76811D01*
X180702Y76869D01*
X180652Y76930D01*
X180605Y76993D01*
X180561Y77058D01*
X180520Y77125D01*
X180482Y77194D01*
X180448Y77265D01*
X180417Y77337D01*
X180390Y77410D01*
X180366Y77485D01*
X180346Y77561D01*
X180329Y77638D01*
X180316Y77715D01*
X180306Y77793D01*
X180301Y77871D01*
X180299Y77950D01*
X180299Y78800D01*
X180297Y78879D01*
X180292Y78957D01*
X180282Y79035D01*
X180269Y79112D01*
X180252Y79189D01*
X180232Y79265D01*
X180208Y79340D01*
X180181Y79413D01*
X180150Y79485D01*
X180116Y79556D01*
X180078Y79625D01*
X180037Y79692D01*
X179993Y79757D01*
X179946Y79820D01*
X179896Y79881D01*
X179843Y79939D01*
X179788Y79994D01*
X179730Y80047D01*
X179669Y80097D01*
X179606Y80144D01*
X179541Y80188D01*
X179474Y80229D01*
X179405Y80267D01*
X179334Y80301D01*
X179262Y80332D01*
X179189Y80359D01*
X179114Y80383D01*
X179038Y80403D01*
X178961Y80420D01*
X178884Y80433D01*
X178806Y80443D01*
X178728Y80448D01*
X178649Y80450D01*
X177399Y80450D01*
X177320Y80448D01*
X177242Y80443D01*
X177164Y80433D01*
X177087Y80420D01*
X177010Y80403D01*
X176934Y80383D01*
X176859Y80359D01*
X176786Y80332D01*
X176714Y80301D01*
X176643Y80267D01*
X176574Y80229D01*
X176507Y80188D01*
X176442Y80144D01*
X176379Y80097D01*
X176318Y80047D01*
X176260Y79994D01*
X176205Y79939D01*
X176152Y79881D01*
X176102Y79820D01*
X176055Y79757D01*
X176011Y79692D01*
X175970Y79625D01*
X175932Y79556D01*
X175898Y79485D01*
X175867Y79413D01*
X175840Y79340D01*
X175816Y79265D01*
X175796Y79189D01*
X175779Y79112D01*
X175766Y79035D01*
X175756Y78957D01*
X175751Y78879D01*
X175749Y78800D01*
X175749Y77950D01*
X175747Y77871D01*
X175742Y77793D01*
X175732Y77715D01*
X175719Y77638D01*
X175702Y77561D01*
X175682Y77485D01*
X175658Y77410D01*
X175631Y77337D01*
X175600Y77265D01*
X175566Y77194D01*
X175528Y77125D01*
X175487Y77058D01*
X175443Y76993D01*
X175396Y76930D01*
X175346Y76869D01*
X175293Y76811D01*
X175238Y76756D01*
X175180Y76703D01*
X175119Y76653D01*
X175056Y76606D01*
X174991Y76562D01*
X174924Y76521D01*
X174855Y76483D01*
X174784Y76449D01*
X174712Y76418D01*
X174639Y76391D01*
X174564Y76367D01*
X174488Y76347D01*
X174411Y76330D01*
X174334Y76317D01*
X174256Y76307D01*
X174178Y76302D01*
X174099Y76300D01*
X172850Y76300D01*
X172771Y76302D01*
X172693Y76307D01*
X172615Y76317D01*
X172538Y76330D01*
X172461Y76347D01*
X172385Y76367D01*
X172310Y76391D01*
X172237Y76418D01*
X172165Y76449D01*
X172094Y76483D01*
X172025Y76521D01*
X171958Y76562D01*
X171893Y76606D01*
X171830Y76653D01*
X171769Y76703D01*
X171711Y76756D01*
X171656Y76811D01*
X171603Y76869D01*
X171553Y76930D01*
X171506Y76993D01*
X171462Y77058D01*
X171421Y77125D01*
X171383Y77194D01*
X171349Y77265D01*
X171318Y77337D01*
X171291Y77410D01*
X171267Y77485D01*
X171247Y77561D01*
X171230Y77638D01*
X171217Y77715D01*
X171207Y77793D01*
X171202Y77871D01*
X171200Y77950D01*
X171200Y78800D01*
X171198Y78879D01*
X171193Y78957D01*
X171183Y79035D01*
X171170Y79112D01*
X171153Y79189D01*
X171133Y79265D01*
X171109Y79340D01*
X171082Y79413D01*
X171051Y79485D01*
X171017Y79556D01*
X170979Y79625D01*
X170938Y79692D01*
X170894Y79757D01*
X170847Y79820D01*
X170797Y79881D01*
X170744Y79939D01*
X170689Y79994D01*
X170631Y80047D01*
X170570Y80097D01*
X170507Y80144D01*
X170442Y80188D01*
X170375Y80229D01*
X170306Y80267D01*
X170235Y80301D01*
X170163Y80332D01*
X170090Y80359D01*
X170015Y80383D01*
X169939Y80403D01*
X169862Y80420D01*
X169785Y80433D01*
X169707Y80443D01*
X169629Y80448D01*
X169550Y80450D01*
X168300Y80450D01*
X168221Y80448D01*
X168143Y80443D01*
X168065Y80433D01*
X167988Y80420D01*
X167911Y80403D01*
X167835Y80383D01*
X167760Y80359D01*
X167687Y80332D01*
X167615Y80301D01*
X167544Y80267D01*
X167475Y80229D01*
X167408Y80188D01*
X167343Y80144D01*
X167280Y80097D01*
X167219Y80047D01*
X167161Y79994D01*
X167106Y79939D01*
X167053Y79881D01*
X167003Y79820D01*
X166956Y79757D01*
X166912Y79692D01*
X166871Y79625D01*
X166833Y79556D01*
X166799Y79485D01*
X166768Y79413D01*
X166741Y79340D01*
X166717Y79265D01*
X166697Y79189D01*
X166680Y79112D01*
X166667Y79035D01*
X166657Y78957D01*
X166652Y78879D01*
X166650Y78800D01*
X166650Y77950D01*
X166648Y77871D01*
X166643Y77793D01*
X166633Y77715D01*
X166620Y77638D01*
X166603Y77561D01*
X166583Y77485D01*
X166559Y77410D01*
X166532Y77337D01*
X166501Y77265D01*
X166467Y77194D01*
X166429Y77125D01*
X166388Y77058D01*
X166344Y76993D01*
X166297Y76930D01*
X166247Y76869D01*
X166194Y76811D01*
X166139Y76756D01*
X166081Y76703D01*
X166020Y76653D01*
X165957Y76606D01*
X165892Y76562D01*
X165825Y76521D01*
X165756Y76483D01*
X165685Y76449D01*
X165613Y76418D01*
X165540Y76391D01*
X165465Y76367D01*
X165389Y76347D01*
X165312Y76330D01*
X165235Y76317D01*
X165157Y76307D01*
X165079Y76302D01*
X165000Y76300D01*
X145300Y76300D01*
X133000Y64000D01*
X199100Y76400D02*
X199100Y77000D01*
X199100Y76400D02*
X199000Y76300D01*
X192900Y76400D02*
X192900Y77000D01*
X192900Y76400D02*
X193000Y76300D01*
X211900Y62600D02*
X220550Y62600D01*
X222950Y65000D01*
X222950Y70000D01*
X219950Y73000D01*
D13*
X62000Y117000D03*
D23*
X60300Y115300D01*
X53633Y115300D02*
X45700Y107367D01*
X53633Y115300D02*
X60300Y115300D01*
X45700Y107367D02*
X45700Y93633D01*
X78633Y60700D02*
X134367Y60700D01*
X146667Y73000D01*
X78633Y60700D02*
X45700Y93633D01*
X199000Y73000D02*
X219950Y73000D01*
X199000Y73000D02*
X193000Y73000D01*
X146667Y73000D01*
X192900Y72900D02*
X192900Y72000D01*
X192900Y72900D02*
X193000Y73000D01*
X199100Y72900D02*
X199100Y72000D01*
X199100Y72900D02*
X199000Y73000D01*
X262700Y113400D02*
X271350Y113400D01*
X273750Y111000D01*
X273750Y103633D02*
X277683Y99700D01*
X273750Y103633D02*
X273750Y111000D01*
X313200Y99700D02*
X315000Y97900D01*
D13*
X315000Y97900D03*
D23*
X301000Y99700D02*
X277683Y99700D01*
X301000Y99700D02*
X307000Y99700D01*
X313200Y99700D01*
X307100Y99000D02*
X307000Y99100D01*
X307000Y99700D01*
X300900Y99600D02*
X300900Y99000D01*
X300900Y99600D02*
X301000Y99700D01*
X288100Y113400D02*
X279450Y113400D01*
X277050Y111000D01*
X277050Y105000D01*
X279050Y103000D01*
X312900Y103000D02*
X315000Y105100D01*
D13*
X315000Y105100D03*
D23*
X312900Y103000D02*
X307000Y103000D01*
X301000Y103000D01*
X279050Y103000D01*
X300900Y103100D02*
X300900Y104000D01*
X300900Y103100D02*
X301000Y103000D01*
X307100Y103100D02*
X307100Y104000D01*
X307100Y103100D02*
X307000Y103000D01*
D13*
X111000Y79000D03*
D23*
X114000Y88000D02*
X122000Y88000D01*
X114000Y88000D02*
X111000Y85000D01*
X111000Y79000D01*
X132000Y88000D02*
X169000Y88000D01*
X171000Y90000D01*
D13*
X171000Y90000D03*
M02*
